  0
SECTION
  2
HEADER
  9
$ANGBASE
  50
0.0
  9
$ANGDIR
  70
1
  9
$MEASUREMENT
  70
0
  9
$INSUNITS
  70
1
  0
ENDSEC
  0
SECTION
  2
TABLES
  0
TABLE
  2
LTYPE
  70
4
  0
LTYPE
  5
40F
  2
CONTINUOUS
  70
0
  3
Solid line
  72
65
  73
0
  40
0.0
  0
LTYPE
  5
410
  2
DASHDOT
 70
0
  3
Dash Dot ____ _ ____ _
 72
65
 73
4
 40
2.0
 49
1.25
 49
-0.25
 49
0.25
 49
-0.25
  0
LTYPE
  5
411
  2
DASHED
 70
0
  3
Dashed __ __ __ __ __
 72
65
 73
2
 40
0.75
 49
0.5
 49
-0.25
  0
LTYPE
  5
43B
  2
DOTTED
 70
0
  3
Dotted .  .  .  .
 72
65
 73
2
 40
0.2
 49
0.0
 49
-0.2
  0
ENDTAB
  0
TABLE
  2
STYLE
  70
4
  0
STYLE
  2
KICAD
  70
0
  40
0
  41
1
  42
1
  50
0
  71
0
  3
isocp.shx
  0
STYLE
  2
KICADB
  70
0
  40
0
  41
1
  42
1
  50
0
  71
0
  3
isocp.shx
  0
STYLE
  2
KICADI
  70
0
  40
0
  41
1
  42
1
  50
15
  71
0
  3
isocp.shx
  0
STYLE
  2
KICADBI
  70
0
  40
0
  41
1
  42
1
  50
15
  71
0
  3
isocp.shx
  0
ENDTAB
  0
TABLE
  2
LAYER
  70
1
  0
LAYER
  2
BLACK
  70
0
  62
250
  6
CONTINUOUS
  0
ENDTAB
  0
ENDSEC
  0
SECTION
  2
ENTITIES
0
LINE
8
BLACK
6
CONTINUOUS
10
5.4196679921259845
20
-4.6514528740157477
11
5.4202006692913383
21
-4.6519855511811024
0
LINE
8
BLACK
6
CONTINUOUS
10
5.4202006692913383
20
-4.6519855511811024
11
5.4202755905511806
21
-4.6523622047244091
0
LINE
8
BLACK
6
CONTINUOUS
10
5.4202755905511806
20
-4.6523622047244091
11
5.4202755905511806
21
-4.7098425196850391
0
LINE
8
BLACK
6
CONTINUOUS
10
5.4202755905511806
20
-4.7098425196850391
11
5.4202006692913383
21
-4.7102191732283467
0
LINE
8
BLACK
6
CONTINUOUS
10
5.4202006692913383
20
-4.7102191732283467
11
5.4196679921259845
21
-4.7107518503937005
0
LINE
8
BLACK
6
CONTINUOUS
10
5.4196679921259845
20
-4.7107518503937005
11
5.4192913385826769
21
-4.7108267716535428
0
LINE
8
BLACK
6
CONTINUOUS
10
5.4192913385826769
20
-4.7108267716535428
11
5.2893700787401574
21
-4.7108267716535428
0
LINE
8
BLACK
6
CONTINUOUS
10
5.2893700787401574
20
-4.7108267716535428
11
5.2889934251968507
21
-4.7107518503937005
0
LINE
8
BLACK
6
CONTINUOUS
10
5.2889934251968507
20
-4.7107518503937005
11
5.288460748031496
21
-4.7102191732283467
0
LINE
8
BLACK
6
CONTINUOUS
10
5.288460748031496
20
-4.7102191732283467
11
5.2883858267716537
21
-4.7098425196850391
0
LINE
8
BLACK
6
CONTINUOUS
10
5.2883858267716537
20
-4.7098425196850391
11
5.2883858267716537
21
-4.6523622047244091
0
LINE
8
BLACK
6
CONTINUOUS
10
5.2883858267716537
20
-4.6523622047244091
11
5.288460748031496
21
-4.6519855511811024
0
LINE
8
BLACK
6
CONTINUOUS
10
5.288460748031496
20
-4.6519855511811024
11
5.2889934251968507
21
-4.6514528740157477
0
LINE
8
BLACK
6
CONTINUOUS
10
5.2889934251968507
20
-4.6514528740157477
11
5.2893700787401574
21
-4.6513779527559054
0
LINE
8
BLACK
6
CONTINUOUS
10
5.2893700787401574
20
-4.6513779527559054
11
5.4192913385826769
21
-4.6513779527559054
0
LINE
8
BLACK
6
CONTINUOUS
10
5.4192913385826769
20
-4.6513779527559054
11
5.4196679921259845
21
-4.6514528740157477
0
LINE
8
BLACK
6
CONTINUOUS
10
5.2903543307086611
20
-4.6533464566929137
11
5.2903543307086611
21
-4.7088582677165354
0
LINE
8
BLACK
6
CONTINUOUS
10
5.2903543307086611
20
-4.7088582677165354
11
5.4183070866141732
21
-4.7088582677165354
0
LINE
8
BLACK
6
CONTINUOUS
10
5.4183070866141732
20
-4.7088582677165354
11
5.4183070866141732
21
-4.6533464566929137
0
LINE
8
BLACK
6
CONTINUOUS
10
5.4183070866141732
20
-4.6533464566929137
11
5.2903543307086611
21
-4.6533464566929137
0
LINE
8
BLACK
6
CONTINUOUS
10
5.7791168110236217
20
-4.5353111417322838
11
5.7796494881889764
21
-4.5358438188976375
0
LINE
8
BLACK
6
CONTINUOUS
10
5.7796494881889764
20
-4.5358438188976375
11
5.7797244094488187
21
-4.5362204724409452
0
LINE
8
BLACK
6
CONTINUOUS
10
5.7797244094488187
20
-4.5362204724409452
11
5.7797244094488187
21
-4.6842519685039372
0
LINE
8
BLACK
6
CONTINUOUS
10
5.7797244094488187
20
-4.6842519685039372
11
5.7796494881889764
21
-4.684628622047244
0
LINE
8
BLACK
6
CONTINUOUS
10
5.7796494881889764
20
-4.684628622047244
11
5.7791168110236217
21
-4.6851612992125986
0
LINE
8
BLACK
6
CONTINUOUS
10
5.7791168110236217
20
-4.6851612992125986
11
5.778740157480315
21
-4.6852362204724409
0
LINE
8
BLACK
6
CONTINUOUS
10
5.778740157480315
20
-4.6852362204724409
11
5.7015748031496063
21
-4.6852362204724409
0
LINE
8
BLACK
6
CONTINUOUS
10
5.7015748031496063
20
-4.6852362204724409
11
5.7011981496062987
21
-4.6851612992125986
0
LINE
8
BLACK
6
CONTINUOUS
10
5.7011981496062987
20
-4.6851612992125986
11
5.7006654724409449
21
-4.684628622047244
0
LINE
8
BLACK
6
CONTINUOUS
10
5.7006654724409449
20
-4.684628622047244
11
5.7005905511811026
21
-4.6842519685039372
0
LINE
8
BLACK
6
CONTINUOUS
10
5.7005905511811026
20
-4.6842519685039372
11
5.7005905511811026
21
-4.5362204724409452
0
LINE
8
BLACK
6
CONTINUOUS
10
5.7005905511811026
20
-4.5362204724409452
11
5.7006654724409449
21
-4.5358438188976375
0
LINE
8
BLACK
6
CONTINUOUS
10
5.7006654724409449
20
-4.5358438188976375
11
5.7011981496062987
21
-4.5353111417322838
0
LINE
8
BLACK
6
CONTINUOUS
10
5.7011981496062987
20
-4.5353111417322838
11
5.7015748031496063
21
-4.5352362204724406
0
LINE
8
BLACK
6
CONTINUOUS
10
5.7015748031496063
20
-4.5352362204724406
11
5.778740157480315
21
-4.5352362204724406
0
LINE
8
BLACK
6
CONTINUOUS
10
5.778740157480315
20
-4.5352362204724406
11
5.7791168110236217
21
-4.5353111417322838
0
LINE
8
BLACK
6
CONTINUOUS
10
5.70255905511811
20
-4.5372047244094489
11
5.70255905511811
21
-4.6832677165354326
0
LINE
8
BLACK
6
CONTINUOUS
10
5.70255905511811
20
-4.6832677165354326
11
5.7777559055118113
21
-4.6832677165354326
0
LINE
8
BLACK
6
CONTINUOUS
10
5.7777559055118113
20
-4.6832677165354326
11
5.7777559055118113
21
-4.5372047244094489
0
LINE
8
BLACK
6
CONTINUOUS
10
5.7777559055118113
20
-4.5372047244094489
11
5.70255905511811
21
-4.5372047244094489
0
LINE
8
BLACK
6
CONTINUOUS
10
5.8617939763779523
20
-4.5353111417322838
11
5.862326653543307
21
-4.5358438188976375
0
LINE
8
BLACK
6
CONTINUOUS
10
5.862326653543307
20
-4.5358438188976375
11
5.8624015748031493
21
-4.5362204724409452
0
LINE
8
BLACK
6
CONTINUOUS
10
5.8624015748031493
20
-4.5362204724409452
11
5.8624015748031493
21
-4.6842519685039372
0
LINE
8
BLACK
6
CONTINUOUS
10
5.8624015748031493
20
-4.6842519685039372
11
5.862326653543307
21
-4.684628622047244
0
LINE
8
BLACK
6
CONTINUOUS
10
5.862326653543307
20
-4.684628622047244
11
5.8617939763779523
21
-4.6851612992125986
0
LINE
8
BLACK
6
CONTINUOUS
10
5.8617939763779523
20
-4.6851612992125986
11
5.8614173228346456
21
-4.6852362204724409
0
LINE
8
BLACK
6
CONTINUOUS
10
5.8614173228346456
20
-4.6852362204724409
11
5.7842519685039369
21
-4.6852362204724409
0
LINE
8
BLACK
6
CONTINUOUS
10
5.7842519685039369
20
-4.6852362204724409
11
5.7838753149606301
21
-4.6851612992125986
0
LINE
8
BLACK
6
CONTINUOUS
10
5.7838753149606301
20
-4.6851612992125986
11
5.7833426377952755
21
-4.684628622047244
0
LINE
8
BLACK
6
CONTINUOUS
10
5.7833426377952755
20
-4.684628622047244
11
5.7832677165354331
21
-4.6842519685039372
0
LINE
8
BLACK
6
CONTINUOUS
10
5.7832677165354331
20
-4.6842519685039372
11
5.7832677165354331
21
-4.5362204724409452
0
LINE
8
BLACK
6
CONTINUOUS
10
5.7832677165354331
20
-4.5362204724409452
11
5.7833426377952755
21
-4.5358438188976375
0
LINE
8
BLACK
6
CONTINUOUS
10
5.7833426377952755
20
-4.5358438188976375
11
5.7838753149606301
21
-4.5353111417322838
0
LINE
8
BLACK
6
CONTINUOUS
10
5.7838753149606301
20
-4.5353111417322838
11
5.7842519685039369
21
-4.5352362204724406
0
LINE
8
BLACK
6
CONTINUOUS
10
5.7842519685039369
20
-4.5352362204724406
11
5.8614173228346456
21
-4.5352362204724406
0
LINE
8
BLACK
6
CONTINUOUS
10
5.8614173228346456
20
-4.5352362204724406
11
5.8617939763779523
21
-4.5353111417322838
0
LINE
8
BLACK
6
CONTINUOUS
10
5.7852362204724406
20
-4.5372047244094489
11
5.7852362204724406
21
-4.6832677165354326
0
LINE
8
BLACK
6
CONTINUOUS
10
5.7852362204724406
20
-4.6832677165354326
11
5.8604330708661418
21
-4.6832677165354326
0
LINE
8
BLACK
6
CONTINUOUS
10
5.8604330708661418
20
-4.6832677165354326
11
5.8604330708661418
21
-4.5372047244094489
0
LINE
8
BLACK
6
CONTINUOUS
10
5.8604330708661418
20
-4.5372047244094489
11
5.7852362204724406
21
-4.5372047244094489
0
LINE
8
BLACK
6
CONTINUOUS
10
5.6932900393700789
20
-4.4735001181102358
11
5.6938227165354327
21
-4.4740327952755905
0
LINE
8
BLACK
6
CONTINUOUS
10
5.6938227165354327
20
-4.4740327952755905
11
5.693897637795275
21
-4.4744094488188972
0
LINE
8
BLACK
6
CONTINUOUS
10
5.693897637795275
20
-4.4744094488188972
11
5.693897637795275
21
-4.6830708661417324
0
LINE
8
BLACK
6
CONTINUOUS
10
5.693897637795275
20
-4.6830708661417324
11
5.6938227165354327
21
-4.6834475196850391
0
LINE
8
BLACK
6
CONTINUOUS
10
5.6938227165354327
20
-4.6834475196850391
11
5.6932900393700789
21
-4.6839801968503938
0
LINE
8
BLACK
6
CONTINUOUS
10
5.6932900393700789
20
-4.6839801968503938
11
5.6929133858267713
21
-4.6840551181102361
0
LINE
8
BLACK
6
CONTINUOUS
10
5.6929133858267713
20
-4.6840551181102361
11
5.606299212598425
21
-4.6840551181102361
0
LINE
8
BLACK
6
CONTINUOUS
10
5.606299212598425
20
-4.6840551181102361
11
5.6059225590551183
21
-4.6839801968503938
0
LINE
8
BLACK
6
CONTINUOUS
10
5.6059225590551183
20
-4.6839801968503938
11
5.6053898818897636
21
-4.6834475196850391
0
LINE
8
BLACK
6
CONTINUOUS
10
5.6053898818897636
20
-4.6834475196850391
11
5.6053149606299213
21
-4.6830708661417324
0
LINE
8
BLACK
6
CONTINUOUS
10
5.6053149606299213
20
-4.6830708661417324
11
5.6053149606299213
21
-4.4744094488188972
0
LINE
8
BLACK
6
CONTINUOUS
10
5.6053149606299213
20
-4.4744094488188972
11
5.6053898818897636
21
-4.4740327952755905
0
LINE
8
BLACK
6
CONTINUOUS
10
5.6053898818897636
20
-4.4740327952755905
11
5.6059225590551183
21
-4.4735001181102358
0
LINE
8
BLACK
6
CONTINUOUS
10
5.6059225590551183
20
-4.4735001181102358
11
5.606299212598425
21
-4.4734251968503935
0
LINE
8
BLACK
6
CONTINUOUS
10
5.606299212598425
20
-4.4734251968503935
11
5.6929133858267713
21
-4.4734251968503935
0
LINE
8
BLACK
6
CONTINUOUS
10
5.6929133858267713
20
-4.4734251968503935
11
5.6932900393700789
21
-4.4735001181102358
0
LINE
8
BLACK
6
CONTINUOUS
10
5.6072834645669287
20
-4.4753937007874018
11
5.6072834645669287
21
-4.6820866141732278
0
LINE
8
BLACK
6
CONTINUOUS
10
5.6072834645669287
20
-4.6820866141732278
11
5.6919291338582676
21
-4.6820866141732278
0
LINE
8
BLACK
6
CONTINUOUS
10
5.6919291338582676
20
-4.6820866141732278
11
5.6919291338582676
21
-4.4753937007874018
0
LINE
8
BLACK
6
CONTINUOUS
10
5.6919291338582676
20
-4.4753937007874018
11
5.6072834645669287
21
-4.4753937007874018
0
LINE
8
BLACK
6
CONTINUOUS
10
6.121950472440945
20
-4.5883518110236219
11
6.1292591338582678
21
-4.5913791732283462
0
LINE
8
BLACK
6
CONTINUOUS
10
6.1292591338582678
20
-4.5913791732283462
11
6.1358367322834644
21
-4.5957741732283459
0
LINE
8
BLACK
6
CONTINUOUS
10
6.1358367322834644
20
-4.5957741732283459
11
6.1414305511811023
21
-4.6013679921259838
0
LINE
8
BLACK
6
CONTINUOUS
10
6.1414305511811023
20
-4.6013679921259838
11
6.145825551181102
21
-4.6079455905511812
0
LINE
8
BLACK
6
CONTINUOUS
10
6.145825551181102
20
-4.6079455905511812
11
6.1488529133858263
21
-4.615254251968504
0
LINE
8
BLACK
6
CONTINUOUS
10
6.1488529133858263
20
-4.615254251968504
11
6.1503962204724409
21
-4.6230130708661417
0
LINE
8
BLACK
6
CONTINUOUS
10
6.1503962204724409
20
-4.6230130708661417
11
6.1503962204724409
21
-4.6309239370078741
0
LINE
8
BLACK
6
CONTINUOUS
10
6.1503962204724409
20
-4.6309239370078741
11
6.1488529133858263
21
-4.6386827559055117
0
LINE
8
BLACK
6
CONTINUOUS
10
6.1488529133858263
20
-4.6386827559055117
11
6.145825551181102
21
-4.6459914173228345
0
LINE
8
BLACK
6
CONTINUOUS
10
6.145825551181102
20
-4.6459914173228345
11
6.1414305511811023
21
-4.6525690157480311
0
LINE
8
BLACK
6
CONTINUOUS
10
6.1414305511811023
20
-4.6525690157480311
11
6.1358367322834644
21
-4.6581628346456689
0
LINE
8
BLACK
6
CONTINUOUS
10
6.1358367322834644
20
-4.6581628346456689
11
6.1292591338582678
21
-4.6625578346456695
0
LINE
8
BLACK
6
CONTINUOUS
10
6.1292591338582678
20
-4.6625578346456695
11
6.121950472440945
21
-4.6655851968503939
0
LINE
8
BLACK
6
CONTINUOUS
10
6.121950472440945
20
-4.6655851968503939
11
6.1141916535433065
21
-4.6671285039370076
0
LINE
8
BLACK
6
CONTINUOUS
10
6.1141916535433065
20
-4.6671285039370076
11
6.106280787401575
21
-4.6671285039370076
0
LINE
8
BLACK
6
CONTINUOUS
10
6.106280787401575
20
-4.6671285039370076
11
6.0985219685039365
21
-4.6655851968503939
0
LINE
8
BLACK
6
CONTINUOUS
10
6.0985219685039365
20
-4.6655851968503939
11
6.0912133070866137
21
-4.6625578346456695
0
LINE
8
BLACK
6
CONTINUOUS
10
6.0912133070866137
20
-4.6625578346456695
11
6.0846357086614171
21
-4.6581628346456689
0
LINE
8
BLACK
6
CONTINUOUS
10
6.0846357086614171
20
-4.6581628346456689
11
6.0790418897637792
21
-4.6525690157480311
0
LINE
8
BLACK
6
CONTINUOUS
10
6.0790418897637792
20
-4.6525690157480311
11
6.0746468897637795
21
-4.6459914173228345
0
LINE
8
BLACK
6
CONTINUOUS
10
6.0746468897637795
20
-4.6459914173228345
11
6.0716195275590552
21
-4.6386827559055117
0
LINE
8
BLACK
6
CONTINUOUS
10
6.0716195275590552
20
-4.6386827559055117
11
6.0700762204724406
21
-4.6309239370078741
0
LINE
8
BLACK
6
CONTINUOUS
10
6.0700762204724406
20
-4.6309239370078741
11
6.0700762204724406
21
-4.6231878346456696
0
LINE
8
BLACK
6
CONTINUOUS
10
6.0700762204724406
20
-4.6231878346456696
11
6.0700762204724406
21
-4.6230130708661417
0
LINE
8
BLACK
6
CONTINUOUS
10
6.0700762204724406
20
-4.6230130708661417
11
6.0716195275590552
21
-4.615254251968504
0
LINE
8
BLACK
6
CONTINUOUS
10
6.0716195275590552
20
-4.615254251968504
11
6.0746468897637795
21
-4.6079455905511812
0
LINE
8
BLACK
6
CONTINUOUS
10
6.0746468897637795
20
-4.6079455905511812
11
6.0790418897637792
21
-4.6013679921259838
0
LINE
8
BLACK
6
CONTINUOUS
10
6.0790418897637792
20
-4.6013679921259838
11
6.0846357086614171
21
-4.5957741732283459
0
LINE
8
BLACK
6
CONTINUOUS
10
6.0846357086614171
20
-4.5957741732283459
11
6.0912133070866137
21
-4.5913791732283462
0
LINE
8
BLACK
6
CONTINUOUS
10
6.0912133070866137
20
-4.5913791732283462
11
6.0985219685039365
21
-4.5883518110236219
0
LINE
8
BLACK
6
CONTINUOUS
10
6.0985219685039365
20
-4.5883518110236219
11
6.106280787401575
21
-4.5868085039370081
0
LINE
8
BLACK
6
CONTINUOUS
10
6.106280787401575
20
-4.5868085039370081
11
6.1141916535433065
21
-4.5868085039370081
0
LINE
8
BLACK
6
CONTINUOUS
10
6.1141916535433065
20
-4.5868085039370081
11
6.121950472440945
21
-4.5883518110236219
0
LINE
8
BLACK
6
CONTINUOUS
10
6.0718503937007871
20
-4.6307491732283461
11
6.0733255118110234
21
-4.6381652362204724
0
LINE
8
BLACK
6
CONTINUOUS
10
6.0733255118110234
20
-4.6381652362204724
11
6.0762191338582676
21
-4.6451510236220468
0
LINE
8
BLACK
6
CONTINUOUS
10
6.0762191338582676
20
-4.6451510236220468
11
6.0804200000000002
21
-4.651438070866142
0
LINE
8
BLACK
6
CONTINUOUS
10
6.0804200000000002
20
-4.651438070866142
11
6.085766653543307
21
-4.6567847244094489
0
LINE
8
BLACK
6
CONTINUOUS
10
6.085766653543307
20
-4.6567847244094489
11
6.0920537007874014
21
-4.6609855905511806
0
LINE
8
BLACK
6
CONTINUOUS
10
6.0920537007874014
20
-4.6609855905511806
11
6.0990394881889767
21
-4.6638792125984248
0
LINE
8
BLACK
6
CONTINUOUS
10
6.0990394881889767
20
-4.6638792125984248
11
6.1064555511811021
21
-4.6653543307086611
0
LINE
8
BLACK
6
CONTINUOUS
10
6.1064555511811021
20
-4.6653543307086611
11
6.1140168897637794
21
-4.6653543307086611
0
LINE
8
BLACK
6
CONTINUOUS
10
6.1140168897637794
20
-4.6653543307086611
11
6.1214329527559057
21
-4.6638792125984248
0
LINE
8
BLACK
6
CONTINUOUS
10
6.1214329527559057
20
-4.6638792125984248
11
6.1284187401574801
21
-4.6609855905511806
0
LINE
8
BLACK
6
CONTINUOUS
10
6.1284187401574801
20
-4.6609855905511806
11
6.1347057874015745
21
-4.6567847244094489
0
LINE
8
BLACK
6
CONTINUOUS
10
6.1347057874015745
20
-4.6567847244094489
11
6.1400524409448813
21
-4.651438070866142
0
LINE
8
BLACK
6
CONTINUOUS
10
6.1400524409448813
20
-4.651438070866142
11
6.1442533070866139
21
-4.6451510236220468
0
LINE
8
BLACK
6
CONTINUOUS
10
6.1442533070866139
20
-4.6451510236220468
11
6.1471469291338581
21
-4.6381652362204724
0
LINE
8
BLACK
6
CONTINUOUS
10
6.1471469291338581
20
-4.6381652362204724
11
6.1486220472440944
21
-4.6307491732283461
0
LINE
8
BLACK
6
CONTINUOUS
10
6.1486220472440944
20
-4.6307491732283461
11
6.1486220472440944
21
-4.6231878346456696
0
LINE
8
BLACK
6
CONTINUOUS
10
6.1486220472440944
20
-4.6231878346456696
11
6.1471469291338581
21
-4.6157717716535434
0
LINE
8
BLACK
6
CONTINUOUS
10
6.1471469291338581
20
-4.6157717716535434
11
6.1442533070866139
21
-4.6087859842519681
0
LINE
8
BLACK
6
CONTINUOUS
10
6.1442533070866139
20
-4.6087859842519681
11
6.1400524409448813
21
-4.6024989370078737
0
LINE
8
BLACK
6
CONTINUOUS
10
6.1400524409448813
20
-4.6024989370078737
11
6.1347057874015745
21
-4.5971522834645668
0
LINE
8
BLACK
6
CONTINUOUS
10
6.1347057874015745
20
-4.5971522834645668
11
6.1284187401574801
21
-4.5929514173228343
0
LINE
8
BLACK
6
CONTINUOUS
10
6.1284187401574801
20
-4.5929514173228343
11
6.1214329527559057
21
-4.5900577952755901
0
LINE
8
BLACK
6
CONTINUOUS
10
6.1214329527559057
20
-4.5900577952755901
11
6.1140168897637794
21
-4.5885826771653546
0
LINE
8
BLACK
6
CONTINUOUS
10
6.1140168897637794
20
-4.5885826771653546
11
6.1064555511811021
21
-4.5885826771653546
0
LINE
8
BLACK
6
CONTINUOUS
10
6.1064555511811021
20
-4.5885826771653546
11
6.0990394881889767
21
-4.5900577952755901
0
LINE
8
BLACK
6
CONTINUOUS
10
6.0990394881889767
20
-4.5900577952755901
11
6.0920537007874014
21
-4.5929514173228343
0
LINE
8
BLACK
6
CONTINUOUS
10
6.0920537007874014
20
-4.5929514173228343
11
6.085766653543307
21
-4.5971522834645668
0
LINE
8
BLACK
6
CONTINUOUS
10
6.085766653543307
20
-4.5971522834645668
11
6.0804200000000002
21
-4.6024989370078737
0
LINE
8
BLACK
6
CONTINUOUS
10
6.0804200000000002
20
-4.6024989370078737
11
6.0762191338582676
21
-4.6087859842519681
0
LINE
8
BLACK
6
CONTINUOUS
10
6.0762191338582676
20
-4.6087859842519681
11
6.0733255118110234
21
-4.6157717716535434
0
LINE
8
BLACK
6
CONTINUOUS
10
6.0733255118110234
20
-4.6157717716535434
11
6.0718503937007871
21
-4.6231878346456696
0
LINE
8
BLACK
6
CONTINUOUS
10
6.0718503937007871
20
-4.6231878346456696
11
6.0718503937007871
21
-4.6307491732283461
0
LINE
8
BLACK
6
CONTINUOUS
10
6.2842349212598423
20
-4.5987953937007875
11
6.2847675984251969
21
-4.5993280708661413
0
LINE
8
BLACK
6
CONTINUOUS
10
6.2847675984251969
20
-4.5993280708661413
11
6.2848425196850393
21
-4.5997047244094489
0
LINE
8
BLACK
6
CONTINUOUS
10
6.2848425196850393
20
-4.5997047244094489
11
6.2848425196850393
21
-4.6571850393700789
0
LINE
8
BLACK
6
CONTINUOUS
10
6.2848425196850393
20
-4.6571850393700789
11
6.2847675984251969
21
-4.6575616929133856
0
LINE
8
BLACK
6
CONTINUOUS
10
6.2847675984251969
20
-4.6575616929133856
11
6.2842349212598423
21
-4.6580943700787403
0
LINE
8
BLACK
6
CONTINUOUS
10
6.2842349212598423
20
-4.6580943700787403
11
6.2838582677165356
21
-4.6581692913385826
0
LINE
8
BLACK
6
CONTINUOUS
10
6.2838582677165356
20
-4.6581692913385826
11
6.1539370078740152
21
-4.6581692913385826
0
LINE
8
BLACK
6
CONTINUOUS
10
6.1539370078740152
20
-4.6581692913385826
11
6.1535603543307085
21
-4.6580943700787403
0
LINE
8
BLACK
6
CONTINUOUS
10
6.1535603543307085
20
-4.6580943700787403
11
6.1530276771653538
21
-4.6575616929133856
0
LINE
8
BLACK
6
CONTINUOUS
10
6.1530276771653538
20
-4.6575616929133856
11
6.1529527559055115
21
-4.6571850393700789
0
LINE
8
BLACK
6
CONTINUOUS
10
6.1529527559055115
20
-4.6571850393700789
11
6.1529527559055115
21
-4.5997047244094489
0
LINE
8
BLACK
6
CONTINUOUS
10
6.1529527559055115
20
-4.5997047244094489
11
6.1530276771653538
21
-4.5993280708661413
0
LINE
8
BLACK
6
CONTINUOUS
10
6.1530276771653538
20
-4.5993280708661413
11
6.1535603543307085
21
-4.5987953937007875
0
LINE
8
BLACK
6
CONTINUOUS
10
6.1535603543307085
20
-4.5987953937007875
11
6.1539370078740152
21
-4.5987204724409452
0
LINE
8
BLACK
6
CONTINUOUS
10
6.1539370078740152
20
-4.5987204724409452
11
6.2838582677165356
21
-4.5987204724409452
0
LINE
8
BLACK
6
CONTINUOUS
10
6.2838582677165356
20
-4.5987204724409452
11
6.2842349212598423
21
-4.5987953937007875
0
LINE
8
BLACK
6
CONTINUOUS
10
6.1549212598425198
20
-4.6006889763779526
11
6.1549212598425198
21
-4.6562007874015743
0
LINE
8
BLACK
6
CONTINUOUS
10
6.1549212598425198
20
-4.6562007874015743
11
6.2828740157480309
21
-4.6562007874015743
0
LINE
8
BLACK
6
CONTINUOUS
10
6.2828740157480309
20
-4.6562007874015743
11
6.2828740157480309
21
-4.6006889763779526
0
LINE
8
BLACK
6
CONTINUOUS
10
6.2828740157480309
20
-4.6006889763779526
11
6.1549212598425198
21
-4.6006889763779526
0
LINE
8
BLACK
6
CONTINUOUS
10
5.4196679921259845
20
-4.5884607480314958
11
5.4202006692913383
21
-4.5889934251968505
0
LINE
8
BLACK
6
CONTINUOUS
10
5.4202006692913383
20
-4.5889934251968505
11
5.4202755905511806
21
-4.5893700787401572
0
LINE
8
BLACK
6
CONTINUOUS
10
5.4202755905511806
20
-4.5893700787401572
11
5.4202755905511806
21
-4.6468503937007872
0
LINE
8
BLACK
6
CONTINUOUS
10
5.4202755905511806
20
-4.6468503937007872
11
5.4202006692913383
21
-4.647227047244094
0
LINE
8
BLACK
6
CONTINUOUS
10
5.4202006692913383
20
-4.647227047244094
11
5.4196679921259845
21
-4.6477597244094486
0
LINE
8
BLACK
6
CONTINUOUS
10
5.4196679921259845
20
-4.6477597244094486
11
5.4192913385826769
21
-4.6478346456692909
0
LINE
8
BLACK
6
CONTINUOUS
10
5.4192913385826769
20
-4.6478346456692909
11
5.2893700787401574
21
-4.6478346456692909
0
LINE
8
BLACK
6
CONTINUOUS
10
5.2893700787401574
20
-4.6478346456692909
11
5.2889934251968507
21
-4.6477597244094486
0
LINE
8
BLACK
6
CONTINUOUS
10
5.2889934251968507
20
-4.6477597244094486
11
5.288460748031496
21
-4.647227047244094
0
LINE
8
BLACK
6
CONTINUOUS
10
5.288460748031496
20
-4.647227047244094
11
5.2883858267716537
21
-4.6468503937007872
0
LINE
8
BLACK
6
CONTINUOUS
10
5.2883858267716537
20
-4.6468503937007872
11
5.2883858267716537
21
-4.5893700787401572
0
LINE
8
BLACK
6
CONTINUOUS
10
5.2883858267716537
20
-4.5893700787401572
11
5.288460748031496
21
-4.5889934251968505
0
LINE
8
BLACK
6
CONTINUOUS
10
5.288460748031496
20
-4.5889934251968505
11
5.2889934251968507
21
-4.5884607480314958
0
LINE
8
BLACK
6
CONTINUOUS
10
5.2889934251968507
20
-4.5884607480314958
11
5.2893700787401574
21
-4.5883858267716535
0
LINE
8
BLACK
6
CONTINUOUS
10
5.2893700787401574
20
-4.5883858267716535
11
5.4192913385826769
21
-4.5883858267716535
0
LINE
8
BLACK
6
CONTINUOUS
10
5.4192913385826769
20
-4.5883858267716535
11
5.4196679921259845
21
-4.5884607480314958
0
LINE
8
BLACK
6
CONTINUOUS
10
5.2903543307086611
20
-4.5903543307086609
11
5.2903543307086611
21
-4.6458661417322835
0
LINE
8
BLACK
6
CONTINUOUS
10
5.2903543307086611
20
-4.6458661417322835
11
5.4183070866141732
21
-4.6458661417322835
0
LINE
8
BLACK
6
CONTINUOUS
10
5.4183070866141732
20
-4.6458661417322835
11
5.4183070866141732
21
-4.5903543307086609
0
LINE
8
BLACK
6
CONTINUOUS
10
5.4183070866141732
20
-4.5903543307086609
11
5.2903543307086611
21
-4.5903543307086609
0
LINE
8
BLACK
6
CONTINUOUS
10
6.3488018503937003
20
-4.3330473622047245
11
6.3493345275590549
21
-4.3335800393700783
0
LINE
8
BLACK
6
CONTINUOUS
10
6.3493345275590549
20
-4.3335800393700783
11
6.3494094488188972
21
-4.3339566929133859
0
LINE
8
BLACK
6
CONTINUOUS
10
6.3494094488188972
20
-4.3339566929133859
11
6.3494094488188972
21
-4.5843503937007872
0
LINE
8
BLACK
6
CONTINUOUS
10
6.3494094488188972
20
-4.5843503937007872
11
6.3493345275590549
21
-4.584727047244094
0
LINE
8
BLACK
6
CONTINUOUS
10
6.3493345275590549
20
-4.584727047244094
11
6.3488018503937003
21
-4.5852597244094486
0
LINE
8
BLACK
6
CONTINUOUS
10
6.3488018503937003
20
-4.5852597244094486
11
6.3484251968503935
21
-4.5853346456692909
0
LINE
8
BLACK
6
CONTINUOUS
10
6.3484251968503935
20
-4.5853346456692909
11
6.2106299212598426
21
-4.5853346456692909
0
LINE
8
BLACK
6
CONTINUOUS
10
6.2106299212598426
20
-4.5853346456692909
11
6.210253267716535
21
-4.5852597244094486
0
LINE
8
BLACK
6
CONTINUOUS
10
6.210253267716535
20
-4.5852597244094486
11
6.2097205905511812
21
-4.584727047244094
0
LINE
8
BLACK
6
CONTINUOUS
10
6.2097205905511812
20
-4.584727047244094
11
6.2096456692913389
21
-4.5843503937007872
0
LINE
8
BLACK
6
CONTINUOUS
10
6.2096456692913389
20
-4.5843503937007872
11
6.2096456692913389
21
-4.3339566929133859
0
LINE
8
BLACK
6
CONTINUOUS
10
6.2096456692913389
20
-4.3339566929133859
11
6.2097205905511812
21
-4.3335800393700783
0
LINE
8
BLACK
6
CONTINUOUS
10
6.2097205905511812
20
-4.3335800393700783
11
6.210253267716535
21
-4.3330473622047245
0
LINE
8
BLACK
6
CONTINUOUS
10
6.210253267716535
20
-4.3330473622047245
11
6.2106299212598426
21
-4.3329724409448822
0
LINE
8
BLACK
6
CONTINUOUS
10
6.2106299212598426
20
-4.3329724409448822
11
6.3484251968503935
21
-4.3329724409448822
0
LINE
8
BLACK
6
CONTINUOUS
10
6.3484251968503935
20
-4.3329724409448822
11
6.3488018503937003
21
-4.3330473622047245
0
LINE
8
BLACK
6
CONTINUOUS
10
6.2116141732283463
20
-4.3349409448818896
11
6.2116141732283463
21
-4.5833661417322835
0
LINE
8
BLACK
6
CONTINUOUS
10
6.2116141732283463
20
-4.5833661417322835
11
6.3474409448818898
21
-4.5833661417322835
0
LINE
8
BLACK
6
CONTINUOUS
10
6.3474409448818898
20
-4.5833661417322835
11
6.3474409448818898
21
-4.3349409448818896
0
LINE
8
BLACK
6
CONTINUOUS
10
6.3474409448818898
20
-4.3349409448818896
11
6.2116141732283463
21
-4.3349409448818896
0
LINE
8
BLACK
6
CONTINUOUS
10
5.4196679921259845
20
-4.525468622047244
11
5.4202006692913383
21
-4.5260012992125986
0
LINE
8
BLACK
6
CONTINUOUS
10
5.4202006692913383
20
-4.5260012992125986
11
5.4202755905511806
21
-4.5263779527559054
0
LINE
8
BLACK
6
CONTINUOUS
10
5.4202755905511806
20
-4.5263779527559054
11
5.4202755905511806
21
-4.5838582677165354
0
LINE
8
BLACK
6
CONTINUOUS
10
5.4202755905511806
20
-4.5838582677165354
11
5.4202006692913383
21
-4.5842349212598421
0
LINE
8
BLACK
6
CONTINUOUS
10
5.4202006692913383
20
-4.5842349212598421
11
5.4196679921259845
21
-4.5847675984251968
0
LINE
8
BLACK
6
CONTINUOUS
10
5.4196679921259845
20
-4.5847675984251968
11
5.4192913385826769
21
-4.5848425196850391
0
LINE
8
BLACK
6
CONTINUOUS
10
5.4192913385826769
20
-4.5848425196850391
11
5.2893700787401574
21
-4.5848425196850391
0
LINE
8
BLACK
6
CONTINUOUS
10
5.2893700787401574
20
-4.5848425196850391
11
5.2889934251968507
21
-4.5847675984251968
0
LINE
8
BLACK
6
CONTINUOUS
10
5.2889934251968507
20
-4.5847675984251968
11
5.288460748031496
21
-4.5842349212598421
0
LINE
8
BLACK
6
CONTINUOUS
10
5.288460748031496
20
-4.5842349212598421
11
5.2883858267716537
21
-4.5838582677165354
0
LINE
8
BLACK
6
CONTINUOUS
10
5.2883858267716537
20
-4.5838582677165354
11
5.2883858267716537
21
-4.5263779527559054
0
LINE
8
BLACK
6
CONTINUOUS
10
5.2883858267716537
20
-4.5263779527559054
11
5.288460748031496
21
-4.5260012992125986
0
LINE
8
BLACK
6
CONTINUOUS
10
5.288460748031496
20
-4.5260012992125986
11
5.2889934251968507
21
-4.525468622047244
0
LINE
8
BLACK
6
CONTINUOUS
10
5.2889934251968507
20
-4.525468622047244
11
5.2893700787401574
21
-4.5253937007874017
0
LINE
8
BLACK
6
CONTINUOUS
10
5.2893700787401574
20
-4.5253937007874017
11
5.4192913385826769
21
-4.5253937007874017
0
LINE
8
BLACK
6
CONTINUOUS
10
5.4192913385826769
20
-4.5253937007874017
11
5.4196679921259845
21
-4.525468622047244
0
LINE
8
BLACK
6
CONTINUOUS
10
5.2903543307086611
20
-4.5273622047244091
11
5.2903543307086611
21
-4.5828740157480317
0
LINE
8
BLACK
6
CONTINUOUS
10
5.2903543307086611
20
-4.5828740157480317
11
5.4183070866141732
21
-4.5828740157480317
0
LINE
8
BLACK
6
CONTINUOUS
10
5.4183070866141732
20
-4.5828740157480317
11
5.4183070866141732
21
-4.5273622047244091
0
LINE
8
BLACK
6
CONTINUOUS
10
5.4183070866141732
20
-4.5273622047244091
11
5.2903543307086611
21
-4.5273622047244091
0
LINE
8
BLACK
6
CONTINUOUS
10
5.4196679921259845
20
-4.4624764960629921
11
5.4202006692913383
21
-4.4630091732283468
0
LINE
8
BLACK
6
CONTINUOUS
10
5.4202006692913383
20
-4.4630091732283468
11
5.4202755905511806
21
-4.4633858267716535
0
LINE
8
BLACK
6
CONTINUOUS
10
5.4202755905511806
20
-4.4633858267716535
11
5.4202755905511806
21
-4.5208661417322835
0
LINE
8
BLACK
6
CONTINUOUS
10
5.4202755905511806
20
-4.5208661417322835
11
5.4202006692913383
21
-4.5212427952755903
0
LINE
8
BLACK
6
CONTINUOUS
10
5.4202006692913383
20
-4.5212427952755903
11
5.4196679921259845
21
-4.5217754724409449
0
LINE
8
BLACK
6
CONTINUOUS
10
5.4196679921259845
20
-4.5217754724409449
11
5.4192913385826769
21
-4.5218503937007872
0
LINE
8
BLACK
6
CONTINUOUS
10
5.4192913385826769
20
-4.5218503937007872
11
5.2893700787401574
21
-4.5218503937007872
0
LINE
8
BLACK
6
CONTINUOUS
10
5.2893700787401574
20
-4.5218503937007872
11
5.2889934251968507
21
-4.5217754724409449
0
LINE
8
BLACK
6
CONTINUOUS
10
5.2889934251968507
20
-4.5217754724409449
11
5.288460748031496
21
-4.5212427952755903
0
LINE
8
BLACK
6
CONTINUOUS
10
5.288460748031496
20
-4.5212427952755903
11
5.2883858267716537
21
-4.5208661417322835
0
LINE
8
BLACK
6
CONTINUOUS
10
5.2883858267716537
20
-4.5208661417322835
11
5.2883858267716537
21
-4.4633858267716535
0
LINE
8
BLACK
6
CONTINUOUS
10
5.2883858267716537
20
-4.4633858267716535
11
5.288460748031496
21
-4.4630091732283468
0
LINE
8
BLACK
6
CONTINUOUS
10
5.288460748031496
20
-4.4630091732283468
11
5.2889934251968507
21
-4.4624764960629921
0
LINE
8
BLACK
6
CONTINUOUS
10
5.2889934251968507
20
-4.4624764960629921
11
5.2893700787401574
21
-4.4624015748031498
0
LINE
8
BLACK
6
CONTINUOUS
10
5.2893700787401574
20
-4.4624015748031498
11
5.4192913385826769
21
-4.4624015748031498
0
LINE
8
BLACK
6
CONTINUOUS
10
5.4192913385826769
20
-4.4624015748031498
11
5.4196679921259845
21
-4.4624764960629921
0
LINE
8
BLACK
6
CONTINUOUS
10
5.2903543307086611
20
-4.4643700787401572
11
5.2903543307086611
21
-4.5198818897637798
0
LINE
8
BLACK
6
CONTINUOUS
10
5.2903543307086611
20
-4.5198818897637798
11
5.4183070866141732
21
-4.5198818897637798
0
LINE
8
BLACK
6
CONTINUOUS
10
5.4183070866141732
20
-4.5198818897637798
11
5.4183070866141732
21
-4.4643700787401572
0
LINE
8
BLACK
6
CONTINUOUS
10
5.4183070866141732
20
-4.4643700787401572
11
5.2903543307086611
21
-4.4643700787401572
0
LINE
8
BLACK
6
CONTINUOUS
10
6.2023451574803152
20
-4.3460394881889766
11
6.202877834645669
21
-4.3465721653543303
0
LINE
8
BLACK
6
CONTINUOUS
10
6.202877834645669
20
-4.3465721653543303
11
6.2029527559055113
21
-4.346948818897638
0
LINE
8
BLACK
6
CONTINUOUS
10
6.2029527559055113
20
-4.346948818897638
11
6.2029527559055113
21
-4.4768700787401574
0
LINE
8
BLACK
6
CONTINUOUS
10
6.2029527559055113
20
-4.4768700787401574
11
6.202877834645669
21
-4.4772467322834641
0
LINE
8
BLACK
6
CONTINUOUS
10
6.202877834645669
20
-4.4772467322834641
11
6.2023451574803152
21
-4.4777794094488188
0
LINE
8
BLACK
6
CONTINUOUS
10
6.2023451574803152
20
-4.4777794094488188
11
6.2019685039370076
21
-4.4778543307086611
0
LINE
8
BLACK
6
CONTINUOUS
10
6.2019685039370076
20
-4.4778543307086611
11
6.1444881889763776
21
-4.4778543307086611
0
LINE
8
BLACK
6
CONTINUOUS
10
6.1444881889763776
20
-4.4778543307086611
11
6.1441115354330709
21
-4.4777794094488188
0
LINE
8
BLACK
6
CONTINUOUS
10
6.1441115354330709
20
-4.4777794094488188
11
6.1435788582677162
21
-4.4772467322834641
0
LINE
8
BLACK
6
CONTINUOUS
10
6.1435788582677162
20
-4.4772467322834641
11
6.1435039370078739
21
-4.4768700787401574
0
LINE
8
BLACK
6
CONTINUOUS
10
6.1435039370078739
20
-4.4768700787401574
11
6.1435039370078739
21
-4.346948818897638
0
LINE
8
BLACK
6
CONTINUOUS
10
6.1435039370078739
20
-4.346948818897638
11
6.1435788582677162
21
-4.3465721653543303
0
LINE
8
BLACK
6
CONTINUOUS
10
6.1435788582677162
20
-4.3465721653543303
11
6.1441115354330709
21
-4.3460394881889766
0
LINE
8
BLACK
6
CONTINUOUS
10
6.1441115354330709
20
-4.3460394881889766
11
6.1444881889763776
21
-4.3459645669291334
0
LINE
8
BLACK
6
CONTINUOUS
10
6.1444881889763776
20
-4.3459645669291334
11
6.2019685039370076
21
-4.3459645669291334
0
LINE
8
BLACK
6
CONTINUOUS
10
6.2019685039370076
20
-4.3459645669291334
11
6.2023451574803152
21
-4.3460394881889766
0
LINE
8
BLACK
6
CONTINUOUS
10
6.1454724409448813
20
-4.3479330708661417
11
6.1454724409448813
21
-4.4758858267716537
0
LINE
8
BLACK
6
CONTINUOUS
10
6.1454724409448813
20
-4.4758858267716537
11
6.2009842519685039
21
-4.4758858267716537
0
LINE
8
BLACK
6
CONTINUOUS
10
6.2009842519685039
20
-4.4758858267716537
11
6.2009842519685039
21
-4.3479330708661417
0
LINE
8
BLACK
6
CONTINUOUS
10
6.2009842519685039
20
-4.3479330708661417
11
6.1454724409448813
21
-4.3479330708661417
0
LINE
8
BLACK
6
CONTINUOUS
10
6.4149435826771652
20
-4.3460394881889766
11
6.4154762598425199
21
-4.3465721653543303
0
LINE
8
BLACK
6
CONTINUOUS
10
6.4154762598425199
20
-4.3465721653543303
11
6.4155511811023622
21
-4.346948818897638
0
LINE
8
BLACK
6
CONTINUOUS
10
6.4155511811023622
20
-4.346948818897638
11
6.4155511811023622
21
-4.4768700787401574
0
LINE
8
BLACK
6
CONTINUOUS
10
6.4155511811023622
20
-4.4768700787401574
11
6.4154762598425199
21
-4.4772467322834641
0
LINE
8
BLACK
6
CONTINUOUS
10
6.4154762598425199
20
-4.4772467322834641
11
6.4149435826771652
21
-4.4777794094488188
0
LINE
8
BLACK
6
CONTINUOUS
10
6.4149435826771652
20
-4.4777794094488188
11
6.4145669291338585
21
-4.4778543307086611
0
LINE
8
BLACK
6
CONTINUOUS
10
6.4145669291338585
20
-4.4778543307086611
11
6.3570866141732285
21
-4.4778543307086611
0
LINE
8
BLACK
6
CONTINUOUS
10
6.3570866141732285
20
-4.4778543307086611
11
6.3567099606299209
21
-4.4777794094488188
0
LINE
8
BLACK
6
CONTINUOUS
10
6.3567099606299209
20
-4.4777794094488188
11
6.3561772834645671
21
-4.4772467322834641
0
LINE
8
BLACK
6
CONTINUOUS
10
6.3561772834645671
20
-4.4772467322834641
11
6.3561023622047239
21
-4.4768700787401574
0
LINE
8
BLACK
6
CONTINUOUS
10
6.3561023622047239
20
-4.4768700787401574
11
6.3561023622047239
21
-4.346948818897638
0
LINE
8
BLACK
6
CONTINUOUS
10
6.3561023622047239
20
-4.346948818897638
11
6.3561772834645671
21
-4.3465721653543303
0
LINE
8
BLACK
6
CONTINUOUS
10
6.3561772834645671
20
-4.3465721653543303
11
6.3567099606299209
21
-4.3460394881889766
0
LINE
8
BLACK
6
CONTINUOUS
10
6.3567099606299209
20
-4.3460394881889766
11
6.3570866141732285
21
-4.3459645669291334
0
LINE
8
BLACK
6
CONTINUOUS
10
6.3570866141732285
20
-4.3459645669291334
11
6.4145669291338585
21
-4.3459645669291334
0
LINE
8
BLACK
6
CONTINUOUS
10
6.4145669291338585
20
-4.3459645669291334
11
6.4149435826771652
21
-4.3460394881889766
0
LINE
8
BLACK
6
CONTINUOUS
10
6.3580708661417322
20
-4.3479330708661417
11
6.3580708661417322
21
-4.4758858267716537
0
LINE
8
BLACK
6
CONTINUOUS
10
6.3580708661417322
20
-4.4758858267716537
11
6.4135826771653539
21
-4.4758858267716537
0
LINE
8
BLACK
6
CONTINUOUS
10
6.4135826771653539
20
-4.4758858267716537
11
6.4135826771653539
21
-4.3479330708661417
0
LINE
8
BLACK
6
CONTINUOUS
10
6.4135826771653539
20
-4.3479330708661417
11
6.3580708661417322
21
-4.3479330708661417
0
LINE
8
BLACK
6
CONTINUOUS
10
5.9251000787401571
20
-4.2448478740157478
11
5.9324087401574799
21
-4.2478752362204721
0
LINE
8
BLACK
6
CONTINUOUS
10
5.9324087401574799
20
-4.2478752362204721
11
5.9389863385826773
21
-4.2522702362204727
0
LINE
8
BLACK
6
CONTINUOUS
10
5.9389863385826773
20
-4.2522702362204727
11
5.9445801574803152
21
-4.2578640551181097
0
LINE
8
BLACK
6
CONTINUOUS
10
5.9445801574803152
20
-4.2578640551181097
11
5.9489751574803149
21
-4.2644416535433072
0
LINE
8
BLACK
6
CONTINUOUS
10
5.9489751574803149
20
-4.2644416535433072
11
5.9520025196850392
21
-4.27175031496063
0
LINE
8
BLACK
6
CONTINUOUS
10
5.9520025196850392
20
-4.27175031496063
11
5.953545826771653
21
-4.2795091338582676
0
LINE
8
BLACK
6
CONTINUOUS
10
5.953545826771653
20
-4.2795091338582676
11
5.953545826771653
21
-4.28742
0
LINE
8
BLACK
6
CONTINUOUS
10
5.953545826771653
20
-4.28742
11
5.9520025196850392
21
-4.2951788188976376
0
LINE
8
BLACK
6
CONTINUOUS
10
5.9520025196850392
20
-4.2951788188976376
11
5.9489751574803149
21
-4.3024874803149604
0
LINE
8
BLACK
6
CONTINUOUS
10
5.9489751574803149
20
-4.3024874803149604
11
5.9445801574803152
21
-4.309065078740157
0
LINE
8
BLACK
6
CONTINUOUS
10
5.9445801574803152
20
-4.309065078740157
11
5.9389863385826773
21
-4.3146588976377949
0
LINE
8
BLACK
6
CONTINUOUS
10
5.9389863385826773
20
-4.3146588976377949
11
5.9324087401574799
21
-4.3190538976377955
0
LINE
8
BLACK
6
CONTINUOUS
10
5.9324087401574799
20
-4.3190538976377955
11
5.9251000787401571
21
-4.3220812598425198
0
LINE
8
BLACK
6
CONTINUOUS
10
5.9251000787401571
20
-4.3220812598425198
11
5.9173412598425195
21
-4.3236245669291336
0
LINE
8
BLACK
6
CONTINUOUS
10
5.9173412598425195
20
-4.3236245669291336
11
5.909430393700787
21
-4.3236245669291336
0
LINE
8
BLACK
6
CONTINUOUS
10
5.909430393700787
20
-4.3236245669291336
11
5.9016715748031494
21
-4.3220812598425198
0
LINE
8
BLACK
6
CONTINUOUS
10
5.9016715748031494
20
-4.3220812598425198
11
5.9005905511811019
21
-4.3216334645669292
0
LINE
8
BLACK
6
CONTINUOUS
10
5.9005905511811019
20
-4.3216334645669292
11
5.9005905511811019
21
-4.330511811023622
0
LINE
8
BLACK
6
CONTINUOUS
10
5.9005905511811019
20
-4.330511811023622
11
5.9559055118110233
21
-4.330511811023622
0
LINE
8
BLACK
6
CONTINUOUS
10
5.9559055118110233
20
-4.330511811023622
11
5.956282165354331
21
-4.3305867322834644
0
LINE
8
BLACK
6
CONTINUOUS
10
5.956282165354331
20
-4.3305867322834644
11
5.9568148425196847
21
-4.331119409448819
0
LINE
8
BLACK
6
CONTINUOUS
10
5.9568148425196847
20
-4.331119409448819
11
5.9568897637795271
21
-4.3314960629921258
0
LINE
8
BLACK
6
CONTINUOUS
10
5.9568897637795271
20
-4.3314960629921258
11
5.9568897637795271
21
-4.4480314960629919
0
LINE
8
BLACK
6
CONTINUOUS
10
5.9568897637795271
20
-4.4480314960629919
11
5.9568148425196847
21
-4.4484081496062995
0
LINE
8
BLACK
6
CONTINUOUS
10
5.9568148425196847
20
-4.4484081496062995
11
5.956282165354331
21
-4.4489408267716533
0
LINE
8
BLACK
6
CONTINUOUS
10
5.956282165354331
20
-4.4489408267716533
11
5.9559055118110233
21
-4.4490157480314956
0
LINE
8
BLACK
6
CONTINUOUS
10
5.9559055118110233
20
-4.4490157480314956
11
5.9005905511811019
21
-4.4490157480314956
0
LINE
8
BLACK
6
CONTINUOUS
10
5.9005905511811019
20
-4.4490157480314956
11
5.9005905511811019
21
-4.4586614173228343
0
LINE
8
BLACK
6
CONTINUOUS
10
5.9005905511811019
20
-4.4586614173228343
11
5.9005156299212596
21
-4.4590380708661419
0
LINE
8
BLACK
6
CONTINUOUS
10
5.9005156299212596
20
-4.4590380708661419
11
5.8999829527559058
21
-4.4595707480314957
0
LINE
8
BLACK
6
CONTINUOUS
10
5.8999829527559058
20
-4.4595707480314957
11
5.8996062992125982
21
-4.4596456692913389
0
LINE
8
BLACK
6
CONTINUOUS
10
5.8996062992125982
20
-4.4596456692913389
11
5.7618110236220472
21
-4.4596456692913389
0
LINE
8
BLACK
6
CONTINUOUS
10
5.7618110236220472
20
-4.4596456692913389
11
5.7614343700787396
21
-4.4595707480314957
0
LINE
8
BLACK
6
CONTINUOUS
10
5.7614343700787396
20
-4.4595707480314957
11
5.7609016929133858
21
-4.4590380708661419
0
LINE
8
BLACK
6
CONTINUOUS
10
5.7609016929133858
20
-4.4590380708661419
11
5.7608267716535435
21
-4.4586614173228343
0
LINE
8
BLACK
6
CONTINUOUS
10
5.7608267716535435
20
-4.4586614173228343
11
5.7608267716535435
21
-4.4490157480314956
0
LINE
8
BLACK
6
CONTINUOUS
10
5.7608267716535435
20
-4.4490157480314956
11
5.705511811023622
21
-4.4490157480314956
0
LINE
8
BLACK
6
CONTINUOUS
10
5.705511811023622
20
-4.4490157480314956
11
5.7051351574803144
21
-4.4489408267716533
0
LINE
8
BLACK
6
CONTINUOUS
10
5.7051351574803144
20
-4.4489408267716533
11
5.7046024803149606
21
-4.4484081496062995
0
LINE
8
BLACK
6
CONTINUOUS
10
5.7046024803149606
20
-4.4484081496062995
11
5.7045275590551183
21
-4.4480314960629919
0
LINE
8
BLACK
6
CONTINUOUS
10
5.7045275590551183
20
-4.4480314960629919
11
5.7045275590551183
21
-4.3314960629921258
0
LINE
8
BLACK
6
CONTINUOUS
10
5.7045275590551183
20
-4.3314960629921258
11
5.7046024803149606
21
-4.331119409448819
0
LINE
8
BLACK
6
CONTINUOUS
10
5.7046024803149606
20
-4.331119409448819
11
5.7051351574803144
21
-4.3305867322834644
0
LINE
8
BLACK
6
CONTINUOUS
10
5.7051351574803144
20
-4.3305867322834644
11
5.705511811023622
21
-4.330511811023622
0
LINE
8
BLACK
6
CONTINUOUS
10
5.705511811023622
20
-4.330511811023622
11
5.7608267716535435
21
-4.330511811023622
0
LINE
8
BLACK
6
CONTINUOUS
10
5.7608267716535435
20
-4.330511811023622
11
5.7608267716535435
21
-4.3208661417322833
0
LINE
8
BLACK
6
CONTINUOUS
10
5.7608267716535435
20
-4.3208661417322833
11
5.7609016929133858
21
-4.3204894881889766
0
LINE
8
BLACK
6
CONTINUOUS
10
5.7609016929133858
20
-4.3204894881889766
11
5.7614343700787396
21
-4.3199568110236219
0
LINE
8
BLACK
6
CONTINUOUS
10
5.7614343700787396
20
-4.3199568110236219
11
5.7618110236220472
21
-4.3198818897637796
0
LINE
8
BLACK
6
CONTINUOUS
10
5.7618110236220472
20
-4.3198818897637796
11
5.896361850393701
21
-4.3198818897637796
0
LINE
8
BLACK
6
CONTINUOUS
10
5.896361850393701
20
-4.3198818897637796
11
5.8943629133858266
21
-4.3190538976377955
0
LINE
8
BLACK
6
CONTINUOUS
10
5.8943629133858266
20
-4.3190538976377955
11
5.8877853149606301
21
-4.3146588976377949
0
LINE
8
BLACK
6
CONTINUOUS
10
5.8877853149606301
20
-4.3146588976377949
11
5.8821914960629922
21
-4.309065078740157
0
LINE
8
BLACK
6
CONTINUOUS
10
5.8821914960629922
20
-4.309065078740157
11
5.8777964960629916
21
-4.3024874803149604
0
LINE
8
BLACK
6
CONTINUOUS
10
5.8777964960629916
20
-4.3024874803149604
11
5.8747691338582673
21
-4.2951788188976376
0
LINE
8
BLACK
6
CONTINUOUS
10
5.8747691338582673
20
-4.2951788188976376
11
5.8732258267716535
21
-4.28742
0
LINE
8
BLACK
6
CONTINUOUS
10
5.8732258267716535
20
-4.28742
11
5.8732258267716535
21
-4.2796838976377956
0
LINE
8
BLACK
6
CONTINUOUS
10
5.8732258267716535
20
-4.2796838976377956
11
5.8732258267716535
21
-4.2795091338582676
0
LINE
8
BLACK
6
CONTINUOUS
10
5.8732258267716535
20
-4.2795091338582676
11
5.8747691338582673
21
-4.27175031496063
0
LINE
8
BLACK
6
CONTINUOUS
10
5.8747691338582673
20
-4.27175031496063
11
5.8777964960629916
21
-4.2644416535433072
0
LINE
8
BLACK
6
CONTINUOUS
10
5.8777964960629916
20
-4.2644416535433072
11
5.8821914960629922
21
-4.2578640551181097
0
LINE
8
BLACK
6
CONTINUOUS
10
5.8821914960629922
20
-4.2578640551181097
11
5.8877853149606301
21
-4.2522702362204727
0
LINE
8
BLACK
6
CONTINUOUS
10
5.8877853149606301
20
-4.2522702362204727
11
5.8943629133858266
21
-4.2478752362204721
0
LINE
8
BLACK
6
CONTINUOUS
10
5.8943629133858266
20
-4.2478752362204721
11
5.9016715748031494
21
-4.2448478740157478
0
LINE
8
BLACK
6
CONTINUOUS
10
5.9016715748031494
20
-4.2448478740157478
11
5.909430393700787
21
-4.243304566929134
0
LINE
8
BLACK
6
CONTINUOUS
10
5.909430393700787
20
-4.243304566929134
11
5.9173412598425195
21
-4.243304566929134
0
LINE
8
BLACK
6
CONTINUOUS
10
5.9173412598425195
20
-4.243304566929134
11
5.9251000787401571
21
-4.2448478740157478
0
LINE
8
BLACK
6
CONTINUOUS
10
5.7627952755905509
20
-4.3218503937007871
11
5.7627952755905509
21
-4.3314960629921258
0
LINE
8
BLACK
6
CONTINUOUS
10
5.7627952755905509
20
-4.3314960629921258
11
5.7627203543307086
21
-4.3318727165354334
0
LINE
8
BLACK
6
CONTINUOUS
10
5.7627203543307086
20
-4.3318727165354334
11
5.762187677165354
21
-4.3324053937007871
0
LINE
8
BLACK
6
CONTINUOUS
10
5.762187677165354
20
-4.3324053937007871
11
5.7618110236220472
21
-4.3324803149606295
0
LINE
8
BLACK
6
CONTINUOUS
10
5.7618110236220472
20
-4.3324803149606295
11
5.7064960629921258
21
-4.3324803149606295
0
LINE
8
BLACK
6
CONTINUOUS
10
5.7064960629921258
20
-4.3324803149606295
11
5.7064960629921258
21
-4.4470472440944881
0
LINE
8
BLACK
6
CONTINUOUS
10
5.7064960629921258
20
-4.4470472440944881
11
5.7618110236220472
21
-4.4470472440944881
0
LINE
8
BLACK
6
CONTINUOUS
10
5.7618110236220472
20
-4.4470472440944881
11
5.762187677165354
21
-4.4471221653543305
0
LINE
8
BLACK
6
CONTINUOUS
10
5.762187677165354
20
-4.4471221653543305
11
5.7627203543307086
21
-4.4476548425196851
0
LINE
8
BLACK
6
CONTINUOUS
10
5.7627203543307086
20
-4.4476548425196851
11
5.7627952755905509
21
-4.4480314960629919
0
LINE
8
BLACK
6
CONTINUOUS
10
5.7627952755905509
20
-4.4480314960629919
11
5.7627952755905509
21
-4.4576771653543306
0
LINE
8
BLACK
6
CONTINUOUS
10
5.7627952755905509
20
-4.4576771653543306
11
5.8986220472440944
21
-4.4576771653543306
0
LINE
8
BLACK
6
CONTINUOUS
10
5.8986220472440944
20
-4.4576771653543306
11
5.8986220472440944
21
-4.4480314960629919
0
LINE
8
BLACK
6
CONTINUOUS
10
5.8986220472440944
20
-4.4480314960629919
11
5.8986969685039368
21
-4.4476548425196851
0
LINE
8
BLACK
6
CONTINUOUS
10
5.8986969685039368
20
-4.4476548425196851
11
5.8992296456692914
21
-4.4471221653543305
0
LINE
8
BLACK
6
CONTINUOUS
10
5.8992296456692914
20
-4.4471221653543305
11
5.8996062992125982
21
-4.4470472440944881
0
LINE
8
BLACK
6
CONTINUOUS
10
5.8996062992125982
20
-4.4470472440944881
11
5.9549212598425196
21
-4.4470472440944881
0
LINE
8
BLACK
6
CONTINUOUS
10
5.9549212598425196
20
-4.4470472440944881
11
5.9549212598425196
21
-4.3324803149606295
0
LINE
8
BLACK
6
CONTINUOUS
10
5.9549212598425196
20
-4.3324803149606295
11
5.8996062992125982
21
-4.3324803149606295
0
LINE
8
BLACK
6
CONTINUOUS
10
5.8996062992125982
20
-4.3324803149606295
11
5.8992296456692914
21
-4.3324053937007871
0
LINE
8
BLACK
6
CONTINUOUS
10
5.8992296456692914
20
-4.3324053937007871
11
5.8986969685039368
21
-4.3318727165354334
0
LINE
8
BLACK
6
CONTINUOUS
10
5.8986969685039368
20
-4.3318727165354334
11
5.8986220472440944
21
-4.3314960629921258
0
LINE
8
BLACK
6
CONTINUOUS
10
5.8986220472440944
20
-4.3314960629921258
11
5.8986220472440944
21
-4.3218503937007871
0
LINE
8
BLACK
6
CONTINUOUS
10
5.8986220472440944
20
-4.3218503937007871
11
5.7627952755905509
21
-4.3218503937007871
0
LINE
8
BLACK
6
CONTINUOUS
10
5.875
20
-4.287245236220472
11
5.8764751181102364
21
-4.2946612992125983
0
LINE
8
BLACK
6
CONTINUOUS
10
5.8764751181102364
20
-4.2946612992125983
11
5.8793687401574806
21
-4.3016470866141727
0
LINE
8
BLACK
6
CONTINUOUS
10
5.8793687401574806
20
-4.3016470866141727
11
5.8835696062992122
21
-4.307934133858268
0
LINE
8
BLACK
6
CONTINUOUS
10
5.8835696062992122
20
-4.307934133858268
11
5.88891625984252
21
-4.3132807874015748
0
LINE
8
BLACK
6
CONTINUOUS
10
5.88891625984252
20
-4.3132807874015748
11
5.8952033070866143
21
-4.3174816535433074
0
LINE
8
BLACK
6
CONTINUOUS
10
5.8952033070866143
20
-4.3174816535433074
11
5.9021890944881887
21
-4.3203752755905507
0
LINE
8
BLACK
6
CONTINUOUS
10
5.9021890944881887
20
-4.3203752755905507
11
5.909605157480315
21
-4.3218503937007871
0
LINE
8
BLACK
6
CONTINUOUS
10
5.909605157480315
20
-4.3218503937007871
11
5.9171664960629924
21
-4.3218503937007871
0
LINE
8
BLACK
6
CONTINUOUS
10
5.9171664960629924
20
-4.3218503937007871
11
5.9245825590551178
21
-4.3203752755905507
0
LINE
8
BLACK
6
CONTINUOUS
10
5.9245825590551178
20
-4.3203752755905507
11
5.9315683464566931
21
-4.3174816535433074
0
LINE
8
BLACK
6
CONTINUOUS
10
5.9315683464566931
20
-4.3174816535433074
11
5.9378553937007874
21
-4.3132807874015748
0
LINE
8
BLACK
6
CONTINUOUS
10
5.9378553937007874
20
-4.3132807874015748
11
5.9432020472440943
21
-4.307934133858268
0
LINE
8
BLACK
6
CONTINUOUS
10
5.9432020472440943
20
-4.307934133858268
11
5.9474029133858268
21
-4.3016470866141727
0
LINE
8
BLACK
6
CONTINUOUS
10
5.9474029133858268
20
-4.3016470866141727
11
5.950296535433071
21
-4.2946612992125983
0
LINE
8
BLACK
6
CONTINUOUS
10
5.950296535433071
20
-4.2946612992125983
11
5.9517716535433074
21
-4.287245236220472
0
LINE
8
BLACK
6
CONTINUOUS
10
5.9517716535433074
20
-4.287245236220472
11
5.9517716535433074
21
-4.2796838976377956
0
LINE
8
BLACK
6
CONTINUOUS
10
5.9517716535433074
20
-4.2796838976377956
11
5.950296535433071
21
-4.2722678346456693
0
LINE
8
BLACK
6
CONTINUOUS
10
5.950296535433071
20
-4.2722678346456693
11
5.9474029133858268
21
-4.265282047244094
0
LINE
8
BLACK
6
CONTINUOUS
10
5.9474029133858268
20
-4.265282047244094
11
5.9432020472440943
21
-4.2589949999999996
0
LINE
8
BLACK
6
CONTINUOUS
10
5.9432020472440943
20
-4.2589949999999996
11
5.9378553937007874
21
-4.2536483464566928
0
LINE
8
BLACK
6
CONTINUOUS
10
5.9378553937007874
20
-4.2536483464566928
11
5.9315683464566931
21
-4.2494474803149602
0
LINE
8
BLACK
6
CONTINUOUS
10
5.9315683464566931
20
-4.2494474803149602
11
5.9245825590551178
21
-4.246553858267716
0
LINE
8
BLACK
6
CONTINUOUS
10
5.9245825590551178
20
-4.246553858267716
11
5.9171664960629924
21
-4.2450787401574805
0
LINE
8
BLACK
6
CONTINUOUS
10
5.9171664960629924
20
-4.2450787401574805
11
5.909605157480315
21
-4.2450787401574805
0
LINE
8
BLACK
6
CONTINUOUS
10
5.909605157480315
20
-4.2450787401574805
11
5.9021890944881887
21
-4.246553858267716
0
LINE
8
BLACK
6
CONTINUOUS
10
5.9021890944881887
20
-4.246553858267716
11
5.8952033070866143
21
-4.2494474803149602
0
LINE
8
BLACK
6
CONTINUOUS
10
5.8952033070866143
20
-4.2494474803149602
11
5.88891625984252
21
-4.2536483464566928
0
LINE
8
BLACK
6
CONTINUOUS
10
5.88891625984252
20
-4.2536483464566928
11
5.8835696062992122
21
-4.2589949999999996
0
LINE
8
BLACK
6
CONTINUOUS
10
5.8835696062992122
20
-4.2589949999999996
11
5.8793687401574806
21
-4.265282047244094
0
LINE
8
BLACK
6
CONTINUOUS
10
5.8793687401574806
20
-4.265282047244094
11
5.8764751181102364
21
-4.2722678346456693
0
LINE
8
BLACK
6
CONTINUOUS
10
5.8764751181102364
20
-4.2722678346456693
11
5.875
21
-4.2796838976377956
0
LINE
8
BLACK
6
CONTINUOUS
10
5.875
20
-4.2796838976377956
11
5.875
21
-4.287245236220472
0
LINE
8
BLACK
6
CONTINUOUS
10
5.5173057874015745
20
-4.3165119291338581
11
5.5178384645669292
21
-4.3170446062992127
0
LINE
8
BLACK
6
CONTINUOUS
10
5.5178384645669292
20
-4.3170446062992127
11
5.5179133858267715
21
-4.3174212598425195
0
LINE
8
BLACK
6
CONTINUOUS
10
5.5179133858267715
20
-4.3174212598425195
11
5.5179133858267715
21
-4.4473425196850389
0
LINE
8
BLACK
6
CONTINUOUS
10
5.5179133858267715
20
-4.4473425196850389
11
5.5178384645669292
21
-4.4477191732283465
0
LINE
8
BLACK
6
CONTINUOUS
10
5.5178384645669292
20
-4.4477191732283465
11
5.5173057874015745
21
-4.4482518503937003
0
LINE
8
BLACK
6
CONTINUOUS
10
5.5173057874015745
20
-4.4482518503937003
11
5.5169291338582678
21
-4.4483267716535435
0
LINE
8
BLACK
6
CONTINUOUS
10
5.5169291338582678
20
-4.4483267716535435
11
5.4594488188976378
21
-4.4483267716535435
0
LINE
8
BLACK
6
CONTINUOUS
10
5.4594488188976378
20
-4.4483267716535435
11
5.4590721653543302
21
-4.4482518503937003
0
LINE
8
BLACK
6
CONTINUOUS
10
5.4590721653543302
20
-4.4482518503937003
11
5.4585394881889764
21
-4.4477191732283465
0
LINE
8
BLACK
6
CONTINUOUS
10
5.4585394881889764
20
-4.4477191732283465
11
5.4584645669291341
21
-4.4473425196850389
0
LINE
8
BLACK
6
CONTINUOUS
10
5.4584645669291341
20
-4.4473425196850389
11
5.4584645669291341
21
-4.3174212598425195
0
LINE
8
BLACK
6
CONTINUOUS
10
5.4584645669291341
20
-4.3174212598425195
11
5.4585394881889764
21
-4.3170446062992127
0
LINE
8
BLACK
6
CONTINUOUS
10
5.4585394881889764
20
-4.3170446062992127
11
5.4590721653543302
21
-4.3165119291338581
0
LINE
8
BLACK
6
CONTINUOUS
10
5.4590721653543302
20
-4.3165119291338581
11
5.4594488188976378
21
-4.3164370078740157
0
LINE
8
BLACK
6
CONTINUOUS
10
5.4594488188976378
20
-4.3164370078740157
11
5.5169291338582678
21
-4.3164370078740157
0
LINE
8
BLACK
6
CONTINUOUS
10
5.5169291338582678
20
-4.3164370078740157
11
5.5173057874015745
21
-4.3165119291338581
0
LINE
8
BLACK
6
CONTINUOUS
10
5.4604330708661415
20
-4.3184055118110232
11
5.4604330708661415
21
-4.4463582677165352
0
LINE
8
BLACK
6
CONTINUOUS
10
5.4604330708661415
20
-4.4463582677165352
11
5.5159448818897641
21
-4.4463582677165352
0
LINE
8
BLACK
6
CONTINUOUS
10
5.5159448818897641
20
-4.4463582677165352
11
5.5159448818897641
21
-4.3184055118110232
0
LINE
8
BLACK
6
CONTINUOUS
10
5.5159448818897641
20
-4.3184055118110232
11
5.4604330708661415
21
-4.3184055118110232
0
LINE
8
BLACK
6
CONTINUOUS
10
5.5802979133858264
20
-4.3165119291338581
11
5.580830590551181
21
-4.3170446062992127
0
LINE
8
BLACK
6
CONTINUOUS
10
5.580830590551181
20
-4.3170446062992127
11
5.5809055118110233
21
-4.3174212598425195
0
LINE
8
BLACK
6
CONTINUOUS
10
5.5809055118110233
20
-4.3174212598425195
11
5.5809055118110233
21
-4.4473425196850389
0
LINE
8
BLACK
6
CONTINUOUS
10
5.5809055118110233
20
-4.4473425196850389
11
5.580830590551181
21
-4.4477191732283465
0
LINE
8
BLACK
6
CONTINUOUS
10
5.580830590551181
20
-4.4477191732283465
11
5.5802979133858264
21
-4.4482518503937003
0
LINE
8
BLACK
6
CONTINUOUS
10
5.5802979133858264
20
-4.4482518503937003
11
5.5799212598425196
21
-4.4483267716535435
0
LINE
8
BLACK
6
CONTINUOUS
10
5.5799212598425196
20
-4.4483267716535435
11
5.5224409448818896
21
-4.4483267716535435
0
LINE
8
BLACK
6
CONTINUOUS
10
5.5224409448818896
20
-4.4483267716535435
11
5.5220642913385829
21
-4.4482518503937003
0
LINE
8
BLACK
6
CONTINUOUS
10
5.5220642913385829
20
-4.4482518503937003
11
5.5215316141732282
21
-4.4477191732283465
0
LINE
8
BLACK
6
CONTINUOUS
10
5.5215316141732282
20
-4.4477191732283465
11
5.5214566929133859
21
-4.4473425196850389
0
LINE
8
BLACK
6
CONTINUOUS
10
5.5214566929133859
20
-4.4473425196850389
11
5.5214566929133859
21
-4.3174212598425195
0
LINE
8
BLACK
6
CONTINUOUS
10
5.5214566929133859
20
-4.3174212598425195
11
5.5215316141732282
21
-4.3170446062992127
0
LINE
8
BLACK
6
CONTINUOUS
10
5.5215316141732282
20
-4.3170446062992127
11
5.5220642913385829
21
-4.3165119291338581
0
LINE
8
BLACK
6
CONTINUOUS
10
5.5220642913385829
20
-4.3165119291338581
11
5.5224409448818896
21
-4.3164370078740157
0
LINE
8
BLACK
6
CONTINUOUS
10
5.5224409448818896
20
-4.3164370078740157
11
5.5799212598425196
21
-4.3164370078740157
0
LINE
8
BLACK
6
CONTINUOUS
10
5.5799212598425196
20
-4.3164370078740157
11
5.5802979133858264
21
-4.3165119291338581
0
LINE
8
BLACK
6
CONTINUOUS
10
5.5234251968503933
20
-4.3184055118110232
11
5.5234251968503933
21
-4.4463582677165352
0
LINE
8
BLACK
6
CONTINUOUS
10
5.5234251968503933
20
-4.4463582677165352
11
5.5789370078740159
21
-4.4463582677165352
0
LINE
8
BLACK
6
CONTINUOUS
10
5.5789370078740159
20
-4.4463582677165352
11
5.5789370078740159
21
-4.3184055118110232
0
LINE
8
BLACK
6
CONTINUOUS
10
5.5789370078740159
20
-4.3184055118110232
11
5.5234251968503933
21
-4.3184055118110232
0
LINE
8
BLACK
6
CONTINUOUS
10
5.6913215354330706
20
-4.2609016929133858
11
5.6918542125984253
21
-4.2614343700787405
0
LINE
8
BLACK
6
CONTINUOUS
10
5.6918542125984253
20
-4.2614343700787405
11
5.6919291338582676
21
-4.2618110236220472
0
LINE
8
BLACK
6
CONTINUOUS
10
5.6919291338582676
20
-4.2618110236220472
11
5.6919291338582676
21
-4.4468503937007871
0
LINE
8
BLACK
6
CONTINUOUS
10
5.6919291338582676
20
-4.4468503937007871
11
5.6918542125984253
21
-4.4472270472440947
0
LINE
8
BLACK
6
CONTINUOUS
10
5.6918542125984253
20
-4.4472270472440947
11
5.6913215354330706
21
-4.4477597244094484
0
LINE
8
BLACK
6
CONTINUOUS
10
5.6913215354330706
20
-4.4477597244094484
11
5.6909448818897639
21
-4.4478346456692917
0
LINE
8
BLACK
6
CONTINUOUS
10
5.6909448818897639
20
-4.4478346456692917
11
5.6003937007874018
21
-4.4478346456692917
0
LINE
8
BLACK
6
CONTINUOUS
10
5.6003937007874018
20
-4.4478346456692917
11
5.6000170472440942
21
-4.4477597244094484
0
LINE
8
BLACK
6
CONTINUOUS
10
5.6000170472440942
20
-4.4477597244094484
11
5.5994843700787404
21
-4.4472270472440947
0
LINE
8
BLACK
6
CONTINUOUS
10
5.5994843700787404
20
-4.4472270472440947
11
5.5994094488188972
21
-4.4468503937007871
0
LINE
8
BLACK
6
CONTINUOUS
10
5.5994094488188972
20
-4.4468503937007871
11
5.5994094488188972
21
-4.2618110236220472
0
LINE
8
BLACK
6
CONTINUOUS
10
5.5994094488188972
20
-4.2618110236220472
11
5.5994843700787404
21
-4.2614343700787405
0
LINE
8
BLACK
6
CONTINUOUS
10
5.5994843700787404
20
-4.2614343700787405
11
5.6000170472440942
21
-4.2609016929133858
0
LINE
8
BLACK
6
CONTINUOUS
10
5.6000170472440942
20
-4.2609016929133858
11
5.6003937007874018
21
-4.2608267716535435
0
LINE
8
BLACK
6
CONTINUOUS
10
5.6003937007874018
20
-4.2608267716535435
11
5.6909448818897639
21
-4.2608267716535435
0
LINE
8
BLACK
6
CONTINUOUS
10
5.6909448818897639
20
-4.2608267716535435
11
5.6913215354330706
21
-4.2609016929133858
0
LINE
8
BLACK
6
CONTINUOUS
10
5.6013779527559056
20
-4.2627952755905509
11
5.6013779527559056
21
-4.4458661417322833
0
LINE
8
BLACK
6
CONTINUOUS
10
5.6013779527559056
20
-4.4458661417322833
11
5.6899606299212593
21
-4.4458661417322833
0
LINE
8
BLACK
6
CONTINUOUS
10
5.6899606299212593
20
-4.4458661417322833
11
5.6899606299212593
21
-4.2627952755905509
0
LINE
8
BLACK
6
CONTINUOUS
10
5.6899606299212593
20
-4.2627952755905509
11
5.6013779527559056
21
-4.2627952755905509
0
LINE
8
BLACK
6
CONTINUOUS
10
5.4196679921259845
20
-4.3471221653543308
11
5.4202006692913383
21
-4.3476548425196846
0
LINE
8
BLACK
6
CONTINUOUS
10
5.4202006692913383
20
-4.3476548425196846
11
5.4202755905511806
21
-4.3480314960629922
0
LINE
8
BLACK
6
CONTINUOUS
10
5.4202755905511806
20
-4.3480314960629922
11
5.4202755905511806
21
-4.4055118110236222
0
LINE
8
BLACK
6
CONTINUOUS
10
5.4202755905511806
20
-4.4055118110236222
11
5.4202006692913383
21
-4.405888464566929
0
LINE
8
BLACK
6
CONTINUOUS
10
5.4202006692913383
20
-4.405888464566929
11
5.4196679921259845
21
-4.4064211417322836
0
LINE
8
BLACK
6
CONTINUOUS
10
5.4196679921259845
20
-4.4064211417322836
11
5.4192913385826769
21
-4.4064960629921259
0
LINE
8
BLACK
6
CONTINUOUS
10
5.4192913385826769
20
-4.4064960629921259
11
5.2893700787401574
21
-4.4064960629921259
0
LINE
8
BLACK
6
CONTINUOUS
10
5.2893700787401574
20
-4.4064960629921259
11
5.2889934251968507
21
-4.4064211417322836
0
LINE
8
BLACK
6
CONTINUOUS
10
5.2889934251968507
20
-4.4064211417322836
11
5.288460748031496
21
-4.405888464566929
0
LINE
8
BLACK
6
CONTINUOUS
10
5.288460748031496
20
-4.405888464566929
11
5.2883858267716537
21
-4.4055118110236222
0
LINE
8
BLACK
6
CONTINUOUS
10
5.2883858267716537
20
-4.4055118110236222
11
5.2883858267716537
21
-4.3480314960629922
0
LINE
8
BLACK
6
CONTINUOUS
10
5.2883858267716537
20
-4.3480314960629922
11
5.288460748031496
21
-4.3476548425196846
0
LINE
8
BLACK
6
CONTINUOUS
10
5.288460748031496
20
-4.3476548425196846
11
5.2889934251968507
21
-4.3471221653543308
0
LINE
8
BLACK
6
CONTINUOUS
10
5.2889934251968507
20
-4.3471221653543308
11
5.2893700787401574
21
-4.3470472440944885
0
LINE
8
BLACK
6
CONTINUOUS
10
5.2893700787401574
20
-4.3470472440944885
11
5.4192913385826769
21
-4.3470472440944885
0
LINE
8
BLACK
6
CONTINUOUS
10
5.4192913385826769
20
-4.3470472440944885
11
5.4196679921259845
21
-4.3471221653543308
0
LINE
8
BLACK
6
CONTINUOUS
10
5.2903543307086611
20
-4.3490157480314959
11
5.2903543307086611
21
-4.4045275590551176
0
LINE
8
BLACK
6
CONTINUOUS
10
5.2903543307086611
20
-4.4045275590551176
11
5.4183070866141732
21
-4.4045275590551176
0
LINE
8
BLACK
6
CONTINUOUS
10
5.4183070866141732
20
-4.4045275590551176
11
5.4183070866141732
21
-4.3490157480314959
0
LINE
8
BLACK
6
CONTINUOUS
10
5.4183070866141732
20
-4.3490157480314959
11
5.2903543307086611
21
-4.3490157480314959
0
LINE
8
BLACK
6
CONTINUOUS
10
6.2023451574803152
20
-4.204307204724409
11
6.202877834645669
21
-4.2048398818897637
0
LINE
8
BLACK
6
CONTINUOUS
10
6.202877834645669
20
-4.2048398818897637
11
6.2029527559055113
21
-4.2052165354330704
0
LINE
8
BLACK
6
CONTINUOUS
10
6.2029527559055113
20
-4.2052165354330704
11
6.2029527559055113
21
-4.3351377952755907
0
LINE
8
BLACK
6
CONTINUOUS
10
6.2029527559055113
20
-4.3351377952755907
11
6.202877834645669
21
-4.3355144488188975
0
LINE
8
BLACK
6
CONTINUOUS
10
6.202877834645669
20
-4.3355144488188975
11
6.2023451574803152
21
-4.3360471259842521
0
LINE
8
BLACK
6
CONTINUOUS
10
6.2023451574803152
20
-4.3360471259842521
11
6.2019685039370076
21
-4.3361220472440944
0
LINE
8
BLACK
6
CONTINUOUS
10
6.2019685039370076
20
-4.3361220472440944
11
6.1444881889763776
21
-4.3361220472440944
0
LINE
8
BLACK
6
CONTINUOUS
10
6.1444881889763776
20
-4.3361220472440944
11
6.1441115354330709
21
-4.3360471259842521
0
LINE
8
BLACK
6
CONTINUOUS
10
6.1441115354330709
20
-4.3360471259842521
11
6.1435788582677162
21
-4.3355144488188975
0
LINE
8
BLACK
6
CONTINUOUS
10
6.1435788582677162
20
-4.3355144488188975
11
6.1435039370078739
21
-4.3351377952755907
0
LINE
8
BLACK
6
CONTINUOUS
10
6.1435039370078739
20
-4.3351377952755907
11
6.1435039370078739
21
-4.2052165354330704
0
LINE
8
BLACK
6
CONTINUOUS
10
6.1435039370078739
20
-4.2052165354330704
11
6.1435788582677162
21
-4.2048398818897637
0
LINE
8
BLACK
6
CONTINUOUS
10
6.1435788582677162
20
-4.2048398818897637
11
6.1441115354330709
21
-4.204307204724409
0
LINE
8
BLACK
6
CONTINUOUS
10
6.1441115354330709
20
-4.204307204724409
11
6.1444881889763776
21
-4.2042322834645667
0
LINE
8
BLACK
6
CONTINUOUS
10
6.1444881889763776
20
-4.2042322834645667
11
6.2019685039370076
21
-4.2042322834645667
0
LINE
8
BLACK
6
CONTINUOUS
10
6.2019685039370076
20
-4.2042322834645667
11
6.2023451574803152
21
-4.204307204724409
0
LINE
8
BLACK
6
CONTINUOUS
10
6.1454724409448813
20
-4.206200787401575
11
6.1454724409448813
21
-4.3341535433070861
0
LINE
8
BLACK
6
CONTINUOUS
10
6.1454724409448813
20
-4.3341535433070861
11
6.2009842519685039
21
-4.3341535433070861
0
LINE
8
BLACK
6
CONTINUOUS
10
6.2009842519685039
20
-4.3341535433070861
11
6.2009842519685039
21
-4.206200787401575
0
LINE
8
BLACK
6
CONTINUOUS
10
6.2009842519685039
20
-4.206200787401575
11
6.1454724409448813
21
-4.206200787401575
0
LINE
8
BLACK
6
CONTINUOUS
10
6.4149435826771652
20
-4.204307204724409
11
6.4154762598425199
21
-4.2048398818897637
0
LINE
8
BLACK
6
CONTINUOUS
10
6.4154762598425199
20
-4.2048398818897637
11
6.4155511811023622
21
-4.2052165354330704
0
LINE
8
BLACK
6
CONTINUOUS
10
6.4155511811023622
20
-4.2052165354330704
11
6.4155511811023622
21
-4.3351377952755907
0
LINE
8
BLACK
6
CONTINUOUS
10
6.4155511811023622
20
-4.3351377952755907
11
6.4154762598425199
21
-4.3355144488188975
0
LINE
8
BLACK
6
CONTINUOUS
10
6.4154762598425199
20
-4.3355144488188975
11
6.4149435826771652
21
-4.3360471259842521
0
LINE
8
BLACK
6
CONTINUOUS
10
6.4149435826771652
20
-4.3360471259842521
11
6.4145669291338585
21
-4.3361220472440944
0
LINE
8
BLACK
6
CONTINUOUS
10
6.4145669291338585
20
-4.3361220472440944
11
6.3570866141732285
21
-4.3361220472440944
0
LINE
8
BLACK
6
CONTINUOUS
10
6.3570866141732285
20
-4.3361220472440944
11
6.3567099606299209
21
-4.3360471259842521
0
LINE
8
BLACK
6
CONTINUOUS
10
6.3567099606299209
20
-4.3360471259842521
11
6.3561772834645671
21
-4.3355144488188975
0
LINE
8
BLACK
6
CONTINUOUS
10
6.3561772834645671
20
-4.3355144488188975
11
6.3561023622047239
21
-4.3351377952755907
0
LINE
8
BLACK
6
CONTINUOUS
10
6.3561023622047239
20
-4.3351377952755907
11
6.3561023622047239
21
-4.2052165354330704
0
LINE
8
BLACK
6
CONTINUOUS
10
6.3561023622047239
20
-4.2052165354330704
11
6.3561772834645671
21
-4.2048398818897637
0
LINE
8
BLACK
6
CONTINUOUS
10
6.3561772834645671
20
-4.2048398818897637
11
6.3567099606299209
21
-4.204307204724409
0
LINE
8
BLACK
6
CONTINUOUS
10
6.3567099606299209
20
-4.204307204724409
11
6.3570866141732285
21
-4.2042322834645667
0
LINE
8
BLACK
6
CONTINUOUS
10
6.3570866141732285
20
-4.2042322834645667
11
6.4145669291338585
21
-4.2042322834645667
0
LINE
8
BLACK
6
CONTINUOUS
10
6.4145669291338585
20
-4.2042322834645667
11
6.4149435826771652
21
-4.204307204724409
0
LINE
8
BLACK
6
CONTINUOUS
10
6.3580708661417322
20
-4.206200787401575
11
6.3580708661417322
21
-4.3341535433070861
0
LINE
8
BLACK
6
CONTINUOUS
10
6.3580708661417322
20
-4.3341535433070861
11
6.4135826771653539
21
-4.3341535433070861
0
LINE
8
BLACK
6
CONTINUOUS
10
6.4135826771653539
20
-4.3341535433070861
11
6.4135826771653539
21
-4.206200787401575
0
LINE
8
BLACK
6
CONTINUOUS
10
6.4135826771653539
20
-4.206200787401575
11
6.3580708661417322
21
-4.206200787401575
0
LINE
8
BLACK
6
CONTINUOUS
10
6.3165183858267717
20
-4.2861969685039369
11
6.3170510629921255
21
-4.2867296456692916
0
LINE
8
BLACK
6
CONTINUOUS
10
6.3170510629921255
20
-4.2867296456692916
11
6.3171259842519687
21
-4.2871062992125983
0
LINE
8
BLACK
6
CONTINUOUS
10
6.3171259842519687
20
-4.2871062992125983
11
6.3171259842519687
21
-4.3241141732283461
0
LINE
8
BLACK
6
CONTINUOUS
10
6.3171259842519687
20
-4.3241141732283461
11
6.3170510629921255
21
-4.3244908267716538
0
LINE
8
BLACK
6
CONTINUOUS
10
6.3170510629921255
20
-4.3244908267716538
11
6.3165183858267717
21
-4.3250235039370075
0
LINE
8
BLACK
6
CONTINUOUS
10
6.3165183858267717
20
-4.3250235039370075
11
6.3161417322834641
21
-4.3250984251968507
0
LINE
8
BLACK
6
CONTINUOUS
10
6.3161417322834641
20
-4.3250984251968507
11
6.2429133858267711
21
-4.3250984251968507
0
LINE
8
BLACK
6
CONTINUOUS
10
6.2429133858267711
20
-4.3250984251968507
11
6.2425367322834644
21
-4.3250235039370075
0
LINE
8
BLACK
6
CONTINUOUS
10
6.2425367322834644
20
-4.3250235039370075
11
6.2420040551181097
21
-4.3244908267716538
0
LINE
8
BLACK
6
CONTINUOUS
10
6.2420040551181097
20
-4.3244908267716538
11
6.2419291338582674
21
-4.3241141732283461
0
LINE
8
BLACK
6
CONTINUOUS
10
6.2419291338582674
20
-4.3241141732283461
11
6.2419291338582674
21
-4.2871062992125983
0
LINE
8
BLACK
6
CONTINUOUS
10
6.2419291338582674
20
-4.2871062992125983
11
6.2420040551181097
21
-4.2867296456692916
0
LINE
8
BLACK
6
CONTINUOUS
10
6.2420040551181097
20
-4.2867296456692916
11
6.2425367322834644
21
-4.2861969685039369
0
LINE
8
BLACK
6
CONTINUOUS
10
6.2425367322834644
20
-4.2861969685039369
11
6.2429133858267711
21
-4.2861220472440946
0
LINE
8
BLACK
6
CONTINUOUS
10
6.2429133858267711
20
-4.2861220472440946
11
6.3161417322834641
21
-4.2861220472440946
0
LINE
8
BLACK
6
CONTINUOUS
10
6.3161417322834641
20
-4.2861220472440946
11
6.3165183858267717
21
-4.2861969685039369
0
LINE
8
BLACK
6
CONTINUOUS
10
6.2438976377952757
20
-4.2880905511811021
11
6.2438976377952757
21
-4.3231299212598424
0
LINE
8
BLACK
6
CONTINUOUS
10
6.2438976377952757
20
-4.3231299212598424
11
6.3151574803149604
21
-4.3231299212598424
0
LINE
8
BLACK
6
CONTINUOUS
10
6.3151574803149604
20
-4.3231299212598424
11
6.3151574803149604
21
-4.2880905511811021
0
LINE
8
BLACK
6
CONTINUOUS
10
6.3151574803149604
20
-4.2880905511811021
11
6.2438976377952757
21
-4.2880905511811021
0
LINE
8
BLACK
6
CONTINUOUS
10
5.8448648425196845
20
-4.2577520866141727
11
5.8453975196850392
21
-4.2582847637795274
0
LINE
8
BLACK
6
CONTINUOUS
10
5.8453975196850392
20
-4.2582847637795274
11
5.8454724409448815
21
-4.258661417322835
0
LINE
8
BLACK
6
CONTINUOUS
10
5.8454724409448815
20
-4.258661417322835
11
5.8454724409448815
21
-4.3161417322834641
0
LINE
8
BLACK
6
CONTINUOUS
10
5.8454724409448815
20
-4.3161417322834641
11
5.8453975196850392
21
-4.3165183858267717
0
LINE
8
BLACK
6
CONTINUOUS
10
5.8453975196850392
20
-4.3165183858267717
11
5.8448648425196845
21
-4.3170510629921255
0
LINE
8
BLACK
6
CONTINUOUS
10
5.8448648425196845
20
-4.3170510629921255
11
5.8444881889763778
21
-4.3171259842519687
0
LINE
8
BLACK
6
CONTINUOUS
10
5.8444881889763778
20
-4.3171259842519687
11
5.7145669291338583
21
-4.3171259842519687
0
LINE
8
BLACK
6
CONTINUOUS
10
5.7145669291338583
20
-4.3171259842519687
11
5.7141902755905507
21
-4.3170510629921255
0
LINE
8
BLACK
6
CONTINUOUS
10
5.7141902755905507
20
-4.3170510629921255
11
5.7136575984251969
21
-4.3165183858267717
0
LINE
8
BLACK
6
CONTINUOUS
10
5.7136575984251969
20
-4.3165183858267717
11
5.7135826771653546
21
-4.3161417322834641
0
LINE
8
BLACK
6
CONTINUOUS
10
5.7135826771653546
20
-4.3161417322834641
11
5.7135826771653546
21
-4.258661417322835
0
LINE
8
BLACK
6
CONTINUOUS
10
5.7135826771653546
20
-4.258661417322835
11
5.7136575984251969
21
-4.2582847637795274
0
LINE
8
BLACK
6
CONTINUOUS
10
5.7136575984251969
20
-4.2582847637795274
11
5.7141902755905507
21
-4.2577520866141727
0
LINE
8
BLACK
6
CONTINUOUS
10
5.7141902755905507
20
-4.2577520866141727
11
5.7145669291338583
21
-4.2576771653543304
0
LINE
8
BLACK
6
CONTINUOUS
10
5.7145669291338583
20
-4.2576771653543304
11
5.8444881889763778
21
-4.2576771653543304
0
LINE
8
BLACK
6
CONTINUOUS
10
5.8444881889763778
20
-4.2576771653543304
11
5.8448648425196845
21
-4.2577520866141727
0
LINE
8
BLACK
6
CONTINUOUS
10
5.715551181102362
20
-4.2596456692913387
11
5.715551181102362
21
-4.3151574803149604
0
LINE
8
BLACK
6
CONTINUOUS
10
5.715551181102362
20
-4.3151574803149604
11
5.8435039370078741
21
-4.3151574803149604
0
LINE
8
BLACK
6
CONTINUOUS
10
5.8435039370078741
20
-4.3151574803149604
11
5.8435039370078741
21
-4.2596456692913387
0
LINE
8
BLACK
6
CONTINUOUS
10
5.8435039370078741
20
-4.2596456692913387
11
5.715551181102362
21
-4.2596456692913387
0
LINE
8
BLACK
6
CONTINUOUS
10
5.5830538188976373
20
-4.2003701968503933
11
5.583586496062992
21
-4.2009028740157479
0
LINE
8
BLACK
6
CONTINUOUS
10
5.583586496062992
20
-4.2009028740157479
11
5.5836614173228343
21
-4.2012795275590546
0
LINE
8
BLACK
6
CONTINUOUS
10
5.5836614173228343
20
-4.2012795275590546
11
5.5836614173228343
21
-4.3115157480314963
0
LINE
8
BLACK
6
CONTINUOUS
10
5.5836614173228343
20
-4.3115157480314963
11
5.583586496062992
21
-4.311892401574803
0
LINE
8
BLACK
6
CONTINUOUS
10
5.583586496062992
20
-4.311892401574803
11
5.5830538188976373
21
-4.3124250787401577
0
LINE
8
BLACK
6
CONTINUOUS
10
5.5830538188976373
20
-4.3124250787401577
11
5.5826771653543306
21
-4.3125
0
LINE
8
BLACK
6
CONTINUOUS
10
5.5826771653543306
20
-4.3125
11
5.4566929133858268
21
-4.3125
0
LINE
8
BLACK
6
CONTINUOUS
10
5.4566929133858268
20
-4.3125
11
5.4563162598425192
21
-4.3124250787401577
0
LINE
8
BLACK
6
CONTINUOUS
10
5.4563162598425192
20
-4.3124250787401577
11
5.4557835826771655
21
-4.311892401574803
0
LINE
8
BLACK
6
CONTINUOUS
10
5.4557835826771655
20
-4.311892401574803
11
5.4557086614173231
21
-4.3115157480314963
0
LINE
8
BLACK
6
CONTINUOUS
10
5.4557086614173231
20
-4.3115157480314963
11
5.4557086614173231
21
-4.2012795275590546
0
LINE
8
BLACK
6
CONTINUOUS
10
5.4557086614173231
20
-4.2012795275590546
11
5.4557835826771655
21
-4.2009028740157479
0
LINE
8
BLACK
6
CONTINUOUS
10
5.4557835826771655
20
-4.2009028740157479
11
5.4563162598425192
21
-4.2003701968503933
0
LINE
8
BLACK
6
CONTINUOUS
10
5.4563162598425192
20
-4.2003701968503933
11
5.4566929133858268
21
-4.2002952755905509
0
LINE
8
BLACK
6
CONTINUOUS
10
5.4566929133858268
20
-4.2002952755905509
11
5.5826771653543306
21
-4.2002952755905509
0
LINE
8
BLACK
6
CONTINUOUS
10
5.5826771653543306
20
-4.2002952755905509
11
5.5830538188976373
21
-4.2003701968503933
0
LINE
8
BLACK
6
CONTINUOUS
10
5.4576771653543306
20
-4.2022637795275593
11
5.4576771653543306
21
-4.3105314960629917
0
LINE
8
BLACK
6
CONTINUOUS
10
5.4576771653543306
20
-4.3105314960629917
11
5.5816929133858268
21
-4.3105314960629917
0
LINE
8
BLACK
6
CONTINUOUS
10
5.5816929133858268
20
-4.3105314960629917
11
5.5816929133858268
21
-4.2022637795275593
0
LINE
8
BLACK
6
CONTINUOUS
10
5.5816929133858268
20
-4.2022637795275593
11
5.4576771653543306
21
-4.2022637795275593
0
LINE
8
BLACK
6
CONTINUOUS
10
5.4157309842519687
20
-4.2471221653543303
11
5.4162636614173225
21
-4.2476548425196849
0
LINE
8
BLACK
6
CONTINUOUS
10
5.4162636614173225
20
-4.2476548425196849
11
5.4163385826771648
21
-4.2480314960629917
0
LINE
8
BLACK
6
CONTINUOUS
10
5.4163385826771648
20
-4.2480314960629917
11
5.4163385826771648
21
-4.3055118110236217
0
LINE
8
BLACK
6
CONTINUOUS
10
5.4163385826771648
20
-4.3055118110236217
11
5.4162636614173225
21
-4.3058884645669293
0
LINE
8
BLACK
6
CONTINUOUS
10
5.4162636614173225
20
-4.3058884645669293
11
5.4157309842519687
21
-4.3064211417322831
0
LINE
8
BLACK
6
CONTINUOUS
10
5.4157309842519687
20
-4.3064211417322831
11
5.4153543307086611
21
-4.3064960629921263
0
LINE
8
BLACK
6
CONTINUOUS
10
5.4153543307086611
20
-4.3064960629921263
11
5.2854330708661417
21
-4.3064960629921263
0
LINE
8
BLACK
6
CONTINUOUS
10
5.2854330708661417
20
-4.3064960629921263
11
5.2850564173228349
21
-4.3064211417322831
0
LINE
8
BLACK
6
CONTINUOUS
10
5.2850564173228349
20
-4.3064211417322831
11
5.2845237401574803
21
-4.3058884645669293
0
LINE
8
BLACK
6
CONTINUOUS
10
5.2845237401574803
20
-4.3058884645669293
11
5.284448818897638
21
-4.3055118110236217
0
LINE
8
BLACK
6
CONTINUOUS
10
5.284448818897638
20
-4.3055118110236217
11
5.284448818897638
21
-4.2480314960629917
0
LINE
8
BLACK
6
CONTINUOUS
10
5.284448818897638
20
-4.2480314960629917
11
5.2845237401574803
21
-4.2476548425196849
0
LINE
8
BLACK
6
CONTINUOUS
10
5.2845237401574803
20
-4.2476548425196849
11
5.2850564173228349
21
-4.2471221653543303
0
LINE
8
BLACK
6
CONTINUOUS
10
5.2850564173228349
20
-4.2471221653543303
11
5.2854330708661417
21
-4.247047244094488
0
LINE
8
BLACK
6
CONTINUOUS
10
5.2854330708661417
20
-4.247047244094488
11
5.4153543307086611
21
-4.247047244094488
0
LINE
8
BLACK
6
CONTINUOUS
10
5.4153543307086611
20
-4.247047244094488
11
5.4157309842519687
21
-4.2471221653543303
0
LINE
8
BLACK
6
CONTINUOUS
10
5.2864173228346454
20
-4.2490157480314963
11
5.2864173228346454
21
-4.304527559055118
0
LINE
8
BLACK
6
CONTINUOUS
10
5.2864173228346454
20
-4.304527559055118
11
5.4143700787401574
21
-4.304527559055118
0
LINE
8
BLACK
6
CONTINUOUS
10
5.4143700787401574
20
-4.304527559055118
11
5.4143700787401574
21
-4.2490157480314963
0
LINE
8
BLACK
6
CONTINUOUS
10
5.4143700787401574
20
-4.2490157480314963
11
5.2864173228346454
21
-4.2490157480314963
0
LINE
8
BLACK
6
CONTINUOUS
10
6.2771483070866143
20
-4.1491890944881886
11
6.2776809842519681
21
-4.1497217716535433
0
LINE
8
BLACK
6
CONTINUOUS
10
6.2776809842519681
20
-4.1497217716535433
11
6.2777559055118113
21
-4.15009842519685
0
LINE
8
BLACK
6
CONTINUOUS
10
6.2777559055118113
20
-4.15009842519685
11
6.2777559055118113
21
-4.2800196850393704
0
LINE
8
BLACK
6
CONTINUOUS
10
6.2777559055118113
20
-4.2800196850393704
11
6.2776809842519681
21
-4.2803963385826771
0
LINE
8
BLACK
6
CONTINUOUS
10
6.2776809842519681
20
-4.2803963385826771
11
6.2771483070866143
21
-4.2809290157480318
0
LINE
8
BLACK
6
CONTINUOUS
10
6.2771483070866143
20
-4.2809290157480318
11
6.2767716535433067
21
-4.2810039370078741
0
LINE
8
BLACK
6
CONTINUOUS
10
6.2767716535433067
20
-4.2810039370078741
11
6.2192913385826767
21
-4.2810039370078741
0
LINE
8
BLACK
6
CONTINUOUS
10
6.2192913385826767
20
-4.2810039370078741
11
6.2189146850393699
21
-4.2809290157480318
0
LINE
8
BLACK
6
CONTINUOUS
10
6.2189146850393699
20
-4.2809290157480318
11
6.2183820078740153
21
-4.2803963385826771
0
LINE
8
BLACK
6
CONTINUOUS
10
6.2183820078740153
20
-4.2803963385826771
11
6.218307086614173
21
-4.2800196850393704
0
LINE
8
BLACK
6
CONTINUOUS
10
6.218307086614173
20
-4.2800196850393704
11
6.218307086614173
21
-4.15009842519685
0
LINE
8
BLACK
6
CONTINUOUS
10
6.218307086614173
20
-4.15009842519685
11
6.2183820078740153
21
-4.1497217716535433
0
LINE
8
BLACK
6
CONTINUOUS
10
6.2183820078740153
20
-4.1497217716535433
11
6.2189146850393699
21
-4.1491890944881886
0
LINE
8
BLACK
6
CONTINUOUS
10
6.2189146850393699
20
-4.1491890944881886
11
6.2192913385826767
21
-4.1491141732283463
0
LINE
8
BLACK
6
CONTINUOUS
10
6.2192913385826767
20
-4.1491141732283463
11
6.2767716535433067
21
-4.1491141732283463
0
LINE
8
BLACK
6
CONTINUOUS
10
6.2767716535433067
20
-4.1491141732283463
11
6.2771483070866143
21
-4.1491890944881886
0
LINE
8
BLACK
6
CONTINUOUS
10
6.2202755905511813
20
-4.1510826771653546
11
6.2202755905511813
21
-4.2790354330708658
0
LINE
8
BLACK
6
CONTINUOUS
10
6.2202755905511813
20
-4.2790354330708658
11
6.275787401574803
21
-4.2790354330708658
0
LINE
8
BLACK
6
CONTINUOUS
10
6.275787401574803
20
-4.2790354330708658
11
6.275787401574803
21
-4.1510826771653546
0
LINE
8
BLACK
6
CONTINUOUS
10
6.275787401574803
20
-4.1510826771653546
11
6.2202755905511813
21
-4.1510826771653546
0
LINE
8
BLACK
6
CONTINUOUS
10
6.3401404330708662
20
-4.1491890944881886
11
6.3406731102362199
21
-4.1497217716535433
0
LINE
8
BLACK
6
CONTINUOUS
10
6.3406731102362199
20
-4.1497217716535433
11
6.3407480314960631
21
-4.15009842519685
0
LINE
8
BLACK
6
CONTINUOUS
10
6.3407480314960631
20
-4.15009842519685
11
6.3407480314960631
21
-4.2800196850393704
0
LINE
8
BLACK
6
CONTINUOUS
10
6.3407480314960631
20
-4.2800196850393704
11
6.3406731102362199
21
-4.2803963385826771
0
LINE
8
BLACK
6
CONTINUOUS
10
6.3406731102362199
20
-4.2803963385826771
11
6.3401404330708662
21
-4.2809290157480318
0
LINE
8
BLACK
6
CONTINUOUS
10
6.3401404330708662
20
-4.2809290157480318
11
6.3397637795275585
21
-4.2810039370078741
0
LINE
8
BLACK
6
CONTINUOUS
10
6.3397637795275585
20
-4.2810039370078741
11
6.2822834645669294
21
-4.2810039370078741
0
LINE
8
BLACK
6
CONTINUOUS
10
6.2822834645669294
20
-4.2810039370078741
11
6.2819068110236218
21
-4.2809290157480318
0
LINE
8
BLACK
6
CONTINUOUS
10
6.2819068110236218
20
-4.2809290157480318
11
6.2813741338582672
21
-4.2803963385826771
0
LINE
8
BLACK
6
CONTINUOUS
10
6.2813741338582672
20
-4.2803963385826771
11
6.2812992125984248
21
-4.2800196850393704
0
LINE
8
BLACK
6
CONTINUOUS
10
6.2812992125984248
20
-4.2800196850393704
11
6.2812992125984248
21
-4.15009842519685
0
LINE
8
BLACK
6
CONTINUOUS
10
6.2812992125984248
20
-4.15009842519685
11
6.2813741338582672
21
-4.1497217716535433
0
LINE
8
BLACK
6
CONTINUOUS
10
6.2813741338582672
20
-4.1497217716535433
11
6.2819068110236218
21
-4.1491890944881886
0
LINE
8
BLACK
6
CONTINUOUS
10
6.2819068110236218
20
-4.1491890944881886
11
6.2822834645669294
21
-4.1491141732283463
0
LINE
8
BLACK
6
CONTINUOUS
10
6.2822834645669294
20
-4.1491141732283463
11
6.3397637795275585
21
-4.1491141732283463
0
LINE
8
BLACK
6
CONTINUOUS
10
6.3397637795275585
20
-4.1491141732283463
11
6.3401404330708662
21
-4.1491890944881886
0
LINE
8
BLACK
6
CONTINUOUS
10
6.2832677165354331
20
-4.1510826771653546
11
6.2832677165354331
21
-4.2790354330708658
0
LINE
8
BLACK
6
CONTINUOUS
10
6.2832677165354331
20
-4.2790354330708658
11
6.3387795275590548
21
-4.2790354330708658
0
LINE
8
BLACK
6
CONTINUOUS
10
6.3387795275590548
20
-4.2790354330708658
11
6.3387795275590548
21
-4.1510826771653546
0
LINE
8
BLACK
6
CONTINUOUS
10
6.3387795275590548
20
-4.1510826771653546
11
6.2832677165354331
21
-4.1510826771653546
0
LINE
8
BLACK
6
CONTINUOUS
10
5.7022467322834647
20
-4.1073583858267719
11
5.7027794094488184
21
-4.1078910629921257
0
LINE
8
BLACK
6
CONTINUOUS
10
5.7027794094488184
20
-4.1078910629921257
11
5.7028543307086617
21
-4.1082677165354333
0
LINE
8
BLACK
6
CONTINUOUS
10
5.7028543307086617
20
-4.1082677165354333
11
5.7028543307086617
21
-4.2381889763779528
0
LINE
8
BLACK
6
CONTINUOUS
10
5.7028543307086617
20
-4.2381889763779528
11
5.7027794094488184
21
-4.2385656299212595
0
LINE
8
BLACK
6
CONTINUOUS
10
5.7027794094488184
20
-4.2385656299212595
11
5.7022467322834647
21
-4.2390983070866142
0
LINE
8
BLACK
6
CONTINUOUS
10
5.7022467322834647
20
-4.2390983070866142
11
5.7018700787401571
21
-4.2391732283464565
0
LINE
8
BLACK
6
CONTINUOUS
10
5.7018700787401571
20
-4.2391732283464565
11
5.6443897637795271
21
-4.2391732283464565
0
LINE
8
BLACK
6
CONTINUOUS
10
5.6443897637795271
20
-4.2391732283464565
11
5.6440131102362203
21
-4.2390983070866142
0
LINE
8
BLACK
6
CONTINUOUS
10
5.6440131102362203
20
-4.2390983070866142
11
5.6434804330708657
21
-4.2385656299212595
0
LINE
8
BLACK
6
CONTINUOUS
10
5.6434804330708657
20
-4.2385656299212595
11
5.6434055118110233
21
-4.2381889763779528
0
LINE
8
BLACK
6
CONTINUOUS
10
5.6434055118110233
20
-4.2381889763779528
11
5.6434055118110233
21
-4.1082677165354333
0
LINE
8
BLACK
6
CONTINUOUS
10
5.6434055118110233
20
-4.1082677165354333
11
5.6434804330708657
21
-4.1078910629921257
0
LINE
8
BLACK
6
CONTINUOUS
10
5.6434804330708657
20
-4.1078910629921257
11
5.6440131102362203
21
-4.1073583858267719
0
LINE
8
BLACK
6
CONTINUOUS
10
5.6440131102362203
20
-4.1073583858267719
11
5.6443897637795271
21
-4.1072834645669287
0
LINE
8
BLACK
6
CONTINUOUS
10
5.6443897637795271
20
-4.1072834645669287
11
5.7018700787401571
21
-4.1072834645669287
0
LINE
8
BLACK
6
CONTINUOUS
10
5.7018700787401571
20
-4.1072834645669287
11
5.7022467322834647
21
-4.1073583858267719
0
LINE
8
BLACK
6
CONTINUOUS
10
5.6453740157480317
20
-4.109251968503937
11
5.6453740157480317
21
-4.2372047244094491
0
LINE
8
BLACK
6
CONTINUOUS
10
5.6453740157480317
20
-4.2372047244094491
11
5.7008858267716533
21
-4.2372047244094491
0
LINE
8
BLACK
6
CONTINUOUS
10
5.7008858267716533
20
-4.2372047244094491
11
5.7008858267716533
21
-4.109251968503937
0
LINE
8
BLACK
6
CONTINUOUS
10
5.7008858267716533
20
-4.109251968503937
11
5.6453740157480317
21
-4.109251968503937
0
LINE
8
BLACK
6
CONTINUOUS
10
5.8211443700787404
20
-4.1073583858267719
11
5.8216770472440942
21
-4.1078910629921257
0
LINE
8
BLACK
6
CONTINUOUS
10
5.8216770472440942
20
-4.1078910629921257
11
5.8217519685039365
21
-4.1082677165354333
0
LINE
8
BLACK
6
CONTINUOUS
10
5.8217519685039365
20
-4.1082677165354333
11
5.8217519685039365
21
-4.234251968503937
0
LINE
8
BLACK
6
CONTINUOUS
10
5.8217519685039365
20
-4.234251968503937
11
5.8216770472440942
21
-4.2346286220472438
0
LINE
8
BLACK
6
CONTINUOUS
10
5.8216770472440942
20
-4.2346286220472438
11
5.8211443700787404
21
-4.2351612992125984
0
LINE
8
BLACK
6
CONTINUOUS
10
5.8211443700787404
20
-4.2351612992125984
11
5.8207677165354328
21
-4.2352362204724407
0
LINE
8
BLACK
6
CONTINUOUS
10
5.8207677165354328
20
-4.2352362204724407
11
5.710531496062992
21
-4.2352362204724407
0
LINE
8
BLACK
6
CONTINUOUS
10
5.710531496062992
20
-4.2352362204724407
11
5.7101548425196853
21
-4.2351612992125984
0
LINE
8
BLACK
6
CONTINUOUS
10
5.7101548425196853
20
-4.2351612992125984
11
5.7096221653543306
21
-4.2346286220472438
0
LINE
8
BLACK
6
CONTINUOUS
10
5.7096221653543306
20
-4.2346286220472438
11
5.7095472440944883
21
-4.234251968503937
0
LINE
8
BLACK
6
CONTINUOUS
10
5.7095472440944883
20
-4.234251968503937
11
5.7095472440944883
21
-4.1082677165354333
0
LINE
8
BLACK
6
CONTINUOUS
10
5.7095472440944883
20
-4.1082677165354333
11
5.7096221653543306
21
-4.1078910629921257
0
LINE
8
BLACK
6
CONTINUOUS
10
5.7096221653543306
20
-4.1078910629921257
11
5.7101548425196853
21
-4.1073583858267719
0
LINE
8
BLACK
6
CONTINUOUS
10
5.7101548425196853
20
-4.1073583858267719
11
5.710531496062992
21
-4.1072834645669287
0
LINE
8
BLACK
6
CONTINUOUS
10
5.710531496062992
20
-4.1072834645669287
11
5.8207677165354328
21
-4.1072834645669287
0
LINE
8
BLACK
6
CONTINUOUS
10
5.8207677165354328
20
-4.1072834645669287
11
5.8211443700787404
21
-4.1073583858267719
0
LINE
8
BLACK
6
CONTINUOUS
10
5.7115157480314958
20
-4.109251968503937
11
5.7115157480314958
21
-4.2332677165354333
0
LINE
8
BLACK
6
CONTINUOUS
10
5.7115157480314958
20
-4.2332677165354333
11
5.8197834645669291
21
-4.2332677165354333
0
LINE
8
BLACK
6
CONTINUOUS
10
5.8197834645669291
20
-4.2332677165354333
11
5.8197834645669291
21
-4.109251968503937
0
LINE
8
BLACK
6
CONTINUOUS
10
5.8197834645669291
20
-4.109251968503937
11
5.7115157480314958
21
-4.109251968503937
0
LINE
8
BLACK
6
CONTINUOUS
10
5.4157309842519687
20
-4.1471221653543306
11
5.4162636614173225
21
-4.1476548425196853
0
LINE
8
BLACK
6
CONTINUOUS
10
5.4162636614173225
20
-4.1476548425196853
11
5.4163385826771648
21
-4.148031496062992
0
LINE
8
BLACK
6
CONTINUOUS
10
5.4163385826771648
20
-4.148031496062992
11
5.4163385826771648
21
-4.205511811023622
0
LINE
8
BLACK
6
CONTINUOUS
10
5.4163385826771648
20
-4.205511811023622
11
5.4162636614173225
21
-4.2058884645669288
0
LINE
8
BLACK
6
CONTINUOUS
10
5.4162636614173225
20
-4.2058884645669288
11
5.4157309842519687
21
-4.2064211417322834
0
LINE
8
BLACK
6
CONTINUOUS
10
5.4157309842519687
20
-4.2064211417322834
11
5.4153543307086611
21
-4.2064960629921258
0
LINE
8
BLACK
6
CONTINUOUS
10
5.4153543307086611
20
-4.2064960629921258
11
5.2854330708661417
21
-4.2064960629921258
0
LINE
8
BLACK
6
CONTINUOUS
10
5.2854330708661417
20
-4.2064960629921258
11
5.2850564173228349
21
-4.2064211417322834
0
LINE
8
BLACK
6
CONTINUOUS
10
5.2850564173228349
20
-4.2064211417322834
11
5.2845237401574803
21
-4.2058884645669288
0
LINE
8
BLACK
6
CONTINUOUS
10
5.2845237401574803
20
-4.2058884645669288
11
5.284448818897638
21
-4.205511811023622
0
LINE
8
BLACK
6
CONTINUOUS
10
5.284448818897638
20
-4.205511811023622
11
5.284448818897638
21
-4.148031496062992
0
LINE
8
BLACK
6
CONTINUOUS
10
5.284448818897638
20
-4.148031496062992
11
5.2845237401574803
21
-4.1476548425196853
0
LINE
8
BLACK
6
CONTINUOUS
10
5.2845237401574803
20
-4.1476548425196853
11
5.2850564173228349
21
-4.1471221653543306
0
LINE
8
BLACK
6
CONTINUOUS
10
5.2850564173228349
20
-4.1471221653543306
11
5.2854330708661417
21
-4.1470472440944883
0
LINE
8
BLACK
6
CONTINUOUS
10
5.2854330708661417
20
-4.1470472440944883
11
5.4153543307086611
21
-4.1470472440944883
0
LINE
8
BLACK
6
CONTINUOUS
10
5.4153543307086611
20
-4.1470472440944883
11
5.4157309842519687
21
-4.1471221653543306
0
LINE
8
BLACK
6
CONTINUOUS
10
5.2864173228346454
20
-4.1490157480314958
11
5.2864173228346454
21
-4.2045275590551183
0
LINE
8
BLACK
6
CONTINUOUS
10
5.2864173228346454
20
-4.2045275590551183
11
5.4143700787401574
21
-4.2045275590551183
0
LINE
8
BLACK
6
CONTINUOUS
10
5.4143700787401574
20
-4.2045275590551183
11
5.4143700787401574
21
-4.1490157480314958
0
LINE
8
BLACK
6
CONTINUOUS
10
5.4143700787401574
20
-4.1490157480314958
11
5.2864173228346454
21
-4.1490157480314958
0
LINE
8
BLACK
6
CONTINUOUS
10
5.5850223228346456
20
-4.1401339763779523
11
5.5855550000000003
21
-4.140666653543307
0
LINE
8
BLACK
6
CONTINUOUS
10
5.5855550000000003
20
-4.140666653543307
11
5.5856299212598426
21
-4.1410433070866137
0
LINE
8
BLACK
6
CONTINUOUS
10
5.5856299212598426
20
-4.1410433070866137
11
5.5856299212598426
21
-4.1985236220472437
0
LINE
8
BLACK
6
CONTINUOUS
10
5.5856299212598426
20
-4.1985236220472437
11
5.5855550000000003
21
-4.1989002755905513
0
LINE
8
BLACK
6
CONTINUOUS
10
5.5855550000000003
20
-4.1989002755905513
11
5.5850223228346456
21
-4.1994329527559051
0
LINE
8
BLACK
6
CONTINUOUS
10
5.5850223228346456
20
-4.1994329527559051
11
5.5846456692913389
21
-4.1995078740157483
0
LINE
8
BLACK
6
CONTINUOUS
10
5.5846456692913389
20
-4.1995078740157483
11
5.4547244094488185
21
-4.1995078740157483
0
LINE
8
BLACK
6
CONTINUOUS
10
5.4547244094488185
20
-4.1995078740157483
11
5.4543477559055118
21
-4.1994329527559051
0
LINE
8
BLACK
6
CONTINUOUS
10
5.4543477559055118
20
-4.1994329527559051
11
5.4538150787401571
21
-4.1989002755905513
0
LINE
8
BLACK
6
CONTINUOUS
10
5.4538150787401571
20
-4.1989002755905513
11
5.4537401574803148
21
-4.1985236220472437
0
LINE
8
BLACK
6
CONTINUOUS
10
5.4537401574803148
20
-4.1985236220472437
11
5.4537401574803148
21
-4.1410433070866137
0
LINE
8
BLACK
6
CONTINUOUS
10
5.4537401574803148
20
-4.1410433070866137
11
5.4538150787401571
21
-4.140666653543307
0
LINE
8
BLACK
6
CONTINUOUS
10
5.4538150787401571
20
-4.140666653543307
11
5.4543477559055118
21
-4.1401339763779523
0
LINE
8
BLACK
6
CONTINUOUS
10
5.4543477559055118
20
-4.1401339763779523
11
5.4547244094488185
21
-4.14005905511811
0
LINE
8
BLACK
6
CONTINUOUS
10
5.4547244094488185
20
-4.14005905511811
11
5.5846456692913389
21
-4.14005905511811
0
LINE
8
BLACK
6
CONTINUOUS
10
5.5846456692913389
20
-4.14005905511811
11
5.5850223228346456
21
-4.1401339763779523
0
LINE
8
BLACK
6
CONTINUOUS
10
5.4557086614173231
20
-4.1420275590551183
11
5.4557086614173231
21
-4.19753937007874
0
LINE
8
BLACK
6
CONTINUOUS
10
5.4557086614173231
20
-4.19753937007874
11
5.5836614173228343
21
-4.19753937007874
0
LINE
8
BLACK
6
CONTINUOUS
10
5.5836614173228343
20
-4.19753937007874
11
5.5836614173228343
21
-4.1420275590551183
0
LINE
8
BLACK
6
CONTINUOUS
10
5.5836614173228343
20
-4.1420275590551183
11
5.4557086614173231
21
-4.1420275590551183
0
LINE
8
BLACK
6
CONTINUOUS
10
6.1393530314960625
20
-4.0153308267716534
11
6.1398857086614171
21
-4.0158635039370081
0
LINE
8
BLACK
6
CONTINUOUS
10
6.1398857086614171
20
-4.0158635039370081
11
6.1399606299212595
21
-4.0162401574803148
0
LINE
8
BLACK
6
CONTINUOUS
10
6.1399606299212595
20
-4.0162401574803148
11
6.1399606299212595
21
-4.1461614173228343
0
LINE
8
BLACK
6
CONTINUOUS
10
6.1399606299212595
20
-4.1461614173228343
11
6.1398857086614171
21
-4.1465380708661419
0
LINE
8
BLACK
6
CONTINUOUS
10
6.1398857086614171
20
-4.1465380708661419
11
6.1393530314960625
21
-4.1470707480314957
0
LINE
8
BLACK
6
CONTINUOUS
10
6.1393530314960625
20
-4.1470707480314957
11
6.1389763779527557
21
-4.1471456692913389
0
LINE
8
BLACK
6
CONTINUOUS
10
6.1389763779527557
20
-4.1471456692913389
11
6.0814960629921258
21
-4.1471456692913389
0
LINE
8
BLACK
6
CONTINUOUS
10
6.0814960629921258
20
-4.1471456692913389
11
6.081119409448819
21
-4.1470707480314957
0
LINE
8
BLACK
6
CONTINUOUS
10
6.081119409448819
20
-4.1470707480314957
11
6.0805867322834644
21
-4.1465380708661419
0
LINE
8
BLACK
6
CONTINUOUS
10
6.0805867322834644
20
-4.1465380708661419
11
6.080511811023622
21
-4.1461614173228343
0
LINE
8
BLACK
6
CONTINUOUS
10
6.080511811023622
20
-4.1461614173228343
11
6.080511811023622
21
-4.0162401574803148
0
LINE
8
BLACK
6
CONTINUOUS
10
6.080511811023622
20
-4.0162401574803148
11
6.0805867322834644
21
-4.0158635039370081
0
LINE
8
BLACK
6
CONTINUOUS
10
6.0805867322834644
20
-4.0158635039370081
11
6.081119409448819
21
-4.0153308267716534
0
LINE
8
BLACK
6
CONTINUOUS
10
6.081119409448819
20
-4.0153308267716534
11
6.0814960629921258
21
-4.0152559055118111
0
LINE
8
BLACK
6
CONTINUOUS
10
6.0814960629921258
20
-4.0152559055118111
11
6.1389763779527557
21
-4.0152559055118111
0
LINE
8
BLACK
6
CONTINUOUS
10
6.1389763779527557
20
-4.0152559055118111
11
6.1393530314960625
21
-4.0153308267716534
0
LINE
8
BLACK
6
CONTINUOUS
10
6.0824803149606295
20
-4.0172244094488185
11
6.0824803149606295
21
-4.1451771653543306
0
LINE
8
BLACK
6
CONTINUOUS
10
6.0824803149606295
20
-4.1451771653543306
11
6.137992125984252
21
-4.1451771653543306
0
LINE
8
BLACK
6
CONTINUOUS
10
6.137992125984252
20
-4.1451771653543306
11
6.137992125984252
21
-4.0172244094488185
0
LINE
8
BLACK
6
CONTINUOUS
10
6.137992125984252
20
-4.0172244094488185
11
6.0824803149606295
21
-4.0172244094488185
0
LINE
8
BLACK
6
CONTINUOUS
10
6.3401404330708662
20
-4.0074568110236219
11
6.3406731102362199
21
-4.0079894881889766
0
LINE
8
BLACK
6
CONTINUOUS
10
6.3406731102362199
20
-4.0079894881889766
11
6.3407480314960631
21
-4.0083661417322833
0
LINE
8
BLACK
6
CONTINUOUS
10
6.3407480314960631
20
-4.0083661417322833
11
6.3407480314960631
21
-4.1382874015748028
0
LINE
8
BLACK
6
CONTINUOUS
10
6.3407480314960631
20
-4.1382874015748028
11
6.3406731102362199
21
-4.1386640551181104
0
LINE
8
BLACK
6
CONTINUOUS
10
6.3406731102362199
20
-4.1386640551181104
11
6.3401404330708662
21
-4.1391967322834642
0
LINE
8
BLACK
6
CONTINUOUS
10
6.3401404330708662
20
-4.1391967322834642
11
6.3397637795275585
21
-4.1392716535433074
0
LINE
8
BLACK
6
CONTINUOUS
10
6.3397637795275585
20
-4.1392716535433074
11
6.2822834645669294
21
-4.1392716535433074
0
LINE
8
BLACK
6
CONTINUOUS
10
6.2822834645669294
20
-4.1392716535433074
11
6.2819068110236218
21
-4.1391967322834642
0
LINE
8
BLACK
6
CONTINUOUS
10
6.2819068110236218
20
-4.1391967322834642
11
6.2813741338582672
21
-4.1386640551181104
0
LINE
8
BLACK
6
CONTINUOUS
10
6.2813741338582672
20
-4.1386640551181104
11
6.2812992125984248
21
-4.1382874015748028
0
LINE
8
BLACK
6
CONTINUOUS
10
6.2812992125984248
20
-4.1382874015748028
11
6.2812992125984248
21
-4.0083661417322833
0
LINE
8
BLACK
6
CONTINUOUS
10
6.2812992125984248
20
-4.0083661417322833
11
6.2813741338582672
21
-4.0079894881889766
0
LINE
8
BLACK
6
CONTINUOUS
10
6.2813741338582672
20
-4.0079894881889766
11
6.2819068110236218
21
-4.0074568110236219
0
LINE
8
BLACK
6
CONTINUOUS
10
6.2819068110236218
20
-4.0074568110236219
11
6.2822834645669294
21
-4.0073818897637796
0
LINE
8
BLACK
6
CONTINUOUS
10
6.2822834645669294
20
-4.0073818897637796
11
6.3397637795275585
21
-4.0073818897637796
0
LINE
8
BLACK
6
CONTINUOUS
10
6.3397637795275585
20
-4.0073818897637796
11
6.3401404330708662
21
-4.0074568110236219
0
LINE
8
BLACK
6
CONTINUOUS
10
6.2832677165354331
20
-4.0093503937007871
11
6.2832677165354331
21
-4.1373031496062991
0
LINE
8
BLACK
6
CONTINUOUS
10
6.2832677165354331
20
-4.1373031496062991
11
6.3387795275590548
21
-4.1373031496062991
0
LINE
8
BLACK
6
CONTINUOUS
10
6.3387795275590548
20
-4.1373031496062991
11
6.3387795275590548
21
-4.0093503937007871
0
LINE
8
BLACK
6
CONTINUOUS
10
6.3387795275590548
20
-4.0093503937007871
11
6.2832677165354331
21
-4.0093503937007871
0
LINE
8
BLACK
6
CONTINUOUS
10
6.2720301968503938
20
-4.0172993307086617
11
6.2725628740157475
21
-4.0178320078740155
0
LINE
8
BLACK
6
CONTINUOUS
10
6.2725628740157475
20
-4.0178320078740155
11
6.2726377952755907
21
-4.0182086614173231
0
LINE
8
BLACK
6
CONTINUOUS
10
6.2726377952755907
20
-4.0182086614173231
11
6.2726377952755907
21
-4.1284448818897639
0
LINE
8
BLACK
6
CONTINUOUS
10
6.2726377952755907
20
-4.1284448818897639
11
6.2725628740157475
21
-4.1288215354330706
0
LINE
8
BLACK
6
CONTINUOUS
10
6.2725628740157475
20
-4.1288215354330706
11
6.2720301968503938
21
-4.1293542125984253
0
LINE
8
BLACK
6
CONTINUOUS
10
6.2720301968503938
20
-4.1293542125984253
11
6.2716535433070861
21
-4.1294291338582676
0
LINE
8
BLACK
6
CONTINUOUS
10
6.2716535433070861
20
-4.1294291338582676
11
6.1456692913385824
21
-4.1294291338582676
0
LINE
8
BLACK
6
CONTINUOUS
10
6.1456692913385824
20
-4.1294291338582676
11
6.1452926377952757
21
-4.1293542125984253
0
LINE
8
BLACK
6
CONTINUOUS
10
6.1452926377952757
20
-4.1293542125984253
11
6.144759960629921
21
-4.1288215354330706
0
LINE
8
BLACK
6
CONTINUOUS
10
6.144759960629921
20
-4.1288215354330706
11
6.1446850393700787
21
-4.1284448818897639
0
LINE
8
BLACK
6
CONTINUOUS
10
6.1446850393700787
20
-4.1284448818897639
11
6.1446850393700787
21
-4.0182086614173231
0
LINE
8
BLACK
6
CONTINUOUS
10
6.1446850393700787
20
-4.0182086614173231
11
6.144759960629921
21
-4.0178320078740155
0
LINE
8
BLACK
6
CONTINUOUS
10
6.144759960629921
20
-4.0178320078740155
11
6.1452926377952757
21
-4.0172993307086617
0
LINE
8
BLACK
6
CONTINUOUS
10
6.1452926377952757
20
-4.0172993307086617
11
6.1456692913385824
21
-4.0172244094488185
0
LINE
8
BLACK
6
CONTINUOUS
10
6.1456692913385824
20
-4.0172244094488185
11
6.2716535433070861
21
-4.0172244094488185
0
LINE
8
BLACK
6
CONTINUOUS
10
6.2716535433070861
20
-4.0172244094488185
11
6.2720301968503938
21
-4.0172993307086617
0
LINE
8
BLACK
6
CONTINUOUS
10
6.1466535433070861
20
-4.0191929133858268
11
6.1466535433070861
21
-4.1274606299212602
0
LINE
8
BLACK
6
CONTINUOUS
10
6.1466535433070861
20
-4.1274606299212602
11
6.2706692913385824
21
-4.1274606299212602
0
LINE
8
BLACK
6
CONTINUOUS
10
6.2706692913385824
20
-4.1274606299212602
11
6.2706692913385824
21
-4.0191929133858268
0
LINE
8
BLACK
6
CONTINUOUS
10
6.2706692913385824
20
-4.0191929133858268
11
6.1466535433070861
21
-4.0191929133858268
0
LINE
8
BLACK
6
CONTINUOUS
10
5.8431916141732279
20
-4.0412166535433069
11
5.8437242913385825
21
-4.0417493307086616
0
LINE
8
BLACK
6
CONTINUOUS
10
5.8437242913385825
20
-4.0417493307086616
11
5.8437992125984248
21
-4.0421259842519683
0
LINE
8
BLACK
6
CONTINUOUS
10
5.8437992125984248
20
-4.0421259842519683
11
5.8437992125984248
21
-4.0996062992125983
0
LINE
8
BLACK
6
CONTINUOUS
10
5.8437992125984248
20
-4.0996062992125983
11
5.8437242913385825
21
-4.0999829527559051
0
LINE
8
BLACK
6
CONTINUOUS
10
5.8437242913385825
20
-4.0999829527559051
11
5.8431916141732279
21
-4.1005156299212597
0
LINE
8
BLACK
6
CONTINUOUS
10
5.8431916141732279
20
-4.1005156299212597
11
5.8428149606299211
21
-4.1005905511811021
0
LINE
8
BLACK
6
CONTINUOUS
10
5.8428149606299211
20
-4.1005905511811021
11
5.7128937007874017
21
-4.1005905511811021
0
LINE
8
BLACK
6
CONTINUOUS
10
5.7128937007874017
20
-4.1005905511811021
11
5.712517047244094
21
-4.1005156299212597
0
LINE
8
BLACK
6
CONTINUOUS
10
5.712517047244094
20
-4.1005156299212597
11
5.7119843700787403
21
-4.0999829527559051
0
LINE
8
BLACK
6
CONTINUOUS
10
5.7119843700787403
20
-4.0999829527559051
11
5.7119094488188979
21
-4.0996062992125983
0
LINE
8
BLACK
6
CONTINUOUS
10
5.7119094488188979
20
-4.0996062992125983
11
5.7119094488188979
21
-4.0421259842519683
0
LINE
8
BLACK
6
CONTINUOUS
10
5.7119094488188979
20
-4.0421259842519683
11
5.7119843700787403
21
-4.0417493307086616
0
LINE
8
BLACK
6
CONTINUOUS
10
5.7119843700787403
20
-4.0417493307086616
11
5.712517047244094
21
-4.0412166535433069
0
LINE
8
BLACK
6
CONTINUOUS
10
5.712517047244094
20
-4.0412166535433069
11
5.7128937007874017
21
-4.0411417322834646
0
LINE
8
BLACK
6
CONTINUOUS
10
5.7128937007874017
20
-4.0411417322834646
11
5.8428149606299211
21
-4.0411417322834646
0
LINE
8
BLACK
6
CONTINUOUS
10
5.8428149606299211
20
-4.0411417322834646
11
5.8431916141732279
21
-4.0412166535433069
0
LINE
8
BLACK
6
CONTINUOUS
10
5.7138779527559054
20
-4.0431102362204721
11
5.7138779527559054
21
-4.0986220472440946
0
LINE
8
BLACK
6
CONTINUOUS
10
5.7138779527559054
20
-4.0986220472440946
11
5.8418307086614174
21
-4.0986220472440946
0
LINE
8
BLACK
6
CONTINUOUS
10
5.8418307086614174
20
-4.0986220472440946
11
5.8418307086614174
21
-4.0431102362204721
0
LINE
8
BLACK
6
CONTINUOUS
10
5.8418307086614174
20
-4.0431102362204721
11
5.7138779527559054
21
-4.0431102362204721
0
LINE
8
BLACK
6
CONTINUOUS
10
6.0771483070866141
20
-4.0146418503937005
11
6.0776809842519688
21
-4.0151745275590551
0
LINE
8
BLACK
6
CONTINUOUS
10
6.0776809842519688
20
-4.0151745275590551
11
6.0777559055118111
21
-4.0155511811023619
0
LINE
8
BLACK
6
CONTINUOUS
10
6.0777559055118111
20
-4.0155511811023619
11
6.0777559055118111
21
-4.0730314960629919
0
LINE
8
BLACK
6
CONTINUOUS
10
6.0777559055118111
20
-4.0730314960629919
11
6.0776809842519688
21
-4.0734081496062995
0
LINE
8
BLACK
6
CONTINUOUS
10
6.0776809842519688
20
-4.0734081496062995
11
6.0771483070866141
21
-4.0739408267716533
0
LINE
8
BLACK
6
CONTINUOUS
10
6.0771483070866141
20
-4.0739408267716533
11
6.0767716535433065
21
-4.0740157480314956
0
LINE
8
BLACK
6
CONTINUOUS
10
6.0767716535433065
20
-4.0740157480314956
11
5.9468503937007871
21
-4.0740157480314956
0
LINE
8
BLACK
6
CONTINUOUS
10
5.9468503937007871
20
-4.0740157480314956
11
5.9464737401574803
21
-4.0739408267716533
0
LINE
8
BLACK
6
CONTINUOUS
10
5.9464737401574803
20
-4.0739408267716533
11
5.9459410629921257
21
-4.0734081496062995
0
LINE
8
BLACK
6
CONTINUOUS
10
5.9459410629921257
20
-4.0734081496062995
11
5.9458661417322833
21
-4.0730314960629919
0
LINE
8
BLACK
6
CONTINUOUS
10
5.9458661417322833
20
-4.0730314960629919
11
5.9458661417322833
21
-4.0155511811023619
0
LINE
8
BLACK
6
CONTINUOUS
10
5.9458661417322833
20
-4.0155511811023619
11
5.9459410629921257
21
-4.0151745275590551
0
LINE
8
BLACK
6
CONTINUOUS
10
5.9459410629921257
20
-4.0151745275590551
11
5.9464737401574803
21
-4.0146418503937005
0
LINE
8
BLACK
6
CONTINUOUS
10
5.9464737401574803
20
-4.0146418503937005
11
5.9468503937007871
21
-4.0145669291338582
0
LINE
8
BLACK
6
CONTINUOUS
10
5.9468503937007871
20
-4.0145669291338582
11
6.0767716535433065
21
-4.0145669291338582
0
LINE
8
BLACK
6
CONTINUOUS
10
6.0767716535433065
20
-4.0145669291338582
11
6.0771483070866141
21
-4.0146418503937005
0
LINE
8
BLACK
6
CONTINUOUS
10
5.9478346456692908
20
-4.0165354330708665
11
5.9478346456692908
21
-4.0720472440944881
0
LINE
8
BLACK
6
CONTINUOUS
10
5.9478346456692908
20
-4.0720472440944881
11
6.0757874015748028
21
-4.0720472440944881
0
LINE
8
BLACK
6
CONTINUOUS
10
6.0757874015748028
20
-4.0720472440944881
11
6.0757874015748028
21
-4.0165354330708665
0
LINE
8
BLACK
6
CONTINUOUS
10
6.0757874015748028
20
-4.0165354330708665
11
5.9478346456692908
21
-4.0165354330708665
0
LINE
8
BLACK
6
CONTINUOUS
10
5.6854160236220475
20
-3.9085394881889761
11
5.6859487007874012
21
-3.9090721653543308
0
LINE
8
BLACK
6
CONTINUOUS
10
5.6859487007874012
20
-3.9090721653543308
11
5.6860236220472435
21
-3.9094488188976375
0
LINE
8
BLACK
6
CONTINUOUS
10
5.6860236220472435
20
-3.9094488188976375
11
5.6860236220472435
21
-4.0354330708661417
0
LINE
8
BLACK
6
CONTINUOUS
10
5.6860236220472435
20
-4.0354330708661417
11
5.6859487007874012
21
-4.0358097244094484
0
LINE
8
BLACK
6
CONTINUOUS
10
5.6859487007874012
20
-4.0358097244094484
11
5.6854160236220475
21
-4.0363424015748031
0
LINE
8
BLACK
6
CONTINUOUS
10
5.6854160236220475
20
-4.0363424015748031
11
5.6850393700787398
21
-4.0364173228346454
0
LINE
8
BLACK
6
CONTINUOUS
10
5.6850393700787398
20
-4.0364173228346454
11
5.5748031496062991
21
-4.0364173228346454
0
LINE
8
BLACK
6
CONTINUOUS
10
5.5748031496062991
20
-4.0364173228346454
11
5.5744264960629923
21
-4.0363424015748031
0
LINE
8
BLACK
6
CONTINUOUS
10
5.5744264960629923
20
-4.0363424015748031
11
5.5738938188976377
21
-4.0358097244094484
0
LINE
8
BLACK
6
CONTINUOUS
10
5.5738938188976377
20
-4.0358097244094484
11
5.5738188976377954
21
-4.0354330708661417
0
LINE
8
BLACK
6
CONTINUOUS
10
5.5738188976377954
20
-4.0354330708661417
11
5.5738188976377954
21
-3.9094488188976375
0
LINE
8
BLACK
6
CONTINUOUS
10
5.5738188976377954
20
-3.9094488188976375
11
5.5738938188976377
21
-3.9090721653543308
0
LINE
8
BLACK
6
CONTINUOUS
10
5.5738938188976377
20
-3.9090721653543308
11
5.5744264960629923
21
-3.9085394881889761
0
LINE
8
BLACK
6
CONTINUOUS
10
5.5744264960629923
20
-3.9085394881889761
11
5.5748031496062991
21
-3.9084645669291338
0
LINE
8
BLACK
6
CONTINUOUS
10
5.5748031496062991
20
-3.9084645669291338
11
5.6850393700787398
21
-3.9084645669291338
0
LINE
8
BLACK
6
CONTINUOUS
10
5.6850393700787398
20
-3.9084645669291338
11
5.6854160236220475
21
-3.9085394881889761
0
LINE
8
BLACK
6
CONTINUOUS
10
5.5757874015748028
20
-3.9104330708661417
11
5.5757874015748028
21
-4.034448818897638
0
LINE
8
BLACK
6
CONTINUOUS
10
5.5757874015748028
20
-4.034448818897638
11
5.6840551181102361
21
-4.034448818897638
0
LINE
8
BLACK
6
CONTINUOUS
10
5.6840551181102361
20
-4.034448818897638
11
5.6840551181102361
21
-3.9104330708661417
0
LINE
8
BLACK
6
CONTINUOUS
10
5.6840551181102361
20
-3.9104330708661417
11
5.5757874015748028
21
-3.9104330708661417
0
LINE
8
BLACK
6
CONTINUOUS
10
5.7515577559055115
20
-3.9046024803149604
11
5.7520904330708662
21
-3.905135157480315
0
LINE
8
BLACK
6
CONTINUOUS
10
5.7520904330708662
20
-3.905135157480315
11
5.7521653543307085
21
-3.9055118110236218
0
LINE
8
BLACK
6
CONTINUOUS
10
5.7521653543307085
20
-3.9055118110236218
11
5.7521653543307085
21
-4.0354330708661417
0
LINE
8
BLACK
6
CONTINUOUS
10
5.7521653543307085
20
-4.0354330708661417
11
5.7520904330708662
21
-4.0358097244094484
0
LINE
8
BLACK
6
CONTINUOUS
10
5.7520904330708662
20
-4.0358097244094484
11
5.7515577559055115
21
-4.0363424015748031
0
LINE
8
BLACK
6
CONTINUOUS
10
5.7515577559055115
20
-4.0363424015748031
11
5.7511811023622048
21
-4.0364173228346454
0
LINE
8
BLACK
6
CONTINUOUS
10
5.7511811023622048
20
-4.0364173228346454
11
5.6937007874015748
21
-4.0364173228346454
0
LINE
8
BLACK
6
CONTINUOUS
10
5.6937007874015748
20
-4.0364173228346454
11
5.6933241338582672
21
-4.0363424015748031
0
LINE
8
BLACK
6
CONTINUOUS
10
5.6933241338582672
20
-4.0363424015748031
11
5.6927914566929134
21
-4.0358097244094484
0
LINE
8
BLACK
6
CONTINUOUS
10
5.6927914566929134
20
-4.0358097244094484
11
5.6927165354330711
21
-4.0354330708661417
0
LINE
8
BLACK
6
CONTINUOUS
10
5.6927165354330711
20
-4.0354330708661417
11
5.6927165354330711
21
-3.9055118110236218
0
LINE
8
BLACK
6
CONTINUOUS
10
5.6927165354330711
20
-3.9055118110236218
11
5.6927914566929134
21
-3.905135157480315
0
LINE
8
BLACK
6
CONTINUOUS
10
5.6927914566929134
20
-3.905135157480315
11
5.6933241338582672
21
-3.9046024803149604
0
LINE
8
BLACK
6
CONTINUOUS
10
5.6933241338582672
20
-3.9046024803149604
11
5.6937007874015748
21
-3.9045275590551181
0
LINE
8
BLACK
6
CONTINUOUS
10
5.6937007874015748
20
-3.9045275590551181
11
5.7511811023622048
21
-3.9045275590551181
0
LINE
8
BLACK
6
CONTINUOUS
10
5.7511811023622048
20
-3.9045275590551181
11
5.7515577559055115
21
-3.9046024803149604
0
LINE
8
BLACK
6
CONTINUOUS
10
5.6946850393700785
20
-3.9064960629921259
11
5.6946850393700785
21
-4.034448818897638
0
LINE
8
BLACK
6
CONTINUOUS
10
5.6946850393700785
20
-4.034448818897638
11
5.7501968503937011
21
-4.034448818897638
0
LINE
8
BLACK
6
CONTINUOUS
10
5.7501968503937011
20
-4.034448818897638
11
5.7501968503937011
21
-3.9064960629921259
0
LINE
8
BLACK
6
CONTINUOUS
10
5.7501968503937011
20
-3.9064960629921259
11
5.6946850393700785
21
-3.9064960629921259
0
LINE
8
BLACK
6
CONTINUOUS
10
5.5684868897637791
20
-3.9026339763779525
11
5.5690195669291338
21
-3.9031666535433072
0
LINE
8
BLACK
6
CONTINUOUS
10
5.5690195669291338
20
-3.9031666535433072
11
5.5690944881889761
21
-3.9035433070866139
0
LINE
8
BLACK
6
CONTINUOUS
10
5.5690944881889761
20
-3.9035433070866139
11
5.5690944881889761
21
-4.0334645669291334
0
LINE
8
BLACK
6
CONTINUOUS
10
5.5690944881889761
20
-4.0334645669291334
11
5.5690195669291338
21
-4.033841220472441
0
LINE
8
BLACK
6
CONTINUOUS
10
5.5690195669291338
20
-4.033841220472441
11
5.5684868897637791
21
-4.0343738976377947
0
LINE
8
BLACK
6
CONTINUOUS
10
5.5684868897637791
20
-4.0343738976377947
11
5.5681102362204724
21
-4.034448818897638
0
LINE
8
BLACK
6
CONTINUOUS
10
5.5681102362204724
20
-4.034448818897638
11
5.5106299212598424
21
-4.034448818897638
0
LINE
8
BLACK
6
CONTINUOUS
10
5.5106299212598424
20
-4.034448818897638
11
5.5102532677165357
21
-4.0343738976377947
0
LINE
8
BLACK
6
CONTINUOUS
10
5.5102532677165357
20
-4.0343738976377947
11
5.509720590551181
21
-4.033841220472441
0
LINE
8
BLACK
6
CONTINUOUS
10
5.509720590551181
20
-4.033841220472441
11
5.5096456692913387
21
-4.0334645669291334
0
LINE
8
BLACK
6
CONTINUOUS
10
5.5096456692913387
20
-4.0334645669291334
11
5.5096456692913387
21
-3.9035433070866139
0
LINE
8
BLACK
6
CONTINUOUS
10
5.5096456692913387
20
-3.9035433070866139
11
5.509720590551181
21
-3.9031666535433072
0
LINE
8
BLACK
6
CONTINUOUS
10
5.509720590551181
20
-3.9031666535433072
11
5.5102532677165357
21
-3.9026339763779525
0
LINE
8
BLACK
6
CONTINUOUS
10
5.5102532677165357
20
-3.9026339763779525
11
5.5106299212598424
21
-3.9025590551181102
0
LINE
8
BLACK
6
CONTINUOUS
10
5.5106299212598424
20
-3.9025590551181102
11
5.5681102362204724
21
-3.9025590551181102
0
LINE
8
BLACK
6
CONTINUOUS
10
5.5681102362204724
20
-3.9025590551181102
11
5.5684868897637791
21
-3.9026339763779525
0
LINE
8
BLACK
6
CONTINUOUS
10
5.5116141732283461
20
-3.9045275590551181
11
5.5116141732283461
21
-4.0324803149606296
0
LINE
8
BLACK
6
CONTINUOUS
10
5.5116141732283461
20
-4.0324803149606296
11
5.5671259842519687
21
-4.0324803149606296
0
LINE
8
BLACK
6
CONTINUOUS
10
5.5671259842519687
20
-4.0324803149606296
11
5.5671259842519687
21
-3.9045275590551181
0
LINE
8
BLACK
6
CONTINUOUS
10
5.5671259842519687
20
-3.9045275590551181
11
5.5116141732283461
21
-3.9045275590551181
0
LINE
8
BLACK
6
CONTINUOUS
10
5.4157309842519687
20
-3.9471221653543305
11
5.4162636614173225
21
-3.9476548425196851
0
LINE
8
BLACK
6
CONTINUOUS
10
5.4162636614173225
20
-3.9476548425196851
11
5.4163385826771648
21
-3.9480314960629919
0
LINE
8
BLACK
6
CONTINUOUS
10
5.4163385826771648
20
-3.9480314960629919
11
5.4163385826771648
21
-4.0055118110236219
0
LINE
8
BLACK
6
CONTINUOUS
10
5.4163385826771648
20
-4.0055118110236219
11
5.4162636614173225
21
-4.0058884645669295
0
LINE
8
BLACK
6
CONTINUOUS
10
5.4162636614173225
20
-4.0058884645669295
11
5.4157309842519687
21
-4.0064211417322833
0
LINE
8
BLACK
6
CONTINUOUS
10
5.4157309842519687
20
-4.0064211417322833
11
5.4153543307086611
21
-4.0064960629921256
0
LINE
8
BLACK
6
CONTINUOUS
10
5.4153543307086611
20
-4.0064960629921256
11
5.2854330708661417
21
-4.0064960629921256
0
LINE
8
BLACK
6
CONTINUOUS
10
5.2854330708661417
20
-4.0064960629921256
11
5.2850564173228349
21
-4.0064211417322833
0
LINE
8
BLACK
6
CONTINUOUS
10
5.2850564173228349
20
-4.0064211417322833
11
5.2845237401574803
21
-4.0058884645669295
0
LINE
8
BLACK
6
CONTINUOUS
10
5.2845237401574803
20
-4.0058884645669295
11
5.284448818897638
21
-4.0055118110236219
0
LINE
8
BLACK
6
CONTINUOUS
10
5.284448818897638
20
-4.0055118110236219
11
5.284448818897638
21
-3.9480314960629919
0
LINE
8
BLACK
6
CONTINUOUS
10
5.284448818897638
20
-3.9480314960629919
11
5.2845237401574803
21
-3.9476548425196851
0
LINE
8
BLACK
6
CONTINUOUS
10
5.2845237401574803
20
-3.9476548425196851
11
5.2850564173228349
21
-3.9471221653543305
0
LINE
8
BLACK
6
CONTINUOUS
10
5.2850564173228349
20
-3.9471221653543305
11
5.2854330708661417
21
-3.9470472440944881
0
LINE
8
BLACK
6
CONTINUOUS
10
5.2854330708661417
20
-3.9470472440944881
11
5.4153543307086611
21
-3.9470472440944881
0
LINE
8
BLACK
6
CONTINUOUS
10
5.4153543307086611
20
-3.9470472440944881
11
5.4157309842519687
21
-3.9471221653543305
0
LINE
8
BLACK
6
CONTINUOUS
10
5.2864173228346454
20
-3.949015748031496
11
5.2864173228346454
21
-4.0045275590551181
0
LINE
8
BLACK
6
CONTINUOUS
10
5.2864173228346454
20
-4.0045275590551181
11
5.4143700787401574
21
-4.0045275590551181
0
LINE
8
BLACK
6
CONTINUOUS
10
5.4143700787401574
20
-4.0045275590551181
11
5.4143700787401574
21
-3.949015748031496
0
LINE
8
BLACK
6
CONTINUOUS
10
5.4143700787401574
20
-3.949015748031496
11
5.2864173228346454
21
-3.949015748031496
0
LINE
8
BLACK
6
CONTINUOUS
10
6.0688805905511813
20
-3.8150355511811025
11
6.0694132677165351
21
-3.8155682283464567
0
LINE
8
BLACK
6
CONTINUOUS
10
6.0694132677165351
20
-3.8155682283464567
11
6.0694881889763774
21
-3.8159448818897639
0
LINE
8
BLACK
6
CONTINUOUS
10
6.0694881889763774
20
-3.8159448818897639
11
6.0694881889763774
21
-4.0049212598425195
0
LINE
8
BLACK
6
CONTINUOUS
10
6.0694881889763774
20
-4.0049212598425195
11
6.0694132677165351
21
-4.0052979133858271
0
LINE
8
BLACK
6
CONTINUOUS
10
6.0694132677165351
20
-4.0052979133858271
11
6.0688805905511813
21
-4.0058305905511808
0
LINE
8
BLACK
6
CONTINUOUS
10
6.0688805905511813
20
-4.0058305905511808
11
6.0685039370078737
21
-4.0059055118110232
0
LINE
8
BLACK
6
CONTINUOUS
10
6.0685039370078737
20
-4.0059055118110232
11
5.8874015748031496
21
-4.0059055118110232
0
LINE
8
BLACK
6
CONTINUOUS
10
5.8874015748031496
20
-4.0059055118110232
11
5.887024921259842
21
-4.0058305905511808
0
LINE
8
BLACK
6
CONTINUOUS
10
5.887024921259842
20
-4.0058305905511808
11
5.8864922440944882
21
-4.0052979133858271
0
LINE
8
BLACK
6
CONTINUOUS
10
5.8864922440944882
20
-4.0052979133858271
11
5.8864173228346459
21
-4.0049212598425195
0
LINE
8
BLACK
6
CONTINUOUS
10
5.8864173228346459
20
-4.0049212598425195
11
5.8864173228346459
21
-3.8159448818897639
0
LINE
8
BLACK
6
CONTINUOUS
10
5.8864173228346459
20
-3.8159448818897639
11
5.8864922440944882
21
-3.8155682283464567
0
LINE
8
BLACK
6
CONTINUOUS
10
5.8864922440944882
20
-3.8155682283464567
11
5.887024921259842
21
-3.8150355511811025
0
LINE
8
BLACK
6
CONTINUOUS
10
5.887024921259842
20
-3.8150355511811025
11
5.8874015748031496
21
-3.8149606299212597
0
LINE
8
BLACK
6
CONTINUOUS
10
5.8874015748031496
20
-3.8149606299212597
11
6.0685039370078737
21
-3.8149606299212597
0
LINE
8
BLACK
6
CONTINUOUS
10
6.0685039370078737
20
-3.8149606299212597
11
6.0688805905511813
21
-3.8150355511811025
0
LINE
8
BLACK
6
CONTINUOUS
10
5.8883858267716533
20
-3.8169291338582676
11
5.8883858267716533
21
-4.0039370078740157
0
LINE
8
BLACK
6
CONTINUOUS
10
5.8883858267716533
20
-4.0039370078740157
11
6.06751968503937
21
-4.0039370078740157
0
LINE
8
BLACK
6
CONTINUOUS
10
6.06751968503937
20
-4.0039370078740157
11
6.06751968503937
21
-3.8169291338582676
0
LINE
8
BLACK
6
CONTINUOUS
10
6.06751968503937
20
-3.8169291338582676
11
5.8883858267716533
21
-3.8169291338582676
0
LINE
8
BLACK
6
CONTINUOUS
10
5.4157309842519687
20
-3.8471221653543308
11
5.4162636614173225
21
-3.847654842519685
0
LINE
8
BLACK
6
CONTINUOUS
10
5.4162636614173225
20
-3.847654842519685
11
5.4163385826771648
21
-3.8480314960629922
0
LINE
8
BLACK
6
CONTINUOUS
10
5.4163385826771648
20
-3.8480314960629922
11
5.4163385826771648
21
-3.9055118110236218
0
LINE
8
BLACK
6
CONTINUOUS
10
5.4163385826771648
20
-3.9055118110236218
11
5.4162636614173225
21
-3.905888464566929
0
LINE
8
BLACK
6
CONTINUOUS
10
5.4162636614173225
20
-3.905888464566929
11
5.4157309842519687
21
-3.9064211417322832
0
LINE
8
BLACK
6
CONTINUOUS
10
5.4157309842519687
20
-3.9064211417322832
11
5.4153543307086611
21
-3.9064960629921259
0
LINE
8
BLACK
6
CONTINUOUS
10
5.4153543307086611
20
-3.9064960629921259
11
5.2854330708661417
21
-3.9064960629921259
0
LINE
8
BLACK
6
CONTINUOUS
10
5.2854330708661417
20
-3.9064960629921259
11
5.2850564173228349
21
-3.9064211417322832
0
LINE
8
BLACK
6
CONTINUOUS
10
5.2850564173228349
20
-3.9064211417322832
11
5.2845237401574803
21
-3.905888464566929
0
LINE
8
BLACK
6
CONTINUOUS
10
5.2845237401574803
20
-3.905888464566929
11
5.284448818897638
21
-3.9055118110236218
0
LINE
8
BLACK
6
CONTINUOUS
10
5.284448818897638
20
-3.9055118110236218
11
5.284448818897638
21
-3.8480314960629922
0
LINE
8
BLACK
6
CONTINUOUS
10
5.284448818897638
20
-3.8480314960629922
11
5.2845237401574803
21
-3.847654842519685
0
LINE
8
BLACK
6
CONTINUOUS
10
5.2845237401574803
20
-3.847654842519685
11
5.2850564173228349
21
-3.8471221653543308
0
LINE
8
BLACK
6
CONTINUOUS
10
5.2850564173228349
20
-3.8471221653543308
11
5.2854330708661417
21
-3.8470472440944881
0
LINE
8
BLACK
6
CONTINUOUS
10
5.2854330708661417
20
-3.8470472440944881
11
5.4153543307086611
21
-3.8470472440944881
0
LINE
8
BLACK
6
CONTINUOUS
10
5.4153543307086611
20
-3.8470472440944881
11
5.4157309842519687
21
-3.8471221653543308
0
LINE
8
BLACK
6
CONTINUOUS
10
5.2864173228346454
20
-3.8490157480314959
11
5.2864173228346454
21
-3.9045275590551181
0
LINE
8
BLACK
6
CONTINUOUS
10
5.2864173228346454
20
-3.9045275590551181
11
5.4143700787401574
21
-3.9045275590551181
0
LINE
8
BLACK
6
CONTINUOUS
10
5.4143700787401574
20
-3.9045275590551181
11
5.4143700787401574
21
-3.8490157480314959
0
LINE
8
BLACK
6
CONTINUOUS
10
5.4143700787401574
20
-3.8490157480314959
11
5.2864173228346454
21
-3.8490157480314959
0
LINE
8
BLACK
6
CONTINUOUS
10
5.6888796062992126
20
-3.7960289763779529
11
5.6961882677165354
21
-3.7990563385826772
0
LINE
8
BLACK
6
CONTINUOUS
10
5.6961882677165354
20
-3.7990563385826772
11
5.702765866141732
21
-3.8034513385826769
0
LINE
8
BLACK
6
CONTINUOUS
10
5.702765866141732
20
-3.8034513385826769
11
5.7083596850393699
21
-3.8090451574803148
0
LINE
8
BLACK
6
CONTINUOUS
10
5.7083596850393699
20
-3.8090451574803148
11
5.7127546850393696
21
-3.8156227559055118
0
LINE
8
BLACK
6
CONTINUOUS
10
5.7127546850393696
20
-3.8156227559055118
11
5.7157820472440948
21
-3.8229314173228346
0
LINE
8
BLACK
6
CONTINUOUS
10
5.7157820472440948
20
-3.8229314173228346
11
5.7173253543307085
21
-3.8306902362204722
0
LINE
8
BLACK
6
CONTINUOUS
10
5.7173253543307085
20
-3.8306902362204722
11
5.7173253543307085
21
-3.8386011023622046
0
LINE
8
BLACK
6
CONTINUOUS
10
5.7173253543307085
20
-3.8386011023622046
11
5.7157820472440948
21
-3.8463599212598423
0
LINE
8
BLACK
6
CONTINUOUS
10
5.7157820472440948
20
-3.8463599212598423
11
5.7127546850393696
21
-3.8536685826771651
0
LINE
8
BLACK
6
CONTINUOUS
10
5.7127546850393696
20
-3.8536685826771651
11
5.7083596850393699
21
-3.8602461811023621
0
LINE
8
BLACK
6
CONTINUOUS
10
5.7083596850393699
20
-3.8602461811023621
11
5.702765866141732
21
-3.8658399999999999
0
LINE
8
BLACK
6
CONTINUOUS
10
5.702765866141732
20
-3.8658399999999999
11
5.6961882677165354
21
-3.8702350000000001
0
LINE
8
BLACK
6
CONTINUOUS
10
5.6961882677165354
20
-3.8702350000000001
11
5.6888796062992126
21
-3.8732623622047244
0
LINE
8
BLACK
6
CONTINUOUS
10
5.6888796062992126
20
-3.8732623622047244
11
5.681120787401575
21
-3.8748056692913386
0
LINE
8
BLACK
6
CONTINUOUS
10
5.681120787401575
20
-3.8748056692913386
11
5.6732099212598426
21
-3.8748056692913386
0
LINE
8
BLACK
6
CONTINUOUS
10
5.6732099212598426
20
-3.8748056692913386
11
5.6654511023622049
21
-3.8732623622047244
0
LINE
8
BLACK
6
CONTINUOUS
10
5.6654511023622049
20
-3.8732623622047244
11
5.6581424409448822
21
-3.8702350000000001
0
LINE
8
BLACK
6
CONTINUOUS
10
5.6581424409448822
20
-3.8702350000000001
11
5.6515648425196847
21
-3.8658399999999999
0
LINE
8
BLACK
6
CONTINUOUS
10
5.6515648425196847
20
-3.8658399999999999
11
5.6459710236220468
21
-3.8602461811023621
0
LINE
8
BLACK
6
CONTINUOUS
10
5.6459710236220468
20
-3.8602461811023621
11
5.6415760236220471
21
-3.8536685826771651
0
LINE
8
BLACK
6
CONTINUOUS
10
5.6415760236220471
20
-3.8536685826771651
11
5.6385486614173228
21
-3.8463599212598423
0
LINE
8
BLACK
6
CONTINUOUS
10
5.6385486614173228
20
-3.8463599212598423
11
5.6370053543307082
21
-3.8386011023622046
0
LINE
8
BLACK
6
CONTINUOUS
10
5.6370053543307082
20
-3.8386011023622046
11
5.6370053543307082
21
-3.8308649999999997
0
LINE
8
BLACK
6
CONTINUOUS
10
5.6370053543307082
20
-3.8308649999999997
11
5.6370053543307082
21
-3.8306902362204722
0
LINE
8
BLACK
6
CONTINUOUS
10
5.6370053543307082
20
-3.8306902362204722
11
5.6385486614173228
21
-3.8229314173228346
0
LINE
8
BLACK
6
CONTINUOUS
10
5.6385486614173228
20
-3.8229314173228346
11
5.6415760236220471
21
-3.8156227559055118
0
LINE
8
BLACK
6
CONTINUOUS
10
5.6415760236220471
20
-3.8156227559055118
11
5.6459710236220468
21
-3.8090451574803148
0
LINE
8
BLACK
6
CONTINUOUS
10
5.6459710236220468
20
-3.8090451574803148
11
5.6515648425196847
21
-3.8034513385826769
0
LINE
8
BLACK
6
CONTINUOUS
10
5.6515648425196847
20
-3.8034513385826769
11
5.6581424409448822
21
-3.7990563385826772
0
LINE
8
BLACK
6
CONTINUOUS
10
5.6581424409448822
20
-3.7990563385826772
11
5.6654511023622049
21
-3.7960289763779529
0
LINE
8
BLACK
6
CONTINUOUS
10
5.6654511023622049
20
-3.7960289763779529
11
5.6732099212598426
21
-3.7944856692913387
0
LINE
8
BLACK
6
CONTINUOUS
10
5.6732099212598426
20
-3.7944856692913387
11
5.681120787401575
21
-3.7944856692913387
0
LINE
8
BLACK
6
CONTINUOUS
10
5.681120787401575
20
-3.7944856692913387
11
5.6888796062992126
21
-3.7960289763779529
0
LINE
8
BLACK
6
CONTINUOUS
10
5.6387795275590546
20
-3.8384263385826771
11
5.640254645669291
21
-3.8458424015748029
0
LINE
8
BLACK
6
CONTINUOUS
10
5.640254645669291
20
-3.8458424015748029
11
5.6431482677165352
21
-3.8528281889763778
0
LINE
8
BLACK
6
CONTINUOUS
10
5.6431482677165352
20
-3.8528281889763778
11
5.6473491338582678
21
-3.8591152362204721
0
LINE
8
BLACK
6
CONTINUOUS
10
5.6473491338582678
20
-3.8591152362204721
11
5.6526957874015746
21
-3.8644618897637795
0
LINE
8
BLACK
6
CONTINUOUS
10
5.6526957874015746
20
-3.8644618897637795
11
5.658982834645669
21
-3.8686627559055116
0
LINE
8
BLACK
6
CONTINUOUS
10
5.658982834645669
20
-3.8686627559055116
11
5.6659686220472443
21
-3.8715563779527558
0
LINE
8
BLACK
6
CONTINUOUS
10
5.6659686220472443
20
-3.8715563779527558
11
5.6733846850393697
21
-3.8730314960629921
0
LINE
8
BLACK
6
CONTINUOUS
10
5.6733846850393697
20
-3.8730314960629921
11
5.680946023622047
21
-3.8730314960629921
0
LINE
8
BLACK
6
CONTINUOUS
10
5.680946023622047
20
-3.8730314960629921
11
5.6883620866141733
21
-3.8715563779527558
0
LINE
8
BLACK
6
CONTINUOUS
10
5.6883620866141733
20
-3.8715563779527558
11
5.6953478740157477
21
-3.8686627559055116
0
LINE
8
BLACK
6
CONTINUOUS
10
5.6953478740157477
20
-3.8686627559055116
11
5.7016349212598421
21
-3.8644618897637795
0
LINE
8
BLACK
6
CONTINUOUS
10
5.7016349212598421
20
-3.8644618897637795
11
5.7069815748031498
21
-3.8591152362204721
0
LINE
8
BLACK
6
CONTINUOUS
10
5.7069815748031498
20
-3.8591152362204721
11
5.7111824409448815
21
-3.8528281889763778
0
LINE
8
BLACK
6
CONTINUOUS
10
5.7111824409448815
20
-3.8528281889763778
11
5.7140760629921257
21
-3.8458424015748029
0
LINE
8
BLACK
6
CONTINUOUS
10
5.7140760629921257
20
-3.8458424015748029
11
5.715551181102362
21
-3.8384263385826771
0
LINE
8
BLACK
6
CONTINUOUS
10
5.715551181102362
20
-3.8384263385826771
11
5.715551181102362
21
-3.8308649999999997
0
LINE
8
BLACK
6
CONTINUOUS
10
5.715551181102362
20
-3.8308649999999997
11
5.7140760629921257
21
-3.8234489370078739
0
LINE
8
BLACK
6
CONTINUOUS
10
5.7140760629921257
20
-3.8234489370078739
11
5.7111824409448815
21
-3.8164631496062991
0
LINE
8
BLACK
6
CONTINUOUS
10
5.7111824409448815
20
-3.8164631496062991
11
5.7069815748031498
21
-3.8101761023622047
0
LINE
8
BLACK
6
CONTINUOUS
10
5.7069815748031498
20
-3.8101761023622047
11
5.7016349212598421
21
-3.8048294488188974
0
LINE
8
BLACK
6
CONTINUOUS
10
5.7016349212598421
20
-3.8048294488188974
11
5.6953478740157477
21
-3.8006285826771653
0
LINE
8
BLACK
6
CONTINUOUS
10
5.6953478740157477
20
-3.8006285826771653
11
5.6883620866141733
21
-3.7977349606299211
0
LINE
8
BLACK
6
CONTINUOUS
10
5.6883620866141733
20
-3.7977349606299211
11
5.680946023622047
21
-3.7962598425196847
0
LINE
8
BLACK
6
CONTINUOUS
10
5.680946023622047
20
-3.7962598425196847
11
5.6733846850393697
21
-3.7962598425196847
0
LINE
8
BLACK
6
CONTINUOUS
10
5.6733846850393697
20
-3.7962598425196847
11
5.6659686220472443
21
-3.7977349606299211
0
LINE
8
BLACK
6
CONTINUOUS
10
5.6659686220472443
20
-3.7977349606299211
11
5.658982834645669
21
-3.8006285826771653
0
LINE
8
BLACK
6
CONTINUOUS
10
5.658982834645669
20
-3.8006285826771653
11
5.6526957874015746
21
-3.8048294488188974
0
LINE
8
BLACK
6
CONTINUOUS
10
5.6526957874015746
20
-3.8048294488188974
11
5.6473491338582678
21
-3.8101761023622047
0
LINE
8
BLACK
6
CONTINUOUS
10
5.6473491338582678
20
-3.8101761023622047
11
5.6431482677165352
21
-3.8164631496062991
0
LINE
8
BLACK
6
CONTINUOUS
10
5.6431482677165352
20
-3.8164631496062991
11
5.640254645669291
21
-3.8234489370078739
0
LINE
8
BLACK
6
CONTINUOUS
10
5.640254645669291
20
-3.8234489370078739
11
5.6387795275590546
21
-3.8308649999999997
0
LINE
8
BLACK
6
CONTINUOUS
10
5.6387795275590546
20
-3.8308649999999997
11
5.6387795275590546
21
-3.8384263385826771
0
LINE
8
BLACK
6
CONTINUOUS
10
5.582660118110236
20
-3.7892481496062991
11
5.5831927952755906
21
-3.7897808267716533
0
LINE
8
BLACK
6
CONTINUOUS
10
5.5831927952755906
20
-3.7897808267716533
11
5.583267716535433
21
-3.7901574803149605
0
LINE
8
BLACK
6
CONTINUOUS
10
5.583267716535433
20
-3.7901574803149605
11
5.583267716535433
21
-3.8476377952755905
0
LINE
8
BLACK
6
CONTINUOUS
10
5.583267716535433
20
-3.8476377952755905
11
5.5831927952755906
21
-3.8480144488188976
0
LINE
8
BLACK
6
CONTINUOUS
10
5.5831927952755906
20
-3.8480144488188976
11
5.582660118110236
21
-3.8485471259842519
0
LINE
8
BLACK
6
CONTINUOUS
10
5.582660118110236
20
-3.8485471259842519
11
5.5822834645669293
21
-3.8486220472440942
0
LINE
8
BLACK
6
CONTINUOUS
10
5.5822834645669293
20
-3.8486220472440942
11
5.4523622047244089
21
-3.8486220472440942
0
LINE
8
BLACK
6
CONTINUOUS
10
5.4523622047244089
20
-3.8486220472440942
11
5.4519855511811022
21
-3.8485471259842519
0
LINE
8
BLACK
6
CONTINUOUS
10
5.4519855511811022
20
-3.8485471259842519
11
5.4514528740157475
21
-3.8480144488188976
0
LINE
8
BLACK
6
CONTINUOUS
10
5.4514528740157475
20
-3.8480144488188976
11
5.4513779527559052
21
-3.8476377952755905
0
LINE
8
BLACK
6
CONTINUOUS
10
5.4513779527559052
20
-3.8476377952755905
11
5.4513779527559052
21
-3.7901574803149605
0
LINE
8
BLACK
6
CONTINUOUS
10
5.4513779527559052
20
-3.7901574803149605
11
5.4514528740157475
21
-3.7897808267716533
0
LINE
8
BLACK
6
CONTINUOUS
10
5.4514528740157475
20
-3.7897808267716533
11
5.4519855511811022
21
-3.7892481496062991
0
LINE
8
BLACK
6
CONTINUOUS
10
5.4519855511811022
20
-3.7892481496062991
11
5.4523622047244089
21
-3.7891732283464568
0
LINE
8
BLACK
6
CONTINUOUS
10
5.4523622047244089
20
-3.7891732283464568
11
5.5822834645669293
21
-3.7891732283464568
0
LINE
8
BLACK
6
CONTINUOUS
10
5.5822834645669293
20
-3.7891732283464568
11
5.582660118110236
21
-3.7892481496062991
0
LINE
8
BLACK
6
CONTINUOUS
10
5.4533464566929135
20
-3.7911417322834646
11
5.4533464566929135
21
-3.8466535433070863
0
LINE
8
BLACK
6
CONTINUOUS
10
5.4533464566929135
20
-3.8466535433070863
11
5.5812992125984247
21
-3.8466535433070863
0
LINE
8
BLACK
6
CONTINUOUS
10
5.5812992125984247
20
-3.8466535433070863
11
5.5812992125984247
21
-3.7911417322834646
0
LINE
8
BLACK
6
CONTINUOUS
10
5.5812992125984247
20
-3.7911417322834646
11
5.4533464566929135
21
-3.7911417322834646
0
LINE
8
BLACK
6
CONTINUOUS
10
6.0070695669291334
20
-3.6752717716535432
11
6.0076022440944881
21
-3.6758044488188975
0
LINE
8
BLACK
6
CONTINUOUS
10
6.0076022440944881
20
-3.6758044488188975
11
6.0076771653543304
21
-3.6761811023622046
0
LINE
8
BLACK
6
CONTINUOUS
10
6.0076771653543304
20
-3.6761811023622046
11
6.0076771653543304
21
-3.8061023622047245
0
LINE
8
BLACK
6
CONTINUOUS
10
6.0076771653543304
20
-3.8061023622047245
11
6.0076022440944881
21
-3.8064790157480313
0
LINE
8
BLACK
6
CONTINUOUS
10
6.0076022440944881
20
-3.8064790157480313
11
6.0070695669291334
21
-3.8070116929133859
0
LINE
8
BLACK
6
CONTINUOUS
10
6.0070695669291334
20
-3.8070116929133859
11
6.0066929133858267
21
-3.8070866141732282
0
LINE
8
BLACK
6
CONTINUOUS
10
6.0066929133858267
20
-3.8070866141732282
11
5.9492125984251967
21
-3.8070866141732282
0
LINE
8
BLACK
6
CONTINUOUS
10
5.9492125984251967
20
-3.8070866141732282
11
5.9488359448818899
21
-3.8070116929133859
0
LINE
8
BLACK
6
CONTINUOUS
10
5.9488359448818899
20
-3.8070116929133859
11
5.9483032677165353
21
-3.8064790157480313
0
LINE
8
BLACK
6
CONTINUOUS
10
5.9483032677165353
20
-3.8064790157480313
11
5.948228346456693
21
-3.8061023622047245
0
LINE
8
BLACK
6
CONTINUOUS
10
5.948228346456693
20
-3.8061023622047245
11
5.948228346456693
21
-3.6761811023622046
0
LINE
8
BLACK
6
CONTINUOUS
10
5.948228346456693
20
-3.6761811023622046
11
5.9483032677165353
21
-3.6758044488188975
0
LINE
8
BLACK
6
CONTINUOUS
10
5.9483032677165353
20
-3.6758044488188975
11
5.9488359448818899
21
-3.6752717716535432
0
LINE
8
BLACK
6
CONTINUOUS
10
5.9488359448818899
20
-3.6752717716535432
11
5.9492125984251967
21
-3.6751968503937009
0
LINE
8
BLACK
6
CONTINUOUS
10
5.9492125984251967
20
-3.6751968503937009
11
6.0066929133858267
21
-3.6751968503937009
0
LINE
8
BLACK
6
CONTINUOUS
10
6.0066929133858267
20
-3.6751968503937009
11
6.0070695669291334
21
-3.6752717716535432
0
LINE
8
BLACK
6
CONTINUOUS
10
5.9501968503937004
20
-3.6771653543307088
11
5.9501968503937004
21
-3.8051181102362204
0
LINE
8
BLACK
6
CONTINUOUS
10
5.9501968503937004
20
-3.8051181102362204
11
6.005708661417323
21
-3.8051181102362204
0
LINE
8
BLACK
6
CONTINUOUS
10
6.005708661417323
20
-3.8051181102362204
11
6.005708661417323
21
-3.6771653543307088
0
LINE
8
BLACK
6
CONTINUOUS
10
6.005708661417323
20
-3.6771653543307088
11
5.9501968503937004
21
-3.6771653543307088
0
LINE
8
BLACK
6
CONTINUOUS
10
5.582660118110236
20
-3.7262560236220472
11
5.5831927952755906
21
-3.7267887007874014
0
LINE
8
BLACK
6
CONTINUOUS
10
5.5831927952755906
20
-3.7267887007874014
11
5.583267716535433
21
-3.7271653543307086
0
LINE
8
BLACK
6
CONTINUOUS
10
5.583267716535433
20
-3.7271653543307086
11
5.583267716535433
21
-3.7846456692913386
0
LINE
8
BLACK
6
CONTINUOUS
10
5.583267716535433
20
-3.7846456692913386
11
5.5831927952755906
21
-3.7850223228346458
0
LINE
8
BLACK
6
CONTINUOUS
10
5.5831927952755906
20
-3.7850223228346458
11
5.582660118110236
21
-3.785555
0
LINE
8
BLACK
6
CONTINUOUS
10
5.582660118110236
20
-3.785555
11
5.5822834645669293
21
-3.7856299212598423
0
LINE
8
BLACK
6
CONTINUOUS
10
5.5822834645669293
20
-3.7856299212598423
11
5.4523622047244089
21
-3.7856299212598423
0
LINE
8
BLACK
6
CONTINUOUS
10
5.4523622047244089
20
-3.7856299212598423
11
5.4519855511811022
21
-3.785555
0
LINE
8
BLACK
6
CONTINUOUS
10
5.4519855511811022
20
-3.785555
11
5.4514528740157475
21
-3.7850223228346458
0
LINE
8
BLACK
6
CONTINUOUS
10
5.4514528740157475
20
-3.7850223228346458
11
5.4513779527559052
21
-3.7846456692913386
0
LINE
8
BLACK
6
CONTINUOUS
10
5.4513779527559052
20
-3.7846456692913386
11
5.4513779527559052
21
-3.7271653543307086
0
LINE
8
BLACK
6
CONTINUOUS
10
5.4513779527559052
20
-3.7271653543307086
11
5.4514528740157475
21
-3.7267887007874014
0
LINE
8
BLACK
6
CONTINUOUS
10
5.4514528740157475
20
-3.7267887007874014
11
5.4519855511811022
21
-3.7262560236220472
0
LINE
8
BLACK
6
CONTINUOUS
10
5.4519855511811022
20
-3.7262560236220472
11
5.4523622047244089
21
-3.7261811023622045
0
LINE
8
BLACK
6
CONTINUOUS
10
5.4523622047244089
20
-3.7261811023622045
11
5.5822834645669293
21
-3.7261811023622045
0
LINE
8
BLACK
6
CONTINUOUS
10
5.5822834645669293
20
-3.7261811023622045
11
5.582660118110236
21
-3.7262560236220472
0
LINE
8
BLACK
6
CONTINUOUS
10
5.4533464566929135
20
-3.7281496062992123
11
5.4533464566929135
21
-3.7836614173228345
0
LINE
8
BLACK
6
CONTINUOUS
10
5.4533464566929135
20
-3.7836614173228345
11
5.5812992125984247
21
-3.7836614173228345
0
LINE
8
BLACK
6
CONTINUOUS
10
5.5812992125984247
20
-3.7836614173228345
11
5.5812992125984247
21
-3.7281496062992123
0
LINE
8
BLACK
6
CONTINUOUS
10
5.5812992125984247
20
-3.7281496062992123
11
5.4533464566929135
21
-3.7281496062992123
0
LINE
8
BLACK
6
CONTINUOUS
10
5.7169120866141734
20
-3.6683820078740155
11
5.7174447637795272
21
-3.6689146850393701
0
LINE
8
BLACK
6
CONTINUOUS
10
5.7174447637795272
20
-3.6689146850393701
11
5.7175196850393704
21
-3.6692913385826769
0
LINE
8
BLACK
6
CONTINUOUS
10
5.7175196850393704
20
-3.6692913385826769
11
5.7175196850393704
21
-3.7795275590551181
0
LINE
8
BLACK
6
CONTINUOUS
10
5.7175196850393704
20
-3.7795275590551181
11
5.7174447637795272
21
-3.7799042125984252
0
LINE
8
BLACK
6
CONTINUOUS
10
5.7174447637795272
20
-3.7799042125984252
11
5.7169120866141734
21
-3.7804368897637795
0
LINE
8
BLACK
6
CONTINUOUS
10
5.7169120866141734
20
-3.7804368897637795
11
5.7165354330708658
21
-3.7805118110236218
0
LINE
8
BLACK
6
CONTINUOUS
10
5.7165354330708658
20
-3.7805118110236218
11
5.590551181102362
21
-3.7805118110236218
0
LINE
8
BLACK
6
CONTINUOUS
10
5.590551181102362
20
-3.7805118110236218
11
5.5901745275590553
21
-3.7804368897637795
0
LINE
8
BLACK
6
CONTINUOUS
10
5.5901745275590553
20
-3.7804368897637795
11
5.5896418503937007
21
-3.7799042125984252
0
LINE
8
BLACK
6
CONTINUOUS
10
5.5896418503937007
20
-3.7799042125984252
11
5.5895669291338583
21
-3.7795275590551181
0
LINE
8
BLACK
6
CONTINUOUS
10
5.5895669291338583
20
-3.7795275590551181
11
5.5895669291338583
21
-3.6692913385826769
0
LINE
8
BLACK
6
CONTINUOUS
10
5.5895669291338583
20
-3.6692913385826769
11
5.5896418503937007
21
-3.6689146850393701
0
LINE
8
BLACK
6
CONTINUOUS
10
5.5896418503937007
20
-3.6689146850393701
11
5.5901745275590553
21
-3.6683820078740155
0
LINE
8
BLACK
6
CONTINUOUS
10
5.5901745275590553
20
-3.6683820078740155
11
5.590551181102362
21
-3.6683070866141732
0
LINE
8
BLACK
6
CONTINUOUS
10
5.590551181102362
20
-3.6683070866141732
11
5.7165354330708658
21
-3.6683070866141732
0
LINE
8
BLACK
6
CONTINUOUS
10
5.7165354330708658
20
-3.6683070866141732
11
5.7169120866141734
21
-3.6683820078740155
0
LINE
8
BLACK
6
CONTINUOUS
10
5.5915354330708658
20
-3.670275590551181
11
5.5915354330708658
21
-3.7785433070866139
0
LINE
8
BLACK
6
CONTINUOUS
10
5.5915354330708658
20
-3.7785433070866139
11
5.715551181102362
21
-3.7785433070866139
0
LINE
8
BLACK
6
CONTINUOUS
10
5.715551181102362
20
-3.7785433070866139
11
5.715551181102362
21
-3.670275590551181
0
LINE
8
BLACK
6
CONTINUOUS
10
5.715551181102362
20
-3.670275590551181
11
5.5915354330708658
21
-3.670275590551181
0
LINE
8
BLACK
6
CONTINUOUS
10
6.0688805905511813
20
-3.6349174409448817
11
6.0694132677165351
21
-3.6354501181102363
0
LINE
8
BLACK
6
CONTINUOUS
10
6.0694132677165351
20
-3.6354501181102363
11
6.0694881889763774
21
-3.6358267716535431
0
LINE
8
BLACK
6
CONTINUOUS
10
6.0694881889763774
20
-3.6358267716535431
11
6.0694881889763774
21
-3.734251968503937
0
LINE
8
BLACK
6
CONTINUOUS
10
6.0694881889763774
20
-3.734251968503937
11
6.0694132677165351
21
-3.7346286220472442
0
LINE
8
BLACK
6
CONTINUOUS
10
6.0694132677165351
20
-3.7346286220472442
11
6.0688805905511813
21
-3.7351612992125984
0
LINE
8
BLACK
6
CONTINUOUS
10
6.0688805905511813
20
-3.7351612992125984
11
6.0685039370078737
21
-3.7352362204724407
0
LINE
8
BLACK
6
CONTINUOUS
10
6.0685039370078737
20
-3.7352362204724407
11
6.0133858267716533
21
-3.7352362204724407
0
LINE
8
BLACK
6
CONTINUOUS
10
6.0133858267716533
20
-3.7352362204724407
11
6.0130091732283466
21
-3.7351612992125984
0
LINE
8
BLACK
6
CONTINUOUS
10
6.0130091732283466
20
-3.7351612992125984
11
6.0124764960629919
21
-3.7346286220472442
0
LINE
8
BLACK
6
CONTINUOUS
10
6.0124764960629919
20
-3.7346286220472442
11
6.0124015748031496
21
-3.734251968503937
0
LINE
8
BLACK
6
CONTINUOUS
10
6.0124015748031496
20
-3.734251968503937
11
6.0124015748031496
21
-3.6358267716535431
0
LINE
8
BLACK
6
CONTINUOUS
10
6.0124015748031496
20
-3.6358267716535431
11
6.0124764960629919
21
-3.6354501181102363
0
LINE
8
BLACK
6
CONTINUOUS
10
6.0124764960629919
20
-3.6354501181102363
11
6.0130091732283466
21
-3.6349174409448817
0
LINE
8
BLACK
6
CONTINUOUS
10
6.0130091732283466
20
-3.6349174409448817
11
6.0133858267716533
21
-3.6348425196850394
0
LINE
8
BLACK
6
CONTINUOUS
10
6.0133858267716533
20
-3.6348425196850394
11
6.0685039370078737
21
-3.6348425196850394
0
LINE
8
BLACK
6
CONTINUOUS
10
6.0685039370078737
20
-3.6348425196850394
11
6.0688805905511813
21
-3.6349174409448817
0
LINE
8
BLACK
6
CONTINUOUS
10
6.0143700787401571
20
-3.6368110236220472
11
6.0143700787401571
21
-3.7332677165354329
0
LINE
8
BLACK
6
CONTINUOUS
10
6.0143700787401571
20
-3.7332677165354329
11
6.06751968503937
21
-3.7332677165354329
0
LINE
8
BLACK
6
CONTINUOUS
10
6.06751968503937
20
-3.7332677165354329
11
6.06751968503937
21
-3.6368110236220472
0
LINE
8
BLACK
6
CONTINUOUS
10
6.06751968503937
20
-3.6368110236220472
11
6.0143700787401571
21
-3.6368110236220472
0
LINE
8
BLACK
6
CONTINUOUS
10
5.582660118110236
20
-3.6632638976377954
11
5.5831927952755906
21
-3.6637965748031496
0
LINE
8
BLACK
6
CONTINUOUS
10
5.5831927952755906
20
-3.6637965748031496
11
5.583267716535433
21
-3.6641732283464568
0
LINE
8
BLACK
6
CONTINUOUS
10
5.583267716535433
20
-3.6641732283464568
11
5.583267716535433
21
-3.7216535433070863
0
LINE
8
BLACK
6
CONTINUOUS
10
5.583267716535433
20
-3.7216535433070863
11
5.5831927952755906
21
-3.7220301968503935
0
LINE
8
BLACK
6
CONTINUOUS
10
5.5831927952755906
20
-3.7220301968503935
11
5.582660118110236
21
-3.7225628740157481
0
LINE
8
BLACK
6
CONTINUOUS
10
5.582660118110236
20
-3.7225628740157481
11
5.5822834645669293
21
-3.7226377952755905
0
LINE
8
BLACK
6
CONTINUOUS
10
5.5822834645669293
20
-3.7226377952755905
11
5.4523622047244089
21
-3.7226377952755905
0
LINE
8
BLACK
6
CONTINUOUS
10
5.4523622047244089
20
-3.7226377952755905
11
5.4519855511811022
21
-3.7225628740157481
0
LINE
8
BLACK
6
CONTINUOUS
10
5.4519855511811022
20
-3.7225628740157481
11
5.4514528740157475
21
-3.7220301968503935
0
LINE
8
BLACK
6
CONTINUOUS
10
5.4514528740157475
20
-3.7220301968503935
11
5.4513779527559052
21
-3.7216535433070863
0
LINE
8
BLACK
6
CONTINUOUS
10
5.4513779527559052
20
-3.7216535433070863
11
5.4513779527559052
21
-3.6641732283464568
0
LINE
8
BLACK
6
CONTINUOUS
10
5.4513779527559052
20
-3.6641732283464568
11
5.4514528740157475
21
-3.6637965748031496
0
LINE
8
BLACK
6
CONTINUOUS
10
5.4514528740157475
20
-3.6637965748031496
11
5.4519855511811022
21
-3.6632638976377954
0
LINE
8
BLACK
6
CONTINUOUS
10
5.4519855511811022
20
-3.6632638976377954
11
5.4523622047244089
21
-3.6631889763779526
0
LINE
8
BLACK
6
CONTINUOUS
10
5.4523622047244089
20
-3.6631889763779526
11
5.5822834645669293
21
-3.6631889763779526
0
LINE
8
BLACK
6
CONTINUOUS
10
5.5822834645669293
20
-3.6631889763779526
11
5.582660118110236
21
-3.6632638976377954
0
LINE
8
BLACK
6
CONTINUOUS
10
5.4533464566929135
20
-3.6651574803149605
11
5.4533464566929135
21
-3.7206692913385826
0
LINE
8
BLACK
6
CONTINUOUS
10
5.4533464566929135
20
-3.7206692913385826
11
5.5812992125984247
21
-3.7206692913385826
0
LINE
8
BLACK
6
CONTINUOUS
10
5.5812992125984247
20
-3.7206692913385826
11
5.5812992125984247
21
-3.6651574803149605
0
LINE
8
BLACK
6
CONTINUOUS
10
5.5812992125984247
20
-3.6651574803149605
11
5.4533464566929135
21
-3.6651574803149605
0
LINE
8
BLACK
6
CONTINUOUS
10
5.4157309842519687
20
-3.6471221653543306
11
5.4162636614173225
21
-3.6476548425196849
0
LINE
8
BLACK
6
CONTINUOUS
10
5.4162636614173225
20
-3.6476548425196849
11
5.4163385826771648
21
-3.648031496062992
0
LINE
8
BLACK
6
CONTINUOUS
10
5.4163385826771648
20
-3.648031496062992
11
5.4163385826771648
21
-3.705511811023622
0
LINE
8
BLACK
6
CONTINUOUS
10
5.4163385826771648
20
-3.705511811023622
11
5.4162636614173225
21
-3.7058884645669292
0
LINE
8
BLACK
6
CONTINUOUS
10
5.4162636614173225
20
-3.7058884645669292
11
5.4157309842519687
21
-3.7064211417322834
0
LINE
8
BLACK
6
CONTINUOUS
10
5.4157309842519687
20
-3.7064211417322834
11
5.4153543307086611
21
-3.7064960629921258
0
LINE
8
BLACK
6
CONTINUOUS
10
5.4153543307086611
20
-3.7064960629921258
11
5.2854330708661417
21
-3.7064960629921258
0
LINE
8
BLACK
6
CONTINUOUS
10
5.2854330708661417
20
-3.7064960629921258
11
5.2850564173228349
21
-3.7064211417322834
0
LINE
8
BLACK
6
CONTINUOUS
10
5.2850564173228349
20
-3.7064211417322834
11
5.2845237401574803
21
-3.7058884645669292
0
LINE
8
BLACK
6
CONTINUOUS
10
5.2845237401574803
20
-3.7058884645669292
11
5.284448818897638
21
-3.705511811023622
0
LINE
8
BLACK
6
CONTINUOUS
10
5.284448818897638
20
-3.705511811023622
11
5.284448818897638
21
-3.648031496062992
0
LINE
8
BLACK
6
CONTINUOUS
10
5.284448818897638
20
-3.648031496062992
11
5.2845237401574803
21
-3.6476548425196849
0
LINE
8
BLACK
6
CONTINUOUS
10
5.2845237401574803
20
-3.6476548425196849
11
5.2850564173228349
21
-3.6471221653543306
0
LINE
8
BLACK
6
CONTINUOUS
10
5.2850564173228349
20
-3.6471221653543306
11
5.2854330708661417
21
-3.6470472440944883
0
LINE
8
BLACK
6
CONTINUOUS
10
5.2854330708661417
20
-3.6470472440944883
11
5.4153543307086611
21
-3.6470472440944883
0
LINE
8
BLACK
6
CONTINUOUS
10
5.4153543307086611
20
-3.6470472440944883
11
5.4157309842519687
21
-3.6471221653543306
0
LINE
8
BLACK
6
CONTINUOUS
10
5.2864173228346454
20
-3.6490157480314962
11
5.2864173228346454
21
-3.7045275590551179
0
LINE
8
BLACK
6
CONTINUOUS
10
5.2864173228346454
20
-3.7045275590551179
11
5.4143700787401574
21
-3.7045275590551179
0
LINE
8
BLACK
6
CONTINUOUS
10
5.4143700787401574
20
-3.7045275590551179
11
5.4143700787401574
21
-3.6490157480314962
0
LINE
8
BLACK
6
CONTINUOUS
10
5.4143700787401574
20
-3.6490157480314962
11
5.2864173228346454
21
-3.6490157480314962
0
LINE
8
BLACK
6
CONTINUOUS
10
5.7228175984251966
20
-3.6042087795275588
11
5.7233502755905512
21
-3.6047414566929135
0
LINE
8
BLACK
6
CONTINUOUS
10
5.7233502755905512
20
-3.6047414566929135
11
5.7234251968503935
21
-3.6051181102362202
0
LINE
8
BLACK
6
CONTINUOUS
10
5.7234251968503935
20
-3.6051181102362202
11
5.7234251968503935
21
-3.6625984251968502
0
LINE
8
BLACK
6
CONTINUOUS
10
5.7234251968503935
20
-3.6625984251968502
11
5.7233502755905512
21
-3.6629750787401574
0
LINE
8
BLACK
6
CONTINUOUS
10
5.7233502755905512
20
-3.6629750787401574
11
5.7228175984251966
21
-3.6635077559055116
0
LINE
8
BLACK
6
CONTINUOUS
10
5.7228175984251966
20
-3.6635077559055116
11
5.7224409448818898
21
-3.6635826771653544
0
LINE
8
BLACK
6
CONTINUOUS
10
5.7224409448818898
20
-3.6635826771653544
11
5.5925196850393704
21
-3.6635826771653544
0
LINE
8
BLACK
6
CONTINUOUS
10
5.5925196850393704
20
-3.6635826771653544
11
5.5921430314960627
21
-3.6635077559055116
0
LINE
8
BLACK
6
CONTINUOUS
10
5.5921430314960627
20
-3.6635077559055116
11
5.591610354330709
21
-3.6629750787401574
0
LINE
8
BLACK
6
CONTINUOUS
10
5.591610354330709
20
-3.6629750787401574
11
5.5915354330708658
21
-3.6625984251968502
0
LINE
8
BLACK
6
CONTINUOUS
10
5.5915354330708658
20
-3.6625984251968502
11
5.5915354330708658
21
-3.6051181102362202
0
LINE
8
BLACK
6
CONTINUOUS
10
5.5915354330708658
20
-3.6051181102362202
11
5.591610354330709
21
-3.6047414566929135
0
LINE
8
BLACK
6
CONTINUOUS
10
5.591610354330709
20
-3.6047414566929135
11
5.5921430314960627
21
-3.6042087795275588
0
LINE
8
BLACK
6
CONTINUOUS
10
5.5921430314960627
20
-3.6042087795275588
11
5.5925196850393704
21
-3.6041338582677165
0
LINE
8
BLACK
6
CONTINUOUS
10
5.5925196850393704
20
-3.6041338582677165
11
5.7224409448818898
21
-3.6041338582677165
0
LINE
8
BLACK
6
CONTINUOUS
10
5.7224409448818898
20
-3.6041338582677165
11
5.7228175984251966
21
-3.6042087795275588
0
LINE
8
BLACK
6
CONTINUOUS
10
5.5935039370078741
20
-3.6061023622047244
11
5.5935039370078741
21
-3.6616141732283465
0
LINE
8
BLACK
6
CONTINUOUS
10
5.5935039370078741
20
-3.6616141732283465
11
5.7214566929133861
21
-3.6616141732283465
0
LINE
8
BLACK
6
CONTINUOUS
10
5.7214566929133861
20
-3.6616141732283465
11
5.7214566929133861
21
-3.6061023622047244
0
LINE
8
BLACK
6
CONTINUOUS
10
5.7214566929133861
20
-3.6061023622047244
11
5.5935039370078741
21
-3.6061023622047244
0
LINE
8
BLACK
6
CONTINUOUS
10
5.582660118110236
20
-3.6002717716535431
11
5.5831927952755906
21
-3.6008044488188977
0
LINE
8
BLACK
6
CONTINUOUS
10
5.5831927952755906
20
-3.6008044488188977
11
5.583267716535433
21
-3.6011811023622045
0
LINE
8
BLACK
6
CONTINUOUS
10
5.583267716535433
20
-3.6011811023622045
11
5.583267716535433
21
-3.6586614173228345
0
LINE
8
BLACK
6
CONTINUOUS
10
5.583267716535433
20
-3.6586614173228345
11
5.5831927952755906
21
-3.6590380708661416
0
LINE
8
BLACK
6
CONTINUOUS
10
5.5831927952755906
20
-3.6590380708661416
11
5.582660118110236
21
-3.6595707480314958
0
LINE
8
BLACK
6
CONTINUOUS
10
5.582660118110236
20
-3.6595707480314958
11
5.5822834645669293
21
-3.6596456692913386
0
LINE
8
BLACK
6
CONTINUOUS
10
5.5822834645669293
20
-3.6596456692913386
11
5.4523622047244089
21
-3.6596456692913386
0
LINE
8
BLACK
6
CONTINUOUS
10
5.4523622047244089
20
-3.6596456692913386
11
5.4519855511811022
21
-3.6595707480314958
0
LINE
8
BLACK
6
CONTINUOUS
10
5.4519855511811022
20
-3.6595707480314958
11
5.4514528740157475
21
-3.6590380708661416
0
LINE
8
BLACK
6
CONTINUOUS
10
5.4514528740157475
20
-3.6590380708661416
11
5.4513779527559052
21
-3.6586614173228345
0
LINE
8
BLACK
6
CONTINUOUS
10
5.4513779527559052
20
-3.6586614173228345
11
5.4513779527559052
21
-3.6011811023622045
0
LINE
8
BLACK
6
CONTINUOUS
10
5.4513779527559052
20
-3.6011811023622045
11
5.4514528740157475
21
-3.6008044488188977
0
LINE
8
BLACK
6
CONTINUOUS
10
5.4514528740157475
20
-3.6008044488188977
11
5.4519855511811022
21
-3.6002717716535431
0
LINE
8
BLACK
6
CONTINUOUS
10
5.4519855511811022
20
-3.6002717716535431
11
5.4523622047244089
21
-3.6001968503937007
0
LINE
8
BLACK
6
CONTINUOUS
10
5.4523622047244089
20
-3.6001968503937007
11
5.5822834645669293
21
-3.6001968503937007
0
LINE
8
BLACK
6
CONTINUOUS
10
5.5822834645669293
20
-3.6001968503937007
11
5.582660118110236
21
-3.6002717716535431
0
LINE
8
BLACK
6
CONTINUOUS
10
5.4533464566929135
20
-3.6021653543307086
11
5.4533464566929135
21
-3.6576771653543307
0
LINE
8
BLACK
6
CONTINUOUS
10
5.4533464566929135
20
-3.6576771653543307
11
5.5812992125984247
21
-3.6576771653543307
0
LINE
8
BLACK
6
CONTINUOUS
10
5.5812992125984247
20
-3.6576771653543307
11
5.5812992125984247
21
-3.6021653543307086
0
LINE
8
BLACK
6
CONTINUOUS
10
5.5812992125984247
20
-3.6021653543307086
11
5.4533464566929135
21
-3.6021653543307086
0
LINE
8
BLACK
6
CONTINUOUS
10
5.4157309842519687
20
-3.5471221653543306
11
5.4162636614173225
21
-3.5476548425196848
0
LINE
8
BLACK
6
CONTINUOUS
10
5.4162636614173225
20
-3.5476548425196848
11
5.4163385826771648
21
-3.548031496062992
0
LINE
8
BLACK
6
CONTINUOUS
10
5.4163385826771648
20
-3.548031496062992
11
5.4163385826771648
21
-3.6055118110236219
0
LINE
8
BLACK
6
CONTINUOUS
10
5.4163385826771648
20
-3.6055118110236219
11
5.4162636614173225
21
-3.6058884645669291
0
LINE
8
BLACK
6
CONTINUOUS
10
5.4162636614173225
20
-3.6058884645669291
11
5.4157309842519687
21
-3.6064211417322833
0
LINE
8
BLACK
6
CONTINUOUS
10
5.4157309842519687
20
-3.6064211417322833
11
5.4153543307086611
21
-3.6064960629921261
0
LINE
8
BLACK
6
CONTINUOUS
10
5.4153543307086611
20
-3.6064960629921261
11
5.2854330708661417
21
-3.6064960629921261
0
LINE
8
BLACK
6
CONTINUOUS
10
5.2854330708661417
20
-3.6064960629921261
11
5.2850564173228349
21
-3.6064211417322833
0
LINE
8
BLACK
6
CONTINUOUS
10
5.2850564173228349
20
-3.6064211417322833
11
5.2845237401574803
21
-3.6058884645669291
0
LINE
8
BLACK
6
CONTINUOUS
10
5.2845237401574803
20
-3.6058884645669291
11
5.284448818897638
21
-3.6055118110236219
0
LINE
8
BLACK
6
CONTINUOUS
10
5.284448818897638
20
-3.6055118110236219
11
5.284448818897638
21
-3.548031496062992
0
LINE
8
BLACK
6
CONTINUOUS
10
5.284448818897638
20
-3.548031496062992
11
5.2845237401574803
21
-3.5476548425196848
0
LINE
8
BLACK
6
CONTINUOUS
10
5.2845237401574803
20
-3.5476548425196848
11
5.2850564173228349
21
-3.5471221653543306
0
LINE
8
BLACK
6
CONTINUOUS
10
5.2850564173228349
20
-3.5471221653543306
11
5.2854330708661417
21
-3.5470472440944882
0
LINE
8
BLACK
6
CONTINUOUS
10
5.2854330708661417
20
-3.5470472440944882
11
5.4153543307086611
21
-3.5470472440944882
0
LINE
8
BLACK
6
CONTINUOUS
10
5.4153543307086611
20
-3.5470472440944882
11
5.4157309842519687
21
-3.5471221653543306
0
LINE
8
BLACK
6
CONTINUOUS
10
5.2864173228346454
20
-3.5490157480314961
11
5.2864173228346454
21
-3.6045275590551182
0
LINE
8
BLACK
6
CONTINUOUS
10
5.2864173228346454
20
-3.6045275590551182
11
5.4143700787401574
21
-3.6045275590551182
0
LINE
8
BLACK
6
CONTINUOUS
10
5.4143700787401574
20
-3.6045275590551182
11
5.4143700787401574
21
-3.5490157480314961
0
LINE
8
BLACK
6
CONTINUOUS
10
5.4143700787401574
20
-3.5490157480314961
11
5.2864173228346454
21
-3.5490157480314961
0
LINE
8
BLACK
6
CONTINUOUS
10
6.4358097244094488
20
-3.5297993307086615
11
6.4363424015748034
21
-3.5303320078740157
0
LINE
8
BLACK
6
CONTINUOUS
10
6.4363424015748034
20
-3.5303320078740157
11
6.4364173228346457
21
-3.5307086614173229
0
LINE
8
BLACK
6
CONTINUOUS
10
6.4364173228346457
20
-3.5307086614173229
11
6.4364173228346457
21
-4.7228346456692911
0
LINE
8
BLACK
6
CONTINUOUS
10
6.4364173228346457
20
-4.7228346456692911
11
6.4363424015748034
21
-4.7232112992125987
0
LINE
8
BLACK
6
CONTINUOUS
10
6.4363424015748034
20
-4.7232112992125987
11
6.4358097244094488
21
-4.7237439763779525
0
LINE
8
BLACK
6
CONTINUOUS
10
6.4358097244094488
20
-4.7237439763779525
11
6.435433070866142
21
-4.7238188976377948
0
LINE
8
BLACK
6
CONTINUOUS
10
6.435433070866142
20
-4.7238188976377948
11
5.2433070866141733
21
-4.7238188976377948
0
LINE
8
BLACK
6
CONTINUOUS
10
5.2433070866141733
20
-4.7238188976377948
11
5.2429304330708657
21
-4.7237439763779525
0
LINE
8
BLACK
6
CONTINUOUS
10
5.2429304330708657
20
-4.7237439763779525
11
5.2423977559055119
21
-4.7232112992125987
0
LINE
8
BLACK
6
CONTINUOUS
10
5.2423977559055119
20
-4.7232112992125987
11
5.2423228346456696
21
-4.7228346456692911
0
LINE
8
BLACK
6
CONTINUOUS
10
5.2423228346456696
20
-4.7228346456692911
11
5.2423228346456696
21
-3.5307086614173229
0
LINE
8
BLACK
6
CONTINUOUS
10
5.2423228346456696
20
-3.5307086614173229
11
5.2423977559055119
21
-3.5303320078740157
0
LINE
8
BLACK
6
CONTINUOUS
10
5.2423977559055119
20
-3.5303320078740157
11
5.2429304330708657
21
-3.5297993307086615
0
LINE
8
BLACK
6
CONTINUOUS
10
5.2429304330708657
20
-3.5297993307086615
11
5.2433070866141733
21
-3.5297244094488187
0
LINE
8
BLACK
6
CONTINUOUS
10
5.2433070866141733
20
-3.5297244094488187
11
6.435433070866142
21
-3.5297244094488187
0
LINE
8
BLACK
6
CONTINUOUS
10
6.435433070866142
20
-3.5297244094488187
11
6.4358097244094488
21
-3.5297993307086615
0
LINE
8
BLACK
6
CONTINUOUS
10
5.244291338582677
20
-3.5316929133858266
11
5.244291338582677
21
-4.7218503937007874
0
LINE
8
BLACK
6
CONTINUOUS
10
5.244291338582677
20
-4.7218503937007874
11
6.4344488188976374
21
-4.7218503937007874
0
LINE
8
BLACK
6
CONTINUOUS
10
6.4344488188976374
20
-4.7218503937007874
11
6.4344488188976374
21
-3.5316929133858266
0
LINE
8
BLACK
6
CONTINUOUS
10
6.4344488188976374
20
-3.5316929133858266
11
5.244291338582677
21
-3.5316929133858266
0
LINE
8
BLACK
6
CONTINUOUS
10
6.4952585433070862
20
-3.4703505118110236
11
6.4957912204724408
21
-3.4708831889763778
0
LINE
8
BLACK
6
CONTINUOUS
10
6.4957912204724408
20
-3.4708831889763778
11
6.4958661417322832
21
-3.471259842519685
0
LINE
8
BLACK
6
CONTINUOUS
10
6.4958661417322832
20
-3.471259842519685
11
6.4958661417322832
21
-4.7822834645669294
0
LINE
8
BLACK
6
CONTINUOUS
10
6.4958661417322832
20
-4.7822834645669294
11
6.4957912204724408
21
-4.7826601181102362
0
LINE
8
BLACK
6
CONTINUOUS
10
6.4957912204724408
20
-4.7826601181102362
11
6.4952585433070862
21
-4.7831927952755908
0
LINE
8
BLACK
6
CONTINUOUS
10
6.4952585433070862
20
-4.7831927952755908
11
6.4948818897637794
21
-4.7832677165354331
0
LINE
8
BLACK
6
CONTINUOUS
10
6.4948818897637794
20
-4.7832677165354331
11
5.183858267716535
21
-4.7832677165354331
0
LINE
8
BLACK
6
CONTINUOUS
10
5.183858267716535
20
-4.7832677165354331
11
5.1834816141732283
21
-4.7831927952755908
0
LINE
8
BLACK
6
CONTINUOUS
10
5.1834816141732283
20
-4.7831927952755908
11
5.1829489370078736
21
-4.7826601181102362
0
LINE
8
BLACK
6
CONTINUOUS
10
5.1829489370078736
20
-4.7826601181102362
11
5.1828740157480313
21
-4.7822834645669294
0
LINE
8
BLACK
6
CONTINUOUS
10
5.1828740157480313
20
-4.7822834645669294
11
5.1828740157480313
21
-3.471259842519685
0
LINE
8
BLACK
6
CONTINUOUS
10
5.1828740157480313
20
-3.471259842519685
11
5.1829489370078736
21
-3.4708831889763778
0
LINE
8
BLACK
6
CONTINUOUS
10
5.1829489370078736
20
-3.4708831889763778
11
5.1834816141732283
21
-3.4703505118110236
0
LINE
8
BLACK
6
CONTINUOUS
10
5.1834816141732283
20
-3.4703505118110236
11
5.183858267716535
21
-3.4702755905511808
0
LINE
8
BLACK
6
CONTINUOUS
10
5.183858267716535
20
-3.4702755905511808
11
6.4948818897637794
21
-3.4702755905511808
0
LINE
8
BLACK
6
CONTINUOUS
10
6.4948818897637794
20
-3.4702755905511808
11
6.4952585433070862
21
-3.4703505118110236
0
LINE
8
BLACK
6
CONTINUOUS
10
5.1848425196850396
20
-3.4722440944881887
11
5.1848425196850396
21
-4.7812992125984248
0
LINE
8
BLACK
6
CONTINUOUS
10
5.1848425196850396
20
-4.7812992125984248
11
6.4938976377952757
21
-4.7812992125984248
0
LINE
8
BLACK
6
CONTINUOUS
10
6.4938976377952757
20
-4.7812992125984248
11
6.4938976377952757
21
-3.4722440944881887
0
LINE
8
BLACK
6
CONTINUOUS
10
6.4938976377952757
20
-3.4722440944881887
11
5.1848425196850396
21
-3.4722440944881887
0
CIRCLE
8
BLACK
10
6.6393700787401571
20
-4.926771653543307
40
0.0068897637795276
0
CIRCLE
8
BLACK
10
5.6401574803149606
20
-4.9779527559055117
40
0.0068897637795276
0
CIRCLE
8
BLACK
10
5.6401574803149606
20
-4.877952755905512
40
0.0068897637795276
0
CIRCLE
8
BLACK
10
5.7401574803149602
20
-4.9779527559055117
40
0.0068897637795276
0
CIRCLE
8
BLACK
10
5.7401574803149602
20
-4.877952755905512
40
0.0068897637795276
0
CIRCLE
8
BLACK
10
5.8401574803149607
20
-4.9779527559055117
40
0.0068897637795276
0
CIRCLE
8
BLACK
10
5.8401574803149607
20
-4.877952755905512
40
0.0068897637795276
0
CIRCLE
8
BLACK
10
5.0393700787401574
20
-3.326771653543307
40
0.0068897637795276
0
CIRCLE
8
BLACK
10
5.0393700787401574
20
-4.926771653543307
40
0.0068897637795276
0
CIRCLE
8
BLACK
10
6.2519685039370074
20
-3.7125984251968505
40
0.0068897637795276
0
CIRCLE
8
BLACK
10
6.1519685039370078
20
-3.6125984251968504
40
0.0068897637795276
0
CIRCLE
8
BLACK
10
6.1519685039370078
20
-3.8125984251968501
40
0.0068897637795276
0
CIRCLE
8
BLACK
10
6.351968503937008
20
-3.6125984251968504
40
0.0068897637795276
0
CIRCLE
8
BLACK
10
6.351968503937008
20
-3.8125984251968501
40
0.0068897637795276
0
CIRCLE
8
BLACK
10
4.9893700787401576
20
-3.576771653543307
40
0.0068897637795276
0
CIRCLE
8
BLACK
10
5.0893700787401572
20
-3.576771653543307
40
0.0068897637795276
0
CIRCLE
8
BLACK
10
4.9893700787401576
20
-3.676771653543307
40
0.0068897637795276
0
CIRCLE
8
BLACK
10
5.0893700787401572
20
-3.676771653543307
40
0.0068897637795276
0
CIRCLE
8
BLACK
10
4.9893700787401576
20
-3.7767716535433071
40
0.0068897637795276
0
CIRCLE
8
BLACK
10
5.0893700787401572
20
-3.7767716535433071
40
0.0068897637795276
0
CIRCLE
8
BLACK
10
4.9893700787401576
20
-3.8767716535433072
40
0.0068897637795276
0
CIRCLE
8
BLACK
10
5.0893700787401572
20
-3.8767716535433072
40
0.0068897637795276
0
CIRCLE
8
BLACK
10
4.9893700787401576
20
-3.9767716535433069
40
0.0068897637795276
0
CIRCLE
8
BLACK
10
5.0893700787401572
20
-3.9767716535433069
40
0.0068897637795276
0
CIRCLE
8
BLACK
10
4.9893700787401576
20
-4.0767716535433074
40
0.0068897637795276
0
CIRCLE
8
BLACK
10
5.0893700787401572
20
-4.0767716535433074
40
0.0068897637795276
0
CIRCLE
8
BLACK
10
4.9893700787401576
20
-4.176771653543307
40
0.0068897637795276
0
CIRCLE
8
BLACK
10
5.0893700787401572
20
-4.176771653543307
40
0.0068897637795276
0
CIRCLE
8
BLACK
10
4.9893700787401576
20
-4.2767716535433067
40
0.0068897637795276
0
CIRCLE
8
BLACK
10
5.0893700787401572
20
-4.2767716535433067
40
0.0068897637795276
0
CIRCLE
8
BLACK
10
4.9893700787401576
20
-4.3767716535433072
40
0.0068897637795276
0
CIRCLE
8
BLACK
10
5.0893700787401572
20
-4.3767716535433072
40
0.0068897637795276
0
CIRCLE
8
BLACK
10
4.9893700787401576
20
-4.4767716535433069
40
0.0068897637795276
0
CIRCLE
8
BLACK
10
5.0893700787401572
20
-4.4767716535433069
40
0.0068897637795276
0
CIRCLE
8
BLACK
10
4.9893700787401576
20
-4.5767716535433074
40
0.0068897637795276
0
CIRCLE
8
BLACK
10
5.0893700787401572
20
-4.5767716535433074
40
0.0068897637795276
0
CIRCLE
8
BLACK
10
4.9893700787401576
20
-4.676771653543307
40
0.0068897637795276
0
CIRCLE
8
BLACK
10
5.0893700787401572
20
-4.676771653543307
40
0.0068897637795276
0
CIRCLE
8
BLACK
10
6.6393700787401571
20
-3.326771653543307
40
0.0068897637795276
0
CIRCLE
8
BLACK
10
6.6393700787401571
20
-4.926771653543307
40
0.0068897637795276
0
CIRCLE
8
BLACK
10
5.6401574803149606
20
-4.9779527559055117
40
0.0068897637795276
0
CIRCLE
8
BLACK
10
5.6401574803149606
20
-4.877952755905512
40
0.0068897637795276
0
CIRCLE
8
BLACK
10
5.7401574803149602
20
-4.9779527559055117
40
0.0068897637795276
0
CIRCLE
8
BLACK
10
5.7401574803149602
20
-4.877952755905512
40
0.0068897637795276
0
CIRCLE
8
BLACK
10
5.8401574803149607
20
-4.9779527559055117
40
0.0068897637795276
0
CIRCLE
8
BLACK
10
5.8401574803149607
20
-4.877952755905512
40
0.0068897637795276
0
CIRCLE
8
BLACK
10
5.0393700787401574
20
-3.326771653543307
40
0.0068897637795276
0
CIRCLE
8
BLACK
10
5.0393700787401574
20
-4.926771653543307
40
0.0068897637795276
0
CIRCLE
8
BLACK
10
6.2519685039370074
20
-3.7125984251968505
40
0.0068897637795276
0
CIRCLE
8
BLACK
10
6.1519685039370078
20
-3.6125984251968504
40
0.0068897637795276
0
CIRCLE
8
BLACK
10
6.1519685039370078
20
-3.8125984251968501
40
0.0068897637795276
0
CIRCLE
8
BLACK
10
6.351968503937008
20
-3.6125984251968504
40
0.0068897637795276
0
CIRCLE
8
BLACK
10
6.351968503937008
20
-3.8125984251968501
40
0.0068897637795276
0
CIRCLE
8
BLACK
10
4.9893700787401576
20
-3.576771653543307
40
0.0068897637795276
0
CIRCLE
8
BLACK
10
5.0893700787401572
20
-3.576771653543307
40
0.0068897637795276
0
CIRCLE
8
BLACK
10
4.9893700787401576
20
-3.676771653543307
40
0.0068897637795276
0
CIRCLE
8
BLACK
10
5.0893700787401572
20
-3.676771653543307
40
0.0068897637795276
0
CIRCLE
8
BLACK
10
4.9893700787401576
20
-3.7767716535433071
40
0.0068897637795276
0
CIRCLE
8
BLACK
10
5.0893700787401572
20
-3.7767716535433071
40
0.0068897637795276
0
CIRCLE
8
BLACK
10
4.9893700787401576
20
-3.8767716535433072
40
0.0068897637795276
0
CIRCLE
8
BLACK
10
5.0893700787401572
20
-3.8767716535433072
40
0.0068897637795276
0
CIRCLE
8
BLACK
10
4.9893700787401576
20
-3.9767716535433069
40
0.0068897637795276
0
CIRCLE
8
BLACK
10
5.0893700787401572
20
-3.9767716535433069
40
0.0068897637795276
0
CIRCLE
8
BLACK
10
4.9893700787401576
20
-4.0767716535433074
40
0.0068897637795276
0
CIRCLE
8
BLACK
10
5.0893700787401572
20
-4.0767716535433074
40
0.0068897637795276
0
CIRCLE
8
BLACK
10
4.9893700787401576
20
-4.176771653543307
40
0.0068897637795276
0
CIRCLE
8
BLACK
10
5.0893700787401572
20
-4.176771653543307
40
0.0068897637795276
0
CIRCLE
8
BLACK
10
4.9893700787401576
20
-4.2767716535433067
40
0.0068897637795276
0
CIRCLE
8
BLACK
10
5.0893700787401572
20
-4.2767716535433067
40
0.0068897637795276
0
CIRCLE
8
BLACK
10
4.9893700787401576
20
-4.3767716535433072
40
0.0068897637795276
0
CIRCLE
8
BLACK
10
5.0893700787401572
20
-4.3767716535433072
40
0.0068897637795276
0
CIRCLE
8
BLACK
10
4.9893700787401576
20
-4.4767716535433069
40
0.0068897637795276
0
CIRCLE
8
BLACK
10
5.0893700787401572
20
-4.4767716535433069
40
0.0068897637795276
0
CIRCLE
8
BLACK
10
4.9893700787401576
20
-4.5767716535433074
40
0.0068897637795276
0
CIRCLE
8
BLACK
10
5.0893700787401572
20
-4.5767716535433074
40
0.0068897637795276
0
CIRCLE
8
BLACK
10
4.9893700787401576
20
-4.676771653543307
40
0.0068897637795276
0
CIRCLE
8
BLACK
10
5.0893700787401572
20
-4.676771653543307
40
0.0068897637795276
0
CIRCLE
8
BLACK
10
6.6393700787401571
20
-3.326771653543307
40
0.0068897637795276
  0
ENDSEC
  0
EOF
