  0
SECTION
  2
HEADER
  9
$ANGBASE
  50
0.0
  9
$ANGDIR
  70
1
  9
$MEASUREMENT
  70
0
  9
$INSUNITS
  70
1
  0
ENDSEC
  0
SECTION
  2
TABLES
  0
TABLE
  2
LTYPE
  70
4
  0
LTYPE
  5
40F
  2
CONTINUOUS
  70
0
  3
Solid line
  72
65
  73
0
  40
0.0
  0
LTYPE
  5
410
  2
DASHDOT
 70
0
  3
Dash Dot ____ _ ____ _
 72
65
 73
4
 40
2.0
 49
1.25
 49
-0.25
 49
0.25
 49
-0.25
  0
LTYPE
  5
411
  2
DASHED
 70
0
  3
Dashed __ __ __ __ __
 72
65
 73
2
 40
0.75
 49
0.5
 49
-0.25
  0
LTYPE
  5
43B
  2
DOTTED
 70
0
  3
Dotted .  .  .  .
 72
65
 73
2
 40
0.2
 49
0.0
 49
-0.2
  0
ENDTAB
  0
TABLE
  2
STYLE
  70
4
  0
STYLE
  2
KICAD
  70
0
  40
0
  41
1
  42
1
  50
0
  71
0
  3
isocp.shx
  0
STYLE
  2
KICADB
  70
0
  40
0
  41
1
  42
1
  50
0
  71
0
  3
isocp.shx
  0
STYLE
  2
KICADI
  70
0
  40
0
  41
1
  42
1
  50
15
  71
0
  3
isocp.shx
  0
STYLE
  2
KICADBI
  70
0
  40
0
  41
1
  42
1
  50
15
  71
0
  3
isocp.shx
  0
ENDTAB
  0
TABLE
  2
LAYER
  70
1
  0
LAYER
  2
BLACK
  70
0
  62
250
  6
CONTINUOUS
  0
ENDTAB
  0
ENDSEC
  0
SECTION
  2
ENTITIES
0
LINE
8
BLACK
6
CONTINUOUS
10
5.0594822834645665
20
-4.8083996062992123
11
5.0726092913385825
21
-4.8113957480314964
0
LINE
8
BLACK
6
CONTINUOUS
10
5.0726092913385825
20
-4.8113957480314964
11
5.0853183070866139
21
-4.815842834645669
0
LINE
8
BLACK
6
CONTINUOUS
10
5.0853183070866139
20
-4.815842834645669
11
5.0974494881889765
21
-4.8216848818897633
0
LINE
8
BLACK
6
CONTINUOUS
10
5.0974494881889765
20
-4.8216848818897633
11
5.1088502755905507
21
-4.8288484645669287
0
LINE
8
BLACK
6
CONTINUOUS
10
5.1088502755905507
20
-4.8288484645669287
11
5.1193773228346453
21
-4.8372435039370076
0
LINE
8
BLACK
6
CONTINUOUS
10
5.1193773228346453
20
-4.8372435039370076
11
5.1288982283464568
21
-4.8467644094488191
0
LINE
8
BLACK
6
CONTINUOUS
10
5.1288982283464568
20
-4.8467644094488191
11
5.1372932677165357
21
-4.8572914566929128
0
LINE
8
BLACK
6
CONTINUOUS
10
5.1372932677165357
20
-4.8572914566929128
11
5.1444568503937003
21
-4.868692244094488
0
LINE
8
BLACK
6
CONTINUOUS
10
5.1444568503937003
20
-4.868692244094488
11
5.1502988976377955
21
-4.8808234251968505
0
LINE
8
BLACK
6
CONTINUOUS
10
5.1502988976377955
20
-4.8808234251968505
11
5.1547459842519681
21
-4.8935324409448819
0
LINE
8
BLACK
6
CONTINUOUS
10
5.1547459842519681
20
-4.8935324409448819
11
5.1577421259842522
21
-4.9066594488188979
0
LINE
8
BLACK
6
CONTINUOUS
10
5.1577421259842522
20
-4.9066594488188979
11
5.1592496850393701
21
-4.9200393700787401
0
LINE
8
BLACK
6
CONTINUOUS
10
5.1592496850393701
20
-4.9200393700787401
11
5.1592496850393701
21
-4.9335039370078739
0
LINE
8
BLACK
6
CONTINUOUS
10
5.1592496850393701
20
-4.9335039370078739
11
5.1577421259842522
21
-4.9468838582677161
0
LINE
8
BLACK
6
CONTINUOUS
10
5.1577421259842522
20
-4.9468838582677161
11
5.1547459842519681
21
-4.9600108661417321
0
LINE
8
BLACK
6
CONTINUOUS
10
5.1547459842519681
20
-4.9600108661417321
11
5.1502988976377955
21
-4.9727198818897635
0
LINE
8
BLACK
6
CONTINUOUS
10
5.1502988976377955
20
-4.9727198818897635
11
5.1444568503937003
21
-4.9848510629921261
0
LINE
8
BLACK
6
CONTINUOUS
10
5.1444568503937003
20
-4.9848510629921261
11
5.1372932677165357
21
-4.9962518503937003
0
LINE
8
BLACK
6
CONTINUOUS
10
5.1372932677165357
20
-4.9962518503937003
11
5.1288982283464568
21
-5.0067788976377949
0
LINE
8
BLACK
6
CONTINUOUS
10
5.1288982283464568
20
-5.0067788976377949
11
5.1193773228346453
21
-5.0162998031496064
0
LINE
8
BLACK
6
CONTINUOUS
10
5.1193773228346453
20
-5.0162998031496064
11
5.1088502755905507
21
-5.0246948425196853
0
LINE
8
BLACK
6
CONTINUOUS
10
5.1088502755905507
20
-5.0246948425196853
11
5.0974494881889765
21
-5.0318584251968499
0
LINE
8
BLACK
6
CONTINUOUS
10
5.0974494881889765
20
-5.0318584251968499
11
5.0853183070866139
21
-5.0377004724409451
0
LINE
8
BLACK
6
CONTINUOUS
10
5.0853183070866139
20
-5.0377004724409451
11
5.0726092913385825
21
-5.0421475590551177
0
LINE
8
BLACK
6
CONTINUOUS
10
5.0726092913385825
20
-5.0421475590551177
11
5.0594822834645665
21
-5.0451437007874018
0
LINE
8
BLACK
6
CONTINUOUS
10
5.0594822834645665
20
-5.0451437007874018
11
5.0461023622047243
21
-5.0466512598425197
0
LINE
8
BLACK
6
CONTINUOUS
10
5.0461023622047243
20
-5.0466512598425197
11
5.0326377952755905
21
-5.0466512598425197
0
LINE
8
BLACK
6
CONTINUOUS
10
5.0326377952755905
20
-5.0466512598425197
11
5.0192578740157483
21
-5.0451437007874018
0
LINE
8
BLACK
6
CONTINUOUS
10
5.0192578740157483
20
-5.0451437007874018
11
5.0061308661417323
21
-5.0421475590551177
0
LINE
8
BLACK
6
CONTINUOUS
10
5.0061308661417323
20
-5.0421475590551177
11
4.9934218503937009
21
-5.0377004724409451
0
LINE
8
BLACK
6
CONTINUOUS
10
4.9934218503937009
20
-5.0377004724409451
11
4.9812906692913383
21
-5.0318584251968499
0
LINE
8
BLACK
6
CONTINUOUS
10
4.9812906692913383
20
-5.0318584251968499
11
4.9698898818897641
21
-5.0246948425196853
0
LINE
8
BLACK
6
CONTINUOUS
10
4.9698898818897641
20
-5.0246948425196853
11
4.9593628346456695
21
-5.0162998031496064
0
LINE
8
BLACK
6
CONTINUOUS
10
4.9593628346456695
20
-5.0162998031496064
11
4.949841929133858
21
-5.0067788976377949
0
LINE
8
BLACK
6
CONTINUOUS
10
4.949841929133858
20
-5.0067788976377949
11
4.9414468897637791
21
-4.9962518503937003
0
LINE
8
BLACK
6
CONTINUOUS
10
4.9414468897637791
20
-4.9962518503937003
11
4.9342833070866137
21
-4.9848510629921261
0
LINE
8
BLACK
6
CONTINUOUS
10
4.9342833070866137
20
-4.9848510629921261
11
4.9284412598425194
21
-4.9727198818897635
0
LINE
8
BLACK
6
CONTINUOUS
10
4.9284412598425194
20
-4.9727198818897635
11
4.9239941732283468
21
-4.9600108661417321
0
LINE
8
BLACK
6
CONTINUOUS
10
4.9239941732283468
20
-4.9600108661417321
11
4.9209980314960626
21
-4.9468838582677161
0
LINE
8
BLACK
6
CONTINUOUS
10
4.9209980314960626
20
-4.9468838582677161
11
4.9194904724409447
21
-4.9335039370078739
0
LINE
8
BLACK
6
CONTINUOUS
10
4.9194904724409447
20
-4.9335039370078739
11
4.9194904724409447
21
-4.9202498425196852
0
LINE
8
BLACK
6
CONTINUOUS
10
4.9194904724409447
20
-4.9202498425196852
11
4.9194904724409447
21
-4.9200393700787401
0
LINE
8
BLACK
6
CONTINUOUS
10
4.9194904724409447
20
-4.9200393700787401
11
4.9209980314960626
21
-4.9066594488188979
0
LINE
8
BLACK
6
CONTINUOUS
10
4.9209980314960626
20
-4.9066594488188979
11
4.9239941732283468
21
-4.8935324409448819
0
LINE
8
BLACK
6
CONTINUOUS
10
4.9239941732283468
20
-4.8935324409448819
11
4.9284412598425194
21
-4.8808234251968505
0
LINE
8
BLACK
6
CONTINUOUS
10
4.9284412598425194
20
-4.8808234251968505
11
4.9342833070866137
21
-4.868692244094488
0
LINE
8
BLACK
6
CONTINUOUS
10
4.9342833070866137
20
-4.868692244094488
11
4.9414468897637791
21
-4.8572914566929128
0
LINE
8
BLACK
6
CONTINUOUS
10
4.9414468897637791
20
-4.8572914566929128
11
4.949841929133858
21
-4.8467644094488191
0
LINE
8
BLACK
6
CONTINUOUS
10
4.949841929133858
20
-4.8467644094488191
11
4.9593628346456695
21
-4.8372435039370076
0
LINE
8
BLACK
6
CONTINUOUS
10
4.9593628346456695
20
-4.8372435039370076
11
4.9698898818897641
21
-4.8288484645669287
0
LINE
8
BLACK
6
CONTINUOUS
10
4.9698898818897641
20
-4.8288484645669287
11
4.9812906692913383
21
-4.8216848818897633
0
LINE
8
BLACK
6
CONTINUOUS
10
4.9812906692913383
20
-4.8216848818897633
11
4.9934218503937009
21
-4.815842834645669
0
LINE
8
BLACK
6
CONTINUOUS
10
4.9934218503937009
20
-4.815842834645669
11
5.0061308661417323
21
-4.8113957480314964
0
LINE
8
BLACK
6
CONTINUOUS
10
5.0061308661417323
20
-4.8113957480314964
11
5.0192578740157483
21
-4.8083996062992123
0
LINE
8
BLACK
6
CONTINUOUS
10
5.0192578740157483
20
-4.8083996062992123
11
5.0326377952755905
21
-4.8068920472440944
0
LINE
8
BLACK
6
CONTINUOUS
10
5.0326377952755905
20
-4.8068920472440944
11
5.0461023622047243
21
-4.8068920472440944
0
LINE
8
BLACK
6
CONTINUOUS
10
5.0461023622047243
20
-4.8068920472440944
11
5.0594822834645665
21
-4.8083996062992123
0
LINE
8
BLACK
6
CONTINUOUS
10
4.9232385826771656
20
-4.9332934645669289
11
4.924698976377953
21
-4.9462550393700786
0
LINE
8
BLACK
6
CONTINUOUS
10
4.924698976377953
20
-4.9462550393700786
11
4.9276014566929129
21
-4.9589716535433066
0
LINE
8
BLACK
6
CONTINUOUS
10
4.9276014566929129
20
-4.9589716535433066
11
4.9319094881889765
21
-4.9712832677165357
0
LINE
8
BLACK
6
CONTINUOUS
10
4.9319094881889765
20
-4.9712832677165357
11
4.9375688976377949
21
-4.9830351574803151
0
LINE
8
BLACK
6
CONTINUOUS
10
4.9375688976377949
20
-4.9830351574803151
11
4.9445085433070863
21
-4.9940795275590553
0
LINE
8
BLACK
6
CONTINUOUS
10
4.9445085433070863
20
-4.9940795275590553
11
4.9526411023622048
21
-5.0042774015748028
0
LINE
8
BLACK
6
CONTINUOUS
10
4.9526411023622048
20
-5.0042774015748028
11
4.9618643307086616
21
-5.0135006299212597
0
LINE
8
BLACK
6
CONTINUOUS
10
4.9618643307086616
20
-5.0135006299212597
11
4.9720622047244092
21
-5.0216331889763781
0
LINE
8
BLACK
6
CONTINUOUS
10
4.9720622047244092
20
-5.0216331889763781
11
4.9831065748031493
21
-5.0285728346456695
0
LINE
8
BLACK
6
CONTINUOUS
10
4.9831065748031493
20
-5.0285728346456695
11
4.9948584645669287
21
-5.034232244094488
0
LINE
8
BLACK
6
CONTINUOUS
10
4.9948584645669287
20
-5.034232244094488
11
5.007170078740157
21
-5.0385402755905515
0
LINE
8
BLACK
6
CONTINUOUS
10
5.007170078740157
20
-5.0385402755905515
11
5.0198866929133859
21
-5.0414427559055115
0
LINE
8
BLACK
6
CONTINUOUS
10
5.0198866929133859
20
-5.0414427559055115
11
5.0328482677165356
21
-5.0429031496062988
0
LINE
8
BLACK
6
CONTINUOUS
10
5.0328482677165356
20
-5.0429031496062988
11
5.0458918897637792
21
-5.0429031496062988
0
LINE
8
BLACK
6
CONTINUOUS
10
5.0458918897637792
20
-5.0429031496062988
11
5.058853464566929
21
-5.0414427559055115
0
LINE
8
BLACK
6
CONTINUOUS
10
5.058853464566929
20
-5.0414427559055115
11
5.071570078740157
21
-5.0385402755905515
0
LINE
8
BLACK
6
CONTINUOUS
10
5.071570078740157
20
-5.0385402755905515
11
5.0838816929133861
21
-5.034232244094488
0
LINE
8
BLACK
6
CONTINUOUS
10
5.0838816929133861
20
-5.034232244094488
11
5.0956335826771655
21
-5.0285728346456695
0
LINE
8
BLACK
6
CONTINUOUS
10
5.0956335826771655
20
-5.0285728346456695
11
5.1066779527559056
21
-5.0216331889763781
0
LINE
8
BLACK
6
CONTINUOUS
10
5.1066779527559056
20
-5.0216331889763781
11
5.1168758267716532
21
-5.0135006299212597
0
LINE
8
BLACK
6
CONTINUOUS
10
5.1168758267716532
20
-5.0135006299212597
11
5.12609905511811
21
-5.0042774015748028
0
LINE
8
BLACK
6
CONTINUOUS
10
5.12609905511811
20
-5.0042774015748028
11
5.1342316141732285
21
-4.9940795275590553
0
LINE
8
BLACK
6
CONTINUOUS
10
5.1342316141732285
20
-4.9940795275590553
11
5.1411712598425199
21
-4.9830351574803151
0
LINE
8
BLACK
6
CONTINUOUS
10
5.1411712598425199
20
-4.9830351574803151
11
5.1468306692913384
21
-4.9712832677165357
0
LINE
8
BLACK
6
CONTINUOUS
10
5.1468306692913384
20
-4.9712832677165357
11
5.1511387007874019
21
-4.9589716535433066
0
LINE
8
BLACK
6
CONTINUOUS
10
5.1511387007874019
20
-4.9589716535433066
11
5.1540411811023619
21
-4.9462550393700786
0
LINE
8
BLACK
6
CONTINUOUS
10
5.1540411811023619
20
-4.9462550393700786
11
5.1555015748031492
21
-4.9332934645669289
0
LINE
8
BLACK
6
CONTINUOUS
10
5.1555015748031492
20
-4.9332934645669289
11
5.1555015748031492
21
-4.9202498425196852
0
LINE
8
BLACK
6
CONTINUOUS
10
5.1555015748031492
20
-4.9202498425196852
11
5.1540411811023619
21
-4.9072882677165355
0
LINE
8
BLACK
6
CONTINUOUS
10
5.1540411811023619
20
-4.9072882677165355
11
5.1511387007874019
21
-4.8945716535433066
0
LINE
8
BLACK
6
CONTINUOUS
10
5.1511387007874019
20
-4.8945716535433066
11
5.1468306692913384
21
-4.8822600393700784
0
LINE
8
BLACK
6
CONTINUOUS
10
5.1468306692913384
20
-4.8822600393700784
11
5.1411712598425199
21
-4.870508149606299
0
LINE
8
BLACK
6
CONTINUOUS
10
5.1411712598425199
20
-4.870508149606299
11
5.1342316141732285
21
-4.8594637795275588
0
LINE
8
BLACK
6
CONTINUOUS
10
5.1342316141732285
20
-4.8594637795275588
11
5.12609905511811
21
-4.8492659055118112
0
LINE
8
BLACK
6
CONTINUOUS
10
5.12609905511811
20
-4.8492659055118112
11
5.1168758267716532
21
-4.8400426771653544
0
LINE
8
BLACK
6
CONTINUOUS
10
5.1168758267716532
20
-4.8400426771653544
11
5.1066779527559056
21
-4.831910118110236
0
LINE
8
BLACK
6
CONTINUOUS
10
5.1066779527559056
20
-4.831910118110236
11
5.0956335826771655
21
-4.8249704724409446
0
LINE
8
BLACK
6
CONTINUOUS
10
5.0956335826771655
20
-4.8249704724409446
11
5.0838816929133861
21
-4.8193110629921261
0
LINE
8
BLACK
6
CONTINUOUS
10
5.0838816929133861
20
-4.8193110629921261
11
5.071570078740157
21
-4.8150030314960626
0
LINE
8
BLACK
6
CONTINUOUS
10
5.071570078740157
20
-4.8150030314960626
11
5.058853464566929
21
-4.8121005511811026
0
LINE
8
BLACK
6
CONTINUOUS
10
5.058853464566929
20
-4.8121005511811026
11
5.0458918897637792
21
-4.8106401574803153
0
LINE
8
BLACK
6
CONTINUOUS
10
5.0458918897637792
20
-4.8106401574803153
11
5.0328482677165356
21
-4.8106401574803153
0
LINE
8
BLACK
6
CONTINUOUS
10
5.0328482677165356
20
-4.8106401574803153
11
5.0198866929133859
21
-4.8121005511811026
0
LINE
8
BLACK
6
CONTINUOUS
10
5.0198866929133859
20
-4.8121005511811026
11
5.007170078740157
21
-4.8150030314960626
0
LINE
8
BLACK
6
CONTINUOUS
10
5.007170078740157
20
-4.8150030314960626
11
4.9948584645669287
21
-4.8193110629921261
0
LINE
8
BLACK
6
CONTINUOUS
10
4.9948584645669287
20
-4.8193110629921261
11
4.9831065748031493
21
-4.8249704724409446
0
LINE
8
BLACK
6
CONTINUOUS
10
4.9831065748031493
20
-4.8249704724409446
11
4.9720622047244092
21
-4.831910118110236
0
LINE
8
BLACK
6
CONTINUOUS
10
4.9720622047244092
20
-4.831910118110236
11
4.9618643307086616
21
-4.8400426771653544
0
LINE
8
BLACK
6
CONTINUOUS
10
4.9618643307086616
20
-4.8400426771653544
11
4.9526411023622048
21
-4.8492659055118112
0
LINE
8
BLACK
6
CONTINUOUS
10
4.9526411023622048
20
-4.8492659055118112
11
4.9445085433070863
21
-4.8594637795275588
0
LINE
8
BLACK
6
CONTINUOUS
10
4.9445085433070863
20
-4.8594637795275588
11
4.9375688976377949
21
-4.870508149606299
0
LINE
8
BLACK
6
CONTINUOUS
10
4.9375688976377949
20
-4.870508149606299
11
4.9319094881889765
21
-4.8822600393700784
0
LINE
8
BLACK
6
CONTINUOUS
10
4.9319094881889765
20
-4.8822600393700784
11
4.9276014566929129
21
-4.8945716535433066
0
LINE
8
BLACK
6
CONTINUOUS
10
4.9276014566929129
20
-4.8945716535433066
11
4.924698976377953
21
-4.9072882677165355
0
LINE
8
BLACK
6
CONTINUOUS
10
4.924698976377953
20
-4.9072882677165355
11
4.9232385826771656
21
-4.9202498425196852
0
LINE
8
BLACK
6
CONTINUOUS
10
4.9232385826771656
20
-4.9202498425196852
11
4.9232385826771656
21
-4.9332934645669289
0
LINE
8
BLACK
6
CONTINUOUS
10
6.6594822834645671
20
-4.8083996062992123
11
6.6726092913385822
21
-4.8113957480314964
0
LINE
8
BLACK
6
CONTINUOUS
10
6.6726092913385822
20
-4.8113957480314964
11
6.6853183070866145
21
-4.815842834645669
0
LINE
8
BLACK
6
CONTINUOUS
10
6.6853183070866145
20
-4.815842834645669
11
6.6974494881889761
21
-4.8216848818897633
0
LINE
8
BLACK
6
CONTINUOUS
10
6.6974494881889761
20
-4.8216848818897633
11
6.7088502755905512
21
-4.8288484645669287
0
LINE
8
BLACK
6
CONTINUOUS
10
6.7088502755905512
20
-4.8288484645669287
11
6.7193773228346458
21
-4.8372435039370076
0
LINE
8
BLACK
6
CONTINUOUS
10
6.7193773228346458
20
-4.8372435039370076
11
6.7288982283464565
21
-4.8467644094488191
0
LINE
8
BLACK
6
CONTINUOUS
10
6.7288982283464565
20
-4.8467644094488191
11
6.7372932677165354
21
-4.8572914566929128
0
LINE
8
BLACK
6
CONTINUOUS
10
6.7372932677165354
20
-4.8572914566929128
11
6.7444568503937008
21
-4.868692244094488
0
LINE
8
BLACK
6
CONTINUOUS
10
6.7444568503937008
20
-4.868692244094488
11
6.7502988976377951
21
-4.8808234251968505
0
LINE
8
BLACK
6
CONTINUOUS
10
6.7502988976377951
20
-4.8808234251968505
11
6.7547459842519686
21
-4.8935324409448819
0
LINE
8
BLACK
6
CONTINUOUS
10
6.7547459842519686
20
-4.8935324409448819
11
6.7577421259842518
21
-4.9066594488188979
0
LINE
8
BLACK
6
CONTINUOUS
10
6.7577421259842518
20
-4.9066594488188979
11
6.7592496850393697
21
-4.9200393700787401
0
LINE
8
BLACK
6
CONTINUOUS
10
6.7592496850393697
20
-4.9200393700787401
11
6.7592496850393697
21
-4.9335039370078739
0
LINE
8
BLACK
6
CONTINUOUS
10
6.7592496850393697
20
-4.9335039370078739
11
6.7577421259842518
21
-4.9468838582677161
0
LINE
8
BLACK
6
CONTINUOUS
10
6.7577421259842518
20
-4.9468838582677161
11
6.7547459842519686
21
-4.9600108661417321
0
LINE
8
BLACK
6
CONTINUOUS
10
6.7547459842519686
20
-4.9600108661417321
11
6.7502988976377951
21
-4.9727198818897635
0
LINE
8
BLACK
6
CONTINUOUS
10
6.7502988976377951
20
-4.9727198818897635
11
6.7444568503937008
21
-4.9848510629921261
0
LINE
8
BLACK
6
CONTINUOUS
10
6.7444568503937008
20
-4.9848510629921261
11
6.7372932677165354
21
-4.9962518503937003
0
LINE
8
BLACK
6
CONTINUOUS
10
6.7372932677165354
20
-4.9962518503937003
11
6.7288982283464565
21
-5.0067788976377949
0
LINE
8
BLACK
6
CONTINUOUS
10
6.7288982283464565
20
-5.0067788976377949
11
6.7193773228346458
21
-5.0162998031496064
0
LINE
8
BLACK
6
CONTINUOUS
10
6.7193773228346458
20
-5.0162998031496064
11
6.7088502755905512
21
-5.0246948425196853
0
LINE
8
BLACK
6
CONTINUOUS
10
6.7088502755905512
20
-5.0246948425196853
11
6.6974494881889761
21
-5.0318584251968499
0
LINE
8
BLACK
6
CONTINUOUS
10
6.6974494881889761
20
-5.0318584251968499
11
6.6853183070866145
21
-5.0377004724409451
0
LINE
8
BLACK
6
CONTINUOUS
10
6.6853183070866145
20
-5.0377004724409451
11
6.6726092913385822
21
-5.0421475590551177
0
LINE
8
BLACK
6
CONTINUOUS
10
6.6726092913385822
20
-5.0421475590551177
11
6.6594822834645671
21
-5.0451437007874018
0
LINE
8
BLACK
6
CONTINUOUS
10
6.6594822834645671
20
-5.0451437007874018
11
6.6461023622047239
21
-5.0466512598425197
0
LINE
8
BLACK
6
CONTINUOUS
10
6.6461023622047239
20
-5.0466512598425197
11
6.6326377952755902
21
-5.0466512598425197
0
LINE
8
BLACK
6
CONTINUOUS
10
6.6326377952755902
20
-5.0466512598425197
11
6.6192578740157479
21
-5.0451437007874018
0
LINE
8
BLACK
6
CONTINUOUS
10
6.6192578740157479
20
-5.0451437007874018
11
6.6061308661417319
21
-5.0421475590551177
0
LINE
8
BLACK
6
CONTINUOUS
10
6.6061308661417319
20
-5.0421475590551177
11
6.5934218503937005
21
-5.0377004724409451
0
LINE
8
BLACK
6
CONTINUOUS
10
6.5934218503937005
20
-5.0377004724409451
11
6.581290669291338
21
-5.0318584251968499
0
LINE
8
BLACK
6
CONTINUOUS
10
6.581290669291338
20
-5.0318584251968499
11
6.5698898818897637
21
-5.0246948425196853
0
LINE
8
BLACK
6
CONTINUOUS
10
6.5698898818897637
20
-5.0246948425196853
11
6.5593628346456692
21
-5.0162998031496064
0
LINE
8
BLACK
6
CONTINUOUS
10
6.5593628346456692
20
-5.0162998031496064
11
6.5498419291338585
21
-5.0067788976377949
0
LINE
8
BLACK
6
CONTINUOUS
10
6.5498419291338585
20
-5.0067788976377949
11
6.5414468897637796
21
-4.9962518503937003
0
LINE
8
BLACK
6
CONTINUOUS
10
6.5414468897637796
20
-4.9962518503937003
11
6.5342833070866142
21
-4.9848510629921261
0
LINE
8
BLACK
6
CONTINUOUS
10
6.5342833070866142
20
-4.9848510629921261
11
6.5284412598425199
21
-4.9727198818897635
0
LINE
8
BLACK
6
CONTINUOUS
10
6.5284412598425199
20
-4.9727198818897635
11
6.5239941732283464
21
-4.9600108661417321
0
LINE
8
BLACK
6
CONTINUOUS
10
6.5239941732283464
20
-4.9600108661417321
11
6.5209980314960632
21
-4.9468838582677161
0
LINE
8
BLACK
6
CONTINUOUS
10
6.5209980314960632
20
-4.9468838582677161
11
6.5194904724409444
21
-4.9335039370078739
0
LINE
8
BLACK
6
CONTINUOUS
10
6.5194904724409444
20
-4.9335039370078739
11
6.5194904724409444
21
-4.9202498425196852
0
LINE
8
BLACK
6
CONTINUOUS
10
6.5194904724409444
20
-4.9202498425196852
11
6.5194904724409444
21
-4.9200393700787401
0
LINE
8
BLACK
6
CONTINUOUS
10
6.5194904724409444
20
-4.9200393700787401
11
6.5209980314960632
21
-4.9066594488188979
0
LINE
8
BLACK
6
CONTINUOUS
10
6.5209980314960632
20
-4.9066594488188979
11
6.5239941732283464
21
-4.8935324409448819
0
LINE
8
BLACK
6
CONTINUOUS
10
6.5239941732283464
20
-4.8935324409448819
11
6.5284412598425199
21
-4.8808234251968505
0
LINE
8
BLACK
6
CONTINUOUS
10
6.5284412598425199
20
-4.8808234251968505
11
6.5342833070866142
21
-4.868692244094488
0
LINE
8
BLACK
6
CONTINUOUS
10
6.5342833070866142
20
-4.868692244094488
11
6.5414468897637796
21
-4.8572914566929128
0
LINE
8
BLACK
6
CONTINUOUS
10
6.5414468897637796
20
-4.8572914566929128
11
6.5498419291338585
21
-4.8467644094488191
0
LINE
8
BLACK
6
CONTINUOUS
10
6.5498419291338585
20
-4.8467644094488191
11
6.5593628346456692
21
-4.8372435039370076
0
LINE
8
BLACK
6
CONTINUOUS
10
6.5593628346456692
20
-4.8372435039370076
11
6.5698898818897637
21
-4.8288484645669287
0
LINE
8
BLACK
6
CONTINUOUS
10
6.5698898818897637
20
-4.8288484645669287
11
6.581290669291338
21
-4.8216848818897633
0
LINE
8
BLACK
6
CONTINUOUS
10
6.581290669291338
20
-4.8216848818897633
11
6.5934218503937005
21
-4.815842834645669
0
LINE
8
BLACK
6
CONTINUOUS
10
6.5934218503937005
20
-4.815842834645669
11
6.6061308661417319
21
-4.8113957480314964
0
LINE
8
BLACK
6
CONTINUOUS
10
6.6061308661417319
20
-4.8113957480314964
11
6.6192578740157479
21
-4.8083996062992123
0
LINE
8
BLACK
6
CONTINUOUS
10
6.6192578740157479
20
-4.8083996062992123
11
6.6326377952755902
21
-4.8068920472440944
0
LINE
8
BLACK
6
CONTINUOUS
10
6.6326377952755902
20
-4.8068920472440944
11
6.6461023622047239
21
-4.8068920472440944
0
LINE
8
BLACK
6
CONTINUOUS
10
6.6461023622047239
20
-4.8068920472440944
11
6.6594822834645671
21
-4.8083996062992123
0
LINE
8
BLACK
6
CONTINUOUS
10
6.5232385826771653
20
-4.9332934645669289
11
6.5246989763779526
21
-4.9462550393700786
0
LINE
8
BLACK
6
CONTINUOUS
10
6.5246989763779526
20
-4.9462550393700786
11
6.5276014566929135
21
-4.9589716535433066
0
LINE
8
BLACK
6
CONTINUOUS
10
6.5276014566929135
20
-4.9589716535433066
11
6.5319094881889761
21
-4.9712832677165357
0
LINE
8
BLACK
6
CONTINUOUS
10
6.5319094881889761
20
-4.9712832677165357
11
6.5375688976377955
21
-4.9830351574803151
0
LINE
8
BLACK
6
CONTINUOUS
10
6.5375688976377955
20
-4.9830351574803151
11
6.5445085433070869
21
-4.9940795275590553
0
LINE
8
BLACK
6
CONTINUOUS
10
6.5445085433070869
20
-4.9940795275590553
11
6.5526411023622044
21
-5.0042774015748028
0
LINE
8
BLACK
6
CONTINUOUS
10
6.5526411023622044
20
-5.0042774015748028
11
6.5618643307086613
21
-5.0135006299212597
0
LINE
8
BLACK
6
CONTINUOUS
10
6.5618643307086613
20
-5.0135006299212597
11
6.5720622047244097
21
-5.0216331889763781
0
LINE
8
BLACK
6
CONTINUOUS
10
6.5720622047244097
20
-5.0216331889763781
11
6.5831065748031499
21
-5.0285728346456695
0
LINE
8
BLACK
6
CONTINUOUS
10
6.5831065748031499
20
-5.0285728346456695
11
6.5948584645669293
21
-5.034232244094488
0
LINE
8
BLACK
6
CONTINUOUS
10
6.5948584645669293
20
-5.034232244094488
11
6.6071700787401575
21
-5.0385402755905515
0
LINE
8
BLACK
6
CONTINUOUS
10
6.6071700787401575
20
-5.0385402755905515
11
6.6198866929133855
21
-5.0414427559055115
0
LINE
8
BLACK
6
CONTINUOUS
10
6.6198866929133855
20
-5.0414427559055115
11
6.6328482677165352
21
-5.0429031496062988
0
LINE
8
BLACK
6
CONTINUOUS
10
6.6328482677165352
20
-5.0429031496062988
11
6.6458918897637798
21
-5.0429031496062988
0
LINE
8
BLACK
6
CONTINUOUS
10
6.6458918897637798
20
-5.0429031496062988
11
6.6588534645669286
21
-5.0414427559055115
0
LINE
8
BLACK
6
CONTINUOUS
10
6.6588534645669286
20
-5.0414427559055115
11
6.6715700787401575
21
-5.0385402755905515
0
LINE
8
BLACK
6
CONTINUOUS
10
6.6715700787401575
20
-5.0385402755905515
11
6.6838816929133857
21
-5.034232244094488
0
LINE
8
BLACK
6
CONTINUOUS
10
6.6838816929133857
20
-5.034232244094488
11
6.6956335826771651
21
-5.0285728346456695
0
LINE
8
BLACK
6
CONTINUOUS
10
6.6956335826771651
20
-5.0285728346456695
11
6.7066779527559053
21
-5.0216331889763781
0
LINE
8
BLACK
6
CONTINUOUS
10
6.7066779527559053
20
-5.0216331889763781
11
6.7168758267716537
21
-5.0135006299212597
0
LINE
8
BLACK
6
CONTINUOUS
10
6.7168758267716537
20
-5.0135006299212597
11
6.7260990551181097
21
-5.0042774015748028
0
LINE
8
BLACK
6
CONTINUOUS
10
6.7260990551181097
20
-5.0042774015748028
11
6.7342316141732281
21
-4.9940795275590553
0
LINE
8
BLACK
6
CONTINUOUS
10
6.7342316141732281
20
-4.9940795275590553
11
6.7411712598425195
21
-4.9830351574803151
0
LINE
8
BLACK
6
CONTINUOUS
10
6.7411712598425195
20
-4.9830351574803151
11
6.746830669291338
21
-4.9712832677165357
0
LINE
8
BLACK
6
CONTINUOUS
10
6.746830669291338
20
-4.9712832677165357
11
6.7511387007874015
21
-4.9589716535433066
0
LINE
8
BLACK
6
CONTINUOUS
10
6.7511387007874015
20
-4.9589716535433066
11
6.7540411811023624
21
-4.9462550393700786
0
LINE
8
BLACK
6
CONTINUOUS
10
6.7540411811023624
20
-4.9462550393700786
11
6.7555015748031497
21
-4.9332934645669289
0
LINE
8
BLACK
6
CONTINUOUS
10
6.7555015748031497
20
-4.9332934645669289
11
6.7555015748031497
21
-4.9202498425196852
0
LINE
8
BLACK
6
CONTINUOUS
10
6.7555015748031497
20
-4.9202498425196852
11
6.7540411811023624
21
-4.9072882677165355
0
LINE
8
BLACK
6
CONTINUOUS
10
6.7540411811023624
20
-4.9072882677165355
11
6.7511387007874015
21
-4.8945716535433066
0
LINE
8
BLACK
6
CONTINUOUS
10
6.7511387007874015
20
-4.8945716535433066
11
6.746830669291338
21
-4.8822600393700784
0
LINE
8
BLACK
6
CONTINUOUS
10
6.746830669291338
20
-4.8822600393700784
11
6.7411712598425195
21
-4.870508149606299
0
LINE
8
BLACK
6
CONTINUOUS
10
6.7411712598425195
20
-4.870508149606299
11
6.7342316141732281
21
-4.8594637795275588
0
LINE
8
BLACK
6
CONTINUOUS
10
6.7342316141732281
20
-4.8594637795275588
11
6.7260990551181097
21
-4.8492659055118112
0
LINE
8
BLACK
6
CONTINUOUS
10
6.7260990551181097
20
-4.8492659055118112
11
6.7168758267716537
21
-4.8400426771653544
0
LINE
8
BLACK
6
CONTINUOUS
10
6.7168758267716537
20
-4.8400426771653544
11
6.7066779527559053
21
-4.831910118110236
0
LINE
8
BLACK
6
CONTINUOUS
10
6.7066779527559053
20
-4.831910118110236
11
6.6956335826771651
21
-4.8249704724409446
0
LINE
8
BLACK
6
CONTINUOUS
10
6.6956335826771651
20
-4.8249704724409446
11
6.6838816929133857
21
-4.8193110629921261
0
LINE
8
BLACK
6
CONTINUOUS
10
6.6838816929133857
20
-4.8193110629921261
11
6.6715700787401575
21
-4.8150030314960626
0
LINE
8
BLACK
6
CONTINUOUS
10
6.6715700787401575
20
-4.8150030314960626
11
6.6588534645669286
21
-4.8121005511811026
0
LINE
8
BLACK
6
CONTINUOUS
10
6.6588534645669286
20
-4.8121005511811026
11
6.6458918897637798
21
-4.8106401574803153
0
LINE
8
BLACK
6
CONTINUOUS
10
6.6458918897637798
20
-4.8106401574803153
11
6.6328482677165352
21
-4.8106401574803153
0
LINE
8
BLACK
6
CONTINUOUS
10
6.6328482677165352
20
-4.8106401574803153
11
6.6198866929133855
21
-4.8121005511811026
0
LINE
8
BLACK
6
CONTINUOUS
10
6.6198866929133855
20
-4.8121005511811026
11
6.6071700787401575
21
-4.8150030314960626
0
LINE
8
BLACK
6
CONTINUOUS
10
6.6071700787401575
20
-4.8150030314960626
11
6.5948584645669293
21
-4.8193110629921261
0
LINE
8
BLACK
6
CONTINUOUS
10
6.5948584645669293
20
-4.8193110629921261
11
6.5831065748031499
21
-4.8249704724409446
0
LINE
8
BLACK
6
CONTINUOUS
10
6.5831065748031499
20
-4.8249704724409446
11
6.5720622047244097
21
-4.831910118110236
0
LINE
8
BLACK
6
CONTINUOUS
10
6.5720622047244097
20
-4.831910118110236
11
6.5618643307086613
21
-4.8400426771653544
0
LINE
8
BLACK
6
CONTINUOUS
10
6.5618643307086613
20
-4.8400426771653544
11
6.5526411023622044
21
-4.8492659055118112
0
LINE
8
BLACK
6
CONTINUOUS
10
6.5526411023622044
20
-4.8492659055118112
11
6.5445085433070869
21
-4.8594637795275588
0
LINE
8
BLACK
6
CONTINUOUS
10
6.5445085433070869
20
-4.8594637795275588
11
6.5375688976377955
21
-4.870508149606299
0
LINE
8
BLACK
6
CONTINUOUS
10
6.5375688976377955
20
-4.870508149606299
11
6.5319094881889761
21
-4.8822600393700784
0
LINE
8
BLACK
6
CONTINUOUS
10
6.5319094881889761
20
-4.8822600393700784
11
6.5276014566929135
21
-4.8945716535433066
0
LINE
8
BLACK
6
CONTINUOUS
10
6.5276014566929135
20
-4.8945716535433066
11
6.5246989763779526
21
-4.9072882677165355
0
LINE
8
BLACK
6
CONTINUOUS
10
6.5246989763779526
20
-4.9072882677165355
11
6.5232385826771653
21
-4.9202498425196852
0
LINE
8
BLACK
6
CONTINUOUS
10
6.5232385826771653
20
-4.9202498425196852
11
6.5232385826771653
21
-4.9332934645669289
0
LINE
8
BLACK
6
CONTINUOUS
10
5.8907335433070864
20
-4.8250567322834641
11
5.8917979527559057
21
-4.8254976377952756
0
LINE
8
BLACK
6
CONTINUOUS
10
5.8917979527559057
20
-4.8254976377952756
11
5.8926125984251971
21
-4.8263122834645671
0
LINE
8
BLACK
6
CONTINUOUS
10
5.8926125984251971
20
-4.8263122834645671
11
5.8930535039370078
21
-4.8273766929133854
0
LINE
8
BLACK
6
CONTINUOUS
10
5.8930535039370078
20
-4.8273766929133854
11
5.8931102362204726
21
-4.8279527559055113
0
LINE
8
BLACK
6
CONTINUOUS
10
5.8931102362204726
20
-4.8279527559055113
11
5.8931102362204726
21
-5.0279527559055115
0
LINE
8
BLACK
6
CONTINUOUS
10
5.8931102362204726
20
-5.0279527559055115
11
5.8930535039370078
21
-5.0285288188976374
0
LINE
8
BLACK
6
CONTINUOUS
10
5.8930535039370078
20
-5.0285288188976374
11
5.8926125984251971
21
-5.0295932283464566
0
LINE
8
BLACK
6
CONTINUOUS
10
5.8926125984251971
20
-5.0295932283464566
11
5.8917979527559057
21
-5.0304078740157481
0
LINE
8
BLACK
6
CONTINUOUS
10
5.8917979527559057
20
-5.0304078740157481
11
5.8907335433070864
21
-5.0308487795275587
0
LINE
8
BLACK
6
CONTINUOUS
10
5.8907335433070864
20
-5.0308487795275587
11
5.8901574803149606
21
-5.0309055118110235
0
LINE
8
BLACK
6
CONTINUOUS
10
5.8901574803149606
20
-5.0309055118110235
11
5.6901574803149604
21
-5.0309055118110235
0
LINE
8
BLACK
6
CONTINUOUS
10
5.6901574803149604
20
-5.0309055118110235
11
5.6895814173228345
21
-5.0308487795275587
0
LINE
8
BLACK
6
CONTINUOUS
10
5.6895814173228345
20
-5.0308487795275587
11
5.6885170078740153
21
-5.0304078740157481
0
LINE
8
BLACK
6
CONTINUOUS
10
5.6885170078740153
20
-5.0304078740157481
11
5.6877023622047247
21
-5.0295932283464566
0
LINE
8
BLACK
6
CONTINUOUS
10
5.6877023622047247
20
-5.0295932283464566
11
5.6872614566929132
21
-5.0285288188976374
0
LINE
8
BLACK
6
CONTINUOUS
10
5.6872614566929132
20
-5.0285288188976374
11
5.6872614566929132
21
-5.0273766929133856
0
LINE
8
BLACK
6
CONTINUOUS
10
5.6872614566929132
20
-5.0273766929133856
11
5.6877023622047247
21
-5.0263122834645664
0
LINE
8
BLACK
6
CONTINUOUS
10
5.6877023622047247
20
-5.0263122834645664
11
5.6885170078740153
21
-5.0254976377952758
0
LINE
8
BLACK
6
CONTINUOUS
10
5.6885170078740153
20
-5.0254976377952758
11
5.6895814173228345
21
-5.0250567322834643
0
LINE
8
BLACK
6
CONTINUOUS
10
5.6895814173228345
20
-5.0250567322834643
11
5.6901574803149604
21
-5.0249999999999995
0
LINE
8
BLACK
6
CONTINUOUS
10
5.6901574803149604
20
-5.0249999999999995
11
5.8872047244094485
21
-5.0249999999999995
0
LINE
8
BLACK
6
CONTINUOUS
10
5.8872047244094485
20
-5.0249999999999995
11
5.8872047244094485
21
-4.8309055118110233
0
LINE
8
BLACK
6
CONTINUOUS
10
5.8872047244094485
20
-4.8309055118110233
11
5.5931102362204719
21
-4.8309055118110233
0
LINE
8
BLACK
6
CONTINUOUS
10
5.5931102362204719
20
-4.8309055118110233
11
5.5931102362204719
21
-5.0279527559055115
0
LINE
8
BLACK
6
CONTINUOUS
10
5.5931102362204719
20
-5.0279527559055115
11
5.593053503937008
21
-5.0285288188976374
0
LINE
8
BLACK
6
CONTINUOUS
10
5.593053503937008
20
-5.0285288188976374
11
5.5926125984251964
21
-5.0295932283464566
0
LINE
8
BLACK
6
CONTINUOUS
10
5.5926125984251964
20
-5.0295932283464566
11
5.591797952755905
21
-5.0304078740157481
0
LINE
8
BLACK
6
CONTINUOUS
10
5.591797952755905
20
-5.0304078740157481
11
5.5907335433070866
21
-5.0308487795275587
0
LINE
8
BLACK
6
CONTINUOUS
10
5.5907335433070866
20
-5.0308487795275587
11
5.5895814173228349
21
-5.0308487795275587
0
LINE
8
BLACK
6
CONTINUOUS
10
5.5895814173228349
20
-5.0308487795275587
11
5.5885170078740156
21
-5.0304078740157481
0
LINE
8
BLACK
6
CONTINUOUS
10
5.5885170078740156
20
-5.0304078740157481
11
5.5877023622047242
21
-5.0295932283464566
0
LINE
8
BLACK
6
CONTINUOUS
10
5.5877023622047242
20
-5.0295932283464566
11
5.5872614566929135
21
-5.0285288188976374
0
LINE
8
BLACK
6
CONTINUOUS
10
5.5872614566929135
20
-5.0285288188976374
11
5.5872047244094487
21
-5.0279527559055115
0
LINE
8
BLACK
6
CONTINUOUS
10
5.5872047244094487
20
-5.0279527559055115
11
5.5872047244094487
21
-4.8279527559055113
0
LINE
8
BLACK
6
CONTINUOUS
10
5.5872047244094487
20
-4.8279527559055113
11
5.5872614566929135
21
-4.8273766929133854
0
LINE
8
BLACK
6
CONTINUOUS
10
5.5872614566929135
20
-4.8273766929133854
11
5.5877023622047242
21
-4.8263122834645671
0
LINE
8
BLACK
6
CONTINUOUS
10
5.5877023622047242
20
-4.8263122834645671
11
5.5885170078740156
21
-4.8254976377952756
0
LINE
8
BLACK
6
CONTINUOUS
10
5.5885170078740156
20
-4.8254976377952756
11
5.5895814173228349
21
-4.8250567322834641
0
LINE
8
BLACK
6
CONTINUOUS
10
5.5895814173228349
20
-4.8250567322834641
11
5.5901574803149607
21
-4.8250000000000002
0
LINE
8
BLACK
6
CONTINUOUS
10
5.5901574803149607
20
-4.8250000000000002
11
5.8901574803149606
21
-4.8250000000000002
0
LINE
8
BLACK
6
CONTINUOUS
10
5.8901574803149606
20
-4.8250000000000002
11
5.8907335433070864
21
-4.8250567322834641
0
LINE
8
BLACK
6
CONTINUOUS
10
6.2369423228346452
20
-3.6829671653543308
11
6.2377569685039367
21
-3.6837818110236218
0
LINE
8
BLACK
6
CONTINUOUS
10
6.2377569685039367
20
-3.6837818110236218
11
6.2381978740157482
21
-3.684846220472441
0
LINE
8
BLACK
6
CONTINUOUS
10
6.2381978740157482
20
-3.684846220472441
11
6.2382546062992121
21
-3.6854222834645669
0
LINE
8
BLACK
6
CONTINUOUS
10
6.2382546062992121
20
-3.6854222834645669
11
6.2382546062992121
21
-3.7211365748031495
0
LINE
8
BLACK
6
CONTINUOUS
10
6.2382546062992121
20
-3.7211365748031495
11
6.2382258661417325
21
-3.7214281496062993
0
LINE
8
BLACK
6
CONTINUOUS
10
6.2382258661417325
20
-3.7214281496062993
11
6.2382314173228348
21
-3.7215059055118109
0
LINE
8
BLACK
6
CONTINUOUS
10
6.2382314173228348
20
-3.7215059055118109
11
6.2382081496062991
21
-3.7216081496062992
0
LINE
8
BLACK
6
CONTINUOUS
10
6.2382081496062991
20
-3.7216081496062992
11
6.2381978740157482
21
-3.7217126377952754
0
LINE
8
BLACK
6
CONTINUOUS
10
6.2381978740157482
20
-3.7217126377952754
11
6.2381679921259838
21
-3.7217846850393701
0
LINE
8
BLACK
6
CONTINUOUS
10
6.2381679921259838
20
-3.7217846850393701
11
6.238103070866142
21
-3.7220703543307088
0
LINE
8
BLACK
6
CONTINUOUS
10
6.238103070866142
20
-3.7220703543307088
11
6.2357220866141727
21
-3.729213149606299
0
LINE
8
BLACK
6
CONTINUOUS
10
6.2357220866141727
20
-3.729213149606299
11
6.2354861023622048
21
-3.7297417322834643
0
LINE
8
BLACK
6
CONTINUOUS
10
6.2354861023622048
20
-3.7297417322834643
11
6.2354165748031498
21
-3.7298218503937006
0
LINE
8
BLACK
6
CONTINUOUS
10
6.2354165748031498
20
-3.7298218503937006
11
6.235376023622047
21
-3.7299198425196849
0
LINE
8
BLACK
6
CONTINUOUS
10
6.235376023622047
20
-3.7299198425196849
11
6.2350087795275586
21
-3.7303673228346454
0
LINE
8
BLACK
6
CONTINUOUS
10
6.2350087795275586
20
-3.7303673228346454
11
6.2302468897637793
21
-3.735129251968504
0
LINE
8
BLACK
6
CONTINUOUS
10
6.2302468897637793
20
-3.735129251968504
11
6.2297994488188975
21
-3.7354964566929132
0
LINE
8
BLACK
6
CONTINUOUS
10
6.2297994488188975
20
-3.7354964566929132
11
6.2297014566929132
21
-3.7355370078740155
0
LINE
8
BLACK
6
CONTINUOUS
10
6.2297014566929132
20
-3.7355370078740155
11
6.2296212992125986
21
-3.7356065748031497
0
LINE
8
BLACK
6
CONTINUOUS
10
6.2296212992125986
20
-3.7356065748031497
11
6.2290927165354333
21
-3.7358425590551181
0
LINE
8
BLACK
6
CONTINUOUS
10
6.2290927165354333
20
-3.7358425590551181
11
6.2219498425196846
21
-3.7382235039370078
0
LINE
8
BLACK
6
CONTINUOUS
10
6.2219498425196846
20
-3.7382235039370078
11
6.2216642519685035
21
-3.7382884251968505
0
LINE
8
BLACK
6
CONTINUOUS
10
6.2216642519685035
20
-3.7382884251968505
11
6.2215921653543305
21
-3.7383183070866139
0
LINE
8
BLACK
6
CONTINUOUS
10
6.2215921653543305
20
-3.7383183070866139
11
6.221487637795275
21
-3.7383285826771653
0
LINE
8
BLACK
6
CONTINUOUS
10
6.221487637795275
20
-3.7383285826771653
11
6.2213853937007872
21
-3.7383518503937005
0
LINE
8
BLACK
6
CONTINUOUS
10
6.2213853937007872
20
-3.7383518503937005
11
6.2213076377952756
21
-3.7383462992125982
0
LINE
8
BLACK
6
CONTINUOUS
10
6.2213076377952756
20
-3.7383462992125982
11
6.2210161023622046
21
-3.7383750393700788
0
LINE
8
BLACK
6
CONTINUOUS
10
6.2210161023622046
20
-3.7383750393700788
11
6.2162542125984253
21
-3.7383750393700788
0
LINE
8
BLACK
6
CONTINUOUS
10
6.2162542125984253
20
-3.7383750393700788
11
6.2156781496062994
21
-3.7383183070866139
0
LINE
8
BLACK
6
CONTINUOUS
10
6.2156781496062994
20
-3.7383183070866139
11
6.2146137401574801
21
-3.7378774015748029
0
LINE
8
BLACK
6
CONTINUOUS
10
6.2146137401574801
20
-3.7378774015748029
11
6.2137990944881887
21
-3.7370627559055118
0
LINE
8
BLACK
6
CONTINUOUS
10
6.2137990944881887
20
-3.7370627559055118
11
6.213358188976378
21
-3.735998346456693
0
LINE
8
BLACK
6
CONTINUOUS
10
6.213358188976378
20
-3.735998346456693
11
6.213358188976378
21
-3.7348462204724409
0
LINE
8
BLACK
6
CONTINUOUS
10
6.213358188976378
20
-3.7348462204724409
11
6.2137990944881887
21
-3.7337818110236221
0
LINE
8
BLACK
6
CONTINUOUS
10
6.2137990944881887
20
-3.7337818110236221
11
6.2146137401574801
21
-3.7329671653543306
0
LINE
8
BLACK
6
CONTINUOUS
10
6.2146137401574801
20
-3.7329671653543306
11
6.2156781496062994
21
-3.7325262598425195
0
LINE
8
BLACK
6
CONTINUOUS
10
6.2156781496062994
20
-3.7325262598425195
11
6.2162542125984253
21
-3.7324695275590551
0
LINE
8
BLACK
6
CONTINUOUS
10
6.2162542125984253
20
-3.7324695275590551
11
6.2205369685039367
21
-3.7324695275590551
0
LINE
8
BLACK
6
CONTINUOUS
10
6.2205369685039367
20
-3.7324695275590551
11
6.2265638976377948
21
-3.7304605511811024
0
LINE
8
BLACK
6
CONTINUOUS
10
6.2265638976377948
20
-3.7304605511811024
11
6.2303400787401575
21
-3.7266843700787402
0
LINE
8
BLACK
6
CONTINUOUS
10
6.2303400787401575
20
-3.7266843700787402
11
6.232349094488189
21
-3.7206574015748028
0
LINE
8
BLACK
6
CONTINUOUS
10
6.232349094488189
20
-3.7206574015748028
11
6.232349094488189
21
-3.6854222834645669
0
LINE
8
BLACK
6
CONTINUOUS
10
6.232349094488189
20
-3.6854222834645669
11
6.2324058267716538
21
-3.684846220472441
0
LINE
8
BLACK
6
CONTINUOUS
10
6.2324058267716538
20
-3.684846220472441
11
6.2328467322834644
21
-3.6837818110236218
0
LINE
8
BLACK
6
CONTINUOUS
10
6.2328467322834644
20
-3.6837818110236218
11
6.2336613779527559
21
-3.6829671653543308
0
LINE
8
BLACK
6
CONTINUOUS
10
6.2336613779527559
20
-3.6829671653543308
11
6.2347257874015742
21
-3.6825262598425197
0
LINE
8
BLACK
6
CONTINUOUS
10
6.2347257874015742
20
-3.6825262598425197
11
6.2358779133858269
21
-3.6825262598425197
0
LINE
8
BLACK
6
CONTINUOUS
10
6.2358779133858269
20
-3.6825262598425197
11
6.2369423228346452
21
-3.6829671653543308
0
LINE
8
BLACK
6
CONTINUOUS
10
6.285606496062992
20
-3.6824995275590551
11
6.2856839763779524
21
-3.6824943700787403
0
LINE
8
BLACK
6
CONTINUOUS
10
6.2856839763779524
20
-3.6824943700787403
11
6.2857373228346454
21
-3.6825124015748032
0
LINE
8
BLACK
6
CONTINUOUS
10
6.2857373228346454
20
-3.6825124015748032
11
6.2858779133858267
21
-3.6825262598425197
0
LINE
8
BLACK
6
CONTINUOUS
10
6.2858779133858267
20
-3.6825262598425197
11
6.286321102362205
21
-3.6827098425196851
0
LINE
8
BLACK
6
CONTINUOUS
10
6.286321102362205
20
-3.6827098425196851
11
6.2867753543307083
21
-3.6828634645669291
0
LINE
8
BLACK
6
CONTINUOUS
10
6.2867753543307083
20
-3.6828634645669291
11
6.2868503149606294
21
-3.6829290157480314
0
LINE
8
BLACK
6
CONTINUOUS
10
6.2868503149606294
20
-3.6829290157480314
11
6.2869423228346459
21
-3.6829671653543308
0
LINE
8
BLACK
6
CONTINUOUS
10
6.2869423228346459
20
-3.6829671653543308
11
6.2872812992125979
21
-3.6833061417322832
0
LINE
8
BLACK
6
CONTINUOUS
10
6.2872812992125979
20
-3.6833061417322832
11
6.2876424409448815
21
-3.6836221259842521
0
LINE
8
BLACK
6
CONTINUOUS
10
6.2876424409448815
20
-3.6836221259842521
11
6.2876866141732286
21
-3.6837114566929134
0
LINE
8
BLACK
6
CONTINUOUS
10
6.2876866141732286
20
-3.6837114566929134
11
6.2877569685039365
21
-3.6837818110236218
0
LINE
8
BLACK
6
CONTINUOUS
10
6.2877569685039365
20
-3.6837818110236218
11
6.2879404330708661
21
-3.6842247244094488
0
LINE
8
BLACK
6
CONTINUOUS
10
6.2879404330708661
20
-3.6842247244094488
11
6.2881531496062992
21
-3.6846548818897635
0
LINE
8
BLACK
6
CONTINUOUS
10
6.2881531496062992
20
-3.6846548818897635
11
6.288159763779527
21
-3.6847542125984249
0
LINE
8
BLACK
6
CONTINUOUS
10
6.288159763779527
20
-3.6847542125984249
11
6.288197874015748
21
-3.684846220472441
0
LINE
8
BLACK
6
CONTINUOUS
10
6.288197874015748
20
-3.684846220472441
11
6.288197874015748
21
-3.6853259055118111
0
LINE
8
BLACK
6
CONTINUOUS
10
6.288197874015748
20
-3.6853259055118111
11
6.288229763779527
21
-3.6858044094488189
0
LINE
8
BLACK
6
CONTINUOUS
10
6.288229763779527
20
-3.6858044094488189
11
6.288197874015748
21
-3.6858987007874013
0
LINE
8
BLACK
6
CONTINUOUS
10
6.288197874015748
20
-3.6858987007874013
11
6.288197874015748
21
-3.6859983464566928
0
LINE
8
BLACK
6
CONTINUOUS
10
6.288197874015748
20
-3.6859983464566928
11
6.2880142519685034
21
-3.6864415354330706
0
LINE
8
BLACK
6
CONTINUOUS
10
6.2880142519685034
20
-3.6864415354330706
11
6.2878606692913381
21
-3.6868957874015749
0
LINE
8
BLACK
6
CONTINUOUS
10
6.2878606692913381
20
-3.6868957874015749
11
6.2877785433070867
21
-3.6870106299212599
0
LINE
8
BLACK
6
CONTINUOUS
10
6.2877785433070867
20
-3.6870106299212599
11
6.2877569685039365
21
-3.6870627559055116
0
LINE
8
BLACK
6
CONTINUOUS
10
6.2877569685039365
20
-3.6870627559055116
11
6.2877020078740156
21
-3.6871176771653542
0
LINE
8
BLACK
6
CONTINUOUS
10
6.2877020078740156
20
-3.6871176771653542
11
6.2875240157480317
21
-3.6873666929133857
0
LINE
8
BLACK
6
CONTINUOUS
10
6.2875240157480317
20
-3.6873666929133857
11
6.2751423622047247
21
-3.7015171259842519
0
LINE
8
BLACK
6
CONTINUOUS
10
6.2751423622047247
20
-3.7015171259842519
11
6.2757780314960625
21
-3.7015171259842519
0
LINE
8
BLACK
6
CONTINUOUS
10
6.2757780314960625
20
-3.7015171259842519
11
6.2763540944881893
21
-3.7015738582677162
0
LINE
8
BLACK
6
CONTINUOUS
10
6.2763540944881893
20
-3.7015738582677162
11
6.2764520866141726
21
-3.7016144488188973
0
LINE
8
BLACK
6
CONTINUOUS
10
6.2764520866141726
20
-3.7016144488188973
11
6.2765579133858269
21
-3.7016219685039369
0
LINE
8
BLACK
6
CONTINUOUS
10
6.2765579133858269
20
-3.7016219685039369
11
6.2770985433070861
21
-3.7018288582677163
0
LINE
8
BLACK
6
CONTINUOUS
10
6.2770985433070861
20
-3.7018288582677163
11
6.2818604330708663
21
-3.704209803149606
0
LINE
8
BLACK
6
CONTINUOUS
10
6.2818604330708663
20
-3.704209803149606
11
6.2821083464566927
21
-3.7043658661417322
0
LINE
8
BLACK
6
CONTINUOUS
10
6.2821083464566927
20
-3.7043658661417322
11
6.282180393700787
21
-3.7043957086614174
0
LINE
8
BLACK
6
CONTINUOUS
10
6.282180393700787
20
-3.7043957086614174
11
6.2822614566929129
21
-3.7044622440944881
0
LINE
8
BLACK
6
CONTINUOUS
10
6.2822614566929129
20
-3.7044622440944881
11
6.2823502755905514
21
-3.7045181496062991
0
LINE
8
BLACK
6
CONTINUOUS
10
6.2823502755905514
20
-3.7045181496062991
11
6.2824013385826767
21
-3.7045770472440944
0
LINE
8
BLACK
6
CONTINUOUS
10
6.2824013385826767
20
-3.7045770472440944
11
6.2826278346456688
21
-3.7047629133858266
0
LINE
8
BLACK
6
CONTINUOUS
10
6.2826278346456688
20
-3.7047629133858266
11
6.2850088188976381
21
-3.7071439370078738
0
LINE
8
BLACK
6
CONTINUOUS
10
6.2850088188976381
20
-3.7071439370078738
11
6.2851946456692911
21
-3.7073703543307084
0
LINE
8
BLACK
6
CONTINUOUS
10
6.2851946456692911
20
-3.7073703543307084
11
6.2852535039370077
21
-3.7074214173228346
0
LINE
8
BLACK
6
CONTINUOUS
10
6.2852535039370077
20
-3.7074214173228346
11
6.2853093307086612
21
-3.7075101181102363
0
LINE
8
BLACK
6
CONTINUOUS
10
6.2853093307086612
20
-3.7075101181102363
11
6.2853760236220468
21
-3.7075913779527556
0
LINE
8
BLACK
6
CONTINUOUS
10
6.2853760236220468
20
-3.7075913779527556
11
6.2854058661417325
21
-3.7076634645669291
0
LINE
8
BLACK
6
CONTINUOUS
10
6.2854058661417325
20
-3.7076634645669291
11
6.2855618897637795
21
-3.7079112992125984
0
LINE
8
BLACK
6
CONTINUOUS
10
6.2855618897637795
20
-3.7079112992125984
11
6.2879428740157479
21
-3.7126731889763778
0
LINE
8
BLACK
6
CONTINUOUS
10
6.2879428740157479
20
-3.7126731889763778
11
6.2881497637795274
21
-3.713213779527559
0
LINE
8
BLACK
6
CONTINUOUS
10
6.2881497637795274
20
-3.713213779527559
11
6.2881572834645665
21
-3.7133196456692912
0
LINE
8
BLACK
6
CONTINUOUS
10
6.2881572834645665
20
-3.7133196456692912
11
6.288197874015748
21
-3.7134176377952754
0
LINE
8
BLACK
6
CONTINUOUS
10
6.288197874015748
20
-3.7134176377952754
11
6.2882546062992128
21
-3.7139937007874013
0
LINE
8
BLACK
6
CONTINUOUS
10
6.2882546062992128
20
-3.7139937007874013
11
6.2882546062992128
21
-3.7258984645669289
0
LINE
8
BLACK
6
CONTINUOUS
10
6.2882546062992128
20
-3.7258984645669289
11
6.288197874015748
21
-3.7264745275590552
0
LINE
8
BLACK
6
CONTINUOUS
10
6.288197874015748
20
-3.7264745275590552
11
6.2881572834645665
21
-3.7265724803149607
0
LINE
8
BLACK
6
CONTINUOUS
10
6.2881572834645665
20
-3.7265724803149607
11
6.2881497637795274
21
-3.7266783858267716
0
LINE
8
BLACK
6
CONTINUOUS
10
6.2881497637795274
20
-3.7266783858267716
11
6.2879428740157479
21
-3.7272189763779529
0
LINE
8
BLACK
6
CONTINUOUS
10
6.2879428740157479
20
-3.7272189763779529
11
6.2855618897637795
21
-3.7319808661417322
0
LINE
8
BLACK
6
CONTINUOUS
10
6.2855618897637795
20
-3.7319808661417322
11
6.2854058661417325
21
-3.7322286614173228
0
LINE
8
BLACK
6
CONTINUOUS
10
6.2854058661417325
20
-3.7322286614173228
11
6.2853760236220468
21
-3.7323007874015746
0
LINE
8
BLACK
6
CONTINUOUS
10
6.2853760236220468
20
-3.7323007874015746
11
6.2853093307086612
21
-3.7323820078740155
0
LINE
8
BLACK
6
CONTINUOUS
10
6.2853093307086612
20
-3.7323820078740155
11
6.2852535039370077
21
-3.732470748031496
0
LINE
8
BLACK
6
CONTINUOUS
10
6.2852535039370077
20
-3.732470748031496
11
6.2851946456692911
21
-3.732521771653543
0
LINE
8
BLACK
6
CONTINUOUS
10
6.2851946456692911
20
-3.732521771653543
11
6.2850088188976381
21
-3.7327482283464568
0
LINE
8
BLACK
6
CONTINUOUS
10
6.2850088188976381
20
-3.7327482283464568
11
6.2826278346456688
21
-3.735129251968504
0
LINE
8
BLACK
6
CONTINUOUS
10
6.2826278346456688
20
-3.735129251968504
11
6.2824013385826767
21
-3.7353150787401574
0
LINE
8
BLACK
6
CONTINUOUS
10
6.2824013385826767
20
-3.7353150787401574
11
6.2823502755905514
21
-3.7353740157480315
0
LINE
8
BLACK
6
CONTINUOUS
10
6.2823502755905514
20
-3.7353740157480315
11
6.2822614566929129
21
-3.7354298818897638
0
LINE
8
BLACK
6
CONTINUOUS
10
6.2822614566929129
20
-3.7354298818897638
11
6.282180393700787
21
-3.7354964566929132
0
LINE
8
BLACK
6
CONTINUOUS
10
6.282180393700787
20
-3.7354964566929132
11
6.2821083464566927
21
-3.7355262598425196
0
LINE
8
BLACK
6
CONTINUOUS
10
6.2821083464566927
20
-3.7355262598425196
11
6.2818604330708663
21
-3.7356823622047242
0
LINE
8
BLACK
6
CONTINUOUS
10
6.2818604330708663
20
-3.7356823622047242
11
6.2770985433070861
21
-3.7380633070866143
0
LINE
8
BLACK
6
CONTINUOUS
10
6.2770985433070861
20
-3.7380633070866143
11
6.2765579133858269
21
-3.7382701968503937
0
LINE
8
BLACK
6
CONTINUOUS
10
6.2765579133858269
20
-3.7382701968503937
11
6.2764520866141726
21
-3.7382776771653541
0
LINE
8
BLACK
6
CONTINUOUS
10
6.2764520866141726
20
-3.7382776771653541
11
6.2763540944881893
21
-3.7383183070866139
0
LINE
8
BLACK
6
CONTINUOUS
10
6.2763540944881893
20
-3.7383183070866139
11
6.2757780314960625
21
-3.7383750393700788
0
LINE
8
BLACK
6
CONTINUOUS
10
6.2757780314960625
20
-3.7383750393700788
11
6.2614923228346457
21
-3.7383750393700788
0
LINE
8
BLACK
6
CONTINUOUS
10
6.2614923228346457
20
-3.7383750393700788
11
6.2609162598425199
21
-3.7383183070866139
0
LINE
8
BLACK
6
CONTINUOUS
10
6.2609162598425199
20
-3.7383183070866139
11
6.2608182283464568
21
-3.7382776771653541
0
LINE
8
BLACK
6
CONTINUOUS
10
6.2608182283464568
20
-3.7382776771653541
11
6.2607124409448813
21
-3.7382701968503937
0
LINE
8
BLACK
6
CONTINUOUS
10
6.2607124409448813
20
-3.7382701968503937
11
6.2601718110236222
21
-3.7380633070866143
0
LINE
8
BLACK
6
CONTINUOUS
10
6.2601718110236222
20
-3.7380633070866143
11
6.2554098818897632
21
-3.7356823622047242
0
LINE
8
BLACK
6
CONTINUOUS
10
6.2554098818897632
20
-3.7356823622047242
11
6.2551618503937005
21
-3.7355262598425196
0
LINE
8
BLACK
6
CONTINUOUS
10
6.2551618503937005
20
-3.7355262598425196
11
6.2550899212598425
21
-3.7354964566929132
0
LINE
8
BLACK
6
CONTINUOUS
10
6.2550899212598425
20
-3.7354964566929132
11
6.2550089370078741
21
-3.7354299606299213
0
LINE
8
BLACK
6
CONTINUOUS
10
6.2550089370078741
20
-3.7354299606299213
11
6.2549200000000003
21
-3.7353740157480315
0
LINE
8
BLACK
6
CONTINUOUS
10
6.2549200000000003
20
-3.7353740157480315
11
6.2548688188976378
21
-3.7353149999999999
0
LINE
8
BLACK
6
CONTINUOUS
10
6.2548688188976378
20
-3.7353149999999999
11
6.2546424803149607
21
-3.735129251968504
0
LINE
8
BLACK
6
CONTINUOUS
10
6.2546424803149607
20
-3.735129251968504
11
6.2522615354330711
21
-3.7327482677165356
0
LINE
8
BLACK
6
CONTINUOUS
10
6.2522615354330711
20
-3.7327482677165356
11
6.2518942913385827
21
-3.7323007874015746
0
LINE
8
BLACK
6
CONTINUOUS
10
6.2518942913385827
20
-3.7323007874015746
11
6.2514534251968499
21
-3.7312363779527558
0
LINE
8
BLACK
6
CONTINUOUS
10
6.2514534251968499
20
-3.7312363779527558
11
6.2514534251968499
21
-3.7300842913385828
0
LINE
8
BLACK
6
CONTINUOUS
10
6.2514534251968499
20
-3.7300842913385828
11
6.2518943307086614
21
-3.7290198818897635
0
LINE
8
BLACK
6
CONTINUOUS
10
6.2518943307086614
20
-3.7290198818897635
11
6.2527090157480316
21
-3.7282051968503938
0
LINE
8
BLACK
6
CONTINUOUS
10
6.2527090157480316
20
-3.7282051968503938
11
6.25377342519685
21
-3.7277643307086614
0
LINE
8
BLACK
6
CONTINUOUS
10
6.25377342519685
20
-3.7277643307086614
11
6.2549255118110239
21
-3.7277643307086614
0
LINE
8
BLACK
6
CONTINUOUS
10
6.2549255118110239
20
-3.7277643307086614
11
6.2559899212598422
21
-3.7282052362204725
0
LINE
8
BLACK
6
CONTINUOUS
10
6.2559899212598422
20
-3.7282052362204725
11
6.256437362204724
21
-3.7285724409448817
0
LINE
8
BLACK
6
CONTINUOUS
10
6.256437362204724
20
-3.7285724409448817
11
6.2584794881889758
21
-3.7306146062992127
0
LINE
8
BLACK
6
CONTINUOUS
10
6.2584794881889758
20
-3.7306146062992127
11
6.2621893307086616
21
-3.7324695275590551
0
LINE
8
BLACK
6
CONTINUOUS
10
6.2621893307086616
20
-3.7324695275590551
11
6.2750809842519679
21
-3.7324695275590551
0
LINE
8
BLACK
6
CONTINUOUS
10
6.2750809842519679
20
-3.7324695275590551
11
6.2787907874015749
21
-3.7306146062992127
0
LINE
8
BLACK
6
CONTINUOUS
10
6.2787907874015749
20
-3.7306146062992127
11
6.2804940944881888
21
-3.7289112598425196
0
LINE
8
BLACK
6
CONTINUOUS
10
6.2804940944881888
20
-3.7289112598425196
11
6.2823490944881888
21
-3.7252013385826772
0
LINE
8
BLACK
6
CONTINUOUS
10
6.2823490944881888
20
-3.7252013385826772
11
6.2823490944881888
21
-3.7146907874015747
0
LINE
8
BLACK
6
CONTINUOUS
10
6.2823490944881888
20
-3.7146907874015747
11
6.2804940944881888
21
-3.7109808661417323
0
LINE
8
BLACK
6
CONTINUOUS
10
6.2804940944881888
20
-3.7109808661417323
11
6.2787907874015749
21
-3.7092775196850392
0
LINE
8
BLACK
6
CONTINUOUS
10
6.2787907874015749
20
-3.7092775196850392
11
6.2750809842519679
21
-3.7074226377952755
0
LINE
8
BLACK
6
CONTINUOUS
10
6.2750809842519679
20
-3.7074226377952755
11
6.2686351574803147
21
-3.7074226377952755
0
LINE
8
BLACK
6
CONTINUOUS
10
6.2686351574803147
20
-3.7074226377952755
11
6.2683304724409448
21
-3.707392598425197
0
LINE
8
BLACK
6
CONTINUOUS
10
6.2683304724409448
20
-3.707392598425197
11
6.2682530314960632
21
-3.7073977952755905
0
LINE
8
BLACK
6
CONTINUOUS
10
6.2682530314960632
20
-3.7073977952755905
11
6.2681996456692914
21
-3.7073797244094489
0
LINE
8
BLACK
6
CONTINUOUS
10
6.2681996456692914
20
-3.7073797244094489
11
6.2680590944881889
21
-3.7073659055118111
0
LINE
8
BLACK
6
CONTINUOUS
10
6.2680590944881889
20
-3.7073659055118111
11
6.2676158661417318
21
-3.7071822834645669
0
LINE
8
BLACK
6
CONTINUOUS
10
6.2676158661417318
20
-3.7071822834645669
11
6.2671616535433072
21
-3.7070287007874017
0
LINE
8
BLACK
6
CONTINUOUS
10
6.2671616535433072
20
-3.7070287007874017
11
6.2670866929133853
21
-3.7069631102362206
0
LINE
8
BLACK
6
CONTINUOUS
10
6.2670866929133853
20
-3.7069631102362206
11
6.2669946850393696
21
-3.706925
0
LINE
8
BLACK
6
CONTINUOUS
10
6.2669946850393696
20
-3.706925
11
6.2666555118110239
21
-3.7065858267716534
0
LINE
8
BLACK
6
CONTINUOUS
10
6.2666555118110239
20
-3.7065858267716534
11
6.2662945669291341
21
-3.70627
0
LINE
8
BLACK
6
CONTINUOUS
10
6.2662945669291341
20
-3.70627
11
6.266250393700787
21
-3.7061807086614174
0
LINE
8
BLACK
6
CONTINUOUS
10
6.266250393700787
20
-3.7061807086614174
11
6.2661800393700782
21
-3.7061103543307086
0
LINE
8
BLACK
6
CONTINUOUS
10
6.2661800393700782
20
-3.7061103543307086
11
6.2659964960629919
21
-3.705667283464567
0
LINE
8
BLACK
6
CONTINUOUS
10
6.2659964960629919
20
-3.705667283464567
11
6.2657838582677163
21
-3.7052372834645668
0
LINE
8
BLACK
6
CONTINUOUS
10
6.2657838582677163
20
-3.7052372834645668
11
6.2657772047244089
21
-3.7051379133858267
0
LINE
8
BLACK
6
CONTINUOUS
10
6.2657772047244089
20
-3.7051379133858267
11
6.2657391338582675
21
-3.7050459448818898
0
LINE
8
BLACK
6
CONTINUOUS
10
6.2657391338582675
20
-3.7050459448818898
11
6.2657391338582675
21
-3.704566220472441
0
LINE
8
BLACK
6
CONTINUOUS
10
6.2657391338582675
20
-3.704566220472441
11
6.2657072440944876
21
-3.7040877559055119
0
LINE
8
BLACK
6
CONTINUOUS
10
6.2657072440944876
20
-3.7040877559055119
11
6.2657391338582675
21
-3.7039934251968503
0
LINE
8
BLACK
6
CONTINUOUS
10
6.2657391338582675
20
-3.7039934251968503
11
6.2657391338582675
21
-3.7038938188976376
0
LINE
8
BLACK
6
CONTINUOUS
10
6.2657391338582675
20
-3.7038938188976376
11
6.2659227165354325
21
-3.703450590551181
0
LINE
8
BLACK
6
CONTINUOUS
10
6.2659227165354325
20
-3.703450590551181
11
6.2660763385826774
21
-3.7029963779527559
0
LINE
8
BLACK
6
CONTINUOUS
10
6.2660763385826774
20
-3.7029963779527559
11
6.2661584251968501
21
-3.7028814960629921
0
LINE
8
BLACK
6
CONTINUOUS
10
6.2661584251968501
20
-3.7028814960629921
11
6.2661800393700782
21
-3.7028294094488188
0
LINE
8
BLACK
6
CONTINUOUS
10
6.2661800393700782
20
-3.7028294094488188
11
6.2662349606299212
21
-3.7027744488188974
0
LINE
8
BLACK
6
CONTINUOUS
10
6.2662349606299212
20
-3.7027744488188974
11
6.2664129921259839
21
-3.7025254724409447
0
LINE
8
BLACK
6
CONTINUOUS
10
6.2664129921259839
20
-3.7025254724409447
11
6.2787946456692909
21
-3.6883750393700785
0
LINE
8
BLACK
6
CONTINUOUS
10
6.2787946456692909
20
-3.6883750393700785
11
6.2543494488188971
21
-3.6883750393700785
0
LINE
8
BLACK
6
CONTINUOUS
10
6.2543494488188971
20
-3.6883750393700785
11
6.2537733858267712
21
-3.6883183070866141
0
LINE
8
BLACK
6
CONTINUOUS
10
6.2537733858267712
20
-3.6883183070866141
11
6.2527089763779529
21
-3.687877401574803
0
LINE
8
BLACK
6
CONTINUOUS
10
6.2527089763779529
20
-3.687877401574803
11
6.2518943307086614
21
-3.6870627559055116
0
LINE
8
BLACK
6
CONTINUOUS
10
6.2518943307086614
20
-3.6870627559055116
11
6.2514534251968499
21
-3.6859983464566928
0
LINE
8
BLACK
6
CONTINUOUS
10
6.2514534251968499
20
-3.6859983464566928
11
6.2514534251968499
21
-3.684846220472441
0
LINE
8
BLACK
6
CONTINUOUS
10
6.2514534251968499
20
-3.684846220472441
11
6.2518943307086614
21
-3.6837818110236218
0
LINE
8
BLACK
6
CONTINUOUS
10
6.2518943307086614
20
-3.6837818110236218
11
6.2527089763779529
21
-3.6829671653543308
0
LINE
8
BLACK
6
CONTINUOUS
10
6.2527089763779529
20
-3.6829671653543308
11
6.2537733858267712
21
-3.6825262598425197
0
LINE
8
BLACK
6
CONTINUOUS
10
6.2537733858267712
20
-3.6825262598425197
11
6.2543494488188971
21
-3.6824695275590549
0
LINE
8
BLACK
6
CONTINUOUS
10
6.2543494488188971
20
-3.6824695275590549
11
6.2853018503937008
21
-3.6824695275590549
0
LINE
8
BLACK
6
CONTINUOUS
10
6.2853018503937008
20
-3.6824695275590549
11
6.285606496062992
21
-3.6824995275590551
0
LINE
8
BLACK
6
CONTINUOUS
10
6.2691564173228347
20
-3.6261889763779527
11
6.2802880708661419
21
-3.6291716929133857
0
LINE
8
BLACK
6
CONTINUOUS
10
6.2802880708661419
20
-3.6291716929133857
11
6.2909351574803152
21
-3.6335818503937007
0
LINE
8
BLACK
6
CONTINUOUS
10
6.2909351574803152
20
-3.6335818503937007
11
6.3009155511811024
21
-3.6393440157480312
0
LINE
8
BLACK
6
CONTINUOUS
10
6.3009155511811024
20
-3.6393440157480312
11
6.3100583858267711
21
-3.6463596062992125
0
LINE
8
BLACK
6
CONTINUOUS
10
6.3100583858267711
20
-3.6463596062992125
11
6.3182073228346454
21
-3.6545085433070867
0
LINE
8
BLACK
6
CONTINUOUS
10
6.3182073228346454
20
-3.6545085433070867
11
6.3252229133858267
21
-3.663651377952756
0
LINE
8
BLACK
6
CONTINUOUS
10
6.3252229133858267
20
-3.663651377952756
11
6.3309850787401576
21
-3.6736317716535432
0
LINE
8
BLACK
6
CONTINUOUS
10
6.3309850787401576
20
-3.6736317716535432
11
6.3353952362204726
21
-3.6842788582677164
0
LINE
8
BLACK
6
CONTINUOUS
10
6.3353952362204726
20
-3.6842788582677164
11
6.3383779527559057
21
-3.6954105118110236
0
LINE
8
BLACK
6
CONTINUOUS
10
6.3383779527559057
20
-3.6954105118110236
11
6.3398822047244092
21
-3.7068362598425195
0
LINE
8
BLACK
6
CONTINUOUS
10
6.3398822047244092
20
-3.7068362598425195
11
6.3398822047244092
21
-3.718360590551181
0
LINE
8
BLACK
6
CONTINUOUS
10
6.3398822047244092
20
-3.718360590551181
11
6.3383779527559057
21
-3.7297863385826773
0
LINE
8
BLACK
6
CONTINUOUS
10
6.3383779527559057
20
-3.7297863385826773
11
6.3353952362204726
21
-3.7409179921259841
0
LINE
8
BLACK
6
CONTINUOUS
10
6.3353952362204726
20
-3.7409179921259841
11
6.3309850787401576
21
-3.7515650787401573
0
LINE
8
BLACK
6
CONTINUOUS
10
6.3309850787401576
20
-3.7515650787401573
11
6.3252229133858267
21
-3.7615454724409449
0
LINE
8
BLACK
6
CONTINUOUS
10
6.3252229133858267
20
-3.7615454724409449
11
6.3182073228346454
21
-3.7706883070866142
0
LINE
8
BLACK
6
CONTINUOUS
10
6.3182073228346454
20
-3.7706883070866142
11
6.3100583858267711
21
-3.778837244094488
0
LINE
8
BLACK
6
CONTINUOUS
10
6.3100583858267711
20
-3.778837244094488
11
6.3009155511811024
21
-3.7858528346456692
0
LINE
8
BLACK
6
CONTINUOUS
10
6.3009155511811024
20
-3.7858528346456692
11
6.2909351574803152
21
-3.7916149999999997
0
LINE
8
BLACK
6
CONTINUOUS
10
6.2909351574803152
20
-3.7916149999999997
11
6.2802880708661419
21
-3.7960251574803148
0
LINE
8
BLACK
6
CONTINUOUS
10
6.2802880708661419
20
-3.7960251574803148
11
6.2691564173228347
21
-3.7990078740157478
0
LINE
8
BLACK
6
CONTINUOUS
10
6.2691564173228347
20
-3.7990078740157478
11
6.2577306692913384
21
-3.8005121259842518
0
LINE
8
BLACK
6
CONTINUOUS
10
6.2577306692913384
20
-3.8005121259842518
11
6.2462063385826774
21
-3.8005121259842518
0
LINE
8
BLACK
6
CONTINUOUS
10
6.2462063385826774
20
-3.8005121259842518
11
6.2347805905511811
21
-3.7990078740157478
0
LINE
8
BLACK
6
CONTINUOUS
10
6.2347805905511811
20
-3.7990078740157478
11
6.2236489370078738
21
-3.7960251574803148
0
LINE
8
BLACK
6
CONTINUOUS
10
6.2236489370078738
20
-3.7960251574803148
11
6.2130018503937006
21
-3.7916149999999997
0
LINE
8
BLACK
6
CONTINUOUS
10
6.2130018503937006
20
-3.7916149999999997
11
6.2030214566929134
21
-3.7858528346456692
0
LINE
8
BLACK
6
CONTINUOUS
10
6.2030214566929134
20
-3.7858528346456692
11
6.1938786220472437
21
-3.778837244094488
0
LINE
8
BLACK
6
CONTINUOUS
10
6.1938786220472437
20
-3.778837244094488
11
6.1857296850393704
21
-3.7706883070866142
0
LINE
8
BLACK
6
CONTINUOUS
10
6.1857296850393704
20
-3.7706883070866142
11
6.1787140944881891
21
-3.7615454724409449
0
LINE
8
BLACK
6
CONTINUOUS
10
6.1787140944881891
20
-3.7615454724409449
11
6.1729519291338582
21
-3.7515650787401573
0
LINE
8
BLACK
6
CONTINUOUS
10
6.1729519291338582
20
-3.7515650787401573
11
6.1685417716535431
21
-3.7409179921259841
0
LINE
8
BLACK
6
CONTINUOUS
10
6.1685417716535431
20
-3.7409179921259841
11
6.1655590551181101
21
-3.7297863385826773
0
LINE
8
BLACK
6
CONTINUOUS
10
6.1655590551181101
20
-3.7297863385826773
11
6.1640548031496065
21
-3.718360590551181
0
LINE
8
BLACK
6
CONTINUOUS
10
6.1640548031496065
20
-3.718360590551181
11
6.1640548031496065
21
-3.7072109448818895
0
LINE
8
BLACK
6
CONTINUOUS
10
6.1640548031496065
20
-3.7072109448818895
11
6.1640548031496065
21
-3.7068362598425195
0
LINE
8
BLACK
6
CONTINUOUS
10
6.1640548031496065
20
-3.7068362598425195
11
6.1655590551181101
21
-3.6954105118110236
0
LINE
8
BLACK
6
CONTINUOUS
10
6.1655590551181101
20
-3.6954105118110236
11
6.1685417716535431
21
-3.6842788582677164
0
LINE
8
BLACK
6
CONTINUOUS
10
6.1685417716535431
20
-3.6842788582677164
11
6.1729519291338582
21
-3.6736317716535432
0
LINE
8
BLACK
6
CONTINUOUS
10
6.1729519291338582
20
-3.6736317716535432
11
6.1787140944881891
21
-3.663651377952756
0
LINE
8
BLACK
6
CONTINUOUS
10
6.1787140944881891
20
-3.663651377952756
11
6.1857296850393704
21
-3.6545085433070867
0
LINE
8
BLACK
6
CONTINUOUS
10
6.1857296850393704
20
-3.6545085433070867
11
6.1938786220472437
21
-3.6463596062992125
0
LINE
8
BLACK
6
CONTINUOUS
10
6.1938786220472437
20
-3.6463596062992125
11
6.2030214566929134
21
-3.6393440157480312
0
LINE
8
BLACK
6
CONTINUOUS
10
6.2030214566929134
20
-3.6393440157480312
11
6.2130018503937006
21
-3.6335818503937007
0
LINE
8
BLACK
6
CONTINUOUS
10
6.2130018503937006
20
-3.6335818503937007
11
6.2236489370078738
21
-3.6291716929133857
0
LINE
8
BLACK
6
CONTINUOUS
10
6.2236489370078738
20
-3.6291716929133857
11
6.2347805905511811
21
-3.6261889763779527
0
LINE
8
BLACK
6
CONTINUOUS
10
6.2347805905511811
20
-3.6261889763779527
11
6.2462063385826774
21
-3.6246847244094487
0
LINE
8
BLACK
6
CONTINUOUS
10
6.2462063385826774
20
-3.6246847244094487
11
6.2577306692913384
21
-3.6246847244094487
0
LINE
8
BLACK
6
CONTINUOUS
10
6.2577306692913384
20
-3.6246847244094487
11
6.2691564173228347
21
-3.6261889763779527
0
LINE
8
BLACK
6
CONTINUOUS
10
6.1697716929133861
20
-3.717985905511811
11
6.1711781102362204
21
-3.7286686220472438
0
LINE
8
BLACK
6
CONTINUOUS
10
6.1711781102362204
20
-3.7286686220472438
11
6.1739668503937004
21
-3.7390764173228344
0
LINE
8
BLACK
6
CONTINUOUS
10
6.1739668503937004
20
-3.7390764173228344
11
6.1780902362204726
21
-3.7490311417322832
0
LINE
8
BLACK
6
CONTINUOUS
10
6.1780902362204726
20
-3.7490311417322832
11
6.1834777165354327
21
-3.7583625196850394
0
LINE
8
BLACK
6
CONTINUOUS
10
6.1834777165354327
20
-3.7583625196850394
11
6.1900370472440942
21
-3.7669108267716536
0
LINE
8
BLACK
6
CONTINUOUS
10
6.1900370472440942
20
-3.7669108267716536
11
6.1976561023622043
21
-3.7745298818897637
0
LINE
8
BLACK
6
CONTINUOUS
10
6.1976561023622043
20
-3.7745298818897637
11
6.2062044094488185
21
-3.7810892125984252
0
LINE
8
BLACK
6
CONTINUOUS
10
6.2062044094488185
20
-3.7810892125984252
11
6.2155357874015751
21
-3.7864766929133857
0
LINE
8
BLACK
6
CONTINUOUS
10
6.2155357874015751
20
-3.7864766929133857
11
6.2254905118110235
21
-3.7906000787401575
0
LINE
8
BLACK
6
CONTINUOUS
10
6.2254905118110235
20
-3.7906000787401575
11
6.2358983070866136
21
-3.7933888188976379
0
LINE
8
BLACK
6
CONTINUOUS
10
6.2358983070866136
20
-3.7933888188976379
11
6.2465810236220474
21
-3.7947952362204722
0
LINE
8
BLACK
6
CONTINUOUS
10
6.2465810236220474
20
-3.7947952362204722
11
6.2573559842519684
21
-3.7947952362204722
0
LINE
8
BLACK
6
CONTINUOUS
10
6.2573559842519684
20
-3.7947952362204722
11
6.2680387007874012
21
-3.7933888188976379
0
LINE
8
BLACK
6
CONTINUOUS
10
6.2680387007874012
20
-3.7933888188976379
11
6.2784464960629922
21
-3.7906000787401575
0
LINE
8
BLACK
6
CONTINUOUS
10
6.2784464960629922
20
-3.7906000787401575
11
6.2884012204724407
21
-3.7864766929133857
0
LINE
8
BLACK
6
CONTINUOUS
10
6.2884012204724407
20
-3.7864766929133857
11
6.2977325984251964
21
-3.7810892125984252
0
LINE
8
BLACK
6
CONTINUOUS
10
6.2977325984251964
20
-3.7810892125984252
11
6.3062809055118105
21
-3.7745298818897637
0
LINE
8
BLACK
6
CONTINUOUS
10
6.3062809055118105
20
-3.7745298818897637
11
6.3138999606299215
21
-3.7669108267716536
0
LINE
8
BLACK
6
CONTINUOUS
10
6.3138999606299215
20
-3.7669108267716536
11
6.3204592913385822
21
-3.7583625196850394
0
LINE
8
BLACK
6
CONTINUOUS
10
6.3204592913385822
20
-3.7583625196850394
11
6.3258467716535431
21
-3.7490311417322832
0
LINE
8
BLACK
6
CONTINUOUS
10
6.3258467716535431
20
-3.7490311417322832
11
6.3299701574803144
21
-3.7390764173228344
0
LINE
8
BLACK
6
CONTINUOUS
10
6.3299701574803144
20
-3.7390764173228344
11
6.3327588976377953
21
-3.7286686220472438
0
LINE
8
BLACK
6
CONTINUOUS
10
6.3327588976377953
20
-3.7286686220472438
11
6.3341653149606296
21
-3.717985905511811
0
LINE
8
BLACK
6
CONTINUOUS
10
6.3341653149606296
20
-3.717985905511811
11
6.3341653149606296
21
-3.7072109448818895
0
LINE
8
BLACK
6
CONTINUOUS
10
6.3341653149606296
20
-3.7072109448818895
11
6.3327588976377953
21
-3.6965282283464567
0
LINE
8
BLACK
6
CONTINUOUS
10
6.3327588976377953
20
-3.6965282283464567
11
6.3299701574803144
21
-3.6861204330708661
0
LINE
8
BLACK
6
CONTINUOUS
10
6.3299701574803144
20
-3.6861204330708661
11
6.3258467716535431
21
-3.6761657086614172
0
LINE
8
BLACK
6
CONTINUOUS
10
6.3258467716535431
20
-3.6761657086614172
11
6.3204592913385822
21
-3.6668343307086615
0
LINE
8
BLACK
6
CONTINUOUS
10
6.3204592913385822
20
-3.6668343307086615
11
6.3138999606299215
21
-3.6582860236220474
0
LINE
8
BLACK
6
CONTINUOUS
10
6.3138999606299215
20
-3.6582860236220474
11
6.3062809055118105
21
-3.6506669685039368
0
LINE
8
BLACK
6
CONTINUOUS
10
6.3062809055118105
20
-3.6506669685039368
11
6.2977325984251964
21
-3.6441076377952757
0
LINE
8
BLACK
6
CONTINUOUS
10
6.2977325984251964
20
-3.6441076377952757
11
6.2884012204724407
21
-3.6387201574803147
0
LINE
8
BLACK
6
CONTINUOUS
10
6.2884012204724407
20
-3.6387201574803147
11
6.2784464960629922
21
-3.6345967716535434
0
LINE
8
BLACK
6
CONTINUOUS
10
6.2784464960629922
20
-3.6345967716535434
11
6.2680387007874012
21
-3.631808031496063
0
LINE
8
BLACK
6
CONTINUOUS
10
6.2680387007874012
20
-3.631808031496063
11
6.2573559842519684
21
-3.6304016141732283
0
LINE
8
BLACK
6
CONTINUOUS
10
6.2573559842519684
20
-3.6304016141732283
11
6.2465810236220474
21
-3.6304016141732283
0
LINE
8
BLACK
6
CONTINUOUS
10
6.2465810236220474
20
-3.6304016141732283
11
6.2358983070866136
21
-3.631808031496063
0
LINE
8
BLACK
6
CONTINUOUS
10
6.2358983070866136
20
-3.631808031496063
11
6.2254905118110235
21
-3.6345967716535434
0
LINE
8
BLACK
6
CONTINUOUS
10
6.2254905118110235
20
-3.6345967716535434
11
6.2155357874015751
21
-3.6387201574803147
0
LINE
8
BLACK
6
CONTINUOUS
10
6.2155357874015751
20
-3.6387201574803147
11
6.2062044094488185
21
-3.6441076377952757
0
LINE
8
BLACK
6
CONTINUOUS
10
6.2062044094488185
20
-3.6441076377952757
11
6.1976561023622043
21
-3.6506669685039368
0
LINE
8
BLACK
6
CONTINUOUS
10
6.1976561023622043
20
-3.6506669685039368
11
6.1900370472440942
21
-3.6582860236220474
0
LINE
8
BLACK
6
CONTINUOUS
10
6.1900370472440942
20
-3.6582860236220474
11
6.1834777165354327
21
-3.6668343307086615
0
LINE
8
BLACK
6
CONTINUOUS
10
6.1834777165354327
20
-3.6668343307086615
11
6.1780902362204726
21
-3.6761657086614172
0
LINE
8
BLACK
6
CONTINUOUS
10
6.1780902362204726
20
-3.6761657086614172
11
6.1739668503937004
21
-3.6861204330708661
0
LINE
8
BLACK
6
CONTINUOUS
10
6.1739668503937004
20
-3.6861204330708661
11
6.1711781102362204
21
-3.6965282283464567
0
LINE
8
BLACK
6
CONTINUOUS
10
6.1711781102362204
20
-3.6965282283464567
11
6.1697716929133861
21
-3.7072109448818895
0
LINE
8
BLACK
6
CONTINUOUS
10
6.1697716929133861
20
-3.7072109448818895
11
6.1697716929133861
21
-3.717985905511811
0
LINE
8
BLACK
6
CONTINUOUS
10
6.3903398425196851
20
-3.5719071259842519
11
6.3914042519685035
21
-3.5723480314960629
0
LINE
8
BLACK
6
CONTINUOUS
10
6.3914042519685035
20
-3.5723480314960629
11
6.3922188976377949
21
-3.5731626771653544
0
LINE
8
BLACK
6
CONTINUOUS
10
6.3922188976377949
20
-3.5731626771653544
11
6.3926598031496065
21
-3.5742270866141732
0
LINE
8
BLACK
6
CONTINUOUS
10
6.3926598031496065
20
-3.5742270866141732
11
6.3927165354330704
21
-3.5748031496062991
0
LINE
8
BLACK
6
CONTINUOUS
10
6.3927165354330704
20
-3.5748031496062991
11
6.3927165354330704
21
-3.8503937007874014
0
LINE
8
BLACK
6
CONTINUOUS
10
6.3927165354330704
20
-3.8503937007874014
11
6.3926598031496065
21
-3.8509697637795273
0
LINE
8
BLACK
6
CONTINUOUS
10
6.3926598031496065
20
-3.8509697637795273
11
6.3922188976377949
21
-3.8520341732283465
0
LINE
8
BLACK
6
CONTINUOUS
10
6.3922188976377949
20
-3.8520341732283465
11
6.3914042519685035
21
-3.8528488188976375
0
LINE
8
BLACK
6
CONTINUOUS
10
6.3914042519685035
20
-3.8528488188976375
11
6.3903398425196851
21
-3.8532897244094486
0
LINE
8
BLACK
6
CONTINUOUS
10
6.3903398425196851
20
-3.8532897244094486
11
6.3897637795275593
21
-3.8533464566929134
0
LINE
8
BLACK
6
CONTINUOUS
10
6.3897637795275593
20
-3.8533464566929134
11
6.1141732283464565
21
-3.8533464566929134
0
LINE
8
BLACK
6
CONTINUOUS
10
6.1141732283464565
20
-3.8533464566929134
11
6.1135971653543306
21
-3.8532897244094486
0
LINE
8
BLACK
6
CONTINUOUS
10
6.1135971653543306
20
-3.8532897244094486
11
6.1125327559055114
21
-3.8528488188976375
0
LINE
8
BLACK
6
CONTINUOUS
10
6.1125327559055114
20
-3.8528488188976375
11
6.1117181102362199
21
-3.8520341732283465
0
LINE
8
BLACK
6
CONTINUOUS
10
6.1117181102362199
20
-3.8520341732283465
11
6.1112772047244093
21
-3.8509697637795273
0
LINE
8
BLACK
6
CONTINUOUS
10
6.1112772047244093
20
-3.8509697637795273
11
6.1112204724409445
21
-3.8503937007874014
0
LINE
8
BLACK
6
CONTINUOUS
10
6.1112204724409445
20
-3.8503937007874014
11
6.1112204724409445
21
-3.5748031496062991
0
LINE
8
BLACK
6
CONTINUOUS
10
6.1112204724409445
20
-3.5748031496062991
11
6.1112772047244093
21
-3.5742270866141732
0
LINE
8
BLACK
6
CONTINUOUS
10
6.1112772047244093
20
-3.5742270866141732
11
6.1117181102362199
21
-3.5731626771653544
0
LINE
8
BLACK
6
CONTINUOUS
10
6.1117181102362199
20
-3.5731626771653544
11
6.1125327559055114
21
-3.5723480314960629
0
LINE
8
BLACK
6
CONTINUOUS
10
6.1125327559055114
20
-3.5723480314960629
11
6.1135971653543306
21
-3.5719071259842519
0
LINE
8
BLACK
6
CONTINUOUS
10
6.1135971653543306
20
-3.5719071259842519
11
6.1141732283464565
21
-3.5718503937007875
0
LINE
8
BLACK
6
CONTINUOUS
10
6.1141732283464565
20
-3.5718503937007875
11
6.3897637795275593
21
-3.5718503937007875
0
LINE
8
BLACK
6
CONTINUOUS
10
6.3897637795275593
20
-3.5718503937007875
11
6.3903398425196851
21
-3.5719071259842519
0
LINE
8
BLACK
6
CONTINUOUS
10
6.1171259842519685
20
-3.7954724409448817
11
6.1171259842519685
21
-3.8474409448818898
0
LINE
8
BLACK
6
CONTINUOUS
10
6.1171259842519685
20
-3.8474409448818898
11
6.1690944881889767
21
-3.8474409448818898
0
LINE
8
BLACK
6
CONTINUOUS
10
6.1690944881889767
20
-3.8474409448818898
11
6.1690944881889767
21
-3.8356299212598426
0
LINE
8
BLACK
6
CONTINUOUS
10
6.1690944881889767
20
-3.8356299212598426
11
6.1318897637795278
21
-3.8356299212598426
0
LINE
8
BLACK
6
CONTINUOUS
10
6.1318897637795278
20
-3.8356299212598426
11
6.131313700787401
21
-3.8355731889763778
0
LINE
8
BLACK
6
CONTINUOUS
10
6.131313700787401
20
-3.8355731889763778
11
6.1302492913385827
21
-3.8351322834645667
0
LINE
8
BLACK
6
CONTINUOUS
10
6.1302492913385827
20
-3.8351322834645667
11
6.1294346456692912
21
-3.8343176377952757
0
LINE
8
BLACK
6
CONTINUOUS
10
6.1294346456692912
20
-3.8343176377952757
11
6.1289937401574806
21
-3.8332532283464564
0
LINE
8
BLACK
6
CONTINUOUS
10
6.1289937401574806
20
-3.8332532283464564
11
6.1289370078740157
21
-3.8326771653543306
0
LINE
8
BLACK
6
CONTINUOUS
10
6.1289370078740157
20
-3.8326771653543306
11
6.1289370078740157
21
-3.7954724409448817
0
LINE
8
BLACK
6
CONTINUOUS
10
6.1289370078740157
20
-3.7954724409448817
11
6.1171259842519685
21
-3.7954724409448817
0
LINE
8
BLACK
6
CONTINUOUS
10
6.1749999999999998
20
-3.5777559055118111
11
6.1749999999999998
21
-3.6326771653543308
0
LINE
8
BLACK
6
CONTINUOUS
10
6.1749999999999998
20
-3.6326771653543308
11
6.174943267716535
21
-3.6332532283464567
0
LINE
8
BLACK
6
CONTINUOUS
10
6.174943267716535
20
-3.6332532283464567
11
6.1745023622047244
21
-3.6343176377952755
0
LINE
8
BLACK
6
CONTINUOUS
10
6.1745023622047244
20
-3.6343176377952755
11
6.1736877165354329
21
-3.635132283464567
0
LINE
8
BLACK
6
CONTINUOUS
10
6.1736877165354329
20
-3.635132283464567
11
6.1726233070866137
21
-3.635573188976378
0
LINE
8
BLACK
6
CONTINUOUS
10
6.1726233070866137
20
-3.635573188976378
11
6.1720472440944878
21
-3.6356299212598424
0
LINE
8
BLACK
6
CONTINUOUS
10
6.1720472440944878
20
-3.6356299212598424
11
6.1171259842519685
21
-3.6356299212598424
0
LINE
8
BLACK
6
CONTINUOUS
10
6.1171259842519685
20
-3.6356299212598424
11
6.1171259842519685
21
-3.7895669291338581
0
LINE
8
BLACK
6
CONTINUOUS
10
6.1171259842519685
20
-3.7895669291338581
11
6.1720472440944878
21
-3.7895669291338581
0
LINE
8
BLACK
6
CONTINUOUS
10
6.1720472440944878
20
-3.7895669291338581
11
6.1726233070866137
21
-3.7896236614173229
0
LINE
8
BLACK
6
CONTINUOUS
10
6.1726233070866137
20
-3.7896236614173229
11
6.1736877165354329
21
-3.790064566929134
0
LINE
8
BLACK
6
CONTINUOUS
10
6.1736877165354329
20
-3.790064566929134
11
6.1745023622047244
21
-3.790879212598425
0
LINE
8
BLACK
6
CONTINUOUS
10
6.1745023622047244
20
-3.790879212598425
11
6.174943267716535
21
-3.7919436220472442
0
LINE
8
BLACK
6
CONTINUOUS
10
6.174943267716535
20
-3.7919436220472442
11
6.1749999999999998
21
-3.7925196850393701
0
LINE
8
BLACK
6
CONTINUOUS
10
6.1749999999999998
20
-3.7925196850393701
11
6.1749999999999998
21
-3.8474409448818898
0
LINE
8
BLACK
6
CONTINUOUS
10
6.1749999999999998
20
-3.8474409448818898
11
6.3289370078740159
21
-3.8474409448818898
0
LINE
8
BLACK
6
CONTINUOUS
10
6.3289370078740159
20
-3.8474409448818898
11
6.3289370078740159
21
-3.7925196850393701
0
LINE
8
BLACK
6
CONTINUOUS
10
6.3289370078740159
20
-3.7925196850393701
11
6.3289937401574798
21
-3.7919436220472442
0
LINE
8
BLACK
6
CONTINUOUS
10
6.3289937401574798
20
-3.7919436220472442
11
6.3294346456692914
21
-3.790879212598425
0
LINE
8
BLACK
6
CONTINUOUS
10
6.3294346456692914
20
-3.790879212598425
11
6.3302492913385828
21
-3.790064566929134
0
LINE
8
BLACK
6
CONTINUOUS
10
6.3302492913385828
20
-3.790064566929134
11
6.3313137007874012
21
-3.7896236614173229
0
LINE
8
BLACK
6
CONTINUOUS
10
6.3313137007874012
20
-3.7896236614173229
11
6.3318897637795271
21
-3.7895669291338581
0
LINE
8
BLACK
6
CONTINUOUS
10
6.3318897637795271
20
-3.7895669291338581
11
6.3868110236220472
21
-3.7895669291338581
0
LINE
8
BLACK
6
CONTINUOUS
10
6.3868110236220472
20
-3.7895669291338581
11
6.3868110236220472
21
-3.6356299212598424
0
LINE
8
BLACK
6
CONTINUOUS
10
6.3868110236220472
20
-3.6356299212598424
11
6.3318897637795271
21
-3.6356299212598424
0
LINE
8
BLACK
6
CONTINUOUS
10
6.3318897637795271
20
-3.6356299212598424
11
6.3313137007874012
21
-3.635573188976378
0
LINE
8
BLACK
6
CONTINUOUS
10
6.3313137007874012
20
-3.635573188976378
11
6.3302492913385828
21
-3.635132283464567
0
LINE
8
BLACK
6
CONTINUOUS
10
6.3302492913385828
20
-3.635132283464567
11
6.3294346456692914
21
-3.6343176377952755
0
LINE
8
BLACK
6
CONTINUOUS
10
6.3294346456692914
20
-3.6343176377952755
11
6.3289937401574798
21
-3.6332532283464567
0
LINE
8
BLACK
6
CONTINUOUS
10
6.3289937401574798
20
-3.6332532283464567
11
6.3289370078740159
21
-3.6326771653543308
0
LINE
8
BLACK
6
CONTINUOUS
10
6.3289370078740159
20
-3.6326771653543308
11
6.3289370078740159
21
-3.5777559055118111
0
LINE
8
BLACK
6
CONTINUOUS
10
6.3289370078740159
20
-3.5777559055118111
11
6.1749999999999998
21
-3.5777559055118111
0
LINE
8
BLACK
6
CONTINUOUS
10
6.375
20
-3.7954724409448817
11
6.375
21
-3.8326771653543306
0
LINE
8
BLACK
6
CONTINUOUS
10
6.375
20
-3.8326771653543306
11
6.3749432677165352
21
-3.8332532283464564
0
LINE
8
BLACK
6
CONTINUOUS
10
6.3749432677165352
20
-3.8332532283464564
11
6.3745023622047245
21
-3.8343176377952757
0
LINE
8
BLACK
6
CONTINUOUS
10
6.3745023622047245
20
-3.8343176377952757
11
6.3736877165354331
21
-3.8351322834645667
0
LINE
8
BLACK
6
CONTINUOUS
10
6.3736877165354331
20
-3.8351322834645667
11
6.3726233070866138
21
-3.8355731889763778
0
LINE
8
BLACK
6
CONTINUOUS
10
6.3726233070866138
20
-3.8355731889763778
11
6.372047244094488
21
-3.8356299212598426
0
LINE
8
BLACK
6
CONTINUOUS
10
6.372047244094488
20
-3.8356299212598426
11
6.3348425196850391
21
-3.8356299212598426
0
LINE
8
BLACK
6
CONTINUOUS
10
6.3348425196850391
20
-3.8356299212598426
11
6.3348425196850391
21
-3.8474409448818898
0
LINE
8
BLACK
6
CONTINUOUS
10
6.3348425196850391
20
-3.8474409448818898
11
6.3868110236220472
21
-3.8474409448818898
0
LINE
8
BLACK
6
CONTINUOUS
10
6.3868110236220472
20
-3.8474409448818898
11
6.3868110236220472
21
-3.7954724409448817
0
LINE
8
BLACK
6
CONTINUOUS
10
6.3868110236220472
20
-3.7954724409448817
11
6.375
21
-3.7954724409448817
0
LINE
8
BLACK
6
CONTINUOUS
10
6.3348425196850391
20
-3.7954724409448817
11
6.3348425196850391
21
-3.829724409448819
0
LINE
8
BLACK
6
CONTINUOUS
10
6.3348425196850391
20
-3.829724409448819
11
6.3690944881889759
21
-3.829724409448819
0
LINE
8
BLACK
6
CONTINUOUS
10
6.3690944881889759
20
-3.829724409448819
11
6.3690944881889759
21
-3.7954724409448817
0
LINE
8
BLACK
6
CONTINUOUS
10
6.3690944881889759
20
-3.7954724409448817
11
6.3348425196850391
21
-3.7954724409448817
0
LINE
8
BLACK
6
CONTINUOUS
10
6.1348425196850389
20
-3.7954724409448817
11
6.1348425196850389
21
-3.829724409448819
0
LINE
8
BLACK
6
CONTINUOUS
10
6.1348425196850389
20
-3.829724409448819
11
6.1690944881889767
21
-3.829724409448819
0
LINE
8
BLACK
6
CONTINUOUS
10
6.1690944881889767
20
-3.829724409448819
11
6.1690944881889767
21
-3.7954724409448817
0
LINE
8
BLACK
6
CONTINUOUS
10
6.1690944881889767
20
-3.7954724409448817
11
6.1348425196850389
21
-3.7954724409448817
0
LINE
8
BLACK
6
CONTINUOUS
10
6.3348425196850391
20
-3.5954724409448819
11
6.3348425196850391
21
-3.6297244094488188
0
LINE
8
BLACK
6
CONTINUOUS
10
6.3348425196850391
20
-3.6297244094488188
11
6.3690944881889759
21
-3.6297244094488188
0
LINE
8
BLACK
6
CONTINUOUS
10
6.3690944881889759
20
-3.6297244094488188
11
6.3690944881889759
21
-3.5954724409448819
0
LINE
8
BLACK
6
CONTINUOUS
10
6.3690944881889759
20
-3.5954724409448819
11
6.3348425196850391
21
-3.5954724409448819
0
LINE
8
BLACK
6
CONTINUOUS
10
6.3348425196850391
20
-3.5777559055118111
11
6.3348425196850391
21
-3.5895669291338583
0
LINE
8
BLACK
6
CONTINUOUS
10
6.3348425196850391
20
-3.5895669291338583
11
6.372047244094488
21
-3.5895669291338583
0
LINE
8
BLACK
6
CONTINUOUS
10
6.372047244094488
20
-3.5895669291338583
11
6.3726233070866138
21
-3.5896236614173227
0
LINE
8
BLACK
6
CONTINUOUS
10
6.3726233070866138
20
-3.5896236614173227
11
6.3736877165354331
21
-3.5900645669291338
0
LINE
8
BLACK
6
CONTINUOUS
10
6.3736877165354331
20
-3.5900645669291338
11
6.3745023622047245
21
-3.5908792125984252
0
LINE
8
BLACK
6
CONTINUOUS
10
6.3745023622047245
20
-3.5908792125984252
11
6.3749432677165352
21
-3.591943622047244
0
LINE
8
BLACK
6
CONTINUOUS
10
6.3749432677165352
20
-3.591943622047244
11
6.375
21
-3.5925196850393699
0
LINE
8
BLACK
6
CONTINUOUS
10
6.375
20
-3.5925196850393699
11
6.375
21
-3.6297244094488188
0
LINE
8
BLACK
6
CONTINUOUS
10
6.375
20
-3.6297244094488188
11
6.3868110236220472
21
-3.6297244094488188
0
LINE
8
BLACK
6
CONTINUOUS
10
6.3868110236220472
20
-3.6297244094488188
11
6.3868110236220472
21
-3.5777559055118111
0
LINE
8
BLACK
6
CONTINUOUS
10
6.3868110236220472
20
-3.5777559055118111
11
6.3348425196850391
21
-3.5777559055118111
0
LINE
8
BLACK
6
CONTINUOUS
10
6.1171259842519685
20
-3.5777559055118111
11
6.1171259842519685
21
-3.6297244094488188
0
LINE
8
BLACK
6
CONTINUOUS
10
6.1171259842519685
20
-3.6297244094488188
11
6.1289370078740157
21
-3.6297244094488188
0
LINE
8
BLACK
6
CONTINUOUS
10
6.1289370078740157
20
-3.6297244094488188
11
6.1289370078740157
21
-3.5925196850393699
0
LINE
8
BLACK
6
CONTINUOUS
10
6.1289370078740157
20
-3.5925196850393699
11
6.1289937401574806
21
-3.591943622047244
0
LINE
8
BLACK
6
CONTINUOUS
10
6.1289937401574806
20
-3.591943622047244
11
6.1294346456692912
21
-3.5908792125984252
0
LINE
8
BLACK
6
CONTINUOUS
10
6.1294346456692912
20
-3.5908792125984252
11
6.1302492913385827
21
-3.5900645669291338
0
LINE
8
BLACK
6
CONTINUOUS
10
6.1302492913385827
20
-3.5900645669291338
11
6.131313700787401
21
-3.5896236614173227
0
LINE
8
BLACK
6
CONTINUOUS
10
6.131313700787401
20
-3.5896236614173227
11
6.1318897637795278
21
-3.5895669291338583
0
LINE
8
BLACK
6
CONTINUOUS
10
6.1318897637795278
20
-3.5895669291338583
11
6.1690944881889767
21
-3.5895669291338583
0
LINE
8
BLACK
6
CONTINUOUS
10
6.1690944881889767
20
-3.5895669291338583
11
6.1690944881889767
21
-3.5777559055118111
0
LINE
8
BLACK
6
CONTINUOUS
10
6.1690944881889767
20
-3.5777559055118111
11
6.1171259842519685
21
-3.5777559055118111
0
LINE
8
BLACK
6
CONTINUOUS
10
6.1348425196850389
20
-3.5954724409448819
11
6.1348425196850389
21
-3.6297244094488188
0
LINE
8
BLACK
6
CONTINUOUS
10
6.1348425196850389
20
-3.6297244094488188
11
6.1690944881889767
21
-3.6297244094488188
0
LINE
8
BLACK
6
CONTINUOUS
10
6.1690944881889767
20
-3.6297244094488188
11
6.1690944881889767
21
-3.5954724409448819
0
LINE
8
BLACK
6
CONTINUOUS
10
6.1690944881889767
20
-3.5954724409448819
11
6.1348425196850389
21
-3.5954724409448819
0
LINE
8
BLACK
6
CONTINUOUS
10
5.0594822834645665
20
-3.2083996062992126
11
5.0726092913385825
21
-3.2113957480314959
0
LINE
8
BLACK
6
CONTINUOUS
10
5.0726092913385825
20
-3.2113957480314959
11
5.0853183070866139
21
-3.2158428346456693
0
LINE
8
BLACK
6
CONTINUOUS
10
5.0853183070866139
20
-3.2158428346456693
11
5.0974494881889765
21
-3.2216848818897637
0
LINE
8
BLACK
6
CONTINUOUS
10
5.0974494881889765
20
-3.2216848818897637
11
5.1088502755905507
21
-3.2288484645669291
0
LINE
8
BLACK
6
CONTINUOUS
10
5.1088502755905507
20
-3.2288484645669291
11
5.1193773228346453
21
-3.237243503937008
0
LINE
8
BLACK
6
CONTINUOUS
10
5.1193773228346453
20
-3.237243503937008
11
5.1288982283464568
21
-3.2467644094488186
0
LINE
8
BLACK
6
CONTINUOUS
10
5.1288982283464568
20
-3.2467644094488186
11
5.1372932677165357
21
-3.2572914566929132
0
LINE
8
BLACK
6
CONTINUOUS
10
5.1372932677165357
20
-3.2572914566929132
11
5.1444568503937003
21
-3.2686922440944883
0
LINE
8
BLACK
6
CONTINUOUS
10
5.1444568503937003
20
-3.2686922440944883
11
5.1502988976377955
21
-3.2808234251968504
0
LINE
8
BLACK
6
CONTINUOUS
10
5.1502988976377955
20
-3.2808234251968504
11
5.1547459842519681
21
-3.2935324409448818
0
LINE
8
BLACK
6
CONTINUOUS
10
5.1547459842519681
20
-3.2935324409448818
11
5.1577421259842522
21
-3.3066594488188974
0
LINE
8
BLACK
6
CONTINUOUS
10
5.1577421259842522
20
-3.3066594488188974
11
5.1592496850393701
21
-3.3200393700787401
0
LINE
8
BLACK
6
CONTINUOUS
10
5.1592496850393701
20
-3.3200393700787401
11
5.1592496850393701
21
-3.3335039370078738
0
LINE
8
BLACK
6
CONTINUOUS
10
5.1592496850393701
20
-3.3335039370078738
11
5.1577421259842522
21
-3.3468838582677165
0
LINE
8
BLACK
6
CONTINUOUS
10
5.1577421259842522
20
-3.3468838582677165
11
5.1547459842519681
21
-3.3600108661417321
0
LINE
8
BLACK
6
CONTINUOUS
10
5.1547459842519681
20
-3.3600108661417321
11
5.1502988976377955
21
-3.3727198818897639
0
LINE
8
BLACK
6
CONTINUOUS
10
5.1502988976377955
20
-3.3727198818897639
11
5.1444568503937003
21
-3.384851062992126
0
LINE
8
BLACK
6
CONTINUOUS
10
5.1444568503937003
20
-3.384851062992126
11
5.1372932677165357
21
-3.3962518503937007
0
LINE
8
BLACK
6
CONTINUOUS
10
5.1372932677165357
20
-3.3962518503937007
11
5.1288982283464568
21
-3.4067788976377953
0
LINE
8
BLACK
6
CONTINUOUS
10
5.1288982283464568
20
-3.4067788976377953
11
5.1193773228346453
21
-3.4162998031496064
0
LINE
8
BLACK
6
CONTINUOUS
10
5.1193773228346453
20
-3.4162998031496064
11
5.1088502755905507
21
-3.4246948425196848
0
LINE
8
BLACK
6
CONTINUOUS
10
5.1088502755905507
20
-3.4246948425196848
11
5.0974494881889765
21
-3.4318584251968502
0
LINE
8
BLACK
6
CONTINUOUS
10
5.0974494881889765
20
-3.4318584251968502
11
5.0853183070866139
21
-3.437700472440945
0
LINE
8
BLACK
6
CONTINUOUS
10
5.0853183070866139
20
-3.437700472440945
11
5.0726092913385825
21
-3.442147559055118
0
LINE
8
BLACK
6
CONTINUOUS
10
5.0726092913385825
20
-3.442147559055118
11
5.0594822834645665
21
-3.4451437007874013
0
LINE
8
BLACK
6
CONTINUOUS
10
5.0594822834645665
20
-3.4451437007874013
11
5.0461023622047243
21
-3.4466512598425196
0
LINE
8
BLACK
6
CONTINUOUS
10
5.0461023622047243
20
-3.4466512598425196
11
5.0326377952755905
21
-3.4466512598425196
0
LINE
8
BLACK
6
CONTINUOUS
10
5.0326377952755905
20
-3.4466512598425196
11
5.0192578740157483
21
-3.4451437007874013
0
LINE
8
BLACK
6
CONTINUOUS
10
5.0192578740157483
20
-3.4451437007874013
11
5.0061308661417323
21
-3.442147559055118
0
LINE
8
BLACK
6
CONTINUOUS
10
5.0061308661417323
20
-3.442147559055118
11
4.9934218503937009
21
-3.437700472440945
0
LINE
8
BLACK
6
CONTINUOUS
10
4.9934218503937009
20
-3.437700472440945
11
4.9812906692913383
21
-3.4318584251968502
0
LINE
8
BLACK
6
CONTINUOUS
10
4.9812906692913383
20
-3.4318584251968502
11
4.9698898818897641
21
-3.4246948425196848
0
LINE
8
BLACK
6
CONTINUOUS
10
4.9698898818897641
20
-3.4246948425196848
11
4.9593628346456695
21
-3.4162998031496064
0
LINE
8
BLACK
6
CONTINUOUS
10
4.9593628346456695
20
-3.4162998031496064
11
4.949841929133858
21
-3.4067788976377953
0
LINE
8
BLACK
6
CONTINUOUS
10
4.949841929133858
20
-3.4067788976377953
11
4.9414468897637791
21
-3.3962518503937007
0
LINE
8
BLACK
6
CONTINUOUS
10
4.9414468897637791
20
-3.3962518503937007
11
4.9342833070866137
21
-3.384851062992126
0
LINE
8
BLACK
6
CONTINUOUS
10
4.9342833070866137
20
-3.384851062992126
11
4.9284412598425194
21
-3.3727198818897639
0
LINE
8
BLACK
6
CONTINUOUS
10
4.9284412598425194
20
-3.3727198818897639
11
4.9239941732283468
21
-3.3600108661417321
0
LINE
8
BLACK
6
CONTINUOUS
10
4.9239941732283468
20
-3.3600108661417321
11
4.9209980314960626
21
-3.3468838582677165
0
LINE
8
BLACK
6
CONTINUOUS
10
4.9209980314960626
20
-3.3468838582677165
11
4.9194904724409447
21
-3.3335039370078738
0
LINE
8
BLACK
6
CONTINUOUS
10
4.9194904724409447
20
-3.3335039370078738
11
4.9194904724409447
21
-3.3202498425196851
0
LINE
8
BLACK
6
CONTINUOUS
10
4.9194904724409447
20
-3.3202498425196851
11
4.9194904724409447
21
-3.3200393700787401
0
LINE
8
BLACK
6
CONTINUOUS
10
4.9194904724409447
20
-3.3200393700787401
11
4.9209980314960626
21
-3.3066594488188974
0
LINE
8
BLACK
6
CONTINUOUS
10
4.9209980314960626
20
-3.3066594488188974
11
4.9239941732283468
21
-3.2935324409448818
0
LINE
8
BLACK
6
CONTINUOUS
10
4.9239941732283468
20
-3.2935324409448818
11
4.9284412598425194
21
-3.2808234251968504
0
LINE
8
BLACK
6
CONTINUOUS
10
4.9284412598425194
20
-3.2808234251968504
11
4.9342833070866137
21
-3.2686922440944883
0
LINE
8
BLACK
6
CONTINUOUS
10
4.9342833070866137
20
-3.2686922440944883
11
4.9414468897637791
21
-3.2572914566929132
0
LINE
8
BLACK
6
CONTINUOUS
10
4.9414468897637791
20
-3.2572914566929132
11
4.949841929133858
21
-3.2467644094488186
0
LINE
8
BLACK
6
CONTINUOUS
10
4.949841929133858
20
-3.2467644094488186
11
4.9593628346456695
21
-3.237243503937008
0
LINE
8
BLACK
6
CONTINUOUS
10
4.9593628346456695
20
-3.237243503937008
11
4.9698898818897641
21
-3.2288484645669291
0
LINE
8
BLACK
6
CONTINUOUS
10
4.9698898818897641
20
-3.2288484645669291
11
4.9812906692913383
21
-3.2216848818897637
0
LINE
8
BLACK
6
CONTINUOUS
10
4.9812906692913383
20
-3.2216848818897637
11
4.9934218503937009
21
-3.2158428346456693
0
LINE
8
BLACK
6
CONTINUOUS
10
4.9934218503937009
20
-3.2158428346456693
11
5.0061308661417323
21
-3.2113957480314959
0
LINE
8
BLACK
6
CONTINUOUS
10
5.0061308661417323
20
-3.2113957480314959
11
5.0192578740157483
21
-3.2083996062992126
0
LINE
8
BLACK
6
CONTINUOUS
10
5.0192578740157483
20
-3.2083996062992126
11
5.0326377952755905
21
-3.2068920472440943
0
LINE
8
BLACK
6
CONTINUOUS
10
5.0326377952755905
20
-3.2068920472440943
11
5.0461023622047243
21
-3.2068920472440943
0
LINE
8
BLACK
6
CONTINUOUS
10
5.0461023622047243
20
-3.2068920472440943
11
5.0594822834645665
21
-3.2083996062992126
0
LINE
8
BLACK
6
CONTINUOUS
10
4.9232385826771656
20
-3.3332934645669292
11
4.924698976377953
21
-3.3462550393700785
0
LINE
8
BLACK
6
CONTINUOUS
10
4.924698976377953
20
-3.3462550393700785
11
4.9276014566929129
21
-3.358971653543307
0
LINE
8
BLACK
6
CONTINUOUS
10
4.9276014566929129
20
-3.358971653543307
11
4.9319094881889765
21
-3.3712832677165352
0
LINE
8
BLACK
6
CONTINUOUS
10
4.9319094881889765
20
-3.3712832677165352
11
4.9375688976377949
21
-3.383035157480315
0
LINE
8
BLACK
6
CONTINUOUS
10
4.9375688976377949
20
-3.383035157480315
11
4.9445085433070863
21
-3.3940795275590552
0
LINE
8
BLACK
6
CONTINUOUS
10
4.9445085433070863
20
-3.3940795275590552
11
4.9526411023622048
21
-3.4042774015748032
0
LINE
8
BLACK
6
CONTINUOUS
10
4.9526411023622048
20
-3.4042774015748032
11
4.9618643307086616
21
-3.4135006299212596
0
LINE
8
BLACK
6
CONTINUOUS
10
4.9618643307086616
20
-3.4135006299212596
11
4.9720622047244092
21
-3.421633188976378
0
LINE
8
BLACK
6
CONTINUOUS
10
4.9720622047244092
20
-3.421633188976378
11
4.9831065748031493
21
-3.4285728346456694
0
LINE
8
BLACK
6
CONTINUOUS
10
4.9831065748031493
20
-3.4285728346456694
11
4.9948584645669287
21
-3.4342322440944879
0
LINE
8
BLACK
6
CONTINUOUS
10
4.9948584645669287
20
-3.4342322440944879
11
5.007170078740157
21
-3.438540275590551
0
LINE
8
BLACK
6
CONTINUOUS
10
5.007170078740157
20
-3.438540275590551
11
5.0198866929133859
21
-3.4414427559055119
0
LINE
8
BLACK
6
CONTINUOUS
10
5.0198866929133859
20
-3.4414427559055119
11
5.0328482677165356
21
-3.4429031496062992
0
LINE
8
BLACK
6
CONTINUOUS
10
5.0328482677165356
20
-3.4429031496062992
11
5.0458918897637792
21
-3.4429031496062992
0
LINE
8
BLACK
6
CONTINUOUS
10
5.0458918897637792
20
-3.4429031496062992
11
5.058853464566929
21
-3.4414427559055119
0
LINE
8
BLACK
6
CONTINUOUS
10
5.058853464566929
20
-3.4414427559055119
11
5.071570078740157
21
-3.438540275590551
0
LINE
8
BLACK
6
CONTINUOUS
10
5.071570078740157
20
-3.438540275590551
11
5.0838816929133861
21
-3.4342322440944879
0
LINE
8
BLACK
6
CONTINUOUS
10
5.0838816929133861
20
-3.4342322440944879
11
5.0956335826771655
21
-3.4285728346456694
0
LINE
8
BLACK
6
CONTINUOUS
10
5.0956335826771655
20
-3.4285728346456694
11
5.1066779527559056
21
-3.421633188976378
0
LINE
8
BLACK
6
CONTINUOUS
10
5.1066779527559056
20
-3.421633188976378
11
5.1168758267716532
21
-3.4135006299212596
0
LINE
8
BLACK
6
CONTINUOUS
10
5.1168758267716532
20
-3.4135006299212596
11
5.12609905511811
21
-3.4042774015748032
0
LINE
8
BLACK
6
CONTINUOUS
10
5.12609905511811
20
-3.4042774015748032
11
5.1342316141732285
21
-3.3940795275590552
0
LINE
8
BLACK
6
CONTINUOUS
10
5.1342316141732285
20
-3.3940795275590552
11
5.1411712598425199
21
-3.383035157480315
0
LINE
8
BLACK
6
CONTINUOUS
10
5.1411712598425199
20
-3.383035157480315
11
5.1468306692913384
21
-3.3712832677165352
0
LINE
8
BLACK
6
CONTINUOUS
10
5.1468306692913384
20
-3.3712832677165352
11
5.1511387007874019
21
-3.358971653543307
0
LINE
8
BLACK
6
CONTINUOUS
10
5.1511387007874019
20
-3.358971653543307
11
5.1540411811023619
21
-3.3462550393700785
0
LINE
8
BLACK
6
CONTINUOUS
10
5.1540411811023619
20
-3.3462550393700785
11
5.1555015748031492
21
-3.3332934645669292
0
LINE
8
BLACK
6
CONTINUOUS
10
5.1555015748031492
20
-3.3332934645669292
11
5.1555015748031492
21
-3.3202498425196851
0
LINE
8
BLACK
6
CONTINUOUS
10
5.1555015748031492
20
-3.3202498425196851
11
5.1540411811023619
21
-3.3072882677165354
0
LINE
8
BLACK
6
CONTINUOUS
10
5.1540411811023619
20
-3.3072882677165354
11
5.1511387007874019
21
-3.2945716535433069
0
LINE
8
BLACK
6
CONTINUOUS
10
5.1511387007874019
20
-3.2945716535433069
11
5.1468306692913384
21
-3.2822600393700787
0
LINE
8
BLACK
6
CONTINUOUS
10
5.1468306692913384
20
-3.2822600393700787
11
5.1411712598425199
21
-3.2705081496062993
0
LINE
8
BLACK
6
CONTINUOUS
10
5.1411712598425199
20
-3.2705081496062993
11
5.1342316141732285
21
-3.2594637795275592
0
LINE
8
BLACK
6
CONTINUOUS
10
5.1342316141732285
20
-3.2594637795275592
11
5.12609905511811
21
-3.2492659055118112
0
LINE
8
BLACK
6
CONTINUOUS
10
5.12609905511811
20
-3.2492659055118112
11
5.1168758267716532
21
-3.2400426771653543
0
LINE
8
BLACK
6
CONTINUOUS
10
5.1168758267716532
20
-3.2400426771653543
11
5.1066779527559056
21
-3.2319101181102363
0
LINE
8
BLACK
6
CONTINUOUS
10
5.1066779527559056
20
-3.2319101181102363
11
5.0956335826771655
21
-3.2249704724409449
0
LINE
8
BLACK
6
CONTINUOUS
10
5.0956335826771655
20
-3.2249704724409449
11
5.0838816929133861
21
-3.219311062992126
0
LINE
8
BLACK
6
CONTINUOUS
10
5.0838816929133861
20
-3.219311062992126
11
5.071570078740157
21
-3.2150030314960629
0
LINE
8
BLACK
6
CONTINUOUS
10
5.071570078740157
20
-3.2150030314960629
11
5.058853464566929
21
-3.2121005511811025
0
LINE
8
BLACK
6
CONTINUOUS
10
5.058853464566929
20
-3.2121005511811025
11
5.0458918897637792
21
-3.2106401574803147
0
LINE
8
BLACK
6
CONTINUOUS
10
5.0458918897637792
20
-3.2106401574803147
11
5.0328482677165356
21
-3.2106401574803147
0
LINE
8
BLACK
6
CONTINUOUS
10
5.0328482677165356
20
-3.2106401574803147
11
5.0198866929133859
21
-3.2121005511811025
0
LINE
8
BLACK
6
CONTINUOUS
10
5.0198866929133859
20
-3.2121005511811025
11
5.007170078740157
21
-3.2150030314960629
0
LINE
8
BLACK
6
CONTINUOUS
10
5.007170078740157
20
-3.2150030314960629
11
4.9948584645669287
21
-3.219311062992126
0
LINE
8
BLACK
6
CONTINUOUS
10
4.9948584645669287
20
-3.219311062992126
11
4.9831065748031493
21
-3.2249704724409449
0
LINE
8
BLACK
6
CONTINUOUS
10
4.9831065748031493
20
-3.2249704724409449
11
4.9720622047244092
21
-3.2319101181102363
0
LINE
8
BLACK
6
CONTINUOUS
10
4.9720622047244092
20
-3.2319101181102363
11
4.9618643307086616
21
-3.2400426771653543
0
LINE
8
BLACK
6
CONTINUOUS
10
4.9618643307086616
20
-3.2400426771653543
11
4.9526411023622048
21
-3.2492659055118112
0
LINE
8
BLACK
6
CONTINUOUS
10
4.9526411023622048
20
-3.2492659055118112
11
4.9445085433070863
21
-3.2594637795275592
0
LINE
8
BLACK
6
CONTINUOUS
10
4.9445085433070863
20
-3.2594637795275592
11
4.9375688976377949
21
-3.2705081496062993
0
LINE
8
BLACK
6
CONTINUOUS
10
4.9375688976377949
20
-3.2705081496062993
11
4.9319094881889765
21
-3.2822600393700787
0
LINE
8
BLACK
6
CONTINUOUS
10
4.9319094881889765
20
-3.2822600393700787
11
4.9276014566929129
21
-3.2945716535433069
0
LINE
8
BLACK
6
CONTINUOUS
10
4.9276014566929129
20
-3.2945716535433069
11
4.924698976377953
21
-3.3072882677165354
0
LINE
8
BLACK
6
CONTINUOUS
10
4.924698976377953
20
-3.3072882677165354
11
4.9232385826771656
21
-3.3202498425196851
0
LINE
8
BLACK
6
CONTINUOUS
10
4.9232385826771656
20
-3.3202498425196851
11
4.9232385826771656
21
-3.3332934645669292
0
LINE
8
BLACK
6
CONTINUOUS
10
6.6594822834645671
20
-3.2083996062992126
11
6.6726092913385822
21
-3.2113957480314959
0
LINE
8
BLACK
6
CONTINUOUS
10
6.6726092913385822
20
-3.2113957480314959
11
6.6853183070866145
21
-3.2158428346456693
0
LINE
8
BLACK
6
CONTINUOUS
10
6.6853183070866145
20
-3.2158428346456693
11
6.6974494881889761
21
-3.2216848818897637
0
LINE
8
BLACK
6
CONTINUOUS
10
6.6974494881889761
20
-3.2216848818897637
11
6.7088502755905512
21
-3.2288484645669291
0
LINE
8
BLACK
6
CONTINUOUS
10
6.7088502755905512
20
-3.2288484645669291
11
6.7193773228346458
21
-3.237243503937008
0
LINE
8
BLACK
6
CONTINUOUS
10
6.7193773228346458
20
-3.237243503937008
11
6.7288982283464565
21
-3.2467644094488186
0
LINE
8
BLACK
6
CONTINUOUS
10
6.7288982283464565
20
-3.2467644094488186
11
6.7372932677165354
21
-3.2572914566929132
0
LINE
8
BLACK
6
CONTINUOUS
10
6.7372932677165354
20
-3.2572914566929132
11
6.7444568503937008
21
-3.2686922440944883
0
LINE
8
BLACK
6
CONTINUOUS
10
6.7444568503937008
20
-3.2686922440944883
11
6.7502988976377951
21
-3.2808234251968504
0
LINE
8
BLACK
6
CONTINUOUS
10
6.7502988976377951
20
-3.2808234251968504
11
6.7547459842519686
21
-3.2935324409448818
0
LINE
8
BLACK
6
CONTINUOUS
10
6.7547459842519686
20
-3.2935324409448818
11
6.7577421259842518
21
-3.3066594488188974
0
LINE
8
BLACK
6
CONTINUOUS
10
6.7577421259842518
20
-3.3066594488188974
11
6.7592496850393697
21
-3.3200393700787401
0
LINE
8
BLACK
6
CONTINUOUS
10
6.7592496850393697
20
-3.3200393700787401
11
6.7592496850393697
21
-3.3335039370078738
0
LINE
8
BLACK
6
CONTINUOUS
10
6.7592496850393697
20
-3.3335039370078738
11
6.7577421259842518
21
-3.3468838582677165
0
LINE
8
BLACK
6
CONTINUOUS
10
6.7577421259842518
20
-3.3468838582677165
11
6.7547459842519686
21
-3.3600108661417321
0
LINE
8
BLACK
6
CONTINUOUS
10
6.7547459842519686
20
-3.3600108661417321
11
6.7502988976377951
21
-3.3727198818897639
0
LINE
8
BLACK
6
CONTINUOUS
10
6.7502988976377951
20
-3.3727198818897639
11
6.7444568503937008
21
-3.384851062992126
0
LINE
8
BLACK
6
CONTINUOUS
10
6.7444568503937008
20
-3.384851062992126
11
6.7372932677165354
21
-3.3962518503937007
0
LINE
8
BLACK
6
CONTINUOUS
10
6.7372932677165354
20
-3.3962518503937007
11
6.7288982283464565
21
-3.4067788976377953
0
LINE
8
BLACK
6
CONTINUOUS
10
6.7288982283464565
20
-3.4067788976377953
11
6.7193773228346458
21
-3.4162998031496064
0
LINE
8
BLACK
6
CONTINUOUS
10
6.7193773228346458
20
-3.4162998031496064
11
6.7088502755905512
21
-3.4246948425196848
0
LINE
8
BLACK
6
CONTINUOUS
10
6.7088502755905512
20
-3.4246948425196848
11
6.6974494881889761
21
-3.4318584251968502
0
LINE
8
BLACK
6
CONTINUOUS
10
6.6974494881889761
20
-3.4318584251968502
11
6.6853183070866145
21
-3.437700472440945
0
LINE
8
BLACK
6
CONTINUOUS
10
6.6853183070866145
20
-3.437700472440945
11
6.6726092913385822
21
-3.442147559055118
0
LINE
8
BLACK
6
CONTINUOUS
10
6.6726092913385822
20
-3.442147559055118
11
6.6594822834645671
21
-3.4451437007874013
0
LINE
8
BLACK
6
CONTINUOUS
10
6.6594822834645671
20
-3.4451437007874013
11
6.6461023622047239
21
-3.4466512598425196
0
LINE
8
BLACK
6
CONTINUOUS
10
6.6461023622047239
20
-3.4466512598425196
11
6.6326377952755902
21
-3.4466512598425196
0
LINE
8
BLACK
6
CONTINUOUS
10
6.6326377952755902
20
-3.4466512598425196
11
6.6192578740157479
21
-3.4451437007874013
0
LINE
8
BLACK
6
CONTINUOUS
10
6.6192578740157479
20
-3.4451437007874013
11
6.6061308661417319
21
-3.442147559055118
0
LINE
8
BLACK
6
CONTINUOUS
10
6.6061308661417319
20
-3.442147559055118
11
6.5934218503937005
21
-3.437700472440945
0
LINE
8
BLACK
6
CONTINUOUS
10
6.5934218503937005
20
-3.437700472440945
11
6.581290669291338
21
-3.4318584251968502
0
LINE
8
BLACK
6
CONTINUOUS
10
6.581290669291338
20
-3.4318584251968502
11
6.5698898818897637
21
-3.4246948425196848
0
LINE
8
BLACK
6
CONTINUOUS
10
6.5698898818897637
20
-3.4246948425196848
11
6.5593628346456692
21
-3.4162998031496064
0
LINE
8
BLACK
6
CONTINUOUS
10
6.5593628346456692
20
-3.4162998031496064
11
6.5498419291338585
21
-3.4067788976377953
0
LINE
8
BLACK
6
CONTINUOUS
10
6.5498419291338585
20
-3.4067788976377953
11
6.5414468897637796
21
-3.3962518503937007
0
LINE
8
BLACK
6
CONTINUOUS
10
6.5414468897637796
20
-3.3962518503937007
11
6.5342833070866142
21
-3.384851062992126
0
LINE
8
BLACK
6
CONTINUOUS
10
6.5342833070866142
20
-3.384851062992126
11
6.5284412598425199
21
-3.3727198818897639
0
LINE
8
BLACK
6
CONTINUOUS
10
6.5284412598425199
20
-3.3727198818897639
11
6.5239941732283464
21
-3.3600108661417321
0
LINE
8
BLACK
6
CONTINUOUS
10
6.5239941732283464
20
-3.3600108661417321
11
6.5209980314960632
21
-3.3468838582677165
0
LINE
8
BLACK
6
CONTINUOUS
10
6.5209980314960632
20
-3.3468838582677165
11
6.5194904724409444
21
-3.3335039370078738
0
LINE
8
BLACK
6
CONTINUOUS
10
6.5194904724409444
20
-3.3335039370078738
11
6.5194904724409444
21
-3.3202498425196851
0
LINE
8
BLACK
6
CONTINUOUS
10
6.5194904724409444
20
-3.3202498425196851
11
6.5194904724409444
21
-3.3200393700787401
0
LINE
8
BLACK
6
CONTINUOUS
10
6.5194904724409444
20
-3.3200393700787401
11
6.5209980314960632
21
-3.3066594488188974
0
LINE
8
BLACK
6
CONTINUOUS
10
6.5209980314960632
20
-3.3066594488188974
11
6.5239941732283464
21
-3.2935324409448818
0
LINE
8
BLACK
6
CONTINUOUS
10
6.5239941732283464
20
-3.2935324409448818
11
6.5284412598425199
21
-3.2808234251968504
0
LINE
8
BLACK
6
CONTINUOUS
10
6.5284412598425199
20
-3.2808234251968504
11
6.5342833070866142
21
-3.2686922440944883
0
LINE
8
BLACK
6
CONTINUOUS
10
6.5342833070866142
20
-3.2686922440944883
11
6.5414468897637796
21
-3.2572914566929132
0
LINE
8
BLACK
6
CONTINUOUS
10
6.5414468897637796
20
-3.2572914566929132
11
6.5498419291338585
21
-3.2467644094488186
0
LINE
8
BLACK
6
CONTINUOUS
10
6.5498419291338585
20
-3.2467644094488186
11
6.5593628346456692
21
-3.237243503937008
0
LINE
8
BLACK
6
CONTINUOUS
10
6.5593628346456692
20
-3.237243503937008
11
6.5698898818897637
21
-3.2288484645669291
0
LINE
8
BLACK
6
CONTINUOUS
10
6.5698898818897637
20
-3.2288484645669291
11
6.581290669291338
21
-3.2216848818897637
0
LINE
8
BLACK
6
CONTINUOUS
10
6.581290669291338
20
-3.2216848818897637
11
6.5934218503937005
21
-3.2158428346456693
0
LINE
8
BLACK
6
CONTINUOUS
10
6.5934218503937005
20
-3.2158428346456693
11
6.6061308661417319
21
-3.2113957480314959
0
LINE
8
BLACK
6
CONTINUOUS
10
6.6061308661417319
20
-3.2113957480314959
11
6.6192578740157479
21
-3.2083996062992126
0
LINE
8
BLACK
6
CONTINUOUS
10
6.6192578740157479
20
-3.2083996062992126
11
6.6326377952755902
21
-3.2068920472440943
0
LINE
8
BLACK
6
CONTINUOUS
10
6.6326377952755902
20
-3.2068920472440943
11
6.6461023622047239
21
-3.2068920472440943
0
LINE
8
BLACK
6
CONTINUOUS
10
6.6461023622047239
20
-3.2068920472440943
11
6.6594822834645671
21
-3.2083996062992126
0
LINE
8
BLACK
6
CONTINUOUS
10
6.5232385826771653
20
-3.3332934645669292
11
6.5246989763779526
21
-3.3462550393700785
0
LINE
8
BLACK
6
CONTINUOUS
10
6.5246989763779526
20
-3.3462550393700785
11
6.5276014566929135
21
-3.358971653543307
0
LINE
8
BLACK
6
CONTINUOUS
10
6.5276014566929135
20
-3.358971653543307
11
6.5319094881889761
21
-3.3712832677165352
0
LINE
8
BLACK
6
CONTINUOUS
10
6.5319094881889761
20
-3.3712832677165352
11
6.5375688976377955
21
-3.383035157480315
0
LINE
8
BLACK
6
CONTINUOUS
10
6.5375688976377955
20
-3.383035157480315
11
6.5445085433070869
21
-3.3940795275590552
0
LINE
8
BLACK
6
CONTINUOUS
10
6.5445085433070869
20
-3.3940795275590552
11
6.5526411023622044
21
-3.4042774015748032
0
LINE
8
BLACK
6
CONTINUOUS
10
6.5526411023622044
20
-3.4042774015748032
11
6.5618643307086613
21
-3.4135006299212596
0
LINE
8
BLACK
6
CONTINUOUS
10
6.5618643307086613
20
-3.4135006299212596
11
6.5720622047244097
21
-3.421633188976378
0
LINE
8
BLACK
6
CONTINUOUS
10
6.5720622047244097
20
-3.421633188976378
11
6.5831065748031499
21
-3.4285728346456694
0
LINE
8
BLACK
6
CONTINUOUS
10
6.5831065748031499
20
-3.4285728346456694
11
6.5948584645669293
21
-3.4342322440944879
0
LINE
8
BLACK
6
CONTINUOUS
10
6.5948584645669293
20
-3.4342322440944879
11
6.6071700787401575
21
-3.438540275590551
0
LINE
8
BLACK
6
CONTINUOUS
10
6.6071700787401575
20
-3.438540275590551
11
6.6198866929133855
21
-3.4414427559055119
0
LINE
8
BLACK
6
CONTINUOUS
10
6.6198866929133855
20
-3.4414427559055119
11
6.6328482677165352
21
-3.4429031496062992
0
LINE
8
BLACK
6
CONTINUOUS
10
6.6328482677165352
20
-3.4429031496062992
11
6.6458918897637798
21
-3.4429031496062992
0
LINE
8
BLACK
6
CONTINUOUS
10
6.6458918897637798
20
-3.4429031496062992
11
6.6588534645669286
21
-3.4414427559055119
0
LINE
8
BLACK
6
CONTINUOUS
10
6.6588534645669286
20
-3.4414427559055119
11
6.6715700787401575
21
-3.438540275590551
0
LINE
8
BLACK
6
CONTINUOUS
10
6.6715700787401575
20
-3.438540275590551
11
6.6838816929133857
21
-3.4342322440944879
0
LINE
8
BLACK
6
CONTINUOUS
10
6.6838816929133857
20
-3.4342322440944879
11
6.6956335826771651
21
-3.4285728346456694
0
LINE
8
BLACK
6
CONTINUOUS
10
6.6956335826771651
20
-3.4285728346456694
11
6.7066779527559053
21
-3.421633188976378
0
LINE
8
BLACK
6
CONTINUOUS
10
6.7066779527559053
20
-3.421633188976378
11
6.7168758267716537
21
-3.4135006299212596
0
LINE
8
BLACK
6
CONTINUOUS
10
6.7168758267716537
20
-3.4135006299212596
11
6.7260990551181097
21
-3.4042774015748032
0
LINE
8
BLACK
6
CONTINUOUS
10
6.7260990551181097
20
-3.4042774015748032
11
6.7342316141732281
21
-3.3940795275590552
0
LINE
8
BLACK
6
CONTINUOUS
10
6.7342316141732281
20
-3.3940795275590552
11
6.7411712598425195
21
-3.383035157480315
0
LINE
8
BLACK
6
CONTINUOUS
10
6.7411712598425195
20
-3.383035157480315
11
6.746830669291338
21
-3.3712832677165352
0
LINE
8
BLACK
6
CONTINUOUS
10
6.746830669291338
20
-3.3712832677165352
11
6.7511387007874015
21
-3.358971653543307
0
LINE
8
BLACK
6
CONTINUOUS
10
6.7511387007874015
20
-3.358971653543307
11
6.7540411811023624
21
-3.3462550393700785
0
LINE
8
BLACK
6
CONTINUOUS
10
6.7540411811023624
20
-3.3462550393700785
11
6.7555015748031497
21
-3.3332934645669292
0
LINE
8
BLACK
6
CONTINUOUS
10
6.7555015748031497
20
-3.3332934645669292
11
6.7555015748031497
21
-3.3202498425196851
0
LINE
8
BLACK
6
CONTINUOUS
10
6.7555015748031497
20
-3.3202498425196851
11
6.7540411811023624
21
-3.3072882677165354
0
LINE
8
BLACK
6
CONTINUOUS
10
6.7540411811023624
20
-3.3072882677165354
11
6.7511387007874015
21
-3.2945716535433069
0
LINE
8
BLACK
6
CONTINUOUS
10
6.7511387007874015
20
-3.2945716535433069
11
6.746830669291338
21
-3.2822600393700787
0
LINE
8
BLACK
6
CONTINUOUS
10
6.746830669291338
20
-3.2822600393700787
11
6.7411712598425195
21
-3.2705081496062993
0
LINE
8
BLACK
6
CONTINUOUS
10
6.7411712598425195
20
-3.2705081496062993
11
6.7342316141732281
21
-3.2594637795275592
0
LINE
8
BLACK
6
CONTINUOUS
10
6.7342316141732281
20
-3.2594637795275592
11
6.7260990551181097
21
-3.2492659055118112
0
LINE
8
BLACK
6
CONTINUOUS
10
6.7260990551181097
20
-3.2492659055118112
11
6.7168758267716537
21
-3.2400426771653543
0
LINE
8
BLACK
6
CONTINUOUS
10
6.7168758267716537
20
-3.2400426771653543
11
6.7066779527559053
21
-3.2319101181102363
0
LINE
8
BLACK
6
CONTINUOUS
10
6.7066779527559053
20
-3.2319101181102363
11
6.6956335826771651
21
-3.2249704724409449
0
LINE
8
BLACK
6
CONTINUOUS
10
6.6956335826771651
20
-3.2249704724409449
11
6.6838816929133857
21
-3.219311062992126
0
LINE
8
BLACK
6
CONTINUOUS
10
6.6838816929133857
20
-3.219311062992126
11
6.6715700787401575
21
-3.2150030314960629
0
LINE
8
BLACK
6
CONTINUOUS
10
6.6715700787401575
20
-3.2150030314960629
11
6.6588534645669286
21
-3.2121005511811025
0
LINE
8
BLACK
6
CONTINUOUS
10
6.6588534645669286
20
-3.2121005511811025
11
6.6458918897637798
21
-3.2106401574803147
0
LINE
8
BLACK
6
CONTINUOUS
10
6.6458918897637798
20
-3.2106401574803147
11
6.6328482677165352
21
-3.2106401574803147
0
LINE
8
BLACK
6
CONTINUOUS
10
6.6328482677165352
20
-3.2106401574803147
11
6.6198866929133855
21
-3.2121005511811025
0
LINE
8
BLACK
6
CONTINUOUS
10
6.6198866929133855
20
-3.2121005511811025
11
6.6071700787401575
21
-3.2150030314960629
0
LINE
8
BLACK
6
CONTINUOUS
10
6.6071700787401575
20
-3.2150030314960629
11
6.5948584645669293
21
-3.219311062992126
0
LINE
8
BLACK
6
CONTINUOUS
10
6.5948584645669293
20
-3.219311062992126
11
6.5831065748031499
21
-3.2249704724409449
0
LINE
8
BLACK
6
CONTINUOUS
10
6.5831065748031499
20
-3.2249704724409449
11
6.5720622047244097
21
-3.2319101181102363
0
LINE
8
BLACK
6
CONTINUOUS
10
6.5720622047244097
20
-3.2319101181102363
11
6.5618643307086613
21
-3.2400426771653543
0
LINE
8
BLACK
6
CONTINUOUS
10
6.5618643307086613
20
-3.2400426771653543
11
6.5526411023622044
21
-3.2492659055118112
0
LINE
8
BLACK
6
CONTINUOUS
10
6.5526411023622044
20
-3.2492659055118112
11
6.5445085433070869
21
-3.2594637795275592
0
LINE
8
BLACK
6
CONTINUOUS
10
6.5445085433070869
20
-3.2594637795275592
11
6.5375688976377955
21
-3.2705081496062993
0
LINE
8
BLACK
6
CONTINUOUS
10
6.5375688976377955
20
-3.2705081496062993
11
6.5319094881889761
21
-3.2822600393700787
0
LINE
8
BLACK
6
CONTINUOUS
10
6.5319094881889761
20
-3.2822600393700787
11
6.5276014566929135
21
-3.2945716535433069
0
LINE
8
BLACK
6
CONTINUOUS
10
6.5276014566929135
20
-3.2945716535433069
11
6.5246989763779526
21
-3.3072882677165354
0
LINE
8
BLACK
6
CONTINUOUS
10
6.5246989763779526
20
-3.3072882677165354
11
6.5232385826771653
21
-3.3202498425196851
0
LINE
8
BLACK
6
CONTINUOUS
10
6.5232385826771653
20
-3.3202498425196851
11
6.5232385826771653
21
-3.3332934645669292
0
CIRCLE
8
BLACK
10
6.6393700787401571
20
-4.926771653543307
40
0.0068897637795276
0
CIRCLE
8
BLACK
10
5.6401574803149606
20
-4.9779527559055117
40
0.0068897637795276
0
CIRCLE
8
BLACK
10
5.6401574803149606
20
-4.877952755905512
40
0.0068897637795276
0
CIRCLE
8
BLACK
10
5.7401574803149602
20
-4.9779527559055117
40
0.0068897637795276
0
CIRCLE
8
BLACK
10
5.7401574803149602
20
-4.877952755905512
40
0.0068897637795276
0
CIRCLE
8
BLACK
10
5.8401574803149607
20
-4.9779527559055117
40
0.0068897637795276
0
CIRCLE
8
BLACK
10
5.8401574803149607
20
-4.877952755905512
40
0.0068897637795276
0
CIRCLE
8
BLACK
10
5.0393700787401574
20
-3.326771653543307
40
0.0068897637795276
0
CIRCLE
8
BLACK
10
5.0393700787401574
20
-4.926771653543307
40
0.0068897637795276
0
CIRCLE
8
BLACK
10
6.2519685039370074
20
-3.7125984251968505
40
0.0068897637795276
0
CIRCLE
8
BLACK
10
6.1519685039370078
20
-3.6125984251968504
40
0.0068897637795276
0
CIRCLE
8
BLACK
10
6.1519685039370078
20
-3.8125984251968501
40
0.0068897637795276
0
CIRCLE
8
BLACK
10
6.351968503937008
20
-3.6125984251968504
40
0.0068897637795276
0
CIRCLE
8
BLACK
10
6.351968503937008
20
-3.8125984251968501
40
0.0068897637795276
0
CIRCLE
8
BLACK
10
4.9893700787401576
20
-3.576771653543307
40
0.0068897637795276
0
CIRCLE
8
BLACK
10
5.0893700787401572
20
-3.576771653543307
40
0.0068897637795276
0
CIRCLE
8
BLACK
10
4.9893700787401576
20
-3.676771653543307
40
0.0068897637795276
0
CIRCLE
8
BLACK
10
5.0893700787401572
20
-3.676771653543307
40
0.0068897637795276
0
CIRCLE
8
BLACK
10
4.9893700787401576
20
-3.7767716535433071
40
0.0068897637795276
0
CIRCLE
8
BLACK
10
5.0893700787401572
20
-3.7767716535433071
40
0.0068897637795276
0
CIRCLE
8
BLACK
10
4.9893700787401576
20
-3.8767716535433072
40
0.0068897637795276
0
CIRCLE
8
BLACK
10
5.0893700787401572
20
-3.8767716535433072
40
0.0068897637795276
0
CIRCLE
8
BLACK
10
4.9893700787401576
20
-3.9767716535433069
40
0.0068897637795276
0
CIRCLE
8
BLACK
10
5.0893700787401572
20
-3.9767716535433069
40
0.0068897637795276
0
CIRCLE
8
BLACK
10
4.9893700787401576
20
-4.0767716535433074
40
0.0068897637795276
0
CIRCLE
8
BLACK
10
5.0893700787401572
20
-4.0767716535433074
40
0.0068897637795276
0
CIRCLE
8
BLACK
10
4.9893700787401576
20
-4.176771653543307
40
0.0068897637795276
0
CIRCLE
8
BLACK
10
5.0893700787401572
20
-4.176771653543307
40
0.0068897637795276
0
CIRCLE
8
BLACK
10
4.9893700787401576
20
-4.2767716535433067
40
0.0068897637795276
0
CIRCLE
8
BLACK
10
5.0893700787401572
20
-4.2767716535433067
40
0.0068897637795276
0
CIRCLE
8
BLACK
10
4.9893700787401576
20
-4.3767716535433072
40
0.0068897637795276
0
CIRCLE
8
BLACK
10
5.0893700787401572
20
-4.3767716535433072
40
0.0068897637795276
0
CIRCLE
8
BLACK
10
4.9893700787401576
20
-4.4767716535433069
40
0.0068897637795276
0
CIRCLE
8
BLACK
10
5.0893700787401572
20
-4.4767716535433069
40
0.0068897637795276
0
CIRCLE
8
BLACK
10
4.9893700787401576
20
-4.5767716535433074
40
0.0068897637795276
0
CIRCLE
8
BLACK
10
5.0893700787401572
20
-4.5767716535433074
40
0.0068897637795276
0
CIRCLE
8
BLACK
10
4.9893700787401576
20
-4.676771653543307
40
0.0068897637795276
0
CIRCLE
8
BLACK
10
5.0893700787401572
20
-4.676771653543307
40
0.0068897637795276
0
CIRCLE
8
BLACK
10
6.6393700787401571
20
-3.326771653543307
40
0.0068897637795276
0
CIRCLE
8
BLACK
10
6.6393700787401571
20
-4.926771653543307
40
0.0068897637795276
0
CIRCLE
8
BLACK
10
5.6401574803149606
20
-4.9779527559055117
40
0.0068897637795276
0
CIRCLE
8
BLACK
10
5.6401574803149606
20
-4.877952755905512
40
0.0068897637795276
0
CIRCLE
8
BLACK
10
5.7401574803149602
20
-4.9779527559055117
40
0.0068897637795276
0
CIRCLE
8
BLACK
10
5.7401574803149602
20
-4.877952755905512
40
0.0068897637795276
0
CIRCLE
8
BLACK
10
5.8401574803149607
20
-4.9779527559055117
40
0.0068897637795276
0
CIRCLE
8
BLACK
10
5.8401574803149607
20
-4.877952755905512
40
0.0068897637795276
0
CIRCLE
8
BLACK
10
5.0393700787401574
20
-3.326771653543307
40
0.0068897637795276
0
CIRCLE
8
BLACK
10
5.0393700787401574
20
-4.926771653543307
40
0.0068897637795276
0
CIRCLE
8
BLACK
10
6.2519685039370074
20
-3.7125984251968505
40
0.0068897637795276
0
CIRCLE
8
BLACK
10
6.1519685039370078
20
-3.6125984251968504
40
0.0068897637795276
0
CIRCLE
8
BLACK
10
6.1519685039370078
20
-3.8125984251968501
40
0.0068897637795276
0
CIRCLE
8
BLACK
10
6.351968503937008
20
-3.6125984251968504
40
0.0068897637795276
0
CIRCLE
8
BLACK
10
6.351968503937008
20
-3.8125984251968501
40
0.0068897637795276
0
CIRCLE
8
BLACK
10
4.9893700787401576
20
-3.576771653543307
40
0.0068897637795276
0
CIRCLE
8
BLACK
10
5.0893700787401572
20
-3.576771653543307
40
0.0068897637795276
0
CIRCLE
8
BLACK
10
4.9893700787401576
20
-3.676771653543307
40
0.0068897637795276
0
CIRCLE
8
BLACK
10
5.0893700787401572
20
-3.676771653543307
40
0.0068897637795276
0
CIRCLE
8
BLACK
10
4.9893700787401576
20
-3.7767716535433071
40
0.0068897637795276
0
CIRCLE
8
BLACK
10
5.0893700787401572
20
-3.7767716535433071
40
0.0068897637795276
0
CIRCLE
8
BLACK
10
4.9893700787401576
20
-3.8767716535433072
40
0.0068897637795276
0
CIRCLE
8
BLACK
10
5.0893700787401572
20
-3.8767716535433072
40
0.0068897637795276
0
CIRCLE
8
BLACK
10
4.9893700787401576
20
-3.9767716535433069
40
0.0068897637795276
0
CIRCLE
8
BLACK
10
5.0893700787401572
20
-3.9767716535433069
40
0.0068897637795276
0
CIRCLE
8
BLACK
10
4.9893700787401576
20
-4.0767716535433074
40
0.0068897637795276
0
CIRCLE
8
BLACK
10
5.0893700787401572
20
-4.0767716535433074
40
0.0068897637795276
0
CIRCLE
8
BLACK
10
4.9893700787401576
20
-4.176771653543307
40
0.0068897637795276
0
CIRCLE
8
BLACK
10
5.0893700787401572
20
-4.176771653543307
40
0.0068897637795276
0
CIRCLE
8
BLACK
10
4.9893700787401576
20
-4.2767716535433067
40
0.0068897637795276
0
CIRCLE
8
BLACK
10
5.0893700787401572
20
-4.2767716535433067
40
0.0068897637795276
0
CIRCLE
8
BLACK
10
4.9893700787401576
20
-4.3767716535433072
40
0.0068897637795276
0
CIRCLE
8
BLACK
10
5.0893700787401572
20
-4.3767716535433072
40
0.0068897637795276
0
CIRCLE
8
BLACK
10
4.9893700787401576
20
-4.4767716535433069
40
0.0068897637795276
0
CIRCLE
8
BLACK
10
5.0893700787401572
20
-4.4767716535433069
40
0.0068897637795276
0
CIRCLE
8
BLACK
10
4.9893700787401576
20
-4.5767716535433074
40
0.0068897637795276
0
CIRCLE
8
BLACK
10
5.0893700787401572
20
-4.5767716535433074
40
0.0068897637795276
0
CIRCLE
8
BLACK
10
4.9893700787401576
20
-4.676771653543307
40
0.0068897637795276
0
CIRCLE
8
BLACK
10
5.0893700787401572
20
-4.676771653543307
40
0.0068897637795276
0
CIRCLE
8
BLACK
10
6.6393700787401571
20
-3.326771653543307
40
0.0068897637795276
  0
ENDSEC
  0
EOF
