  0
SECTION
  2
HEADER
  9
$ANGBASE
  50
0.0
  9
$ANGDIR
  70
1
  9
$MEASUREMENT
  70
0
  0
ENDSEC
  0
SECTION
  2
TABLES
  0
TABLE
  2
LTYPE
  70
4
  0
LTYPE
  5
40F
  2
CONTINUOUS
  70
0
  3
Solid line
  72
65
  73
0
  40
0.0
  0
LTYPE
  5
410
  2
DASHDOT
 70
0
  3
Dash Dot ____ _ ____ _
 72
65
 73
4
 40
2.0
 49
1.25
 49
-0.25
 49
0.25
 49
-0.25
  0
LTYPE
  5
411
  2
DASHED
 70
0
  3
Dashed __ __ __ __ __
 72
65
 73
2
 40
0.75
 49
0.5
 49
-0.25
  0
LTYPE
  5
43B
  2
DOTTED
 70
0
  3
Dotted .  .  .  .
 72
65
 73
2
 40
0.2
 49
0.0
 49
-0.2
  0
ENDTAB
  0
TABLE
  2
STYLE
  70
4
  0
STYLE
  2
KICAD
  70
0
  40
0
  41
1
  42
1
  50
0
  71
0
  3
isocp.shx
  0
STYLE
  2
KICADB
  70
0
  40
0
  41
1
  42
1
  50
0
  71
0
  3
isocp.shx
  0
STYLE
  2
KICADI
  70
0
  40
0
  41
1
  42
1
  50
15
  71
0
  3
isocp.shx
  0
STYLE
  2
KICADBI
  70
0
  40
0
  41
1
  42
1
  50
15
  71
0
  3
isocp.shx
  0
ENDTAB
  0
TABLE
  2
LAYER
  70
1
  0
LAYER
  2
BLACK
  70
0
  62
7
  6
CONTINUOUS
  0
ENDTAB
  0
ENDSEC
  0
SECTION
  2
ENTITIES
0
LINE
8
BLACK
6
CONTINUOUS
10
6.8370327559055113
20
-3.1409622440944882
11
6.8380971653543305
21
-3.1414031496062993
0
LINE
8
BLACK
6
CONTINUOUS
10
6.8380971653543305
20
-3.1414031496062993
11
6.838911811023622
21
-3.1422177952755903
0
LINE
8
BLACK
6
CONTINUOUS
10
6.838911811023622
20
-3.1422177952755903
11
6.8393527165354326
21
-3.1432822047244096
0
LINE
8
BLACK
6
CONTINUOUS
10
6.8393527165354326
20
-3.1432822047244096
11
6.8394094488188975
21
-3.1438582677165354
0
LINE
8
BLACK
6
CONTINUOUS
10
6.8394094488188975
20
-3.1438582677165354
11
6.8394094488188975
21
-5.1238582283464567
0
LINE
8
BLACK
6
CONTINUOUS
10
6.8394094488188975
20
-5.1238582283464567
11
6.8393527165354326
21
-5.1244342913385825
0
LINE
8
BLACK
6
CONTINUOUS
10
6.8393527165354326
20
-5.1244342913385825
11
6.838911811023622
21
-5.1254987007874018
0
LINE
8
BLACK
6
CONTINUOUS
10
6.838911811023622
20
-5.1254987007874018
11
6.8380971653543305
21
-5.1263133464566932
0
LINE
8
BLACK
6
CONTINUOUS
10
6.8380971653543305
20
-5.1263133464566932
11
6.8370327559055113
21
-5.1267542519685039
0
LINE
8
BLACK
6
CONTINUOUS
10
6.8370327559055113
20
-5.1267542519685039
11
6.8364566929133854
21
-5.1268109842519687
0
LINE
8
BLACK
6
CONTINUOUS
10
6.8364566929133854
20
-5.1268109842519687
11
4.8564566929133859
21
-5.1268109842519687
0
LINE
8
BLACK
6
CONTINUOUS
10
4.8564566929133859
20
-5.1268109842519687
11
4.85588062992126
21
-5.1267542519685039
0
LINE
8
BLACK
6
CONTINUOUS
10
4.85588062992126
20
-5.1267542519685039
11
4.8548162204724408
21
-5.1263133464566932
0
LINE
8
BLACK
6
CONTINUOUS
10
4.8548162204724408
20
-5.1263133464566932
11
4.8540015748031493
21
-5.1254987007874018
0
LINE
8
BLACK
6
CONTINUOUS
10
4.8540015748031493
20
-5.1254987007874018
11
4.8535606692913387
21
-5.1244342913385825
0
LINE
8
BLACK
6
CONTINUOUS
10
4.8535606692913387
20
-5.1244342913385825
11
4.8535039370078739
21
-5.1238582283464567
0
LINE
8
BLACK
6
CONTINUOUS
10
4.8535039370078739
20
-5.1238582283464567
11
4.8535039370078739
21
-3.1438582677165354
0
LINE
8
BLACK
6
CONTINUOUS
10
4.8535039370078739
20
-3.1438582677165354
11
4.8535606692913387
21
-3.1432822047244096
0
LINE
8
BLACK
6
CONTINUOUS
10
4.8535606692913387
20
-3.1432822047244096
11
4.8540015748031493
21
-3.1422177952755903
0
LINE
8
BLACK
6
CONTINUOUS
10
4.8540015748031493
20
-3.1422177952755903
11
4.8548162204724408
21
-3.1414031496062993
0
LINE
8
BLACK
6
CONTINUOUS
10
4.8548162204724408
20
-3.1414031496062993
11
4.85588062992126
21
-3.1409622440944882
0
LINE
8
BLACK
6
CONTINUOUS
10
4.85588062992126
20
-3.1409622440944882
11
4.8564566929133859
21
-3.1409055118110234
0
LINE
8
BLACK
6
CONTINUOUS
10
4.8564566929133859
20
-3.1409055118110234
11
6.8364566929133854
21
-3.1409055118110234
0
LINE
8
BLACK
6
CONTINUOUS
10
6.8364566929133854
20
-3.1409055118110234
11
6.8370327559055113
21
-3.1409622440944882
0
LINE
8
BLACK
6
CONTINUOUS
10
4.8594094488188979
20
-3.146811023622047
11
4.8594094488188979
21
-5.1209054724409446
0
LINE
8
BLACK
6
CONTINUOUS
10
4.8594094488188979
20
-5.1209054724409446
11
6.8335039370078743
21
-5.1209054724409446
0
LINE
8
BLACK
6
CONTINUOUS
10
6.8335039370078743
20
-5.1209054724409446
11
6.8335039370078743
21
-3.146811023622047
0
LINE
8
BLACK
6
CONTINUOUS
10
6.8335039370078743
20
-3.146811023622047
11
4.8594094488188979
21
-3.146811023622047
0
CIRCLE
8
BLACK
10
6.6393700787401571
20
-4.926771653543307
40
0.0068897637795276
0
CIRCLE
8
BLACK
10
5.6401574803149606
20
-4.9779527559055117
40
0.0068897637795276
0
CIRCLE
8
BLACK
10
5.6401574803149606
20
-4.877952755905512
40
0.0068897637795276
0
CIRCLE
8
BLACK
10
5.7401574803149602
20
-4.9779527559055117
40
0.0068897637795276
0
CIRCLE
8
BLACK
10
5.7401574803149602
20
-4.877952755905512
40
0.0068897637795276
0
CIRCLE
8
BLACK
10
5.8401574803149607
20
-4.9779527559055117
40
0.0068897637795276
0
CIRCLE
8
BLACK
10
5.8401574803149607
20
-4.877952755905512
40
0.0068897637795276
0
CIRCLE
8
BLACK
10
5.0393700787401574
20
-3.326771653543307
40
0.0068897637795276
0
CIRCLE
8
BLACK
10
5.0393700787401574
20
-4.926771653543307
40
0.0068897637795276
0
CIRCLE
8
BLACK
10
6.2519685039370074
20
-3.7125984251968505
40
0.0068897637795276
0
CIRCLE
8
BLACK
10
6.1519685039370078
20
-3.6125984251968504
40
0.0068897637795276
0
CIRCLE
8
BLACK
10
6.1519685039370078
20
-3.8125984251968501
40
0.0068897637795276
0
CIRCLE
8
BLACK
10
6.351968503937008
20
-3.6125984251968504
40
0.0068897637795276
0
CIRCLE
8
BLACK
10
6.351968503937008
20
-3.8125984251968501
40
0.0068897637795276
0
CIRCLE
8
BLACK
10
4.9893700787401576
20
-3.576771653543307
40
0.0068897637795276
0
CIRCLE
8
BLACK
10
5.0893700787401572
20
-3.576771653543307
40
0.0068897637795276
0
CIRCLE
8
BLACK
10
4.9893700787401576
20
-3.676771653543307
40
0.0068897637795276
0
CIRCLE
8
BLACK
10
5.0893700787401572
20
-3.676771653543307
40
0.0068897637795276
0
CIRCLE
8
BLACK
10
4.9893700787401576
20
-3.7767716535433071
40
0.0068897637795276
0
CIRCLE
8
BLACK
10
5.0893700787401572
20
-3.7767716535433071
40
0.0068897637795276
0
CIRCLE
8
BLACK
10
4.9893700787401576
20
-3.8767716535433072
40
0.0068897637795276
0
CIRCLE
8
BLACK
10
5.0893700787401572
20
-3.8767716535433072
40
0.0068897637795276
0
CIRCLE
8
BLACK
10
4.9893700787401576
20
-3.9767716535433069
40
0.0068897637795276
0
CIRCLE
8
BLACK
10
5.0893700787401572
20
-3.9767716535433069
40
0.0068897637795276
0
CIRCLE
8
BLACK
10
4.9893700787401576
20
-4.0767716535433074
40
0.0068897637795276
0
CIRCLE
8
BLACK
10
5.0893700787401572
20
-4.0767716535433074
40
0.0068897637795276
0
CIRCLE
8
BLACK
10
4.9893700787401576
20
-4.176771653543307
40
0.0068897637795276
0
CIRCLE
8
BLACK
10
5.0893700787401572
20
-4.176771653543307
40
0.0068897637795276
0
CIRCLE
8
BLACK
10
4.9893700787401576
20
-4.2767716535433067
40
0.0068897637795276
0
CIRCLE
8
BLACK
10
5.0893700787401572
20
-4.2767716535433067
40
0.0068897637795276
0
CIRCLE
8
BLACK
10
4.9893700787401576
20
-4.3767716535433072
40
0.0068897637795276
0
CIRCLE
8
BLACK
10
5.0893700787401572
20
-4.3767716535433072
40
0.0068897637795276
0
CIRCLE
8
BLACK
10
4.9893700787401576
20
-4.4767716535433069
40
0.0068897637795276
0
CIRCLE
8
BLACK
10
5.0893700787401572
20
-4.4767716535433069
40
0.0068897637795276
0
CIRCLE
8
BLACK
10
4.9893700787401576
20
-4.5767716535433074
40
0.0068897637795276
0
CIRCLE
8
BLACK
10
5.0893700787401572
20
-4.5767716535433074
40
0.0068897637795276
0
CIRCLE
8
BLACK
10
4.9893700787401576
20
-4.676771653543307
40
0.0068897637795276
0
CIRCLE
8
BLACK
10
5.0893700787401572
20
-4.676771653543307
40
0.0068897637795276
0
CIRCLE
8
BLACK
10
6.6393700787401571
20
-3.326771653543307
40
0.0068897637795276
0
CIRCLE
8
BLACK
10
6.6393700787401571
20
-4.926771653543307
40
0.0068897637795276
0
CIRCLE
8
BLACK
10
5.6401574803149606
20
-4.9779527559055117
40
0.0068897637795276
0
CIRCLE
8
BLACK
10
5.6401574803149606
20
-4.877952755905512
40
0.0068897637795276
0
CIRCLE
8
BLACK
10
5.7401574803149602
20
-4.9779527559055117
40
0.0068897637795276
0
CIRCLE
8
BLACK
10
5.7401574803149602
20
-4.877952755905512
40
0.0068897637795276
0
CIRCLE
8
BLACK
10
5.8401574803149607
20
-4.9779527559055117
40
0.0068897637795276
0
CIRCLE
8
BLACK
10
5.8401574803149607
20
-4.877952755905512
40
0.0068897637795276
0
CIRCLE
8
BLACK
10
5.0393700787401574
20
-3.326771653543307
40
0.0068897637795276
0
CIRCLE
8
BLACK
10
5.0393700787401574
20
-4.926771653543307
40
0.0068897637795276
0
CIRCLE
8
BLACK
10
6.2519685039370074
20
-3.7125984251968505
40
0.0068897637795276
0
CIRCLE
8
BLACK
10
6.1519685039370078
20
-3.6125984251968504
40
0.0068897637795276
0
CIRCLE
8
BLACK
10
6.1519685039370078
20
-3.8125984251968501
40
0.0068897637795276
0
CIRCLE
8
BLACK
10
6.351968503937008
20
-3.6125984251968504
40
0.0068897637795276
0
CIRCLE
8
BLACK
10
6.351968503937008
20
-3.8125984251968501
40
0.0068897637795276
0
CIRCLE
8
BLACK
10
4.9893700787401576
20
-3.576771653543307
40
0.0068897637795276
0
CIRCLE
8
BLACK
10
5.0893700787401572
20
-3.576771653543307
40
0.0068897637795276
0
CIRCLE
8
BLACK
10
4.9893700787401576
20
-3.676771653543307
40
0.0068897637795276
0
CIRCLE
8
BLACK
10
5.0893700787401572
20
-3.676771653543307
40
0.0068897637795276
0
CIRCLE
8
BLACK
10
4.9893700787401576
20
-3.7767716535433071
40
0.0068897637795276
0
CIRCLE
8
BLACK
10
5.0893700787401572
20
-3.7767716535433071
40
0.0068897637795276
0
CIRCLE
8
BLACK
10
4.9893700787401576
20
-3.8767716535433072
40
0.0068897637795276
0
CIRCLE
8
BLACK
10
5.0893700787401572
20
-3.8767716535433072
40
0.0068897637795276
0
CIRCLE
8
BLACK
10
4.9893700787401576
20
-3.9767716535433069
40
0.0068897637795276
0
CIRCLE
8
BLACK
10
5.0893700787401572
20
-3.9767716535433069
40
0.0068897637795276
0
CIRCLE
8
BLACK
10
4.9893700787401576
20
-4.0767716535433074
40
0.0068897637795276
0
CIRCLE
8
BLACK
10
5.0893700787401572
20
-4.0767716535433074
40
0.0068897637795276
0
CIRCLE
8
BLACK
10
4.9893700787401576
20
-4.176771653543307
40
0.0068897637795276
0
CIRCLE
8
BLACK
10
5.0893700787401572
20
-4.176771653543307
40
0.0068897637795276
0
CIRCLE
8
BLACK
10
4.9893700787401576
20
-4.2767716535433067
40
0.0068897637795276
0
CIRCLE
8
BLACK
10
5.0893700787401572
20
-4.2767716535433067
40
0.0068897637795276
0
CIRCLE
8
BLACK
10
4.9893700787401576
20
-4.3767716535433072
40
0.0068897637795276
0
CIRCLE
8
BLACK
10
5.0893700787401572
20
-4.3767716535433072
40
0.0068897637795276
0
CIRCLE
8
BLACK
10
4.9893700787401576
20
-4.4767716535433069
40
0.0068897637795276
0
CIRCLE
8
BLACK
10
5.0893700787401572
20
-4.4767716535433069
40
0.0068897637795276
0
CIRCLE
8
BLACK
10
4.9893700787401576
20
-4.5767716535433074
40
0.0068897637795276
0
CIRCLE
8
BLACK
10
5.0893700787401572
20
-4.5767716535433074
40
0.0068897637795276
0
CIRCLE
8
BLACK
10
4.9893700787401576
20
-4.676771653543307
40
0.0068897637795276
0
CIRCLE
8
BLACK
10
5.0893700787401572
20
-4.676771653543307
40
0.0068897637795276
0
CIRCLE
8
BLACK
10
6.6393700787401571
20
-3.326771653543307
40
0.0068897637795276
  0
ENDSEC
  0
EOF
