  0
SECTION
  2
HEADER
  9
$ANGBASE
  50
0.0
  9
$ANGDIR
  70
1
  9
$MEASUREMENT
  70
0
  9
$INSUNITS
  70
1
  0
ENDSEC
  0
SECTION
  2
TABLES
  0
TABLE
  2
LTYPE
  70
4
  0
LTYPE
  5
40F
  2
CONTINUOUS
  70
0
  3
Solid line
  72
65
  73
0
  40
0.0
  0
LTYPE
  5
410
  2
DASHDOT
 70
0
  3
Dash Dot ____ _ ____ _
 72
65
 73
4
 40
2.0
 49
1.25
 49
-0.25
 49
0.25
 49
-0.25
  0
LTYPE
  5
411
  2
DASHED
 70
0
  3
Dashed __ __ __ __ __
 72
65
 73
2
 40
0.75
 49
0.5
 49
-0.25
  0
LTYPE
  5
43B
  2
DOTTED
 70
0
  3
Dotted .  .  .  .
 72
65
 73
2
 40
0.2
 49
0.0
 49
-0.2
  0
ENDTAB
  0
TABLE
  2
STYLE
  70
4
  0
STYLE
  2
KICAD
  70
0
  40
0
  41
1
  42
1
  50
0
  71
0
  3
isocp.shx
  0
STYLE
  2
KICADB
  70
0
  40
0
  41
1
  42
1
  50
0
  71
0
  3
isocp.shx
  0
STYLE
  2
KICADI
  70
0
  40
0
  41
1
  42
1
  50
15
  71
0
  3
isocp.shx
  0
STYLE
  2
KICADBI
  70
0
  40
0
  41
1
  42
1
  50
15
  71
0
  3
isocp.shx
  0
ENDTAB
  0
TABLE
  2
LAYER
  70
1
  0
LAYER
  2
BLACK
  70
0
  62
250
  6
CONTINUOUS
  0
ENDTAB
  0
ENDSEC
  0
SECTION
  2
ENTITIES
0
LINE
8
BLACK
6
CONTINUOUS
10
5.059154291338583
20
-4.8103301968503933
11
5.0720672047244095
21
-4.8132774803149605
0
LINE
8
BLACK
6
CONTINUOUS
10
5.0720672047244095
20
-4.8132774803149605
11
5.0845688976377952
21
-4.8176520078740159
0
LINE
8
BLACK
6
CONTINUOUS
10
5.0845688976377952
20
-4.8176520078740159
11
5.0965022440944878
21
-4.8233988188976378
0
LINE
8
BLACK
6
CONTINUOUS
10
5.0965022440944878
20
-4.8233988188976378
11
5.1077170866141728
21
-4.8304455511811026
0
LINE
8
BLACK
6
CONTINUOUS
10
5.1077170866141728
20
-4.8304455511811026
11
5.1180724409448821
21
-4.8387037007874012
0
LINE
8
BLACK
6
CONTINUOUS
10
5.1180724409448821
20
-4.8387037007874012
11
5.1274380314960633
21
-4.8480692913385823
0
LINE
8
BLACK
6
CONTINUOUS
10
5.1274380314960633
20
-4.8480692913385823
11
5.1356961811023618
21
-4.8584246456692917
0
LINE
8
BLACK
6
CONTINUOUS
10
5.1356961811023618
20
-4.8584246456692917
11
5.1427429133858267
21
-4.8696394881889766
0
LINE
8
BLACK
6
CONTINUOUS
10
5.1427429133858267
20
-4.8696394881889766
11
5.1484897244094485
21
-4.8815728346456693
0
LINE
8
BLACK
6
CONTINUOUS
10
5.1484897244094485
20
-4.8815728346456693
11
5.152864251968504
21
-4.8940745275590549
0
LINE
8
BLACK
6
CONTINUOUS
10
5.152864251968504
20
-4.8940745275590549
11
5.1558115354330711
21
-4.9069874409448815
0
LINE
8
BLACK
6
CONTINUOUS
10
5.1558115354330711
20
-4.9069874409448815
11
5.1572944881889766
21
-4.9201491732283467
0
LINE
8
BLACK
6
CONTINUOUS
10
5.1572944881889766
20
-4.9201491732283467
11
5.1572944881889766
21
-4.9333941338582674
0
LINE
8
BLACK
6
CONTINUOUS
10
5.1572944881889766
20
-4.9333941338582674
11
5.1558115354330711
21
-4.9465558661417326
0
LINE
8
BLACK
6
CONTINUOUS
10
5.1558115354330711
20
-4.9465558661417326
11
5.152864251968504
21
-4.9594687795275592
0
LINE
8
BLACK
6
CONTINUOUS
10
5.152864251968504
20
-4.9594687795275592
11
5.1484897244094485
21
-4.9719704724409448
0
LINE
8
BLACK
6
CONTINUOUS
10
5.1484897244094485
20
-4.9719704724409448
11
5.1427429133858267
21
-4.9839038188976374
0
LINE
8
BLACK
6
CONTINUOUS
10
5.1427429133858267
20
-4.9839038188976374
11
5.1356961811023618
21
-4.9951186614173224
0
LINE
8
BLACK
6
CONTINUOUS
10
5.1356961811023618
20
-4.9951186614173224
11
5.1274380314960633
21
-5.0054740157480317
0
LINE
8
BLACK
6
CONTINUOUS
10
5.1274380314960633
20
-5.0054740157480317
11
5.1180724409448821
21
-5.0148396062992129
0
LINE
8
BLACK
6
CONTINUOUS
10
5.1180724409448821
20
-5.0148396062992129
11
5.1077170866141728
21
-5.0230977559055114
0
LINE
8
BLACK
6
CONTINUOUS
10
5.1077170866141728
20
-5.0230977559055114
11
5.0965022440944878
21
-5.0301444881889763
0
LINE
8
BLACK
6
CONTINUOUS
10
5.0965022440944878
20
-5.0301444881889763
11
5.0845688976377952
21
-5.0358912992125981
0
LINE
8
BLACK
6
CONTINUOUS
10
5.0845688976377952
20
-5.0358912992125981
11
5.0720672047244095
21
-5.0402658267716536
0
LINE
8
BLACK
6
CONTINUOUS
10
5.0720672047244095
20
-5.0402658267716536
11
5.059154291338583
21
-5.0432131102362208
0
LINE
8
BLACK
6
CONTINUOUS
10
5.059154291338583
20
-5.0432131102362208
11
5.0459925590551178
21
-5.0446960629921263
0
LINE
8
BLACK
6
CONTINUOUS
10
5.0459925590551178
20
-5.0446960629921263
11
5.032747598425197
21
-5.0446960629921263
0
LINE
8
BLACK
6
CONTINUOUS
10
5.032747598425197
20
-5.0446960629921263
11
5.0195858661417319
21
-5.0432131102362208
0
LINE
8
BLACK
6
CONTINUOUS
10
5.0195858661417319
20
-5.0432131102362208
11
5.0066729527559053
21
-5.0402658267716536
0
LINE
8
BLACK
6
CONTINUOUS
10
5.0066729527559053
20
-5.0402658267716536
11
4.9941712598425196
21
-5.0358912992125981
0
LINE
8
BLACK
6
CONTINUOUS
10
4.9941712598425196
20
-5.0358912992125981
11
4.982237913385827
21
-5.0301444881889763
0
LINE
8
BLACK
6
CONTINUOUS
10
4.982237913385827
20
-5.0301444881889763
11
4.971023070866142
21
-5.0230977559055114
0
LINE
8
BLACK
6
CONTINUOUS
10
4.971023070866142
20
-5.0230977559055114
11
4.9606677165354327
21
-5.0148396062992129
0
LINE
8
BLACK
6
CONTINUOUS
10
4.9606677165354327
20
-5.0148396062992129
11
4.9513021259842516
21
-5.0054740157480317
0
LINE
8
BLACK
6
CONTINUOUS
10
4.9513021259842516
20
-5.0054740157480317
11
4.943043976377953
21
-4.9951186614173224
0
LINE
8
BLACK
6
CONTINUOUS
10
4.943043976377953
20
-4.9951186614173224
11
4.9359972440944881
21
-4.9839038188976374
0
LINE
8
BLACK
6
CONTINUOUS
10
4.9359972440944881
20
-4.9839038188976374
11
4.9302504330708663
21
-4.9719704724409448
0
LINE
8
BLACK
6
CONTINUOUS
10
4.9302504330708663
20
-4.9719704724409448
11
4.9258759055118109
21
-4.9594687795275592
0
LINE
8
BLACK
6
CONTINUOUS
10
4.9258759055118109
20
-4.9594687795275592
11
4.9229286220472437
21
-4.9465558661417326
0
LINE
8
BLACK
6
CONTINUOUS
10
4.9229286220472437
20
-4.9465558661417326
11
4.9214456692913382
21
-4.9333941338582674
0
LINE
8
BLACK
6
CONTINUOUS
10
4.9214456692913382
20
-4.9333941338582674
11
4.9214456692913382
21
-4.9201491732283467
0
LINE
8
BLACK
6
CONTINUOUS
10
4.9214456692913382
20
-4.9201491732283467
11
4.9229286220472437
21
-4.9069874409448815
0
LINE
8
BLACK
6
CONTINUOUS
10
4.9229286220472437
20
-4.9069874409448815
11
4.9258759055118109
21
-4.8940745275590549
0
LINE
8
BLACK
6
CONTINUOUS
10
4.9258759055118109
20
-4.8940745275590549
11
4.9302504330708663
21
-4.8815728346456693
0
LINE
8
BLACK
6
CONTINUOUS
10
4.9302504330708663
20
-4.8815728346456693
11
4.9359972440944881
21
-4.8696394881889766
0
LINE
8
BLACK
6
CONTINUOUS
10
4.9359972440944881
20
-4.8696394881889766
11
4.943043976377953
21
-4.8584246456692917
0
LINE
8
BLACK
6
CONTINUOUS
10
4.943043976377953
20
-4.8584246456692917
11
4.9513021259842516
21
-4.8480692913385823
0
LINE
8
BLACK
6
CONTINUOUS
10
4.9513021259842516
20
-4.8480692913385823
11
4.9606677165354327
21
-4.8387037007874012
0
LINE
8
BLACK
6
CONTINUOUS
10
4.9606677165354327
20
-4.8387037007874012
11
4.971023070866142
21
-4.8304455511811026
0
LINE
8
BLACK
6
CONTINUOUS
10
4.971023070866142
20
-4.8304455511811026
11
4.982237913385827
21
-4.8233988188976378
0
LINE
8
BLACK
6
CONTINUOUS
10
4.982237913385827
20
-4.8233988188976378
11
4.9941712598425196
21
-4.8176520078740159
0
LINE
8
BLACK
6
CONTINUOUS
10
4.9941712598425196
20
-4.8176520078740159
11
5.0066729527559053
21
-4.8132774803149605
0
LINE
8
BLACK
6
CONTINUOUS
10
5.0066729527559053
20
-4.8132774803149605
11
5.0195858661417319
21
-4.8103301968503933
0
LINE
8
BLACK
6
CONTINUOUS
10
5.0195858661417319
20
-4.8103301968503933
11
5.032747598425197
21
-4.8088472440944878
0
LINE
8
BLACK
6
CONTINUOUS
10
5.032747598425197
20
-4.8088472440944878
11
5.0459925590551178
21
-4.8088472440944878
0
LINE
8
BLACK
6
CONTINUOUS
10
5.0459925590551178
20
-4.8088472440944878
11
5.059154291338583
21
-4.8103301968503933
0
LINE
8
BLACK
6
CONTINUOUS
10
6.6591542913385826
20
-4.8103301968503933
11
6.6720672047244092
21
-4.8132774803149605
0
LINE
8
BLACK
6
CONTINUOUS
10
6.6720672047244092
20
-4.8132774803149605
11
6.6845688976377948
21
-4.8176520078740159
0
LINE
8
BLACK
6
CONTINUOUS
10
6.6845688976377948
20
-4.8176520078740159
11
6.6965022440944884
21
-4.8233988188976378
0
LINE
8
BLACK
6
CONTINUOUS
10
6.6965022440944884
20
-4.8233988188976378
11
6.7077170866141733
21
-4.8304455511811026
0
LINE
8
BLACK
6
CONTINUOUS
10
6.7077170866141733
20
-4.8304455511811026
11
6.7180724409448818
21
-4.8387037007874012
0
LINE
8
BLACK
6
CONTINUOUS
10
6.7180724409448818
20
-4.8387037007874012
11
6.7274380314960629
21
-4.8480692913385823
0
LINE
8
BLACK
6
CONTINUOUS
10
6.7274380314960629
20
-4.8480692913385823
11
6.7356961811023623
21
-4.8584246456692917
0
LINE
8
BLACK
6
CONTINUOUS
10
6.7356961811023623
20
-4.8584246456692917
11
6.7427429133858263
21
-4.8696394881889766
0
LINE
8
BLACK
6
CONTINUOUS
10
6.7427429133858263
20
-4.8696394881889766
11
6.7484897244094491
21
-4.8815728346456693
0
LINE
8
BLACK
6
CONTINUOUS
10
6.7484897244094491
20
-4.8815728346456693
11
6.7528642519685036
21
-4.8940745275590549
0
LINE
8
BLACK
6
CONTINUOUS
10
6.7528642519685036
20
-4.8940745275590549
11
6.7558115354330708
21
-4.9069874409448815
0
LINE
8
BLACK
6
CONTINUOUS
10
6.7558115354330708
20
-4.9069874409448815
11
6.7572944881889763
21
-4.9201491732283467
0
LINE
8
BLACK
6
CONTINUOUS
10
6.7572944881889763
20
-4.9201491732283467
11
6.7572944881889763
21
-4.9333941338582674
0
LINE
8
BLACK
6
CONTINUOUS
10
6.7572944881889763
20
-4.9333941338582674
11
6.7558115354330708
21
-4.9465558661417326
0
LINE
8
BLACK
6
CONTINUOUS
10
6.7558115354330708
20
-4.9465558661417326
11
6.7528642519685036
21
-4.9594687795275592
0
LINE
8
BLACK
6
CONTINUOUS
10
6.7528642519685036
20
-4.9594687795275592
11
6.7484897244094491
21
-4.9719704724409448
0
LINE
8
BLACK
6
CONTINUOUS
10
6.7484897244094491
20
-4.9719704724409448
11
6.7427429133858263
21
-4.9839038188976374
0
LINE
8
BLACK
6
CONTINUOUS
10
6.7427429133858263
20
-4.9839038188976374
11
6.7356961811023623
21
-4.9951186614173224
0
LINE
8
BLACK
6
CONTINUOUS
10
6.7356961811023623
20
-4.9951186614173224
11
6.7274380314960629
21
-5.0054740157480317
0
LINE
8
BLACK
6
CONTINUOUS
10
6.7274380314960629
20
-5.0054740157480317
11
6.7180724409448818
21
-5.0148396062992129
0
LINE
8
BLACK
6
CONTINUOUS
10
6.7180724409448818
20
-5.0148396062992129
11
6.7077170866141733
21
-5.0230977559055114
0
LINE
8
BLACK
6
CONTINUOUS
10
6.7077170866141733
20
-5.0230977559055114
11
6.6965022440944884
21
-5.0301444881889763
0
LINE
8
BLACK
6
CONTINUOUS
10
6.6965022440944884
20
-5.0301444881889763
11
6.6845688976377948
21
-5.0358912992125981
0
LINE
8
BLACK
6
CONTINUOUS
10
6.6845688976377948
20
-5.0358912992125981
11
6.6720672047244092
21
-5.0402658267716536
0
LINE
8
BLACK
6
CONTINUOUS
10
6.6720672047244092
20
-5.0402658267716536
11
6.6591542913385826
21
-5.0432131102362208
0
LINE
8
BLACK
6
CONTINUOUS
10
6.6591542913385826
20
-5.0432131102362208
11
6.6459925590551183
21
-5.0446960629921263
0
LINE
8
BLACK
6
CONTINUOUS
10
6.6459925590551183
20
-5.0446960629921263
11
6.6327475984251967
21
-5.0446960629921263
0
LINE
8
BLACK
6
CONTINUOUS
10
6.6327475984251967
20
-5.0446960629921263
11
6.6195858661417324
21
-5.0432131102362208
0
LINE
8
BLACK
6
CONTINUOUS
10
6.6195858661417324
20
-5.0432131102362208
11
6.6066729527559049
21
-5.0402658267716536
0
LINE
8
BLACK
6
CONTINUOUS
10
6.6066729527559049
20
-5.0402658267716536
11
6.5941712598425193
21
-5.0358912992125981
0
LINE
8
BLACK
6
CONTINUOUS
10
6.5941712598425193
20
-5.0358912992125981
11
6.5822379133858266
21
-5.0301444881889763
0
LINE
8
BLACK
6
CONTINUOUS
10
6.5822379133858266
20
-5.0301444881889763
11
6.5710230708661417
21
-5.0230977559055114
0
LINE
8
BLACK
6
CONTINUOUS
10
6.5710230708661417
20
-5.0230977559055114
11
6.5606677165354332
21
-5.0148396062992129
0
LINE
8
BLACK
6
CONTINUOUS
10
6.5606677165354332
20
-5.0148396062992129
11
6.5513021259842521
21
-5.0054740157480317
0
LINE
8
BLACK
6
CONTINUOUS
10
6.5513021259842521
20
-5.0054740157480317
11
6.5430439763779527
21
-4.9951186614173224
0
LINE
8
BLACK
6
CONTINUOUS
10
6.5430439763779527
20
-4.9951186614173224
11
6.5359972440944878
21
-4.9839038188976374
0
LINE
8
BLACK
6
CONTINUOUS
10
6.5359972440944878
20
-4.9839038188976374
11
6.5302504330708659
21
-4.9719704724409448
0
LINE
8
BLACK
6
CONTINUOUS
10
6.5302504330708659
20
-4.9719704724409448
11
6.5258759055118105
21
-4.9594687795275592
0
LINE
8
BLACK
6
CONTINUOUS
10
6.5258759055118105
20
-4.9594687795275592
11
6.5229286220472442
21
-4.9465558661417326
0
LINE
8
BLACK
6
CONTINUOUS
10
6.5229286220472442
20
-4.9465558661417326
11
6.5214456692913387
21
-4.9333941338582674
0
LINE
8
BLACK
6
CONTINUOUS
10
6.5214456692913387
20
-4.9333941338582674
11
6.5214456692913387
21
-4.9201491732283467
0
LINE
8
BLACK
6
CONTINUOUS
10
6.5214456692913387
20
-4.9201491732283467
11
6.5229286220472442
21
-4.9069874409448815
0
LINE
8
BLACK
6
CONTINUOUS
10
6.5229286220472442
20
-4.9069874409448815
11
6.5258759055118105
21
-4.8940745275590549
0
LINE
8
BLACK
6
CONTINUOUS
10
6.5258759055118105
20
-4.8940745275590549
11
6.5302504330708659
21
-4.8815728346456693
0
LINE
8
BLACK
6
CONTINUOUS
10
6.5302504330708659
20
-4.8815728346456693
11
6.5359972440944878
21
-4.8696394881889766
0
LINE
8
BLACK
6
CONTINUOUS
10
6.5359972440944878
20
-4.8696394881889766
11
6.5430439763779527
21
-4.8584246456692917
0
LINE
8
BLACK
6
CONTINUOUS
10
6.5430439763779527
20
-4.8584246456692917
11
6.5513021259842521
21
-4.8480692913385823
0
LINE
8
BLACK
6
CONTINUOUS
10
6.5513021259842521
20
-4.8480692913385823
11
6.5606677165354332
21
-4.8387037007874012
0
LINE
8
BLACK
6
CONTINUOUS
10
6.5606677165354332
20
-4.8387037007874012
11
6.5710230708661417
21
-4.8304455511811026
0
LINE
8
BLACK
6
CONTINUOUS
10
6.5710230708661417
20
-4.8304455511811026
11
6.5822379133858266
21
-4.8233988188976378
0
LINE
8
BLACK
6
CONTINUOUS
10
6.5822379133858266
20
-4.8233988188976378
11
6.5941712598425193
21
-4.8176520078740159
0
LINE
8
BLACK
6
CONTINUOUS
10
6.5941712598425193
20
-4.8176520078740159
11
6.6066729527559049
21
-4.8132774803149605
0
LINE
8
BLACK
6
CONTINUOUS
10
6.6066729527559049
20
-4.8132774803149605
11
6.6195858661417324
21
-4.8103301968503933
0
LINE
8
BLACK
6
CONTINUOUS
10
6.6195858661417324
20
-4.8103301968503933
11
6.6327475984251967
21
-4.8088472440944878
0
LINE
8
BLACK
6
CONTINUOUS
10
6.6327475984251967
20
-4.8088472440944878
11
6.6459925590551183
21
-4.8088472440944878
0
LINE
8
BLACK
6
CONTINUOUS
10
6.6459925590551183
20
-4.8088472440944878
11
6.6591542913385826
21
-4.8103301968503933
0
LINE
8
BLACK
6
CONTINUOUS
10
5.6701574803149608
20
-5.0079527559055119
11
5.6101574803149603
21
-5.0079527559055119
0
LINE
8
BLACK
6
CONTINUOUS
10
5.6101574803149603
20
-5.0079527559055119
11
5.6101574803149603
21
-4.9479527559055114
0
LINE
8
BLACK
6
CONTINUOUS
10
5.6101574803149603
20
-4.9479527559055114
11
5.6701574803149608
21
-4.9479527559055114
0
LINE
8
BLACK
6
CONTINUOUS
10
5.6701574803149608
20
-4.9479527559055114
11
5.6701574803149608
21
-5.0079527559055119
0
LINE
8
BLACK
6
CONTINUOUS
10
5.7701574803149605
20
-5.0079527559055119
11
5.7101574803149608
21
-5.0079527559055119
0
LINE
8
BLACK
6
CONTINUOUS
10
5.7101574803149608
20
-5.0079527559055119
11
5.7101574803149608
21
-4.9479527559055114
0
LINE
8
BLACK
6
CONTINUOUS
10
5.7101574803149608
20
-4.9479527559055114
11
5.7701574803149605
21
-4.9479527559055114
0
LINE
8
BLACK
6
CONTINUOUS
10
5.7701574803149605
20
-4.9479527559055114
11
5.7701574803149605
21
-5.0079527559055119
0
LINE
8
BLACK
6
CONTINUOUS
10
5.8701574803149601
20
-5.0079527559055119
11
5.8101574803149605
21
-5.0079527559055119
0
LINE
8
BLACK
6
CONTINUOUS
10
5.8101574803149605
20
-5.0079527559055119
11
5.8101574803149605
21
-4.9479527559055114
0
LINE
8
BLACK
6
CONTINUOUS
10
5.8101574803149605
20
-4.9479527559055114
11
5.8701574803149601
21
-4.9479527559055114
0
LINE
8
BLACK
6
CONTINUOUS
10
5.8701574803149601
20
-4.9479527559055114
11
5.8701574803149601
21
-5.0079527559055119
0
LINE
8
BLACK
6
CONTINUOUS
10
5.6701574803149608
20
-4.9079527559055114
11
5.6101574803149603
21
-4.9079527559055114
0
LINE
8
BLACK
6
CONTINUOUS
10
5.6101574803149603
20
-4.9079527559055114
11
5.6101574803149603
21
-4.8479527559055118
0
LINE
8
BLACK
6
CONTINUOUS
10
5.6101574803149603
20
-4.8479527559055118
11
5.6701574803149608
21
-4.8479527559055118
0
LINE
8
BLACK
6
CONTINUOUS
10
5.6701574803149608
20
-4.8479527559055118
11
5.6701574803149608
21
-4.9079527559055114
0
LINE
8
BLACK
6
CONTINUOUS
10
5.7701574803149605
20
-4.9079527559055114
11
5.7101574803149608
21
-4.9079527559055114
0
LINE
8
BLACK
6
CONTINUOUS
10
5.7101574803149608
20
-4.9079527559055114
11
5.7101574803149608
21
-4.8479527559055118
0
LINE
8
BLACK
6
CONTINUOUS
10
5.7101574803149608
20
-4.8479527559055118
11
5.7701574803149605
21
-4.8479527559055118
0
LINE
8
BLACK
6
CONTINUOUS
10
5.7701574803149605
20
-4.8479527559055118
11
5.7701574803149605
21
-4.9079527559055114
0
LINE
8
BLACK
6
CONTINUOUS
10
5.8701574803149601
20
-4.9079527559055114
11
5.8101574803149605
21
-4.9079527559055114
0
LINE
8
BLACK
6
CONTINUOUS
10
5.8101574803149605
20
-4.9079527559055114
11
5.8101574803149605
21
-4.8479527559055118
0
LINE
8
BLACK
6
CONTINUOUS
10
5.8101574803149605
20
-4.8479527559055118
11
5.8701574803149601
21
-4.8479527559055118
0
LINE
8
BLACK
6
CONTINUOUS
10
5.8701574803149601
20
-4.8479527559055118
11
5.8701574803149601
21
-4.9079527559055114
0
LINE
8
BLACK
6
CONTINUOUS
10
5.0193700787401569
20
-4.7067716535433073
11
4.9593700787401573
21
-4.7067716535433073
0
LINE
8
BLACK
6
CONTINUOUS
10
4.9593700787401573
20
-4.7067716535433073
11
4.9593700787401573
21
-4.6467716535433068
0
LINE
8
BLACK
6
CONTINUOUS
10
4.9593700787401573
20
-4.6467716535433068
11
5.0193700787401569
21
-4.6467716535433068
0
LINE
8
BLACK
6
CONTINUOUS
10
5.0193700787401569
20
-4.6467716535433068
11
5.0193700787401569
21
-4.7067716535433073
0
LINE
8
BLACK
6
CONTINUOUS
10
5.1193700787401575
20
-4.7067716535433073
11
5.059370078740157
21
-4.7067716535433073
0
LINE
8
BLACK
6
CONTINUOUS
10
5.059370078740157
20
-4.7067716535433073
11
5.059370078740157
21
-4.6467716535433068
0
LINE
8
BLACK
6
CONTINUOUS
10
5.059370078740157
20
-4.6467716535433068
11
5.1193700787401575
21
-4.6467716535433068
0
LINE
8
BLACK
6
CONTINUOUS
10
5.1193700787401575
20
-4.6467716535433068
11
5.1193700787401575
21
-4.7067716535433073
0
LINE
8
BLACK
6
CONTINUOUS
10
5.0193700787401569
20
-4.6067716535433068
11
4.9593700787401573
21
-4.6067716535433068
0
LINE
8
BLACK
6
CONTINUOUS
10
4.9593700787401573
20
-4.6067716535433068
11
4.9593700787401573
21
-4.5467716535433071
0
LINE
8
BLACK
6
CONTINUOUS
10
4.9593700787401573
20
-4.5467716535433071
11
5.0193700787401569
21
-4.5467716535433071
0
LINE
8
BLACK
6
CONTINUOUS
10
5.0193700787401569
20
-4.5467716535433071
11
5.0193700787401569
21
-4.6067716535433068
0
LINE
8
BLACK
6
CONTINUOUS
10
5.1193700787401575
20
-4.6067716535433068
11
5.059370078740157
21
-4.6067716535433068
0
LINE
8
BLACK
6
CONTINUOUS
10
5.059370078740157
20
-4.6067716535433068
11
5.059370078740157
21
-4.5467716535433071
0
LINE
8
BLACK
6
CONTINUOUS
10
5.059370078740157
20
-4.5467716535433071
11
5.1193700787401575
21
-4.5467716535433071
0
LINE
8
BLACK
6
CONTINUOUS
10
5.1193700787401575
20
-4.5467716535433071
11
5.1193700787401575
21
-4.6067716535433068
0
LINE
8
BLACK
6
CONTINUOUS
10
5.0193700787401569
20
-4.5067716535433071
11
4.9593700787401573
21
-4.5067716535433071
0
LINE
8
BLACK
6
CONTINUOUS
10
4.9593700787401573
20
-4.5067716535433071
11
4.9593700787401573
21
-4.4467716535433066
0
LINE
8
BLACK
6
CONTINUOUS
10
4.9593700787401573
20
-4.4467716535433066
11
5.0193700787401569
21
-4.4467716535433066
0
LINE
8
BLACK
6
CONTINUOUS
10
5.0193700787401569
20
-4.4467716535433066
11
5.0193700787401569
21
-4.5067716535433071
0
LINE
8
BLACK
6
CONTINUOUS
10
5.1193700787401575
20
-4.5067716535433071
11
5.059370078740157
21
-4.5067716535433071
0
LINE
8
BLACK
6
CONTINUOUS
10
5.059370078740157
20
-4.5067716535433071
11
5.059370078740157
21
-4.4467716535433066
0
LINE
8
BLACK
6
CONTINUOUS
10
5.059370078740157
20
-4.4467716535433066
11
5.1193700787401575
21
-4.4467716535433066
0
LINE
8
BLACK
6
CONTINUOUS
10
5.1193700787401575
20
-4.4467716535433066
11
5.1193700787401575
21
-4.5067716535433071
0
LINE
8
BLACK
6
CONTINUOUS
10
5.0193700787401569
20
-4.4067716535433066
11
4.9593700787401573
21
-4.4067716535433066
0
LINE
8
BLACK
6
CONTINUOUS
10
4.9593700787401573
20
-4.4067716535433066
11
4.9593700787401573
21
-4.346771653543307
0
LINE
8
BLACK
6
CONTINUOUS
10
4.9593700787401573
20
-4.346771653543307
11
5.0193700787401569
21
-4.346771653543307
0
LINE
8
BLACK
6
CONTINUOUS
10
5.0193700787401569
20
-4.346771653543307
11
5.0193700787401569
21
-4.4067716535433066
0
LINE
8
BLACK
6
CONTINUOUS
10
5.1193700787401575
20
-4.4067716535433066
11
5.059370078740157
21
-4.4067716535433066
0
LINE
8
BLACK
6
CONTINUOUS
10
5.059370078740157
20
-4.4067716535433066
11
5.059370078740157
21
-4.346771653543307
0
LINE
8
BLACK
6
CONTINUOUS
10
5.059370078740157
20
-4.346771653543307
11
5.1193700787401575
21
-4.346771653543307
0
LINE
8
BLACK
6
CONTINUOUS
10
5.1193700787401575
20
-4.346771653543307
11
5.1193700787401575
21
-4.4067716535433066
0
LINE
8
BLACK
6
CONTINUOUS
10
5.0193700787401569
20
-4.3067716535433069
11
4.9593700787401573
21
-4.3067716535433069
0
LINE
8
BLACK
6
CONTINUOUS
10
4.9593700787401573
20
-4.3067716535433069
11
4.9593700787401573
21
-4.2467716535433073
0
LINE
8
BLACK
6
CONTINUOUS
10
4.9593700787401573
20
-4.2467716535433073
11
5.0193700787401569
21
-4.2467716535433073
0
LINE
8
BLACK
6
CONTINUOUS
10
5.0193700787401569
20
-4.2467716535433073
11
5.0193700787401569
21
-4.3067716535433069
0
LINE
8
BLACK
6
CONTINUOUS
10
5.1193700787401575
20
-4.3067716535433069
11
5.059370078740157
21
-4.3067716535433069
0
LINE
8
BLACK
6
CONTINUOUS
10
5.059370078740157
20
-4.3067716535433069
11
5.059370078740157
21
-4.2467716535433073
0
LINE
8
BLACK
6
CONTINUOUS
10
5.059370078740157
20
-4.2467716535433073
11
5.1193700787401575
21
-4.2467716535433073
0
LINE
8
BLACK
6
CONTINUOUS
10
5.1193700787401575
20
-4.2467716535433073
11
5.1193700787401575
21
-4.3067716535433069
0
LINE
8
BLACK
6
CONTINUOUS
10
5.0193700787401569
20
-4.2067716535433073
11
4.9593700787401573
21
-4.2067716535433073
0
LINE
8
BLACK
6
CONTINUOUS
10
4.9593700787401573
20
-4.2067716535433073
11
4.9593700787401573
21
-4.1467716535433068
0
LINE
8
BLACK
6
CONTINUOUS
10
4.9593700787401573
20
-4.1467716535433068
11
5.0193700787401569
21
-4.1467716535433068
0
LINE
8
BLACK
6
CONTINUOUS
10
5.0193700787401569
20
-4.1467716535433068
11
5.0193700787401569
21
-4.2067716535433073
0
LINE
8
BLACK
6
CONTINUOUS
10
5.1193700787401575
20
-4.2067716535433073
11
5.059370078740157
21
-4.2067716535433073
0
LINE
8
BLACK
6
CONTINUOUS
10
5.059370078740157
20
-4.2067716535433073
11
5.059370078740157
21
-4.1467716535433068
0
LINE
8
BLACK
6
CONTINUOUS
10
5.059370078740157
20
-4.1467716535433068
11
5.1193700787401575
21
-4.1467716535433068
0
LINE
8
BLACK
6
CONTINUOUS
10
5.1193700787401575
20
-4.1467716535433068
11
5.1193700787401575
21
-4.2067716535433073
0
LINE
8
BLACK
6
CONTINUOUS
10
5.0193700787401569
20
-4.1067716535433068
11
4.9593700787401573
21
-4.1067716535433068
0
LINE
8
BLACK
6
CONTINUOUS
10
4.9593700787401573
20
-4.1067716535433068
11
4.9593700787401573
21
-4.0467716535433071
0
LINE
8
BLACK
6
CONTINUOUS
10
4.9593700787401573
20
-4.0467716535433071
11
5.0193700787401569
21
-4.0467716535433071
0
LINE
8
BLACK
6
CONTINUOUS
10
5.0193700787401569
20
-4.0467716535433071
11
5.0193700787401569
21
-4.1067716535433068
0
LINE
8
BLACK
6
CONTINUOUS
10
5.1193700787401575
20
-4.1067716535433068
11
5.059370078740157
21
-4.1067716535433068
0
LINE
8
BLACK
6
CONTINUOUS
10
5.059370078740157
20
-4.1067716535433068
11
5.059370078740157
21
-4.0467716535433071
0
LINE
8
BLACK
6
CONTINUOUS
10
5.059370078740157
20
-4.0467716535433071
11
5.1193700787401575
21
-4.0467716535433071
0
LINE
8
BLACK
6
CONTINUOUS
10
5.1193700787401575
20
-4.0467716535433071
11
5.1193700787401575
21
-4.1067716535433068
0
LINE
8
BLACK
6
CONTINUOUS
10
5.0193700787401569
20
-4.0067716535433071
11
4.9593700787401573
21
-4.0067716535433071
0
LINE
8
BLACK
6
CONTINUOUS
10
4.9593700787401573
20
-4.0067716535433071
11
4.9593700787401573
21
-3.9467716535433071
0
LINE
8
BLACK
6
CONTINUOUS
10
4.9593700787401573
20
-3.9467716535433071
11
5.0193700787401569
21
-3.9467716535433071
0
LINE
8
BLACK
6
CONTINUOUS
10
5.0193700787401569
20
-3.9467716535433071
11
5.0193700787401569
21
-4.0067716535433071
0
LINE
8
BLACK
6
CONTINUOUS
10
5.1193700787401575
20
-4.0067716535433071
11
5.059370078740157
21
-4.0067716535433071
0
LINE
8
BLACK
6
CONTINUOUS
10
5.059370078740157
20
-4.0067716535433071
11
5.059370078740157
21
-3.9467716535433071
0
LINE
8
BLACK
6
CONTINUOUS
10
5.059370078740157
20
-3.9467716535433071
11
5.1193700787401575
21
-3.9467716535433071
0
LINE
8
BLACK
6
CONTINUOUS
10
5.1193700787401575
20
-3.9467716535433071
11
5.1193700787401575
21
-4.0067716535433071
0
LINE
8
BLACK
6
CONTINUOUS
10
5.0193700787401569
20
-3.906771653543307
11
4.9593700787401573
21
-3.906771653543307
0
LINE
8
BLACK
6
CONTINUOUS
10
4.9593700787401573
20
-3.906771653543307
11
4.9593700787401573
21
-3.846771653543307
0
LINE
8
BLACK
6
CONTINUOUS
10
4.9593700787401573
20
-3.846771653543307
11
5.0193700787401569
21
-3.846771653543307
0
LINE
8
BLACK
6
CONTINUOUS
10
5.0193700787401569
20
-3.846771653543307
11
5.0193700787401569
21
-3.906771653543307
0
LINE
8
BLACK
6
CONTINUOUS
10
5.1193700787401575
20
-3.906771653543307
11
5.059370078740157
21
-3.906771653543307
0
LINE
8
BLACK
6
CONTINUOUS
10
5.059370078740157
20
-3.906771653543307
11
5.059370078740157
21
-3.846771653543307
0
LINE
8
BLACK
6
CONTINUOUS
10
5.059370078740157
20
-3.846771653543307
11
5.1193700787401575
21
-3.846771653543307
0
LINE
8
BLACK
6
CONTINUOUS
10
5.1193700787401575
20
-3.846771653543307
11
5.1193700787401575
21
-3.906771653543307
0
LINE
8
BLACK
6
CONTINUOUS
10
6.1643760236220473
20
-3.7609173622047245
11
6.172307992125984
21
-3.7634946062992127
0
LINE
8
BLACK
6
CONTINUOUS
10
6.172307992125984
20
-3.7634946062992127
11
6.1797390944881885
21
-3.7672809448818896
0
LINE
8
BLACK
6
CONTINUOUS
10
6.1797390944881885
20
-3.7672809448818896
11
6.1864864173228344
21
-3.772183149606299
0
LINE
8
BLACK
6
CONTINUOUS
10
6.1864864173228344
20
-3.772183149606299
11
6.1923837795275585
21
-3.7780805118110234
0
LINE
8
BLACK
6
CONTINUOUS
10
6.1923837795275585
20
-3.7780805118110234
11
6.1972859842519687
21
-3.7848278346456694
0
LINE
8
BLACK
6
CONTINUOUS
10
6.1972859842519687
20
-3.7848278346456694
11
6.2010723228346452
21
-3.7922589370078739
0
LINE
8
BLACK
6
CONTINUOUS
10
6.2010723228346452
20
-3.7922589370078739
11
6.2036495669291334
21
-3.800190905511811
0
LINE
8
BLACK
6
CONTINUOUS
10
6.2036495669291334
20
-3.800190905511811
11
6.2049542519685037
21
-3.8084283464566928
0
LINE
8
BLACK
6
CONTINUOUS
10
6.2049542519685037
20
-3.8084283464566928
11
6.2049542519685037
21
-3.8167685039370078
0
LINE
8
BLACK
6
CONTINUOUS
10
6.2049542519685037
20
-3.8167685039370078
11
6.2036495669291334
21
-3.8250059448818896
0
LINE
8
BLACK
6
CONTINUOUS
10
6.2036495669291334
20
-3.8250059448818896
11
6.2010723228346452
21
-3.8329379133858268
0
LINE
8
BLACK
6
CONTINUOUS
10
6.2010723228346452
20
-3.8329379133858268
11
6.1972859842519687
21
-3.8403690157480312
0
LINE
8
BLACK
6
CONTINUOUS
10
6.1972859842519687
20
-3.8403690157480312
11
6.1923837795275585
21
-3.8471163385826772
0
LINE
8
BLACK
6
CONTINUOUS
10
6.1923837795275585
20
-3.8471163385826772
11
6.1864864173228344
21
-3.8530137007874017
0
LINE
8
BLACK
6
CONTINUOUS
10
6.1864864173228344
20
-3.8530137007874017
11
6.1797390944881885
21
-3.8579159055118111
0
LINE
8
BLACK
6
CONTINUOUS
10
6.1797390944881885
20
-3.8579159055118111
11
6.172307992125984
21
-3.8617022440944879
0
LINE
8
BLACK
6
CONTINUOUS
10
6.172307992125984
20
-3.8617022440944879
11
6.1643760236220473
21
-3.8642794881889762
0
LINE
8
BLACK
6
CONTINUOUS
10
6.1643760236220473
20
-3.8642794881889762
11
6.1561385826771655
21
-3.8655841732283465
0
LINE
8
BLACK
6
CONTINUOUS
10
6.1561385826771655
20
-3.8655841732283465
11
6.14779842519685
21
-3.8655841732283465
0
LINE
8
BLACK
6
CONTINUOUS
10
6.14779842519685
20
-3.8655841732283465
11
6.1395609842519683
21
-3.8642794881889762
0
LINE
8
BLACK
6
CONTINUOUS
10
6.1395609842519683
20
-3.8642794881889762
11
6.1316290157480315
21
-3.8617022440944879
0
LINE
8
BLACK
6
CONTINUOUS
10
6.1316290157480315
20
-3.8617022440944879
11
6.1241979133858262
21
-3.8579159055118111
0
LINE
8
BLACK
6
CONTINUOUS
10
6.1241979133858262
20
-3.8579159055118111
11
6.1174505905511811
21
-3.8530137007874017
0
LINE
8
BLACK
6
CONTINUOUS
10
6.1174505905511811
20
-3.8530137007874017
11
6.1115532283464562
21
-3.8471163385826772
0
LINE
8
BLACK
6
CONTINUOUS
10
6.1115532283464562
20
-3.8471163385826772
11
6.1066510236220468
21
-3.8403690157480312
0
LINE
8
BLACK
6
CONTINUOUS
10
6.1066510236220468
20
-3.8403690157480312
11
6.1028646850393695
21
-3.8329379133858268
0
LINE
8
BLACK
6
CONTINUOUS
10
6.1028646850393695
20
-3.8329379133858268
11
6.1002874409448822
21
-3.8250059448818896
0
LINE
8
BLACK
6
CONTINUOUS
10
6.1002874409448822
20
-3.8250059448818896
11
6.0989827559055119
21
-3.8167685039370078
0
LINE
8
BLACK
6
CONTINUOUS
10
6.0989827559055119
20
-3.8167685039370078
11
6.0989827559055119
21
-3.8084283464566928
0
LINE
8
BLACK
6
CONTINUOUS
10
6.0989827559055119
20
-3.8084283464566928
11
6.1002874409448822
21
-3.800190905511811
0
LINE
8
BLACK
6
CONTINUOUS
10
6.1002874409448822
20
-3.800190905511811
11
6.1028646850393695
21
-3.7922589370078739
0
LINE
8
BLACK
6
CONTINUOUS
10
6.1028646850393695
20
-3.7922589370078739
11
6.1066510236220468
21
-3.7848278346456694
0
LINE
8
BLACK
6
CONTINUOUS
10
6.1066510236220468
20
-3.7848278346456694
11
6.1115532283464562
21
-3.7780805118110234
0
LINE
8
BLACK
6
CONTINUOUS
10
6.1115532283464562
20
-3.7780805118110234
11
6.1174505905511811
21
-3.772183149606299
0
LINE
8
BLACK
6
CONTINUOUS
10
6.1174505905511811
20
-3.772183149606299
11
6.1241979133858262
21
-3.7672809448818896
0
LINE
8
BLACK
6
CONTINUOUS
10
6.1241979133858262
20
-3.7672809448818896
11
6.1316290157480315
21
-3.7634946062992127
0
LINE
8
BLACK
6
CONTINUOUS
10
6.1316290157480315
20
-3.7634946062992127
11
6.1395609842519683
21
-3.7609173622047245
0
LINE
8
BLACK
6
CONTINUOUS
10
6.1395609842519683
20
-3.7609173622047245
11
6.14779842519685
21
-3.7596126771653542
0
LINE
8
BLACK
6
CONTINUOUS
10
6.14779842519685
20
-3.7596126771653542
11
6.1561385826771655
21
-3.7596126771653542
0
LINE
8
BLACK
6
CONTINUOUS
10
6.1561385826771655
20
-3.7596126771653542
11
6.1643760236220473
21
-3.7609173622047245
0
LINE
8
BLACK
6
CONTINUOUS
10
6.3643760236220475
20
-3.7609173622047245
11
6.3723079921259842
21
-3.7634946062992127
0
LINE
8
BLACK
6
CONTINUOUS
10
6.3723079921259842
20
-3.7634946062992127
11
6.3797390944881887
21
-3.7672809448818896
0
LINE
8
BLACK
6
CONTINUOUS
10
6.3797390944881887
20
-3.7672809448818896
11
6.3864864173228346
21
-3.772183149606299
0
LINE
8
BLACK
6
CONTINUOUS
10
6.3864864173228346
20
-3.772183149606299
11
6.3923837795275587
21
-3.7780805118110234
0
LINE
8
BLACK
6
CONTINUOUS
10
6.3923837795275587
20
-3.7780805118110234
11
6.397285984251968
21
-3.7848278346456694
0
LINE
8
BLACK
6
CONTINUOUS
10
6.397285984251968
20
-3.7848278346456694
11
6.4010723228346453
21
-3.7922589370078739
0
LINE
8
BLACK
6
CONTINUOUS
10
6.4010723228346453
20
-3.7922589370078739
11
6.4036495669291336
21
-3.800190905511811
0
LINE
8
BLACK
6
CONTINUOUS
10
6.4036495669291336
20
-3.800190905511811
11
6.4049542519685039
21
-3.8084283464566928
0
LINE
8
BLACK
6
CONTINUOUS
10
6.4049542519685039
20
-3.8084283464566928
11
6.4049542519685039
21
-3.8167685039370078
0
LINE
8
BLACK
6
CONTINUOUS
10
6.4049542519685039
20
-3.8167685039370078
11
6.4036495669291336
21
-3.8250059448818896
0
LINE
8
BLACK
6
CONTINUOUS
10
6.4036495669291336
20
-3.8250059448818896
11
6.4010723228346453
21
-3.8329379133858268
0
LINE
8
BLACK
6
CONTINUOUS
10
6.4010723228346453
20
-3.8329379133858268
11
6.397285984251968
21
-3.8403690157480312
0
LINE
8
BLACK
6
CONTINUOUS
10
6.397285984251968
20
-3.8403690157480312
11
6.3923837795275587
21
-3.8471163385826772
0
LINE
8
BLACK
6
CONTINUOUS
10
6.3923837795275587
20
-3.8471163385826772
11
6.3864864173228346
21
-3.8530137007874017
0
LINE
8
BLACK
6
CONTINUOUS
10
6.3864864173228346
20
-3.8530137007874017
11
6.3797390944881887
21
-3.8579159055118111
0
LINE
8
BLACK
6
CONTINUOUS
10
6.3797390944881887
20
-3.8579159055118111
11
6.3723079921259842
21
-3.8617022440944879
0
LINE
8
BLACK
6
CONTINUOUS
10
6.3723079921259842
20
-3.8617022440944879
11
6.3643760236220475
21
-3.8642794881889762
0
LINE
8
BLACK
6
CONTINUOUS
10
6.3643760236220475
20
-3.8642794881889762
11
6.3561385826771648
21
-3.8655841732283465
0
LINE
8
BLACK
6
CONTINUOUS
10
6.3561385826771648
20
-3.8655841732283465
11
6.3477984251968502
21
-3.8655841732283465
0
LINE
8
BLACK
6
CONTINUOUS
10
6.3477984251968502
20
-3.8655841732283465
11
6.3395609842519685
21
-3.8642794881889762
0
LINE
8
BLACK
6
CONTINUOUS
10
6.3395609842519685
20
-3.8642794881889762
11
6.3316290157480317
21
-3.8617022440944879
0
LINE
8
BLACK
6
CONTINUOUS
10
6.3316290157480317
20
-3.8617022440944879
11
6.3241979133858264
21
-3.8579159055118111
0
LINE
8
BLACK
6
CONTINUOUS
10
6.3241979133858264
20
-3.8579159055118111
11
6.3174505905511813
21
-3.8530137007874017
0
LINE
8
BLACK
6
CONTINUOUS
10
6.3174505905511813
20
-3.8530137007874017
11
6.3115532283464564
21
-3.8471163385826772
0
LINE
8
BLACK
6
CONTINUOUS
10
6.3115532283464564
20
-3.8471163385826772
11
6.306651023622047
21
-3.8403690157480312
0
LINE
8
BLACK
6
CONTINUOUS
10
6.306651023622047
20
-3.8403690157480312
11
6.3028646850393697
21
-3.8329379133858268
0
LINE
8
BLACK
6
CONTINUOUS
10
6.3028646850393697
20
-3.8329379133858268
11
6.3002874409448815
21
-3.8250059448818896
0
LINE
8
BLACK
6
CONTINUOUS
10
6.3002874409448815
20
-3.8250059448818896
11
6.298982755905512
21
-3.8167685039370078
0
LINE
8
BLACK
6
CONTINUOUS
10
6.298982755905512
20
-3.8167685039370078
11
6.298982755905512
21
-3.8084283464566928
0
LINE
8
BLACK
6
CONTINUOUS
10
6.298982755905512
20
-3.8084283464566928
11
6.3002874409448815
21
-3.800190905511811
0
LINE
8
BLACK
6
CONTINUOUS
10
6.3002874409448815
20
-3.800190905511811
11
6.3028646850393697
21
-3.7922589370078739
0
LINE
8
BLACK
6
CONTINUOUS
10
6.3028646850393697
20
-3.7922589370078739
11
6.306651023622047
21
-3.7848278346456694
0
LINE
8
BLACK
6
CONTINUOUS
10
6.306651023622047
20
-3.7848278346456694
11
6.3115532283464564
21
-3.7780805118110234
0
LINE
8
BLACK
6
CONTINUOUS
10
6.3115532283464564
20
-3.7780805118110234
11
6.3174505905511813
21
-3.772183149606299
0
LINE
8
BLACK
6
CONTINUOUS
10
6.3174505905511813
20
-3.772183149606299
11
6.3241979133858264
21
-3.7672809448818896
0
LINE
8
BLACK
6
CONTINUOUS
10
6.3241979133858264
20
-3.7672809448818896
11
6.3316290157480317
21
-3.7634946062992127
0
LINE
8
BLACK
6
CONTINUOUS
10
6.3316290157480317
20
-3.7634946062992127
11
6.3395609842519685
21
-3.7609173622047245
0
LINE
8
BLACK
6
CONTINUOUS
10
6.3395609842519685
20
-3.7609173622047245
11
6.3477984251968502
21
-3.7596126771653542
0
LINE
8
BLACK
6
CONTINUOUS
10
6.3477984251968502
20
-3.7596126771653542
11
6.3561385826771648
21
-3.7596126771653542
0
LINE
8
BLACK
6
CONTINUOUS
10
6.3561385826771648
20
-3.7596126771653542
11
6.3643760236220475
21
-3.7609173622047245
0
LINE
8
BLACK
6
CONTINUOUS
10
5.0193700787401569
20
-3.8067716535433069
11
4.9593700787401573
21
-3.8067716535433069
0
LINE
8
BLACK
6
CONTINUOUS
10
4.9593700787401573
20
-3.8067716535433069
11
4.9593700787401573
21
-3.7467716535433069
0
LINE
8
BLACK
6
CONTINUOUS
10
4.9593700787401573
20
-3.7467716535433069
11
5.0193700787401569
21
-3.7467716535433069
0
LINE
8
BLACK
6
CONTINUOUS
10
5.0193700787401569
20
-3.7467716535433069
11
5.0193700787401569
21
-3.8067716535433069
0
LINE
8
BLACK
6
CONTINUOUS
10
5.1193700787401575
20
-3.8067716535433069
11
5.059370078740157
21
-3.8067716535433069
0
LINE
8
BLACK
6
CONTINUOUS
10
5.059370078740157
20
-3.8067716535433069
11
5.059370078740157
21
-3.7467716535433069
0
LINE
8
BLACK
6
CONTINUOUS
10
5.059370078740157
20
-3.7467716535433069
11
5.1193700787401575
21
-3.7467716535433069
0
LINE
8
BLACK
6
CONTINUOUS
10
5.1193700787401575
20
-3.7467716535433069
11
5.1193700787401575
21
-3.8067716535433069
0
LINE
8
BLACK
6
CONTINUOUS
10
6.2634569685039372
20
-3.6647455905511812
11
6.2708013385826771
21
-3.6671319291338582
0
LINE
8
BLACK
6
CONTINUOUS
10
6.2708013385826771
20
-3.6671319291338582
11
6.2776820078740156
21
-3.6706377952755904
0
LINE
8
BLACK
6
CONTINUOUS
10
6.2776820078740156
20
-3.6706377952755904
11
6.2839295275590548
21
-3.6751768897637795
0
LINE
8
BLACK
6
CONTINUOUS
10
6.2839295275590548
20
-3.6751768897637795
11
6.2893900393700788
21
-3.6806374015748031
0
LINE
8
BLACK
6
CONTINUOUS
10
6.2893900393700788
20
-3.6806374015748031
11
6.2939291338582679
21
-3.6868849212598422
0
LINE
8
BLACK
6
CONTINUOUS
10
6.2939291338582679
20
-3.6868849212598422
11
6.2974350000000001
21
-3.6937655905511808
0
LINE
8
BLACK
6
CONTINUOUS
10
6.2974350000000001
20
-3.6937655905511808
11
6.2998213385826771
21
-3.7011099606299211
0
LINE
8
BLACK
6
CONTINUOUS
10
6.2998213385826771
20
-3.7011099606299211
11
6.3010294094488186
21
-3.7087372440944879
0
LINE
8
BLACK
6
CONTINUOUS
10
6.3010294094488186
20
-3.7087372440944879
11
6.3010294094488186
21
-3.7164596062992126
0
LINE
8
BLACK
6
CONTINUOUS
10
6.3010294094488186
20
-3.7164596062992126
11
6.2998213385826771
21
-3.7240868897637793
0
LINE
8
BLACK
6
CONTINUOUS
10
6.2998213385826771
20
-3.7240868897637793
11
6.2974350000000001
21
-3.7314312598425197
0
LINE
8
BLACK
6
CONTINUOUS
10
6.2974350000000001
20
-3.7314312598425197
11
6.2939291338582679
21
-3.7383119291338582
0
LINE
8
BLACK
6
CONTINUOUS
10
6.2939291338582679
20
-3.7383119291338582
11
6.2893900393700788
21
-3.7445594488188974
0
LINE
8
BLACK
6
CONTINUOUS
10
6.2893900393700788
20
-3.7445594488188974
11
6.2839295275590548
21
-3.7500199606299214
0
LINE
8
BLACK
6
CONTINUOUS
10
6.2839295275590548
20
-3.7500199606299214
11
6.2776820078740156
21
-3.7545590551181101
0
LINE
8
BLACK
6
CONTINUOUS
10
6.2776820078740156
20
-3.7545590551181101
11
6.2708013385826771
21
-3.7580649212598423
0
LINE
8
BLACK
6
CONTINUOUS
10
6.2708013385826771
20
-3.7580649212598423
11
6.2634569685039372
21
-3.7604512598425197
0
LINE
8
BLACK
6
CONTINUOUS
10
6.2634569685039372
20
-3.7604512598425197
11
6.2558296850393695
21
-3.7616593307086612
0
LINE
8
BLACK
6
CONTINUOUS
10
6.2558296850393695
20
-3.7616593307086612
11
6.2481073228346453
21
-3.7616593307086612
0
LINE
8
BLACK
6
CONTINUOUS
10
6.2481073228346453
20
-3.7616593307086612
11
6.2404800393700786
21
-3.7604512598425197
0
LINE
8
BLACK
6
CONTINUOUS
10
6.2404800393700786
20
-3.7604512598425197
11
6.2331356692913387
21
-3.7580649212598423
0
LINE
8
BLACK
6
CONTINUOUS
10
6.2331356692913387
20
-3.7580649212598423
11
6.2262550000000001
21
-3.7545590551181101
0
LINE
8
BLACK
6
CONTINUOUS
10
6.2262550000000001
20
-3.7545590551181101
11
6.2200074803149601
21
-3.7500199606299214
0
LINE
8
BLACK
6
CONTINUOUS
10
6.2200074803149601
20
-3.7500199606299214
11
6.214546968503937
21
-3.7445594488188974
0
LINE
8
BLACK
6
CONTINUOUS
10
6.214546968503937
20
-3.7445594488188974
11
6.2100078740157478
21
-3.7383119291338582
0
LINE
8
BLACK
6
CONTINUOUS
10
6.2100078740157478
20
-3.7383119291338582
11
6.2065020078740156
21
-3.7314312598425197
0
LINE
8
BLACK
6
CONTINUOUS
10
6.2065020078740156
20
-3.7314312598425197
11
6.2041156692913386
21
-3.7240868897637793
0
LINE
8
BLACK
6
CONTINUOUS
10
6.2041156692913386
20
-3.7240868897637793
11
6.2029075984251971
21
-3.7164596062992126
0
LINE
8
BLACK
6
CONTINUOUS
10
6.2029075984251971
20
-3.7164596062992126
11
6.2029075984251971
21
-3.7087372440944879
0
LINE
8
BLACK
6
CONTINUOUS
10
6.2029075984251971
20
-3.7087372440944879
11
6.2041156692913386
21
-3.7011099606299211
0
LINE
8
BLACK
6
CONTINUOUS
10
6.2041156692913386
20
-3.7011099606299211
11
6.2065020078740156
21
-3.6937655905511808
0
LINE
8
BLACK
6
CONTINUOUS
10
6.2065020078740156
20
-3.6937655905511808
11
6.2100078740157478
21
-3.6868849212598422
0
LINE
8
BLACK
6
CONTINUOUS
10
6.2100078740157478
20
-3.6868849212598422
11
6.214546968503937
21
-3.6806374015748031
0
LINE
8
BLACK
6
CONTINUOUS
10
6.214546968503937
20
-3.6806374015748031
11
6.2200074803149601
21
-3.6751768897637795
0
LINE
8
BLACK
6
CONTINUOUS
10
6.2200074803149601
20
-3.6751768897637795
11
6.2262550000000001
21
-3.6706377952755904
0
LINE
8
BLACK
6
CONTINUOUS
10
6.2262550000000001
20
-3.6706377952755904
11
6.2331356692913387
21
-3.6671319291338582
0
LINE
8
BLACK
6
CONTINUOUS
10
6.2331356692913387
20
-3.6671319291338582
11
6.2404800393700786
21
-3.6647455905511812
0
LINE
8
BLACK
6
CONTINUOUS
10
6.2404800393700786
20
-3.6647455905511812
11
6.2481073228346453
21
-3.6635375196850393
0
LINE
8
BLACK
6
CONTINUOUS
10
6.2481073228346453
20
-3.6635375196850393
11
6.2558296850393695
21
-3.6635375196850393
0
LINE
8
BLACK
6
CONTINUOUS
10
6.2558296850393695
20
-3.6635375196850393
11
6.2634569685039372
21
-3.6647455905511812
0
LINE
8
BLACK
6
CONTINUOUS
10
5.0193700787401569
20
-3.7067716535433068
11
4.9593700787401573
21
-3.7067716535433068
0
LINE
8
BLACK
6
CONTINUOUS
10
4.9593700787401573
20
-3.7067716535433068
11
4.9593700787401573
21
-3.6467716535433068
0
LINE
8
BLACK
6
CONTINUOUS
10
4.9593700787401573
20
-3.6467716535433068
11
5.0193700787401569
21
-3.6467716535433068
0
LINE
8
BLACK
6
CONTINUOUS
10
5.0193700787401569
20
-3.6467716535433068
11
5.0193700787401569
21
-3.7067716535433068
0
LINE
8
BLACK
6
CONTINUOUS
10
5.1193700787401575
20
-3.7067716535433068
11
5.059370078740157
21
-3.7067716535433068
0
LINE
8
BLACK
6
CONTINUOUS
10
5.059370078740157
20
-3.7067716535433068
11
5.059370078740157
21
-3.6467716535433068
0
LINE
8
BLACK
6
CONTINUOUS
10
5.059370078740157
20
-3.6467716535433068
11
5.1193700787401575
21
-3.6467716535433068
0
LINE
8
BLACK
6
CONTINUOUS
10
5.1193700787401575
20
-3.6467716535433068
11
5.1193700787401575
21
-3.7067716535433068
0
LINE
8
BLACK
6
CONTINUOUS
10
6.1643760236220473
20
-3.5609173622047243
11
6.172307992125984
21
-3.5634946062992126
0
LINE
8
BLACK
6
CONTINUOUS
10
6.172307992125984
20
-3.5634946062992126
11
6.1797390944881885
21
-3.5672809448818898
0
LINE
8
BLACK
6
CONTINUOUS
10
6.1797390944881885
20
-3.5672809448818898
11
6.1864864173228344
21
-3.5721831496062992
0
LINE
8
BLACK
6
CONTINUOUS
10
6.1864864173228344
20
-3.5721831496062992
11
6.1923837795275585
21
-3.5780805118110237
0
LINE
8
BLACK
6
CONTINUOUS
10
6.1923837795275585
20
-3.5780805118110237
11
6.1972859842519687
21
-3.5848278346456692
0
LINE
8
BLACK
6
CONTINUOUS
10
6.1972859842519687
20
-3.5848278346456692
11
6.2010723228346452
21
-3.5922589370078741
0
LINE
8
BLACK
6
CONTINUOUS
10
6.2010723228346452
20
-3.5922589370078741
11
6.2036495669291334
21
-3.6001909055118109
0
LINE
8
BLACK
6
CONTINUOUS
10
6.2036495669291334
20
-3.6001909055118109
11
6.2049542519685037
21
-3.6084283464566926
0
LINE
8
BLACK
6
CONTINUOUS
10
6.2049542519685037
20
-3.6084283464566926
11
6.2049542519685037
21
-3.6167685039370077
0
LINE
8
BLACK
6
CONTINUOUS
10
6.2049542519685037
20
-3.6167685039370077
11
6.2036495669291334
21
-3.6250059448818899
0
LINE
8
BLACK
6
CONTINUOUS
10
6.2036495669291334
20
-3.6250059448818899
11
6.2010723228346452
21
-3.6329379133858266
0
LINE
8
BLACK
6
CONTINUOUS
10
6.2010723228346452
20
-3.6329379133858266
11
6.1972859842519687
21
-3.6403690157480315
0
LINE
8
BLACK
6
CONTINUOUS
10
6.1972859842519687
20
-3.6403690157480315
11
6.1923837795275585
21
-3.647116338582677
0
LINE
8
BLACK
6
CONTINUOUS
10
6.1923837795275585
20
-3.647116338582677
11
6.1864864173228344
21
-3.6530137007874015
0
LINE
8
BLACK
6
CONTINUOUS
10
6.1864864173228344
20
-3.6530137007874015
11
6.1797390944881885
21
-3.6579159055118109
0
LINE
8
BLACK
6
CONTINUOUS
10
6.1797390944881885
20
-3.6579159055118109
11
6.172307992125984
21
-3.6617022440944882
0
LINE
8
BLACK
6
CONTINUOUS
10
6.172307992125984
20
-3.6617022440944882
11
6.1643760236220473
21
-3.6642794881889764
0
LINE
8
BLACK
6
CONTINUOUS
10
6.1643760236220473
20
-3.6642794881889764
11
6.1561385826771655
21
-3.6655841732283463
0
LINE
8
BLACK
6
CONTINUOUS
10
6.1561385826771655
20
-3.6655841732283463
11
6.14779842519685
21
-3.6655841732283463
0
LINE
8
BLACK
6
CONTINUOUS
10
6.14779842519685
20
-3.6655841732283463
11
6.1395609842519683
21
-3.6642794881889764
0
LINE
8
BLACK
6
CONTINUOUS
10
6.1395609842519683
20
-3.6642794881889764
11
6.1316290157480315
21
-3.6617022440944882
0
LINE
8
BLACK
6
CONTINUOUS
10
6.1316290157480315
20
-3.6617022440944882
11
6.1241979133858262
21
-3.6579159055118109
0
LINE
8
BLACK
6
CONTINUOUS
10
6.1241979133858262
20
-3.6579159055118109
11
6.1174505905511811
21
-3.6530137007874015
0
LINE
8
BLACK
6
CONTINUOUS
10
6.1174505905511811
20
-3.6530137007874015
11
6.1115532283464562
21
-3.647116338582677
0
LINE
8
BLACK
6
CONTINUOUS
10
6.1115532283464562
20
-3.647116338582677
11
6.1066510236220468
21
-3.6403690157480315
0
LINE
8
BLACK
6
CONTINUOUS
10
6.1066510236220468
20
-3.6403690157480315
11
6.1028646850393695
21
-3.6329379133858266
0
LINE
8
BLACK
6
CONTINUOUS
10
6.1028646850393695
20
-3.6329379133858266
11
6.1002874409448822
21
-3.6250059448818899
0
LINE
8
BLACK
6
CONTINUOUS
10
6.1002874409448822
20
-3.6250059448818899
11
6.0989827559055119
21
-3.6167685039370077
0
LINE
8
BLACK
6
CONTINUOUS
10
6.0989827559055119
20
-3.6167685039370077
11
6.0989827559055119
21
-3.6084283464566926
0
LINE
8
BLACK
6
CONTINUOUS
10
6.0989827559055119
20
-3.6084283464566926
11
6.1002874409448822
21
-3.6001909055118109
0
LINE
8
BLACK
6
CONTINUOUS
10
6.1002874409448822
20
-3.6001909055118109
11
6.1028646850393695
21
-3.5922589370078741
0
LINE
8
BLACK
6
CONTINUOUS
10
6.1028646850393695
20
-3.5922589370078741
11
6.1066510236220468
21
-3.5848278346456692
0
LINE
8
BLACK
6
CONTINUOUS
10
6.1066510236220468
20
-3.5848278346456692
11
6.1115532283464562
21
-3.5780805118110237
0
LINE
8
BLACK
6
CONTINUOUS
10
6.1115532283464562
20
-3.5780805118110237
11
6.1174505905511811
21
-3.5721831496062992
0
LINE
8
BLACK
6
CONTINUOUS
10
6.1174505905511811
20
-3.5721831496062992
11
6.1241979133858262
21
-3.5672809448818898
0
LINE
8
BLACK
6
CONTINUOUS
10
6.1241979133858262
20
-3.5672809448818898
11
6.1316290157480315
21
-3.5634946062992126
0
LINE
8
BLACK
6
CONTINUOUS
10
6.1316290157480315
20
-3.5634946062992126
11
6.1395609842519683
21
-3.5609173622047243
0
LINE
8
BLACK
6
CONTINUOUS
10
6.1395609842519683
20
-3.5609173622047243
11
6.14779842519685
21
-3.5596126771653545
0
LINE
8
BLACK
6
CONTINUOUS
10
6.14779842519685
20
-3.5596126771653545
11
6.1561385826771655
21
-3.5596126771653545
0
LINE
8
BLACK
6
CONTINUOUS
10
6.1561385826771655
20
-3.5596126771653545
11
6.1643760236220473
21
-3.5609173622047243
0
LINE
8
BLACK
6
CONTINUOUS
10
6.3643760236220475
20
-3.5609173622047243
11
6.3723079921259842
21
-3.5634946062992126
0
LINE
8
BLACK
6
CONTINUOUS
10
6.3723079921259842
20
-3.5634946062992126
11
6.3797390944881887
21
-3.5672809448818898
0
LINE
8
BLACK
6
CONTINUOUS
10
6.3797390944881887
20
-3.5672809448818898
11
6.3864864173228346
21
-3.5721831496062992
0
LINE
8
BLACK
6
CONTINUOUS
10
6.3864864173228346
20
-3.5721831496062992
11
6.3923837795275587
21
-3.5780805118110237
0
LINE
8
BLACK
6
CONTINUOUS
10
6.3923837795275587
20
-3.5780805118110237
11
6.397285984251968
21
-3.5848278346456692
0
LINE
8
BLACK
6
CONTINUOUS
10
6.397285984251968
20
-3.5848278346456692
11
6.4010723228346453
21
-3.5922589370078741
0
LINE
8
BLACK
6
CONTINUOUS
10
6.4010723228346453
20
-3.5922589370078741
11
6.4036495669291336
21
-3.6001909055118109
0
LINE
8
BLACK
6
CONTINUOUS
10
6.4036495669291336
20
-3.6001909055118109
11
6.4049542519685039
21
-3.6084283464566926
0
LINE
8
BLACK
6
CONTINUOUS
10
6.4049542519685039
20
-3.6084283464566926
11
6.4049542519685039
21
-3.6167685039370077
0
LINE
8
BLACK
6
CONTINUOUS
10
6.4049542519685039
20
-3.6167685039370077
11
6.4036495669291336
21
-3.6250059448818899
0
LINE
8
BLACK
6
CONTINUOUS
10
6.4036495669291336
20
-3.6250059448818899
11
6.4010723228346453
21
-3.6329379133858266
0
LINE
8
BLACK
6
CONTINUOUS
10
6.4010723228346453
20
-3.6329379133858266
11
6.397285984251968
21
-3.6403690157480315
0
LINE
8
BLACK
6
CONTINUOUS
10
6.397285984251968
20
-3.6403690157480315
11
6.3923837795275587
21
-3.647116338582677
0
LINE
8
BLACK
6
CONTINUOUS
10
6.3923837795275587
20
-3.647116338582677
11
6.3864864173228346
21
-3.6530137007874015
0
LINE
8
BLACK
6
CONTINUOUS
10
6.3864864173228346
20
-3.6530137007874015
11
6.3797390944881887
21
-3.6579159055118109
0
LINE
8
BLACK
6
CONTINUOUS
10
6.3797390944881887
20
-3.6579159055118109
11
6.3723079921259842
21
-3.6617022440944882
0
LINE
8
BLACK
6
CONTINUOUS
10
6.3723079921259842
20
-3.6617022440944882
11
6.3643760236220475
21
-3.6642794881889764
0
LINE
8
BLACK
6
CONTINUOUS
10
6.3643760236220475
20
-3.6642794881889764
11
6.3561385826771648
21
-3.6655841732283463
0
LINE
8
BLACK
6
CONTINUOUS
10
6.3561385826771648
20
-3.6655841732283463
11
6.3477984251968502
21
-3.6655841732283463
0
LINE
8
BLACK
6
CONTINUOUS
10
6.3477984251968502
20
-3.6655841732283463
11
6.3395609842519685
21
-3.6642794881889764
0
LINE
8
BLACK
6
CONTINUOUS
10
6.3395609842519685
20
-3.6642794881889764
11
6.3316290157480317
21
-3.6617022440944882
0
LINE
8
BLACK
6
CONTINUOUS
10
6.3316290157480317
20
-3.6617022440944882
11
6.3241979133858264
21
-3.6579159055118109
0
LINE
8
BLACK
6
CONTINUOUS
10
6.3241979133858264
20
-3.6579159055118109
11
6.3174505905511813
21
-3.6530137007874015
0
LINE
8
BLACK
6
CONTINUOUS
10
6.3174505905511813
20
-3.6530137007874015
11
6.3115532283464564
21
-3.647116338582677
0
LINE
8
BLACK
6
CONTINUOUS
10
6.3115532283464564
20
-3.647116338582677
11
6.306651023622047
21
-3.6403690157480315
0
LINE
8
BLACK
6
CONTINUOUS
10
6.306651023622047
20
-3.6403690157480315
11
6.3028646850393697
21
-3.6329379133858266
0
LINE
8
BLACK
6
CONTINUOUS
10
6.3028646850393697
20
-3.6329379133858266
11
6.3002874409448815
21
-3.6250059448818899
0
LINE
8
BLACK
6
CONTINUOUS
10
6.3002874409448815
20
-3.6250059448818899
11
6.298982755905512
21
-3.6167685039370077
0
LINE
8
BLACK
6
CONTINUOUS
10
6.298982755905512
20
-3.6167685039370077
11
6.298982755905512
21
-3.6084283464566926
0
LINE
8
BLACK
6
CONTINUOUS
10
6.298982755905512
20
-3.6084283464566926
11
6.3002874409448815
21
-3.6001909055118109
0
LINE
8
BLACK
6
CONTINUOUS
10
6.3002874409448815
20
-3.6001909055118109
11
6.3028646850393697
21
-3.5922589370078741
0
LINE
8
BLACK
6
CONTINUOUS
10
6.3028646850393697
20
-3.5922589370078741
11
6.306651023622047
21
-3.5848278346456692
0
LINE
8
BLACK
6
CONTINUOUS
10
6.306651023622047
20
-3.5848278346456692
11
6.3115532283464564
21
-3.5780805118110237
0
LINE
8
BLACK
6
CONTINUOUS
10
6.3115532283464564
20
-3.5780805118110237
11
6.3174505905511813
21
-3.5721831496062992
0
LINE
8
BLACK
6
CONTINUOUS
10
6.3174505905511813
20
-3.5721831496062992
11
6.3241979133858264
21
-3.5672809448818898
0
LINE
8
BLACK
6
CONTINUOUS
10
6.3241979133858264
20
-3.5672809448818898
11
6.3316290157480317
21
-3.5634946062992126
0
LINE
8
BLACK
6
CONTINUOUS
10
6.3316290157480317
20
-3.5634946062992126
11
6.3395609842519685
21
-3.5609173622047243
0
LINE
8
BLACK
6
CONTINUOUS
10
6.3395609842519685
20
-3.5609173622047243
11
6.3477984251968502
21
-3.5596126771653545
0
LINE
8
BLACK
6
CONTINUOUS
10
6.3477984251968502
20
-3.5596126771653545
11
6.3561385826771648
21
-3.5596126771653545
0
LINE
8
BLACK
6
CONTINUOUS
10
6.3561385826771648
20
-3.5596126771653545
11
6.3643760236220475
21
-3.5609173622047243
0
LINE
8
BLACK
6
CONTINUOUS
10
5.0193700787401569
20
-3.6067716535433072
11
4.9593700787401573
21
-3.6067716535433072
0
LINE
8
BLACK
6
CONTINUOUS
10
4.9593700787401573
20
-3.6067716535433072
11
4.9593700787401573
21
-3.5467716535433071
0
LINE
8
BLACK
6
CONTINUOUS
10
4.9593700787401573
20
-3.5467716535433071
11
5.0193700787401569
21
-3.5467716535433071
0
LINE
8
BLACK
6
CONTINUOUS
10
5.0193700787401569
20
-3.5467716535433071
11
5.0193700787401569
21
-3.6067716535433072
0
LINE
8
BLACK
6
CONTINUOUS
10
5.1193700787401575
20
-3.6067716535433072
11
5.059370078740157
21
-3.6067716535433072
0
LINE
8
BLACK
6
CONTINUOUS
10
5.059370078740157
20
-3.6067716535433072
11
5.059370078740157
21
-3.5467716535433071
0
LINE
8
BLACK
6
CONTINUOUS
10
5.059370078740157
20
-3.5467716535433071
11
5.1193700787401575
21
-3.5467716535433071
0
LINE
8
BLACK
6
CONTINUOUS
10
5.1193700787401575
20
-3.5467716535433071
11
5.1193700787401575
21
-3.6067716535433072
0
LINE
8
BLACK
6
CONTINUOUS
10
5.059154291338583
20
-3.2103301968503937
11
5.0720672047244095
21
-3.2132774803149604
0
LINE
8
BLACK
6
CONTINUOUS
10
5.0720672047244095
20
-3.2132774803149604
11
5.0845688976377952
21
-3.2176520078740158
0
LINE
8
BLACK
6
CONTINUOUS
10
5.0845688976377952
20
-3.2176520078740158
11
5.0965022440944878
21
-3.2233988188976377
0
LINE
8
BLACK
6
CONTINUOUS
10
5.0965022440944878
20
-3.2233988188976377
11
5.1077170866141728
21
-3.2304455511811021
0
LINE
8
BLACK
6
CONTINUOUS
10
5.1077170866141728
20
-3.2304455511811021
11
5.1180724409448821
21
-3.2387037007874016
0
LINE
8
BLACK
6
CONTINUOUS
10
5.1180724409448821
20
-3.2387037007874016
11
5.1274380314960633
21
-3.2480692913385827
0
LINE
8
BLACK
6
CONTINUOUS
10
5.1274380314960633
20
-3.2480692913385827
11
5.1356961811023618
21
-3.2584246456692911
0
LINE
8
BLACK
6
CONTINUOUS
10
5.1356961811023618
20
-3.2584246456692911
11
5.1427429133858267
21
-3.2696394881889761
0
LINE
8
BLACK
6
CONTINUOUS
10
5.1427429133858267
20
-3.2696394881889761
11
5.1484897244094485
21
-3.2815728346456692
0
LINE
8
BLACK
6
CONTINUOUS
10
5.1484897244094485
20
-3.2815728346456692
11
5.152864251968504
21
-3.2940745275590548
0
LINE
8
BLACK
6
CONTINUOUS
10
5.152864251968504
20
-3.2940745275590548
11
5.1558115354330711
21
-3.3069874409448818
0
LINE
8
BLACK
6
CONTINUOUS
10
5.1558115354330711
20
-3.3069874409448818
11
5.1572944881889766
21
-3.3201491732283466
0
LINE
8
BLACK
6
CONTINUOUS
10
5.1572944881889766
20
-3.3201491732283466
11
5.1572944881889766
21
-3.3333941338582678
0
LINE
8
BLACK
6
CONTINUOUS
10
5.1572944881889766
20
-3.3333941338582678
11
5.1558115354330711
21
-3.3465558661417321
0
LINE
8
BLACK
6
CONTINUOUS
10
5.1558115354330711
20
-3.3465558661417321
11
5.152864251968504
21
-3.3594687795275591
0
LINE
8
BLACK
6
CONTINUOUS
10
5.152864251968504
20
-3.3594687795275591
11
5.1484897244094485
21
-3.3719704724409447
0
LINE
8
BLACK
6
CONTINUOUS
10
5.1484897244094485
20
-3.3719704724409447
11
5.1427429133858267
21
-3.3839038188976378
0
LINE
8
BLACK
6
CONTINUOUS
10
5.1427429133858267
20
-3.3839038188976378
11
5.1356961811023618
21
-3.3951186614173228
0
LINE
8
BLACK
6
CONTINUOUS
10
5.1356961811023618
20
-3.3951186614173228
11
5.1274380314960633
21
-3.4054740157480312
0
LINE
8
BLACK
6
CONTINUOUS
10
5.1274380314960633
20
-3.4054740157480312
11
5.1180724409448821
21
-3.4148396062992123
0
LINE
8
BLACK
6
CONTINUOUS
10
5.1180724409448821
20
-3.4148396062992123
11
5.1077170866141728
21
-3.4230977559055118
0
LINE
8
BLACK
6
CONTINUOUS
10
5.1077170866141728
20
-3.4230977559055118
11
5.0965022440944878
21
-3.4301444881889762
0
LINE
8
BLACK
6
CONTINUOUS
10
5.0965022440944878
20
-3.4301444881889762
11
5.0845688976377952
21
-3.4358912992125985
0
LINE
8
BLACK
6
CONTINUOUS
10
5.0845688976377952
20
-3.4358912992125985
11
5.0720672047244095
21
-3.4402658267716535
0
LINE
8
BLACK
6
CONTINUOUS
10
5.0720672047244095
20
-3.4402658267716535
11
5.059154291338583
21
-3.4432131102362202
0
LINE
8
BLACK
6
CONTINUOUS
10
5.059154291338583
20
-3.4432131102362202
11
5.0459925590551178
21
-3.4446960629921257
0
LINE
8
BLACK
6
CONTINUOUS
10
5.0459925590551178
20
-3.4446960629921257
11
5.032747598425197
21
-3.4446960629921257
0
LINE
8
BLACK
6
CONTINUOUS
10
5.032747598425197
20
-3.4446960629921257
11
5.0195858661417319
21
-3.4432131102362202
0
LINE
8
BLACK
6
CONTINUOUS
10
5.0195858661417319
20
-3.4432131102362202
11
5.0066729527559053
21
-3.4402658267716535
0
LINE
8
BLACK
6
CONTINUOUS
10
5.0066729527559053
20
-3.4402658267716535
11
4.9941712598425196
21
-3.4358912992125985
0
LINE
8
BLACK
6
CONTINUOUS
10
4.9941712598425196
20
-3.4358912992125985
11
4.982237913385827
21
-3.4301444881889762
0
LINE
8
BLACK
6
CONTINUOUS
10
4.982237913385827
20
-3.4301444881889762
11
4.971023070866142
21
-3.4230977559055118
0
LINE
8
BLACK
6
CONTINUOUS
10
4.971023070866142
20
-3.4230977559055118
11
4.9606677165354327
21
-3.4148396062992123
0
LINE
8
BLACK
6
CONTINUOUS
10
4.9606677165354327
20
-3.4148396062992123
11
4.9513021259842516
21
-3.4054740157480312
0
LINE
8
BLACK
6
CONTINUOUS
10
4.9513021259842516
20
-3.4054740157480312
11
4.943043976377953
21
-3.3951186614173228
0
LINE
8
BLACK
6
CONTINUOUS
10
4.943043976377953
20
-3.3951186614173228
11
4.9359972440944881
21
-3.3839038188976378
0
LINE
8
BLACK
6
CONTINUOUS
10
4.9359972440944881
20
-3.3839038188976378
11
4.9302504330708663
21
-3.3719704724409447
0
LINE
8
BLACK
6
CONTINUOUS
10
4.9302504330708663
20
-3.3719704724409447
11
4.9258759055118109
21
-3.3594687795275591
0
LINE
8
BLACK
6
CONTINUOUS
10
4.9258759055118109
20
-3.3594687795275591
11
4.9229286220472437
21
-3.3465558661417321
0
LINE
8
BLACK
6
CONTINUOUS
10
4.9229286220472437
20
-3.3465558661417321
11
4.9214456692913382
21
-3.3333941338582678
0
LINE
8
BLACK
6
CONTINUOUS
10
4.9214456692913382
20
-3.3333941338582678
11
4.9214456692913382
21
-3.3201491732283466
0
LINE
8
BLACK
6
CONTINUOUS
10
4.9214456692913382
20
-3.3201491732283466
11
4.9229286220472437
21
-3.3069874409448818
0
LINE
8
BLACK
6
CONTINUOUS
10
4.9229286220472437
20
-3.3069874409448818
11
4.9258759055118109
21
-3.2940745275590548
0
LINE
8
BLACK
6
CONTINUOUS
10
4.9258759055118109
20
-3.2940745275590548
11
4.9302504330708663
21
-3.2815728346456692
0
LINE
8
BLACK
6
CONTINUOUS
10
4.9302504330708663
20
-3.2815728346456692
11
4.9359972440944881
21
-3.2696394881889761
0
LINE
8
BLACK
6
CONTINUOUS
10
4.9359972440944881
20
-3.2696394881889761
11
4.943043976377953
21
-3.2584246456692911
0
LINE
8
BLACK
6
CONTINUOUS
10
4.943043976377953
20
-3.2584246456692911
11
4.9513021259842516
21
-3.2480692913385827
0
LINE
8
BLACK
6
CONTINUOUS
10
4.9513021259842516
20
-3.2480692913385827
11
4.9606677165354327
21
-3.2387037007874016
0
LINE
8
BLACK
6
CONTINUOUS
10
4.9606677165354327
20
-3.2387037007874016
11
4.971023070866142
21
-3.2304455511811021
0
LINE
8
BLACK
6
CONTINUOUS
10
4.971023070866142
20
-3.2304455511811021
11
4.982237913385827
21
-3.2233988188976377
0
LINE
8
BLACK
6
CONTINUOUS
10
4.982237913385827
20
-3.2233988188976377
11
4.9941712598425196
21
-3.2176520078740158
0
LINE
8
BLACK
6
CONTINUOUS
10
4.9941712598425196
20
-3.2176520078740158
11
5.0066729527559053
21
-3.2132774803149604
0
LINE
8
BLACK
6
CONTINUOUS
10
5.0066729527559053
20
-3.2132774803149604
11
5.0195858661417319
21
-3.2103301968503937
0
LINE
8
BLACK
6
CONTINUOUS
10
5.0195858661417319
20
-3.2103301968503937
11
5.032747598425197
21
-3.2088472440944882
0
LINE
8
BLACK
6
CONTINUOUS
10
5.032747598425197
20
-3.2088472440944882
11
5.0459925590551178
21
-3.2088472440944882
0
LINE
8
BLACK
6
CONTINUOUS
10
5.0459925590551178
20
-3.2088472440944882
11
5.059154291338583
21
-3.2103301968503937
0
LINE
8
BLACK
6
CONTINUOUS
10
6.6591542913385826
20
-3.2103301968503937
11
6.6720672047244092
21
-3.2132774803149604
0
LINE
8
BLACK
6
CONTINUOUS
10
6.6720672047244092
20
-3.2132774803149604
11
6.6845688976377948
21
-3.2176520078740158
0
LINE
8
BLACK
6
CONTINUOUS
10
6.6845688976377948
20
-3.2176520078740158
11
6.6965022440944884
21
-3.2233988188976377
0
LINE
8
BLACK
6
CONTINUOUS
10
6.6965022440944884
20
-3.2233988188976377
11
6.7077170866141733
21
-3.2304455511811021
0
LINE
8
BLACK
6
CONTINUOUS
10
6.7077170866141733
20
-3.2304455511811021
11
6.7180724409448818
21
-3.2387037007874016
0
LINE
8
BLACK
6
CONTINUOUS
10
6.7180724409448818
20
-3.2387037007874016
11
6.7274380314960629
21
-3.2480692913385827
0
LINE
8
BLACK
6
CONTINUOUS
10
6.7274380314960629
20
-3.2480692913385827
11
6.7356961811023623
21
-3.2584246456692911
0
LINE
8
BLACK
6
CONTINUOUS
10
6.7356961811023623
20
-3.2584246456692911
11
6.7427429133858263
21
-3.2696394881889761
0
LINE
8
BLACK
6
CONTINUOUS
10
6.7427429133858263
20
-3.2696394881889761
11
6.7484897244094491
21
-3.2815728346456692
0
LINE
8
BLACK
6
CONTINUOUS
10
6.7484897244094491
20
-3.2815728346456692
11
6.7528642519685036
21
-3.2940745275590548
0
LINE
8
BLACK
6
CONTINUOUS
10
6.7528642519685036
20
-3.2940745275590548
11
6.7558115354330708
21
-3.3069874409448818
0
LINE
8
BLACK
6
CONTINUOUS
10
6.7558115354330708
20
-3.3069874409448818
11
6.7572944881889763
21
-3.3201491732283466
0
LINE
8
BLACK
6
CONTINUOUS
10
6.7572944881889763
20
-3.3201491732283466
11
6.7572944881889763
21
-3.3333941338582678
0
LINE
8
BLACK
6
CONTINUOUS
10
6.7572944881889763
20
-3.3333941338582678
11
6.7558115354330708
21
-3.3465558661417321
0
LINE
8
BLACK
6
CONTINUOUS
10
6.7558115354330708
20
-3.3465558661417321
11
6.7528642519685036
21
-3.3594687795275591
0
LINE
8
BLACK
6
CONTINUOUS
10
6.7528642519685036
20
-3.3594687795275591
11
6.7484897244094491
21
-3.3719704724409447
0
LINE
8
BLACK
6
CONTINUOUS
10
6.7484897244094491
20
-3.3719704724409447
11
6.7427429133858263
21
-3.3839038188976378
0
LINE
8
BLACK
6
CONTINUOUS
10
6.7427429133858263
20
-3.3839038188976378
11
6.7356961811023623
21
-3.3951186614173228
0
LINE
8
BLACK
6
CONTINUOUS
10
6.7356961811023623
20
-3.3951186614173228
11
6.7274380314960629
21
-3.4054740157480312
0
LINE
8
BLACK
6
CONTINUOUS
10
6.7274380314960629
20
-3.4054740157480312
11
6.7180724409448818
21
-3.4148396062992123
0
LINE
8
BLACK
6
CONTINUOUS
10
6.7180724409448818
20
-3.4148396062992123
11
6.7077170866141733
21
-3.4230977559055118
0
LINE
8
BLACK
6
CONTINUOUS
10
6.7077170866141733
20
-3.4230977559055118
11
6.6965022440944884
21
-3.4301444881889762
0
LINE
8
BLACK
6
CONTINUOUS
10
6.6965022440944884
20
-3.4301444881889762
11
6.6845688976377948
21
-3.4358912992125985
0
LINE
8
BLACK
6
CONTINUOUS
10
6.6845688976377948
20
-3.4358912992125985
11
6.6720672047244092
21
-3.4402658267716535
0
LINE
8
BLACK
6
CONTINUOUS
10
6.6720672047244092
20
-3.4402658267716535
11
6.6591542913385826
21
-3.4432131102362202
0
LINE
8
BLACK
6
CONTINUOUS
10
6.6591542913385826
20
-3.4432131102362202
11
6.6459925590551183
21
-3.4446960629921257
0
LINE
8
BLACK
6
CONTINUOUS
10
6.6459925590551183
20
-3.4446960629921257
11
6.6327475984251967
21
-3.4446960629921257
0
LINE
8
BLACK
6
CONTINUOUS
10
6.6327475984251967
20
-3.4446960629921257
11
6.6195858661417324
21
-3.4432131102362202
0
LINE
8
BLACK
6
CONTINUOUS
10
6.6195858661417324
20
-3.4432131102362202
11
6.6066729527559049
21
-3.4402658267716535
0
LINE
8
BLACK
6
CONTINUOUS
10
6.6066729527559049
20
-3.4402658267716535
11
6.5941712598425193
21
-3.4358912992125985
0
LINE
8
BLACK
6
CONTINUOUS
10
6.5941712598425193
20
-3.4358912992125985
11
6.5822379133858266
21
-3.4301444881889762
0
LINE
8
BLACK
6
CONTINUOUS
10
6.5822379133858266
20
-3.4301444881889762
11
6.5710230708661417
21
-3.4230977559055118
0
LINE
8
BLACK
6
CONTINUOUS
10
6.5710230708661417
20
-3.4230977559055118
11
6.5606677165354332
21
-3.4148396062992123
0
LINE
8
BLACK
6
CONTINUOUS
10
6.5606677165354332
20
-3.4148396062992123
11
6.5513021259842521
21
-3.4054740157480312
0
LINE
8
BLACK
6
CONTINUOUS
10
6.5513021259842521
20
-3.4054740157480312
11
6.5430439763779527
21
-3.3951186614173228
0
LINE
8
BLACK
6
CONTINUOUS
10
6.5430439763779527
20
-3.3951186614173228
11
6.5359972440944878
21
-3.3839038188976378
0
LINE
8
BLACK
6
CONTINUOUS
10
6.5359972440944878
20
-3.3839038188976378
11
6.5302504330708659
21
-3.3719704724409447
0
LINE
8
BLACK
6
CONTINUOUS
10
6.5302504330708659
20
-3.3719704724409447
11
6.5258759055118105
21
-3.3594687795275591
0
LINE
8
BLACK
6
CONTINUOUS
10
6.5258759055118105
20
-3.3594687795275591
11
6.5229286220472442
21
-3.3465558661417321
0
LINE
8
BLACK
6
CONTINUOUS
10
6.5229286220472442
20
-3.3465558661417321
11
6.5214456692913387
21
-3.3333941338582678
0
LINE
8
BLACK
6
CONTINUOUS
10
6.5214456692913387
20
-3.3333941338582678
11
6.5214456692913387
21
-3.3201491732283466
0
LINE
8
BLACK
6
CONTINUOUS
10
6.5214456692913387
20
-3.3201491732283466
11
6.5229286220472442
21
-3.3069874409448818
0
LINE
8
BLACK
6
CONTINUOUS
10
6.5229286220472442
20
-3.3069874409448818
11
6.5258759055118105
21
-3.2940745275590548
0
LINE
8
BLACK
6
CONTINUOUS
10
6.5258759055118105
20
-3.2940745275590548
11
6.5302504330708659
21
-3.2815728346456692
0
LINE
8
BLACK
6
CONTINUOUS
10
6.5302504330708659
20
-3.2815728346456692
11
6.5359972440944878
21
-3.2696394881889761
0
LINE
8
BLACK
6
CONTINUOUS
10
6.5359972440944878
20
-3.2696394881889761
11
6.5430439763779527
21
-3.2584246456692911
0
LINE
8
BLACK
6
CONTINUOUS
10
6.5430439763779527
20
-3.2584246456692911
11
6.5513021259842521
21
-3.2480692913385827
0
LINE
8
BLACK
6
CONTINUOUS
10
6.5513021259842521
20
-3.2480692913385827
11
6.5606677165354332
21
-3.2387037007874016
0
LINE
8
BLACK
6
CONTINUOUS
10
6.5606677165354332
20
-3.2387037007874016
11
6.5710230708661417
21
-3.2304455511811021
0
LINE
8
BLACK
6
CONTINUOUS
10
6.5710230708661417
20
-3.2304455511811021
11
6.5822379133858266
21
-3.2233988188976377
0
LINE
8
BLACK
6
CONTINUOUS
10
6.5822379133858266
20
-3.2233988188976377
11
6.5941712598425193
21
-3.2176520078740158
0
LINE
8
BLACK
6
CONTINUOUS
10
6.5941712598425193
20
-3.2176520078740158
11
6.6066729527559049
21
-3.2132774803149604
0
LINE
8
BLACK
6
CONTINUOUS
10
6.6066729527559049
20
-3.2132774803149604
11
6.6195858661417324
21
-3.2103301968503937
0
LINE
8
BLACK
6
CONTINUOUS
10
6.6195858661417324
20
-3.2103301968503937
11
6.6327475984251967
21
-3.2088472440944882
0
LINE
8
BLACK
6
CONTINUOUS
10
6.6327475984251967
20
-3.2088472440944882
11
6.6459925590551183
21
-3.2088472440944882
0
LINE
8
BLACK
6
CONTINUOUS
10
6.6459925590551183
20
-3.2088472440944882
11
6.6591542913385826
21
-3.2103301968503937
0
CIRCLE
8
BLACK
10
6.6393700787401571
20
-4.926771653543307
40
0.0068897637795276
0
CIRCLE
8
BLACK
10
5.6401574803149606
20
-4.9779527559055117
40
0.0068897637795276
0
CIRCLE
8
BLACK
10
5.6401574803149606
20
-4.877952755905512
40
0.0068897637795276
0
CIRCLE
8
BLACK
10
5.7401574803149602
20
-4.9779527559055117
40
0.0068897637795276
0
CIRCLE
8
BLACK
10
5.7401574803149602
20
-4.877952755905512
40
0.0068897637795276
0
CIRCLE
8
BLACK
10
5.8401574803149607
20
-4.9779527559055117
40
0.0068897637795276
0
CIRCLE
8
BLACK
10
5.8401574803149607
20
-4.877952755905512
40
0.0068897637795276
0
CIRCLE
8
BLACK
10
5.0393700787401574
20
-3.326771653543307
40
0.0068897637795276
0
CIRCLE
8
BLACK
10
5.0393700787401574
20
-4.926771653543307
40
0.0068897637795276
0
CIRCLE
8
BLACK
10
6.2519685039370074
20
-3.7125984251968505
40
0.0068897637795276
0
CIRCLE
8
BLACK
10
6.1519685039370078
20
-3.6125984251968504
40
0.0068897637795276
0
CIRCLE
8
BLACK
10
6.1519685039370078
20
-3.8125984251968501
40
0.0068897637795276
0
CIRCLE
8
BLACK
10
6.351968503937008
20
-3.6125984251968504
40
0.0068897637795276
0
CIRCLE
8
BLACK
10
6.351968503937008
20
-3.8125984251968501
40
0.0068897637795276
0
CIRCLE
8
BLACK
10
4.9893700787401576
20
-3.576771653543307
40
0.0068897637795276
0
CIRCLE
8
BLACK
10
5.0893700787401572
20
-3.576771653543307
40
0.0068897637795276
0
CIRCLE
8
BLACK
10
4.9893700787401576
20
-3.676771653543307
40
0.0068897637795276
0
CIRCLE
8
BLACK
10
5.0893700787401572
20
-3.676771653543307
40
0.0068897637795276
0
CIRCLE
8
BLACK
10
4.9893700787401576
20
-3.7767716535433071
40
0.0068897637795276
0
CIRCLE
8
BLACK
10
5.0893700787401572
20
-3.7767716535433071
40
0.0068897637795276
0
CIRCLE
8
BLACK
10
4.9893700787401576
20
-3.8767716535433072
40
0.0068897637795276
0
CIRCLE
8
BLACK
10
5.0893700787401572
20
-3.8767716535433072
40
0.0068897637795276
0
CIRCLE
8
BLACK
10
4.9893700787401576
20
-3.9767716535433069
40
0.0068897637795276
0
CIRCLE
8
BLACK
10
5.0893700787401572
20
-3.9767716535433069
40
0.0068897637795276
0
CIRCLE
8
BLACK
10
4.9893700787401576
20
-4.0767716535433074
40
0.0068897637795276
0
CIRCLE
8
BLACK
10
5.0893700787401572
20
-4.0767716535433074
40
0.0068897637795276
0
CIRCLE
8
BLACK
10
4.9893700787401576
20
-4.176771653543307
40
0.0068897637795276
0
CIRCLE
8
BLACK
10
5.0893700787401572
20
-4.176771653543307
40
0.0068897637795276
0
CIRCLE
8
BLACK
10
4.9893700787401576
20
-4.2767716535433067
40
0.0068897637795276
0
CIRCLE
8
BLACK
10
5.0893700787401572
20
-4.2767716535433067
40
0.0068897637795276
0
CIRCLE
8
BLACK
10
4.9893700787401576
20
-4.3767716535433072
40
0.0068897637795276
0
CIRCLE
8
BLACK
10
5.0893700787401572
20
-4.3767716535433072
40
0.0068897637795276
0
CIRCLE
8
BLACK
10
4.9893700787401576
20
-4.4767716535433069
40
0.0068897637795276
0
CIRCLE
8
BLACK
10
5.0893700787401572
20
-4.4767716535433069
40
0.0068897637795276
0
CIRCLE
8
BLACK
10
4.9893700787401576
20
-4.5767716535433074
40
0.0068897637795276
0
CIRCLE
8
BLACK
10
5.0893700787401572
20
-4.5767716535433074
40
0.0068897637795276
0
CIRCLE
8
BLACK
10
4.9893700787401576
20
-4.676771653543307
40
0.0068897637795276
0
CIRCLE
8
BLACK
10
5.0893700787401572
20
-4.676771653543307
40
0.0068897637795276
0
CIRCLE
8
BLACK
10
6.6393700787401571
20
-3.326771653543307
40
0.0068897637795276
0
CIRCLE
8
WHITE
10
6.6393700787401571
20
-4.926771653543307
40
0.0068897637795276
0
CIRCLE
8
WHITE
10
5.6401574803149606
20
-4.9779527559055117
40
0.0068897637795276
0
CIRCLE
8
WHITE
10
5.6401574803149606
20
-4.877952755905512
40
0.0068897637795276
0
CIRCLE
8
WHITE
10
5.7401574803149602
20
-4.9779527559055117
40
0.0068897637795276
0
CIRCLE
8
WHITE
10
5.7401574803149602
20
-4.877952755905512
40
0.0068897637795276
0
CIRCLE
8
WHITE
10
5.8401574803149607
20
-4.9779527559055117
40
0.0068897637795276
0
CIRCLE
8
WHITE
10
5.8401574803149607
20
-4.877952755905512
40
0.0068897637795276
0
CIRCLE
8
WHITE
10
5.0393700787401574
20
-3.326771653543307
40
0.0068897637795276
0
CIRCLE
8
WHITE
10
5.0393700787401574
20
-4.926771653543307
40
0.0068897637795276
0
CIRCLE
8
WHITE
10
6.2519685039370074
20
-3.7125984251968505
40
0.0068897637795276
0
CIRCLE
8
WHITE
10
6.1519685039370078
20
-3.6125984251968504
40
0.0068897637795276
0
CIRCLE
8
WHITE
10
6.1519685039370078
20
-3.8125984251968501
40
0.0068897637795276
0
CIRCLE
8
WHITE
10
6.351968503937008
20
-3.6125984251968504
40
0.0068897637795276
0
CIRCLE
8
WHITE
10
6.351968503937008
20
-3.8125984251968501
40
0.0068897637795276
0
CIRCLE
8
WHITE
10
4.9893700787401576
20
-3.576771653543307
40
0.0068897637795276
0
CIRCLE
8
WHITE
10
5.0893700787401572
20
-3.576771653543307
40
0.0068897637795276
0
CIRCLE
8
WHITE
10
4.9893700787401576
20
-3.676771653543307
40
0.0068897637795276
0
CIRCLE
8
WHITE
10
5.0893700787401572
20
-3.676771653543307
40
0.0068897637795276
0
CIRCLE
8
WHITE
10
4.9893700787401576
20
-3.7767716535433071
40
0.0068897637795276
0
CIRCLE
8
WHITE
10
5.0893700787401572
20
-3.7767716535433071
40
0.0068897637795276
0
CIRCLE
8
WHITE
10
4.9893700787401576
20
-3.8767716535433072
40
0.0068897637795276
0
CIRCLE
8
WHITE
10
5.0893700787401572
20
-3.8767716535433072
40
0.0068897637795276
0
CIRCLE
8
WHITE
10
4.9893700787401576
20
-3.9767716535433069
40
0.0068897637795276
0
CIRCLE
8
WHITE
10
5.0893700787401572
20
-3.9767716535433069
40
0.0068897637795276
0
CIRCLE
8
WHITE
10
4.9893700787401576
20
-4.0767716535433074
40
0.0068897637795276
0
CIRCLE
8
WHITE
10
5.0893700787401572
20
-4.0767716535433074
40
0.0068897637795276
0
CIRCLE
8
WHITE
10
4.9893700787401576
20
-4.176771653543307
40
0.0068897637795276
0
CIRCLE
8
WHITE
10
5.0893700787401572
20
-4.176771653543307
40
0.0068897637795276
0
CIRCLE
8
WHITE
10
4.9893700787401576
20
-4.2767716535433067
40
0.0068897637795276
0
CIRCLE
8
WHITE
10
5.0893700787401572
20
-4.2767716535433067
40
0.0068897637795276
0
CIRCLE
8
WHITE
10
4.9893700787401576
20
-4.3767716535433072
40
0.0068897637795276
0
CIRCLE
8
WHITE
10
5.0893700787401572
20
-4.3767716535433072
40
0.0068897637795276
0
CIRCLE
8
WHITE
10
4.9893700787401576
20
-4.4767716535433069
40
0.0068897637795276
0
CIRCLE
8
WHITE
10
5.0893700787401572
20
-4.4767716535433069
40
0.0068897637795276
0
CIRCLE
8
WHITE
10
4.9893700787401576
20
-4.5767716535433074
40
0.0068897637795276
0
CIRCLE
8
WHITE
10
5.0893700787401572
20
-4.5767716535433074
40
0.0068897637795276
0
CIRCLE
8
WHITE
10
4.9893700787401576
20
-4.676771653543307
40
0.0068897637795276
0
CIRCLE
8
WHITE
10
5.0893700787401572
20
-4.676771653543307
40
0.0068897637795276
0
CIRCLE
8
WHITE
10
6.6393700787401571
20
-3.326771653543307
40
0.0068897637795276
  0
ENDSEC
  0
EOF
