M48
; DRILL file {KiCad 9.0.7+1} date 2026-03-03T01:06:53+0000
; FORMAT={3:3/ absolute / metric / suppress leading zeros}
; #@! TF.CreationDate,2026-03-03T01:06:53+00:00
; #@! TF.GenerationSoftware,Kicad,Pcbnew,9.0.7+1
; #@! TF.FileFunction,Plated,1,2,PTH
FMAT,2
METRIC,TZ
; #@! TA.AperFunction,Plated,PTH,ViaDrill
T1C0.300
; #@! TA.AperFunction,Plated,PTH,ComponentDrill
T2C0.889
; #@! TA.AperFunction,Plated,PTH,ComponentDrill
T3C1.500
; #@! TA.AperFunction,Plated,PTH,ComponentDrill
T4C1.700
; #@! TA.AperFunction,Plated,PTH,ComponentDrill
T5C3.000
%
G90
G05
T1
X124300Y-80800
X124300Y-84200
X124300Y-89200
X124300Y-94200
X124300Y-99200
X124300Y-104200
X124300Y-105800
X124300Y-109200
X124300Y-114200
X124300Y-119200
X124300Y-124200
X124300Y-129200
X129300Y-80800
X129300Y-129200
X131200Y-87700
X131200Y-89700
X131200Y-92100
X131200Y-94100
X131200Y-95800
X131200Y-97700
X131200Y-99700
X131200Y-101700
X131200Y-103200
X131200Y-104800
X131200Y-107400
X131200Y-109900
X131200Y-111900
X131200Y-113900
X131200Y-115500
X131200Y-117600
X131200Y-119900
X131200Y-121900
X133200Y-87700
X133200Y-121900
X133900Y-90900
X133900Y-93400
X133900Y-98500
X133900Y-101000
X133900Y-106100
X133900Y-108600
X133900Y-111200
X133900Y-114100
X133900Y-115700
X133900Y-117300
X133900Y-118900
X134300Y-80800
X134300Y-129200
X135200Y-87700
X135200Y-121900
X137200Y-87700
X137200Y-121900
X138100Y-92200
X138100Y-95400
X138100Y-113200
X138100Y-114400
X139200Y-87700
X139200Y-121900
X139300Y-80800
X139300Y-104700
X139300Y-129200
X140000Y-113500
X140700Y-102838
X141000Y-113300
X141100Y-104800
X141200Y-87700
X141200Y-121900
X142000Y-114500
X142100Y-112200
X142840Y-91200
X143100Y-102800
X143200Y-87700
X143200Y-121900
X143500Y-113300
X143500Y-119400
X143900Y-104000
X144300Y-80800
X144300Y-129200
X144400Y-116000
X144720Y-103400
X144800Y-108900
X145000Y-114500
X145200Y-87700
X145200Y-121900
X145800Y-114800
X145800Y-119400
X146500Y-99950
X146500Y-101700
X147200Y-87700
X147200Y-121900
X147620Y-102300
X147700Y-80800
X147700Y-129200
X147900Y-114800
X147900Y-119400
X148198Y-106900
X148200Y-104900
X148300Y-87700
X148300Y-121900
X148800Y-103400
X148900Y-108900
X149300Y-80800
X149300Y-116100
X149300Y-129200
X149400Y-87700
X149400Y-90100
X149400Y-91100
X149400Y-92100
X149400Y-93100
X149400Y-94100
X149400Y-95100
X149400Y-96100
X149400Y-97100
X149400Y-98100
X149400Y-99100
X149400Y-100100
X149400Y-101100
X149400Y-121900
X149700Y-102100
X150100Y-102900
X150300Y-113400
X150400Y-103700
X150600Y-96500
X150600Y-102100
X151000Y-104300
X151400Y-87700
X151400Y-121900
X151600Y-104900
X152200Y-105500
X152300Y-92800
X152700Y-80800
X152700Y-129200
X152800Y-106100
X153140Y-96500
X153400Y-87700
X153400Y-106700
X153400Y-121900
X153440Y-91900
X153600Y-116900
X154000Y-107300
X154000Y-108300
X154000Y-109300
X154000Y-110300
X154000Y-111300
X154000Y-112300
X154000Y-113300
X154000Y-114300
X154000Y-115300
X154000Y-117600
X154000Y-118600
X154100Y-97800
X154100Y-100825
X155400Y-87700
X155400Y-121900
X155600Y-107600
X156400Y-101700
X156700Y-105100
X156800Y-114200
X157400Y-87700
X157400Y-121900
X157700Y-80800
X157700Y-105100
X157700Y-129200
X158900Y-101600
X159400Y-87700
X159400Y-121900
X159900Y-116800
X160700Y-116800
X161300Y-115400
X161400Y-87700
X161400Y-104300
X161400Y-106200
X161400Y-121900
X161500Y-102600
X162200Y-106400
X162200Y-114200
X162700Y-80800
X162700Y-129200
X163400Y-87700
X163400Y-121900
X165400Y-87700
X165400Y-89700
X165400Y-91700
X165400Y-93700
X165400Y-95700
X165400Y-97700
X165400Y-99700
X165400Y-101700
X165400Y-103700
X165400Y-104800
X165400Y-105900
X165400Y-107900
X165400Y-109900
X165400Y-111900
X165400Y-113900
X165400Y-115900
X165400Y-117900
X165400Y-119900
X165400Y-121900
X167700Y-80800
X167700Y-129200
X172700Y-80800
X172700Y-84200
X172700Y-89200
X172700Y-94200
X172700Y-99200
X172700Y-104200
X172700Y-105800
X172700Y-109200
X172700Y-114200
X172700Y-119200
X172700Y-124200
X172700Y-129200
T2
X126730Y-90850
X126730Y-93390
X126730Y-95930
X126730Y-98470
X126730Y-101010
X126730Y-103550
X126730Y-106090
X126730Y-108630
X126730Y-111170
X126730Y-113710
X126730Y-116250
X126730Y-118790
X129270Y-90850
X129270Y-93390
X129270Y-95930
X129270Y-98470
X129270Y-101010
X129270Y-103550
X129270Y-106090
X129270Y-108630
X129270Y-111170
X129270Y-113710
X129270Y-116250
X129270Y-118790
X143260Y-123900
X143260Y-126440
X145800Y-123900
X145800Y-126440
X148340Y-123900
X148340Y-126440
T3
X158800Y-94300
T4
X156260Y-91760
X156260Y-96840
X161340Y-91760
X161340Y-96840
T5
X128000Y-84500
X128000Y-125140
X168640Y-84500
X168640Y-125140
M30
