%TF.GenerationSoftware,KiCad,Pcbnew,10.0.1-10.0.1~ubuntu25.10.1*%
%TF.CreationDate,2026-05-16T02:44:52+00:00*%
%TF.ProjectId,ADSBAFE01,41445342-4146-4453-9031-2e6b69636164,ADSBAFE01*%
%TF.SameCoordinates,Original*%
%TF.FileFunction,Legend,Bot*%
%TF.FilePolarity,Positive*%
%FSLAX46Y46*%
G04 Gerber Fmt 4.6, Leading zero omitted, Abs format (unit mm)*
G04 Created by KiCad (PCBNEW 10.0.1-10.0.1~ubuntu25.10.1) date 2026-05-16 02:44:52*
%MOMM*%
%LPD*%
G01*
G04 APERTURE LIST*
%ADD10C,0.150000*%
%ADD11C,0.120000*%
G04 APERTURE END LIST*
D10*
X125100000Y-90778923D02*
X124700000Y-91078923D01*
X124700000Y-90478923D01*
X125100000Y-90778923D01*
G36*
X125100000Y-90778923D02*
G01*
X124700000Y-91078923D01*
X124700000Y-90478923D01*
X125100000Y-90778923D01*
G37*
X141600000Y-126500000D02*
X141200000Y-126800000D01*
X141200000Y-126200000D01*
X141600000Y-126500000D01*
G36*
X141600000Y-126500000D02*
G01*
X141200000Y-126800000D01*
X141200000Y-126200000D01*
X141600000Y-126500000D01*
G37*
X152854819Y-90561905D02*
X151854819Y-90561905D01*
X151854819Y-90561905D02*
X151854819Y-90800000D01*
X151854819Y-90800000D02*
X151902438Y-90942857D01*
X151902438Y-90942857D02*
X151997676Y-91038095D01*
X151997676Y-91038095D02*
X152092914Y-91085714D01*
X152092914Y-91085714D02*
X152283390Y-91133333D01*
X152283390Y-91133333D02*
X152426247Y-91133333D01*
X152426247Y-91133333D02*
X152616723Y-91085714D01*
X152616723Y-91085714D02*
X152711961Y-91038095D01*
X152711961Y-91038095D02*
X152807200Y-90942857D01*
X152807200Y-90942857D02*
X152854819Y-90800000D01*
X152854819Y-90800000D02*
X152854819Y-90561905D01*
X151854819Y-91466667D02*
X151854819Y-92085714D01*
X151854819Y-92085714D02*
X152235771Y-91752381D01*
X152235771Y-91752381D02*
X152235771Y-91895238D01*
X152235771Y-91895238D02*
X152283390Y-91990476D01*
X152283390Y-91990476D02*
X152331009Y-92038095D01*
X152331009Y-92038095D02*
X152426247Y-92085714D01*
X152426247Y-92085714D02*
X152664342Y-92085714D01*
X152664342Y-92085714D02*
X152759580Y-92038095D01*
X152759580Y-92038095D02*
X152807200Y-91990476D01*
X152807200Y-91990476D02*
X152854819Y-91895238D01*
X152854819Y-91895238D02*
X152854819Y-91609524D01*
X152854819Y-91609524D02*
X152807200Y-91514286D01*
X152807200Y-91514286D02*
X152759580Y-91466667D01*
X162954819Y-115157142D02*
X162478628Y-114823809D01*
X162954819Y-114585714D02*
X161954819Y-114585714D01*
X161954819Y-114585714D02*
X161954819Y-114966666D01*
X161954819Y-114966666D02*
X162002438Y-115061904D01*
X162002438Y-115061904D02*
X162050057Y-115109523D01*
X162050057Y-115109523D02*
X162145295Y-115157142D01*
X162145295Y-115157142D02*
X162288152Y-115157142D01*
X162288152Y-115157142D02*
X162383390Y-115109523D01*
X162383390Y-115109523D02*
X162431009Y-115061904D01*
X162431009Y-115061904D02*
X162478628Y-114966666D01*
X162478628Y-114966666D02*
X162478628Y-114585714D01*
X162954819Y-116109523D02*
X162954819Y-115538095D01*
X162954819Y-115823809D02*
X161954819Y-115823809D01*
X161954819Y-115823809D02*
X162097676Y-115728571D01*
X162097676Y-115728571D02*
X162192914Y-115633333D01*
X162192914Y-115633333D02*
X162240533Y-115538095D01*
X162383390Y-116680952D02*
X162335771Y-116585714D01*
X162335771Y-116585714D02*
X162288152Y-116538095D01*
X162288152Y-116538095D02*
X162192914Y-116490476D01*
X162192914Y-116490476D02*
X162145295Y-116490476D01*
X162145295Y-116490476D02*
X162050057Y-116538095D01*
X162050057Y-116538095D02*
X162002438Y-116585714D01*
X162002438Y-116585714D02*
X161954819Y-116680952D01*
X161954819Y-116680952D02*
X161954819Y-116871428D01*
X161954819Y-116871428D02*
X162002438Y-116966666D01*
X162002438Y-116966666D02*
X162050057Y-117014285D01*
X162050057Y-117014285D02*
X162145295Y-117061904D01*
X162145295Y-117061904D02*
X162192914Y-117061904D01*
X162192914Y-117061904D02*
X162288152Y-117014285D01*
X162288152Y-117014285D02*
X162335771Y-116966666D01*
X162335771Y-116966666D02*
X162383390Y-116871428D01*
X162383390Y-116871428D02*
X162383390Y-116680952D01*
X162383390Y-116680952D02*
X162431009Y-116585714D01*
X162431009Y-116585714D02*
X162478628Y-116538095D01*
X162478628Y-116538095D02*
X162573866Y-116490476D01*
X162573866Y-116490476D02*
X162764342Y-116490476D01*
X162764342Y-116490476D02*
X162859580Y-116538095D01*
X162859580Y-116538095D02*
X162907200Y-116585714D01*
X162907200Y-116585714D02*
X162954819Y-116680952D01*
X162954819Y-116680952D02*
X162954819Y-116871428D01*
X162954819Y-116871428D02*
X162907200Y-116966666D01*
X162907200Y-116966666D02*
X162859580Y-117014285D01*
X162859580Y-117014285D02*
X162764342Y-117061904D01*
X162764342Y-117061904D02*
X162573866Y-117061904D01*
X162573866Y-117061904D02*
X162478628Y-117014285D01*
X162478628Y-117014285D02*
X162431009Y-116966666D01*
X162431009Y-116966666D02*
X162383390Y-116871428D01*
X136066666Y-97494819D02*
X136399999Y-97018628D01*
X136638094Y-97494819D02*
X136638094Y-96494819D01*
X136638094Y-96494819D02*
X136257142Y-96494819D01*
X136257142Y-96494819D02*
X136161904Y-96542438D01*
X136161904Y-96542438D02*
X136114285Y-96590057D01*
X136114285Y-96590057D02*
X136066666Y-96685295D01*
X136066666Y-96685295D02*
X136066666Y-96828152D01*
X136066666Y-96828152D02*
X136114285Y-96923390D01*
X136114285Y-96923390D02*
X136161904Y-96971009D01*
X136161904Y-96971009D02*
X136257142Y-97018628D01*
X136257142Y-97018628D02*
X136638094Y-97018628D01*
X135161904Y-96494819D02*
X135638094Y-96494819D01*
X135638094Y-96494819D02*
X135685713Y-96971009D01*
X135685713Y-96971009D02*
X135638094Y-96923390D01*
X135638094Y-96923390D02*
X135542856Y-96875771D01*
X135542856Y-96875771D02*
X135304761Y-96875771D01*
X135304761Y-96875771D02*
X135209523Y-96923390D01*
X135209523Y-96923390D02*
X135161904Y-96971009D01*
X135161904Y-96971009D02*
X135114285Y-97066247D01*
X135114285Y-97066247D02*
X135114285Y-97304342D01*
X135114285Y-97304342D02*
X135161904Y-97399580D01*
X135161904Y-97399580D02*
X135209523Y-97447200D01*
X135209523Y-97447200D02*
X135304761Y-97494819D01*
X135304761Y-97494819D02*
X135542856Y-97494819D01*
X135542856Y-97494819D02*
X135638094Y-97447200D01*
X135638094Y-97447200D02*
X135685713Y-97399580D01*
X153142857Y-109259580D02*
X153190476Y-109307200D01*
X153190476Y-109307200D02*
X153333333Y-109354819D01*
X153333333Y-109354819D02*
X153428571Y-109354819D01*
X153428571Y-109354819D02*
X153571428Y-109307200D01*
X153571428Y-109307200D02*
X153666666Y-109211961D01*
X153666666Y-109211961D02*
X153714285Y-109116723D01*
X153714285Y-109116723D02*
X153761904Y-108926247D01*
X153761904Y-108926247D02*
X153761904Y-108783390D01*
X153761904Y-108783390D02*
X153714285Y-108592914D01*
X153714285Y-108592914D02*
X153666666Y-108497676D01*
X153666666Y-108497676D02*
X153571428Y-108402438D01*
X153571428Y-108402438D02*
X153428571Y-108354819D01*
X153428571Y-108354819D02*
X153333333Y-108354819D01*
X153333333Y-108354819D02*
X153190476Y-108402438D01*
X153190476Y-108402438D02*
X153142857Y-108450057D01*
X152190476Y-109354819D02*
X152761904Y-109354819D01*
X152476190Y-109354819D02*
X152476190Y-108354819D01*
X152476190Y-108354819D02*
X152571428Y-108497676D01*
X152571428Y-108497676D02*
X152666666Y-108592914D01*
X152666666Y-108592914D02*
X152761904Y-108640533D01*
X151857142Y-108354819D02*
X151190476Y-108354819D01*
X151190476Y-108354819D02*
X151619047Y-109354819D01*
X146866666Y-95759580D02*
X146914285Y-95807200D01*
X146914285Y-95807200D02*
X147057142Y-95854819D01*
X147057142Y-95854819D02*
X147152380Y-95854819D01*
X147152380Y-95854819D02*
X147295237Y-95807200D01*
X147295237Y-95807200D02*
X147390475Y-95711961D01*
X147390475Y-95711961D02*
X147438094Y-95616723D01*
X147438094Y-95616723D02*
X147485713Y-95426247D01*
X147485713Y-95426247D02*
X147485713Y-95283390D01*
X147485713Y-95283390D02*
X147438094Y-95092914D01*
X147438094Y-95092914D02*
X147390475Y-94997676D01*
X147390475Y-94997676D02*
X147295237Y-94902438D01*
X147295237Y-94902438D02*
X147152380Y-94854819D01*
X147152380Y-94854819D02*
X147057142Y-94854819D01*
X147057142Y-94854819D02*
X146914285Y-94902438D01*
X146914285Y-94902438D02*
X146866666Y-94950057D01*
X146533332Y-94854819D02*
X145914285Y-94854819D01*
X145914285Y-94854819D02*
X146247618Y-95235771D01*
X146247618Y-95235771D02*
X146104761Y-95235771D01*
X146104761Y-95235771D02*
X146009523Y-95283390D01*
X146009523Y-95283390D02*
X145961904Y-95331009D01*
X145961904Y-95331009D02*
X145914285Y-95426247D01*
X145914285Y-95426247D02*
X145914285Y-95664342D01*
X145914285Y-95664342D02*
X145961904Y-95759580D01*
X145961904Y-95759580D02*
X146009523Y-95807200D01*
X146009523Y-95807200D02*
X146104761Y-95854819D01*
X146104761Y-95854819D02*
X146390475Y-95854819D01*
X146390475Y-95854819D02*
X146485713Y-95807200D01*
X146485713Y-95807200D02*
X146533332Y-95759580D01*
X140306666Y-91129580D02*
X140354285Y-91177200D01*
X140354285Y-91177200D02*
X140497142Y-91224819D01*
X140497142Y-91224819D02*
X140592380Y-91224819D01*
X140592380Y-91224819D02*
X140735237Y-91177200D01*
X140735237Y-91177200D02*
X140830475Y-91081961D01*
X140830475Y-91081961D02*
X140878094Y-90986723D01*
X140878094Y-90986723D02*
X140925713Y-90796247D01*
X140925713Y-90796247D02*
X140925713Y-90653390D01*
X140925713Y-90653390D02*
X140878094Y-90462914D01*
X140878094Y-90462914D02*
X140830475Y-90367676D01*
X140830475Y-90367676D02*
X140735237Y-90272438D01*
X140735237Y-90272438D02*
X140592380Y-90224819D01*
X140592380Y-90224819D02*
X140497142Y-90224819D01*
X140497142Y-90224819D02*
X140354285Y-90272438D01*
X140354285Y-90272438D02*
X140306666Y-90320057D01*
X139925713Y-90320057D02*
X139878094Y-90272438D01*
X139878094Y-90272438D02*
X139782856Y-90224819D01*
X139782856Y-90224819D02*
X139544761Y-90224819D01*
X139544761Y-90224819D02*
X139449523Y-90272438D01*
X139449523Y-90272438D02*
X139401904Y-90320057D01*
X139401904Y-90320057D02*
X139354285Y-90415295D01*
X139354285Y-90415295D02*
X139354285Y-90510533D01*
X139354285Y-90510533D02*
X139401904Y-90653390D01*
X139401904Y-90653390D02*
X139973332Y-91224819D01*
X139973332Y-91224819D02*
X139354285Y-91224819D01*
X136642857Y-113124819D02*
X136976190Y-112648628D01*
X137214285Y-113124819D02*
X137214285Y-112124819D01*
X137214285Y-112124819D02*
X136833333Y-112124819D01*
X136833333Y-112124819D02*
X136738095Y-112172438D01*
X136738095Y-112172438D02*
X136690476Y-112220057D01*
X136690476Y-112220057D02*
X136642857Y-112315295D01*
X136642857Y-112315295D02*
X136642857Y-112458152D01*
X136642857Y-112458152D02*
X136690476Y-112553390D01*
X136690476Y-112553390D02*
X136738095Y-112601009D01*
X136738095Y-112601009D02*
X136833333Y-112648628D01*
X136833333Y-112648628D02*
X137214285Y-112648628D01*
X135690476Y-113124819D02*
X136261904Y-113124819D01*
X135976190Y-113124819D02*
X135976190Y-112124819D01*
X135976190Y-112124819D02*
X136071428Y-112267676D01*
X136071428Y-112267676D02*
X136166666Y-112362914D01*
X136166666Y-112362914D02*
X136261904Y-112410533D01*
X135071428Y-112124819D02*
X134976190Y-112124819D01*
X134976190Y-112124819D02*
X134880952Y-112172438D01*
X134880952Y-112172438D02*
X134833333Y-112220057D01*
X134833333Y-112220057D02*
X134785714Y-112315295D01*
X134785714Y-112315295D02*
X134738095Y-112505771D01*
X134738095Y-112505771D02*
X134738095Y-112743866D01*
X134738095Y-112743866D02*
X134785714Y-112934342D01*
X134785714Y-112934342D02*
X134833333Y-113029580D01*
X134833333Y-113029580D02*
X134880952Y-113077200D01*
X134880952Y-113077200D02*
X134976190Y-113124819D01*
X134976190Y-113124819D02*
X135071428Y-113124819D01*
X135071428Y-113124819D02*
X135166666Y-113077200D01*
X135166666Y-113077200D02*
X135214285Y-113029580D01*
X135214285Y-113029580D02*
X135261904Y-112934342D01*
X135261904Y-112934342D02*
X135309523Y-112743866D01*
X135309523Y-112743866D02*
X135309523Y-112505771D01*
X135309523Y-112505771D02*
X135261904Y-112315295D01*
X135261904Y-112315295D02*
X135214285Y-112220057D01*
X135214285Y-112220057D02*
X135166666Y-112172438D01*
X135166666Y-112172438D02*
X135071428Y-112124819D01*
X151761904Y-106806819D02*
X151190476Y-106806819D01*
X151476190Y-107806819D02*
X151476190Y-106806819D01*
X150857142Y-107806819D02*
X150857142Y-106806819D01*
X150857142Y-106806819D02*
X150476190Y-106806819D01*
X150476190Y-106806819D02*
X150380952Y-106854438D01*
X150380952Y-106854438D02*
X150333333Y-106902057D01*
X150333333Y-106902057D02*
X150285714Y-106997295D01*
X150285714Y-106997295D02*
X150285714Y-107140152D01*
X150285714Y-107140152D02*
X150333333Y-107235390D01*
X150333333Y-107235390D02*
X150380952Y-107283009D01*
X150380952Y-107283009D02*
X150476190Y-107330628D01*
X150476190Y-107330628D02*
X150857142Y-107330628D01*
X149333333Y-107806819D02*
X149904761Y-107806819D01*
X149619047Y-107806819D02*
X149619047Y-106806819D01*
X149619047Y-106806819D02*
X149714285Y-106949676D01*
X149714285Y-106949676D02*
X149809523Y-107044914D01*
X149809523Y-107044914D02*
X149904761Y-107092533D01*
X160659580Y-99657142D02*
X160707200Y-99609523D01*
X160707200Y-99609523D02*
X160754819Y-99466666D01*
X160754819Y-99466666D02*
X160754819Y-99371428D01*
X160754819Y-99371428D02*
X160707200Y-99228571D01*
X160707200Y-99228571D02*
X160611961Y-99133333D01*
X160611961Y-99133333D02*
X160516723Y-99085714D01*
X160516723Y-99085714D02*
X160326247Y-99038095D01*
X160326247Y-99038095D02*
X160183390Y-99038095D01*
X160183390Y-99038095D02*
X159992914Y-99085714D01*
X159992914Y-99085714D02*
X159897676Y-99133333D01*
X159897676Y-99133333D02*
X159802438Y-99228571D01*
X159802438Y-99228571D02*
X159754819Y-99371428D01*
X159754819Y-99371428D02*
X159754819Y-99466666D01*
X159754819Y-99466666D02*
X159802438Y-99609523D01*
X159802438Y-99609523D02*
X159850057Y-99657142D01*
X160754819Y-100609523D02*
X160754819Y-100038095D01*
X160754819Y-100323809D02*
X159754819Y-100323809D01*
X159754819Y-100323809D02*
X159897676Y-100228571D01*
X159897676Y-100228571D02*
X159992914Y-100133333D01*
X159992914Y-100133333D02*
X160040533Y-100038095D01*
X160754819Y-101561904D02*
X160754819Y-100990476D01*
X160754819Y-101276190D02*
X159754819Y-101276190D01*
X159754819Y-101276190D02*
X159897676Y-101180952D01*
X159897676Y-101180952D02*
X159992914Y-101085714D01*
X159992914Y-101085714D02*
X160040533Y-100990476D01*
X151659580Y-117433333D02*
X151707200Y-117385714D01*
X151707200Y-117385714D02*
X151754819Y-117242857D01*
X151754819Y-117242857D02*
X151754819Y-117147619D01*
X151754819Y-117147619D02*
X151707200Y-117004762D01*
X151707200Y-117004762D02*
X151611961Y-116909524D01*
X151611961Y-116909524D02*
X151516723Y-116861905D01*
X151516723Y-116861905D02*
X151326247Y-116814286D01*
X151326247Y-116814286D02*
X151183390Y-116814286D01*
X151183390Y-116814286D02*
X150992914Y-116861905D01*
X150992914Y-116861905D02*
X150897676Y-116909524D01*
X150897676Y-116909524D02*
X150802438Y-117004762D01*
X150802438Y-117004762D02*
X150754819Y-117147619D01*
X150754819Y-117147619D02*
X150754819Y-117242857D01*
X150754819Y-117242857D02*
X150802438Y-117385714D01*
X150802438Y-117385714D02*
X150850057Y-117433333D01*
X151088152Y-118290476D02*
X151754819Y-118290476D01*
X150707200Y-118052381D02*
X151421485Y-117814286D01*
X151421485Y-117814286D02*
X151421485Y-118433333D01*
X153159580Y-105957142D02*
X153207200Y-105909523D01*
X153207200Y-105909523D02*
X153254819Y-105766666D01*
X153254819Y-105766666D02*
X153254819Y-105671428D01*
X153254819Y-105671428D02*
X153207200Y-105528571D01*
X153207200Y-105528571D02*
X153111961Y-105433333D01*
X153111961Y-105433333D02*
X153016723Y-105385714D01*
X153016723Y-105385714D02*
X152826247Y-105338095D01*
X152826247Y-105338095D02*
X152683390Y-105338095D01*
X152683390Y-105338095D02*
X152492914Y-105385714D01*
X152492914Y-105385714D02*
X152397676Y-105433333D01*
X152397676Y-105433333D02*
X152302438Y-105528571D01*
X152302438Y-105528571D02*
X152254819Y-105671428D01*
X152254819Y-105671428D02*
X152254819Y-105766666D01*
X152254819Y-105766666D02*
X152302438Y-105909523D01*
X152302438Y-105909523D02*
X152350057Y-105957142D01*
X153254819Y-106909523D02*
X153254819Y-106338095D01*
X153254819Y-106623809D02*
X152254819Y-106623809D01*
X152254819Y-106623809D02*
X152397676Y-106528571D01*
X152397676Y-106528571D02*
X152492914Y-106433333D01*
X152492914Y-106433333D02*
X152540533Y-106338095D01*
X152350057Y-107290476D02*
X152302438Y-107338095D01*
X152302438Y-107338095D02*
X152254819Y-107433333D01*
X152254819Y-107433333D02*
X152254819Y-107671428D01*
X152254819Y-107671428D02*
X152302438Y-107766666D01*
X152302438Y-107766666D02*
X152350057Y-107814285D01*
X152350057Y-107814285D02*
X152445295Y-107861904D01*
X152445295Y-107861904D02*
X152540533Y-107861904D01*
X152540533Y-107861904D02*
X152683390Y-107814285D01*
X152683390Y-107814285D02*
X153254819Y-107242857D01*
X153254819Y-107242857D02*
X153254819Y-107861904D01*
X156504818Y-114838095D02*
X157314341Y-114838095D01*
X157314341Y-114838095D02*
X157409579Y-114885714D01*
X157409579Y-114885714D02*
X157457199Y-114933333D01*
X157457199Y-114933333D02*
X157504818Y-115028571D01*
X157504818Y-115028571D02*
X157504818Y-115219047D01*
X157504818Y-115219047D02*
X157457199Y-115314285D01*
X157457199Y-115314285D02*
X157409579Y-115361904D01*
X157409579Y-115361904D02*
X157314341Y-115409523D01*
X157314341Y-115409523D02*
X156504818Y-115409523D01*
X156838151Y-116314285D02*
X157504818Y-116314285D01*
X156457199Y-116076190D02*
X157171484Y-115838095D01*
X157171484Y-115838095D02*
X157171484Y-116457142D01*
X139842857Y-116854819D02*
X140176190Y-116378628D01*
X140414285Y-116854819D02*
X140414285Y-115854819D01*
X140414285Y-115854819D02*
X140033333Y-115854819D01*
X140033333Y-115854819D02*
X139938095Y-115902438D01*
X139938095Y-115902438D02*
X139890476Y-115950057D01*
X139890476Y-115950057D02*
X139842857Y-116045295D01*
X139842857Y-116045295D02*
X139842857Y-116188152D01*
X139842857Y-116188152D02*
X139890476Y-116283390D01*
X139890476Y-116283390D02*
X139938095Y-116331009D01*
X139938095Y-116331009D02*
X140033333Y-116378628D01*
X140033333Y-116378628D02*
X140414285Y-116378628D01*
X138890476Y-116854819D02*
X139461904Y-116854819D01*
X139176190Y-116854819D02*
X139176190Y-115854819D01*
X139176190Y-115854819D02*
X139271428Y-115997676D01*
X139271428Y-115997676D02*
X139366666Y-116092914D01*
X139366666Y-116092914D02*
X139461904Y-116140533D01*
X138509523Y-115950057D02*
X138461904Y-115902438D01*
X138461904Y-115902438D02*
X138366666Y-115854819D01*
X138366666Y-115854819D02*
X138128571Y-115854819D01*
X138128571Y-115854819D02*
X138033333Y-115902438D01*
X138033333Y-115902438D02*
X137985714Y-115950057D01*
X137985714Y-115950057D02*
X137938095Y-116045295D01*
X137938095Y-116045295D02*
X137938095Y-116140533D01*
X137938095Y-116140533D02*
X137985714Y-116283390D01*
X137985714Y-116283390D02*
X138557142Y-116854819D01*
X138557142Y-116854819D02*
X137938095Y-116854819D01*
X141454819Y-113757142D02*
X140978628Y-113423809D01*
X141454819Y-113185714D02*
X140454819Y-113185714D01*
X140454819Y-113185714D02*
X140454819Y-113566666D01*
X140454819Y-113566666D02*
X140502438Y-113661904D01*
X140502438Y-113661904D02*
X140550057Y-113709523D01*
X140550057Y-113709523D02*
X140645295Y-113757142D01*
X140645295Y-113757142D02*
X140788152Y-113757142D01*
X140788152Y-113757142D02*
X140883390Y-113709523D01*
X140883390Y-113709523D02*
X140931009Y-113661904D01*
X140931009Y-113661904D02*
X140978628Y-113566666D01*
X140978628Y-113566666D02*
X140978628Y-113185714D01*
X141454819Y-114709523D02*
X141454819Y-114138095D01*
X141454819Y-114423809D02*
X140454819Y-114423809D01*
X140454819Y-114423809D02*
X140597676Y-114328571D01*
X140597676Y-114328571D02*
X140692914Y-114233333D01*
X140692914Y-114233333D02*
X140740533Y-114138095D01*
X140788152Y-115566666D02*
X141454819Y-115566666D01*
X140407200Y-115328571D02*
X141121485Y-115090476D01*
X141121485Y-115090476D02*
X141121485Y-115709523D01*
X147761904Y-96854819D02*
X147190476Y-96854819D01*
X147476190Y-97854819D02*
X147476190Y-96854819D01*
X146857142Y-97854819D02*
X146857142Y-96854819D01*
X146857142Y-96854819D02*
X146476190Y-96854819D01*
X146476190Y-96854819D02*
X146380952Y-96902438D01*
X146380952Y-96902438D02*
X146333333Y-96950057D01*
X146333333Y-96950057D02*
X146285714Y-97045295D01*
X146285714Y-97045295D02*
X146285714Y-97188152D01*
X146285714Y-97188152D02*
X146333333Y-97283390D01*
X146333333Y-97283390D02*
X146380952Y-97331009D01*
X146380952Y-97331009D02*
X146476190Y-97378628D01*
X146476190Y-97378628D02*
X146857142Y-97378628D01*
X145904761Y-96950057D02*
X145857142Y-96902438D01*
X145857142Y-96902438D02*
X145761904Y-96854819D01*
X145761904Y-96854819D02*
X145523809Y-96854819D01*
X145523809Y-96854819D02*
X145428571Y-96902438D01*
X145428571Y-96902438D02*
X145380952Y-96950057D01*
X145380952Y-96950057D02*
X145333333Y-97045295D01*
X145333333Y-97045295D02*
X145333333Y-97140533D01*
X145333333Y-97140533D02*
X145380952Y-97283390D01*
X145380952Y-97283390D02*
X145952380Y-97854819D01*
X145952380Y-97854819D02*
X145333333Y-97854819D01*
X155759580Y-107457142D02*
X155807200Y-107409523D01*
X155807200Y-107409523D02*
X155854819Y-107266666D01*
X155854819Y-107266666D02*
X155854819Y-107171428D01*
X155854819Y-107171428D02*
X155807200Y-107028571D01*
X155807200Y-107028571D02*
X155711961Y-106933333D01*
X155711961Y-106933333D02*
X155616723Y-106885714D01*
X155616723Y-106885714D02*
X155426247Y-106838095D01*
X155426247Y-106838095D02*
X155283390Y-106838095D01*
X155283390Y-106838095D02*
X155092914Y-106885714D01*
X155092914Y-106885714D02*
X154997676Y-106933333D01*
X154997676Y-106933333D02*
X154902438Y-107028571D01*
X154902438Y-107028571D02*
X154854819Y-107171428D01*
X154854819Y-107171428D02*
X154854819Y-107266666D01*
X154854819Y-107266666D02*
X154902438Y-107409523D01*
X154902438Y-107409523D02*
X154950057Y-107457142D01*
X155854819Y-108409523D02*
X155854819Y-107838095D01*
X155854819Y-108123809D02*
X154854819Y-108123809D01*
X154854819Y-108123809D02*
X154997676Y-108028571D01*
X154997676Y-108028571D02*
X155092914Y-107933333D01*
X155092914Y-107933333D02*
X155140533Y-107838095D01*
X155188152Y-109266666D02*
X155854819Y-109266666D01*
X154807200Y-109028571D02*
X155521485Y-108790476D01*
X155521485Y-108790476D02*
X155521485Y-109409523D01*
X148333332Y-92707200D02*
X148190475Y-92754819D01*
X148190475Y-92754819D02*
X147952380Y-92754819D01*
X147952380Y-92754819D02*
X147857142Y-92707200D01*
X147857142Y-92707200D02*
X147809523Y-92659580D01*
X147809523Y-92659580D02*
X147761904Y-92564342D01*
X147761904Y-92564342D02*
X147761904Y-92469104D01*
X147761904Y-92469104D02*
X147809523Y-92373866D01*
X147809523Y-92373866D02*
X147857142Y-92326247D01*
X147857142Y-92326247D02*
X147952380Y-92278628D01*
X147952380Y-92278628D02*
X148142856Y-92231009D01*
X148142856Y-92231009D02*
X148238094Y-92183390D01*
X148238094Y-92183390D02*
X148285713Y-92135771D01*
X148285713Y-92135771D02*
X148333332Y-92040533D01*
X148333332Y-92040533D02*
X148333332Y-91945295D01*
X148333332Y-91945295D02*
X148285713Y-91850057D01*
X148285713Y-91850057D02*
X148238094Y-91802438D01*
X148238094Y-91802438D02*
X148142856Y-91754819D01*
X148142856Y-91754819D02*
X147904761Y-91754819D01*
X147904761Y-91754819D02*
X147761904Y-91802438D01*
X147428570Y-91754819D02*
X147190475Y-92754819D01*
X147190475Y-92754819D02*
X146999999Y-92040533D01*
X146999999Y-92040533D02*
X146809523Y-92754819D01*
X146809523Y-92754819D02*
X146571428Y-91754819D01*
X145666666Y-92754819D02*
X146238094Y-92754819D01*
X145952380Y-92754819D02*
X145952380Y-91754819D01*
X145952380Y-91754819D02*
X146047618Y-91897676D01*
X146047618Y-91897676D02*
X146142856Y-91992914D01*
X146142856Y-91992914D02*
X146238094Y-92040533D01*
X148861904Y-108504819D02*
X148861904Y-109314342D01*
X148861904Y-109314342D02*
X148814285Y-109409580D01*
X148814285Y-109409580D02*
X148766666Y-109457200D01*
X148766666Y-109457200D02*
X148671428Y-109504819D01*
X148671428Y-109504819D02*
X148480952Y-109504819D01*
X148480952Y-109504819D02*
X148385714Y-109457200D01*
X148385714Y-109457200D02*
X148338095Y-109409580D01*
X148338095Y-109409580D02*
X148290476Y-109314342D01*
X148290476Y-109314342D02*
X148290476Y-108504819D01*
X147290476Y-109504819D02*
X147861904Y-109504819D01*
X147576190Y-109504819D02*
X147576190Y-108504819D01*
X147576190Y-108504819D02*
X147671428Y-108647676D01*
X147671428Y-108647676D02*
X147766666Y-108742914D01*
X147766666Y-108742914D02*
X147861904Y-108790533D01*
X136066666Y-95354819D02*
X136399999Y-94878628D01*
X136638094Y-95354819D02*
X136638094Y-94354819D01*
X136638094Y-94354819D02*
X136257142Y-94354819D01*
X136257142Y-94354819D02*
X136161904Y-94402438D01*
X136161904Y-94402438D02*
X136114285Y-94450057D01*
X136114285Y-94450057D02*
X136066666Y-94545295D01*
X136066666Y-94545295D02*
X136066666Y-94688152D01*
X136066666Y-94688152D02*
X136114285Y-94783390D01*
X136114285Y-94783390D02*
X136161904Y-94831009D01*
X136161904Y-94831009D02*
X136257142Y-94878628D01*
X136257142Y-94878628D02*
X136638094Y-94878628D01*
X135209523Y-94688152D02*
X135209523Y-95354819D01*
X135447618Y-94307200D02*
X135685713Y-95021485D01*
X135685713Y-95021485D02*
X135066666Y-95021485D01*
X136066666Y-107854819D02*
X136399999Y-107378628D01*
X136638094Y-107854819D02*
X136638094Y-106854819D01*
X136638094Y-106854819D02*
X136257142Y-106854819D01*
X136257142Y-106854819D02*
X136161904Y-106902438D01*
X136161904Y-106902438D02*
X136114285Y-106950057D01*
X136114285Y-106950057D02*
X136066666Y-107045295D01*
X136066666Y-107045295D02*
X136066666Y-107188152D01*
X136066666Y-107188152D02*
X136114285Y-107283390D01*
X136114285Y-107283390D02*
X136161904Y-107331009D01*
X136161904Y-107331009D02*
X136257142Y-107378628D01*
X136257142Y-107378628D02*
X136638094Y-107378628D01*
X135495237Y-107283390D02*
X135590475Y-107235771D01*
X135590475Y-107235771D02*
X135638094Y-107188152D01*
X135638094Y-107188152D02*
X135685713Y-107092914D01*
X135685713Y-107092914D02*
X135685713Y-107045295D01*
X135685713Y-107045295D02*
X135638094Y-106950057D01*
X135638094Y-106950057D02*
X135590475Y-106902438D01*
X135590475Y-106902438D02*
X135495237Y-106854819D01*
X135495237Y-106854819D02*
X135304761Y-106854819D01*
X135304761Y-106854819D02*
X135209523Y-106902438D01*
X135209523Y-106902438D02*
X135161904Y-106950057D01*
X135161904Y-106950057D02*
X135114285Y-107045295D01*
X135114285Y-107045295D02*
X135114285Y-107092914D01*
X135114285Y-107092914D02*
X135161904Y-107188152D01*
X135161904Y-107188152D02*
X135209523Y-107235771D01*
X135209523Y-107235771D02*
X135304761Y-107283390D01*
X135304761Y-107283390D02*
X135495237Y-107283390D01*
X135495237Y-107283390D02*
X135590475Y-107331009D01*
X135590475Y-107331009D02*
X135638094Y-107378628D01*
X135638094Y-107378628D02*
X135685713Y-107473866D01*
X135685713Y-107473866D02*
X135685713Y-107664342D01*
X135685713Y-107664342D02*
X135638094Y-107759580D01*
X135638094Y-107759580D02*
X135590475Y-107807200D01*
X135590475Y-107807200D02*
X135495237Y-107854819D01*
X135495237Y-107854819D02*
X135304761Y-107854819D01*
X135304761Y-107854819D02*
X135209523Y-107807200D01*
X135209523Y-107807200D02*
X135161904Y-107759580D01*
X135161904Y-107759580D02*
X135114285Y-107664342D01*
X135114285Y-107664342D02*
X135114285Y-107473866D01*
X135114285Y-107473866D02*
X135161904Y-107378628D01*
X135161904Y-107378628D02*
X135209523Y-107331009D01*
X135209523Y-107331009D02*
X135304761Y-107283390D01*
X139759580Y-114233333D02*
X139807200Y-114185714D01*
X139807200Y-114185714D02*
X139854819Y-114042857D01*
X139854819Y-114042857D02*
X139854819Y-113947619D01*
X139854819Y-113947619D02*
X139807200Y-113804762D01*
X139807200Y-113804762D02*
X139711961Y-113709524D01*
X139711961Y-113709524D02*
X139616723Y-113661905D01*
X139616723Y-113661905D02*
X139426247Y-113614286D01*
X139426247Y-113614286D02*
X139283390Y-113614286D01*
X139283390Y-113614286D02*
X139092914Y-113661905D01*
X139092914Y-113661905D02*
X138997676Y-113709524D01*
X138997676Y-113709524D02*
X138902438Y-113804762D01*
X138902438Y-113804762D02*
X138854819Y-113947619D01*
X138854819Y-113947619D02*
X138854819Y-114042857D01*
X138854819Y-114042857D02*
X138902438Y-114185714D01*
X138902438Y-114185714D02*
X138950057Y-114233333D01*
X139283390Y-114804762D02*
X139235771Y-114709524D01*
X139235771Y-114709524D02*
X139188152Y-114661905D01*
X139188152Y-114661905D02*
X139092914Y-114614286D01*
X139092914Y-114614286D02*
X139045295Y-114614286D01*
X139045295Y-114614286D02*
X138950057Y-114661905D01*
X138950057Y-114661905D02*
X138902438Y-114709524D01*
X138902438Y-114709524D02*
X138854819Y-114804762D01*
X138854819Y-114804762D02*
X138854819Y-114995238D01*
X138854819Y-114995238D02*
X138902438Y-115090476D01*
X138902438Y-115090476D02*
X138950057Y-115138095D01*
X138950057Y-115138095D02*
X139045295Y-115185714D01*
X139045295Y-115185714D02*
X139092914Y-115185714D01*
X139092914Y-115185714D02*
X139188152Y-115138095D01*
X139188152Y-115138095D02*
X139235771Y-115090476D01*
X139235771Y-115090476D02*
X139283390Y-114995238D01*
X139283390Y-114995238D02*
X139283390Y-114804762D01*
X139283390Y-114804762D02*
X139331009Y-114709524D01*
X139331009Y-114709524D02*
X139378628Y-114661905D01*
X139378628Y-114661905D02*
X139473866Y-114614286D01*
X139473866Y-114614286D02*
X139664342Y-114614286D01*
X139664342Y-114614286D02*
X139759580Y-114661905D01*
X139759580Y-114661905D02*
X139807200Y-114709524D01*
X139807200Y-114709524D02*
X139854819Y-114804762D01*
X139854819Y-114804762D02*
X139854819Y-114995238D01*
X139854819Y-114995238D02*
X139807200Y-115090476D01*
X139807200Y-115090476D02*
X139759580Y-115138095D01*
X139759580Y-115138095D02*
X139664342Y-115185714D01*
X139664342Y-115185714D02*
X139473866Y-115185714D01*
X139473866Y-115185714D02*
X139378628Y-115138095D01*
X139378628Y-115138095D02*
X139331009Y-115090476D01*
X139331009Y-115090476D02*
X139283390Y-114995238D01*
X140266666Y-98954819D02*
X140599999Y-98478628D01*
X140838094Y-98954819D02*
X140838094Y-97954819D01*
X140838094Y-97954819D02*
X140457142Y-97954819D01*
X140457142Y-97954819D02*
X140361904Y-98002438D01*
X140361904Y-98002438D02*
X140314285Y-98050057D01*
X140314285Y-98050057D02*
X140266666Y-98145295D01*
X140266666Y-98145295D02*
X140266666Y-98288152D01*
X140266666Y-98288152D02*
X140314285Y-98383390D01*
X140314285Y-98383390D02*
X140361904Y-98431009D01*
X140361904Y-98431009D02*
X140457142Y-98478628D01*
X140457142Y-98478628D02*
X140838094Y-98478628D01*
X139885713Y-98050057D02*
X139838094Y-98002438D01*
X139838094Y-98002438D02*
X139742856Y-97954819D01*
X139742856Y-97954819D02*
X139504761Y-97954819D01*
X139504761Y-97954819D02*
X139409523Y-98002438D01*
X139409523Y-98002438D02*
X139361904Y-98050057D01*
X139361904Y-98050057D02*
X139314285Y-98145295D01*
X139314285Y-98145295D02*
X139314285Y-98240533D01*
X139314285Y-98240533D02*
X139361904Y-98383390D01*
X139361904Y-98383390D02*
X139933332Y-98954819D01*
X139933332Y-98954819D02*
X139314285Y-98954819D01*
X139842857Y-118054819D02*
X140176190Y-117578628D01*
X140414285Y-118054819D02*
X140414285Y-117054819D01*
X140414285Y-117054819D02*
X140033333Y-117054819D01*
X140033333Y-117054819D02*
X139938095Y-117102438D01*
X139938095Y-117102438D02*
X139890476Y-117150057D01*
X139890476Y-117150057D02*
X139842857Y-117245295D01*
X139842857Y-117245295D02*
X139842857Y-117388152D01*
X139842857Y-117388152D02*
X139890476Y-117483390D01*
X139890476Y-117483390D02*
X139938095Y-117531009D01*
X139938095Y-117531009D02*
X140033333Y-117578628D01*
X140033333Y-117578628D02*
X140414285Y-117578628D01*
X138890476Y-118054819D02*
X139461904Y-118054819D01*
X139176190Y-118054819D02*
X139176190Y-117054819D01*
X139176190Y-117054819D02*
X139271428Y-117197676D01*
X139271428Y-117197676D02*
X139366666Y-117292914D01*
X139366666Y-117292914D02*
X139461904Y-117340533D01*
X138557142Y-117054819D02*
X137938095Y-117054819D01*
X137938095Y-117054819D02*
X138271428Y-117435771D01*
X138271428Y-117435771D02*
X138128571Y-117435771D01*
X138128571Y-117435771D02*
X138033333Y-117483390D01*
X138033333Y-117483390D02*
X137985714Y-117531009D01*
X137985714Y-117531009D02*
X137938095Y-117626247D01*
X137938095Y-117626247D02*
X137938095Y-117864342D01*
X137938095Y-117864342D02*
X137985714Y-117959580D01*
X137985714Y-117959580D02*
X138033333Y-118007200D01*
X138033333Y-118007200D02*
X138128571Y-118054819D01*
X138128571Y-118054819D02*
X138414285Y-118054819D01*
X138414285Y-118054819D02*
X138509523Y-118007200D01*
X138509523Y-118007200D02*
X138557142Y-117959580D01*
X139654819Y-100157142D02*
X139178628Y-99823809D01*
X139654819Y-99585714D02*
X138654819Y-99585714D01*
X138654819Y-99585714D02*
X138654819Y-99966666D01*
X138654819Y-99966666D02*
X138702438Y-100061904D01*
X138702438Y-100061904D02*
X138750057Y-100109523D01*
X138750057Y-100109523D02*
X138845295Y-100157142D01*
X138845295Y-100157142D02*
X138988152Y-100157142D01*
X138988152Y-100157142D02*
X139083390Y-100109523D01*
X139083390Y-100109523D02*
X139131009Y-100061904D01*
X139131009Y-100061904D02*
X139178628Y-99966666D01*
X139178628Y-99966666D02*
X139178628Y-99585714D01*
X139654819Y-101109523D02*
X139654819Y-100538095D01*
X139654819Y-100823809D02*
X138654819Y-100823809D01*
X138654819Y-100823809D02*
X138797676Y-100728571D01*
X138797676Y-100728571D02*
X138892914Y-100633333D01*
X138892914Y-100633333D02*
X138940533Y-100538095D01*
X138654819Y-102014285D02*
X138654819Y-101538095D01*
X138654819Y-101538095D02*
X139131009Y-101490476D01*
X139131009Y-101490476D02*
X139083390Y-101538095D01*
X139083390Y-101538095D02*
X139035771Y-101633333D01*
X139035771Y-101633333D02*
X139035771Y-101871428D01*
X139035771Y-101871428D02*
X139083390Y-101966666D01*
X139083390Y-101966666D02*
X139131009Y-102014285D01*
X139131009Y-102014285D02*
X139226247Y-102061904D01*
X139226247Y-102061904D02*
X139464342Y-102061904D01*
X139464342Y-102061904D02*
X139559580Y-102014285D01*
X139559580Y-102014285D02*
X139607200Y-101966666D01*
X139607200Y-101966666D02*
X139654819Y-101871428D01*
X139654819Y-101871428D02*
X139654819Y-101633333D01*
X139654819Y-101633333D02*
X139607200Y-101538095D01*
X139607200Y-101538095D02*
X139559580Y-101490476D01*
X140366666Y-104459580D02*
X140414285Y-104507200D01*
X140414285Y-104507200D02*
X140557142Y-104554819D01*
X140557142Y-104554819D02*
X140652380Y-104554819D01*
X140652380Y-104554819D02*
X140795237Y-104507200D01*
X140795237Y-104507200D02*
X140890475Y-104411961D01*
X140890475Y-104411961D02*
X140938094Y-104316723D01*
X140938094Y-104316723D02*
X140985713Y-104126247D01*
X140985713Y-104126247D02*
X140985713Y-103983390D01*
X140985713Y-103983390D02*
X140938094Y-103792914D01*
X140938094Y-103792914D02*
X140890475Y-103697676D01*
X140890475Y-103697676D02*
X140795237Y-103602438D01*
X140795237Y-103602438D02*
X140652380Y-103554819D01*
X140652380Y-103554819D02*
X140557142Y-103554819D01*
X140557142Y-103554819D02*
X140414285Y-103602438D01*
X140414285Y-103602438D02*
X140366666Y-103650057D01*
X139509523Y-103554819D02*
X139699999Y-103554819D01*
X139699999Y-103554819D02*
X139795237Y-103602438D01*
X139795237Y-103602438D02*
X139842856Y-103650057D01*
X139842856Y-103650057D02*
X139938094Y-103792914D01*
X139938094Y-103792914D02*
X139985713Y-103983390D01*
X139985713Y-103983390D02*
X139985713Y-104364342D01*
X139985713Y-104364342D02*
X139938094Y-104459580D01*
X139938094Y-104459580D02*
X139890475Y-104507200D01*
X139890475Y-104507200D02*
X139795237Y-104554819D01*
X139795237Y-104554819D02*
X139604761Y-104554819D01*
X139604761Y-104554819D02*
X139509523Y-104507200D01*
X139509523Y-104507200D02*
X139461904Y-104459580D01*
X139461904Y-104459580D02*
X139414285Y-104364342D01*
X139414285Y-104364342D02*
X139414285Y-104126247D01*
X139414285Y-104126247D02*
X139461904Y-104031009D01*
X139461904Y-104031009D02*
X139509523Y-103983390D01*
X139509523Y-103983390D02*
X139604761Y-103935771D01*
X139604761Y-103935771D02*
X139795237Y-103935771D01*
X139795237Y-103935771D02*
X139890475Y-103983390D01*
X139890475Y-103983390D02*
X139938094Y-104031009D01*
X139938094Y-104031009D02*
X139985713Y-104126247D01*
X150769580Y-94858333D02*
X150817200Y-94810714D01*
X150817200Y-94810714D02*
X150864819Y-94667857D01*
X150864819Y-94667857D02*
X150864819Y-94572619D01*
X150864819Y-94572619D02*
X150817200Y-94429762D01*
X150817200Y-94429762D02*
X150721961Y-94334524D01*
X150721961Y-94334524D02*
X150626723Y-94286905D01*
X150626723Y-94286905D02*
X150436247Y-94239286D01*
X150436247Y-94239286D02*
X150293390Y-94239286D01*
X150293390Y-94239286D02*
X150102914Y-94286905D01*
X150102914Y-94286905D02*
X150007676Y-94334524D01*
X150007676Y-94334524D02*
X149912438Y-94429762D01*
X149912438Y-94429762D02*
X149864819Y-94572619D01*
X149864819Y-94572619D02*
X149864819Y-94667857D01*
X149864819Y-94667857D02*
X149912438Y-94810714D01*
X149912438Y-94810714D02*
X149960057Y-94858333D01*
X150864819Y-95334524D02*
X150864819Y-95525000D01*
X150864819Y-95525000D02*
X150817200Y-95620238D01*
X150817200Y-95620238D02*
X150769580Y-95667857D01*
X150769580Y-95667857D02*
X150626723Y-95763095D01*
X150626723Y-95763095D02*
X150436247Y-95810714D01*
X150436247Y-95810714D02*
X150055295Y-95810714D01*
X150055295Y-95810714D02*
X149960057Y-95763095D01*
X149960057Y-95763095D02*
X149912438Y-95715476D01*
X149912438Y-95715476D02*
X149864819Y-95620238D01*
X149864819Y-95620238D02*
X149864819Y-95429762D01*
X149864819Y-95429762D02*
X149912438Y-95334524D01*
X149912438Y-95334524D02*
X149960057Y-95286905D01*
X149960057Y-95286905D02*
X150055295Y-95239286D01*
X150055295Y-95239286D02*
X150293390Y-95239286D01*
X150293390Y-95239286D02*
X150388628Y-95286905D01*
X150388628Y-95286905D02*
X150436247Y-95334524D01*
X150436247Y-95334524D02*
X150483866Y-95429762D01*
X150483866Y-95429762D02*
X150483866Y-95620238D01*
X150483866Y-95620238D02*
X150436247Y-95715476D01*
X150436247Y-95715476D02*
X150388628Y-95763095D01*
X150388628Y-95763095D02*
X150293390Y-95810714D01*
X136066666Y-102954819D02*
X136399999Y-102478628D01*
X136638094Y-102954819D02*
X136638094Y-101954819D01*
X136638094Y-101954819D02*
X136257142Y-101954819D01*
X136257142Y-101954819D02*
X136161904Y-102002438D01*
X136161904Y-102002438D02*
X136114285Y-102050057D01*
X136114285Y-102050057D02*
X136066666Y-102145295D01*
X136066666Y-102145295D02*
X136066666Y-102288152D01*
X136066666Y-102288152D02*
X136114285Y-102383390D01*
X136114285Y-102383390D02*
X136161904Y-102431009D01*
X136161904Y-102431009D02*
X136257142Y-102478628D01*
X136257142Y-102478628D02*
X136638094Y-102478628D01*
X135209523Y-101954819D02*
X135399999Y-101954819D01*
X135399999Y-101954819D02*
X135495237Y-102002438D01*
X135495237Y-102002438D02*
X135542856Y-102050057D01*
X135542856Y-102050057D02*
X135638094Y-102192914D01*
X135638094Y-102192914D02*
X135685713Y-102383390D01*
X135685713Y-102383390D02*
X135685713Y-102764342D01*
X135685713Y-102764342D02*
X135638094Y-102859580D01*
X135638094Y-102859580D02*
X135590475Y-102907200D01*
X135590475Y-102907200D02*
X135495237Y-102954819D01*
X135495237Y-102954819D02*
X135304761Y-102954819D01*
X135304761Y-102954819D02*
X135209523Y-102907200D01*
X135209523Y-102907200D02*
X135161904Y-102859580D01*
X135161904Y-102859580D02*
X135114285Y-102764342D01*
X135114285Y-102764342D02*
X135114285Y-102526247D01*
X135114285Y-102526247D02*
X135161904Y-102431009D01*
X135161904Y-102431009D02*
X135209523Y-102383390D01*
X135209523Y-102383390D02*
X135304761Y-102335771D01*
X135304761Y-102335771D02*
X135495237Y-102335771D01*
X135495237Y-102335771D02*
X135590475Y-102383390D01*
X135590475Y-102383390D02*
X135638094Y-102431009D01*
X135638094Y-102431009D02*
X135685713Y-102526247D01*
X155854819Y-111957142D02*
X155378628Y-111623809D01*
X155854819Y-111385714D02*
X154854819Y-111385714D01*
X154854819Y-111385714D02*
X154854819Y-111766666D01*
X154854819Y-111766666D02*
X154902438Y-111861904D01*
X154902438Y-111861904D02*
X154950057Y-111909523D01*
X154950057Y-111909523D02*
X155045295Y-111957142D01*
X155045295Y-111957142D02*
X155188152Y-111957142D01*
X155188152Y-111957142D02*
X155283390Y-111909523D01*
X155283390Y-111909523D02*
X155331009Y-111861904D01*
X155331009Y-111861904D02*
X155378628Y-111766666D01*
X155378628Y-111766666D02*
X155378628Y-111385714D01*
X155854819Y-112909523D02*
X155854819Y-112338095D01*
X155854819Y-112623809D02*
X154854819Y-112623809D01*
X154854819Y-112623809D02*
X154997676Y-112528571D01*
X154997676Y-112528571D02*
X155092914Y-112433333D01*
X155092914Y-112433333D02*
X155140533Y-112338095D01*
X154854819Y-113242857D02*
X154854819Y-113909523D01*
X154854819Y-113909523D02*
X155854819Y-113480952D01*
X144166666Y-91229580D02*
X144214285Y-91277200D01*
X144214285Y-91277200D02*
X144357142Y-91324819D01*
X144357142Y-91324819D02*
X144452380Y-91324819D01*
X144452380Y-91324819D02*
X144595237Y-91277200D01*
X144595237Y-91277200D02*
X144690475Y-91181961D01*
X144690475Y-91181961D02*
X144738094Y-91086723D01*
X144738094Y-91086723D02*
X144785713Y-90896247D01*
X144785713Y-90896247D02*
X144785713Y-90753390D01*
X144785713Y-90753390D02*
X144738094Y-90562914D01*
X144738094Y-90562914D02*
X144690475Y-90467676D01*
X144690475Y-90467676D02*
X144595237Y-90372438D01*
X144595237Y-90372438D02*
X144452380Y-90324819D01*
X144452380Y-90324819D02*
X144357142Y-90324819D01*
X144357142Y-90324819D02*
X144214285Y-90372438D01*
X144214285Y-90372438D02*
X144166666Y-90420057D01*
X143261904Y-90324819D02*
X143738094Y-90324819D01*
X143738094Y-90324819D02*
X143785713Y-90801009D01*
X143785713Y-90801009D02*
X143738094Y-90753390D01*
X143738094Y-90753390D02*
X143642856Y-90705771D01*
X143642856Y-90705771D02*
X143404761Y-90705771D01*
X143404761Y-90705771D02*
X143309523Y-90753390D01*
X143309523Y-90753390D02*
X143261904Y-90801009D01*
X143261904Y-90801009D02*
X143214285Y-90896247D01*
X143214285Y-90896247D02*
X143214285Y-91134342D01*
X143214285Y-91134342D02*
X143261904Y-91229580D01*
X143261904Y-91229580D02*
X143309523Y-91277200D01*
X143309523Y-91277200D02*
X143404761Y-91324819D01*
X143404761Y-91324819D02*
X143642856Y-91324819D01*
X143642856Y-91324819D02*
X143738094Y-91277200D01*
X143738094Y-91277200D02*
X143785713Y-91229580D01*
X143254819Y-104057142D02*
X142778628Y-103723809D01*
X143254819Y-103485714D02*
X142254819Y-103485714D01*
X142254819Y-103485714D02*
X142254819Y-103866666D01*
X142254819Y-103866666D02*
X142302438Y-103961904D01*
X142302438Y-103961904D02*
X142350057Y-104009523D01*
X142350057Y-104009523D02*
X142445295Y-104057142D01*
X142445295Y-104057142D02*
X142588152Y-104057142D01*
X142588152Y-104057142D02*
X142683390Y-104009523D01*
X142683390Y-104009523D02*
X142731009Y-103961904D01*
X142731009Y-103961904D02*
X142778628Y-103866666D01*
X142778628Y-103866666D02*
X142778628Y-103485714D01*
X142350057Y-104438095D02*
X142302438Y-104485714D01*
X142302438Y-104485714D02*
X142254819Y-104580952D01*
X142254819Y-104580952D02*
X142254819Y-104819047D01*
X142254819Y-104819047D02*
X142302438Y-104914285D01*
X142302438Y-104914285D02*
X142350057Y-104961904D01*
X142350057Y-104961904D02*
X142445295Y-105009523D01*
X142445295Y-105009523D02*
X142540533Y-105009523D01*
X142540533Y-105009523D02*
X142683390Y-104961904D01*
X142683390Y-104961904D02*
X143254819Y-104390476D01*
X143254819Y-104390476D02*
X143254819Y-105009523D01*
X142254819Y-105628571D02*
X142254819Y-105723809D01*
X142254819Y-105723809D02*
X142302438Y-105819047D01*
X142302438Y-105819047D02*
X142350057Y-105866666D01*
X142350057Y-105866666D02*
X142445295Y-105914285D01*
X142445295Y-105914285D02*
X142635771Y-105961904D01*
X142635771Y-105961904D02*
X142873866Y-105961904D01*
X142873866Y-105961904D02*
X143064342Y-105914285D01*
X143064342Y-105914285D02*
X143159580Y-105866666D01*
X143159580Y-105866666D02*
X143207200Y-105819047D01*
X143207200Y-105819047D02*
X143254819Y-105723809D01*
X143254819Y-105723809D02*
X143254819Y-105628571D01*
X143254819Y-105628571D02*
X143207200Y-105533333D01*
X143207200Y-105533333D02*
X143159580Y-105485714D01*
X143159580Y-105485714D02*
X143064342Y-105438095D01*
X143064342Y-105438095D02*
X142873866Y-105390476D01*
X142873866Y-105390476D02*
X142635771Y-105390476D01*
X142635771Y-105390476D02*
X142445295Y-105438095D01*
X142445295Y-105438095D02*
X142350057Y-105485714D01*
X142350057Y-105485714D02*
X142302438Y-105533333D01*
X142302438Y-105533333D02*
X142254819Y-105628571D01*
X136066666Y-92554819D02*
X136399999Y-92078628D01*
X136638094Y-92554819D02*
X136638094Y-91554819D01*
X136638094Y-91554819D02*
X136257142Y-91554819D01*
X136257142Y-91554819D02*
X136161904Y-91602438D01*
X136161904Y-91602438D02*
X136114285Y-91650057D01*
X136114285Y-91650057D02*
X136066666Y-91745295D01*
X136066666Y-91745295D02*
X136066666Y-91888152D01*
X136066666Y-91888152D02*
X136114285Y-91983390D01*
X136114285Y-91983390D02*
X136161904Y-92031009D01*
X136161904Y-92031009D02*
X136257142Y-92078628D01*
X136257142Y-92078628D02*
X136638094Y-92078628D01*
X135733332Y-91554819D02*
X135114285Y-91554819D01*
X135114285Y-91554819D02*
X135447618Y-91935771D01*
X135447618Y-91935771D02*
X135304761Y-91935771D01*
X135304761Y-91935771D02*
X135209523Y-91983390D01*
X135209523Y-91983390D02*
X135161904Y-92031009D01*
X135161904Y-92031009D02*
X135114285Y-92126247D01*
X135114285Y-92126247D02*
X135114285Y-92364342D01*
X135114285Y-92364342D02*
X135161904Y-92459580D01*
X135161904Y-92459580D02*
X135209523Y-92507200D01*
X135209523Y-92507200D02*
X135304761Y-92554819D01*
X135304761Y-92554819D02*
X135590475Y-92554819D01*
X135590475Y-92554819D02*
X135685713Y-92507200D01*
X135685713Y-92507200D02*
X135733332Y-92459580D01*
X158542857Y-119454819D02*
X158876190Y-118978628D01*
X159114285Y-119454819D02*
X159114285Y-118454819D01*
X159114285Y-118454819D02*
X158733333Y-118454819D01*
X158733333Y-118454819D02*
X158638095Y-118502438D01*
X158638095Y-118502438D02*
X158590476Y-118550057D01*
X158590476Y-118550057D02*
X158542857Y-118645295D01*
X158542857Y-118645295D02*
X158542857Y-118788152D01*
X158542857Y-118788152D02*
X158590476Y-118883390D01*
X158590476Y-118883390D02*
X158638095Y-118931009D01*
X158638095Y-118931009D02*
X158733333Y-118978628D01*
X158733333Y-118978628D02*
X159114285Y-118978628D01*
X157590476Y-119454819D02*
X158161904Y-119454819D01*
X157876190Y-119454819D02*
X157876190Y-118454819D01*
X157876190Y-118454819D02*
X157971428Y-118597676D01*
X157971428Y-118597676D02*
X158066666Y-118692914D01*
X158066666Y-118692914D02*
X158161904Y-118740533D01*
X157114285Y-119454819D02*
X156923809Y-119454819D01*
X156923809Y-119454819D02*
X156828571Y-119407200D01*
X156828571Y-119407200D02*
X156780952Y-119359580D01*
X156780952Y-119359580D02*
X156685714Y-119216723D01*
X156685714Y-119216723D02*
X156638095Y-119026247D01*
X156638095Y-119026247D02*
X156638095Y-118645295D01*
X156638095Y-118645295D02*
X156685714Y-118550057D01*
X156685714Y-118550057D02*
X156733333Y-118502438D01*
X156733333Y-118502438D02*
X156828571Y-118454819D01*
X156828571Y-118454819D02*
X157019047Y-118454819D01*
X157019047Y-118454819D02*
X157114285Y-118502438D01*
X157114285Y-118502438D02*
X157161904Y-118550057D01*
X157161904Y-118550057D02*
X157209523Y-118645295D01*
X157209523Y-118645295D02*
X157209523Y-118883390D01*
X157209523Y-118883390D02*
X157161904Y-118978628D01*
X157161904Y-118978628D02*
X157114285Y-119026247D01*
X157114285Y-119026247D02*
X157019047Y-119073866D01*
X157019047Y-119073866D02*
X156828571Y-119073866D01*
X156828571Y-119073866D02*
X156733333Y-119026247D01*
X156733333Y-119026247D02*
X156685714Y-118978628D01*
X156685714Y-118978628D02*
X156638095Y-118883390D01*
X148642857Y-102359580D02*
X148690476Y-102407200D01*
X148690476Y-102407200D02*
X148833333Y-102454819D01*
X148833333Y-102454819D02*
X148928571Y-102454819D01*
X148928571Y-102454819D02*
X149071428Y-102407200D01*
X149071428Y-102407200D02*
X149166666Y-102311961D01*
X149166666Y-102311961D02*
X149214285Y-102216723D01*
X149214285Y-102216723D02*
X149261904Y-102026247D01*
X149261904Y-102026247D02*
X149261904Y-101883390D01*
X149261904Y-101883390D02*
X149214285Y-101692914D01*
X149214285Y-101692914D02*
X149166666Y-101597676D01*
X149166666Y-101597676D02*
X149071428Y-101502438D01*
X149071428Y-101502438D02*
X148928571Y-101454819D01*
X148928571Y-101454819D02*
X148833333Y-101454819D01*
X148833333Y-101454819D02*
X148690476Y-101502438D01*
X148690476Y-101502438D02*
X148642857Y-101550057D01*
X147690476Y-102454819D02*
X148261904Y-102454819D01*
X147976190Y-102454819D02*
X147976190Y-101454819D01*
X147976190Y-101454819D02*
X148071428Y-101597676D01*
X148071428Y-101597676D02*
X148166666Y-101692914D01*
X148166666Y-101692914D02*
X148261904Y-101740533D01*
X146833333Y-101454819D02*
X147023809Y-101454819D01*
X147023809Y-101454819D02*
X147119047Y-101502438D01*
X147119047Y-101502438D02*
X147166666Y-101550057D01*
X147166666Y-101550057D02*
X147261904Y-101692914D01*
X147261904Y-101692914D02*
X147309523Y-101883390D01*
X147309523Y-101883390D02*
X147309523Y-102264342D01*
X147309523Y-102264342D02*
X147261904Y-102359580D01*
X147261904Y-102359580D02*
X147214285Y-102407200D01*
X147214285Y-102407200D02*
X147119047Y-102454819D01*
X147119047Y-102454819D02*
X146928571Y-102454819D01*
X146928571Y-102454819D02*
X146833333Y-102407200D01*
X146833333Y-102407200D02*
X146785714Y-102359580D01*
X146785714Y-102359580D02*
X146738095Y-102264342D01*
X146738095Y-102264342D02*
X146738095Y-102026247D01*
X146738095Y-102026247D02*
X146785714Y-101931009D01*
X146785714Y-101931009D02*
X146833333Y-101883390D01*
X146833333Y-101883390D02*
X146928571Y-101835771D01*
X146928571Y-101835771D02*
X147119047Y-101835771D01*
X147119047Y-101835771D02*
X147214285Y-101883390D01*
X147214285Y-101883390D02*
X147261904Y-101931009D01*
X147261904Y-101931009D02*
X147309523Y-102026247D01*
X148254819Y-105238095D02*
X149064342Y-105238095D01*
X149064342Y-105238095D02*
X149159580Y-105285714D01*
X149159580Y-105285714D02*
X149207200Y-105333333D01*
X149207200Y-105333333D02*
X149254819Y-105428571D01*
X149254819Y-105428571D02*
X149254819Y-105619047D01*
X149254819Y-105619047D02*
X149207200Y-105714285D01*
X149207200Y-105714285D02*
X149159580Y-105761904D01*
X149159580Y-105761904D02*
X149064342Y-105809523D01*
X149064342Y-105809523D02*
X148254819Y-105809523D01*
X148254819Y-106761904D02*
X148254819Y-106285714D01*
X148254819Y-106285714D02*
X148731009Y-106238095D01*
X148731009Y-106238095D02*
X148683390Y-106285714D01*
X148683390Y-106285714D02*
X148635771Y-106380952D01*
X148635771Y-106380952D02*
X148635771Y-106619047D01*
X148635771Y-106619047D02*
X148683390Y-106714285D01*
X148683390Y-106714285D02*
X148731009Y-106761904D01*
X148731009Y-106761904D02*
X148826247Y-106809523D01*
X148826247Y-106809523D02*
X149064342Y-106809523D01*
X149064342Y-106809523D02*
X149159580Y-106761904D01*
X149159580Y-106761904D02*
X149207200Y-106714285D01*
X149207200Y-106714285D02*
X149254819Y-106619047D01*
X149254819Y-106619047D02*
X149254819Y-106380952D01*
X149254819Y-106380952D02*
X149207200Y-106285714D01*
X149207200Y-106285714D02*
X149159580Y-106238095D01*
X142054819Y-117461905D02*
X141054819Y-117461905D01*
X141054819Y-117461905D02*
X141054819Y-117700000D01*
X141054819Y-117700000D02*
X141102438Y-117842857D01*
X141102438Y-117842857D02*
X141197676Y-117938095D01*
X141197676Y-117938095D02*
X141292914Y-117985714D01*
X141292914Y-117985714D02*
X141483390Y-118033333D01*
X141483390Y-118033333D02*
X141626247Y-118033333D01*
X141626247Y-118033333D02*
X141816723Y-117985714D01*
X141816723Y-117985714D02*
X141911961Y-117938095D01*
X141911961Y-117938095D02*
X142007200Y-117842857D01*
X142007200Y-117842857D02*
X142054819Y-117700000D01*
X142054819Y-117700000D02*
X142054819Y-117461905D01*
X142054819Y-118985714D02*
X142054819Y-118414286D01*
X142054819Y-118700000D02*
X141054819Y-118700000D01*
X141054819Y-118700000D02*
X141197676Y-118604762D01*
X141197676Y-118604762D02*
X141292914Y-118509524D01*
X141292914Y-118509524D02*
X141340533Y-118414286D01*
X155654819Y-99957142D02*
X155178628Y-99623809D01*
X155654819Y-99385714D02*
X154654819Y-99385714D01*
X154654819Y-99385714D02*
X154654819Y-99766666D01*
X154654819Y-99766666D02*
X154702438Y-99861904D01*
X154702438Y-99861904D02*
X154750057Y-99909523D01*
X154750057Y-99909523D02*
X154845295Y-99957142D01*
X154845295Y-99957142D02*
X154988152Y-99957142D01*
X154988152Y-99957142D02*
X155083390Y-99909523D01*
X155083390Y-99909523D02*
X155131009Y-99861904D01*
X155131009Y-99861904D02*
X155178628Y-99766666D01*
X155178628Y-99766666D02*
X155178628Y-99385714D01*
X155654819Y-100909523D02*
X155654819Y-100338095D01*
X155654819Y-100623809D02*
X154654819Y-100623809D01*
X154654819Y-100623809D02*
X154797676Y-100528571D01*
X154797676Y-100528571D02*
X154892914Y-100433333D01*
X154892914Y-100433333D02*
X154940533Y-100338095D01*
X154654819Y-101766666D02*
X154654819Y-101576190D01*
X154654819Y-101576190D02*
X154702438Y-101480952D01*
X154702438Y-101480952D02*
X154750057Y-101433333D01*
X154750057Y-101433333D02*
X154892914Y-101338095D01*
X154892914Y-101338095D02*
X155083390Y-101290476D01*
X155083390Y-101290476D02*
X155464342Y-101290476D01*
X155464342Y-101290476D02*
X155559580Y-101338095D01*
X155559580Y-101338095D02*
X155607200Y-101385714D01*
X155607200Y-101385714D02*
X155654819Y-101480952D01*
X155654819Y-101480952D02*
X155654819Y-101671428D01*
X155654819Y-101671428D02*
X155607200Y-101766666D01*
X155607200Y-101766666D02*
X155559580Y-101814285D01*
X155559580Y-101814285D02*
X155464342Y-101861904D01*
X155464342Y-101861904D02*
X155226247Y-101861904D01*
X155226247Y-101861904D02*
X155131009Y-101814285D01*
X155131009Y-101814285D02*
X155083390Y-101766666D01*
X155083390Y-101766666D02*
X155035771Y-101671428D01*
X155035771Y-101671428D02*
X155035771Y-101480952D01*
X155035771Y-101480952D02*
X155083390Y-101385714D01*
X155083390Y-101385714D02*
X155131009Y-101338095D01*
X155131009Y-101338095D02*
X155226247Y-101290476D01*
X150159580Y-117433333D02*
X150207200Y-117385714D01*
X150207200Y-117385714D02*
X150254819Y-117242857D01*
X150254819Y-117242857D02*
X150254819Y-117147619D01*
X150254819Y-117147619D02*
X150207200Y-117004762D01*
X150207200Y-117004762D02*
X150111961Y-116909524D01*
X150111961Y-116909524D02*
X150016723Y-116861905D01*
X150016723Y-116861905D02*
X149826247Y-116814286D01*
X149826247Y-116814286D02*
X149683390Y-116814286D01*
X149683390Y-116814286D02*
X149492914Y-116861905D01*
X149492914Y-116861905D02*
X149397676Y-116909524D01*
X149397676Y-116909524D02*
X149302438Y-117004762D01*
X149302438Y-117004762D02*
X149254819Y-117147619D01*
X149254819Y-117147619D02*
X149254819Y-117242857D01*
X149254819Y-117242857D02*
X149302438Y-117385714D01*
X149302438Y-117385714D02*
X149350057Y-117433333D01*
X150254819Y-118385714D02*
X150254819Y-117814286D01*
X150254819Y-118100000D02*
X149254819Y-118100000D01*
X149254819Y-118100000D02*
X149397676Y-118004762D01*
X149397676Y-118004762D02*
X149492914Y-117909524D01*
X149492914Y-117909524D02*
X149540533Y-117814286D01*
X146866666Y-94254819D02*
X147199999Y-93778628D01*
X147438094Y-94254819D02*
X147438094Y-93254819D01*
X147438094Y-93254819D02*
X147057142Y-93254819D01*
X147057142Y-93254819D02*
X146961904Y-93302438D01*
X146961904Y-93302438D02*
X146914285Y-93350057D01*
X146914285Y-93350057D02*
X146866666Y-93445295D01*
X146866666Y-93445295D02*
X146866666Y-93588152D01*
X146866666Y-93588152D02*
X146914285Y-93683390D01*
X146914285Y-93683390D02*
X146961904Y-93731009D01*
X146961904Y-93731009D02*
X147057142Y-93778628D01*
X147057142Y-93778628D02*
X147438094Y-93778628D01*
X145914285Y-94254819D02*
X146485713Y-94254819D01*
X146199999Y-94254819D02*
X146199999Y-93254819D01*
X146199999Y-93254819D02*
X146295237Y-93397676D01*
X146295237Y-93397676D02*
X146390475Y-93492914D01*
X146390475Y-93492914D02*
X146485713Y-93540533D01*
X158461904Y-100917318D02*
X158461904Y-101726841D01*
X158461904Y-101726841D02*
X158414285Y-101822079D01*
X158414285Y-101822079D02*
X158366666Y-101869699D01*
X158366666Y-101869699D02*
X158271428Y-101917318D01*
X158271428Y-101917318D02*
X158080952Y-101917318D01*
X158080952Y-101917318D02*
X157985714Y-101869699D01*
X157985714Y-101869699D02*
X157938095Y-101822079D01*
X157938095Y-101822079D02*
X157890476Y-101726841D01*
X157890476Y-101726841D02*
X157890476Y-100917318D01*
X157509523Y-100917318D02*
X156890476Y-100917318D01*
X156890476Y-100917318D02*
X157223809Y-101298270D01*
X157223809Y-101298270D02*
X157080952Y-101298270D01*
X157080952Y-101298270D02*
X156985714Y-101345889D01*
X156985714Y-101345889D02*
X156938095Y-101393508D01*
X156938095Y-101393508D02*
X156890476Y-101488746D01*
X156890476Y-101488746D02*
X156890476Y-101726841D01*
X156890476Y-101726841D02*
X156938095Y-101822079D01*
X156938095Y-101822079D02*
X156985714Y-101869699D01*
X156985714Y-101869699D02*
X157080952Y-101917318D01*
X157080952Y-101917318D02*
X157366666Y-101917318D01*
X157366666Y-101917318D02*
X157461904Y-101869699D01*
X157461904Y-101869699D02*
X157509523Y-101822079D01*
X153342857Y-104514580D02*
X153390476Y-104562200D01*
X153390476Y-104562200D02*
X153533333Y-104609819D01*
X153533333Y-104609819D02*
X153628571Y-104609819D01*
X153628571Y-104609819D02*
X153771428Y-104562200D01*
X153771428Y-104562200D02*
X153866666Y-104466961D01*
X153866666Y-104466961D02*
X153914285Y-104371723D01*
X153914285Y-104371723D02*
X153961904Y-104181247D01*
X153961904Y-104181247D02*
X153961904Y-104038390D01*
X153961904Y-104038390D02*
X153914285Y-103847914D01*
X153914285Y-103847914D02*
X153866666Y-103752676D01*
X153866666Y-103752676D02*
X153771428Y-103657438D01*
X153771428Y-103657438D02*
X153628571Y-103609819D01*
X153628571Y-103609819D02*
X153533333Y-103609819D01*
X153533333Y-103609819D02*
X153390476Y-103657438D01*
X153390476Y-103657438D02*
X153342857Y-103705057D01*
X152390476Y-104609819D02*
X152961904Y-104609819D01*
X152676190Y-104609819D02*
X152676190Y-103609819D01*
X152676190Y-103609819D02*
X152771428Y-103752676D01*
X152771428Y-103752676D02*
X152866666Y-103847914D01*
X152866666Y-103847914D02*
X152961904Y-103895533D01*
X151771428Y-103609819D02*
X151676190Y-103609819D01*
X151676190Y-103609819D02*
X151580952Y-103657438D01*
X151580952Y-103657438D02*
X151533333Y-103705057D01*
X151533333Y-103705057D02*
X151485714Y-103800295D01*
X151485714Y-103800295D02*
X151438095Y-103990771D01*
X151438095Y-103990771D02*
X151438095Y-104228866D01*
X151438095Y-104228866D02*
X151485714Y-104419342D01*
X151485714Y-104419342D02*
X151533333Y-104514580D01*
X151533333Y-104514580D02*
X151580952Y-104562200D01*
X151580952Y-104562200D02*
X151676190Y-104609819D01*
X151676190Y-104609819D02*
X151771428Y-104609819D01*
X151771428Y-104609819D02*
X151866666Y-104562200D01*
X151866666Y-104562200D02*
X151914285Y-104514580D01*
X151914285Y-104514580D02*
X151961904Y-104419342D01*
X151961904Y-104419342D02*
X152009523Y-104228866D01*
X152009523Y-104228866D02*
X152009523Y-103990771D01*
X152009523Y-103990771D02*
X151961904Y-103800295D01*
X151961904Y-103800295D02*
X151914285Y-103705057D01*
X151914285Y-103705057D02*
X151866666Y-103657438D01*
X151866666Y-103657438D02*
X151771428Y-103609819D01*
X149109523Y-87254819D02*
X149109523Y-86254819D01*
X149109523Y-86254819D02*
X148776190Y-86969104D01*
X148776190Y-86969104D02*
X148442857Y-86254819D01*
X148442857Y-86254819D02*
X148442857Y-87254819D01*
X147442857Y-87254819D02*
X148014285Y-87254819D01*
X147728571Y-87254819D02*
X147728571Y-86254819D01*
X147728571Y-86254819D02*
X147823809Y-86397676D01*
X147823809Y-86397676D02*
X147919047Y-86492914D01*
X147919047Y-86492914D02*
X148014285Y-86540533D01*
X138507200Y-106766667D02*
X138554819Y-106909524D01*
X138554819Y-106909524D02*
X138554819Y-107147619D01*
X138554819Y-107147619D02*
X138507200Y-107242857D01*
X138507200Y-107242857D02*
X138459580Y-107290476D01*
X138459580Y-107290476D02*
X138364342Y-107338095D01*
X138364342Y-107338095D02*
X138269104Y-107338095D01*
X138269104Y-107338095D02*
X138173866Y-107290476D01*
X138173866Y-107290476D02*
X138126247Y-107242857D01*
X138126247Y-107242857D02*
X138078628Y-107147619D01*
X138078628Y-107147619D02*
X138031009Y-106957143D01*
X138031009Y-106957143D02*
X137983390Y-106861905D01*
X137983390Y-106861905D02*
X137935771Y-106814286D01*
X137935771Y-106814286D02*
X137840533Y-106766667D01*
X137840533Y-106766667D02*
X137745295Y-106766667D01*
X137745295Y-106766667D02*
X137650057Y-106814286D01*
X137650057Y-106814286D02*
X137602438Y-106861905D01*
X137602438Y-106861905D02*
X137554819Y-106957143D01*
X137554819Y-106957143D02*
X137554819Y-107195238D01*
X137554819Y-107195238D02*
X137602438Y-107338095D01*
X137554819Y-107671429D02*
X138554819Y-107909524D01*
X138554819Y-107909524D02*
X137840533Y-108100000D01*
X137840533Y-108100000D02*
X138554819Y-108290476D01*
X138554819Y-108290476D02*
X137554819Y-108528572D01*
X137650057Y-108861905D02*
X137602438Y-108909524D01*
X137602438Y-108909524D02*
X137554819Y-109004762D01*
X137554819Y-109004762D02*
X137554819Y-109242857D01*
X137554819Y-109242857D02*
X137602438Y-109338095D01*
X137602438Y-109338095D02*
X137650057Y-109385714D01*
X137650057Y-109385714D02*
X137745295Y-109433333D01*
X137745295Y-109433333D02*
X137840533Y-109433333D01*
X137840533Y-109433333D02*
X137983390Y-109385714D01*
X137983390Y-109385714D02*
X138554819Y-108814286D01*
X138554819Y-108814286D02*
X138554819Y-109433333D01*
X155861904Y-115354819D02*
X155290476Y-115354819D01*
X155576190Y-116354819D02*
X155576190Y-115354819D01*
X154957142Y-116354819D02*
X154957142Y-115354819D01*
X154957142Y-115354819D02*
X154576190Y-115354819D01*
X154576190Y-115354819D02*
X154480952Y-115402438D01*
X154480952Y-115402438D02*
X154433333Y-115450057D01*
X154433333Y-115450057D02*
X154385714Y-115545295D01*
X154385714Y-115545295D02*
X154385714Y-115688152D01*
X154385714Y-115688152D02*
X154433333Y-115783390D01*
X154433333Y-115783390D02*
X154480952Y-115831009D01*
X154480952Y-115831009D02*
X154576190Y-115878628D01*
X154576190Y-115878628D02*
X154957142Y-115878628D01*
X154052380Y-115354819D02*
X153433333Y-115354819D01*
X153433333Y-115354819D02*
X153766666Y-115735771D01*
X153766666Y-115735771D02*
X153623809Y-115735771D01*
X153623809Y-115735771D02*
X153528571Y-115783390D01*
X153528571Y-115783390D02*
X153480952Y-115831009D01*
X153480952Y-115831009D02*
X153433333Y-115926247D01*
X153433333Y-115926247D02*
X153433333Y-116164342D01*
X153433333Y-116164342D02*
X153480952Y-116259580D01*
X153480952Y-116259580D02*
X153528571Y-116307200D01*
X153528571Y-116307200D02*
X153623809Y-116354819D01*
X153623809Y-116354819D02*
X153909523Y-116354819D01*
X153909523Y-116354819D02*
X154004761Y-116307200D01*
X154004761Y-116307200D02*
X154052380Y-116259580D01*
X147659580Y-99833333D02*
X147707200Y-99785714D01*
X147707200Y-99785714D02*
X147754819Y-99642857D01*
X147754819Y-99642857D02*
X147754819Y-99547619D01*
X147754819Y-99547619D02*
X147707200Y-99404762D01*
X147707200Y-99404762D02*
X147611961Y-99309524D01*
X147611961Y-99309524D02*
X147516723Y-99261905D01*
X147516723Y-99261905D02*
X147326247Y-99214286D01*
X147326247Y-99214286D02*
X147183390Y-99214286D01*
X147183390Y-99214286D02*
X146992914Y-99261905D01*
X146992914Y-99261905D02*
X146897676Y-99309524D01*
X146897676Y-99309524D02*
X146802438Y-99404762D01*
X146802438Y-99404762D02*
X146754819Y-99547619D01*
X146754819Y-99547619D02*
X146754819Y-99642857D01*
X146754819Y-99642857D02*
X146802438Y-99785714D01*
X146802438Y-99785714D02*
X146850057Y-99833333D01*
X146754819Y-100166667D02*
X146754819Y-100833333D01*
X146754819Y-100833333D02*
X147754819Y-100404762D01*
X143154819Y-106661905D02*
X142154819Y-106661905D01*
X142154819Y-106661905D02*
X142154819Y-106900000D01*
X142154819Y-106900000D02*
X142202438Y-107042857D01*
X142202438Y-107042857D02*
X142297676Y-107138095D01*
X142297676Y-107138095D02*
X142392914Y-107185714D01*
X142392914Y-107185714D02*
X142583390Y-107233333D01*
X142583390Y-107233333D02*
X142726247Y-107233333D01*
X142726247Y-107233333D02*
X142916723Y-107185714D01*
X142916723Y-107185714D02*
X143011961Y-107138095D01*
X143011961Y-107138095D02*
X143107200Y-107042857D01*
X143107200Y-107042857D02*
X143154819Y-106900000D01*
X143154819Y-106900000D02*
X143154819Y-106661905D01*
X142250057Y-107614286D02*
X142202438Y-107661905D01*
X142202438Y-107661905D02*
X142154819Y-107757143D01*
X142154819Y-107757143D02*
X142154819Y-107995238D01*
X142154819Y-107995238D02*
X142202438Y-108090476D01*
X142202438Y-108090476D02*
X142250057Y-108138095D01*
X142250057Y-108138095D02*
X142345295Y-108185714D01*
X142345295Y-108185714D02*
X142440533Y-108185714D01*
X142440533Y-108185714D02*
X142583390Y-108138095D01*
X142583390Y-108138095D02*
X143154819Y-107566667D01*
X143154819Y-107566667D02*
X143154819Y-108185714D01*
X155366666Y-110554819D02*
X155842856Y-110554819D01*
X155842856Y-110554819D02*
X155842856Y-109554819D01*
X154509523Y-110554819D02*
X155080951Y-110554819D01*
X154795237Y-110554819D02*
X154795237Y-109554819D01*
X154795237Y-109554819D02*
X154890475Y-109697676D01*
X154890475Y-109697676D02*
X154985713Y-109792914D01*
X154985713Y-109792914D02*
X155080951Y-109840533D01*
X162559580Y-104157142D02*
X162607200Y-104109523D01*
X162607200Y-104109523D02*
X162654819Y-103966666D01*
X162654819Y-103966666D02*
X162654819Y-103871428D01*
X162654819Y-103871428D02*
X162607200Y-103728571D01*
X162607200Y-103728571D02*
X162511961Y-103633333D01*
X162511961Y-103633333D02*
X162416723Y-103585714D01*
X162416723Y-103585714D02*
X162226247Y-103538095D01*
X162226247Y-103538095D02*
X162083390Y-103538095D01*
X162083390Y-103538095D02*
X161892914Y-103585714D01*
X161892914Y-103585714D02*
X161797676Y-103633333D01*
X161797676Y-103633333D02*
X161702438Y-103728571D01*
X161702438Y-103728571D02*
X161654819Y-103871428D01*
X161654819Y-103871428D02*
X161654819Y-103966666D01*
X161654819Y-103966666D02*
X161702438Y-104109523D01*
X161702438Y-104109523D02*
X161750057Y-104157142D01*
X162654819Y-105109523D02*
X162654819Y-104538095D01*
X162654819Y-104823809D02*
X161654819Y-104823809D01*
X161654819Y-104823809D02*
X161797676Y-104728571D01*
X161797676Y-104728571D02*
X161892914Y-104633333D01*
X161892914Y-104633333D02*
X161940533Y-104538095D01*
X161654819Y-106014285D02*
X161654819Y-105538095D01*
X161654819Y-105538095D02*
X162131009Y-105490476D01*
X162131009Y-105490476D02*
X162083390Y-105538095D01*
X162083390Y-105538095D02*
X162035771Y-105633333D01*
X162035771Y-105633333D02*
X162035771Y-105871428D01*
X162035771Y-105871428D02*
X162083390Y-105966666D01*
X162083390Y-105966666D02*
X162131009Y-106014285D01*
X162131009Y-106014285D02*
X162226247Y-106061904D01*
X162226247Y-106061904D02*
X162464342Y-106061904D01*
X162464342Y-106061904D02*
X162559580Y-106014285D01*
X162559580Y-106014285D02*
X162607200Y-105966666D01*
X162607200Y-105966666D02*
X162654819Y-105871428D01*
X162654819Y-105871428D02*
X162654819Y-105633333D01*
X162654819Y-105633333D02*
X162607200Y-105538095D01*
X162607200Y-105538095D02*
X162559580Y-105490476D01*
X136066666Y-105114819D02*
X136399999Y-104638628D01*
X136638094Y-105114819D02*
X136638094Y-104114819D01*
X136638094Y-104114819D02*
X136257142Y-104114819D01*
X136257142Y-104114819D02*
X136161904Y-104162438D01*
X136161904Y-104162438D02*
X136114285Y-104210057D01*
X136114285Y-104210057D02*
X136066666Y-104305295D01*
X136066666Y-104305295D02*
X136066666Y-104448152D01*
X136066666Y-104448152D02*
X136114285Y-104543390D01*
X136114285Y-104543390D02*
X136161904Y-104591009D01*
X136161904Y-104591009D02*
X136257142Y-104638628D01*
X136257142Y-104638628D02*
X136638094Y-104638628D01*
X135733332Y-104114819D02*
X135066666Y-104114819D01*
X135066666Y-104114819D02*
X135495237Y-105114819D01*
X139842857Y-119354819D02*
X140176190Y-118878628D01*
X140414285Y-119354819D02*
X140414285Y-118354819D01*
X140414285Y-118354819D02*
X140033333Y-118354819D01*
X140033333Y-118354819D02*
X139938095Y-118402438D01*
X139938095Y-118402438D02*
X139890476Y-118450057D01*
X139890476Y-118450057D02*
X139842857Y-118545295D01*
X139842857Y-118545295D02*
X139842857Y-118688152D01*
X139842857Y-118688152D02*
X139890476Y-118783390D01*
X139890476Y-118783390D02*
X139938095Y-118831009D01*
X139938095Y-118831009D02*
X140033333Y-118878628D01*
X140033333Y-118878628D02*
X140414285Y-118878628D01*
X138890476Y-119354819D02*
X139461904Y-119354819D01*
X139176190Y-119354819D02*
X139176190Y-118354819D01*
X139176190Y-118354819D02*
X139271428Y-118497676D01*
X139271428Y-118497676D02*
X139366666Y-118592914D01*
X139366666Y-118592914D02*
X139461904Y-118640533D01*
X137938095Y-119354819D02*
X138509523Y-119354819D01*
X138223809Y-119354819D02*
X138223809Y-118354819D01*
X138223809Y-118354819D02*
X138319047Y-118497676D01*
X138319047Y-118497676D02*
X138414285Y-118592914D01*
X138414285Y-118592914D02*
X138509523Y-118640533D01*
X143161904Y-98054819D02*
X143161904Y-98864342D01*
X143161904Y-98864342D02*
X143114285Y-98959580D01*
X143114285Y-98959580D02*
X143066666Y-99007200D01*
X143066666Y-99007200D02*
X142971428Y-99054819D01*
X142971428Y-99054819D02*
X142780952Y-99054819D01*
X142780952Y-99054819D02*
X142685714Y-99007200D01*
X142685714Y-99007200D02*
X142638095Y-98959580D01*
X142638095Y-98959580D02*
X142590476Y-98864342D01*
X142590476Y-98864342D02*
X142590476Y-98054819D01*
X142161904Y-98150057D02*
X142114285Y-98102438D01*
X142114285Y-98102438D02*
X142019047Y-98054819D01*
X142019047Y-98054819D02*
X141780952Y-98054819D01*
X141780952Y-98054819D02*
X141685714Y-98102438D01*
X141685714Y-98102438D02*
X141638095Y-98150057D01*
X141638095Y-98150057D02*
X141590476Y-98245295D01*
X141590476Y-98245295D02*
X141590476Y-98340533D01*
X141590476Y-98340533D02*
X141638095Y-98483390D01*
X141638095Y-98483390D02*
X142209523Y-99054819D01*
X142209523Y-99054819D02*
X141590476Y-99054819D01*
X136066666Y-110354819D02*
X136399999Y-109878628D01*
X136638094Y-110354819D02*
X136638094Y-109354819D01*
X136638094Y-109354819D02*
X136257142Y-109354819D01*
X136257142Y-109354819D02*
X136161904Y-109402438D01*
X136161904Y-109402438D02*
X136114285Y-109450057D01*
X136114285Y-109450057D02*
X136066666Y-109545295D01*
X136066666Y-109545295D02*
X136066666Y-109688152D01*
X136066666Y-109688152D02*
X136114285Y-109783390D01*
X136114285Y-109783390D02*
X136161904Y-109831009D01*
X136161904Y-109831009D02*
X136257142Y-109878628D01*
X136257142Y-109878628D02*
X136638094Y-109878628D01*
X135590475Y-110354819D02*
X135399999Y-110354819D01*
X135399999Y-110354819D02*
X135304761Y-110307200D01*
X135304761Y-110307200D02*
X135257142Y-110259580D01*
X135257142Y-110259580D02*
X135161904Y-110116723D01*
X135161904Y-110116723D02*
X135114285Y-109926247D01*
X135114285Y-109926247D02*
X135114285Y-109545295D01*
X135114285Y-109545295D02*
X135161904Y-109450057D01*
X135161904Y-109450057D02*
X135209523Y-109402438D01*
X135209523Y-109402438D02*
X135304761Y-109354819D01*
X135304761Y-109354819D02*
X135495237Y-109354819D01*
X135495237Y-109354819D02*
X135590475Y-109402438D01*
X135590475Y-109402438D02*
X135638094Y-109450057D01*
X135638094Y-109450057D02*
X135685713Y-109545295D01*
X135685713Y-109545295D02*
X135685713Y-109783390D01*
X135685713Y-109783390D02*
X135638094Y-109878628D01*
X135638094Y-109878628D02*
X135590475Y-109926247D01*
X135590475Y-109926247D02*
X135495237Y-109973866D01*
X135495237Y-109973866D02*
X135304761Y-109973866D01*
X135304761Y-109973866D02*
X135209523Y-109926247D01*
X135209523Y-109926247D02*
X135161904Y-109878628D01*
X135161904Y-109878628D02*
X135114285Y-109783390D01*
X154459580Y-105957142D02*
X154507200Y-105909523D01*
X154507200Y-105909523D02*
X154554819Y-105766666D01*
X154554819Y-105766666D02*
X154554819Y-105671428D01*
X154554819Y-105671428D02*
X154507200Y-105528571D01*
X154507200Y-105528571D02*
X154411961Y-105433333D01*
X154411961Y-105433333D02*
X154316723Y-105385714D01*
X154316723Y-105385714D02*
X154126247Y-105338095D01*
X154126247Y-105338095D02*
X153983390Y-105338095D01*
X153983390Y-105338095D02*
X153792914Y-105385714D01*
X153792914Y-105385714D02*
X153697676Y-105433333D01*
X153697676Y-105433333D02*
X153602438Y-105528571D01*
X153602438Y-105528571D02*
X153554819Y-105671428D01*
X153554819Y-105671428D02*
X153554819Y-105766666D01*
X153554819Y-105766666D02*
X153602438Y-105909523D01*
X153602438Y-105909523D02*
X153650057Y-105957142D01*
X154554819Y-106909523D02*
X154554819Y-106338095D01*
X154554819Y-106623809D02*
X153554819Y-106623809D01*
X153554819Y-106623809D02*
X153697676Y-106528571D01*
X153697676Y-106528571D02*
X153792914Y-106433333D01*
X153792914Y-106433333D02*
X153840533Y-106338095D01*
X153554819Y-107242857D02*
X153554819Y-107861904D01*
X153554819Y-107861904D02*
X153935771Y-107528571D01*
X153935771Y-107528571D02*
X153935771Y-107671428D01*
X153935771Y-107671428D02*
X153983390Y-107766666D01*
X153983390Y-107766666D02*
X154031009Y-107814285D01*
X154031009Y-107814285D02*
X154126247Y-107861904D01*
X154126247Y-107861904D02*
X154364342Y-107861904D01*
X154364342Y-107861904D02*
X154459580Y-107814285D01*
X154459580Y-107814285D02*
X154507200Y-107766666D01*
X154507200Y-107766666D02*
X154554819Y-107671428D01*
X154554819Y-107671428D02*
X154554819Y-107385714D01*
X154554819Y-107385714D02*
X154507200Y-107290476D01*
X154507200Y-107290476D02*
X154459580Y-107242857D01*
%TO.C,D3*%
D11*
X152840000Y-92900000D02*
X152840000Y-94860000D01*
X154040000Y-92900000D02*
X154040000Y-94860000D01*
X154040000Y-94860000D02*
X152840000Y-94860000D01*
%TO.C,R18*%
X161677500Y-112317224D02*
X161677500Y-111807776D01*
X162722500Y-112317224D02*
X162722500Y-111807776D01*
%TO.C,R5*%
X136154724Y-97947500D02*
X135645276Y-97947500D01*
X136154724Y-98992500D02*
X135645276Y-98992500D01*
%TO.C,C17*%
X146653733Y-108390000D02*
X146946267Y-108390000D01*
X146653733Y-109410000D02*
X146946267Y-109410000D01*
%TO.C,C3*%
X140286267Y-94890000D02*
X139993733Y-94890000D01*
X140286267Y-95910000D02*
X139993733Y-95910000D01*
%TO.C,C2*%
X140286267Y-91690000D02*
X139993733Y-91690000D01*
X140286267Y-92710000D02*
X139993733Y-92710000D01*
%TO.C,R10*%
X136254724Y-113577500D02*
X135745276Y-113577500D01*
X136254724Y-114622500D02*
X135745276Y-114622500D01*
%TO.C,TP1*%
X150900000Y-108800000D02*
G75*
G02*
X149500000Y-108800000I-700000J0D01*
G01*
X149500000Y-108800000D02*
G75*
G02*
X150900000Y-108800000I700000J0D01*
G01*
%TO.C,C11*%
X159790000Y-103316233D02*
X159790000Y-103608767D01*
X160810000Y-103316233D02*
X160810000Y-103608767D01*
%TO.C,C4*%
X147165000Y-117361252D02*
X147165000Y-116838748D01*
X148635000Y-117361252D02*
X148635000Y-116838748D01*
%TO.C,C12*%
X158190000Y-106916233D02*
X158190000Y-107208767D01*
X159210000Y-106916233D02*
X159210000Y-107208767D01*
%TO.C,U4*%
X157890000Y-113262500D02*
X157890000Y-111762500D01*
X157890000Y-113262500D02*
X157890000Y-114762500D01*
X161110000Y-113262500D02*
X161110000Y-111762500D01*
X161110000Y-113262500D02*
X161110000Y-114762500D01*
X158065000Y-111050000D02*
X157735000Y-111290000D01*
X157735000Y-110810000D01*
X158065000Y-111050000D01*
G36*
X158065000Y-111050000D02*
G01*
X157735000Y-111290000D01*
X157735000Y-110810000D01*
X158065000Y-111050000D01*
G37*
%TO.C,R12*%
X135745276Y-115177500D02*
X136254724Y-115177500D01*
X135745276Y-116222500D02*
X136254724Y-116222500D01*
%TO.C,R14*%
X140477500Y-111057776D02*
X140477500Y-111567224D01*
X141522500Y-111057776D02*
X141522500Y-111567224D01*
%TO.C,TP2*%
X144900000Y-97400000D02*
G75*
G02*
X143500000Y-97400000I-700000J0D01*
G01*
X143500000Y-97400000D02*
G75*
G02*
X144900000Y-97400000I700000J0D01*
G01*
%TO.C,C14*%
X156290000Y-108316233D02*
X156290000Y-108608767D01*
X157310000Y-108316233D02*
X157310000Y-108608767D01*
%TO.C,SW1*%
X142890000Y-95760000D02*
X144300000Y-95760000D01*
X142900000Y-93440000D02*
X144300000Y-93440000D01*
X142760000Y-96040000D02*
X142280000Y-96040000D01*
X142520000Y-95710000D01*
X142760000Y-96040000D01*
G36*
X142760000Y-96040000D02*
G01*
X142280000Y-96040000D01*
X142520000Y-95710000D01*
X142760000Y-96040000D01*
G37*
%TO.C,U1*%
X146490000Y-109890000D02*
X146490000Y-110015000D01*
X146490000Y-112985000D02*
X146490000Y-113110000D01*
X146490000Y-113110000D02*
X149710000Y-113110000D01*
X149710000Y-109890000D02*
X146490000Y-109890000D01*
X149710000Y-110015000D02*
X149710000Y-109890000D01*
X149710000Y-113110000D02*
X149710000Y-112985000D01*
X150260000Y-110010000D02*
X150020000Y-109680000D01*
X150500000Y-109680000D01*
X150260000Y-110010000D01*
G36*
X150260000Y-110010000D02*
G01*
X150020000Y-109680000D01*
X150500000Y-109680000D01*
X150260000Y-110010000D01*
G37*
%TO.C,R4*%
X136154724Y-92867500D02*
X135645276Y-92867500D01*
X136154724Y-93912500D02*
X135645276Y-93912500D01*
%TO.C,R8*%
X136154724Y-108107500D02*
X135645276Y-108107500D01*
X136154724Y-109152500D02*
X135645276Y-109152500D01*
%TO.C,C8*%
X138890000Y-111458767D02*
X138890000Y-111166233D01*
X139910000Y-111458767D02*
X139910000Y-111166233D01*
%TO.C,R2*%
X140394724Y-96477500D02*
X139885276Y-96477500D01*
X140394724Y-97522500D02*
X139885276Y-97522500D01*
%TO.C,R13*%
X135745276Y-116777500D02*
X136254724Y-116777500D01*
X135745276Y-117822500D02*
X136254724Y-117822500D01*
%TO.C,R15*%
X140177500Y-101054724D02*
X140177500Y-100545276D01*
X141222500Y-101054724D02*
X141222500Y-100545276D01*
%TO.C,C6*%
X140346267Y-105402500D02*
X140053733Y-105402500D01*
X140346267Y-106422500D02*
X140053733Y-106422500D01*
%TO.C,C9*%
X151330000Y-94878733D02*
X151330000Y-95171267D01*
X152350000Y-94878733D02*
X152350000Y-95171267D01*
%TO.C,R6*%
X136154724Y-100487500D02*
X135645276Y-100487500D01*
X136154724Y-101532500D02*
X135645276Y-101532500D01*
%TO.C,R17*%
X156277500Y-112317224D02*
X156277500Y-111807776D01*
X157322500Y-112317224D02*
X157322500Y-111807776D01*
%TO.C,C5*%
X143846267Y-91790000D02*
X143553733Y-91790000D01*
X143846267Y-92810000D02*
X143553733Y-92810000D01*
%TO.C,R20*%
X143575000Y-106254724D02*
X143575000Y-105745276D01*
X144620000Y-106254724D02*
X144620000Y-105745276D01*
%TO.C,R3*%
X136154724Y-90327500D02*
X135645276Y-90327500D01*
X136154724Y-91372500D02*
X135645276Y-91372500D01*
%TO.C,R19*%
X158214724Y-117040000D02*
X157705276Y-117040000D01*
X158214724Y-118085000D02*
X157705276Y-118085000D01*
%TO.C,C16*%
X146903767Y-102890000D02*
X146611233Y-102890000D01*
X146903767Y-103910000D02*
X146611233Y-103910000D01*
%TO.C,U5*%
X145287500Y-105240000D02*
X145287500Y-106650000D01*
X147607500Y-105250000D02*
X147607500Y-106650000D01*
X145337500Y-104870000D02*
X145007500Y-105110000D01*
X145007500Y-104630000D01*
X145337500Y-104870000D01*
G36*
X145337500Y-104870000D02*
G01*
X145007500Y-105110000D01*
X145007500Y-104630000D01*
X145337500Y-104870000D01*
G37*
%TO.C,D1*%
X142390000Y-118960000D02*
X142390000Y-114550000D01*
X144610000Y-114550000D02*
X144610000Y-118960000D01*
X144610000Y-118960000D02*
X142390000Y-118960000D01*
%TO.C,R16*%
X154677500Y-103407776D02*
X154677500Y-103917224D01*
X155722500Y-103407776D02*
X155722500Y-103917224D01*
%TO.C,C1*%
X145065000Y-117361252D02*
X145065000Y-116838748D01*
X146535000Y-117361252D02*
X146535000Y-116838748D01*
%TO.C,R1*%
X140394724Y-93277500D02*
X139885276Y-93277500D01*
X140394724Y-94322500D02*
X139885276Y-94322500D01*
%TO.C,U3*%
X158400000Y-104622500D02*
X157000000Y-104622500D01*
X158410000Y-102302500D02*
X157000000Y-102302500D01*
X158780000Y-102352500D02*
X158540000Y-102022500D01*
X159020000Y-102022500D01*
X158780000Y-102352500D01*
G36*
X158780000Y-102352500D02*
G01*
X158540000Y-102022500D01*
X159020000Y-102022500D01*
X158780000Y-102352500D01*
G37*
%TO.C,C10*%
X152553733Y-102215000D02*
X152846267Y-102215000D01*
X152553733Y-103235000D02*
X152846267Y-103235000D01*
%TO.C,M1*%
X132210000Y-93660000D02*
X132210000Y-91980000D01*
X132210000Y-99660000D02*
X132210000Y-97980000D01*
X132210000Y-105660000D02*
X132210000Y-103980000D01*
X132210000Y-111660000D02*
X132210000Y-109980000D01*
X132210000Y-117660000D02*
X132210000Y-115980000D01*
X135480000Y-88710000D02*
X137160000Y-88710000D01*
X135480000Y-120930000D02*
X137160000Y-120930000D01*
X141480000Y-88710000D02*
X143160000Y-88710000D01*
X141480000Y-120930000D02*
X143160000Y-120930000D01*
X147480000Y-88710000D02*
X149160000Y-88710000D01*
X147480000Y-120930000D02*
X149160000Y-120930000D01*
X153480000Y-88710000D02*
X155160000Y-88710000D01*
X153480000Y-120930000D02*
X155160000Y-120930000D01*
X159480000Y-88710000D02*
X161160000Y-88710000D01*
X159480000Y-120930000D02*
X161160000Y-120930000D01*
X164430000Y-93660000D02*
X164430000Y-91980000D01*
X164430000Y-99660000D02*
X164430000Y-97980000D01*
X164430000Y-105660000D02*
X164430000Y-103980000D01*
X164430000Y-111660000D02*
X164430000Y-109980000D01*
X164430000Y-117660000D02*
X164430000Y-115980000D01*
%TO.C,SW2*%
X140900000Y-109272500D02*
X139500000Y-109272500D01*
X140910000Y-106952500D02*
X139500000Y-106952500D01*
X141280000Y-107002500D02*
X141040000Y-106672500D01*
X141520000Y-106672500D01*
X141280000Y-107002500D01*
G36*
X141280000Y-107002500D02*
G01*
X141040000Y-106672500D01*
X141520000Y-106672500D01*
X141280000Y-107002500D01*
G37*
%TO.C,TP3*%
X155900000Y-117525000D02*
G75*
G02*
X154500000Y-117525000I-700000J0D01*
G01*
X154500000Y-117525000D02*
G75*
G02*
X155900000Y-117525000I700000J0D01*
G01*
%TO.C,C7*%
X144840000Y-100703733D02*
X144840000Y-100996267D01*
X145860000Y-100703733D02*
X145860000Y-100996267D01*
%TO.C,D2*%
X142400000Y-112960000D02*
X142400000Y-108950000D01*
X144400000Y-112960000D02*
X142400000Y-112960000D01*
X144400000Y-112960000D02*
X144400000Y-108950000D01*
%TO.C,C15*%
X161690000Y-108608767D02*
X161690000Y-108316233D01*
X162710000Y-108608767D02*
X162710000Y-108316233D01*
%TO.C,R7*%
X136154724Y-105567500D02*
X135645276Y-105567500D01*
X136154724Y-106612500D02*
X135645276Y-106612500D01*
%TO.C,R11*%
X136254724Y-118377500D02*
X135745276Y-118377500D01*
X136254724Y-119422500D02*
X135745276Y-119422500D01*
%TO.C,U2*%
X141840000Y-101600000D02*
X141840000Y-100200000D01*
X144160000Y-101610000D02*
X144160000Y-100200000D01*
X144440000Y-102220000D02*
X144110000Y-101980000D01*
X144440000Y-101740000D01*
X144440000Y-102220000D01*
G36*
X144440000Y-102220000D02*
G01*
X144110000Y-101980000D01*
X144440000Y-101740000D01*
X144440000Y-102220000D01*
G37*
%TO.C,R9*%
X136254724Y-110647500D02*
X135745276Y-110647500D01*
X136254724Y-111692500D02*
X135745276Y-111692500D01*
%TO.C,C13*%
X159790000Y-106916233D02*
X159790000Y-107208767D01*
X160810000Y-106916233D02*
X160810000Y-107208767D01*
%TO.C,X1*%
X149665000Y-101425000D02*
X149665000Y-100675000D01*
X149665000Y-101425000D02*
X150040000Y-101425000D01*
X149740000Y-97350000D02*
X149740000Y-98100000D01*
X153915000Y-101425000D02*
X153640000Y-101425000D01*
X153915000Y-101425000D02*
X153915000Y-100675000D01*
X153940000Y-97250000D02*
X153640000Y-97250000D01*
X153940000Y-97250000D02*
X153940000Y-98000000D01*
%TD*%
M02*
