%TF.GenerationSoftware,KiCad,Pcbnew,10.0.1-10.0.1~ubuntu25.10.1*%
%TF.CreationDate,2026-05-16T02:44:52+00:00*%
%TF.ProjectId,ADSBAFE01,41445342-4146-4453-9031-2e6b69636164,ADSBAFE01*%
%TF.SameCoordinates,Original*%
%TF.FileFunction,Copper,L1,Top*%
%TF.FilePolarity,Positive*%
%FSLAX46Y46*%
G04 Gerber Fmt 4.6, Leading zero omitted, Abs format (unit mm)*
G04 Created by KiCad (PCBNEW 10.0.1-10.0.1~ubuntu25.10.1) date 2026-05-16 02:44:52*
%MOMM*%
%LPD*%
G01*
G04 APERTURE LIST*
%TA.AperFunction,ComponentPad*%
%ADD10C,6.000000*%
%TD*%
%TA.AperFunction,ComponentPad*%
%ADD11R,1.524000X1.524000*%
%TD*%
%TA.AperFunction,ComponentPad*%
%ADD12C,2.500000*%
%TD*%
%TA.AperFunction,ComponentPad*%
%ADD13C,2.700000*%
%TD*%
%TA.AperFunction,ViaPad*%
%ADD14C,0.700000*%
%TD*%
%TA.AperFunction,Conductor*%
%ADD15C,0.300000*%
%TD*%
%TA.AperFunction,Conductor*%
%ADD16C,0.250000*%
%TD*%
G04 APERTURE END LIST*
D10*
%TO.P,M5,1*%
%TO.N,GND*%
X168640000Y-125140000D03*
%TD*%
D11*
%TO.P,J2,1*%
%TO.N,GND*%
X143260000Y-126440000D03*
%TO.P,J2,2*%
X143260000Y-123900000D03*
%TO.P,J2,3*%
%TO.N,+3V3*%
X145800000Y-126440000D03*
%TO.P,J2,4*%
X145800000Y-123900000D03*
%TO.P,J2,5*%
%TO.N,GND*%
X148340000Y-126440000D03*
%TO.P,J2,6*%
X148340000Y-123900000D03*
%TD*%
D10*
%TO.P,M2,1*%
%TO.N,GND*%
X128000000Y-84500000D03*
%TD*%
%TO.P,M4,1*%
%TO.N,GND*%
X128000000Y-125140000D03*
%TD*%
D12*
%TO.P,J3,1,In*%
%TO.N,/RF_IN*%
X158800000Y-94300000D03*
D13*
%TO.P,J3,2,Ext*%
%TO.N,GND*%
X156260000Y-91760000D03*
X156260000Y-96840000D03*
X161340000Y-91760000D03*
X161340000Y-96840000D03*
%TD*%
D11*
%TO.P,J1,1*%
%TO.N,Net-(J1-Pad1)*%
X126730000Y-90850000D03*
%TO.P,J1,2*%
X129270000Y-90850000D03*
%TO.P,J1,3*%
%TO.N,Net-(J1-Pad3)*%
X126730000Y-93390000D03*
%TO.P,J1,4*%
X129270000Y-93390000D03*
%TO.P,J1,5*%
%TO.N,GND*%
X126730000Y-95930000D03*
%TO.P,J1,6*%
X129270000Y-95930000D03*
%TO.P,J1,7*%
%TO.N,Net-(J1-Pad7)*%
X126730000Y-98470000D03*
%TO.P,J1,8*%
X129270000Y-98470000D03*
%TO.P,J1,9*%
%TO.N,Net-(J1-Pad10)*%
X126730000Y-101010000D03*
%TO.P,J1,10*%
X129270000Y-101010000D03*
%TO.P,J1,11*%
%TO.N,GND*%
X126730000Y-103550000D03*
%TO.P,J1,12*%
X129270000Y-103550000D03*
%TO.P,J1,13*%
%TO.N,Net-(J1-Pad13)*%
X126730000Y-106090000D03*
%TO.P,J1,14*%
X129270000Y-106090000D03*
%TO.P,J1,15*%
%TO.N,Net-(J1-Pad15)*%
X126730000Y-108630000D03*
%TO.P,J1,16*%
X129270000Y-108630000D03*
%TO.P,J1,17*%
%TO.N,Net-(J1-Pad17)*%
X126730000Y-111170000D03*
%TO.P,J1,18*%
X129270000Y-111170000D03*
%TO.P,J1,19*%
%TO.N,GND*%
X126730000Y-113710000D03*
%TO.P,J1,20*%
X129270000Y-113710000D03*
%TO.P,J1,21*%
%TO.N,Net-(J1-Pad21)*%
X126730000Y-116250000D03*
%TO.P,J1,22*%
X129270000Y-116250000D03*
%TO.P,J1,23*%
%TO.N,Net-(J1-Pad23)*%
X126730000Y-118790000D03*
%TO.P,J1,24*%
X129270000Y-118790000D03*
%TD*%
D10*
%TO.P,M3,1*%
%TO.N,GND*%
X168640000Y-84500000D03*
%TD*%
D14*
%TO.N,+3V3*%
X133900000Y-117300000D03*
X145800000Y-119400000D03*
X147900000Y-119400000D03*
X139300000Y-104700000D03*
X146500000Y-99950000D03*
X143500000Y-119400000D03*
X161500000Y-102600000D03*
X162200000Y-114200000D03*
X140700000Y-102837500D03*
X144800000Y-108900000D03*
X133900000Y-115700000D03*
X144720000Y-103400000D03*
X156800000Y-114200000D03*
%TO.N,GND*%
X131200000Y-97700000D03*
X148300000Y-121900000D03*
X153400000Y-87700000D03*
X172700000Y-114200000D03*
X151400000Y-87700000D03*
X149400000Y-93100000D03*
X172700000Y-104200000D03*
X161400000Y-104300000D03*
X147700000Y-80800000D03*
X131200000Y-99700000D03*
X156400000Y-101700000D03*
X143900000Y-104000000D03*
X155400000Y-121900000D03*
X153440000Y-91900000D03*
X157700000Y-129200000D03*
X124300000Y-99200000D03*
X152700000Y-129200000D03*
X157700000Y-80800000D03*
X142100000Y-112200000D03*
X154000000Y-108300000D03*
X165400000Y-93700000D03*
X165400000Y-89700000D03*
X129300000Y-129200000D03*
X124300000Y-124200000D03*
X145000000Y-114500000D03*
X157400000Y-121900000D03*
X147620000Y-102300000D03*
X160700000Y-116800000D03*
X172700000Y-80800000D03*
X172700000Y-99200000D03*
X152200000Y-105500000D03*
X145800000Y-114800000D03*
X149400000Y-91100000D03*
X140000000Y-113500000D03*
X149400000Y-90100000D03*
X165400000Y-113900000D03*
X143200000Y-87700000D03*
X172700000Y-124200000D03*
X147700000Y-129200000D03*
X159900000Y-116800000D03*
X139200000Y-121900000D03*
X139300000Y-129200000D03*
X149300000Y-80800000D03*
X163400000Y-87700000D03*
X155600000Y-107600000D03*
X149400000Y-99100000D03*
X162200000Y-106400000D03*
X165400000Y-105900000D03*
X131200000Y-111900000D03*
X141200000Y-121900000D03*
X154000000Y-118600000D03*
X143500000Y-113300000D03*
X149400000Y-95100000D03*
X161400000Y-87700000D03*
X149400000Y-101100000D03*
X149400000Y-100100000D03*
X172700000Y-119200000D03*
X154000000Y-110300000D03*
X131200000Y-121900000D03*
X172700000Y-89200000D03*
X147200000Y-121900000D03*
X152800000Y-106100000D03*
X150600000Y-96500000D03*
X154000000Y-111300000D03*
X124300000Y-105800000D03*
X165400000Y-109900000D03*
X124300000Y-109200000D03*
X159400000Y-87700000D03*
X131200000Y-92100000D03*
X149400000Y-98100000D03*
X152300000Y-92800000D03*
X167700000Y-129200000D03*
X155400000Y-87700000D03*
X131200000Y-89700000D03*
X135200000Y-121900000D03*
X124300000Y-104200000D03*
X141200000Y-87700000D03*
X165400000Y-111900000D03*
X139200000Y-87700000D03*
X161300000Y-115400000D03*
X144300000Y-129200000D03*
X154100000Y-97800000D03*
X149400000Y-121900000D03*
X172700000Y-105800000D03*
X154000000Y-117600000D03*
X124300000Y-84200000D03*
X153140000Y-96500000D03*
X137200000Y-121900000D03*
X131200000Y-113900000D03*
X124300000Y-89200000D03*
X165400000Y-95700000D03*
X150300000Y-113400000D03*
X124300000Y-80800000D03*
X150400000Y-103700000D03*
X154000000Y-113300000D03*
X153400000Y-106700000D03*
X131200000Y-119900000D03*
X139300000Y-80800000D03*
X149400000Y-97100000D03*
X165400000Y-87700000D03*
X149400000Y-94100000D03*
X143200000Y-121900000D03*
X131200000Y-104800000D03*
X124300000Y-114200000D03*
X165400000Y-104800000D03*
X165400000Y-99700000D03*
X153400000Y-121900000D03*
X138100000Y-92200000D03*
X131200000Y-87700000D03*
X147900000Y-114800000D03*
X149300000Y-116100000D03*
X133200000Y-87700000D03*
X144400000Y-116000000D03*
X165400000Y-121900000D03*
X124300000Y-94200000D03*
X154000000Y-115300000D03*
X141100000Y-104800000D03*
X149300000Y-129200000D03*
X165400000Y-119900000D03*
X131200000Y-117600000D03*
X129300000Y-80800000D03*
X131200000Y-95800000D03*
X172700000Y-84200000D03*
X147200000Y-87700000D03*
X151400000Y-121900000D03*
X154100000Y-100825000D03*
X131200000Y-103200000D03*
X154000000Y-107300000D03*
X162700000Y-80800000D03*
X163400000Y-121900000D03*
X172700000Y-94200000D03*
X172700000Y-129200000D03*
X148900000Y-108900000D03*
X150100000Y-102900000D03*
X162700000Y-129200000D03*
X142000000Y-114500000D03*
X131200000Y-115500000D03*
X124300000Y-119200000D03*
X150600000Y-102100000D03*
X165400000Y-117900000D03*
X145200000Y-121900000D03*
X154000000Y-112300000D03*
X135200000Y-87700000D03*
X133200000Y-121900000D03*
X131200000Y-94100000D03*
X148800000Y-103400000D03*
X148300000Y-87700000D03*
X138100000Y-95400000D03*
X165400000Y-101700000D03*
X151600000Y-104900000D03*
X131200000Y-101700000D03*
X149400000Y-87700000D03*
X158900000Y-101600000D03*
X146500000Y-101700000D03*
X157700000Y-105100000D03*
X134300000Y-80800000D03*
X142840000Y-91200000D03*
X165400000Y-103700000D03*
X154000000Y-114300000D03*
X165400000Y-91700000D03*
X152700000Y-80800000D03*
X159400000Y-121900000D03*
X124300000Y-129200000D03*
X156700000Y-105100000D03*
X145200000Y-87700000D03*
X131200000Y-109900000D03*
X144300000Y-80800000D03*
X172700000Y-109200000D03*
X167700000Y-80800000D03*
X157400000Y-87700000D03*
X165400000Y-97700000D03*
X154000000Y-109300000D03*
X153600000Y-116900000D03*
X151000000Y-104300000D03*
X137200000Y-87700000D03*
X165400000Y-115900000D03*
X165400000Y-107900000D03*
X131200000Y-107400000D03*
X149400000Y-92100000D03*
X149400000Y-96100000D03*
X143100000Y-102800000D03*
X141000000Y-113300000D03*
X134300000Y-129200000D03*
X161400000Y-121900000D03*
X149700000Y-102100000D03*
X161400000Y-106200000D03*
%TO.N,/I2C1_SDA*%
X148197500Y-106900000D03*
X138100000Y-114400000D03*
%TO.N,/I2C1_SCL*%
X138100000Y-113200000D03*
X148200000Y-104900000D03*
%TO.N,Net-(J1-Pad23)*%
X133900000Y-118900000D03*
%TO.N,Net-(J1-Pad13)*%
X133900000Y-106100000D03*
%TO.N,Net-(J1-Pad1)*%
X133900000Y-90900000D03*
%TO.N,Net-(J1-Pad3)*%
X133900000Y-93400000D03*
%TO.N,Net-(J1-Pad15)*%
X133900000Y-108600000D03*
%TO.N,Net-(J1-Pad7)*%
X133900000Y-98500000D03*
%TO.N,Net-(J1-Pad21)*%
X133900000Y-114100000D03*
%TO.N,Net-(J1-Pad17)*%
X133900000Y-111200000D03*
%TO.N,Net-(J1-Pad10)*%
X133900000Y-101000000D03*
%TD*%
%TO.N,+3V3*%
D15*
X143587500Y-99950000D02*
X146500000Y-99950000D01*
X141000000Y-119400000D02*
X143500000Y-119400000D01*
X139300000Y-110400000D02*
X137100000Y-112600000D01*
X140741400Y-108958600D02*
X139300000Y-110400000D01*
X139300000Y-104237500D02*
X140700000Y-102837500D01*
X140700000Y-102837500D02*
X142518750Y-101018750D01*
X162200000Y-114200000D02*
X156800000Y-114200000D01*
X138900000Y-117300000D02*
X137144600Y-115544600D01*
X144720000Y-103400000D02*
X142518750Y-101198750D01*
X163400000Y-104500000D02*
X163400000Y-113000000D01*
X137100000Y-112600000D02*
X137100000Y-115500000D01*
X142518750Y-101198750D02*
X142518750Y-101018750D01*
X140800000Y-108900000D02*
X144800000Y-108900000D01*
X161500000Y-102600000D02*
X163400000Y-104500000D01*
X133900000Y-117300000D02*
X133900000Y-115700000D01*
X137144600Y-115544600D02*
X134055400Y-115544600D01*
X137100000Y-115500000D02*
X138900000Y-117300000D01*
X139300000Y-104700000D02*
X140741400Y-106141400D01*
X134055400Y-115544600D02*
X133900000Y-115700000D01*
X140741400Y-106141400D02*
X140741400Y-108958600D01*
X139300000Y-104700000D02*
X139300000Y-104237500D01*
X138900000Y-117300000D02*
X141000000Y-119400000D01*
X142518750Y-101018750D02*
X143587500Y-99950000D01*
X144720000Y-108820000D02*
X144800000Y-108900000D01*
X163400000Y-113000000D02*
X162200000Y-114200000D01*
X139300000Y-110400000D02*
X140800000Y-108900000D01*
%TO.N,/I2C1_SDA*%
D16*
X148197500Y-108702500D02*
X148197500Y-106900000D01*
X146300000Y-110600000D02*
X148197500Y-108702500D01*
X141900000Y-110600000D02*
X146300000Y-110600000D01*
X138100000Y-114400000D02*
X141900000Y-110600000D01*
%TO.N,/I2C1_SCL*%
X138100000Y-113200000D02*
X141500000Y-109800000D01*
X147300000Y-105800000D02*
X148200000Y-104900000D01*
X147300000Y-108500000D02*
X147300000Y-105800000D01*
X141500000Y-109800000D02*
X146000000Y-109800000D01*
X146000000Y-109800000D02*
X147300000Y-108500000D01*
%TO.N,Net-(J1-Pad23)*%
X133790000Y-118790000D02*
X133900000Y-118900000D01*
X129270000Y-118790000D02*
X133790000Y-118790000D01*
X126730000Y-118790000D02*
X129270000Y-118790000D01*
%TO.N,Net-(J1-Pad13)*%
X129280000Y-106100000D02*
X129270000Y-106090000D01*
X126730000Y-106090000D02*
X129270000Y-106090000D01*
X133800000Y-106100000D02*
X129280000Y-106100000D01*
%TO.N,Net-(J1-Pad1)*%
X129320000Y-90900000D02*
X129270000Y-90850000D01*
X126730000Y-90850000D02*
X129270000Y-90850000D01*
X133800000Y-90900000D02*
X129320000Y-90900000D01*
%TO.N,Net-(J1-Pad3)*%
X126730000Y-93390000D02*
X129270000Y-93390000D01*
X129280000Y-93400000D02*
X129270000Y-93390000D01*
X133800000Y-93400000D02*
X129280000Y-93400000D01*
%TO.N,Net-(J1-Pad15)*%
X133800000Y-108600000D02*
X129300000Y-108600000D01*
X126730000Y-108630000D02*
X129270000Y-108630000D01*
X129380000Y-108580000D02*
X129260000Y-108460000D01*
X129300000Y-108600000D02*
X129270000Y-108630000D01*
%TO.N,Net-(J1-Pad7)*%
X129300000Y-98500000D02*
X129270000Y-98470000D01*
X133800000Y-98500000D02*
X129300000Y-98500000D01*
X126730000Y-98470000D02*
X129270000Y-98470000D01*
X129440000Y-98480000D02*
X129260000Y-98300000D01*
%TO.N,Net-(J1-Pad21)*%
X133900000Y-114100000D02*
X131750000Y-116250000D01*
X131750000Y-116250000D02*
X129270000Y-116250000D01*
X129270000Y-116250000D02*
X126730000Y-116250000D01*
%TO.N,Net-(J1-Pad17)*%
X126730000Y-111170000D02*
X129270000Y-111170000D01*
X129270000Y-111170000D02*
X133870000Y-111170000D01*
X133870000Y-111170000D02*
X133900000Y-111200000D01*
%TO.N,Net-(J1-Pad10)*%
X126730000Y-101010000D02*
X129270000Y-101010000D01*
X133800000Y-101000000D02*
X129280000Y-101000000D01*
X129280000Y-101000000D02*
X129270000Y-101010000D01*
%TD*%
%TA.AperFunction,Conductor*%
%TO.N,+3V3*%
G36*
X148017183Y-118718907D02*
G01*
X148028996Y-118728996D01*
X148471004Y-119171004D01*
X148498781Y-119225521D01*
X148500000Y-119241008D01*
X148500000Y-119958992D01*
X148481093Y-120017183D01*
X148471004Y-120028996D01*
X147177666Y-121322333D01*
X147133286Y-121347955D01*
X146987515Y-121387015D01*
X146987511Y-121387017D01*
X146861989Y-121459487D01*
X146759487Y-121561989D01*
X146687017Y-121687510D01*
X146649500Y-121827525D01*
X146649500Y-121972474D01*
X146687017Y-122112489D01*
X146759487Y-122238010D01*
X146759489Y-122238012D01*
X146759491Y-122238015D01*
X146861985Y-122340509D01*
X146950500Y-122391613D01*
X146991441Y-122437081D01*
X147000000Y-122477349D01*
X147000000Y-127101000D01*
X146995155Y-127115911D01*
X146995155Y-127131593D01*
X146985938Y-127144278D01*
X146981093Y-127159191D01*
X146968407Y-127168407D01*
X146959191Y-127181093D01*
X146944278Y-127185938D01*
X146931593Y-127195155D01*
X146901000Y-127200000D01*
X146861000Y-127200000D01*
X146802809Y-127181093D01*
X146766845Y-127131593D01*
X146762000Y-127101000D01*
X146762000Y-126565001D01*
X146761999Y-126565000D01*
X146226687Y-126565000D01*
X146244500Y-126498520D01*
X146244500Y-126381480D01*
X146226687Y-126315000D01*
X146761999Y-126315000D01*
X146762000Y-126314999D01*
X146762000Y-125658302D01*
X146761999Y-125658299D01*
X146750396Y-125599963D01*
X146706193Y-125533810D01*
X146706189Y-125533806D01*
X146640036Y-125489603D01*
X146581700Y-125478000D01*
X145925001Y-125478000D01*
X145925000Y-125478001D01*
X145925000Y-126013313D01*
X145858520Y-125995500D01*
X145741480Y-125995500D01*
X145675000Y-126013313D01*
X145675000Y-125478001D01*
X145674999Y-125478000D01*
X145018299Y-125478000D01*
X144959963Y-125489603D01*
X144893810Y-125533806D01*
X144893806Y-125533810D01*
X144849603Y-125599963D01*
X144838000Y-125658299D01*
X144838000Y-126314999D01*
X144838001Y-126315000D01*
X145373313Y-126315000D01*
X145355500Y-126381480D01*
X145355500Y-126498520D01*
X145373313Y-126565000D01*
X144838001Y-126565000D01*
X144838000Y-126565001D01*
X144838000Y-127101000D01*
X144833155Y-127115911D01*
X144833155Y-127131593D01*
X144823938Y-127144278D01*
X144819093Y-127159191D01*
X144806407Y-127168407D01*
X144797191Y-127181093D01*
X144782278Y-127185938D01*
X144769593Y-127195155D01*
X144739000Y-127200000D01*
X144699000Y-127200000D01*
X144640809Y-127181093D01*
X144604845Y-127131593D01*
X144600000Y-127101000D01*
X144600000Y-123118299D01*
X144838000Y-123118299D01*
X144838000Y-123774999D01*
X144838001Y-123775000D01*
X145373313Y-123775000D01*
X145355500Y-123841480D01*
X145355500Y-123958520D01*
X145373313Y-124025000D01*
X144838001Y-124025000D01*
X144838000Y-124025001D01*
X144838000Y-124681700D01*
X144849603Y-124740036D01*
X144893806Y-124806189D01*
X144893810Y-124806193D01*
X144959963Y-124850396D01*
X145018299Y-124861999D01*
X145018303Y-124862000D01*
X145674999Y-124862000D01*
X145675000Y-124861999D01*
X145675000Y-124326686D01*
X145741480Y-124344500D01*
X145858520Y-124344500D01*
X145925000Y-124326686D01*
X145925000Y-124861999D01*
X145925001Y-124862000D01*
X146581697Y-124862000D01*
X146581700Y-124861999D01*
X146640036Y-124850396D01*
X146706189Y-124806193D01*
X146706193Y-124806189D01*
X146750396Y-124740036D01*
X146761999Y-124681700D01*
X146762000Y-124681697D01*
X146762000Y-124025001D01*
X146761999Y-124025000D01*
X146226687Y-124025000D01*
X146244500Y-123958520D01*
X146244500Y-123841480D01*
X146226687Y-123775000D01*
X146761999Y-123775000D01*
X146762000Y-123774999D01*
X146762000Y-123118302D01*
X146761999Y-123118299D01*
X146750396Y-123059963D01*
X146706193Y-122993810D01*
X146706189Y-122993806D01*
X146640036Y-122949603D01*
X146581700Y-122938000D01*
X145925001Y-122938000D01*
X145925000Y-122938001D01*
X145925000Y-123473313D01*
X145858520Y-123455500D01*
X145741480Y-123455500D01*
X145675000Y-123473313D01*
X145675000Y-122938001D01*
X145674999Y-122938000D01*
X145018299Y-122938000D01*
X144959963Y-122949603D01*
X144893810Y-122993806D01*
X144893806Y-122993810D01*
X144849603Y-123059963D01*
X144838000Y-123118299D01*
X144600000Y-123118299D01*
X144600000Y-122317531D01*
X144618907Y-122259340D01*
X144668407Y-122223376D01*
X144729593Y-122223376D01*
X144769001Y-122247525D01*
X144861985Y-122340509D01*
X144861987Y-122340510D01*
X144861989Y-122340512D01*
X144987511Y-122412982D01*
X144987512Y-122412982D01*
X144987515Y-122412984D01*
X145127525Y-122450500D01*
X145127526Y-122450500D01*
X145272474Y-122450500D01*
X145272475Y-122450500D01*
X145412485Y-122412984D01*
X145412487Y-122412982D01*
X145412489Y-122412982D01*
X145538010Y-122340512D01*
X145538010Y-122340511D01*
X145538015Y-122340509D01*
X145640509Y-122238015D01*
X145712984Y-122112485D01*
X145750500Y-121972475D01*
X145750500Y-121827525D01*
X145712984Y-121687515D01*
X145712982Y-121687512D01*
X145712982Y-121687510D01*
X145640512Y-121561989D01*
X145640510Y-121561987D01*
X145640509Y-121561985D01*
X145538015Y-121459491D01*
X145538012Y-121459489D01*
X145538010Y-121459487D01*
X145412488Y-121387017D01*
X145412489Y-121387017D01*
X145382896Y-121379087D01*
X145272475Y-121349500D01*
X145127525Y-121349500D01*
X145065790Y-121366041D01*
X144987510Y-121387017D01*
X144861989Y-121459487D01*
X144861988Y-121459488D01*
X144861985Y-121459490D01*
X144861985Y-121459491D01*
X144769001Y-121552474D01*
X144714487Y-121580250D01*
X144654055Y-121570679D01*
X144610790Y-121527414D01*
X144608482Y-121517801D01*
X144607536Y-121518194D01*
X144600000Y-121500001D01*
X144600000Y-121500000D01*
X143128996Y-120028996D01*
X143101219Y-119974479D01*
X143100000Y-119958992D01*
X143100000Y-119241008D01*
X143118907Y-119182817D01*
X143128996Y-119171004D01*
X143571004Y-118728996D01*
X143625521Y-118701219D01*
X143641008Y-118700000D01*
X147958992Y-118700000D01*
X148017183Y-118718907D01*
G37*
%TD.AperFunction*%
%TD*%
%TA.AperFunction,Conductor*%
%TO.N,GND*%
G36*
X173261408Y-80159343D02*
G01*
X173274095Y-80163466D01*
X173323595Y-80199427D01*
X173323596Y-80199428D01*
X173326591Y-80203550D01*
X173345500Y-80261740D01*
X173345500Y-129730818D01*
X173340654Y-129761411D01*
X173336532Y-129774097D01*
X173300580Y-129823588D01*
X173296459Y-129826583D01*
X173238271Y-129845499D01*
X123769180Y-129845499D01*
X123738587Y-129840653D01*
X123725901Y-129836531D01*
X123725896Y-129836528D01*
X123725890Y-129836528D01*
X123725888Y-129836527D01*
X123699269Y-129817181D01*
X123676401Y-129800567D01*
X123676394Y-129800557D01*
X123673400Y-129796435D01*
X123654500Y-129738255D01*
X123654500Y-118008245D01*
X125767500Y-118008245D01*
X125767500Y-119571753D01*
X125779130Y-119630220D01*
X125779131Y-119630224D01*
X125779132Y-119630227D01*
X125779134Y-119630233D01*
X125812702Y-119680470D01*
X125823448Y-119696552D01*
X125889769Y-119740867D01*
X125912000Y-119745289D01*
X125934228Y-119749711D01*
X125934231Y-119749711D01*
X125942159Y-119751288D01*
X125944324Y-119751861D01*
X125946514Y-119752217D01*
X125948081Y-119752500D01*
X125948252Y-119752500D01*
X125948253Y-119752500D01*
X127511747Y-119752500D01*
X127511748Y-119752500D01*
X127570231Y-119740867D01*
X127636552Y-119696552D01*
X127680867Y-119630231D01*
X127692500Y-119571748D01*
X127692500Y-119230180D01*
X127697343Y-119199594D01*
X127701465Y-119186905D01*
X127737423Y-119137406D01*
X127738022Y-119136971D01*
X127741563Y-119134400D01*
X127799743Y-119115500D01*
X128192820Y-119115500D01*
X128223408Y-119120343D01*
X128236097Y-119124466D01*
X128253891Y-119137394D01*
X128276902Y-119154112D01*
X128285596Y-119160428D01*
X128288591Y-119164550D01*
X128307500Y-119222740D01*
X128307500Y-119571753D01*
X128319130Y-119630220D01*
X128319131Y-119630224D01*
X128319132Y-119630227D01*
X128319134Y-119630233D01*
X128352702Y-119680470D01*
X128363448Y-119696552D01*
X128429769Y-119740867D01*
X128452000Y-119745289D01*
X128474228Y-119749711D01*
X128474231Y-119749711D01*
X128482159Y-119751288D01*
X128484324Y-119751861D01*
X128486514Y-119752217D01*
X128488081Y-119752500D01*
X128488252Y-119752500D01*
X128488253Y-119752500D01*
X130051747Y-119752500D01*
X130051748Y-119752500D01*
X130110231Y-119740867D01*
X130176552Y-119696552D01*
X130220867Y-119630231D01*
X130232500Y-119571748D01*
X130232500Y-119230180D01*
X130237343Y-119199594D01*
X130241465Y-119186905D01*
X130277423Y-119137406D01*
X130278022Y-119136971D01*
X130281563Y-119134400D01*
X130339743Y-119115500D01*
X133315919Y-119115500D01*
X133346511Y-119120345D01*
X133364559Y-119126209D01*
X133407531Y-119154112D01*
X133410367Y-119157261D01*
X133422536Y-119174008D01*
X133459491Y-119238015D01*
X133561985Y-119340509D01*
X133561987Y-119340510D01*
X133561989Y-119340512D01*
X133562536Y-119340907D01*
X133564538Y-119341984D01*
X133687511Y-119412982D01*
X133687512Y-119412982D01*
X133687515Y-119412984D01*
X133827525Y-119450500D01*
X133827526Y-119450500D01*
X133972474Y-119450500D01*
X133972475Y-119450500D01*
X134112485Y-119412984D01*
X134112486Y-119412983D01*
X134112488Y-119412982D01*
X134112489Y-119412982D01*
X134231880Y-119344051D01*
X134234768Y-119342648D01*
X134235554Y-119342131D01*
X134240563Y-119339037D01*
X134241862Y-119338286D01*
X134247220Y-119331303D01*
X134340509Y-119238015D01*
X134340512Y-119238010D01*
X134412982Y-119112489D01*
X134412982Y-119112487D01*
X134412984Y-119112485D01*
X134450500Y-118972475D01*
X134450500Y-118827525D01*
X134412984Y-118687515D01*
X134412982Y-118687512D01*
X134412982Y-118687510D01*
X134412977Y-118687502D01*
X134412656Y-118686792D01*
X134411397Y-118684764D01*
X134341985Y-118564539D01*
X134341985Y-118564540D01*
X134340512Y-118561989D01*
X134340510Y-118561987D01*
X134340509Y-118561985D01*
X134238015Y-118459491D01*
X134238012Y-118459489D01*
X134238010Y-118459487D01*
X134238009Y-118459486D01*
X134169775Y-118420091D01*
X134148741Y-118396730D01*
X134032187Y-118365500D01*
X134001420Y-118357256D01*
X133972475Y-118349500D01*
X133972474Y-118349500D01*
X133827526Y-118349500D01*
X133827525Y-118349500D01*
X133798580Y-118357256D01*
X133767813Y-118365500D01*
X133687505Y-118387018D01*
X133587566Y-118444719D01*
X133563694Y-118454608D01*
X133539377Y-118461125D01*
X133513749Y-118464500D01*
X130347180Y-118464500D01*
X130316587Y-118459654D01*
X130303901Y-118455532D01*
X130254401Y-118419568D01*
X130254394Y-118419558D01*
X130251400Y-118415436D01*
X130232500Y-118357256D01*
X130232500Y-118008251D01*
X130232499Y-118008250D01*
X130232498Y-118008241D01*
X130229712Y-117994236D01*
X130229712Y-117994232D01*
X130224642Y-117968752D01*
X130220867Y-117949769D01*
X130176552Y-117883448D01*
X130176543Y-117883442D01*
X130132851Y-117854247D01*
X130132849Y-117854246D01*
X130127243Y-117850500D01*
X130110233Y-117839134D01*
X130110231Y-117839133D01*
X130110228Y-117839132D01*
X130110227Y-117839132D01*
X130095963Y-117836294D01*
X130095962Y-117836294D01*
X130051768Y-117827503D01*
X130051758Y-117827501D01*
X130051753Y-117827500D01*
X130051750Y-117827500D01*
X130051748Y-117827500D01*
X128488252Y-117827500D01*
X128488251Y-117827500D01*
X128488245Y-117827500D01*
X128429778Y-117839130D01*
X128429763Y-117839135D01*
X128363454Y-117883442D01*
X128363442Y-117883454D01*
X128319135Y-117949763D01*
X128319130Y-117949778D01*
X128307500Y-118008245D01*
X128307500Y-118349819D01*
X128302654Y-118380412D01*
X128298532Y-118393098D01*
X128262580Y-118442589D01*
X128258459Y-118445584D01*
X128200271Y-118464500D01*
X127807180Y-118464500D01*
X127776587Y-118459654D01*
X127763901Y-118455532D01*
X127763896Y-118455529D01*
X127763890Y-118455529D01*
X127763888Y-118455528D01*
X127737269Y-118436182D01*
X127714401Y-118419568D01*
X127714394Y-118419558D01*
X127711400Y-118415436D01*
X127709468Y-118409488D01*
X127692500Y-118357256D01*
X127692500Y-118008251D01*
X127692499Y-118008250D01*
X127692498Y-118008241D01*
X127689712Y-117994236D01*
X127689712Y-117994232D01*
X127684642Y-117968752D01*
X127680867Y-117949769D01*
X127636552Y-117883448D01*
X127636543Y-117883442D01*
X127592851Y-117854247D01*
X127592849Y-117854246D01*
X127587243Y-117850500D01*
X127570233Y-117839134D01*
X127570231Y-117839133D01*
X127570228Y-117839132D01*
X127570227Y-117839132D01*
X127555963Y-117836294D01*
X127555962Y-117836294D01*
X127511768Y-117827503D01*
X127511758Y-117827501D01*
X127511753Y-117827500D01*
X127511750Y-117827500D01*
X127511748Y-117827500D01*
X125948252Y-117827500D01*
X125948251Y-117827500D01*
X125948245Y-117827500D01*
X125889778Y-117839130D01*
X125889763Y-117839135D01*
X125823454Y-117883442D01*
X125823442Y-117883454D01*
X125779135Y-117949763D01*
X125779130Y-117949778D01*
X125767500Y-118008245D01*
X123654500Y-118008245D01*
X123654500Y-115468245D01*
X125767500Y-115468245D01*
X125767500Y-117031751D01*
X125767502Y-117031765D01*
X125778590Y-117087498D01*
X125778591Y-117087508D01*
X125778592Y-117087508D01*
X125778592Y-117087510D01*
X125778593Y-117087515D01*
X125779133Y-117090231D01*
X125779133Y-117090232D01*
X125779134Y-117090233D01*
X125823448Y-117156552D01*
X125889769Y-117200867D01*
X125912000Y-117205289D01*
X125934228Y-117209711D01*
X125934231Y-117209711D01*
X125942159Y-117211288D01*
X125944324Y-117211861D01*
X125946514Y-117212217D01*
X125948081Y-117212500D01*
X125948252Y-117212500D01*
X125948253Y-117212500D01*
X127511747Y-117212500D01*
X127511748Y-117212500D01*
X127570231Y-117200867D01*
X127636552Y-117156552D01*
X127680867Y-117090231D01*
X127692500Y-117031748D01*
X127692500Y-116690180D01*
X127697343Y-116659594D01*
X127701465Y-116646905D01*
X127737423Y-116597406D01*
X127738022Y-116596971D01*
X127741563Y-116594400D01*
X127799743Y-116575500D01*
X128192820Y-116575500D01*
X128223408Y-116580343D01*
X128236097Y-116584466D01*
X128285596Y-116620428D01*
X128288591Y-116624550D01*
X128307500Y-116682740D01*
X128307500Y-117031751D01*
X128307502Y-117031765D01*
X128318590Y-117087498D01*
X128318591Y-117087508D01*
X128318592Y-117087508D01*
X128318592Y-117087510D01*
X128318593Y-117087515D01*
X128319133Y-117090231D01*
X128319133Y-117090232D01*
X128319134Y-117090233D01*
X128363448Y-117156552D01*
X128429769Y-117200867D01*
X128452000Y-117205289D01*
X128474228Y-117209711D01*
X128474231Y-117209711D01*
X128482159Y-117211288D01*
X128484324Y-117211861D01*
X128486514Y-117212217D01*
X128488081Y-117212500D01*
X128488252Y-117212500D01*
X128488253Y-117212500D01*
X130051747Y-117212500D01*
X130051748Y-117212500D01*
X130110231Y-117200867D01*
X130176552Y-117156552D01*
X130220867Y-117090231D01*
X130232500Y-117031748D01*
X130232500Y-116690180D01*
X130237343Y-116659594D01*
X130241465Y-116646905D01*
X130277423Y-116597406D01*
X130278022Y-116596971D01*
X130281563Y-116594400D01*
X130339743Y-116575500D01*
X131792851Y-116575500D01*
X131792853Y-116575500D01*
X131875639Y-116553318D01*
X131875641Y-116553316D01*
X131875643Y-116553316D01*
X131943733Y-116514003D01*
X131946610Y-116512607D01*
X131947394Y-116512091D01*
X131952411Y-116508992D01*
X131953708Y-116508242D01*
X131959063Y-116501263D01*
X132832800Y-115627525D01*
X133349500Y-115627525D01*
X133349500Y-115772474D01*
X133367704Y-115840412D01*
X133387018Y-115912493D01*
X133459486Y-116038010D01*
X133509418Y-116087943D01*
X133527623Y-116113000D01*
X133538709Y-116134757D01*
X133549500Y-116179703D01*
X133549500Y-116815287D01*
X133544654Y-116845881D01*
X133537107Y-116869107D01*
X133512958Y-116908515D01*
X133459496Y-116961978D01*
X133459488Y-116961987D01*
X133387018Y-117087507D01*
X133387018Y-117087508D01*
X133387017Y-117087510D01*
X133349500Y-117227525D01*
X133349500Y-117372474D01*
X133382585Y-117495949D01*
X133387018Y-117512493D01*
X133459485Y-117638008D01*
X133459487Y-117638010D01*
X133459489Y-117638012D01*
X133459491Y-117638015D01*
X133561985Y-117740509D01*
X133561987Y-117740510D01*
X133561989Y-117740512D01*
X133562536Y-117740907D01*
X133564538Y-117741984D01*
X133687511Y-117812982D01*
X133687512Y-117812982D01*
X133687515Y-117812984D01*
X133827525Y-117850500D01*
X133827526Y-117850500D01*
X133972474Y-117850500D01*
X133972475Y-117850500D01*
X134112485Y-117812984D01*
X134112486Y-117812983D01*
X134112488Y-117812982D01*
X134112489Y-117812982D01*
X134231880Y-117744051D01*
X134234768Y-117742648D01*
X134235554Y-117742131D01*
X134240563Y-117739037D01*
X134241862Y-117738286D01*
X134247220Y-117731303D01*
X134340509Y-117638015D01*
X134411410Y-117515212D01*
X134412982Y-117512489D01*
X134412982Y-117512487D01*
X134412984Y-117512485D01*
X134450500Y-117372475D01*
X134450500Y-117227525D01*
X134412984Y-117087515D01*
X134412982Y-117087512D01*
X134412982Y-117087510D01*
X134412981Y-117087508D01*
X134412658Y-117086796D01*
X134411396Y-117084763D01*
X134340514Y-116961992D01*
X134340511Y-116961988D01*
X134340510Y-116961987D01*
X134340508Y-116961984D01*
X134290583Y-116912058D01*
X134272378Y-116887000D01*
X134261288Y-116865236D01*
X134250500Y-116820294D01*
X134250500Y-116184711D01*
X134255345Y-116154120D01*
X134262892Y-116130891D01*
X134287043Y-116091479D01*
X134340509Y-116038015D01*
X134340512Y-116038010D01*
X134386606Y-115958173D01*
X134406085Y-115934116D01*
X134420201Y-115921406D01*
X134465877Y-115898139D01*
X134470026Y-115897257D01*
X134475800Y-115896651D01*
X134476090Y-115896523D01*
X134476400Y-115896588D01*
X134490586Y-115895100D01*
X136942730Y-115895100D01*
X136973321Y-115899945D01*
X136981459Y-115902589D01*
X136996547Y-115907491D01*
X137035960Y-115931642D01*
X138619530Y-117515212D01*
X140784787Y-119680469D01*
X140854088Y-119720480D01*
X140864712Y-119726614D01*
X140953856Y-119750500D01*
X142795500Y-119750500D01*
X142853691Y-119769407D01*
X142889655Y-119818907D01*
X142894500Y-119849500D01*
X142894500Y-119958992D01*
X142894943Y-119970279D01*
X142895134Y-119975123D01*
X142896353Y-119990602D01*
X142896354Y-119990607D01*
X142918115Y-120067769D01*
X142918117Y-120067775D01*
X142945894Y-120122291D01*
X142983681Y-120174300D01*
X142983683Y-120174302D01*
X142983686Y-120174306D01*
X144277022Y-121467642D01*
X144422017Y-121612637D01*
X144431713Y-121623914D01*
X144435527Y-121629091D01*
X144440062Y-121637285D01*
X144444446Y-121641195D01*
X144450563Y-121649496D01*
X144451205Y-121651429D01*
X144454687Y-121655548D01*
X144465480Y-121672724D01*
X144508745Y-121715989D01*
X144537027Y-121739601D01*
X144621909Y-121773649D01*
X144621914Y-121773649D01*
X144621915Y-121773650D01*
X144658328Y-121779417D01*
X144682341Y-121783220D01*
X144719097Y-121785698D01*
X144793982Y-121766829D01*
X144807778Y-121763353D01*
X144807778Y-121763352D01*
X144807781Y-121763352D01*
X144862295Y-121735576D01*
X144914311Y-121697785D01*
X144978955Y-121633140D01*
X144999453Y-121617413D01*
X145055548Y-121585025D01*
X145079418Y-121575138D01*
X145118980Y-121564538D01*
X145118979Y-121564537D01*
X145141988Y-121558373D01*
X145167610Y-121555000D01*
X145232384Y-121555000D01*
X145258006Y-121558373D01*
X145304978Y-121570958D01*
X145320573Y-121575137D01*
X145320581Y-121575139D01*
X145344454Y-121585027D01*
X145400547Y-121617413D01*
X145421041Y-121633138D01*
X145466862Y-121678959D01*
X145482583Y-121699448D01*
X145514972Y-121755548D01*
X145524858Y-121779415D01*
X145525877Y-121783218D01*
X145541626Y-121841988D01*
X145545000Y-121867613D01*
X145545000Y-121932385D01*
X145541626Y-121958009D01*
X145524861Y-122020574D01*
X145514971Y-122044450D01*
X145482583Y-122100547D01*
X145466851Y-122121051D01*
X145421049Y-122166853D01*
X145400546Y-122182585D01*
X145377592Y-122195838D01*
X145346745Y-122213648D01*
X145344455Y-122214970D01*
X145320578Y-122224860D01*
X145258010Y-122241626D01*
X145232386Y-122245000D01*
X145167617Y-122245000D01*
X145141993Y-122241626D01*
X145079421Y-122224859D01*
X145055547Y-122214970D01*
X144999450Y-122182583D01*
X144978951Y-122166853D01*
X144914310Y-122102213D01*
X144902732Y-122093086D01*
X144876374Y-122072307D01*
X144836966Y-122048158D01*
X144836961Y-122048155D01*
X144818754Y-122038226D01*
X144729593Y-122017876D01*
X144668407Y-122017876D01*
X144668389Y-122017876D01*
X144631717Y-122021178D01*
X144631715Y-122021178D01*
X144631713Y-122021179D01*
X144591827Y-122038227D01*
X144547614Y-122057124D01*
X144498118Y-122093086D01*
X144470372Y-122117328D01*
X144423464Y-122195838D01*
X144423462Y-122195841D01*
X144404556Y-122254030D01*
X144394500Y-122317527D01*
X144394500Y-123009134D01*
X144375593Y-123067325D01*
X144326093Y-123103289D01*
X144264907Y-123103289D01*
X144215407Y-123067325D01*
X144213185Y-123064137D01*
X144176432Y-123009134D01*
X144166193Y-122993810D01*
X144166189Y-122993806D01*
X144100036Y-122949603D01*
X144100033Y-122949602D01*
X144041704Y-122938000D01*
X144041700Y-122938000D01*
X143385001Y-122938000D01*
X143385000Y-122938001D01*
X143385000Y-122938002D01*
X143385000Y-123356500D01*
X143380155Y-123371411D01*
X143380155Y-123387093D01*
X143370938Y-123399778D01*
X143366093Y-123414691D01*
X143353407Y-123423907D01*
X143344191Y-123436593D01*
X143329278Y-123441438D01*
X143316593Y-123450655D01*
X143286000Y-123455500D01*
X143234000Y-123455500D01*
X143175809Y-123436593D01*
X143139845Y-123387093D01*
X143135000Y-123356500D01*
X143135000Y-122938002D01*
X143135000Y-122938001D01*
X143134999Y-122938000D01*
X143134998Y-122938000D01*
X142478294Y-122938000D01*
X142419965Y-122949602D01*
X142419962Y-122949603D01*
X142353813Y-122993803D01*
X142353803Y-122993813D01*
X142309603Y-123059962D01*
X142309602Y-123059965D01*
X142298000Y-123118294D01*
X142298000Y-123118299D01*
X142298000Y-123774999D01*
X142298001Y-123775000D01*
X142716500Y-123775000D01*
X142731412Y-123779845D01*
X142747093Y-123779845D01*
X142759778Y-123789061D01*
X142774691Y-123793907D01*
X142783907Y-123806592D01*
X142796593Y-123815809D01*
X142801438Y-123830721D01*
X142810655Y-123843407D01*
X142815500Y-123874000D01*
X142815500Y-123926000D01*
X142796593Y-123984191D01*
X142747093Y-124020155D01*
X142716500Y-124025000D01*
X142298001Y-124025000D01*
X142298000Y-124025001D01*
X142298000Y-124025002D01*
X142298000Y-124681704D01*
X142309602Y-124740033D01*
X142309603Y-124740036D01*
X142343566Y-124790865D01*
X142353806Y-124806189D01*
X142353810Y-124806193D01*
X142419963Y-124850396D01*
X142475958Y-124861533D01*
X142477711Y-124861926D01*
X142478297Y-124861998D01*
X142478299Y-124861999D01*
X142478303Y-124862000D01*
X143134998Y-124862000D01*
X143134999Y-124862000D01*
X143135000Y-124861999D01*
X143135000Y-124443500D01*
X143139845Y-124428588D01*
X143139845Y-124412907D01*
X143149061Y-124400221D01*
X143153907Y-124385309D01*
X143166592Y-124376092D01*
X143175809Y-124363407D01*
X143190721Y-124358561D01*
X143203407Y-124349345D01*
X143234000Y-124344500D01*
X143286000Y-124344500D01*
X143344191Y-124363407D01*
X143380155Y-124412907D01*
X143385000Y-124443500D01*
X143385000Y-124861999D01*
X143385001Y-124862000D01*
X143385002Y-124862000D01*
X144041697Y-124862000D01*
X144041699Y-124862000D01*
X144045617Y-124861363D01*
X144047792Y-124860787D01*
X144079271Y-124854526D01*
X144100032Y-124850397D01*
X144100032Y-124850396D01*
X144100036Y-124850396D01*
X144166189Y-124806193D01*
X144166193Y-124806189D01*
X144210396Y-124740036D01*
X144210396Y-124740035D01*
X144213185Y-124735862D01*
X144261235Y-124697983D01*
X144322373Y-124695581D01*
X144373247Y-124729574D01*
X144394424Y-124786978D01*
X144394500Y-124790864D01*
X144394500Y-125549134D01*
X144375593Y-125607325D01*
X144326093Y-125643289D01*
X144264907Y-125643289D01*
X144215407Y-125607325D01*
X144213185Y-125604137D01*
X144176432Y-125549134D01*
X144166193Y-125533810D01*
X144166189Y-125533806D01*
X144100036Y-125489603D01*
X144100033Y-125489602D01*
X144041704Y-125478000D01*
X144041700Y-125478000D01*
X143385001Y-125478000D01*
X143385000Y-125478001D01*
X143385000Y-125478002D01*
X143385000Y-125896500D01*
X143380155Y-125911411D01*
X143380155Y-125927093D01*
X143370938Y-125939778D01*
X143366093Y-125954691D01*
X143353407Y-125963907D01*
X143344191Y-125976593D01*
X143329278Y-125981438D01*
X143316593Y-125990655D01*
X143286000Y-125995500D01*
X143234000Y-125995500D01*
X143175809Y-125976593D01*
X143139845Y-125927093D01*
X143135000Y-125896500D01*
X143135000Y-125478002D01*
X143135000Y-125478001D01*
X143134999Y-125478000D01*
X143134998Y-125478000D01*
X142478294Y-125478000D01*
X142419965Y-125489602D01*
X142419962Y-125489603D01*
X142353813Y-125533803D01*
X142353803Y-125533813D01*
X142309603Y-125599962D01*
X142309602Y-125599965D01*
X142298000Y-125658294D01*
X142298000Y-125658299D01*
X142298000Y-126314999D01*
X142298001Y-126315000D01*
X142716500Y-126315000D01*
X142731412Y-126319845D01*
X142747093Y-126319845D01*
X142759778Y-126329061D01*
X142774691Y-126333907D01*
X142783907Y-126346592D01*
X142796593Y-126355809D01*
X142801438Y-126370721D01*
X142810655Y-126383407D01*
X142815500Y-126414000D01*
X142815500Y-126466000D01*
X142796593Y-126524191D01*
X142747093Y-126560155D01*
X142716500Y-126565000D01*
X142298001Y-126565000D01*
X142298000Y-126565001D01*
X142298000Y-126565002D01*
X142298000Y-127221704D01*
X142309602Y-127280033D01*
X142309603Y-127280036D01*
X142339947Y-127325449D01*
X142353806Y-127346189D01*
X142353810Y-127346193D01*
X142419963Y-127390396D01*
X142475958Y-127401533D01*
X142477711Y-127401926D01*
X142478297Y-127401998D01*
X142478299Y-127401999D01*
X142478303Y-127402000D01*
X143134998Y-127402000D01*
X143134999Y-127402000D01*
X143135000Y-127401999D01*
X143135000Y-126983500D01*
X143139845Y-126968588D01*
X143139845Y-126952907D01*
X143149061Y-126940221D01*
X143153907Y-126925309D01*
X143166592Y-126916092D01*
X143175809Y-126903407D01*
X143190721Y-126898561D01*
X143203407Y-126889345D01*
X143234000Y-126884500D01*
X143286000Y-126884500D01*
X143344191Y-126903407D01*
X143380155Y-126952907D01*
X143385000Y-126983500D01*
X143385000Y-127401999D01*
X143385001Y-127402000D01*
X143385002Y-127402000D01*
X144041697Y-127402000D01*
X144041699Y-127402000D01*
X144045617Y-127401363D01*
X144047792Y-127400787D01*
X144079271Y-127394526D01*
X144100032Y-127390397D01*
X144100032Y-127390396D01*
X144100036Y-127390396D01*
X144166189Y-127346193D01*
X144166193Y-127346189D01*
X144210396Y-127280036D01*
X144221999Y-127221700D01*
X144222000Y-127221697D01*
X144222000Y-127220623D01*
X144223458Y-127212225D01*
X144233958Y-127192347D01*
X144240907Y-127170963D01*
X144247964Y-127165835D01*
X144252038Y-127158125D01*
X144272214Y-127148216D01*
X144290407Y-127134999D01*
X144299130Y-127134999D01*
X144306958Y-127131155D01*
X144329108Y-127134999D01*
X144351593Y-127134999D01*
X144358649Y-127140125D01*
X144367242Y-127141617D01*
X144382902Y-127157746D01*
X144401093Y-127170963D01*
X144408627Y-127184242D01*
X144409864Y-127185516D01*
X144410037Y-127186728D01*
X144412033Y-127190245D01*
X144438591Y-127252382D01*
X144438592Y-127252383D01*
X144474556Y-127301883D01*
X144498797Y-127329628D01*
X144577307Y-127376536D01*
X144635498Y-127395443D01*
X144647539Y-127397350D01*
X144698996Y-127405500D01*
X144699000Y-127405500D01*
X144738993Y-127405500D01*
X144739000Y-127405500D01*
X144771144Y-127402970D01*
X144801737Y-127398125D01*
X144806295Y-127397351D01*
X144832836Y-127386005D01*
X144840437Y-127383119D01*
X144845762Y-127381343D01*
X144845775Y-127381382D01*
X144860688Y-127376537D01*
X144862477Y-127375772D01*
X144866321Y-127374491D01*
X144892543Y-127374292D01*
X144918634Y-127371665D01*
X144924256Y-127374051D01*
X144927505Y-127374027D01*
X144932337Y-127377482D01*
X144952629Y-127386096D01*
X144959769Y-127390867D01*
X144982000Y-127395289D01*
X145004228Y-127399711D01*
X145004231Y-127399711D01*
X145012159Y-127401288D01*
X145014324Y-127401861D01*
X145016514Y-127402217D01*
X145018081Y-127402500D01*
X145018252Y-127402500D01*
X145018253Y-127402500D01*
X146581747Y-127402500D01*
X146581748Y-127402500D01*
X146640231Y-127390867D01*
X146647294Y-127386146D01*
X146706178Y-127369536D01*
X146733620Y-127376043D01*
X146734019Y-127374818D01*
X146745193Y-127378448D01*
X146797498Y-127395443D01*
X146809539Y-127397350D01*
X146860996Y-127405500D01*
X146861000Y-127405500D01*
X146900993Y-127405500D01*
X146901000Y-127405500D01*
X146933144Y-127402970D01*
X146963737Y-127398125D01*
X146968295Y-127397351D01*
X147007516Y-127380585D01*
X147007775Y-127381382D01*
X147022688Y-127376537D01*
X147056580Y-127362051D01*
X147086611Y-127335809D01*
X147089057Y-127334484D01*
X147089189Y-127334666D01*
X147101875Y-127325450D01*
X147129632Y-127301200D01*
X147151508Y-127264582D01*
X147152186Y-127265075D01*
X147161403Y-127252390D01*
X147180304Y-127220756D01*
X147185779Y-127196766D01*
X147191675Y-127185459D01*
X147204851Y-127172526D01*
X147214321Y-127156677D01*
X147226156Y-127151617D01*
X147235343Y-127142602D01*
X147253605Y-127139884D01*
X147270582Y-127132628D01*
X147283129Y-127135491D01*
X147295862Y-127133597D01*
X147312233Y-127142133D01*
X147330234Y-127146241D01*
X147338703Y-127155934D01*
X147350116Y-127161885D01*
X147358343Y-127178413D01*
X147370491Y-127192317D01*
X147376048Y-127213982D01*
X147377381Y-127216660D01*
X147377205Y-127217705D01*
X147377903Y-127221215D01*
X147377982Y-127221522D01*
X147377999Y-127221697D01*
X147389602Y-127280033D01*
X147389603Y-127280036D01*
X147419947Y-127325449D01*
X147433806Y-127346189D01*
X147433810Y-127346193D01*
X147499963Y-127390396D01*
X147555958Y-127401533D01*
X147557711Y-127401926D01*
X147558297Y-127401998D01*
X147558299Y-127401999D01*
X147558303Y-127402000D01*
X148214998Y-127402000D01*
X148214999Y-127402000D01*
X148215000Y-127401999D01*
X148215000Y-126983500D01*
X148219845Y-126968588D01*
X148219845Y-126952907D01*
X148229061Y-126940221D01*
X148233907Y-126925309D01*
X148246592Y-126916092D01*
X148255809Y-126903407D01*
X148270721Y-126898561D01*
X148283407Y-126889345D01*
X148314000Y-126884500D01*
X148366000Y-126884500D01*
X148424191Y-126903407D01*
X148460155Y-126952907D01*
X148465000Y-126983500D01*
X148465000Y-127401999D01*
X148465001Y-127402000D01*
X148465002Y-127402000D01*
X149121697Y-127402000D01*
X149121699Y-127402000D01*
X149125617Y-127401363D01*
X149127792Y-127400787D01*
X149159271Y-127394526D01*
X149180032Y-127390397D01*
X149180032Y-127390396D01*
X149180036Y-127390396D01*
X149246189Y-127346193D01*
X149246193Y-127346189D01*
X149290396Y-127280036D01*
X149300787Y-127227792D01*
X149301363Y-127225617D01*
X149302000Y-127221698D01*
X149302000Y-126565002D01*
X149302000Y-126565001D01*
X149301999Y-126565000D01*
X149301998Y-126565000D01*
X148883500Y-126565000D01*
X148868588Y-126560155D01*
X148852907Y-126560155D01*
X148840221Y-126550938D01*
X148825309Y-126546093D01*
X148816092Y-126533407D01*
X148803407Y-126524191D01*
X148798561Y-126509278D01*
X148789345Y-126496593D01*
X148784500Y-126466000D01*
X148784500Y-126414000D01*
X148803407Y-126355809D01*
X148852907Y-126319845D01*
X148883500Y-126315000D01*
X149301998Y-126315000D01*
X149301999Y-126315000D01*
X149302000Y-126314999D01*
X149302000Y-125658302D01*
X149302000Y-125658300D01*
X149301364Y-125654383D01*
X149300786Y-125652202D01*
X149290396Y-125599963D01*
X149246193Y-125533810D01*
X149246189Y-125533806D01*
X149180036Y-125489603D01*
X149180033Y-125489602D01*
X149121704Y-125478000D01*
X149121700Y-125478000D01*
X148465001Y-125478000D01*
X148465000Y-125478001D01*
X148465000Y-125478002D01*
X148465000Y-125896500D01*
X148460155Y-125911411D01*
X148460155Y-125927093D01*
X148450938Y-125939778D01*
X148446093Y-125954691D01*
X148433407Y-125963907D01*
X148424191Y-125976593D01*
X148409278Y-125981438D01*
X148396593Y-125990655D01*
X148366000Y-125995500D01*
X148314000Y-125995500D01*
X148255809Y-125976593D01*
X148219845Y-125927093D01*
X148215000Y-125896500D01*
X148215000Y-125478002D01*
X148215000Y-125478001D01*
X148214999Y-125478000D01*
X148214998Y-125478000D01*
X147558294Y-125478000D01*
X147499965Y-125489602D01*
X147499962Y-125489603D01*
X147433813Y-125533803D01*
X147433803Y-125533813D01*
X147386815Y-125604135D01*
X147338765Y-125642014D01*
X147277626Y-125644416D01*
X147226753Y-125610422D01*
X147205576Y-125553019D01*
X147205500Y-125549133D01*
X147205500Y-124790865D01*
X147224407Y-124732674D01*
X147273907Y-124696710D01*
X147335093Y-124696710D01*
X147384593Y-124732674D01*
X147386815Y-124735863D01*
X147423566Y-124790865D01*
X147433806Y-124806189D01*
X147433810Y-124806193D01*
X147499963Y-124850396D01*
X147555958Y-124861533D01*
X147557711Y-124861926D01*
X147558297Y-124861998D01*
X147558299Y-124861999D01*
X147558303Y-124862000D01*
X148214998Y-124862000D01*
X148214999Y-124862000D01*
X148215000Y-124861999D01*
X148215000Y-124443500D01*
X148219845Y-124428588D01*
X148219845Y-124412907D01*
X148229061Y-124400221D01*
X148233907Y-124385309D01*
X148246592Y-124376092D01*
X148255809Y-124363407D01*
X148270721Y-124358561D01*
X148283407Y-124349345D01*
X148314000Y-124344500D01*
X148366000Y-124344500D01*
X148424191Y-124363407D01*
X148460155Y-124412907D01*
X148465000Y-124443500D01*
X148465000Y-124861999D01*
X148465001Y-124862000D01*
X148465002Y-124862000D01*
X149121697Y-124862000D01*
X149121699Y-124862000D01*
X149125617Y-124861363D01*
X149127792Y-124860787D01*
X149159271Y-124854526D01*
X149180032Y-124850397D01*
X149180032Y-124850396D01*
X149180036Y-124850396D01*
X149246189Y-124806193D01*
X149246193Y-124806189D01*
X149290396Y-124740036D01*
X149300787Y-124687792D01*
X149301363Y-124685617D01*
X149302000Y-124681698D01*
X149302000Y-124025002D01*
X149302000Y-124025001D01*
X149301999Y-124025000D01*
X149301998Y-124025000D01*
X148883500Y-124025000D01*
X148868588Y-124020155D01*
X148852907Y-124020155D01*
X148840221Y-124010938D01*
X148825309Y-124006093D01*
X148816092Y-123993407D01*
X148803407Y-123984191D01*
X148798561Y-123969278D01*
X148789345Y-123956593D01*
X148784500Y-123926000D01*
X148784500Y-123874000D01*
X148803407Y-123815809D01*
X148852907Y-123779845D01*
X148883500Y-123775000D01*
X149301998Y-123775000D01*
X149301999Y-123775000D01*
X149302000Y-123774999D01*
X149302000Y-123118302D01*
X149302000Y-123118300D01*
X149301364Y-123114383D01*
X149300786Y-123112202D01*
X149290396Y-123059963D01*
X149246193Y-122993810D01*
X149246189Y-122993806D01*
X149180036Y-122949603D01*
X149180033Y-122949602D01*
X149121704Y-122938000D01*
X149121700Y-122938000D01*
X148465001Y-122938000D01*
X148465000Y-122938001D01*
X148465000Y-122938002D01*
X148465000Y-123356500D01*
X148460155Y-123371411D01*
X148460155Y-123387093D01*
X148450938Y-123399778D01*
X148446093Y-123414691D01*
X148433407Y-123423907D01*
X148424191Y-123436593D01*
X148409278Y-123441438D01*
X148396593Y-123450655D01*
X148366000Y-123455500D01*
X148314000Y-123455500D01*
X148255809Y-123436593D01*
X148219845Y-123387093D01*
X148215000Y-123356500D01*
X148215000Y-122938002D01*
X148215000Y-122938001D01*
X148214999Y-122938000D01*
X148214998Y-122938000D01*
X147558294Y-122938000D01*
X147499965Y-122949602D01*
X147499962Y-122949603D01*
X147433813Y-122993803D01*
X147433803Y-122993813D01*
X147386815Y-123064135D01*
X147338765Y-123102014D01*
X147277626Y-123104416D01*
X147226753Y-123070422D01*
X147205576Y-123013019D01*
X147205500Y-123009133D01*
X147205500Y-122477353D01*
X147205499Y-122477343D01*
X147201010Y-122434625D01*
X147201010Y-122434624D01*
X147192451Y-122394356D01*
X147188694Y-122379450D01*
X147144155Y-122299572D01*
X147144153Y-122299570D01*
X147144152Y-122299568D01*
X147103214Y-122254104D01*
X147053254Y-122213648D01*
X147053252Y-122213647D01*
X147053250Y-122213645D01*
X146999451Y-122182583D01*
X146978951Y-122166853D01*
X146933141Y-122121043D01*
X146917409Y-122100540D01*
X146913106Y-122093087D01*
X146885028Y-122044455D01*
X146875138Y-122020577D01*
X146858373Y-121958005D01*
X146855000Y-121932384D01*
X146855000Y-121867613D01*
X146858373Y-121841991D01*
X146873456Y-121785698D01*
X146875139Y-121779415D01*
X146885030Y-121755539D01*
X146894232Y-121739601D01*
X146917410Y-121699454D01*
X146933137Y-121678957D01*
X146978952Y-121633142D01*
X146999447Y-121617416D01*
X147055555Y-121585022D01*
X147079425Y-121575135D01*
X147186474Y-121546452D01*
X147236034Y-121525925D01*
X147280414Y-121500303D01*
X147322976Y-121467643D01*
X148616314Y-120174306D01*
X148627269Y-120162456D01*
X148637358Y-120150643D01*
X148676536Y-120080685D01*
X148695443Y-120022494D01*
X148700494Y-119990602D01*
X148705500Y-119958995D01*
X148705500Y-119241021D01*
X148705500Y-119241008D01*
X148704866Y-119224883D01*
X148703647Y-119209396D01*
X148681884Y-119132228D01*
X148654107Y-119077711D01*
X148654105Y-119077708D01*
X148616318Y-119025699D01*
X148616316Y-119025697D01*
X148616314Y-119025694D01*
X148174306Y-118583686D01*
X148174292Y-118583673D01*
X148174285Y-118583666D01*
X148162465Y-118572739D01*
X148152864Y-118564539D01*
X148150643Y-118562642D01*
X148080685Y-118523464D01*
X148022494Y-118504557D01*
X148022491Y-118504556D01*
X148022492Y-118504556D01*
X147958995Y-118494500D01*
X147958992Y-118494500D01*
X143641008Y-118494500D01*
X143630258Y-118494922D01*
X143624876Y-118495134D01*
X143611331Y-118496200D01*
X143609396Y-118496353D01*
X143609393Y-118496353D01*
X143609392Y-118496354D01*
X143532230Y-118518115D01*
X143532224Y-118518117D01*
X143477708Y-118545894D01*
X143425699Y-118583681D01*
X143425694Y-118583685D01*
X143425694Y-118583686D01*
X142988874Y-119020505D01*
X142934360Y-119048281D01*
X142918873Y-119049500D01*
X141201870Y-119049500D01*
X141171277Y-119044654D01*
X141148050Y-119037107D01*
X141108639Y-119012957D01*
X137490582Y-115394900D01*
X137472376Y-115369841D01*
X137461288Y-115348079D01*
X137450500Y-115303137D01*
X137450500Y-114761185D01*
X137453766Y-114751132D01*
X137452659Y-114740621D01*
X137455344Y-114730596D01*
X137457891Y-114722756D01*
X137467108Y-114710068D01*
X137469407Y-114702994D01*
X137483242Y-114687627D01*
X137483733Y-114687184D01*
X137493853Y-114673255D01*
X137552043Y-114654345D01*
X137592011Y-114667329D01*
X137604938Y-114670075D01*
X137606790Y-114672131D01*
X137610234Y-114673250D01*
X137610237Y-114673252D01*
X137613645Y-114675728D01*
X137641190Y-114706318D01*
X137655207Y-114730596D01*
X137659493Y-114738018D01*
X137659494Y-114738019D01*
X137761985Y-114840509D01*
X137762536Y-114840907D01*
X137764538Y-114841984D01*
X137887511Y-114912982D01*
X137887512Y-114912982D01*
X137887515Y-114912984D01*
X138027525Y-114950500D01*
X138027526Y-114950500D01*
X138172474Y-114950500D01*
X138172475Y-114950500D01*
X138312485Y-114912984D01*
X138312486Y-114912983D01*
X138312488Y-114912982D01*
X138312489Y-114912982D01*
X138431880Y-114844051D01*
X138434768Y-114842648D01*
X138435554Y-114842131D01*
X138440563Y-114839037D01*
X138441862Y-114838286D01*
X138447220Y-114831303D01*
X138540509Y-114738015D01*
X138564764Y-114696005D01*
X138612982Y-114612489D01*
X138612982Y-114612487D01*
X138612984Y-114612485D01*
X138650500Y-114472475D01*
X138650500Y-114366513D01*
X138655344Y-114335924D01*
X138658073Y-114327524D01*
X138662891Y-114312693D01*
X138687043Y-114273282D01*
X138832800Y-114127525D01*
X156249500Y-114127525D01*
X156249500Y-114272477D01*
X156264250Y-114327523D01*
X156264250Y-114327524D01*
X156264251Y-114327524D01*
X156264251Y-114327525D01*
X156287017Y-114412489D01*
X156287018Y-114412491D01*
X156287019Y-114412494D01*
X156359485Y-114538008D01*
X156359487Y-114538010D01*
X156359489Y-114538012D01*
X156359491Y-114538015D01*
X156461985Y-114640509D01*
X156461987Y-114640510D01*
X156461989Y-114640512D01*
X156462536Y-114640907D01*
X156464538Y-114641984D01*
X156587511Y-114712982D01*
X156587512Y-114712982D01*
X156587515Y-114712984D01*
X156727525Y-114750500D01*
X156727526Y-114750500D01*
X156872474Y-114750500D01*
X156872475Y-114750500D01*
X157012485Y-114712984D01*
X157012486Y-114712983D01*
X157012488Y-114712982D01*
X157012489Y-114712982D01*
X157131880Y-114644051D01*
X157134768Y-114642648D01*
X157135554Y-114642131D01*
X157140563Y-114639037D01*
X157141860Y-114638287D01*
X157147215Y-114631308D01*
X157168522Y-114610002D01*
X157187944Y-114590580D01*
X157212995Y-114572379D01*
X157234764Y-114561288D01*
X157279705Y-114550500D01*
X161715288Y-114550500D01*
X161745879Y-114555345D01*
X161758216Y-114559353D01*
X161769105Y-114562891D01*
X161808517Y-114587042D01*
X161837661Y-114616185D01*
X161861984Y-114640508D01*
X161861989Y-114640512D01*
X161987511Y-114712982D01*
X161987512Y-114712982D01*
X161987515Y-114712984D01*
X162127525Y-114750500D01*
X162127526Y-114750500D01*
X162272474Y-114750500D01*
X162272475Y-114750500D01*
X162412485Y-114712984D01*
X162412486Y-114712983D01*
X162412488Y-114712982D01*
X162412489Y-114712982D01*
X162531880Y-114644051D01*
X162534768Y-114642648D01*
X162535554Y-114642131D01*
X162540563Y-114639037D01*
X162541862Y-114638286D01*
X162547220Y-114631303D01*
X162640509Y-114538015D01*
X162640513Y-114538008D01*
X162712982Y-114412489D01*
X162712982Y-114412487D01*
X162712984Y-114412485D01*
X162750500Y-114272475D01*
X162750500Y-114201868D01*
X162755344Y-114171279D01*
X162757684Y-114164076D01*
X162762891Y-114148048D01*
X162787040Y-114108639D01*
X163680469Y-113215212D01*
X163726614Y-113135288D01*
X163742939Y-113074361D01*
X163750500Y-113046144D01*
X163750500Y-104453856D01*
X163726614Y-104364712D01*
X163725038Y-104361983D01*
X163717831Y-104349500D01*
X163717830Y-104349499D01*
X163711074Y-104337797D01*
X163680470Y-104284788D01*
X162090582Y-102694900D01*
X162072376Y-102669841D01*
X162061288Y-102648079D01*
X162050500Y-102603137D01*
X162050500Y-102527526D01*
X162050499Y-102527522D01*
X162042988Y-102499487D01*
X162042988Y-102499486D01*
X162013179Y-102388244D01*
X162012984Y-102387515D01*
X162012982Y-102387512D01*
X162012982Y-102387510D01*
X162012976Y-102387500D01*
X162012656Y-102386792D01*
X162011397Y-102384764D01*
X161941985Y-102264539D01*
X161941985Y-102264540D01*
X161940512Y-102261989D01*
X161940510Y-102261987D01*
X161940509Y-102261985D01*
X161838015Y-102159491D01*
X161838012Y-102159489D01*
X161838010Y-102159487D01*
X161769774Y-102120091D01*
X161748741Y-102096731D01*
X161682897Y-102079087D01*
X161682896Y-102079087D01*
X161572475Y-102049500D01*
X161572473Y-102049500D01*
X161427523Y-102049500D01*
X161365788Y-102066041D01*
X161365787Y-102066040D01*
X161287512Y-102087015D01*
X161287506Y-102087018D01*
X161161993Y-102159483D01*
X161059483Y-102261993D01*
X160987016Y-102387510D01*
X160986739Y-102388244D01*
X160986192Y-102390587D01*
X160949500Y-102527525D01*
X160949500Y-102672474D01*
X160959545Y-102709963D01*
X160959544Y-102709963D01*
X160987016Y-102812488D01*
X160987018Y-102812492D01*
X161059485Y-102938008D01*
X161059487Y-102938010D01*
X161059489Y-102938012D01*
X161059491Y-102938015D01*
X161161985Y-103040509D01*
X161161987Y-103040510D01*
X161161989Y-103040512D01*
X161162536Y-103040907D01*
X161164538Y-103041984D01*
X161287511Y-103112982D01*
X161287512Y-103112982D01*
X161287515Y-103112984D01*
X161427525Y-103150500D01*
X161498130Y-103150500D01*
X161528721Y-103155345D01*
X161541058Y-103159353D01*
X161551947Y-103162891D01*
X161591360Y-103187042D01*
X163009417Y-104605099D01*
X163027622Y-104630157D01*
X163038709Y-104651916D01*
X163049500Y-104696862D01*
X163049500Y-112798129D01*
X163044654Y-112828722D01*
X163037107Y-112851949D01*
X163012957Y-112891360D01*
X162294900Y-113609417D01*
X162269843Y-113627621D01*
X162248085Y-113638708D01*
X162203138Y-113649500D01*
X162127525Y-113649500D01*
X162090239Y-113659491D01*
X161987510Y-113687017D01*
X161987509Y-113687017D01*
X161987507Y-113687018D01*
X161861987Y-113759488D01*
X161861978Y-113759496D01*
X161812055Y-113809418D01*
X161787000Y-113827621D01*
X161765242Y-113838708D01*
X161720295Y-113849500D01*
X157284712Y-113849500D01*
X157254119Y-113844654D01*
X157230892Y-113837107D01*
X157191482Y-113812957D01*
X157138019Y-113759495D01*
X157138010Y-113759487D01*
X157138006Y-113759484D01*
X157069775Y-113720091D01*
X157048741Y-113696730D01*
X156909762Y-113659491D01*
X156909761Y-113659491D01*
X156872475Y-113649500D01*
X156872473Y-113649500D01*
X156727526Y-113649500D01*
X156727525Y-113649500D01*
X156690269Y-113659483D01*
X156690239Y-113659491D01*
X156587505Y-113687018D01*
X156461993Y-113759483D01*
X156359483Y-113861993D01*
X156287019Y-113987504D01*
X156287017Y-113987508D01*
X156287017Y-113987510D01*
X156267061Y-114061987D01*
X156266296Y-114064842D01*
X156249500Y-114127525D01*
X138832800Y-114127525D01*
X138909293Y-114051032D01*
X140406469Y-112553857D01*
X141008580Y-111951746D01*
X141994746Y-110965579D01*
X142019798Y-110947378D01*
X142041565Y-110936288D01*
X142086506Y-110925500D01*
X146342851Y-110925500D01*
X146342853Y-110925500D01*
X146425639Y-110903318D01*
X146425641Y-110903316D01*
X146425643Y-110903316D01*
X146493733Y-110864003D01*
X146496610Y-110862607D01*
X146497394Y-110862091D01*
X146502411Y-110858992D01*
X146503708Y-110858242D01*
X146509063Y-110851263D01*
X148457965Y-108902362D01*
X148457968Y-108902357D01*
X148500816Y-108828143D01*
X148500816Y-108828141D01*
X148500818Y-108828139D01*
X148523000Y-108745353D01*
X148523000Y-108659647D01*
X148523000Y-107409711D01*
X148527845Y-107379120D01*
X148535392Y-107355891D01*
X148559543Y-107316479D01*
X148638009Y-107238015D01*
X148710484Y-107112485D01*
X148748000Y-106972475D01*
X148748000Y-106827525D01*
X148710484Y-106687515D01*
X148710482Y-106687512D01*
X148710482Y-106687510D01*
X148710477Y-106687502D01*
X148710156Y-106686792D01*
X148708897Y-106684764D01*
X148639485Y-106564539D01*
X148639485Y-106564540D01*
X148638012Y-106561989D01*
X148638010Y-106561987D01*
X148638009Y-106561985D01*
X148535515Y-106459491D01*
X148535512Y-106459489D01*
X148535510Y-106459487D01*
X148467274Y-106420091D01*
X148446241Y-106396731D01*
X148380397Y-106379087D01*
X148380396Y-106379087D01*
X148269975Y-106349500D01*
X148269973Y-106349500D01*
X148125023Y-106349500D01*
X148063288Y-106366041D01*
X148063287Y-106366040D01*
X147985012Y-106387015D01*
X147985009Y-106387017D01*
X147862221Y-106457908D01*
X147862216Y-106457912D01*
X147859489Y-106459487D01*
X147859488Y-106459488D01*
X147859485Y-106459490D01*
X147859485Y-106459491D01*
X147847697Y-106471277D01*
X147847675Y-106471299D01*
X147805589Y-106513385D01*
X147780536Y-106531588D01*
X147770793Y-106536553D01*
X147710362Y-106546128D01*
X147655843Y-106518354D01*
X147629577Y-106471453D01*
X147628234Y-106465858D01*
X147625500Y-106442751D01*
X147625500Y-105991513D01*
X147630344Y-105960924D01*
X147637891Y-105937693D01*
X147662040Y-105898285D01*
X148069744Y-105490580D01*
X148094802Y-105472375D01*
X148116567Y-105461287D01*
X148161506Y-105450500D01*
X148272474Y-105450500D01*
X148272475Y-105450500D01*
X148412485Y-105412984D01*
X148412486Y-105412983D01*
X148412488Y-105412982D01*
X148412489Y-105412982D01*
X148531880Y-105344051D01*
X148534768Y-105342648D01*
X148535554Y-105342131D01*
X148540563Y-105339037D01*
X148541862Y-105338286D01*
X148547220Y-105331303D01*
X148640509Y-105238015D01*
X148672012Y-105183451D01*
X148712982Y-105112489D01*
X148712982Y-105112487D01*
X148712984Y-105112485D01*
X148750500Y-104972475D01*
X148750500Y-104827525D01*
X148712984Y-104687515D01*
X148712982Y-104687512D01*
X148712982Y-104687510D01*
X148712977Y-104687502D01*
X148712656Y-104686792D01*
X148711397Y-104684764D01*
X148641985Y-104564539D01*
X148641985Y-104564540D01*
X148640512Y-104561989D01*
X148640510Y-104561987D01*
X148640509Y-104561985D01*
X148538015Y-104459491D01*
X148538012Y-104459489D01*
X148538010Y-104459487D01*
X148538009Y-104459486D01*
X148469775Y-104420091D01*
X148448741Y-104396730D01*
X148329231Y-104364708D01*
X148329230Y-104364707D01*
X148287682Y-104353574D01*
X148272475Y-104349500D01*
X148272474Y-104349500D01*
X148127526Y-104349500D01*
X148127525Y-104349500D01*
X148119397Y-104351677D01*
X148080934Y-104361983D01*
X148080935Y-104361984D01*
X147987510Y-104387017D01*
X147987508Y-104387017D01*
X147987504Y-104387019D01*
X147861993Y-104459483D01*
X147759483Y-104561993D01*
X147687018Y-104687505D01*
X147679970Y-104713810D01*
X147649501Y-104827524D01*
X147649500Y-104827526D01*
X147649500Y-104933483D01*
X147644654Y-104964077D01*
X147637107Y-104987303D01*
X147612957Y-105026712D01*
X147039539Y-105600132D01*
X147039530Y-105600142D01*
X147028505Y-105619238D01*
X147028502Y-105619244D01*
X146996682Y-105674360D01*
X146996681Y-105674360D01*
X146996682Y-105674361D01*
X146980210Y-105735835D01*
X146980208Y-105735841D01*
X146974500Y-105757147D01*
X146974500Y-108308484D01*
X146969654Y-108339077D01*
X146962107Y-108362304D01*
X146937957Y-108401715D01*
X145905255Y-109434417D01*
X145880198Y-109452621D01*
X145858440Y-109463708D01*
X145813493Y-109474500D01*
X145258711Y-109474500D01*
X145228119Y-109469655D01*
X145217715Y-109466274D01*
X145168216Y-109430312D01*
X145149308Y-109372121D01*
X145163901Y-109320386D01*
X145166911Y-109315475D01*
X145181311Y-109297212D01*
X145206148Y-109272375D01*
X145240509Y-109238015D01*
X145240510Y-109238012D01*
X145240512Y-109238011D01*
X145312982Y-109112489D01*
X145312982Y-109112487D01*
X145312984Y-109112485D01*
X145350500Y-108972475D01*
X145350500Y-108827525D01*
X145312984Y-108687515D01*
X145312982Y-108687512D01*
X145312982Y-108687510D01*
X145312977Y-108687502D01*
X145312656Y-108686792D01*
X145311397Y-108684764D01*
X145241985Y-108564539D01*
X145241985Y-108564540D01*
X145240512Y-108561989D01*
X145240510Y-108561987D01*
X145240509Y-108561985D01*
X145138015Y-108459491D01*
X145138012Y-108459489D01*
X145138010Y-108459487D01*
X145069774Y-108420091D01*
X145048741Y-108396731D01*
X144982897Y-108379087D01*
X144982896Y-108379087D01*
X144872475Y-108349500D01*
X144872473Y-108349500D01*
X144727526Y-108349500D01*
X144727525Y-108349500D01*
X144715164Y-108352811D01*
X144669033Y-108365172D01*
X144669033Y-108365173D01*
X144604905Y-108382356D01*
X144587506Y-108387018D01*
X144461987Y-108459488D01*
X144461978Y-108459496D01*
X144412055Y-108509418D01*
X144387000Y-108527621D01*
X144365242Y-108538708D01*
X144320295Y-108549500D01*
X141206580Y-108549500D01*
X141175987Y-108544654D01*
X141163301Y-108540532D01*
X141113801Y-108504568D01*
X141113794Y-108504558D01*
X141110800Y-108500436D01*
X141091900Y-108442256D01*
X141091900Y-106095257D01*
X141091900Y-106095256D01*
X141068014Y-106006112D01*
X141021869Y-105926188D01*
X141013323Y-105917642D01*
X141001515Y-105905833D01*
X141001509Y-105905828D01*
X140980445Y-105884764D01*
X140956612Y-105860930D01*
X140956612Y-105860931D01*
X140909843Y-105814161D01*
X140909837Y-105814156D01*
X140403934Y-105308253D01*
X139890582Y-104794900D01*
X139872376Y-104769841D01*
X139861288Y-104748079D01*
X139850500Y-104703137D01*
X139850500Y-104627524D01*
X139844491Y-104605099D01*
X139832938Y-104561985D01*
X139812984Y-104487515D01*
X139760960Y-104397408D01*
X139749862Y-104368498D01*
X139749056Y-104364707D01*
X139747088Y-104355448D01*
X139753480Y-104294603D01*
X139757979Y-104284499D01*
X139778411Y-104254769D01*
X140605102Y-103428079D01*
X140630154Y-103409878D01*
X140651921Y-103398788D01*
X140696862Y-103388000D01*
X140772474Y-103388000D01*
X140772475Y-103388000D01*
X140912485Y-103350484D01*
X140912486Y-103350483D01*
X140912488Y-103350482D01*
X140912489Y-103350482D01*
X141031880Y-103281551D01*
X141034768Y-103280148D01*
X141035554Y-103279631D01*
X141040563Y-103276537D01*
X141041862Y-103275786D01*
X141047220Y-103268803D01*
X141140509Y-103175515D01*
X141140512Y-103175510D01*
X141212982Y-103049989D01*
X141212982Y-103049987D01*
X141212984Y-103049985D01*
X141250500Y-102909975D01*
X141250500Y-102839370D01*
X141255344Y-102808781D01*
X141262891Y-102785550D01*
X141287040Y-102746141D01*
X142347662Y-101685519D01*
X142372710Y-101667320D01*
X142384603Y-101661261D01*
X142445030Y-101651690D01*
X142450066Y-101652487D01*
X142504582Y-101680264D01*
X144129417Y-103305099D01*
X144147622Y-103330157D01*
X144158709Y-103351916D01*
X144169500Y-103396862D01*
X144169500Y-103472475D01*
X144199087Y-103582896D01*
X144203665Y-103599982D01*
X144207017Y-103612491D01*
X144207018Y-103612492D01*
X144279485Y-103738008D01*
X144279487Y-103738010D01*
X144279489Y-103738012D01*
X144279491Y-103738015D01*
X144381985Y-103840509D01*
X144381987Y-103840510D01*
X144381989Y-103840512D01*
X144382536Y-103840907D01*
X144384538Y-103841984D01*
X144507511Y-103912982D01*
X144507512Y-103912982D01*
X144507515Y-103912984D01*
X144647525Y-103950500D01*
X144647526Y-103950500D01*
X144792474Y-103950500D01*
X144792475Y-103950500D01*
X144932485Y-103912984D01*
X144932486Y-103912983D01*
X144932488Y-103912982D01*
X144932489Y-103912982D01*
X145051880Y-103844051D01*
X145054768Y-103842648D01*
X145055554Y-103842131D01*
X145060563Y-103839037D01*
X145061862Y-103838286D01*
X145067220Y-103831303D01*
X145160509Y-103738015D01*
X145232984Y-103612485D01*
X145270500Y-103472475D01*
X145270500Y-103327525D01*
X145232984Y-103187515D01*
X145232982Y-103187512D01*
X145232982Y-103187510D01*
X145232977Y-103187502D01*
X145232656Y-103186792D01*
X145231397Y-103184764D01*
X145161985Y-103064539D01*
X145161985Y-103064540D01*
X145160512Y-103061989D01*
X145160510Y-103061987D01*
X145160509Y-103061985D01*
X145058015Y-102959491D01*
X145058012Y-102959489D01*
X145058010Y-102959487D01*
X144989774Y-102920091D01*
X144968741Y-102896731D01*
X144902897Y-102879087D01*
X144902896Y-102879087D01*
X144792475Y-102849500D01*
X144792474Y-102849500D01*
X144792473Y-102849500D01*
X144721870Y-102849500D01*
X144691277Y-102844654D01*
X144668050Y-102837107D01*
X144628639Y-102812957D01*
X143005522Y-101189840D01*
X142987319Y-101164785D01*
X142981261Y-101152896D01*
X142971690Y-101092468D01*
X142972488Y-101087431D01*
X143000262Y-101032919D01*
X143692602Y-100340579D01*
X143717654Y-100322378D01*
X143739421Y-100311288D01*
X143784362Y-100300500D01*
X146015288Y-100300500D01*
X146045879Y-100305345D01*
X146058216Y-100309353D01*
X146069105Y-100312891D01*
X146108517Y-100337042D01*
X146161984Y-100390508D01*
X146161989Y-100390512D01*
X146287511Y-100462982D01*
X146287512Y-100462982D01*
X146287515Y-100462984D01*
X146427525Y-100500500D01*
X146427526Y-100500500D01*
X146572474Y-100500500D01*
X146572475Y-100500500D01*
X146712485Y-100462984D01*
X146712486Y-100462983D01*
X146712488Y-100462982D01*
X146712489Y-100462982D01*
X146831880Y-100394051D01*
X146834768Y-100392648D01*
X146835554Y-100392131D01*
X146840563Y-100389037D01*
X146841862Y-100388286D01*
X146847220Y-100381303D01*
X146940509Y-100288015D01*
X146975013Y-100228253D01*
X147008780Y-100169769D01*
X147012981Y-100162490D01*
X147012982Y-100162489D01*
X147012982Y-100162487D01*
X147012984Y-100162485D01*
X147050500Y-100022475D01*
X147050500Y-99877525D01*
X147012984Y-99737515D01*
X147012982Y-99737512D01*
X147012982Y-99737510D01*
X147012977Y-99737502D01*
X147012656Y-99736792D01*
X147011397Y-99734764D01*
X146941985Y-99614539D01*
X146941985Y-99614540D01*
X146940512Y-99611989D01*
X146940510Y-99611987D01*
X146940509Y-99611985D01*
X146838015Y-99509491D01*
X146838012Y-99509489D01*
X146838010Y-99509487D01*
X146838009Y-99509486D01*
X146769775Y-99470091D01*
X146748741Y-99446730D01*
X146652209Y-99420865D01*
X146634202Y-99416040D01*
X146572475Y-99399500D01*
X146572474Y-99399500D01*
X146427523Y-99399500D01*
X146365788Y-99416041D01*
X146365787Y-99416040D01*
X146287512Y-99437015D01*
X146287509Y-99437016D01*
X146161987Y-99509488D01*
X146161978Y-99509496D01*
X146112055Y-99559418D01*
X146087000Y-99577621D01*
X146065242Y-99588708D01*
X146020295Y-99599500D01*
X143541356Y-99599500D01*
X143452212Y-99623386D01*
X143372288Y-99669530D01*
X140794900Y-102246917D01*
X140769843Y-102265121D01*
X140748085Y-102276208D01*
X140703138Y-102287000D01*
X140627523Y-102287000D01*
X140565788Y-102303541D01*
X140565787Y-102303540D01*
X140487512Y-102324515D01*
X140487506Y-102324518D01*
X140361993Y-102396983D01*
X140259483Y-102499493D01*
X140187018Y-102625005D01*
X140180835Y-102648080D01*
X140150257Y-102762202D01*
X140149500Y-102765026D01*
X140149500Y-102835629D01*
X140144654Y-102866222D01*
X140137107Y-102889449D01*
X140112957Y-102928860D01*
X139019530Y-104022288D01*
X138973386Y-104102212D01*
X138949500Y-104191358D01*
X138949500Y-104215287D01*
X138944654Y-104245881D01*
X138937107Y-104269107D01*
X138912958Y-104308515D01*
X138859496Y-104361978D01*
X138859491Y-104361984D01*
X138859488Y-104361987D01*
X138787018Y-104487507D01*
X138787017Y-104487509D01*
X138787017Y-104487510D01*
X138752538Y-104616186D01*
X138749501Y-104627524D01*
X138749500Y-104627526D01*
X138749500Y-104772477D01*
X138764250Y-104827523D01*
X138764250Y-104827524D01*
X138764251Y-104827524D01*
X138764251Y-104827525D01*
X138787017Y-104912489D01*
X138787018Y-104912491D01*
X138787019Y-104912494D01*
X138859485Y-105038008D01*
X138859487Y-105038010D01*
X138859489Y-105038012D01*
X138859491Y-105038015D01*
X138961985Y-105140509D01*
X138961987Y-105140510D01*
X138961989Y-105140512D01*
X138962536Y-105140907D01*
X138964538Y-105141984D01*
X139087511Y-105212982D01*
X139087512Y-105212982D01*
X139087515Y-105212984D01*
X139227525Y-105250500D01*
X139298130Y-105250500D01*
X139328721Y-105255345D01*
X139341058Y-105259353D01*
X139351947Y-105262891D01*
X139391360Y-105287042D01*
X140350817Y-106246498D01*
X140369022Y-106271556D01*
X140380109Y-106293315D01*
X140390900Y-106338261D01*
X140390900Y-108756729D01*
X140386054Y-108787323D01*
X140378507Y-108810549D01*
X140354357Y-108849959D01*
X139966306Y-109238011D01*
X139084788Y-110119529D01*
X139084788Y-110119530D01*
X136819530Y-112384788D01*
X136773386Y-112464712D01*
X136749500Y-112553857D01*
X136749500Y-115079419D01*
X136744654Y-115110012D01*
X136740532Y-115122698D01*
X136704580Y-115172189D01*
X136700459Y-115175184D01*
X136642271Y-115194100D01*
X134159030Y-115194100D01*
X134139714Y-115192197D01*
X134122115Y-115188696D01*
X134112249Y-115186733D01*
X134105944Y-115185263D01*
X134032882Y-115165686D01*
X133972475Y-115149500D01*
X133972474Y-115149500D01*
X133827523Y-115149500D01*
X133765788Y-115166041D01*
X133765787Y-115166040D01*
X133687512Y-115187015D01*
X133687506Y-115187018D01*
X133561993Y-115259483D01*
X133459483Y-115361993D01*
X133387018Y-115487505D01*
X133387017Y-115487510D01*
X133349500Y-115627525D01*
X132832800Y-115627525D01*
X133769745Y-114690579D01*
X133794803Y-114672375D01*
X133816568Y-114661287D01*
X133861507Y-114650500D01*
X133972474Y-114650500D01*
X133972475Y-114650500D01*
X134112485Y-114612984D01*
X134112486Y-114612983D01*
X134112488Y-114612982D01*
X134112489Y-114612982D01*
X134231880Y-114544051D01*
X134234768Y-114542648D01*
X134235554Y-114542131D01*
X134240563Y-114539037D01*
X134241862Y-114538286D01*
X134247220Y-114531303D01*
X134340509Y-114438015D01*
X134340512Y-114438010D01*
X134412982Y-114312489D01*
X134412982Y-114312487D01*
X134412984Y-114312485D01*
X134450500Y-114172475D01*
X134450500Y-114027525D01*
X134412984Y-113887515D01*
X134412982Y-113887512D01*
X134412982Y-113887510D01*
X134412977Y-113887502D01*
X134412656Y-113886792D01*
X134411397Y-113884764D01*
X134341985Y-113764539D01*
X134341985Y-113764540D01*
X134340512Y-113761989D01*
X134340510Y-113761987D01*
X134340509Y-113761985D01*
X134238015Y-113659491D01*
X134238012Y-113659489D01*
X134238010Y-113659487D01*
X134169774Y-113620091D01*
X134148741Y-113596731D01*
X134082897Y-113579087D01*
X134082896Y-113579087D01*
X133972475Y-113549500D01*
X133972473Y-113549500D01*
X133827523Y-113549500D01*
X133765788Y-113566041D01*
X133765787Y-113566040D01*
X133687512Y-113587015D01*
X133687506Y-113587018D01*
X133561993Y-113659483D01*
X133459483Y-113761993D01*
X133387018Y-113887505D01*
X133349500Y-114027526D01*
X133349500Y-114133483D01*
X133344654Y-114164076D01*
X133337107Y-114187303D01*
X133312957Y-114226714D01*
X131655255Y-115884417D01*
X131630198Y-115902621D01*
X131608440Y-115913708D01*
X131563493Y-115924500D01*
X130347180Y-115924500D01*
X130316587Y-115919654D01*
X130303901Y-115915532D01*
X130254401Y-115879568D01*
X130254394Y-115879558D01*
X130251400Y-115875436D01*
X130232500Y-115817256D01*
X130232500Y-115468251D01*
X130232499Y-115468250D01*
X130232498Y-115468241D01*
X130229712Y-115454236D01*
X130229712Y-115454232D01*
X130224642Y-115428752D01*
X130220867Y-115409769D01*
X130176552Y-115343448D01*
X130176548Y-115343445D01*
X130158974Y-115331702D01*
X130158969Y-115331699D01*
X130155374Y-115329297D01*
X130110233Y-115299134D01*
X130110231Y-115299133D01*
X130110228Y-115299132D01*
X130110227Y-115299132D01*
X130093546Y-115295813D01*
X130093545Y-115295813D01*
X130051768Y-115287503D01*
X130051758Y-115287501D01*
X130051753Y-115287500D01*
X130051750Y-115287500D01*
X130051748Y-115287500D01*
X128488252Y-115287500D01*
X128488251Y-115287500D01*
X128488245Y-115287500D01*
X128429778Y-115299130D01*
X128429763Y-115299135D01*
X128363454Y-115343442D01*
X128363442Y-115343454D01*
X128319135Y-115409763D01*
X128319130Y-115409778D01*
X128307500Y-115468245D01*
X128307500Y-115809819D01*
X128302654Y-115840412D01*
X128298532Y-115853098D01*
X128262580Y-115902589D01*
X128258459Y-115905584D01*
X128200271Y-115924500D01*
X127807180Y-115924500D01*
X127776587Y-115919654D01*
X127763901Y-115915532D01*
X127763896Y-115915529D01*
X127763890Y-115915529D01*
X127763888Y-115915528D01*
X127735779Y-115895100D01*
X127714401Y-115879568D01*
X127714394Y-115879558D01*
X127711400Y-115875436D01*
X127692500Y-115817256D01*
X127692500Y-115468251D01*
X127692499Y-115468250D01*
X127692498Y-115468241D01*
X127689712Y-115454236D01*
X127689712Y-115454232D01*
X127684642Y-115428752D01*
X127680867Y-115409769D01*
X127636552Y-115343448D01*
X127636548Y-115343445D01*
X127618974Y-115331702D01*
X127618969Y-115331699D01*
X127615374Y-115329297D01*
X127570233Y-115299134D01*
X127570231Y-115299133D01*
X127570228Y-115299132D01*
X127570227Y-115299132D01*
X127553546Y-115295813D01*
X127553545Y-115295813D01*
X127511768Y-115287503D01*
X127511758Y-115287501D01*
X127511753Y-115287500D01*
X127511750Y-115287500D01*
X127511748Y-115287500D01*
X125948252Y-115287500D01*
X125948251Y-115287500D01*
X125948245Y-115287500D01*
X125889778Y-115299130D01*
X125889763Y-115299135D01*
X125823454Y-115343442D01*
X125823442Y-115343454D01*
X125779135Y-115409763D01*
X125779130Y-115409778D01*
X125767500Y-115468245D01*
X123654500Y-115468245D01*
X123654500Y-112928294D01*
X125768000Y-112928294D01*
X125768000Y-112928299D01*
X125768000Y-113584999D01*
X125768001Y-113585000D01*
X126186500Y-113585000D01*
X126201412Y-113589845D01*
X126217093Y-113589845D01*
X126229778Y-113599061D01*
X126244691Y-113603907D01*
X126253907Y-113616592D01*
X126266593Y-113625809D01*
X126271438Y-113640721D01*
X126280655Y-113653407D01*
X126285500Y-113684000D01*
X126285500Y-113736000D01*
X126266593Y-113794191D01*
X126217093Y-113830155D01*
X126186500Y-113835000D01*
X125768001Y-113835000D01*
X125768000Y-113835001D01*
X125768000Y-113835002D01*
X125768000Y-114491704D01*
X125779602Y-114550033D01*
X125779603Y-114550036D01*
X125821663Y-114612983D01*
X125823806Y-114616189D01*
X125823810Y-114616193D01*
X125889963Y-114660396D01*
X125945958Y-114671533D01*
X125947711Y-114671926D01*
X125948297Y-114671998D01*
X125948299Y-114671999D01*
X125948303Y-114672000D01*
X126604998Y-114672000D01*
X126604999Y-114672000D01*
X126605000Y-114671999D01*
X126605000Y-114253500D01*
X126609845Y-114238588D01*
X126609845Y-114222907D01*
X126619061Y-114210221D01*
X126623907Y-114195309D01*
X126636592Y-114186092D01*
X126645809Y-114173407D01*
X126660721Y-114168561D01*
X126673407Y-114159345D01*
X126704000Y-114154500D01*
X126756000Y-114154500D01*
X126814191Y-114173407D01*
X126850155Y-114222907D01*
X126855000Y-114253500D01*
X126855000Y-114671999D01*
X126855001Y-114672000D01*
X126855002Y-114672000D01*
X127511697Y-114672000D01*
X127511699Y-114672000D01*
X127515617Y-114671363D01*
X127517792Y-114670787D01*
X127549271Y-114664526D01*
X127570032Y-114660397D01*
X127570032Y-114660396D01*
X127570036Y-114660396D01*
X127636189Y-114616193D01*
X127636193Y-114616189D01*
X127680396Y-114550036D01*
X127681866Y-114542648D01*
X127690786Y-114497797D01*
X127691363Y-114495617D01*
X127692000Y-114491698D01*
X127692000Y-113835002D01*
X127692000Y-113835001D01*
X127691999Y-113835000D01*
X127691998Y-113835000D01*
X127273500Y-113835000D01*
X127258588Y-113830155D01*
X127242907Y-113830155D01*
X127230221Y-113820938D01*
X127215309Y-113816093D01*
X127206092Y-113803407D01*
X127193407Y-113794191D01*
X127188561Y-113779278D01*
X127179345Y-113766593D01*
X127174500Y-113736000D01*
X127174500Y-113684000D01*
X127193407Y-113625809D01*
X127242907Y-113589845D01*
X127273500Y-113585000D01*
X127691998Y-113585000D01*
X127691999Y-113585000D01*
X127692000Y-113584999D01*
X127692000Y-112928302D01*
X127691999Y-112928299D01*
X127691998Y-112928294D01*
X128308000Y-112928294D01*
X128308000Y-112928299D01*
X128308000Y-113584999D01*
X128308001Y-113585000D01*
X128726500Y-113585000D01*
X128741412Y-113589845D01*
X128757093Y-113589845D01*
X128769778Y-113599061D01*
X128784691Y-113603907D01*
X128793907Y-113616592D01*
X128806593Y-113625809D01*
X128811438Y-113640721D01*
X128820655Y-113653407D01*
X128825500Y-113684000D01*
X128825500Y-113736000D01*
X128806593Y-113794191D01*
X128757093Y-113830155D01*
X128726500Y-113835000D01*
X128308001Y-113835000D01*
X128308000Y-113835001D01*
X128308000Y-113835002D01*
X128308000Y-114491704D01*
X128319602Y-114550033D01*
X128319603Y-114550036D01*
X128361663Y-114612983D01*
X128363806Y-114616189D01*
X128363810Y-114616193D01*
X128429963Y-114660396D01*
X128485958Y-114671533D01*
X128487711Y-114671926D01*
X128488297Y-114671998D01*
X128488299Y-114671999D01*
X128488303Y-114672000D01*
X129144998Y-114672000D01*
X129144999Y-114672000D01*
X129145000Y-114671999D01*
X129145000Y-114253500D01*
X129149845Y-114238588D01*
X129149845Y-114222907D01*
X129159061Y-114210221D01*
X129163907Y-114195309D01*
X129176592Y-114186092D01*
X129185809Y-114173407D01*
X129200721Y-114168561D01*
X129213407Y-114159345D01*
X129244000Y-114154500D01*
X129296000Y-114154500D01*
X129354191Y-114173407D01*
X129390155Y-114222907D01*
X129395000Y-114253500D01*
X129395000Y-114671999D01*
X129395001Y-114672000D01*
X129395002Y-114672000D01*
X130051697Y-114672000D01*
X130051699Y-114672000D01*
X130055617Y-114671363D01*
X130057792Y-114670787D01*
X130089271Y-114664526D01*
X130110032Y-114660397D01*
X130110032Y-114660396D01*
X130110036Y-114660396D01*
X130176189Y-114616193D01*
X130176193Y-114616189D01*
X130220396Y-114550036D01*
X130221866Y-114542648D01*
X130230786Y-114497797D01*
X130231363Y-114495617D01*
X130232000Y-114491698D01*
X130232000Y-113835002D01*
X130232000Y-113835001D01*
X130231999Y-113835000D01*
X130231998Y-113835000D01*
X129813500Y-113835000D01*
X129798588Y-113830155D01*
X129782907Y-113830155D01*
X129770221Y-113820938D01*
X129755309Y-113816093D01*
X129746092Y-113803407D01*
X129733407Y-113794191D01*
X129728561Y-113779278D01*
X129719345Y-113766593D01*
X129714500Y-113736000D01*
X129714500Y-113684000D01*
X129733407Y-113625809D01*
X129782907Y-113589845D01*
X129813500Y-113585000D01*
X130231998Y-113585000D01*
X130231999Y-113585000D01*
X130232000Y-113584999D01*
X130232000Y-112928302D01*
X130232000Y-112928300D01*
X130231364Y-112924383D01*
X130230786Y-112922202D01*
X130230495Y-112920737D01*
X130220396Y-112869963D01*
X130176193Y-112803810D01*
X130176189Y-112803806D01*
X130173290Y-112801869D01*
X130110036Y-112759603D01*
X130110033Y-112759602D01*
X130051704Y-112748000D01*
X130051700Y-112748000D01*
X129395001Y-112748000D01*
X129395000Y-112748001D01*
X129395000Y-112748002D01*
X129395000Y-113166500D01*
X129390155Y-113181411D01*
X129390155Y-113197093D01*
X129380938Y-113209778D01*
X129376093Y-113224691D01*
X129363407Y-113233907D01*
X129354191Y-113246593D01*
X129339278Y-113251438D01*
X129326593Y-113260655D01*
X129296000Y-113265500D01*
X129244000Y-113265500D01*
X129185809Y-113246593D01*
X129149845Y-113197093D01*
X129145000Y-113166500D01*
X129145000Y-112748002D01*
X129145000Y-112748001D01*
X129144999Y-112748000D01*
X129144998Y-112748000D01*
X128488294Y-112748000D01*
X128429965Y-112759602D01*
X128429962Y-112759603D01*
X128363813Y-112803803D01*
X128363803Y-112803813D01*
X128319603Y-112869962D01*
X128319602Y-112869965D01*
X128308000Y-112928294D01*
X127691998Y-112928294D01*
X127680396Y-112869963D01*
X127636193Y-112803810D01*
X127636189Y-112803806D01*
X127633290Y-112801869D01*
X127570036Y-112759603D01*
X127570033Y-112759602D01*
X127511704Y-112748000D01*
X127511700Y-112748000D01*
X126855001Y-112748000D01*
X126855000Y-112748001D01*
X126855000Y-112748002D01*
X126855000Y-113166500D01*
X126850155Y-113181411D01*
X126850155Y-113197093D01*
X126840938Y-113209778D01*
X126836093Y-113224691D01*
X126823407Y-113233907D01*
X126814191Y-113246593D01*
X126799278Y-113251438D01*
X126786593Y-113260655D01*
X126756000Y-113265500D01*
X126704000Y-113265500D01*
X126645809Y-113246593D01*
X126609845Y-113197093D01*
X126605000Y-113166500D01*
X126605000Y-112748002D01*
X126605000Y-112748001D01*
X126604999Y-112748000D01*
X126604998Y-112748000D01*
X125948294Y-112748000D01*
X125889965Y-112759602D01*
X125889962Y-112759603D01*
X125823813Y-112803803D01*
X125823803Y-112803813D01*
X125779603Y-112869962D01*
X125779602Y-112869965D01*
X125768000Y-112928294D01*
X123654500Y-112928294D01*
X123654500Y-110388245D01*
X125767500Y-110388245D01*
X125767500Y-111951753D01*
X125767501Y-111951758D01*
X125779132Y-112010227D01*
X125779133Y-112010231D01*
X125823448Y-112076552D01*
X125889769Y-112120867D01*
X125912000Y-112125289D01*
X125934228Y-112129711D01*
X125934231Y-112129711D01*
X125942159Y-112131288D01*
X125944324Y-112131861D01*
X125946514Y-112132217D01*
X125948081Y-112132500D01*
X125948252Y-112132500D01*
X125948253Y-112132500D01*
X127511747Y-112132500D01*
X127511748Y-112132500D01*
X127570231Y-112120867D01*
X127636552Y-112076552D01*
X127680867Y-112010231D01*
X127692500Y-111951748D01*
X127692500Y-111610180D01*
X127697343Y-111579594D01*
X127701465Y-111566905D01*
X127737423Y-111517406D01*
X127738022Y-111516971D01*
X127741563Y-111514400D01*
X127799743Y-111495500D01*
X128192820Y-111495500D01*
X128223408Y-111500343D01*
X128236097Y-111504466D01*
X128285596Y-111540428D01*
X128288591Y-111544550D01*
X128307500Y-111602740D01*
X128307500Y-111951753D01*
X128307501Y-111951758D01*
X128319132Y-112010227D01*
X128319133Y-112010231D01*
X128363448Y-112076552D01*
X128429769Y-112120867D01*
X128452000Y-112125289D01*
X128474228Y-112129711D01*
X128474231Y-112129711D01*
X128482159Y-112131288D01*
X128484324Y-112131861D01*
X128486514Y-112132217D01*
X128488081Y-112132500D01*
X128488252Y-112132500D01*
X128488253Y-112132500D01*
X130051747Y-112132500D01*
X130051748Y-112132500D01*
X130110231Y-112120867D01*
X130176552Y-112076552D01*
X130220867Y-112010231D01*
X130232500Y-111951748D01*
X130232500Y-111610180D01*
X130237343Y-111579594D01*
X130241465Y-111566905D01*
X130277423Y-111517406D01*
X130278022Y-111516971D01*
X130281563Y-111514400D01*
X130339743Y-111495500D01*
X133362367Y-111495500D01*
X133392957Y-111500344D01*
X133413913Y-111507153D01*
X133455828Y-111534762D01*
X133456034Y-111534557D01*
X133457032Y-111535555D01*
X133457744Y-111536024D01*
X133458394Y-111536765D01*
X133459244Y-111537767D01*
X133459487Y-111538010D01*
X133459488Y-111538011D01*
X133459489Y-111538012D01*
X133459491Y-111538015D01*
X133561985Y-111640509D01*
X133561987Y-111640510D01*
X133561989Y-111640512D01*
X133562536Y-111640907D01*
X133564538Y-111641984D01*
X133687511Y-111712982D01*
X133687512Y-111712982D01*
X133687515Y-111712984D01*
X133827525Y-111750500D01*
X133827526Y-111750500D01*
X133972474Y-111750500D01*
X133972475Y-111750500D01*
X134112485Y-111712984D01*
X134112486Y-111712983D01*
X134112488Y-111712982D01*
X134112489Y-111712982D01*
X134231880Y-111644051D01*
X134234768Y-111642648D01*
X134235554Y-111642131D01*
X134240563Y-111639037D01*
X134241862Y-111638286D01*
X134247220Y-111631303D01*
X134340509Y-111538015D01*
X134342387Y-111534762D01*
X134412982Y-111412489D01*
X134412982Y-111412487D01*
X134412984Y-111412485D01*
X134450500Y-111272475D01*
X134450500Y-111127525D01*
X134412984Y-110987515D01*
X134412982Y-110987512D01*
X134412982Y-110987510D01*
X134412977Y-110987502D01*
X134412656Y-110986792D01*
X134411397Y-110984764D01*
X134341985Y-110864539D01*
X134341985Y-110864540D01*
X134340512Y-110861989D01*
X134340510Y-110861987D01*
X134340509Y-110861985D01*
X134238015Y-110759491D01*
X134238012Y-110759489D01*
X134238010Y-110759487D01*
X134169774Y-110720091D01*
X134148741Y-110696731D01*
X134082897Y-110679087D01*
X134082896Y-110679087D01*
X133972475Y-110649500D01*
X133972473Y-110649500D01*
X133827523Y-110649500D01*
X133765788Y-110666041D01*
X133765787Y-110666040D01*
X133687512Y-110687015D01*
X133687509Y-110687016D01*
X133561987Y-110759488D01*
X133561978Y-110759496D01*
X133517055Y-110804418D01*
X133492000Y-110822621D01*
X133470242Y-110833708D01*
X133425295Y-110844500D01*
X130347180Y-110844500D01*
X130316587Y-110839654D01*
X130303901Y-110835532D01*
X130254401Y-110799568D01*
X130254394Y-110799558D01*
X130251400Y-110795436D01*
X130232500Y-110737256D01*
X130232500Y-110388251D01*
X130232499Y-110388250D01*
X130232498Y-110388241D01*
X130229712Y-110374236D01*
X130229712Y-110374232D01*
X130224642Y-110348752D01*
X130220867Y-110329769D01*
X130176552Y-110263448D01*
X130176548Y-110263445D01*
X130176544Y-110263442D01*
X130110232Y-110219133D01*
X130110227Y-110219131D01*
X130110025Y-110219063D01*
X130108488Y-110218786D01*
X130051768Y-110207503D01*
X130051758Y-110207501D01*
X130051753Y-110207500D01*
X130051750Y-110207500D01*
X130051748Y-110207500D01*
X128488252Y-110207500D01*
X128488251Y-110207500D01*
X128488245Y-110207500D01*
X128429778Y-110219130D01*
X128429763Y-110219135D01*
X128363454Y-110263442D01*
X128363442Y-110263454D01*
X128319135Y-110329763D01*
X128319130Y-110329778D01*
X128307500Y-110388245D01*
X128307500Y-110729819D01*
X128302654Y-110760412D01*
X128298532Y-110773098D01*
X128262580Y-110822589D01*
X128258459Y-110825584D01*
X128200271Y-110844500D01*
X127807180Y-110844500D01*
X127776587Y-110839654D01*
X127763901Y-110835532D01*
X127763896Y-110835529D01*
X127763890Y-110835529D01*
X127763888Y-110835528D01*
X127737269Y-110816182D01*
X127714401Y-110799568D01*
X127714394Y-110799558D01*
X127711400Y-110795436D01*
X127692500Y-110737256D01*
X127692500Y-110388251D01*
X127692499Y-110388250D01*
X127692498Y-110388241D01*
X127689712Y-110374236D01*
X127689712Y-110374232D01*
X127684642Y-110348752D01*
X127680867Y-110329769D01*
X127636552Y-110263448D01*
X127636548Y-110263445D01*
X127636544Y-110263442D01*
X127570232Y-110219133D01*
X127570227Y-110219131D01*
X127570025Y-110219063D01*
X127568488Y-110218786D01*
X127511768Y-110207503D01*
X127511758Y-110207501D01*
X127511753Y-110207500D01*
X127511750Y-110207500D01*
X127511748Y-110207500D01*
X125948252Y-110207500D01*
X125948251Y-110207500D01*
X125948245Y-110207500D01*
X125889778Y-110219130D01*
X125889763Y-110219135D01*
X125823454Y-110263442D01*
X125823442Y-110263454D01*
X125779135Y-110329763D01*
X125779130Y-110329778D01*
X125767500Y-110388245D01*
X123654500Y-110388245D01*
X123654500Y-107848245D01*
X125767500Y-107848245D01*
X125767500Y-109411753D01*
X125779130Y-109470220D01*
X125779131Y-109470224D01*
X125779132Y-109470227D01*
X125779134Y-109470231D01*
X125779135Y-109470235D01*
X125796807Y-109496682D01*
X125823448Y-109536552D01*
X125889769Y-109580867D01*
X125912000Y-109585289D01*
X125934228Y-109589711D01*
X125934231Y-109589711D01*
X125942159Y-109591288D01*
X125944324Y-109591861D01*
X125946514Y-109592217D01*
X125948081Y-109592500D01*
X125948252Y-109592500D01*
X125948253Y-109592500D01*
X127511747Y-109592500D01*
X127511748Y-109592500D01*
X127570231Y-109580867D01*
X127636552Y-109536552D01*
X127680867Y-109470231D01*
X127692500Y-109411748D01*
X127692500Y-109070180D01*
X127697343Y-109039594D01*
X127700038Y-109031299D01*
X127701465Y-109026905D01*
X127737423Y-108977406D01*
X127738022Y-108976971D01*
X127741563Y-108974400D01*
X127799743Y-108955500D01*
X128192820Y-108955500D01*
X128223408Y-108960343D01*
X128236097Y-108964466D01*
X128285596Y-109000428D01*
X128288591Y-109004550D01*
X128307500Y-109062740D01*
X128307500Y-109411753D01*
X128319130Y-109470220D01*
X128319131Y-109470224D01*
X128319132Y-109470227D01*
X128319134Y-109470231D01*
X128319135Y-109470235D01*
X128336807Y-109496682D01*
X128363448Y-109536552D01*
X128429769Y-109580867D01*
X128452000Y-109585289D01*
X128474228Y-109589711D01*
X128474231Y-109589711D01*
X128482159Y-109591288D01*
X128484324Y-109591861D01*
X128486514Y-109592217D01*
X128488081Y-109592500D01*
X128488252Y-109592500D01*
X128488253Y-109592500D01*
X130051747Y-109592500D01*
X130051748Y-109592500D01*
X130110231Y-109580867D01*
X130176552Y-109536552D01*
X130220867Y-109470231D01*
X130232500Y-109411748D01*
X130232500Y-109040180D01*
X130237343Y-109009594D01*
X130240321Y-109000428D01*
X130241465Y-108996905D01*
X130277423Y-108947406D01*
X130278022Y-108946971D01*
X130281563Y-108944400D01*
X130339743Y-108925500D01*
X133390289Y-108925500D01*
X133420880Y-108930344D01*
X133444106Y-108937891D01*
X133483517Y-108962042D01*
X133561985Y-109040509D01*
X133562536Y-109040907D01*
X133564538Y-109041984D01*
X133687511Y-109112982D01*
X133687512Y-109112982D01*
X133687515Y-109112984D01*
X133827525Y-109150500D01*
X133827526Y-109150500D01*
X133972474Y-109150500D01*
X133972475Y-109150500D01*
X134112485Y-109112984D01*
X134112486Y-109112983D01*
X134112488Y-109112982D01*
X134112489Y-109112982D01*
X134231880Y-109044051D01*
X134234768Y-109042648D01*
X134235554Y-109042131D01*
X134240563Y-109039037D01*
X134241862Y-109038286D01*
X134247220Y-109031303D01*
X134340509Y-108938015D01*
X134347735Y-108925500D01*
X134412982Y-108812489D01*
X134412982Y-108812487D01*
X134412984Y-108812485D01*
X134450500Y-108672475D01*
X134450500Y-108527525D01*
X134412984Y-108387515D01*
X134412982Y-108387512D01*
X134412982Y-108387510D01*
X134412977Y-108387502D01*
X134412656Y-108386792D01*
X134411397Y-108384764D01*
X134341985Y-108264539D01*
X134341985Y-108264540D01*
X134340512Y-108261989D01*
X134340510Y-108261987D01*
X134340509Y-108261985D01*
X134238015Y-108159491D01*
X134238012Y-108159489D01*
X134238010Y-108159487D01*
X134169774Y-108120091D01*
X134148741Y-108096731D01*
X134082897Y-108079087D01*
X134082896Y-108079087D01*
X133972475Y-108049500D01*
X133972473Y-108049500D01*
X133827523Y-108049500D01*
X133765788Y-108066041D01*
X133765787Y-108066040D01*
X133687512Y-108087015D01*
X133687506Y-108087018D01*
X133564721Y-108157908D01*
X133564716Y-108157912D01*
X133561989Y-108159487D01*
X133561988Y-108159488D01*
X133561985Y-108159490D01*
X133561985Y-108159491D01*
X133550198Y-108171277D01*
X133550175Y-108171299D01*
X133487058Y-108234416D01*
X133462002Y-108252620D01*
X133440242Y-108263708D01*
X133395295Y-108274500D01*
X130347180Y-108274500D01*
X130316587Y-108269654D01*
X130303901Y-108265532D01*
X130254401Y-108229568D01*
X130254394Y-108229558D01*
X130251400Y-108225436D01*
X130232500Y-108167256D01*
X130232500Y-107848251D01*
X130232499Y-107848250D01*
X130232498Y-107848241D01*
X130229712Y-107834236D01*
X130229712Y-107834232D01*
X130224642Y-107808752D01*
X130220867Y-107789769D01*
X130176552Y-107723448D01*
X130176548Y-107723445D01*
X130176544Y-107723442D01*
X130110232Y-107679133D01*
X130110227Y-107679131D01*
X130110025Y-107679063D01*
X130108488Y-107678786D01*
X130051768Y-107667503D01*
X130051758Y-107667501D01*
X130051753Y-107667500D01*
X130051750Y-107667500D01*
X130051748Y-107667500D01*
X128488252Y-107667500D01*
X128488251Y-107667500D01*
X128488245Y-107667500D01*
X128429778Y-107679130D01*
X128429763Y-107679135D01*
X128363454Y-107723442D01*
X128363442Y-107723454D01*
X128319135Y-107789763D01*
X128319130Y-107789778D01*
X128307500Y-107848245D01*
X128307500Y-108189819D01*
X128302654Y-108220412D01*
X128298532Y-108233098D01*
X128262580Y-108282589D01*
X128258459Y-108285584D01*
X128200271Y-108304500D01*
X127807180Y-108304500D01*
X127776587Y-108299654D01*
X127763901Y-108295532D01*
X127763896Y-108295529D01*
X127763890Y-108295529D01*
X127763888Y-108295528D01*
X127737269Y-108276182D01*
X127714401Y-108259568D01*
X127714394Y-108259558D01*
X127711400Y-108255436D01*
X127709797Y-108250500D01*
X127692500Y-108197256D01*
X127692500Y-107848251D01*
X127692499Y-107848250D01*
X127692498Y-107848241D01*
X127689712Y-107834236D01*
X127689712Y-107834232D01*
X127684642Y-107808752D01*
X127680867Y-107789769D01*
X127636552Y-107723448D01*
X127636548Y-107723445D01*
X127636544Y-107723442D01*
X127570232Y-107679133D01*
X127570227Y-107679131D01*
X127570025Y-107679063D01*
X127568488Y-107678786D01*
X127511768Y-107667503D01*
X127511758Y-107667501D01*
X127511753Y-107667500D01*
X127511750Y-107667500D01*
X127511748Y-107667500D01*
X125948252Y-107667500D01*
X125948251Y-107667500D01*
X125948245Y-107667500D01*
X125889778Y-107679130D01*
X125889763Y-107679135D01*
X125823454Y-107723442D01*
X125823442Y-107723454D01*
X125779135Y-107789763D01*
X125779130Y-107789778D01*
X125767500Y-107848245D01*
X123654500Y-107848245D01*
X123654500Y-105308245D01*
X125767500Y-105308245D01*
X125767500Y-106871753D01*
X125767501Y-106871758D01*
X125779132Y-106930227D01*
X125779133Y-106930231D01*
X125823448Y-106996552D01*
X125889769Y-107040867D01*
X125912000Y-107045289D01*
X125934228Y-107049711D01*
X125934231Y-107049711D01*
X125942159Y-107051288D01*
X125944324Y-107051861D01*
X125946514Y-107052217D01*
X125948081Y-107052500D01*
X125948252Y-107052500D01*
X125948253Y-107052500D01*
X127511747Y-107052500D01*
X127511748Y-107052500D01*
X127570231Y-107040867D01*
X127636552Y-106996552D01*
X127680867Y-106930231D01*
X127692500Y-106871748D01*
X127692500Y-106530180D01*
X127697343Y-106499594D01*
X127701465Y-106486905D01*
X127737423Y-106437406D01*
X127738022Y-106436971D01*
X127741563Y-106434400D01*
X127799743Y-106415500D01*
X128192820Y-106415500D01*
X128223408Y-106420343D01*
X128236097Y-106424466D01*
X128272057Y-106450591D01*
X128283165Y-106458662D01*
X128285596Y-106460428D01*
X128288591Y-106464550D01*
X128307500Y-106522740D01*
X128307500Y-106871753D01*
X128307501Y-106871758D01*
X128319132Y-106930227D01*
X128319133Y-106930231D01*
X128363448Y-106996552D01*
X128429769Y-107040867D01*
X128452000Y-107045289D01*
X128474228Y-107049711D01*
X128474231Y-107049711D01*
X128482159Y-107051288D01*
X128484324Y-107051861D01*
X128486514Y-107052217D01*
X128488081Y-107052500D01*
X128488252Y-107052500D01*
X128488253Y-107052500D01*
X130051747Y-107052500D01*
X130051748Y-107052500D01*
X130110231Y-107040867D01*
X130176552Y-106996552D01*
X130220867Y-106930231D01*
X130232500Y-106871748D01*
X130232500Y-106540180D01*
X130237343Y-106509594D01*
X130241465Y-106496905D01*
X130277423Y-106447406D01*
X130278022Y-106446971D01*
X130281563Y-106444400D01*
X130339743Y-106425500D01*
X133390289Y-106425500D01*
X133420880Y-106430344D01*
X133444106Y-106437891D01*
X133483517Y-106462042D01*
X133561985Y-106540509D01*
X133562536Y-106540907D01*
X133564538Y-106541984D01*
X133687511Y-106612982D01*
X133687512Y-106612982D01*
X133687515Y-106612984D01*
X133827525Y-106650500D01*
X133827526Y-106650500D01*
X133972474Y-106650500D01*
X133972475Y-106650500D01*
X134112485Y-106612984D01*
X134112486Y-106612983D01*
X134112488Y-106612982D01*
X134112489Y-106612982D01*
X134231880Y-106544051D01*
X134234768Y-106542648D01*
X134235554Y-106542131D01*
X134240563Y-106539037D01*
X134241862Y-106538286D01*
X134247220Y-106531303D01*
X134340509Y-106438015D01*
X134369953Y-106387017D01*
X134412982Y-106312489D01*
X134412982Y-106312487D01*
X134412984Y-106312485D01*
X134450500Y-106172475D01*
X134450500Y-106027525D01*
X134412984Y-105887515D01*
X134412982Y-105887512D01*
X134412982Y-105887510D01*
X134412977Y-105887502D01*
X134412656Y-105886792D01*
X134411397Y-105884764D01*
X134341985Y-105764539D01*
X134341985Y-105764540D01*
X134340512Y-105761989D01*
X134340510Y-105761987D01*
X134340509Y-105761985D01*
X134238015Y-105659491D01*
X134238012Y-105659489D01*
X134238010Y-105659487D01*
X134169774Y-105620091D01*
X134148741Y-105596731D01*
X134082897Y-105579087D01*
X134082896Y-105579087D01*
X133972475Y-105549500D01*
X133972473Y-105549500D01*
X133827523Y-105549500D01*
X133765788Y-105566041D01*
X133765787Y-105566040D01*
X133687512Y-105587015D01*
X133687506Y-105587018D01*
X133564721Y-105657908D01*
X133564716Y-105657912D01*
X133561989Y-105659487D01*
X133561988Y-105659488D01*
X133561985Y-105659490D01*
X133561985Y-105659491D01*
X133550198Y-105671277D01*
X133550175Y-105671299D01*
X133487058Y-105734416D01*
X133462002Y-105752620D01*
X133440242Y-105763708D01*
X133395295Y-105774500D01*
X130347180Y-105774500D01*
X130316587Y-105769654D01*
X130303901Y-105765532D01*
X130254401Y-105729568D01*
X130254394Y-105729558D01*
X130251400Y-105725436D01*
X130232500Y-105667256D01*
X130232500Y-105308251D01*
X130221012Y-105250499D01*
X130221014Y-105250498D01*
X130221003Y-105250458D01*
X130220867Y-105249769D01*
X130176552Y-105183448D01*
X130112295Y-105140512D01*
X130110233Y-105139134D01*
X130110231Y-105139133D01*
X130110228Y-105139132D01*
X130110227Y-105139132D01*
X130098763Y-105136851D01*
X130098762Y-105136851D01*
X130051768Y-105127503D01*
X130051758Y-105127501D01*
X130051753Y-105127500D01*
X130051750Y-105127500D01*
X130051748Y-105127500D01*
X128488252Y-105127500D01*
X128488251Y-105127500D01*
X128488245Y-105127500D01*
X128429778Y-105139130D01*
X128429763Y-105139135D01*
X128363454Y-105183442D01*
X128363442Y-105183454D01*
X128319135Y-105249763D01*
X128319130Y-105249778D01*
X128307500Y-105308245D01*
X128307500Y-105649819D01*
X128302654Y-105680412D01*
X128298532Y-105693098D01*
X128262580Y-105742589D01*
X128258459Y-105745584D01*
X128200271Y-105764500D01*
X127807180Y-105764500D01*
X127776587Y-105759654D01*
X127763901Y-105755532D01*
X127763896Y-105755529D01*
X127763890Y-105755529D01*
X127763888Y-105755528D01*
X127736294Y-105735474D01*
X127714401Y-105719568D01*
X127714394Y-105719558D01*
X127711400Y-105715436D01*
X127711271Y-105715039D01*
X127692500Y-105657256D01*
X127692500Y-105308251D01*
X127681012Y-105250499D01*
X127681014Y-105250498D01*
X127681003Y-105250458D01*
X127680867Y-105249769D01*
X127636552Y-105183448D01*
X127572295Y-105140512D01*
X127570233Y-105139134D01*
X127570231Y-105139133D01*
X127570228Y-105139132D01*
X127570227Y-105139132D01*
X127558763Y-105136851D01*
X127558762Y-105136851D01*
X127511768Y-105127503D01*
X127511758Y-105127501D01*
X127511753Y-105127500D01*
X127511750Y-105127500D01*
X127511748Y-105127500D01*
X125948252Y-105127500D01*
X125948251Y-105127500D01*
X125948245Y-105127500D01*
X125889778Y-105139130D01*
X125889763Y-105139135D01*
X125823454Y-105183442D01*
X125823442Y-105183454D01*
X125779135Y-105249763D01*
X125779130Y-105249778D01*
X125767500Y-105308245D01*
X123654500Y-105308245D01*
X123654500Y-102768294D01*
X125768000Y-102768294D01*
X125768000Y-102768299D01*
X125768000Y-103424999D01*
X125768001Y-103425000D01*
X126186500Y-103425000D01*
X126201412Y-103429845D01*
X126217093Y-103429845D01*
X126229778Y-103439061D01*
X126244691Y-103443907D01*
X126253907Y-103456592D01*
X126266593Y-103465809D01*
X126271438Y-103480721D01*
X126280655Y-103493407D01*
X126285500Y-103524000D01*
X126285500Y-103576000D01*
X126266593Y-103634191D01*
X126217093Y-103670155D01*
X126186500Y-103675000D01*
X125768001Y-103675000D01*
X125768000Y-103675001D01*
X125768000Y-103675002D01*
X125768000Y-104331704D01*
X125779602Y-104390033D01*
X125779603Y-104390036D01*
X125822247Y-104453857D01*
X125823806Y-104456189D01*
X125823810Y-104456193D01*
X125889963Y-104500396D01*
X125945958Y-104511533D01*
X125947711Y-104511926D01*
X125948297Y-104511998D01*
X125948299Y-104511999D01*
X125948303Y-104512000D01*
X126604998Y-104512000D01*
X126604999Y-104512000D01*
X126605000Y-104511999D01*
X126605000Y-104093500D01*
X126609845Y-104078588D01*
X126609845Y-104062907D01*
X126619061Y-104050221D01*
X126623907Y-104035309D01*
X126636592Y-104026092D01*
X126645809Y-104013407D01*
X126660721Y-104008561D01*
X126673407Y-103999345D01*
X126704000Y-103994500D01*
X126756000Y-103994500D01*
X126814191Y-104013407D01*
X126850155Y-104062907D01*
X126855000Y-104093500D01*
X126855000Y-104511999D01*
X126855001Y-104512000D01*
X126855002Y-104512000D01*
X127511697Y-104512000D01*
X127511699Y-104512000D01*
X127515617Y-104511363D01*
X127517792Y-104510787D01*
X127549271Y-104504526D01*
X127570032Y-104500397D01*
X127570032Y-104500396D01*
X127570036Y-104500396D01*
X127636189Y-104456193D01*
X127636193Y-104456189D01*
X127680396Y-104390036D01*
X127680997Y-104387017D01*
X127685434Y-104364707D01*
X127690787Y-104337792D01*
X127691363Y-104335617D01*
X127692000Y-104331698D01*
X127692000Y-103675002D01*
X127692000Y-103675001D01*
X127691999Y-103675000D01*
X127691998Y-103675000D01*
X127273500Y-103675000D01*
X127258588Y-103670155D01*
X127242907Y-103670155D01*
X127230221Y-103660938D01*
X127215309Y-103656093D01*
X127206092Y-103643407D01*
X127193407Y-103634191D01*
X127188561Y-103619278D01*
X127179345Y-103606593D01*
X127174500Y-103576000D01*
X127174500Y-103524000D01*
X127193407Y-103465809D01*
X127242907Y-103429845D01*
X127273500Y-103425000D01*
X127691998Y-103425000D01*
X127691999Y-103425000D01*
X127692000Y-103424999D01*
X127692000Y-102768302D01*
X127691999Y-102768299D01*
X127691998Y-102768294D01*
X128308000Y-102768294D01*
X128308000Y-102768299D01*
X128308000Y-103424999D01*
X128308001Y-103425000D01*
X128726500Y-103425000D01*
X128741412Y-103429845D01*
X128757093Y-103429845D01*
X128769778Y-103439061D01*
X128784691Y-103443907D01*
X128793907Y-103456592D01*
X128806593Y-103465809D01*
X128811438Y-103480721D01*
X128820655Y-103493407D01*
X128825500Y-103524000D01*
X128825500Y-103576000D01*
X128806593Y-103634191D01*
X128757093Y-103670155D01*
X128726500Y-103675000D01*
X128308001Y-103675000D01*
X128308000Y-103675001D01*
X128308000Y-103675002D01*
X128308000Y-104331704D01*
X128319602Y-104390033D01*
X128319603Y-104390036D01*
X128362247Y-104453857D01*
X128363806Y-104456189D01*
X128363810Y-104456193D01*
X128429963Y-104500396D01*
X128485958Y-104511533D01*
X128487711Y-104511926D01*
X128488297Y-104511998D01*
X128488299Y-104511999D01*
X128488303Y-104512000D01*
X129144998Y-104512000D01*
X129144999Y-104512000D01*
X129145000Y-104511999D01*
X129145000Y-104093500D01*
X129149845Y-104078588D01*
X129149845Y-104062907D01*
X129159061Y-104050221D01*
X129163907Y-104035309D01*
X129176592Y-104026092D01*
X129185809Y-104013407D01*
X129200721Y-104008561D01*
X129213407Y-103999345D01*
X129244000Y-103994500D01*
X129296000Y-103994500D01*
X129354191Y-104013407D01*
X129390155Y-104062907D01*
X129395000Y-104093500D01*
X129395000Y-104511999D01*
X129395001Y-104512000D01*
X129395002Y-104512000D01*
X130051697Y-104512000D01*
X130051699Y-104512000D01*
X130055617Y-104511363D01*
X130057792Y-104510787D01*
X130089271Y-104504526D01*
X130110032Y-104500397D01*
X130110032Y-104500396D01*
X130110036Y-104500396D01*
X130176189Y-104456193D01*
X130176193Y-104456189D01*
X130220396Y-104390036D01*
X130220997Y-104387017D01*
X130225434Y-104364707D01*
X130230787Y-104337792D01*
X130231363Y-104335617D01*
X130232000Y-104331698D01*
X130232000Y-103675002D01*
X130232000Y-103675001D01*
X130231999Y-103675000D01*
X130231998Y-103675000D01*
X129813500Y-103675000D01*
X129798588Y-103670155D01*
X129782907Y-103670155D01*
X129770221Y-103660938D01*
X129755309Y-103656093D01*
X129746092Y-103643407D01*
X129733407Y-103634191D01*
X129728561Y-103619278D01*
X129719345Y-103606593D01*
X129714500Y-103576000D01*
X129714500Y-103524000D01*
X129733407Y-103465809D01*
X129782907Y-103429845D01*
X129813500Y-103425000D01*
X130231998Y-103425000D01*
X130231999Y-103425000D01*
X130232000Y-103424999D01*
X130232000Y-102768302D01*
X130232000Y-102768300D01*
X130231364Y-102764383D01*
X130230786Y-102762202D01*
X130230341Y-102759967D01*
X130220396Y-102709963D01*
X130176193Y-102643810D01*
X130176189Y-102643806D01*
X130154475Y-102629297D01*
X130110036Y-102599603D01*
X130110033Y-102599602D01*
X130051704Y-102588000D01*
X130051700Y-102588000D01*
X129395001Y-102588000D01*
X129395000Y-102588001D01*
X129395000Y-102588002D01*
X129395000Y-103006500D01*
X129390155Y-103021411D01*
X129390155Y-103037093D01*
X129380938Y-103049778D01*
X129376093Y-103064691D01*
X129363407Y-103073907D01*
X129354191Y-103086593D01*
X129339278Y-103091438D01*
X129326593Y-103100655D01*
X129296000Y-103105500D01*
X129244000Y-103105500D01*
X129185809Y-103086593D01*
X129149845Y-103037093D01*
X129145000Y-103006500D01*
X129145000Y-102588002D01*
X129145000Y-102588001D01*
X129144999Y-102588000D01*
X129144998Y-102588000D01*
X128488294Y-102588000D01*
X128429965Y-102599602D01*
X128429962Y-102599603D01*
X128363813Y-102643803D01*
X128363803Y-102643813D01*
X128319603Y-102709962D01*
X128319603Y-102709963D01*
X128308000Y-102768294D01*
X127691998Y-102768294D01*
X127680396Y-102709963D01*
X127636193Y-102643810D01*
X127636189Y-102643806D01*
X127614475Y-102629297D01*
X127570036Y-102599603D01*
X127570033Y-102599602D01*
X127511704Y-102588000D01*
X127511700Y-102588000D01*
X126855001Y-102588000D01*
X126855000Y-102588001D01*
X126855000Y-102588002D01*
X126855000Y-103006500D01*
X126850155Y-103021411D01*
X126850155Y-103037093D01*
X126840938Y-103049778D01*
X126836093Y-103064691D01*
X126823407Y-103073907D01*
X126814191Y-103086593D01*
X126799278Y-103091438D01*
X126786593Y-103100655D01*
X126756000Y-103105500D01*
X126704000Y-103105500D01*
X126645809Y-103086593D01*
X126609845Y-103037093D01*
X126605000Y-103006500D01*
X126605000Y-102588002D01*
X126605000Y-102588001D01*
X126604999Y-102588000D01*
X126604998Y-102588000D01*
X125948294Y-102588000D01*
X125889965Y-102599602D01*
X125889962Y-102599603D01*
X125823813Y-102643803D01*
X125823803Y-102643813D01*
X125779603Y-102709962D01*
X125779603Y-102709963D01*
X125768000Y-102768294D01*
X123654500Y-102768294D01*
X123654500Y-100228245D01*
X125767500Y-100228245D01*
X125767500Y-101791753D01*
X125767501Y-101791758D01*
X125779132Y-101850227D01*
X125779133Y-101850231D01*
X125823448Y-101916552D01*
X125889769Y-101960867D01*
X125912000Y-101965289D01*
X125934228Y-101969711D01*
X125934231Y-101969711D01*
X125942159Y-101971288D01*
X125944324Y-101971861D01*
X125946514Y-101972217D01*
X125948081Y-101972500D01*
X125948252Y-101972500D01*
X125948253Y-101972500D01*
X127511747Y-101972500D01*
X127511748Y-101972500D01*
X127570231Y-101960867D01*
X127636552Y-101916552D01*
X127680867Y-101850231D01*
X127692500Y-101791748D01*
X127692500Y-101450180D01*
X127697343Y-101419594D01*
X127701465Y-101406905D01*
X127737423Y-101357406D01*
X127738022Y-101356971D01*
X127741563Y-101354400D01*
X127799743Y-101335500D01*
X128192820Y-101335500D01*
X128223408Y-101340343D01*
X128236097Y-101344466D01*
X128285596Y-101380428D01*
X128288591Y-101384550D01*
X128307500Y-101442740D01*
X128307500Y-101791753D01*
X128307501Y-101791758D01*
X128319132Y-101850227D01*
X128319133Y-101850231D01*
X128363448Y-101916552D01*
X128429769Y-101960867D01*
X128452000Y-101965289D01*
X128474228Y-101969711D01*
X128474231Y-101969711D01*
X128482159Y-101971288D01*
X128484324Y-101971861D01*
X128486514Y-101972217D01*
X128488081Y-101972500D01*
X128488252Y-101972500D01*
X128488253Y-101972500D01*
X130051747Y-101972500D01*
X130051748Y-101972500D01*
X130110231Y-101960867D01*
X130176552Y-101916552D01*
X130220867Y-101850231D01*
X130232500Y-101791748D01*
X130232500Y-101440180D01*
X130237343Y-101409594D01*
X130238216Y-101406908D01*
X130241465Y-101396905D01*
X130277423Y-101347406D01*
X130278022Y-101346971D01*
X130281563Y-101344400D01*
X130339743Y-101325500D01*
X133390289Y-101325500D01*
X133420880Y-101330344D01*
X133444106Y-101337891D01*
X133483517Y-101362042D01*
X133561985Y-101440509D01*
X133562536Y-101440907D01*
X133564538Y-101441984D01*
X133687511Y-101512982D01*
X133687512Y-101512982D01*
X133687515Y-101512984D01*
X133827525Y-101550500D01*
X133827526Y-101550500D01*
X133972474Y-101550500D01*
X133972475Y-101550500D01*
X134112485Y-101512984D01*
X134112486Y-101512983D01*
X134112488Y-101512982D01*
X134112489Y-101512982D01*
X134231880Y-101444051D01*
X134234768Y-101442648D01*
X134235554Y-101442131D01*
X134240563Y-101439037D01*
X134241862Y-101438286D01*
X134247220Y-101431303D01*
X134340509Y-101338015D01*
X134412984Y-101212485D01*
X134450500Y-101072475D01*
X134450500Y-100927525D01*
X134412984Y-100787515D01*
X134412982Y-100787512D01*
X134412982Y-100787510D01*
X134412977Y-100787502D01*
X134412656Y-100786792D01*
X134411397Y-100784764D01*
X134341985Y-100664539D01*
X134341985Y-100664540D01*
X134340512Y-100661989D01*
X134340510Y-100661987D01*
X134340509Y-100661985D01*
X134238015Y-100559491D01*
X134238012Y-100559489D01*
X134238010Y-100559487D01*
X134238009Y-100559486D01*
X134169775Y-100520091D01*
X134148741Y-100496730D01*
X134022797Y-100462984D01*
X134022796Y-100462983D01*
X133985958Y-100453112D01*
X133972475Y-100449500D01*
X133972474Y-100449500D01*
X133827526Y-100449500D01*
X133827525Y-100449500D01*
X133816892Y-100452348D01*
X133777210Y-100462981D01*
X133777210Y-100462982D01*
X133687510Y-100487017D01*
X133687508Y-100487017D01*
X133687504Y-100487019D01*
X133564721Y-100557908D01*
X133564716Y-100557912D01*
X133561989Y-100559487D01*
X133561988Y-100559488D01*
X133561985Y-100559490D01*
X133561985Y-100559491D01*
X133550198Y-100571277D01*
X133550175Y-100571299D01*
X133487058Y-100634416D01*
X133462002Y-100652620D01*
X133440242Y-100663708D01*
X133395295Y-100674500D01*
X130347180Y-100674500D01*
X130316587Y-100669654D01*
X130303901Y-100665532D01*
X130254401Y-100629568D01*
X130254394Y-100629558D01*
X130251400Y-100625436D01*
X130232500Y-100567256D01*
X130232500Y-100228251D01*
X130232499Y-100228250D01*
X130232498Y-100228241D01*
X130229712Y-100214236D01*
X130229712Y-100214232D01*
X130220869Y-100169778D01*
X130220867Y-100169769D01*
X130176552Y-100103448D01*
X130176548Y-100103445D01*
X130176544Y-100103442D01*
X130110232Y-100059133D01*
X130110227Y-100059131D01*
X130110025Y-100059063D01*
X130108488Y-100058786D01*
X130051768Y-100047503D01*
X130051758Y-100047501D01*
X130051753Y-100047500D01*
X130051750Y-100047500D01*
X130051748Y-100047500D01*
X128488252Y-100047500D01*
X128488251Y-100047500D01*
X128488245Y-100047500D01*
X128429778Y-100059130D01*
X128429763Y-100059135D01*
X128363454Y-100103442D01*
X128363442Y-100103454D01*
X128319135Y-100169763D01*
X128319130Y-100169778D01*
X128307500Y-100228245D01*
X128307500Y-100569819D01*
X128302654Y-100600412D01*
X128298532Y-100613098D01*
X128262580Y-100662589D01*
X128258459Y-100665584D01*
X128200271Y-100684500D01*
X127807180Y-100684500D01*
X127776587Y-100679654D01*
X127763901Y-100675532D01*
X127763896Y-100675529D01*
X127763890Y-100675529D01*
X127763888Y-100675528D01*
X127735431Y-100654847D01*
X127714401Y-100639568D01*
X127714394Y-100639558D01*
X127711400Y-100635436D01*
X127709491Y-100629558D01*
X127692500Y-100577256D01*
X127692500Y-100228251D01*
X127692499Y-100228250D01*
X127692498Y-100228241D01*
X127689712Y-100214236D01*
X127689712Y-100214232D01*
X127680869Y-100169778D01*
X127680867Y-100169769D01*
X127636552Y-100103448D01*
X127636548Y-100103445D01*
X127636544Y-100103442D01*
X127570232Y-100059133D01*
X127570227Y-100059131D01*
X127570025Y-100059063D01*
X127568488Y-100058786D01*
X127511768Y-100047503D01*
X127511758Y-100047501D01*
X127511753Y-100047500D01*
X127511750Y-100047500D01*
X127511748Y-100047500D01*
X125948252Y-100047500D01*
X125948251Y-100047500D01*
X125948245Y-100047500D01*
X125889778Y-100059130D01*
X125889763Y-100059135D01*
X125823454Y-100103442D01*
X125823442Y-100103454D01*
X125779135Y-100169763D01*
X125779130Y-100169778D01*
X125767500Y-100228245D01*
X123654500Y-100228245D01*
X123654500Y-97688245D01*
X125767500Y-97688245D01*
X125767500Y-99251753D01*
X125767501Y-99251758D01*
X125779132Y-99310227D01*
X125779133Y-99310231D01*
X125823448Y-99376552D01*
X125889769Y-99420867D01*
X125912000Y-99425289D01*
X125934228Y-99429711D01*
X125934231Y-99429711D01*
X125942159Y-99431288D01*
X125944324Y-99431861D01*
X125946514Y-99432217D01*
X125948081Y-99432500D01*
X125948252Y-99432500D01*
X125948253Y-99432500D01*
X127511747Y-99432500D01*
X127511748Y-99432500D01*
X127570231Y-99420867D01*
X127636552Y-99376552D01*
X127680867Y-99310231D01*
X127692500Y-99251748D01*
X127692500Y-98910180D01*
X127697343Y-98879594D01*
X127701465Y-98866905D01*
X127737423Y-98817406D01*
X127738022Y-98816971D01*
X127741563Y-98814400D01*
X127799743Y-98795500D01*
X128192820Y-98795500D01*
X128223408Y-98800343D01*
X128236097Y-98804466D01*
X128285596Y-98840428D01*
X128288591Y-98844550D01*
X128307500Y-98902740D01*
X128307500Y-99251753D01*
X128307501Y-99251758D01*
X128319132Y-99310227D01*
X128319133Y-99310231D01*
X128363448Y-99376552D01*
X128429769Y-99420867D01*
X128452000Y-99425289D01*
X128474228Y-99429711D01*
X128474231Y-99429711D01*
X128482159Y-99431288D01*
X128484324Y-99431861D01*
X128486514Y-99432217D01*
X128488081Y-99432500D01*
X128488252Y-99432500D01*
X128488253Y-99432500D01*
X130051747Y-99432500D01*
X130051748Y-99432500D01*
X130110231Y-99420867D01*
X130176552Y-99376552D01*
X130220867Y-99310231D01*
X130232500Y-99251748D01*
X130232500Y-98940180D01*
X130237343Y-98909594D01*
X130241465Y-98896905D01*
X130277423Y-98847406D01*
X130281356Y-98844550D01*
X130281563Y-98844400D01*
X130339743Y-98825500D01*
X133390289Y-98825500D01*
X133420880Y-98830344D01*
X133444106Y-98837891D01*
X133483517Y-98862042D01*
X133561985Y-98940509D01*
X133562536Y-98940907D01*
X133564538Y-98941984D01*
X133687511Y-99012982D01*
X133687512Y-99012982D01*
X133687515Y-99012984D01*
X133827525Y-99050500D01*
X133827526Y-99050500D01*
X133972474Y-99050500D01*
X133972475Y-99050500D01*
X134112485Y-99012984D01*
X134112486Y-99012983D01*
X134112488Y-99012982D01*
X134112489Y-99012982D01*
X134231880Y-98944051D01*
X134234768Y-98942648D01*
X134235554Y-98942131D01*
X134240563Y-98939037D01*
X134241862Y-98938286D01*
X134247220Y-98931303D01*
X134340509Y-98838015D01*
X134362258Y-98800345D01*
X134412982Y-98712489D01*
X134412982Y-98712487D01*
X134412984Y-98712485D01*
X134450500Y-98572475D01*
X134450500Y-98427525D01*
X134412984Y-98287515D01*
X134412982Y-98287512D01*
X134412982Y-98287510D01*
X134412977Y-98287502D01*
X134412656Y-98286792D01*
X134411397Y-98284764D01*
X134341985Y-98164539D01*
X134341985Y-98164540D01*
X134340512Y-98161989D01*
X134340510Y-98161987D01*
X134340509Y-98161985D01*
X134238015Y-98059491D01*
X134238012Y-98059489D01*
X134238010Y-98059487D01*
X134169774Y-98020091D01*
X134148741Y-97996731D01*
X134082897Y-97979087D01*
X134082896Y-97979087D01*
X133972475Y-97949500D01*
X133972473Y-97949500D01*
X133827523Y-97949500D01*
X133765788Y-97966041D01*
X133765787Y-97966040D01*
X133687512Y-97987015D01*
X133687506Y-97987018D01*
X133564721Y-98057908D01*
X133564716Y-98057912D01*
X133561989Y-98059487D01*
X133561988Y-98059488D01*
X133561985Y-98059490D01*
X133561985Y-98059491D01*
X133550198Y-98071277D01*
X133550175Y-98071299D01*
X133487058Y-98134416D01*
X133462002Y-98152620D01*
X133440242Y-98163708D01*
X133395295Y-98174500D01*
X130347180Y-98174500D01*
X130316587Y-98169654D01*
X130303901Y-98165532D01*
X130254401Y-98129568D01*
X130254394Y-98129558D01*
X130251400Y-98125436D01*
X130232500Y-98067256D01*
X130232500Y-97688251D01*
X130232499Y-97688250D01*
X130232498Y-97688241D01*
X130225363Y-97652374D01*
X130220867Y-97629769D01*
X130176552Y-97563448D01*
X130176548Y-97563445D01*
X130148818Y-97544916D01*
X130110232Y-97519133D01*
X130110227Y-97519131D01*
X130110025Y-97519063D01*
X130108488Y-97518786D01*
X130051768Y-97507503D01*
X130051758Y-97507501D01*
X130051753Y-97507500D01*
X130051750Y-97507500D01*
X130051748Y-97507500D01*
X128488252Y-97507500D01*
X128488251Y-97507500D01*
X128488245Y-97507500D01*
X128429778Y-97519130D01*
X128429763Y-97519135D01*
X128363454Y-97563442D01*
X128363442Y-97563454D01*
X128319135Y-97629763D01*
X128319130Y-97629778D01*
X128307500Y-97688245D01*
X128307500Y-98029819D01*
X128302654Y-98060412D01*
X128298532Y-98073098D01*
X128262580Y-98122589D01*
X128258459Y-98125584D01*
X128200271Y-98144500D01*
X127807180Y-98144500D01*
X127776587Y-98139654D01*
X127763901Y-98135532D01*
X127763896Y-98135529D01*
X127763890Y-98135529D01*
X127763888Y-98135528D01*
X127735695Y-98115039D01*
X127714401Y-98099568D01*
X127714394Y-98099558D01*
X127711400Y-98095436D01*
X127692500Y-98037256D01*
X127692500Y-97688251D01*
X127692499Y-97688250D01*
X127692498Y-97688241D01*
X127685363Y-97652374D01*
X127680867Y-97629769D01*
X127636552Y-97563448D01*
X127636548Y-97563445D01*
X127608818Y-97544916D01*
X127570232Y-97519133D01*
X127570227Y-97519131D01*
X127570025Y-97519063D01*
X127568488Y-97518786D01*
X127511768Y-97507503D01*
X127511758Y-97507501D01*
X127511753Y-97507500D01*
X127511750Y-97507500D01*
X127511748Y-97507500D01*
X125948252Y-97507500D01*
X125948251Y-97507500D01*
X125948245Y-97507500D01*
X125889778Y-97519130D01*
X125889763Y-97519135D01*
X125823454Y-97563442D01*
X125823442Y-97563454D01*
X125779135Y-97629763D01*
X125779130Y-97629778D01*
X125767500Y-97688245D01*
X123654500Y-97688245D01*
X123654500Y-95148294D01*
X125768000Y-95148294D01*
X125768000Y-95148299D01*
X125768000Y-95804999D01*
X125768001Y-95805000D01*
X126186500Y-95805000D01*
X126201412Y-95809845D01*
X126217093Y-95809845D01*
X126229778Y-95819061D01*
X126244691Y-95823907D01*
X126253907Y-95836592D01*
X126266593Y-95845809D01*
X126271438Y-95860721D01*
X126280655Y-95873407D01*
X126285500Y-95904000D01*
X126285500Y-95956000D01*
X126266593Y-96014191D01*
X126217093Y-96050155D01*
X126186500Y-96055000D01*
X125768001Y-96055000D01*
X125768000Y-96055001D01*
X125768000Y-96055002D01*
X125768000Y-96711704D01*
X125779602Y-96770032D01*
X125779603Y-96770036D01*
X125823806Y-96836189D01*
X125823810Y-96836193D01*
X125889963Y-96880396D01*
X125945958Y-96891533D01*
X125947711Y-96891926D01*
X125948297Y-96891998D01*
X125948299Y-96891999D01*
X125948303Y-96892000D01*
X126604998Y-96892000D01*
X126604999Y-96892000D01*
X126605000Y-96891999D01*
X126605000Y-96473500D01*
X126609845Y-96458588D01*
X126609845Y-96442907D01*
X126619061Y-96430221D01*
X126623907Y-96415309D01*
X126636592Y-96406092D01*
X126645809Y-96393407D01*
X126660721Y-96388561D01*
X126673407Y-96379345D01*
X126704000Y-96374500D01*
X126756000Y-96374500D01*
X126814191Y-96393407D01*
X126850155Y-96442907D01*
X126855000Y-96473500D01*
X126855000Y-96891999D01*
X126855001Y-96892000D01*
X126855002Y-96892000D01*
X127511697Y-96892000D01*
X127511699Y-96892000D01*
X127515617Y-96891363D01*
X127517792Y-96890787D01*
X127549271Y-96884526D01*
X127570032Y-96880397D01*
X127570032Y-96880396D01*
X127570036Y-96880396D01*
X127636189Y-96836193D01*
X127636193Y-96836189D01*
X127680396Y-96770036D01*
X127690787Y-96717792D01*
X127691363Y-96715617D01*
X127692000Y-96711698D01*
X127692000Y-96055002D01*
X127692000Y-96055001D01*
X127691999Y-96055000D01*
X127691998Y-96055000D01*
X127273500Y-96055000D01*
X127258588Y-96050155D01*
X127242907Y-96050155D01*
X127230221Y-96040938D01*
X127215309Y-96036093D01*
X127206092Y-96023407D01*
X127193407Y-96014191D01*
X127188561Y-95999278D01*
X127179345Y-95986593D01*
X127174500Y-95956000D01*
X127174500Y-95904000D01*
X127193407Y-95845809D01*
X127242907Y-95809845D01*
X127273500Y-95805000D01*
X127691998Y-95805000D01*
X127691999Y-95805000D01*
X127692000Y-95804999D01*
X127692000Y-95148302D01*
X127691999Y-95148299D01*
X127691998Y-95148294D01*
X128308000Y-95148294D01*
X128308000Y-95148299D01*
X128308000Y-95804999D01*
X128308001Y-95805000D01*
X128726500Y-95805000D01*
X128741412Y-95809845D01*
X128757093Y-95809845D01*
X128769778Y-95819061D01*
X128784691Y-95823907D01*
X128793907Y-95836592D01*
X128806593Y-95845809D01*
X128811438Y-95860721D01*
X128820655Y-95873407D01*
X128825500Y-95904000D01*
X128825500Y-95956000D01*
X128806593Y-96014191D01*
X128757093Y-96050155D01*
X128726500Y-96055000D01*
X128308001Y-96055000D01*
X128308000Y-96055001D01*
X128308000Y-96055002D01*
X128308000Y-96711704D01*
X128319602Y-96770032D01*
X128319603Y-96770036D01*
X128363806Y-96836189D01*
X128363810Y-96836193D01*
X128429963Y-96880396D01*
X128485958Y-96891533D01*
X128487711Y-96891926D01*
X128488297Y-96891998D01*
X128488299Y-96891999D01*
X128488303Y-96892000D01*
X129144998Y-96892000D01*
X129144999Y-96892000D01*
X129145000Y-96891999D01*
X129145000Y-96473500D01*
X129149845Y-96458588D01*
X129149845Y-96442907D01*
X129159061Y-96430221D01*
X129163907Y-96415309D01*
X129176592Y-96406092D01*
X129185809Y-96393407D01*
X129200721Y-96388561D01*
X129213407Y-96379345D01*
X129244000Y-96374500D01*
X129296000Y-96374500D01*
X129354191Y-96393407D01*
X129390155Y-96442907D01*
X129395000Y-96473500D01*
X129395000Y-96891999D01*
X129395001Y-96892000D01*
X129395002Y-96892000D01*
X130051697Y-96892000D01*
X130051699Y-96892000D01*
X130055617Y-96891363D01*
X130057792Y-96890787D01*
X130089271Y-96884526D01*
X130110032Y-96880397D01*
X130110032Y-96880396D01*
X130110036Y-96880396D01*
X130176189Y-96836193D01*
X130176193Y-96836189D01*
X130220396Y-96770036D01*
X130230787Y-96717792D01*
X130231363Y-96715617D01*
X130232000Y-96711698D01*
X130232000Y-96055002D01*
X130232000Y-96055001D01*
X130231999Y-96055000D01*
X130231998Y-96055000D01*
X129813500Y-96055000D01*
X129798588Y-96050155D01*
X129782907Y-96050155D01*
X129770221Y-96040938D01*
X129755309Y-96036093D01*
X129746092Y-96023407D01*
X129733407Y-96014191D01*
X129728561Y-95999278D01*
X129719345Y-95986593D01*
X129714500Y-95956000D01*
X129714500Y-95904000D01*
X129733407Y-95845809D01*
X129782907Y-95809845D01*
X129813500Y-95805000D01*
X130231998Y-95805000D01*
X130231999Y-95805000D01*
X130232000Y-95804999D01*
X130232000Y-95148302D01*
X130232000Y-95148300D01*
X130231364Y-95144383D01*
X130230786Y-95142202D01*
X130220396Y-95089963D01*
X130176193Y-95023810D01*
X130176189Y-95023806D01*
X130110036Y-94979603D01*
X130110033Y-94979602D01*
X130051704Y-94968000D01*
X130051700Y-94968000D01*
X129395001Y-94968000D01*
X129395000Y-94968001D01*
X129395000Y-94968002D01*
X129395000Y-95386500D01*
X129390155Y-95401411D01*
X129390155Y-95417093D01*
X129380938Y-95429778D01*
X129376093Y-95444691D01*
X129363407Y-95453907D01*
X129354191Y-95466593D01*
X129339278Y-95471438D01*
X129326593Y-95480655D01*
X129296000Y-95485500D01*
X129244000Y-95485500D01*
X129185809Y-95466593D01*
X129149845Y-95417093D01*
X129145000Y-95386500D01*
X129145000Y-94968002D01*
X129145000Y-94968001D01*
X129144999Y-94968000D01*
X129144998Y-94968000D01*
X128488294Y-94968000D01*
X128429965Y-94979602D01*
X128429962Y-94979603D01*
X128363813Y-95023803D01*
X128363803Y-95023813D01*
X128319603Y-95089962D01*
X128319602Y-95089965D01*
X128308000Y-95148294D01*
X127691998Y-95148294D01*
X127680396Y-95089963D01*
X127636193Y-95023810D01*
X127636189Y-95023806D01*
X127570036Y-94979603D01*
X127570033Y-94979602D01*
X127511704Y-94968000D01*
X127511700Y-94968000D01*
X126855001Y-94968000D01*
X126855000Y-94968001D01*
X126855000Y-94968002D01*
X126855000Y-95386500D01*
X126850155Y-95401411D01*
X126850155Y-95417093D01*
X126840938Y-95429778D01*
X126836093Y-95444691D01*
X126823407Y-95453907D01*
X126814191Y-95466593D01*
X126799278Y-95471438D01*
X126786593Y-95480655D01*
X126756000Y-95485500D01*
X126704000Y-95485500D01*
X126645809Y-95466593D01*
X126609845Y-95417093D01*
X126605000Y-95386500D01*
X126605000Y-94968002D01*
X126605000Y-94968001D01*
X126604999Y-94968000D01*
X126604998Y-94968000D01*
X125948294Y-94968000D01*
X125889965Y-94979602D01*
X125889962Y-94979603D01*
X125823813Y-95023803D01*
X125823803Y-95023813D01*
X125779603Y-95089962D01*
X125779602Y-95089965D01*
X125768000Y-95148294D01*
X123654500Y-95148294D01*
X123654500Y-92608245D01*
X125767500Y-92608245D01*
X125767500Y-94171753D01*
X125767501Y-94171758D01*
X125779132Y-94230227D01*
X125779133Y-94230231D01*
X125823448Y-94296552D01*
X125889769Y-94340867D01*
X125912000Y-94345289D01*
X125934228Y-94349711D01*
X125934231Y-94349711D01*
X125942159Y-94351288D01*
X125944324Y-94351861D01*
X125946514Y-94352217D01*
X125948081Y-94352500D01*
X125948252Y-94352500D01*
X125948253Y-94352500D01*
X127511747Y-94352500D01*
X127511748Y-94352500D01*
X127570231Y-94340867D01*
X127636552Y-94296552D01*
X127680867Y-94230231D01*
X127692500Y-94171748D01*
X127692500Y-93830180D01*
X127697343Y-93799594D01*
X127698216Y-93796908D01*
X127701465Y-93786905D01*
X127737423Y-93737406D01*
X127738022Y-93736971D01*
X127741563Y-93734400D01*
X127799743Y-93715500D01*
X128192820Y-93715500D01*
X128223408Y-93720343D01*
X128236097Y-93724466D01*
X128285596Y-93760428D01*
X128288591Y-93764550D01*
X128307500Y-93822740D01*
X128307500Y-94171753D01*
X128307501Y-94171758D01*
X128319132Y-94230227D01*
X128319133Y-94230231D01*
X128363448Y-94296552D01*
X128429769Y-94340867D01*
X128452000Y-94345289D01*
X128474228Y-94349711D01*
X128474231Y-94349711D01*
X128482159Y-94351288D01*
X128484324Y-94351861D01*
X128486514Y-94352217D01*
X128488081Y-94352500D01*
X128488252Y-94352500D01*
X128488253Y-94352500D01*
X130051747Y-94352500D01*
X130051748Y-94352500D01*
X130110231Y-94340867D01*
X130176552Y-94296552D01*
X130220867Y-94230231D01*
X130232500Y-94171748D01*
X130232500Y-93840180D01*
X130237343Y-93809594D01*
X130241465Y-93796905D01*
X130277423Y-93747406D01*
X130278022Y-93746971D01*
X130281563Y-93744400D01*
X130339743Y-93725500D01*
X133390289Y-93725500D01*
X133420880Y-93730344D01*
X133444106Y-93737891D01*
X133483517Y-93762042D01*
X133561985Y-93840509D01*
X133562536Y-93840907D01*
X133564538Y-93841984D01*
X133687511Y-93912982D01*
X133687512Y-93912982D01*
X133687515Y-93912984D01*
X133827525Y-93950500D01*
X133827526Y-93950500D01*
X133972474Y-93950500D01*
X133972475Y-93950500D01*
X134112485Y-93912984D01*
X134112486Y-93912983D01*
X134112488Y-93912982D01*
X134112489Y-93912982D01*
X134231880Y-93844051D01*
X134234768Y-93842648D01*
X134235554Y-93842131D01*
X134240563Y-93839037D01*
X134241862Y-93838286D01*
X134247220Y-93831303D01*
X134340509Y-93738015D01*
X134397402Y-93639474D01*
X134412982Y-93612489D01*
X134412982Y-93612487D01*
X134412984Y-93612485D01*
X134450500Y-93472475D01*
X134450500Y-93327525D01*
X134412984Y-93187515D01*
X134412982Y-93187512D01*
X134412982Y-93187510D01*
X134412977Y-93187502D01*
X134412656Y-93186792D01*
X134411397Y-93184764D01*
X134341985Y-93064539D01*
X134341985Y-93064540D01*
X134340512Y-93061989D01*
X134340510Y-93061987D01*
X134340509Y-93061985D01*
X134238015Y-92959491D01*
X134238012Y-92959489D01*
X134238010Y-92959487D01*
X134169774Y-92920091D01*
X134148741Y-92896731D01*
X134082897Y-92879087D01*
X134082896Y-92879087D01*
X133972475Y-92849500D01*
X133972473Y-92849500D01*
X133827523Y-92849500D01*
X133765788Y-92866041D01*
X133765787Y-92866040D01*
X133687512Y-92887015D01*
X133687506Y-92887018D01*
X133564721Y-92957908D01*
X133564716Y-92957912D01*
X133561989Y-92959487D01*
X133561988Y-92959488D01*
X133561985Y-92959490D01*
X133561985Y-92959491D01*
X133550198Y-92971277D01*
X133550175Y-92971299D01*
X133487058Y-93034416D01*
X133462002Y-93052620D01*
X133440242Y-93063708D01*
X133395295Y-93074500D01*
X130347180Y-93074500D01*
X130316587Y-93069654D01*
X130303901Y-93065532D01*
X130254401Y-93029568D01*
X130254394Y-93029558D01*
X130251400Y-93025436D01*
X130232500Y-92967256D01*
X130232500Y-92608251D01*
X130232499Y-92608250D01*
X130232498Y-92608241D01*
X130229712Y-92594236D01*
X130229712Y-92594232D01*
X130224642Y-92568752D01*
X130220867Y-92549769D01*
X130176552Y-92483448D01*
X130176548Y-92483445D01*
X130155213Y-92469189D01*
X130110232Y-92439133D01*
X130110227Y-92439131D01*
X130110025Y-92439063D01*
X130108488Y-92438786D01*
X130051768Y-92427503D01*
X130051758Y-92427501D01*
X130051753Y-92427500D01*
X130051750Y-92427500D01*
X130051748Y-92427500D01*
X128488252Y-92427500D01*
X128488251Y-92427500D01*
X128488245Y-92427500D01*
X128429778Y-92439130D01*
X128429763Y-92439135D01*
X128363454Y-92483442D01*
X128363442Y-92483454D01*
X128319135Y-92549763D01*
X128319130Y-92549778D01*
X128307500Y-92608245D01*
X128307500Y-92949819D01*
X128302654Y-92980412D01*
X128298532Y-92993098D01*
X128262580Y-93042589D01*
X128258459Y-93045584D01*
X128200271Y-93064500D01*
X127807180Y-93064500D01*
X127776587Y-93059654D01*
X127763901Y-93055532D01*
X127763896Y-93055529D01*
X127763890Y-93055529D01*
X127763888Y-93055528D01*
X127737269Y-93036182D01*
X127714401Y-93019568D01*
X127714394Y-93019558D01*
X127711400Y-93015436D01*
X127711271Y-93015039D01*
X127692500Y-92957256D01*
X127692500Y-92608251D01*
X127692499Y-92608250D01*
X127692498Y-92608241D01*
X127689712Y-92594236D01*
X127689712Y-92594232D01*
X127684642Y-92568752D01*
X127680867Y-92549769D01*
X127636552Y-92483448D01*
X127636548Y-92483445D01*
X127615213Y-92469189D01*
X127570232Y-92439133D01*
X127570227Y-92439131D01*
X127570025Y-92439063D01*
X127568488Y-92438786D01*
X127511768Y-92427503D01*
X127511758Y-92427501D01*
X127511753Y-92427500D01*
X127511750Y-92427500D01*
X127511748Y-92427500D01*
X125948252Y-92427500D01*
X125948251Y-92427500D01*
X125948245Y-92427500D01*
X125889778Y-92439130D01*
X125889763Y-92439135D01*
X125823454Y-92483442D01*
X125823442Y-92483454D01*
X125779135Y-92549763D01*
X125779130Y-92549778D01*
X125767500Y-92608245D01*
X123654500Y-92608245D01*
X123654500Y-90068245D01*
X125767500Y-90068245D01*
X125767500Y-90068250D01*
X125767500Y-90068253D01*
X125767500Y-91631746D01*
X125767501Y-91631758D01*
X125776358Y-91676282D01*
X125778581Y-91687457D01*
X125779133Y-91690232D01*
X125779134Y-91690233D01*
X125823448Y-91756552D01*
X125889769Y-91800867D01*
X125912000Y-91805289D01*
X125934228Y-91809711D01*
X125934231Y-91809711D01*
X125942159Y-91811288D01*
X125944324Y-91811861D01*
X125946514Y-91812217D01*
X125948081Y-91812500D01*
X125948252Y-91812500D01*
X125948253Y-91812500D01*
X127511747Y-91812500D01*
X127511748Y-91812500D01*
X127570231Y-91800867D01*
X127636552Y-91756552D01*
X127680867Y-91690231D01*
X127692500Y-91631748D01*
X127692500Y-91290180D01*
X127697343Y-91259594D01*
X127701465Y-91246905D01*
X127737423Y-91197406D01*
X127738022Y-91196971D01*
X127741563Y-91194400D01*
X127799743Y-91175500D01*
X128192820Y-91175500D01*
X128223408Y-91180343D01*
X128236097Y-91184466D01*
X128285596Y-91220428D01*
X128288591Y-91224550D01*
X128307500Y-91282740D01*
X128307500Y-91631746D01*
X128307501Y-91631758D01*
X128316358Y-91676282D01*
X128318581Y-91687457D01*
X128319133Y-91690232D01*
X128319134Y-91690233D01*
X128363448Y-91756552D01*
X128429769Y-91800867D01*
X128452000Y-91805289D01*
X128474228Y-91809711D01*
X128474231Y-91809711D01*
X128482159Y-91811288D01*
X128484324Y-91811861D01*
X128486514Y-91812217D01*
X128488081Y-91812500D01*
X128488252Y-91812500D01*
X128488253Y-91812500D01*
X130051747Y-91812500D01*
X130051748Y-91812500D01*
X130110231Y-91800867D01*
X130176552Y-91756552D01*
X130220867Y-91690231D01*
X130231256Y-91638004D01*
X154710000Y-91638004D01*
X154710000Y-91881994D01*
X154748162Y-92122949D01*
X154823558Y-92354992D01*
X154934318Y-92572373D01*
X154934322Y-92572379D01*
X155075932Y-92767286D01*
X155075933Y-92767287D01*
X155323790Y-92519430D01*
X155500565Y-92342655D01*
X155514535Y-92335536D01*
X155525624Y-92324448D01*
X155541112Y-92321995D01*
X155555082Y-92314877D01*
X155570569Y-92317329D01*
X155586056Y-92314877D01*
X155600026Y-92321995D01*
X155615514Y-92324448D01*
X155640569Y-92342651D01*
X155677343Y-92379425D01*
X155705119Y-92433940D01*
X155695548Y-92494372D01*
X155677342Y-92519430D01*
X155252710Y-92944064D01*
X155252710Y-92944065D01*
X155447619Y-93085676D01*
X155447625Y-93085680D01*
X155665005Y-93196440D01*
X155665007Y-93196440D01*
X155665008Y-93196441D01*
X155665011Y-93196443D01*
X155897039Y-93271834D01*
X155897043Y-93271835D01*
X156138006Y-93310000D01*
X156381991Y-93310000D01*
X156381994Y-93310000D01*
X156622949Y-93271836D01*
X156622950Y-93271835D01*
X156622954Y-93271835D01*
X156854995Y-93196440D01*
X156854997Y-93196438D01*
X156858693Y-93195238D01*
X156859259Y-93196980D01*
X156863311Y-93196659D01*
X156872995Y-93191496D01*
X156874788Y-93191195D01*
X156884630Y-93189636D01*
X156907094Y-93193192D01*
X156913366Y-93192696D01*
X156920822Y-93195366D01*
X156945063Y-93199204D01*
X156988329Y-93242467D01*
X156997904Y-93302898D01*
X156996973Y-93308780D01*
X156984927Y-93342796D01*
X156968555Y-93371152D01*
X156962706Y-93377397D01*
X156854157Y-93639459D01*
X156854155Y-93639466D01*
X156784582Y-93899113D01*
X156783736Y-93905545D01*
X156783736Y-93905549D01*
X156749500Y-94165599D01*
X156749500Y-94434399D01*
X156783736Y-94694449D01*
X156783736Y-94694454D01*
X156784582Y-94700885D01*
X156784583Y-94700888D01*
X156854151Y-94960518D01*
X156854155Y-94960531D01*
X156862055Y-94979603D01*
X156956804Y-95208352D01*
X156956805Y-95208352D01*
X156957104Y-95209074D01*
X156957735Y-95210210D01*
X156958598Y-95211599D01*
X156983847Y-95255332D01*
X156994946Y-95284247D01*
X156996660Y-95292310D01*
X156990266Y-95353160D01*
X156949326Y-95398631D01*
X156889478Y-95411353D01*
X156889471Y-95411352D01*
X156882757Y-95410646D01*
X156858761Y-95404555D01*
X156858695Y-95404761D01*
X156855561Y-95403742D01*
X156855247Y-95403663D01*
X156854996Y-95403559D01*
X156622955Y-95328163D01*
X156381994Y-95290000D01*
X156381991Y-95290000D01*
X156138009Y-95290000D01*
X156138006Y-95290000D01*
X155897049Y-95328162D01*
X155665004Y-95403559D01*
X155447896Y-95514180D01*
X155447637Y-95514309D01*
X155447613Y-95514324D01*
X155252710Y-95655931D01*
X155252710Y-95655932D01*
X155677343Y-96080567D01*
X155684461Y-96094537D01*
X155695548Y-96105624D01*
X155698001Y-96121111D01*
X155705120Y-96135083D01*
X155702667Y-96150570D01*
X155705120Y-96166056D01*
X155698001Y-96180026D01*
X155695549Y-96195515D01*
X155677344Y-96220573D01*
X155640575Y-96257343D01*
X155586058Y-96285121D01*
X155525626Y-96275550D01*
X155500566Y-96257344D01*
X155075932Y-95832710D01*
X155075931Y-95832710D01*
X154934324Y-96027613D01*
X154934309Y-96027637D01*
X154934180Y-96027896D01*
X154823559Y-96245004D01*
X154748162Y-96477049D01*
X154710000Y-96718004D01*
X154710000Y-96961994D01*
X154748162Y-97202949D01*
X154823559Y-97434994D01*
X154934316Y-97652369D01*
X154934322Y-97652379D01*
X155075932Y-97847286D01*
X155075933Y-97847287D01*
X155323790Y-97599430D01*
X155500565Y-97422655D01*
X155514535Y-97415536D01*
X155525624Y-97404448D01*
X155541112Y-97401995D01*
X155555082Y-97394877D01*
X155570569Y-97397329D01*
X155586056Y-97394877D01*
X155600026Y-97401995D01*
X155615514Y-97404448D01*
X155640569Y-97422651D01*
X155677343Y-97459425D01*
X155705119Y-97513940D01*
X155695548Y-97574372D01*
X155677342Y-97599430D01*
X155252710Y-98024064D01*
X155252710Y-98024065D01*
X155447619Y-98165676D01*
X155447625Y-98165680D01*
X155665005Y-98276440D01*
X155665007Y-98276440D01*
X155665008Y-98276441D01*
X155665011Y-98276443D01*
X155897039Y-98351834D01*
X155897043Y-98351835D01*
X156138006Y-98390000D01*
X156381991Y-98390000D01*
X156381994Y-98390000D01*
X156622955Y-98351835D01*
X156622959Y-98351834D01*
X156854987Y-98276443D01*
X156854989Y-98276441D01*
X156854994Y-98276440D01*
X157072376Y-98165679D01*
X157072382Y-98165675D01*
X157267288Y-98024066D01*
X157267288Y-98024065D01*
X156842653Y-97599430D01*
X156835536Y-97585461D01*
X156824449Y-97574374D01*
X156821996Y-97558886D01*
X156814878Y-97544916D01*
X156817330Y-97529429D01*
X156814878Y-97513942D01*
X156821996Y-97499971D01*
X156824449Y-97484484D01*
X156842649Y-97459432D01*
X156879428Y-97422653D01*
X156933941Y-97394879D01*
X156994373Y-97404450D01*
X157019431Y-97422656D01*
X157444063Y-97847286D01*
X157444065Y-97847288D01*
X157444066Y-97847288D01*
X157585675Y-97652382D01*
X157585679Y-97652376D01*
X157696440Y-97434994D01*
X157696441Y-97434989D01*
X157696443Y-97434987D01*
X157771834Y-97202959D01*
X157771835Y-97202955D01*
X157810000Y-96961994D01*
X157810000Y-96718004D01*
X157771835Y-96477043D01*
X157771834Y-96477039D01*
X157695239Y-96241307D01*
X157696974Y-96240742D01*
X157696653Y-96236678D01*
X157691496Y-96227006D01*
X157691202Y-96225262D01*
X157689634Y-96215358D01*
X157693195Y-96192881D01*
X157692700Y-96186612D01*
X157695369Y-96179159D01*
X157699208Y-96154928D01*
X157742474Y-96111665D01*
X157802901Y-96102095D01*
X157808789Y-96103028D01*
X157842790Y-96115069D01*
X157890468Y-96142595D01*
X157891057Y-96142943D01*
X157891138Y-96142983D01*
X157891141Y-96142984D01*
X157891144Y-96142986D01*
X158035863Y-96202930D01*
X158139474Y-96245847D01*
X158399109Y-96315416D01*
X158665603Y-96350500D01*
X158665604Y-96350500D01*
X158934396Y-96350500D01*
X158934397Y-96350500D01*
X159200891Y-96315416D01*
X159460526Y-96245847D01*
X159708859Y-96142984D01*
X159755334Y-96116150D01*
X159784246Y-96105052D01*
X159789655Y-96103901D01*
X159792308Y-96103338D01*
X159853158Y-96109731D01*
X159898629Y-96150670D01*
X159911353Y-96210518D01*
X159911352Y-96210529D01*
X159910646Y-96217242D01*
X159904555Y-96241234D01*
X159904762Y-96241302D01*
X159903739Y-96244449D01*
X159903663Y-96244750D01*
X159903563Y-96244989D01*
X159828162Y-96477049D01*
X159790000Y-96718004D01*
X159790000Y-96961994D01*
X159828162Y-97202949D01*
X159903559Y-97434994D01*
X160014316Y-97652369D01*
X160014322Y-97652379D01*
X160155932Y-97847287D01*
X160155933Y-97847288D01*
X160580566Y-97422655D01*
X160594537Y-97415536D01*
X160605625Y-97404449D01*
X160621112Y-97401996D01*
X160635083Y-97394878D01*
X160650570Y-97397330D01*
X160666057Y-97394878D01*
X160680027Y-97401996D01*
X160695515Y-97404449D01*
X160720570Y-97422652D01*
X160757343Y-97459425D01*
X160785119Y-97513940D01*
X160775548Y-97574372D01*
X160757342Y-97599430D01*
X160332710Y-98024064D01*
X160332710Y-98024065D01*
X160527619Y-98165676D01*
X160527625Y-98165680D01*
X160745005Y-98276440D01*
X160745007Y-98276440D01*
X160745008Y-98276441D01*
X160745011Y-98276443D01*
X160977039Y-98351834D01*
X160977043Y-98351835D01*
X161218006Y-98390000D01*
X161461991Y-98390000D01*
X161461994Y-98390000D01*
X161702955Y-98351835D01*
X161702959Y-98351834D01*
X161934987Y-98276443D01*
X161934989Y-98276441D01*
X161934994Y-98276440D01*
X162152376Y-98165679D01*
X162152382Y-98165675D01*
X162347288Y-98024066D01*
X162347288Y-98024065D01*
X161922653Y-97599430D01*
X161915536Y-97585461D01*
X161904449Y-97574374D01*
X161901996Y-97558886D01*
X161894878Y-97544916D01*
X161897330Y-97529429D01*
X161894878Y-97513942D01*
X161901996Y-97499971D01*
X161904449Y-97484484D01*
X161922649Y-97459432D01*
X161959429Y-97422652D01*
X162013942Y-97394878D01*
X162074374Y-97404449D01*
X162099429Y-97422652D01*
X162524065Y-97847288D01*
X162524066Y-97847288D01*
X162665675Y-97652382D01*
X162665679Y-97652376D01*
X162776440Y-97434994D01*
X162776441Y-97434989D01*
X162776443Y-97434987D01*
X162851834Y-97202959D01*
X162851835Y-97202955D01*
X162890000Y-96961994D01*
X162890000Y-96718004D01*
X162851835Y-96477043D01*
X162851834Y-96477039D01*
X162776442Y-96245008D01*
X162665680Y-96027625D01*
X162665676Y-96027619D01*
X162524065Y-95832710D01*
X162524064Y-95832710D01*
X162099430Y-96257342D01*
X162085460Y-96264459D01*
X162074372Y-96275548D01*
X162058884Y-96278000D01*
X162044914Y-96285119D01*
X162029427Y-96282666D01*
X162013940Y-96285119D01*
X161999967Y-96277999D01*
X161984482Y-96275547D01*
X161959426Y-96257344D01*
X161922653Y-96220571D01*
X161894878Y-96166057D01*
X161904449Y-96105625D01*
X161904450Y-96105624D01*
X161922655Y-96080566D01*
X162318292Y-95684929D01*
X162341751Y-95672976D01*
X162347288Y-95655933D01*
X162347289Y-95655933D01*
X162152374Y-95514319D01*
X162152373Y-95514318D01*
X162152371Y-95514317D01*
X161934994Y-95403559D01*
X161702949Y-95328162D01*
X161461994Y-95290000D01*
X161461991Y-95290000D01*
X161218009Y-95290000D01*
X161218006Y-95290000D01*
X160977049Y-95328162D01*
X160836273Y-95373903D01*
X160745003Y-95403559D01*
X160745000Y-95403560D01*
X160741302Y-95404762D01*
X160740743Y-95403043D01*
X160736574Y-95403369D01*
X160726876Y-95408527D01*
X160725159Y-95408814D01*
X160715352Y-95410366D01*
X160692812Y-95406793D01*
X160686527Y-95407285D01*
X160679116Y-95404622D01*
X160654921Y-95400787D01*
X160611662Y-95357517D01*
X160602095Y-95297103D01*
X160603027Y-95291217D01*
X160615071Y-95257204D01*
X160642984Y-95208859D01*
X160745847Y-94960526D01*
X160815416Y-94700891D01*
X160850500Y-94434397D01*
X160850500Y-94165603D01*
X160815416Y-93899109D01*
X160745847Y-93639474D01*
X160676674Y-93472475D01*
X160642986Y-93391144D01*
X160642983Y-93391139D01*
X160642981Y-93391133D01*
X160642941Y-93391053D01*
X160642572Y-93390427D01*
X160616150Y-93344662D01*
X160605051Y-93315746D01*
X160603337Y-93307683D01*
X160604976Y-93292092D01*
X160603429Y-93284814D01*
X160606455Y-93278015D01*
X160609734Y-93246834D01*
X160650676Y-93201365D01*
X160710525Y-93188646D01*
X160710526Y-93188646D01*
X160717241Y-93189352D01*
X160741239Y-93195446D01*
X160741307Y-93195239D01*
X160744467Y-93196266D01*
X160744767Y-93196342D01*
X160745005Y-93196440D01*
X160977039Y-93271834D01*
X160977043Y-93271835D01*
X161218006Y-93310000D01*
X161461991Y-93310000D01*
X161461994Y-93310000D01*
X161702955Y-93271835D01*
X161702959Y-93271834D01*
X161934987Y-93196443D01*
X161934989Y-93196441D01*
X161934994Y-93196440D01*
X162152376Y-93085679D01*
X162152382Y-93085675D01*
X162347288Y-92944066D01*
X162347288Y-92944065D01*
X162252723Y-92849500D01*
X161922656Y-92519431D01*
X161915538Y-92505461D01*
X161904450Y-92494373D01*
X161901997Y-92478885D01*
X161894879Y-92464915D01*
X161897331Y-92449428D01*
X161894879Y-92433941D01*
X161901997Y-92419970D01*
X161904450Y-92404483D01*
X161922650Y-92379431D01*
X161959429Y-92342652D01*
X162013942Y-92314878D01*
X162074374Y-92324449D01*
X162099429Y-92342652D01*
X162524065Y-92767288D01*
X162524066Y-92767288D01*
X162665675Y-92572382D01*
X162665679Y-92572376D01*
X162776442Y-92354992D01*
X162851835Y-92122954D01*
X162890000Y-91881991D01*
X162890000Y-91638008D01*
X162890000Y-91638004D01*
X162851835Y-91397043D01*
X162851834Y-91397039D01*
X162776443Y-91165011D01*
X162776441Y-91165008D01*
X162776440Y-91165007D01*
X162776440Y-91165005D01*
X162665680Y-90947625D01*
X162665671Y-90947613D01*
X162524065Y-90752710D01*
X162524064Y-90752710D01*
X162099430Y-91177342D01*
X162085460Y-91184459D01*
X162074372Y-91195548D01*
X162058884Y-91198000D01*
X162044914Y-91205119D01*
X162029427Y-91202666D01*
X162013940Y-91205119D01*
X161999967Y-91197999D01*
X161984482Y-91195547D01*
X161959426Y-91177344D01*
X161922652Y-91140570D01*
X161894877Y-91086056D01*
X161904448Y-91025624D01*
X161922655Y-91000565D01*
X162117571Y-90805648D01*
X162347287Y-90575933D01*
X162347286Y-90575932D01*
X162152379Y-90434322D01*
X162152373Y-90434318D01*
X161934994Y-90323559D01*
X161702949Y-90248162D01*
X161461994Y-90210000D01*
X161461991Y-90210000D01*
X161218009Y-90210000D01*
X161218006Y-90210000D01*
X160977049Y-90248162D01*
X160745004Y-90323559D01*
X160527896Y-90434180D01*
X160527637Y-90434309D01*
X160527613Y-90434324D01*
X160332710Y-90575931D01*
X160332710Y-90575932D01*
X160757344Y-91000566D01*
X160764463Y-91014539D01*
X160775550Y-91025626D01*
X160778002Y-91041111D01*
X160785121Y-91055083D01*
X160782668Y-91070570D01*
X160785121Y-91086058D01*
X160778002Y-91100028D01*
X160775550Y-91115515D01*
X160757344Y-91140573D01*
X160757343Y-91140575D01*
X160720573Y-91177344D01*
X160666056Y-91205120D01*
X160605624Y-91195548D01*
X160580567Y-91177343D01*
X160155932Y-90752710D01*
X160155931Y-90752710D01*
X160014324Y-90947613D01*
X160014309Y-90947637D01*
X160014180Y-90947896D01*
X159903559Y-91165004D01*
X159828162Y-91397049D01*
X159790000Y-91638004D01*
X159790000Y-91881994D01*
X159828162Y-92122949D01*
X159828164Y-92122954D01*
X159880405Y-92283736D01*
X159889455Y-92311587D01*
X159889455Y-92315239D01*
X159891386Y-92318337D01*
X159890589Y-92329547D01*
X159899500Y-92347031D01*
X159909077Y-92376508D01*
X159910365Y-92384646D01*
X159906460Y-92409283D01*
X159900789Y-92445073D01*
X159900787Y-92445074D01*
X159900787Y-92445077D01*
X159876669Y-92469189D01*
X159857521Y-92488334D01*
X159857519Y-92488334D01*
X159857517Y-92488337D01*
X159797089Y-92497902D01*
X159791207Y-92496970D01*
X159757202Y-92484927D01*
X159718714Y-92462706D01*
X159708863Y-92457018D01*
X159708845Y-92457009D01*
X159468338Y-92357388D01*
X159468324Y-92357383D01*
X159460531Y-92354155D01*
X159460530Y-92354154D01*
X159460526Y-92354153D01*
X159203755Y-92285351D01*
X159201556Y-92284691D01*
X159196496Y-92283870D01*
X159194452Y-92283736D01*
X158934399Y-92249500D01*
X158934398Y-92249500D01*
X158934397Y-92249500D01*
X158665603Y-92249500D01*
X158665601Y-92249500D01*
X158665599Y-92249500D01*
X158405550Y-92283736D01*
X158405540Y-92283736D01*
X158399113Y-92284582D01*
X158139466Y-92354155D01*
X158139459Y-92354157D01*
X157877397Y-92462706D01*
X157871151Y-92468556D01*
X157844666Y-92483847D01*
X157815751Y-92494946D01*
X157807688Y-92496660D01*
X157792093Y-92495021D01*
X157784817Y-92496568D01*
X157778022Y-92493542D01*
X157746838Y-92490266D01*
X157701367Y-92449326D01*
X157688644Y-92389489D01*
X157688841Y-92387607D01*
X157689185Y-92384330D01*
X157693489Y-92364077D01*
X157696441Y-92354992D01*
X157696442Y-92354992D01*
X157771835Y-92122954D01*
X157810000Y-91881991D01*
X157810000Y-91638008D01*
X157810000Y-91638004D01*
X157771835Y-91397043D01*
X157771834Y-91397039D01*
X157696443Y-91165011D01*
X157696441Y-91165008D01*
X157696440Y-91165007D01*
X157696440Y-91165005D01*
X157585680Y-90947625D01*
X157585671Y-90947613D01*
X157444065Y-90752710D01*
X157444064Y-90752710D01*
X157019430Y-91177342D01*
X157005460Y-91184459D01*
X156994372Y-91195548D01*
X156978884Y-91198000D01*
X156964914Y-91205119D01*
X156949427Y-91202666D01*
X156933940Y-91205119D01*
X156919967Y-91197999D01*
X156904482Y-91195547D01*
X156879426Y-91177344D01*
X156842652Y-91140570D01*
X156814877Y-91086056D01*
X156824448Y-91025624D01*
X156842655Y-91000565D01*
X157037571Y-90805648D01*
X157267287Y-90575933D01*
X157267286Y-90575932D01*
X157072379Y-90434322D01*
X157072373Y-90434318D01*
X156854994Y-90323559D01*
X156622949Y-90248162D01*
X156381994Y-90210000D01*
X156381991Y-90210000D01*
X156138009Y-90210000D01*
X156138006Y-90210000D01*
X155897049Y-90248162D01*
X155665004Y-90323559D01*
X155447896Y-90434180D01*
X155447637Y-90434309D01*
X155447613Y-90434324D01*
X155252710Y-90575931D01*
X155252710Y-90575932D01*
X155677344Y-91000566D01*
X155684462Y-91014537D01*
X155695550Y-91025625D01*
X155698002Y-91041112D01*
X155705121Y-91055083D01*
X155702668Y-91070570D01*
X155705121Y-91086057D01*
X155698002Y-91100027D01*
X155695550Y-91115515D01*
X155677345Y-91140573D01*
X155640574Y-91177344D01*
X155586057Y-91205121D01*
X155525625Y-91195550D01*
X155500566Y-91177344D01*
X155075932Y-90752710D01*
X155075931Y-90752710D01*
X154934324Y-90947613D01*
X154934309Y-90947637D01*
X154934180Y-90947896D01*
X154823559Y-91165004D01*
X154748162Y-91397049D01*
X154710000Y-91638004D01*
X130231256Y-91638004D01*
X130232500Y-91631748D01*
X130232500Y-91340180D01*
X130237343Y-91309594D01*
X130241465Y-91296905D01*
X130277423Y-91247406D01*
X130278110Y-91246908D01*
X130281563Y-91244400D01*
X130339743Y-91225500D01*
X133390289Y-91225500D01*
X133420880Y-91230344D01*
X133444106Y-91237891D01*
X133483517Y-91262042D01*
X133561985Y-91340509D01*
X133562536Y-91340907D01*
X133564538Y-91341984D01*
X133687511Y-91412982D01*
X133687512Y-91412982D01*
X133687515Y-91412984D01*
X133827525Y-91450500D01*
X133827526Y-91450500D01*
X133972474Y-91450500D01*
X133972475Y-91450500D01*
X134112485Y-91412984D01*
X134112486Y-91412983D01*
X134112488Y-91412982D01*
X134112489Y-91412982D01*
X134231880Y-91344051D01*
X134234768Y-91342648D01*
X134235554Y-91342131D01*
X134240563Y-91339037D01*
X134241862Y-91338286D01*
X134247220Y-91331303D01*
X134340509Y-91238015D01*
X134376602Y-91175500D01*
X134412982Y-91112489D01*
X134412982Y-91112487D01*
X134412984Y-91112485D01*
X134450500Y-90972475D01*
X134450500Y-90827525D01*
X134412984Y-90687515D01*
X134410675Y-90683517D01*
X134398925Y-90663163D01*
X134398925Y-90663164D01*
X134398924Y-90663161D01*
X134341504Y-90563708D01*
X134340512Y-90561989D01*
X134340510Y-90561987D01*
X134340509Y-90561985D01*
X134238015Y-90459491D01*
X134238012Y-90459489D01*
X134238010Y-90459487D01*
X134169774Y-90420091D01*
X134148741Y-90396731D01*
X134082897Y-90379087D01*
X134082896Y-90379087D01*
X133972475Y-90349500D01*
X133972473Y-90349500D01*
X133827523Y-90349500D01*
X133765788Y-90366041D01*
X133765787Y-90366040D01*
X133687512Y-90387015D01*
X133687506Y-90387018D01*
X133564721Y-90457908D01*
X133564716Y-90457912D01*
X133561989Y-90459487D01*
X133561988Y-90459488D01*
X133561985Y-90459490D01*
X133561985Y-90459491D01*
X133550198Y-90471277D01*
X133550175Y-90471299D01*
X133487058Y-90534416D01*
X133462002Y-90552620D01*
X133440242Y-90563708D01*
X133395295Y-90574500D01*
X130347180Y-90574500D01*
X130316587Y-90569654D01*
X130303901Y-90565532D01*
X130254401Y-90529568D01*
X130254394Y-90529558D01*
X130251400Y-90525436D01*
X130232500Y-90467256D01*
X130232500Y-90068251D01*
X130232499Y-90068250D01*
X130232498Y-90068241D01*
X130229712Y-90054236D01*
X130229712Y-90054232D01*
X130224642Y-90028752D01*
X130220867Y-90009769D01*
X130176552Y-89943448D01*
X130176548Y-89943445D01*
X130176544Y-89943442D01*
X130110232Y-89899133D01*
X130110227Y-89899131D01*
X130110025Y-89899063D01*
X130108488Y-89898786D01*
X130051768Y-89887503D01*
X130051758Y-89887501D01*
X130051753Y-89887500D01*
X130051750Y-89887500D01*
X130051748Y-89887500D01*
X128488252Y-89887500D01*
X128488251Y-89887500D01*
X128488245Y-89887500D01*
X128429778Y-89899130D01*
X128429763Y-89899135D01*
X128363454Y-89943442D01*
X128363442Y-89943454D01*
X128319135Y-90009763D01*
X128319130Y-90009778D01*
X128307500Y-90068245D01*
X128307500Y-90409819D01*
X128302654Y-90440412D01*
X128298532Y-90453098D01*
X128262580Y-90502589D01*
X128258459Y-90505584D01*
X128200271Y-90524500D01*
X127807180Y-90524500D01*
X127776587Y-90519654D01*
X127763901Y-90515532D01*
X127763896Y-90515529D01*
X127763890Y-90515529D01*
X127763888Y-90515528D01*
X127737269Y-90496182D01*
X127714401Y-90479568D01*
X127714394Y-90479558D01*
X127711400Y-90475436D01*
X127708185Y-90465538D01*
X127692500Y-90417256D01*
X127692500Y-90068251D01*
X127692499Y-90068250D01*
X127692498Y-90068241D01*
X127689712Y-90054236D01*
X127689712Y-90054232D01*
X127684642Y-90028752D01*
X127680867Y-90009769D01*
X127636552Y-89943448D01*
X127636548Y-89943445D01*
X127636544Y-89943442D01*
X127570232Y-89899133D01*
X127570227Y-89899131D01*
X127570025Y-89899063D01*
X127568488Y-89898786D01*
X127511768Y-89887503D01*
X127511758Y-89887501D01*
X127511753Y-89887500D01*
X127511750Y-89887500D01*
X127511748Y-89887500D01*
X125948252Y-89887500D01*
X125948251Y-89887500D01*
X125948245Y-89887500D01*
X125889778Y-89899130D01*
X125889763Y-89899135D01*
X125823454Y-89943442D01*
X125823442Y-89943454D01*
X125779135Y-90009763D01*
X125779130Y-90009778D01*
X125767500Y-90068245D01*
X123654500Y-90068245D01*
X123654500Y-80269180D01*
X123659343Y-80238594D01*
X123663465Y-80225905D01*
X123699423Y-80176406D01*
X123700022Y-80175971D01*
X123703563Y-80173400D01*
X123761743Y-80154500D01*
X173230820Y-80154500D01*
X173261408Y-80159343D01*
G37*
%TD.AperFunction*%
%TD*%
M02*
