%TF.GenerationSoftware,KiCad,Pcbnew,9.0.7+1*%
%TF.CreationDate,2026-02-22T15:29:20+00:00*%
%TF.ProjectId,ADSBAFE01,41445342-4146-4453-9031-2e6b69636164,ADSBAFE01*%
%TF.SameCoordinates,Original*%
%TF.FileFunction,Copper,L1,Top*%
%TF.FilePolarity,Positive*%
%FSLAX46Y46*%
G04 Gerber Fmt 4.6, Leading zero omitted, Abs format (unit mm)*
G04 Created by KiCad (PCBNEW 9.0.7+1) date 2026-02-22 15:29:20*
%MOMM*%
%LPD*%
G01*
G04 APERTURE LIST*
%TA.AperFunction,ComponentPad*%
%ADD10C,6.000000*%
%TD*%
%TA.AperFunction,ComponentPad*%
%ADD11R,1.524000X1.524000*%
%TD*%
%TA.AperFunction,ComponentPad*%
%ADD12C,2.500000*%
%TD*%
%TA.AperFunction,ComponentPad*%
%ADD13C,2.700000*%
%TD*%
%TA.AperFunction,ViaPad*%
%ADD14C,0.700000*%
%TD*%
%TA.AperFunction,Conductor*%
%ADD15C,0.300000*%
%TD*%
%TA.AperFunction,Conductor*%
%ADD16C,0.250000*%
%TD*%
G04 APERTURE END LIST*
D10*
%TO.P,M5,1*%
%TO.N,GND*%
X168640000Y-125140000D03*
%TD*%
D11*
%TO.P,J2,1*%
%TO.N,GND*%
X143260000Y-126440000D03*
%TO.P,J2,2*%
X143260000Y-123900000D03*
%TO.P,J2,3*%
%TO.N,+3V3*%
X145800000Y-126440000D03*
%TO.P,J2,4*%
X145800000Y-123900000D03*
%TO.P,J2,5*%
%TO.N,GND*%
X148340000Y-126440000D03*
%TO.P,J2,6*%
X148340000Y-123900000D03*
%TD*%
D10*
%TO.P,M2,1*%
%TO.N,GND*%
X128000000Y-84500000D03*
%TD*%
%TO.P,M4,1*%
%TO.N,GND*%
X128000000Y-125140000D03*
%TD*%
D12*
%TO.P,J3,1,In*%
%TO.N,/RF_IN*%
X158800000Y-94300000D03*
D13*
%TO.P,J3,2,Ext*%
%TO.N,GND*%
X156260000Y-91760000D03*
X156260000Y-96840000D03*
X161340000Y-91760000D03*
X161340000Y-96840000D03*
%TD*%
D11*
%TO.P,J1,1*%
%TO.N,Net-(J1-Pad1)*%
X126730000Y-90850000D03*
%TO.P,J1,2*%
X129270000Y-90850000D03*
%TO.P,J1,3*%
%TO.N,Net-(J1-Pad3)*%
X126730000Y-93390000D03*
%TO.P,J1,4*%
X129270000Y-93390000D03*
%TO.P,J1,5*%
%TO.N,GND*%
X126730000Y-95930000D03*
%TO.P,J1,6*%
X129270000Y-95930000D03*
%TO.P,J1,7*%
%TO.N,Net-(J1-Pad7)*%
X126730000Y-98470000D03*
%TO.P,J1,8*%
X129270000Y-98470000D03*
%TO.P,J1,9*%
%TO.N,Net-(J1-Pad10)*%
X126730000Y-101010000D03*
%TO.P,J1,10*%
X129270000Y-101010000D03*
%TO.P,J1,11*%
%TO.N,GND*%
X126730000Y-103550000D03*
%TO.P,J1,12*%
X129270000Y-103550000D03*
%TO.P,J1,13*%
%TO.N,Net-(J1-Pad13)*%
X126730000Y-106090000D03*
%TO.P,J1,14*%
X129270000Y-106090000D03*
%TO.P,J1,15*%
%TO.N,Net-(J1-Pad15)*%
X126730000Y-108630000D03*
%TO.P,J1,16*%
X129270000Y-108630000D03*
%TO.P,J1,17*%
%TO.N,Net-(J1-Pad17)*%
X126730000Y-111170000D03*
%TO.P,J1,18*%
X129270000Y-111170000D03*
%TO.P,J1,19*%
%TO.N,GND*%
X126730000Y-113710000D03*
%TO.P,J1,20*%
X129270000Y-113710000D03*
%TO.P,J1,21*%
%TO.N,Net-(J1-Pad21)*%
X126730000Y-116250000D03*
%TO.P,J1,22*%
X129270000Y-116250000D03*
%TO.P,J1,23*%
%TO.N,Net-(J1-Pad23)*%
X126730000Y-118790000D03*
%TO.P,J1,24*%
X129270000Y-118790000D03*
%TD*%
D10*
%TO.P,M3,1*%
%TO.N,GND*%
X168640000Y-84500000D03*
%TD*%
D14*
%TO.N,+3V3*%
X133900000Y-117300000D03*
X145800000Y-119400000D03*
X147900000Y-119400000D03*
X139300000Y-104700000D03*
X146500000Y-99950000D03*
X143500000Y-119400000D03*
X161500000Y-102600000D03*
X162200000Y-114200000D03*
X140700000Y-102837500D03*
X144800000Y-108900000D03*
X133900000Y-115700000D03*
X144720000Y-103400000D03*
X156800000Y-114200000D03*
%TO.N,GND*%
X131200000Y-97700000D03*
X148300000Y-121900000D03*
X153400000Y-87700000D03*
X172700000Y-114200000D03*
X151400000Y-87700000D03*
X149400000Y-93100000D03*
X172700000Y-104200000D03*
X161400000Y-104300000D03*
X147700000Y-80800000D03*
X131200000Y-99700000D03*
X156400000Y-101700000D03*
X143900000Y-104000000D03*
X155400000Y-121900000D03*
X153440000Y-91900000D03*
X157700000Y-129200000D03*
X124300000Y-99200000D03*
X152700000Y-129200000D03*
X157700000Y-80800000D03*
X142100000Y-112200000D03*
X154000000Y-108300000D03*
X165400000Y-93700000D03*
X165400000Y-89700000D03*
X129300000Y-129200000D03*
X124300000Y-124200000D03*
X145000000Y-114500000D03*
X157400000Y-121900000D03*
X147620000Y-102300000D03*
X160700000Y-116800000D03*
X172700000Y-80800000D03*
X172700000Y-99200000D03*
X152200000Y-105500000D03*
X145800000Y-114800000D03*
X149400000Y-91100000D03*
X140000000Y-113500000D03*
X149400000Y-90100000D03*
X165400000Y-113900000D03*
X143200000Y-87700000D03*
X172700000Y-124200000D03*
X147700000Y-129200000D03*
X159900000Y-116800000D03*
X139200000Y-121900000D03*
X139300000Y-129200000D03*
X149300000Y-80800000D03*
X163400000Y-87700000D03*
X155600000Y-107600000D03*
X149400000Y-99100000D03*
X162200000Y-106400000D03*
X165400000Y-105900000D03*
X131200000Y-111900000D03*
X141200000Y-121900000D03*
X154000000Y-118600000D03*
X143500000Y-113300000D03*
X149400000Y-95100000D03*
X161400000Y-87700000D03*
X149400000Y-101100000D03*
X149400000Y-100100000D03*
X172700000Y-119200000D03*
X154000000Y-110300000D03*
X131200000Y-121900000D03*
X172700000Y-89200000D03*
X147200000Y-121900000D03*
X152800000Y-106100000D03*
X150600000Y-96500000D03*
X154000000Y-111300000D03*
X124300000Y-105800000D03*
X165400000Y-109900000D03*
X124300000Y-109200000D03*
X159400000Y-87700000D03*
X131200000Y-92100000D03*
X149400000Y-98100000D03*
X152300000Y-92800000D03*
X167700000Y-129200000D03*
X155400000Y-87700000D03*
X131200000Y-89700000D03*
X135200000Y-121900000D03*
X124300000Y-104200000D03*
X141200000Y-87700000D03*
X165400000Y-111900000D03*
X139200000Y-87700000D03*
X161300000Y-115400000D03*
X144300000Y-129200000D03*
X154100000Y-97800000D03*
X149400000Y-121900000D03*
X172700000Y-105800000D03*
X154000000Y-117600000D03*
X124300000Y-84200000D03*
X153140000Y-96500000D03*
X137200000Y-121900000D03*
X131200000Y-113900000D03*
X124300000Y-89200000D03*
X165400000Y-95700000D03*
X150300000Y-113400000D03*
X124300000Y-80800000D03*
X150400000Y-103700000D03*
X154000000Y-113300000D03*
X153400000Y-106700000D03*
X131200000Y-119900000D03*
X139300000Y-80800000D03*
X149400000Y-97100000D03*
X165400000Y-87700000D03*
X149400000Y-94100000D03*
X143200000Y-121900000D03*
X131200000Y-104800000D03*
X124300000Y-114200000D03*
X165400000Y-104800000D03*
X165400000Y-99700000D03*
X153400000Y-121900000D03*
X138100000Y-92200000D03*
X131200000Y-87700000D03*
X147900000Y-114800000D03*
X149300000Y-116100000D03*
X133200000Y-87700000D03*
X144400000Y-116000000D03*
X165400000Y-121900000D03*
X124300000Y-94200000D03*
X154000000Y-115300000D03*
X141100000Y-104800000D03*
X149300000Y-129200000D03*
X165400000Y-119900000D03*
X131200000Y-117600000D03*
X129300000Y-80800000D03*
X131200000Y-95800000D03*
X172700000Y-84200000D03*
X147200000Y-87700000D03*
X151400000Y-121900000D03*
X154100000Y-100825000D03*
X131200000Y-103200000D03*
X154000000Y-107300000D03*
X162700000Y-80800000D03*
X163400000Y-121900000D03*
X172700000Y-94200000D03*
X172700000Y-129200000D03*
X148900000Y-108900000D03*
X150100000Y-102900000D03*
X162700000Y-129200000D03*
X142000000Y-114500000D03*
X131200000Y-115500000D03*
X124300000Y-119200000D03*
X150600000Y-102100000D03*
X165400000Y-117900000D03*
X145200000Y-121900000D03*
X154000000Y-112300000D03*
X135200000Y-87700000D03*
X133200000Y-121900000D03*
X131200000Y-94100000D03*
X148800000Y-103400000D03*
X148300000Y-87700000D03*
X138100000Y-95400000D03*
X165400000Y-101700000D03*
X151600000Y-104900000D03*
X131200000Y-101700000D03*
X149400000Y-87700000D03*
X158900000Y-101600000D03*
X146500000Y-101700000D03*
X157700000Y-105100000D03*
X134300000Y-80800000D03*
X142840000Y-91200000D03*
X165400000Y-103700000D03*
X154000000Y-114300000D03*
X165400000Y-91700000D03*
X152700000Y-80800000D03*
X159400000Y-121900000D03*
X124300000Y-129200000D03*
X156700000Y-105100000D03*
X145200000Y-87700000D03*
X131200000Y-109900000D03*
X144300000Y-80800000D03*
X172700000Y-109200000D03*
X167700000Y-80800000D03*
X157400000Y-87700000D03*
X165400000Y-97700000D03*
X154000000Y-109300000D03*
X153600000Y-116900000D03*
X151000000Y-104300000D03*
X137200000Y-87700000D03*
X165400000Y-115900000D03*
X165400000Y-107900000D03*
X131200000Y-107400000D03*
X149400000Y-92100000D03*
X149400000Y-96100000D03*
X143100000Y-102800000D03*
X141000000Y-113300000D03*
X134300000Y-129200000D03*
X161400000Y-121900000D03*
X149700000Y-102100000D03*
X161400000Y-106200000D03*
%TO.N,/I2C1_SDA*%
X148197500Y-106900000D03*
X138100000Y-114400000D03*
%TO.N,/I2C1_SCL*%
X138100000Y-113200000D03*
X148200000Y-104900000D03*
%TO.N,Net-(J1-Pad23)*%
X133900000Y-118900000D03*
%TO.N,Net-(J1-Pad13)*%
X133900000Y-106100000D03*
%TO.N,Net-(J1-Pad1)*%
X133900000Y-90900000D03*
%TO.N,Net-(J1-Pad3)*%
X133900000Y-93400000D03*
%TO.N,Net-(J1-Pad15)*%
X133900000Y-108600000D03*
%TO.N,Net-(J1-Pad7)*%
X133900000Y-98500000D03*
%TO.N,Net-(J1-Pad21)*%
X133900000Y-114100000D03*
%TO.N,Net-(J1-Pad17)*%
X133900000Y-111200000D03*
%TO.N,Net-(J1-Pad10)*%
X133900000Y-101000000D03*
%TD*%
D15*
%TO.N,+3V3*%
X143587500Y-99950000D02*
X146500000Y-99950000D01*
X141000000Y-119400000D02*
X143500000Y-119400000D01*
X139300000Y-110400000D02*
X137100000Y-112600000D01*
X139300000Y-104237500D02*
X140700000Y-102837500D01*
X140700000Y-102837500D02*
X142518750Y-101018750D01*
X139300000Y-104700000D02*
X139300000Y-110400000D01*
X162200000Y-114200000D02*
X156800000Y-114200000D01*
X144720000Y-103400000D02*
X142518750Y-101198750D01*
X163400000Y-104500000D02*
X163400000Y-113000000D01*
X137100000Y-112600000D02*
X137100000Y-115500000D01*
X142518750Y-101198750D02*
X142518750Y-101018750D01*
X140800000Y-108900000D02*
X144800000Y-108900000D01*
X161500000Y-102600000D02*
X163400000Y-104500000D01*
X133900000Y-117300000D02*
X133900000Y-115700000D01*
X137100000Y-115500000D02*
X138900000Y-117300000D01*
X138900000Y-117300000D02*
X133900000Y-117300000D01*
X139300000Y-104700000D02*
X139300000Y-104237500D01*
X138900000Y-117300000D02*
X141000000Y-119400000D01*
X142518750Y-101018750D02*
X143587500Y-99950000D01*
X144720000Y-108820000D02*
X144800000Y-108900000D01*
X163400000Y-113000000D02*
X162200000Y-114200000D01*
X139300000Y-110400000D02*
X140800000Y-108900000D01*
D16*
%TO.N,/I2C1_SDA*%
X148197500Y-108702500D02*
X148197500Y-106900000D01*
X146300000Y-110600000D02*
X148197500Y-108702500D01*
X141900000Y-110600000D02*
X146300000Y-110600000D01*
X138100000Y-114400000D02*
X141900000Y-110600000D01*
%TO.N,/I2C1_SCL*%
X138100000Y-113200000D02*
X141500000Y-109800000D01*
X147300000Y-105800000D02*
X148200000Y-104900000D01*
X147300000Y-108500000D02*
X147300000Y-105800000D01*
X141500000Y-109800000D02*
X146000000Y-109800000D01*
X146000000Y-109800000D02*
X147300000Y-108500000D01*
%TO.N,Net-(J1-Pad23)*%
X133790000Y-118790000D02*
X133900000Y-118900000D01*
X129270000Y-118790000D02*
X133790000Y-118790000D01*
X126730000Y-118790000D02*
X129270000Y-118790000D01*
%TO.N,Net-(J1-Pad13)*%
X129280000Y-106100000D02*
X129270000Y-106090000D01*
X126730000Y-106090000D02*
X129270000Y-106090000D01*
X133800000Y-106100000D02*
X129280000Y-106100000D01*
%TO.N,Net-(J1-Pad1)*%
X129320000Y-90900000D02*
X129270000Y-90850000D01*
X126730000Y-90850000D02*
X129270000Y-90850000D01*
X133800000Y-90900000D02*
X129320000Y-90900000D01*
%TO.N,Net-(J1-Pad3)*%
X126730000Y-93390000D02*
X129270000Y-93390000D01*
X129280000Y-93400000D02*
X129270000Y-93390000D01*
X133800000Y-93400000D02*
X129280000Y-93400000D01*
%TO.N,Net-(J1-Pad15)*%
X133800000Y-108600000D02*
X129300000Y-108600000D01*
X126730000Y-108630000D02*
X129270000Y-108630000D01*
X129380000Y-108580000D02*
X129260000Y-108460000D01*
X129300000Y-108600000D02*
X129270000Y-108630000D01*
%TO.N,Net-(J1-Pad7)*%
X129300000Y-98500000D02*
X129270000Y-98470000D01*
X133800000Y-98500000D02*
X129300000Y-98500000D01*
X126730000Y-98470000D02*
X129270000Y-98470000D01*
X129440000Y-98480000D02*
X129260000Y-98300000D01*
%TO.N,Net-(J1-Pad21)*%
X133900000Y-114100000D02*
X131750000Y-116250000D01*
X131750000Y-116250000D02*
X129270000Y-116250000D01*
X129270000Y-116250000D02*
X126730000Y-116250000D01*
%TO.N,Net-(J1-Pad17)*%
X126730000Y-111170000D02*
X129270000Y-111170000D01*
X129270000Y-111170000D02*
X133870000Y-111170000D01*
X133870000Y-111170000D02*
X133900000Y-111200000D01*
%TO.N,Net-(J1-Pad10)*%
X126730000Y-101010000D02*
X129270000Y-101010000D01*
X133800000Y-101000000D02*
X129280000Y-101000000D01*
X129280000Y-101000000D02*
X129270000Y-101010000D01*
%TD*%
%TA.AperFunction,Conductor*%
%TO.N,+3V3*%
G36*
X148017183Y-118718907D02*
G01*
X148028996Y-118728996D01*
X148471004Y-119171004D01*
X148498781Y-119225521D01*
X148500000Y-119241008D01*
X148500000Y-119958992D01*
X148481093Y-120017183D01*
X148471004Y-120028996D01*
X147177666Y-121322333D01*
X147133286Y-121347955D01*
X146987515Y-121387015D01*
X146987511Y-121387017D01*
X146861989Y-121459487D01*
X146759487Y-121561989D01*
X146687017Y-121687510D01*
X146649500Y-121827525D01*
X146649500Y-121972474D01*
X146687017Y-122112489D01*
X146759487Y-122238010D01*
X146759489Y-122238012D01*
X146759491Y-122238015D01*
X146861985Y-122340509D01*
X146950500Y-122391613D01*
X146991441Y-122437081D01*
X147000000Y-122477349D01*
X147000000Y-127101000D01*
X146995155Y-127115911D01*
X146995155Y-127131593D01*
X146985938Y-127144278D01*
X146981093Y-127159191D01*
X146968407Y-127168407D01*
X146959191Y-127181093D01*
X146944278Y-127185938D01*
X146931593Y-127195155D01*
X146901000Y-127200000D01*
X146861000Y-127200000D01*
X146802809Y-127181093D01*
X146766845Y-127131593D01*
X146762000Y-127101000D01*
X146762000Y-126565001D01*
X146761999Y-126565000D01*
X146226687Y-126565000D01*
X146244500Y-126498520D01*
X146244500Y-126381480D01*
X146226687Y-126315000D01*
X146761999Y-126315000D01*
X146762000Y-126314999D01*
X146762000Y-125658302D01*
X146761999Y-125658299D01*
X146750396Y-125599963D01*
X146706193Y-125533810D01*
X146706189Y-125533806D01*
X146640036Y-125489603D01*
X146581700Y-125478000D01*
X145925001Y-125478000D01*
X145925000Y-125478001D01*
X145925000Y-126013313D01*
X145858520Y-125995500D01*
X145741480Y-125995500D01*
X145675000Y-126013313D01*
X145675000Y-125478001D01*
X145674999Y-125478000D01*
X145018299Y-125478000D01*
X144959963Y-125489603D01*
X144893810Y-125533806D01*
X144893806Y-125533810D01*
X144849603Y-125599963D01*
X144838000Y-125658299D01*
X144838000Y-126314999D01*
X144838001Y-126315000D01*
X145373313Y-126315000D01*
X145355500Y-126381480D01*
X145355500Y-126498520D01*
X145373313Y-126565000D01*
X144838001Y-126565000D01*
X144838000Y-126565001D01*
X144838000Y-127101000D01*
X144833155Y-127115911D01*
X144833155Y-127131593D01*
X144823938Y-127144278D01*
X144819093Y-127159191D01*
X144806407Y-127168407D01*
X144797191Y-127181093D01*
X144782278Y-127185938D01*
X144769593Y-127195155D01*
X144739000Y-127200000D01*
X144699000Y-127200000D01*
X144640809Y-127181093D01*
X144604845Y-127131593D01*
X144600000Y-127101000D01*
X144600000Y-123118299D01*
X144838000Y-123118299D01*
X144838000Y-123774999D01*
X144838001Y-123775000D01*
X145373313Y-123775000D01*
X145355500Y-123841480D01*
X145355500Y-123958520D01*
X145373313Y-124025000D01*
X144838001Y-124025000D01*
X144838000Y-124025001D01*
X144838000Y-124681700D01*
X144849603Y-124740036D01*
X144893806Y-124806189D01*
X144893810Y-124806193D01*
X144959963Y-124850396D01*
X145018299Y-124861999D01*
X145018303Y-124862000D01*
X145674999Y-124862000D01*
X145675000Y-124861999D01*
X145675000Y-124326686D01*
X145741480Y-124344500D01*
X145858520Y-124344500D01*
X145925000Y-124326686D01*
X145925000Y-124861999D01*
X145925001Y-124862000D01*
X146581697Y-124862000D01*
X146581700Y-124861999D01*
X146640036Y-124850396D01*
X146706189Y-124806193D01*
X146706193Y-124806189D01*
X146750396Y-124740036D01*
X146761999Y-124681700D01*
X146762000Y-124681697D01*
X146762000Y-124025001D01*
X146761999Y-124025000D01*
X146226687Y-124025000D01*
X146244500Y-123958520D01*
X146244500Y-123841480D01*
X146226687Y-123775000D01*
X146761999Y-123775000D01*
X146762000Y-123774999D01*
X146762000Y-123118302D01*
X146761999Y-123118299D01*
X146750396Y-123059963D01*
X146706193Y-122993810D01*
X146706189Y-122993806D01*
X146640036Y-122949603D01*
X146581700Y-122938000D01*
X145925001Y-122938000D01*
X145925000Y-122938001D01*
X145925000Y-123473313D01*
X145858520Y-123455500D01*
X145741480Y-123455500D01*
X145675000Y-123473313D01*
X145675000Y-122938001D01*
X145674999Y-122938000D01*
X145018299Y-122938000D01*
X144959963Y-122949603D01*
X144893810Y-122993806D01*
X144893806Y-122993810D01*
X144849603Y-123059963D01*
X144838000Y-123118299D01*
X144600000Y-123118299D01*
X144600000Y-122317531D01*
X144618907Y-122259340D01*
X144668407Y-122223376D01*
X144729593Y-122223376D01*
X144769001Y-122247525D01*
X144861985Y-122340509D01*
X144861987Y-122340510D01*
X144861989Y-122340512D01*
X144987511Y-122412982D01*
X144987512Y-122412982D01*
X144987515Y-122412984D01*
X145127525Y-122450500D01*
X145127526Y-122450500D01*
X145272474Y-122450500D01*
X145272475Y-122450500D01*
X145412485Y-122412984D01*
X145412487Y-122412982D01*
X145412489Y-122412982D01*
X145538010Y-122340512D01*
X145538010Y-122340511D01*
X145538015Y-122340509D01*
X145640509Y-122238015D01*
X145712984Y-122112485D01*
X145750500Y-121972475D01*
X145750500Y-121827525D01*
X145712984Y-121687515D01*
X145712982Y-121687512D01*
X145712982Y-121687510D01*
X145640512Y-121561989D01*
X145640510Y-121561987D01*
X145640509Y-121561985D01*
X145538015Y-121459491D01*
X145538012Y-121459489D01*
X145538010Y-121459487D01*
X145412488Y-121387017D01*
X145412489Y-121387017D01*
X145382896Y-121379087D01*
X145272475Y-121349500D01*
X145127525Y-121349500D01*
X145065790Y-121366041D01*
X144987510Y-121387017D01*
X144861989Y-121459487D01*
X144861988Y-121459488D01*
X144861985Y-121459490D01*
X144861985Y-121459491D01*
X144769001Y-121552474D01*
X144714487Y-121580250D01*
X144654055Y-121570679D01*
X144610790Y-121527414D01*
X144608482Y-121517801D01*
X144607536Y-121518194D01*
X144600000Y-121500001D01*
X144600000Y-121500000D01*
X143128996Y-120028996D01*
X143101219Y-119974479D01*
X143100000Y-119958992D01*
X143100000Y-119241008D01*
X143118907Y-119182817D01*
X143128996Y-119171004D01*
X143571004Y-118728996D01*
X143625521Y-118701219D01*
X143641008Y-118700000D01*
X147958992Y-118700000D01*
X148017183Y-118718907D01*
G37*
%TD.AperFunction*%
%TD*%
%TA.AperFunction,Conductor*%
%TO.N,GND*%
G36*
X173304691Y-80173407D02*
G01*
X173340655Y-80222907D01*
X173345500Y-80253500D01*
X173345500Y-129746499D01*
X173326593Y-129804690D01*
X173277093Y-129840654D01*
X173246500Y-129845499D01*
X123753500Y-129845499D01*
X123695309Y-129826592D01*
X123659345Y-129777092D01*
X123654500Y-129746499D01*
X123654500Y-118008253D01*
X125767500Y-118008253D01*
X125767500Y-119571746D01*
X125767501Y-119571758D01*
X125779132Y-119630227D01*
X125779134Y-119630233D01*
X125812702Y-119680470D01*
X125823448Y-119696552D01*
X125889769Y-119740867D01*
X125934231Y-119749711D01*
X125948241Y-119752498D01*
X125948246Y-119752498D01*
X125948252Y-119752500D01*
X125948253Y-119752500D01*
X127511747Y-119752500D01*
X127511748Y-119752500D01*
X127570231Y-119740867D01*
X127636552Y-119696552D01*
X127680867Y-119630231D01*
X127692500Y-119571748D01*
X127692500Y-119214500D01*
X127711407Y-119156309D01*
X127760907Y-119120345D01*
X127791500Y-119115500D01*
X128208500Y-119115500D01*
X128266691Y-119134407D01*
X128302655Y-119183907D01*
X128307500Y-119214500D01*
X128307500Y-119571746D01*
X128307501Y-119571758D01*
X128319132Y-119630227D01*
X128319134Y-119630233D01*
X128352702Y-119680470D01*
X128363448Y-119696552D01*
X128429769Y-119740867D01*
X128474231Y-119749711D01*
X128488241Y-119752498D01*
X128488246Y-119752498D01*
X128488252Y-119752500D01*
X128488253Y-119752500D01*
X130051747Y-119752500D01*
X130051748Y-119752500D01*
X130110231Y-119740867D01*
X130176552Y-119696552D01*
X130220867Y-119630231D01*
X130232500Y-119571748D01*
X130232500Y-119214500D01*
X130251407Y-119156309D01*
X130300907Y-119120345D01*
X130331500Y-119115500D01*
X133331599Y-119115500D01*
X133389790Y-119134407D01*
X133417335Y-119164999D01*
X133459491Y-119238015D01*
X133561985Y-119340509D01*
X133561987Y-119340510D01*
X133561989Y-119340512D01*
X133687511Y-119412982D01*
X133687512Y-119412982D01*
X133687515Y-119412984D01*
X133827525Y-119450500D01*
X133827526Y-119450500D01*
X133972474Y-119450500D01*
X133972475Y-119450500D01*
X134112485Y-119412984D01*
X134112487Y-119412982D01*
X134112489Y-119412982D01*
X134238010Y-119340512D01*
X134238010Y-119340511D01*
X134238015Y-119340509D01*
X134340509Y-119238015D01*
X134348095Y-119224876D01*
X134412982Y-119112489D01*
X134412982Y-119112487D01*
X134412984Y-119112485D01*
X134450500Y-118972475D01*
X134450500Y-118827525D01*
X134412984Y-118687515D01*
X134412982Y-118687512D01*
X134412982Y-118687510D01*
X134340512Y-118561989D01*
X134340510Y-118561987D01*
X134340509Y-118561985D01*
X134238015Y-118459491D01*
X134238012Y-118459489D01*
X134238010Y-118459487D01*
X134112488Y-118387017D01*
X134112489Y-118387017D01*
X134032187Y-118365500D01*
X133972475Y-118349500D01*
X133827525Y-118349500D01*
X133767813Y-118365500D01*
X133687510Y-118387017D01*
X133576282Y-118451236D01*
X133526782Y-118464500D01*
X130331500Y-118464500D01*
X130273309Y-118445593D01*
X130237345Y-118396093D01*
X130232500Y-118365500D01*
X130232500Y-118008253D01*
X130232498Y-118008241D01*
X130229711Y-117994231D01*
X130220867Y-117949769D01*
X130176552Y-117883448D01*
X130127243Y-117850500D01*
X130110233Y-117839134D01*
X130110231Y-117839133D01*
X130110228Y-117839132D01*
X130110227Y-117839132D01*
X130051758Y-117827501D01*
X130051748Y-117827500D01*
X128488252Y-117827500D01*
X128488251Y-117827500D01*
X128488241Y-117827501D01*
X128429772Y-117839132D01*
X128429766Y-117839134D01*
X128363451Y-117883445D01*
X128363445Y-117883451D01*
X128319134Y-117949766D01*
X128319132Y-117949772D01*
X128307501Y-118008241D01*
X128307500Y-118008253D01*
X128307500Y-118365500D01*
X128288593Y-118423691D01*
X128239093Y-118459655D01*
X128208500Y-118464500D01*
X127791500Y-118464500D01*
X127733309Y-118445593D01*
X127697345Y-118396093D01*
X127692500Y-118365500D01*
X127692500Y-118008253D01*
X127692498Y-118008241D01*
X127689711Y-117994231D01*
X127680867Y-117949769D01*
X127636552Y-117883448D01*
X127587243Y-117850500D01*
X127570233Y-117839134D01*
X127570231Y-117839133D01*
X127570228Y-117839132D01*
X127570227Y-117839132D01*
X127511758Y-117827501D01*
X127511748Y-117827500D01*
X125948252Y-117827500D01*
X125948251Y-117827500D01*
X125948241Y-117827501D01*
X125889772Y-117839132D01*
X125889766Y-117839134D01*
X125823451Y-117883445D01*
X125823445Y-117883451D01*
X125779134Y-117949766D01*
X125779132Y-117949772D01*
X125767501Y-118008241D01*
X125767500Y-118008253D01*
X123654500Y-118008253D01*
X123654500Y-115468253D01*
X125767500Y-115468253D01*
X125767500Y-117031746D01*
X125767501Y-117031758D01*
X125778592Y-117087510D01*
X125779133Y-117090231D01*
X125823448Y-117156552D01*
X125889769Y-117200867D01*
X125934231Y-117209711D01*
X125948241Y-117212498D01*
X125948246Y-117212498D01*
X125948252Y-117212500D01*
X125948253Y-117212500D01*
X127511747Y-117212500D01*
X127511748Y-117212500D01*
X127570231Y-117200867D01*
X127636552Y-117156552D01*
X127680867Y-117090231D01*
X127692500Y-117031748D01*
X127692500Y-116674500D01*
X127711407Y-116616309D01*
X127760907Y-116580345D01*
X127791500Y-116575500D01*
X128208500Y-116575500D01*
X128266691Y-116594407D01*
X128302655Y-116643907D01*
X128307500Y-116674500D01*
X128307500Y-117031746D01*
X128307501Y-117031758D01*
X128318592Y-117087510D01*
X128319133Y-117090231D01*
X128363448Y-117156552D01*
X128429769Y-117200867D01*
X128474231Y-117209711D01*
X128488241Y-117212498D01*
X128488246Y-117212498D01*
X128488252Y-117212500D01*
X128488253Y-117212500D01*
X130051747Y-117212500D01*
X130051748Y-117212500D01*
X130110231Y-117200867D01*
X130176552Y-117156552D01*
X130220867Y-117090231D01*
X130232500Y-117031748D01*
X130232500Y-116674500D01*
X130251407Y-116616309D01*
X130300907Y-116580345D01*
X130331500Y-116575500D01*
X131792851Y-116575500D01*
X131792853Y-116575500D01*
X131875639Y-116553318D01*
X131875641Y-116553316D01*
X131875643Y-116553316D01*
X131949857Y-116510468D01*
X131949857Y-116510467D01*
X131949862Y-116510465D01*
X132832801Y-115627525D01*
X133349500Y-115627525D01*
X133349500Y-115772474D01*
X133387017Y-115912489D01*
X133459487Y-116038010D01*
X133459489Y-116038012D01*
X133459491Y-116038015D01*
X133520505Y-116099029D01*
X133548281Y-116153544D01*
X133549500Y-116169031D01*
X133549500Y-116830968D01*
X133530593Y-116889159D01*
X133520504Y-116900971D01*
X133459491Y-116961984D01*
X133459487Y-116961989D01*
X133387017Y-117087510D01*
X133349500Y-117227525D01*
X133349500Y-117372474D01*
X133387017Y-117512489D01*
X133459487Y-117638010D01*
X133459489Y-117638012D01*
X133459491Y-117638015D01*
X133561985Y-117740509D01*
X133561987Y-117740510D01*
X133561989Y-117740512D01*
X133687511Y-117812982D01*
X133687512Y-117812982D01*
X133687515Y-117812984D01*
X133827525Y-117850500D01*
X133827526Y-117850500D01*
X133972474Y-117850500D01*
X133972475Y-117850500D01*
X134112485Y-117812984D01*
X134112487Y-117812982D01*
X134112489Y-117812982D01*
X134238010Y-117740512D01*
X134238010Y-117740511D01*
X134238015Y-117740509D01*
X134268522Y-117710002D01*
X134299029Y-117679496D01*
X134353546Y-117651719D01*
X134369032Y-117650500D01*
X138713810Y-117650500D01*
X138772001Y-117669407D01*
X138783814Y-117679496D01*
X140784787Y-119680469D01*
X140854088Y-119720480D01*
X140864712Y-119726614D01*
X140953856Y-119750500D01*
X142795500Y-119750500D01*
X142853691Y-119769407D01*
X142889655Y-119818907D01*
X142894500Y-119849500D01*
X142894500Y-119958992D01*
X142894943Y-119970279D01*
X142895134Y-119975123D01*
X142896353Y-119990602D01*
X142896354Y-119990607D01*
X142918115Y-120067769D01*
X142918117Y-120067775D01*
X142945894Y-120122291D01*
X142983681Y-120174300D01*
X142983683Y-120174302D01*
X142983686Y-120174306D01*
X144277022Y-121467642D01*
X144422017Y-121612637D01*
X144431713Y-121623914D01*
X144435527Y-121629091D01*
X144440062Y-121637285D01*
X144444446Y-121641195D01*
X144450563Y-121649496D01*
X144451205Y-121651429D01*
X144454687Y-121655548D01*
X144465480Y-121672724D01*
X144508745Y-121715989D01*
X144537027Y-121739601D01*
X144621909Y-121773649D01*
X144621914Y-121773649D01*
X144621915Y-121773650D01*
X144658328Y-121779417D01*
X144682341Y-121783220D01*
X144719097Y-121785698D01*
X144793982Y-121766829D01*
X144807778Y-121763353D01*
X144807778Y-121763352D01*
X144807781Y-121763352D01*
X144862295Y-121735576D01*
X144914311Y-121697785D01*
X144978955Y-121633140D01*
X144999453Y-121617413D01*
X145055548Y-121585025D01*
X145079418Y-121575138D01*
X145118980Y-121564538D01*
X145118979Y-121564537D01*
X145141988Y-121558373D01*
X145167610Y-121555000D01*
X145232384Y-121555000D01*
X145258006Y-121558373D01*
X145304978Y-121570958D01*
X145320573Y-121575137D01*
X145320581Y-121575139D01*
X145344454Y-121585027D01*
X145400547Y-121617413D01*
X145421041Y-121633138D01*
X145466862Y-121678959D01*
X145482583Y-121699448D01*
X145514972Y-121755548D01*
X145524858Y-121779415D01*
X145525877Y-121783218D01*
X145541626Y-121841988D01*
X145545000Y-121867613D01*
X145545000Y-121932385D01*
X145541626Y-121958009D01*
X145524861Y-122020574D01*
X145514971Y-122044450D01*
X145482583Y-122100547D01*
X145466851Y-122121051D01*
X145421049Y-122166853D01*
X145400546Y-122182585D01*
X145377592Y-122195838D01*
X145346745Y-122213648D01*
X145344455Y-122214970D01*
X145320578Y-122224860D01*
X145258010Y-122241626D01*
X145232386Y-122245000D01*
X145167617Y-122245000D01*
X145141993Y-122241626D01*
X145079421Y-122224859D01*
X145055547Y-122214970D01*
X144999450Y-122182583D01*
X144978951Y-122166853D01*
X144914310Y-122102213D01*
X144902732Y-122093086D01*
X144876374Y-122072307D01*
X144836966Y-122048158D01*
X144836961Y-122048155D01*
X144818754Y-122038226D01*
X144729593Y-122017876D01*
X144668407Y-122017876D01*
X144668389Y-122017876D01*
X144631717Y-122021178D01*
X144631715Y-122021178D01*
X144631713Y-122021179D01*
X144591827Y-122038227D01*
X144547614Y-122057124D01*
X144498118Y-122093086D01*
X144470372Y-122117328D01*
X144423464Y-122195838D01*
X144423462Y-122195841D01*
X144404556Y-122254030D01*
X144394500Y-122317527D01*
X144394500Y-123009135D01*
X144375593Y-123067326D01*
X144326093Y-123103290D01*
X144264907Y-123103290D01*
X144215407Y-123067326D01*
X144213185Y-123064137D01*
X144166194Y-122993811D01*
X144166189Y-122993806D01*
X144100036Y-122949603D01*
X144041700Y-122938000D01*
X143385001Y-122938000D01*
X143385000Y-122938001D01*
X143385000Y-123473313D01*
X143318520Y-123455500D01*
X143201480Y-123455500D01*
X143135000Y-123473313D01*
X143135000Y-122938001D01*
X143134999Y-122938000D01*
X142478299Y-122938000D01*
X142419963Y-122949603D01*
X142353810Y-122993806D01*
X142353806Y-122993810D01*
X142309603Y-123059963D01*
X142298000Y-123118299D01*
X142298000Y-123774999D01*
X142298001Y-123775000D01*
X142833313Y-123775000D01*
X142815500Y-123841480D01*
X142815500Y-123958520D01*
X142833313Y-124025000D01*
X142298001Y-124025000D01*
X142298000Y-124025001D01*
X142298000Y-124681700D01*
X142309603Y-124740036D01*
X142353806Y-124806189D01*
X142353810Y-124806193D01*
X142419963Y-124850396D01*
X142478299Y-124861999D01*
X142478303Y-124862000D01*
X143134999Y-124862000D01*
X143135000Y-124861999D01*
X143135000Y-124326686D01*
X143201480Y-124344500D01*
X143318520Y-124344500D01*
X143385000Y-124326686D01*
X143385000Y-124861999D01*
X143385001Y-124862000D01*
X144041697Y-124862000D01*
X144041700Y-124861999D01*
X144100036Y-124850396D01*
X144166189Y-124806193D01*
X144166193Y-124806189D01*
X144213185Y-124735862D01*
X144261234Y-124697983D01*
X144322373Y-124695581D01*
X144373246Y-124729574D01*
X144394424Y-124786977D01*
X144394500Y-124790864D01*
X144394500Y-125549135D01*
X144375593Y-125607326D01*
X144326093Y-125643290D01*
X144264907Y-125643290D01*
X144215407Y-125607326D01*
X144213185Y-125604137D01*
X144166194Y-125533811D01*
X144166189Y-125533806D01*
X144100036Y-125489603D01*
X144041700Y-125478000D01*
X143385001Y-125478000D01*
X143385000Y-125478001D01*
X143385000Y-126013313D01*
X143318520Y-125995500D01*
X143201480Y-125995500D01*
X143135000Y-126013313D01*
X143135000Y-125478001D01*
X143134999Y-125478000D01*
X142478299Y-125478000D01*
X142419963Y-125489603D01*
X142353810Y-125533806D01*
X142353806Y-125533810D01*
X142309603Y-125599963D01*
X142298000Y-125658299D01*
X142298000Y-126314999D01*
X142298001Y-126315000D01*
X142833313Y-126315000D01*
X142815500Y-126381480D01*
X142815500Y-126498520D01*
X142833313Y-126565000D01*
X142298001Y-126565000D01*
X142298000Y-126565001D01*
X142298000Y-127221700D01*
X142309603Y-127280036D01*
X142353806Y-127346189D01*
X142353810Y-127346193D01*
X142419963Y-127390396D01*
X142478299Y-127401999D01*
X142478303Y-127402000D01*
X143134999Y-127402000D01*
X143135000Y-127401999D01*
X143135000Y-126866686D01*
X143201480Y-126884500D01*
X143318520Y-126884500D01*
X143385000Y-126866686D01*
X143385000Y-127401999D01*
X143385001Y-127402000D01*
X144041697Y-127402000D01*
X144041700Y-127401999D01*
X144100036Y-127390396D01*
X144166189Y-127346193D01*
X144166193Y-127346189D01*
X144210396Y-127280036D01*
X144221998Y-127221706D01*
X144222267Y-127218977D01*
X144222770Y-127217825D01*
X144222949Y-127216928D01*
X144223145Y-127216967D01*
X144246780Y-127162916D01*
X144299563Y-127131971D01*
X144360455Y-127137960D01*
X144406196Y-127178597D01*
X144411825Y-127189759D01*
X144438591Y-127252382D01*
X144438592Y-127252383D01*
X144474556Y-127301883D01*
X144498797Y-127329628D01*
X144577307Y-127376536D01*
X144635498Y-127395443D01*
X144647539Y-127397350D01*
X144698996Y-127405500D01*
X144699000Y-127405500D01*
X144738993Y-127405500D01*
X144739000Y-127405500D01*
X144771144Y-127402970D01*
X144801737Y-127398125D01*
X144806295Y-127397351D01*
X144832836Y-127386005D01*
X144840437Y-127383119D01*
X144845762Y-127381343D01*
X144845775Y-127381382D01*
X144860688Y-127376537D01*
X144862477Y-127375772D01*
X144866321Y-127374491D01*
X144892543Y-127374292D01*
X144918634Y-127371665D01*
X144924256Y-127374051D01*
X144927505Y-127374027D01*
X144932337Y-127377482D01*
X144952629Y-127386096D01*
X144959769Y-127390867D01*
X145018252Y-127402500D01*
X145018253Y-127402500D01*
X146581747Y-127402500D01*
X146581748Y-127402500D01*
X146640231Y-127390867D01*
X146647294Y-127386146D01*
X146706178Y-127369536D01*
X146733620Y-127376043D01*
X146734019Y-127374818D01*
X146745193Y-127378448D01*
X146797498Y-127395443D01*
X146809539Y-127397350D01*
X146860996Y-127405500D01*
X146861000Y-127405500D01*
X146900993Y-127405500D01*
X146901000Y-127405500D01*
X146933144Y-127402970D01*
X146963737Y-127398125D01*
X146968295Y-127397351D01*
X147007516Y-127380585D01*
X147007775Y-127381382D01*
X147022688Y-127376537D01*
X147056580Y-127362051D01*
X147086611Y-127335809D01*
X147089057Y-127334484D01*
X147089189Y-127334666D01*
X147101875Y-127325450D01*
X147129632Y-127301200D01*
X147151508Y-127264582D01*
X147152186Y-127265075D01*
X147161403Y-127252390D01*
X147180304Y-127220756D01*
X147185779Y-127196764D01*
X147191675Y-127185458D01*
X147204849Y-127172527D01*
X147214320Y-127156676D01*
X147226157Y-127151616D01*
X147235343Y-127142601D01*
X147253604Y-127139883D01*
X147270581Y-127132627D01*
X147283129Y-127135490D01*
X147295862Y-127133596D01*
X147312234Y-127142132D01*
X147330233Y-127146240D01*
X147338702Y-127155932D01*
X147350116Y-127161884D01*
X147358343Y-127178411D01*
X147370491Y-127192315D01*
X147376047Y-127213979D01*
X147377381Y-127216658D01*
X147377205Y-127217703D01*
X147377904Y-127221218D01*
X147377982Y-127221521D01*
X147377999Y-127221694D01*
X147389603Y-127280036D01*
X147433806Y-127346189D01*
X147433810Y-127346193D01*
X147499963Y-127390396D01*
X147558299Y-127401999D01*
X147558303Y-127402000D01*
X148214999Y-127402000D01*
X148215000Y-127401999D01*
X148215000Y-126866686D01*
X148281480Y-126884500D01*
X148398520Y-126884500D01*
X148465000Y-126866686D01*
X148465000Y-127401999D01*
X148465001Y-127402000D01*
X149121697Y-127402000D01*
X149121700Y-127401999D01*
X149180036Y-127390396D01*
X149246189Y-127346193D01*
X149246193Y-127346189D01*
X149290396Y-127280036D01*
X149301999Y-127221700D01*
X149302000Y-127221697D01*
X149302000Y-126565001D01*
X149301999Y-126565000D01*
X148766687Y-126565000D01*
X148784500Y-126498520D01*
X148784500Y-126381480D01*
X148766687Y-126315000D01*
X149301999Y-126315000D01*
X149302000Y-126314999D01*
X149302000Y-125658302D01*
X149301999Y-125658299D01*
X149290396Y-125599963D01*
X149246193Y-125533810D01*
X149246189Y-125533806D01*
X149180036Y-125489603D01*
X149121700Y-125478000D01*
X148465001Y-125478000D01*
X148465000Y-125478001D01*
X148465000Y-126013313D01*
X148398520Y-125995500D01*
X148281480Y-125995500D01*
X148215000Y-126013313D01*
X148215000Y-125478001D01*
X148214999Y-125478000D01*
X147558299Y-125478000D01*
X147499963Y-125489603D01*
X147433810Y-125533806D01*
X147433805Y-125533811D01*
X147386815Y-125604137D01*
X147338765Y-125642016D01*
X147277627Y-125644418D01*
X147226753Y-125610425D01*
X147205576Y-125553021D01*
X147205500Y-125549135D01*
X147205500Y-124790864D01*
X147224407Y-124732673D01*
X147273907Y-124696709D01*
X147335093Y-124696709D01*
X147384593Y-124732673D01*
X147386815Y-124735862D01*
X147433806Y-124806189D01*
X147433810Y-124806193D01*
X147499963Y-124850396D01*
X147558299Y-124861999D01*
X147558303Y-124862000D01*
X148214999Y-124862000D01*
X148215000Y-124861999D01*
X148215000Y-124326686D01*
X148281480Y-124344500D01*
X148398520Y-124344500D01*
X148465000Y-124326686D01*
X148465000Y-124861999D01*
X148465001Y-124862000D01*
X149121697Y-124862000D01*
X149121700Y-124861999D01*
X149180036Y-124850396D01*
X149246189Y-124806193D01*
X149246193Y-124806189D01*
X149290396Y-124740036D01*
X149301999Y-124681700D01*
X149302000Y-124681697D01*
X149302000Y-124025001D01*
X149301999Y-124025000D01*
X148766687Y-124025000D01*
X148784500Y-123958520D01*
X148784500Y-123841480D01*
X148766687Y-123775000D01*
X149301999Y-123775000D01*
X149302000Y-123774999D01*
X149302000Y-123118302D01*
X149301999Y-123118299D01*
X149290396Y-123059963D01*
X149246193Y-122993810D01*
X149246189Y-122993806D01*
X149180036Y-122949603D01*
X149121700Y-122938000D01*
X148465001Y-122938000D01*
X148465000Y-122938001D01*
X148465000Y-123473313D01*
X148398520Y-123455500D01*
X148281480Y-123455500D01*
X148215000Y-123473313D01*
X148215000Y-122938001D01*
X148214999Y-122938000D01*
X147558299Y-122938000D01*
X147499963Y-122949603D01*
X147433810Y-122993806D01*
X147433805Y-122993811D01*
X147386815Y-123064137D01*
X147338765Y-123102016D01*
X147277627Y-123104418D01*
X147226753Y-123070425D01*
X147205576Y-123013021D01*
X147205500Y-123009135D01*
X147205500Y-122477353D01*
X147205499Y-122477343D01*
X147201010Y-122434625D01*
X147201010Y-122434624D01*
X147192451Y-122394356D01*
X147188694Y-122379450D01*
X147144155Y-122299572D01*
X147144153Y-122299570D01*
X147144152Y-122299568D01*
X147103214Y-122254104D01*
X147053254Y-122213648D01*
X147053252Y-122213647D01*
X147053250Y-122213645D01*
X146999451Y-122182583D01*
X146978951Y-122166853D01*
X146933141Y-122121043D01*
X146917409Y-122100540D01*
X146913106Y-122093087D01*
X146885028Y-122044455D01*
X146875138Y-122020577D01*
X146858373Y-121958005D01*
X146855000Y-121932384D01*
X146855000Y-121867613D01*
X146858373Y-121841991D01*
X146873456Y-121785698D01*
X146875139Y-121779415D01*
X146885030Y-121755539D01*
X146894232Y-121739601D01*
X146917410Y-121699454D01*
X146933137Y-121678957D01*
X146978952Y-121633142D01*
X146999447Y-121617416D01*
X147055555Y-121585022D01*
X147079425Y-121575135D01*
X147186474Y-121546452D01*
X147236034Y-121525925D01*
X147280414Y-121500303D01*
X147322976Y-121467643D01*
X148616314Y-120174306D01*
X148627269Y-120162456D01*
X148637358Y-120150643D01*
X148676536Y-120080685D01*
X148695443Y-120022494D01*
X148700494Y-119990602D01*
X148705500Y-119958995D01*
X148705500Y-119241021D01*
X148705500Y-119241008D01*
X148704866Y-119224883D01*
X148703647Y-119209396D01*
X148681884Y-119132228D01*
X148654107Y-119077711D01*
X148654105Y-119077708D01*
X148616318Y-119025699D01*
X148616316Y-119025697D01*
X148616314Y-119025694D01*
X148174306Y-118583686D01*
X148174292Y-118583673D01*
X148174285Y-118583666D01*
X148162465Y-118572739D01*
X148162456Y-118572731D01*
X148150643Y-118562642D01*
X148080685Y-118523464D01*
X148022494Y-118504557D01*
X148022491Y-118504556D01*
X148022492Y-118504556D01*
X147958995Y-118494500D01*
X147958992Y-118494500D01*
X143641008Y-118494500D01*
X143630258Y-118494922D01*
X143624876Y-118495134D01*
X143611331Y-118496200D01*
X143609396Y-118496353D01*
X143609393Y-118496353D01*
X143609392Y-118496354D01*
X143532230Y-118518115D01*
X143532224Y-118518117D01*
X143477708Y-118545894D01*
X143425699Y-118583681D01*
X143425694Y-118583685D01*
X143425694Y-118583686D01*
X142988874Y-119020505D01*
X142934360Y-119048281D01*
X142918873Y-119049500D01*
X141186190Y-119049500D01*
X141127999Y-119030593D01*
X141116186Y-119020504D01*
X140445182Y-118349500D01*
X139115212Y-117019530D01*
X139115209Y-117019528D01*
X137479496Y-115383814D01*
X137451719Y-115329297D01*
X137450500Y-115313810D01*
X137450500Y-114745505D01*
X137469407Y-114687314D01*
X137518907Y-114651350D01*
X137580093Y-114651350D01*
X137629593Y-114687314D01*
X137635231Y-114695997D01*
X137659491Y-114738015D01*
X137761985Y-114840509D01*
X137761987Y-114840510D01*
X137761989Y-114840512D01*
X137887511Y-114912982D01*
X137887512Y-114912982D01*
X137887515Y-114912984D01*
X138027525Y-114950500D01*
X138027526Y-114950500D01*
X138172474Y-114950500D01*
X138172475Y-114950500D01*
X138312485Y-114912984D01*
X138312487Y-114912982D01*
X138312489Y-114912982D01*
X138438010Y-114840512D01*
X138438010Y-114840511D01*
X138438015Y-114840509D01*
X138540509Y-114738015D01*
X138564764Y-114696005D01*
X138612982Y-114612489D01*
X138612982Y-114612487D01*
X138612984Y-114612485D01*
X138650500Y-114472475D01*
X138650500Y-114350833D01*
X138669407Y-114292642D01*
X138679496Y-114280829D01*
X138832800Y-114127525D01*
X156249500Y-114127525D01*
X156249500Y-114272475D01*
X156264251Y-114327525D01*
X156287017Y-114412489D01*
X156359487Y-114538010D01*
X156359489Y-114538012D01*
X156359491Y-114538015D01*
X156461985Y-114640509D01*
X156461987Y-114640510D01*
X156461989Y-114640512D01*
X156587511Y-114712982D01*
X156587512Y-114712982D01*
X156587515Y-114712984D01*
X156727525Y-114750500D01*
X156727526Y-114750500D01*
X156872474Y-114750500D01*
X156872475Y-114750500D01*
X157012485Y-114712984D01*
X157012487Y-114712982D01*
X157012489Y-114712982D01*
X157138010Y-114640512D01*
X157138010Y-114640511D01*
X157138015Y-114640509D01*
X157168522Y-114610002D01*
X157199029Y-114579496D01*
X157253546Y-114551719D01*
X157269032Y-114550500D01*
X161730968Y-114550500D01*
X161789159Y-114569407D01*
X161800971Y-114579496D01*
X161861984Y-114640508D01*
X161861989Y-114640512D01*
X161987511Y-114712982D01*
X161987512Y-114712982D01*
X161987515Y-114712984D01*
X162127525Y-114750500D01*
X162127526Y-114750500D01*
X162272474Y-114750500D01*
X162272475Y-114750500D01*
X162412485Y-114712984D01*
X162412487Y-114712982D01*
X162412489Y-114712982D01*
X162538010Y-114640512D01*
X162538010Y-114640511D01*
X162538015Y-114640509D01*
X162640509Y-114538015D01*
X162712984Y-114412485D01*
X162750500Y-114272475D01*
X162750500Y-114186188D01*
X162769407Y-114127997D01*
X162779490Y-114116190D01*
X163680469Y-113215212D01*
X163726614Y-113135288D01*
X163742939Y-113074361D01*
X163750500Y-113046144D01*
X163750500Y-104453856D01*
X163726614Y-104364712D01*
X163717831Y-104349500D01*
X163680470Y-104284788D01*
X162079496Y-102683814D01*
X162051719Y-102629297D01*
X162050500Y-102613810D01*
X162050500Y-102527525D01*
X162042988Y-102499489D01*
X162012984Y-102387515D01*
X162012982Y-102387512D01*
X162012982Y-102387510D01*
X161940512Y-102261989D01*
X161940510Y-102261987D01*
X161940509Y-102261985D01*
X161838015Y-102159491D01*
X161838012Y-102159489D01*
X161838010Y-102159487D01*
X161712488Y-102087017D01*
X161712489Y-102087017D01*
X161682896Y-102079087D01*
X161572475Y-102049500D01*
X161427525Y-102049500D01*
X161365790Y-102066041D01*
X161287510Y-102087017D01*
X161161989Y-102159487D01*
X161059487Y-102261989D01*
X160987017Y-102387510D01*
X160987016Y-102387515D01*
X160949500Y-102527525D01*
X160949500Y-102672475D01*
X160959545Y-102709963D01*
X160987017Y-102812489D01*
X161059487Y-102938010D01*
X161059489Y-102938012D01*
X161059491Y-102938015D01*
X161161985Y-103040509D01*
X161161987Y-103040510D01*
X161161989Y-103040512D01*
X161287511Y-103112982D01*
X161287512Y-103112982D01*
X161287515Y-103112984D01*
X161427525Y-103150500D01*
X161513810Y-103150500D01*
X161572001Y-103169407D01*
X161583814Y-103179496D01*
X163020504Y-104616186D01*
X163048281Y-104670703D01*
X163049500Y-104686190D01*
X163049500Y-112813810D01*
X163030593Y-112872001D01*
X163020504Y-112883814D01*
X162283814Y-113620504D01*
X162229297Y-113648281D01*
X162213810Y-113649500D01*
X162127525Y-113649500D01*
X162090239Y-113659491D01*
X161987510Y-113687017D01*
X161861989Y-113759487D01*
X161861984Y-113759491D01*
X161800971Y-113820504D01*
X161746454Y-113848281D01*
X161730968Y-113849500D01*
X157269032Y-113849500D01*
X157210841Y-113830593D01*
X157199029Y-113820504D01*
X157138015Y-113759491D01*
X157138010Y-113759487D01*
X157012488Y-113687017D01*
X157012489Y-113687017D01*
X156909761Y-113659491D01*
X156872475Y-113649500D01*
X156727525Y-113649500D01*
X156690239Y-113659491D01*
X156587510Y-113687017D01*
X156461989Y-113759487D01*
X156359487Y-113861989D01*
X156287017Y-113987510D01*
X156267061Y-114061987D01*
X156249500Y-114127525D01*
X138832800Y-114127525D01*
X138909293Y-114051032D01*
X140406469Y-112553857D01*
X142005830Y-110954496D01*
X142060347Y-110926719D01*
X142075834Y-110925500D01*
X146342851Y-110925500D01*
X146342853Y-110925500D01*
X146425639Y-110903318D01*
X146425641Y-110903316D01*
X146425643Y-110903316D01*
X146499857Y-110860468D01*
X146499857Y-110860467D01*
X146499862Y-110860465D01*
X148457965Y-108902362D01*
X148500818Y-108828139D01*
X148523000Y-108745353D01*
X148523000Y-108659647D01*
X148523000Y-107394031D01*
X148541907Y-107335840D01*
X148551990Y-107324033D01*
X148638009Y-107238015D01*
X148710484Y-107112485D01*
X148748000Y-106972475D01*
X148748000Y-106827525D01*
X148710484Y-106687515D01*
X148710482Y-106687512D01*
X148710482Y-106687510D01*
X148638012Y-106561989D01*
X148638010Y-106561987D01*
X148638009Y-106561985D01*
X148535515Y-106459491D01*
X148535512Y-106459489D01*
X148535510Y-106459487D01*
X148409988Y-106387017D01*
X148409989Y-106387017D01*
X148380396Y-106379087D01*
X148269975Y-106349500D01*
X148125025Y-106349500D01*
X148063290Y-106366041D01*
X147985010Y-106387017D01*
X147859489Y-106459487D01*
X147859488Y-106459488D01*
X147859485Y-106459490D01*
X147859485Y-106459491D01*
X147794501Y-106524474D01*
X147739987Y-106552250D01*
X147679555Y-106542679D01*
X147636290Y-106499414D01*
X147625500Y-106454469D01*
X147625500Y-105975833D01*
X147644407Y-105917642D01*
X147654484Y-105905842D01*
X148080831Y-105479494D01*
X148135346Y-105451719D01*
X148150833Y-105450500D01*
X148272474Y-105450500D01*
X148272475Y-105450500D01*
X148412485Y-105412984D01*
X148412487Y-105412982D01*
X148412489Y-105412982D01*
X148538010Y-105340512D01*
X148538010Y-105340511D01*
X148538015Y-105340509D01*
X148640509Y-105238015D01*
X148672012Y-105183451D01*
X148712982Y-105112489D01*
X148712982Y-105112487D01*
X148712984Y-105112485D01*
X148750500Y-104972475D01*
X148750500Y-104827525D01*
X148712984Y-104687515D01*
X148712982Y-104687512D01*
X148712982Y-104687510D01*
X148640512Y-104561989D01*
X148640510Y-104561987D01*
X148640509Y-104561985D01*
X148538015Y-104459491D01*
X148538012Y-104459489D01*
X148538010Y-104459487D01*
X148412488Y-104387017D01*
X148412489Y-104387017D01*
X148329231Y-104364708D01*
X148272475Y-104349500D01*
X148127525Y-104349500D01*
X148080935Y-104361984D01*
X147987510Y-104387017D01*
X147861989Y-104459487D01*
X147759487Y-104561989D01*
X147687017Y-104687510D01*
X147649500Y-104827525D01*
X147649500Y-104949164D01*
X147630593Y-105007355D01*
X147620504Y-105019167D01*
X147039535Y-105600137D01*
X147039531Y-105600142D01*
X146996682Y-105674360D01*
X146996681Y-105674360D01*
X146996682Y-105674361D01*
X146974500Y-105757147D01*
X146974500Y-108324165D01*
X146955593Y-108382356D01*
X146945504Y-108394169D01*
X145894169Y-109445504D01*
X145839652Y-109473281D01*
X145824165Y-109474500D01*
X145243031Y-109474500D01*
X145184840Y-109455593D01*
X145148876Y-109406093D01*
X145148876Y-109344907D01*
X145173025Y-109305498D01*
X145240509Y-109238015D01*
X145312984Y-109112485D01*
X145350500Y-108972475D01*
X145350500Y-108827525D01*
X145312984Y-108687515D01*
X145312982Y-108687512D01*
X145312982Y-108687510D01*
X145240512Y-108561989D01*
X145240510Y-108561987D01*
X145240509Y-108561985D01*
X145138015Y-108459491D01*
X145138012Y-108459489D01*
X145138010Y-108459487D01*
X145012488Y-108387017D01*
X145012489Y-108387017D01*
X144982896Y-108379087D01*
X144872475Y-108349500D01*
X144727525Y-108349500D01*
X144669033Y-108365173D01*
X144587510Y-108387017D01*
X144461989Y-108459487D01*
X144461984Y-108459491D01*
X144400971Y-108520504D01*
X144346454Y-108548281D01*
X144330968Y-108549500D01*
X140753856Y-108549500D01*
X140664712Y-108573386D01*
X140664711Y-108573386D01*
X140664709Y-108573387D01*
X140584789Y-108619529D01*
X140584787Y-108619531D01*
X139819503Y-109384814D01*
X139764987Y-109412591D01*
X139704555Y-109403020D01*
X139661290Y-109359755D01*
X139650500Y-109314810D01*
X139650500Y-105169031D01*
X139669407Y-105110840D01*
X139679490Y-105099033D01*
X139740509Y-105038015D01*
X139778349Y-104972474D01*
X139812982Y-104912489D01*
X139812982Y-104912487D01*
X139812984Y-104912485D01*
X139850500Y-104772475D01*
X139850500Y-104627525D01*
X139812984Y-104487515D01*
X139753121Y-104383830D01*
X139740400Y-104323983D01*
X139765286Y-104268088D01*
X139768835Y-104264346D01*
X140616186Y-103416996D01*
X140670703Y-103389219D01*
X140686190Y-103388000D01*
X140772474Y-103388000D01*
X140772475Y-103388000D01*
X140912485Y-103350484D01*
X140912487Y-103350482D01*
X140912489Y-103350482D01*
X141038010Y-103278012D01*
X141038010Y-103278011D01*
X141038015Y-103278009D01*
X141140509Y-103175515D01*
X141140512Y-103175510D01*
X141212982Y-103049989D01*
X141212982Y-103049987D01*
X141212984Y-103049985D01*
X141250500Y-102909975D01*
X141250500Y-102823690D01*
X141269407Y-102765499D01*
X141279496Y-102753686D01*
X142358746Y-101674436D01*
X142413263Y-101646659D01*
X142473695Y-101656230D01*
X142498754Y-101674436D01*
X144140504Y-103316186D01*
X144168281Y-103370703D01*
X144169500Y-103386190D01*
X144169500Y-103472475D01*
X144199087Y-103582896D01*
X144207017Y-103612489D01*
X144279487Y-103738010D01*
X144279489Y-103738012D01*
X144279491Y-103738015D01*
X144381985Y-103840509D01*
X144381987Y-103840510D01*
X144381989Y-103840512D01*
X144507511Y-103912982D01*
X144507512Y-103912982D01*
X144507515Y-103912984D01*
X144647525Y-103950500D01*
X144647526Y-103950500D01*
X144792474Y-103950500D01*
X144792475Y-103950500D01*
X144932485Y-103912984D01*
X144932487Y-103912982D01*
X144932489Y-103912982D01*
X145058010Y-103840512D01*
X145058010Y-103840511D01*
X145058015Y-103840509D01*
X145160509Y-103738015D01*
X145232984Y-103612485D01*
X145270500Y-103472475D01*
X145270500Y-103327525D01*
X145232984Y-103187515D01*
X145232982Y-103187512D01*
X145232982Y-103187510D01*
X145160512Y-103061989D01*
X145160510Y-103061987D01*
X145160509Y-103061985D01*
X145058015Y-102959491D01*
X145058012Y-102959489D01*
X145058010Y-102959487D01*
X144932488Y-102887017D01*
X144932489Y-102887017D01*
X144902896Y-102879087D01*
X144792475Y-102849500D01*
X144792474Y-102849500D01*
X144706190Y-102849500D01*
X144647999Y-102830593D01*
X144636186Y-102820504D01*
X142994436Y-101178754D01*
X142966659Y-101124237D01*
X142976230Y-101063805D01*
X142994436Y-101038746D01*
X143703686Y-100329496D01*
X143758203Y-100301719D01*
X143773690Y-100300500D01*
X146030968Y-100300500D01*
X146089159Y-100319407D01*
X146100971Y-100329496D01*
X146161984Y-100390508D01*
X146161989Y-100390512D01*
X146287511Y-100462982D01*
X146287512Y-100462982D01*
X146287515Y-100462984D01*
X146427525Y-100500500D01*
X146427526Y-100500500D01*
X146572474Y-100500500D01*
X146572475Y-100500500D01*
X146712485Y-100462984D01*
X146712487Y-100462982D01*
X146712489Y-100462982D01*
X146838010Y-100390512D01*
X146838010Y-100390511D01*
X146838015Y-100390509D01*
X146940509Y-100288015D01*
X147008779Y-100169769D01*
X147012982Y-100162489D01*
X147012982Y-100162487D01*
X147012984Y-100162485D01*
X147050500Y-100022475D01*
X147050500Y-99877525D01*
X147012984Y-99737515D01*
X147012982Y-99737512D01*
X147012982Y-99737510D01*
X146940512Y-99611989D01*
X146940510Y-99611987D01*
X146940509Y-99611985D01*
X146838015Y-99509491D01*
X146838012Y-99509489D01*
X146838010Y-99509487D01*
X146712488Y-99437017D01*
X146712489Y-99437017D01*
X146652209Y-99420865D01*
X146572475Y-99399500D01*
X146427525Y-99399500D01*
X146365790Y-99416041D01*
X146287510Y-99437017D01*
X146161989Y-99509487D01*
X146161984Y-99509491D01*
X146100971Y-99570504D01*
X146046454Y-99598281D01*
X146030968Y-99599500D01*
X143541356Y-99599500D01*
X143452212Y-99623386D01*
X143372288Y-99669530D01*
X140783814Y-102258004D01*
X140729297Y-102285781D01*
X140713810Y-102287000D01*
X140627525Y-102287000D01*
X140565790Y-102303541D01*
X140487510Y-102324517D01*
X140361989Y-102396987D01*
X140259487Y-102499489D01*
X140187017Y-102625010D01*
X140149500Y-102765025D01*
X140149500Y-102851310D01*
X140130593Y-102909501D01*
X140120504Y-102921314D01*
X139019530Y-104022288D01*
X138973386Y-104102212D01*
X138949500Y-104191357D01*
X138949500Y-104230968D01*
X138930593Y-104289159D01*
X138920504Y-104300971D01*
X138859491Y-104361984D01*
X138859487Y-104361989D01*
X138787017Y-104487510D01*
X138749500Y-104627525D01*
X138749500Y-104772474D01*
X138787017Y-104912489D01*
X138859487Y-105038010D01*
X138859489Y-105038012D01*
X138859491Y-105038015D01*
X138920505Y-105099029D01*
X138948281Y-105153544D01*
X138949500Y-105169031D01*
X138949500Y-110213810D01*
X138930593Y-110272001D01*
X138920504Y-110283814D01*
X136819530Y-112384788D01*
X136773386Y-112464712D01*
X136749500Y-112553856D01*
X136749500Y-115546144D01*
X136750810Y-115551032D01*
X136771306Y-115627525D01*
X136771306Y-115627527D01*
X136773383Y-115635282D01*
X136773384Y-115635284D01*
X136773385Y-115635287D01*
X136773386Y-115635288D01*
X136819530Y-115715212D01*
X137614784Y-116510465D01*
X137884815Y-116780496D01*
X137912592Y-116835013D01*
X137903021Y-116895445D01*
X137859756Y-116938710D01*
X137814811Y-116949500D01*
X134369032Y-116949500D01*
X134361434Y-116947031D01*
X134353545Y-116948281D01*
X134332889Y-116937756D01*
X134310841Y-116930593D01*
X134299028Y-116920504D01*
X134279496Y-116900972D01*
X134251719Y-116846455D01*
X134250500Y-116830968D01*
X134250500Y-116169031D01*
X134269407Y-116110840D01*
X134279490Y-116099033D01*
X134340509Y-116038015D01*
X134406751Y-115923281D01*
X134412982Y-115912489D01*
X134412982Y-115912487D01*
X134412984Y-115912485D01*
X134450500Y-115772475D01*
X134450500Y-115627525D01*
X134412984Y-115487515D01*
X134412982Y-115487512D01*
X134412982Y-115487510D01*
X134340512Y-115361989D01*
X134340510Y-115361987D01*
X134340509Y-115361985D01*
X134238015Y-115259491D01*
X134238012Y-115259489D01*
X134238010Y-115259487D01*
X134112488Y-115187017D01*
X134112489Y-115187017D01*
X134082896Y-115179087D01*
X133972475Y-115149500D01*
X133827525Y-115149500D01*
X133765790Y-115166041D01*
X133687510Y-115187017D01*
X133561989Y-115259487D01*
X133459487Y-115361989D01*
X133387017Y-115487510D01*
X133349500Y-115627525D01*
X132832801Y-115627525D01*
X133780830Y-114679495D01*
X133835347Y-114651719D01*
X133850834Y-114650500D01*
X133972474Y-114650500D01*
X133972475Y-114650500D01*
X134112485Y-114612984D01*
X134112487Y-114612982D01*
X134112489Y-114612982D01*
X134238010Y-114540512D01*
X134238010Y-114540511D01*
X134238015Y-114540509D01*
X134340509Y-114438015D01*
X134340512Y-114438010D01*
X134412982Y-114312489D01*
X134412982Y-114312487D01*
X134412984Y-114312485D01*
X134450500Y-114172475D01*
X134450500Y-114027525D01*
X134412984Y-113887515D01*
X134412982Y-113887512D01*
X134412982Y-113887510D01*
X134340512Y-113761989D01*
X134340510Y-113761987D01*
X134340509Y-113761985D01*
X134238015Y-113659491D01*
X134238012Y-113659489D01*
X134238010Y-113659487D01*
X134112488Y-113587017D01*
X134112489Y-113587017D01*
X134082896Y-113579087D01*
X133972475Y-113549500D01*
X133827525Y-113549500D01*
X133765790Y-113566041D01*
X133687510Y-113587017D01*
X133561989Y-113659487D01*
X133459487Y-113761989D01*
X133387017Y-113887510D01*
X133349500Y-114027525D01*
X133349500Y-114149164D01*
X133330593Y-114207355D01*
X133320504Y-114219168D01*
X131644169Y-115895504D01*
X131589652Y-115923281D01*
X131574165Y-115924500D01*
X130331500Y-115924500D01*
X130273309Y-115905593D01*
X130237345Y-115856093D01*
X130232500Y-115825500D01*
X130232500Y-115468253D01*
X130232498Y-115468241D01*
X130229711Y-115454231D01*
X130220867Y-115409769D01*
X130176552Y-115343448D01*
X130155374Y-115329297D01*
X130110233Y-115299134D01*
X130110231Y-115299133D01*
X130110228Y-115299132D01*
X130110227Y-115299132D01*
X130051758Y-115287501D01*
X130051748Y-115287500D01*
X128488252Y-115287500D01*
X128488251Y-115287500D01*
X128488241Y-115287501D01*
X128429772Y-115299132D01*
X128429766Y-115299134D01*
X128363451Y-115343445D01*
X128363445Y-115343451D01*
X128319134Y-115409766D01*
X128319132Y-115409772D01*
X128307501Y-115468241D01*
X128307500Y-115468253D01*
X128307500Y-115825500D01*
X128288593Y-115883691D01*
X128239093Y-115919655D01*
X128208500Y-115924500D01*
X127791500Y-115924500D01*
X127733309Y-115905593D01*
X127697345Y-115856093D01*
X127692500Y-115825500D01*
X127692500Y-115468253D01*
X127692498Y-115468241D01*
X127689711Y-115454231D01*
X127680867Y-115409769D01*
X127636552Y-115343448D01*
X127615374Y-115329297D01*
X127570233Y-115299134D01*
X127570231Y-115299133D01*
X127570228Y-115299132D01*
X127570227Y-115299132D01*
X127511758Y-115287501D01*
X127511748Y-115287500D01*
X125948252Y-115287500D01*
X125948251Y-115287500D01*
X125948241Y-115287501D01*
X125889772Y-115299132D01*
X125889766Y-115299134D01*
X125823451Y-115343445D01*
X125823445Y-115343451D01*
X125779134Y-115409766D01*
X125779132Y-115409772D01*
X125767501Y-115468241D01*
X125767500Y-115468253D01*
X123654500Y-115468253D01*
X123654500Y-112928299D01*
X125768000Y-112928299D01*
X125768000Y-113584999D01*
X125768001Y-113585000D01*
X126303313Y-113585000D01*
X126285500Y-113651480D01*
X126285500Y-113768520D01*
X126303313Y-113835000D01*
X125768001Y-113835000D01*
X125768000Y-113835001D01*
X125768000Y-114491700D01*
X125779603Y-114550036D01*
X125823806Y-114616189D01*
X125823810Y-114616193D01*
X125889963Y-114660396D01*
X125948299Y-114671999D01*
X125948303Y-114672000D01*
X126604999Y-114672000D01*
X126605000Y-114671999D01*
X126605000Y-114136686D01*
X126671480Y-114154500D01*
X126788520Y-114154500D01*
X126855000Y-114136686D01*
X126855000Y-114671999D01*
X126855001Y-114672000D01*
X127511697Y-114672000D01*
X127511700Y-114671999D01*
X127570036Y-114660396D01*
X127636189Y-114616193D01*
X127636193Y-114616189D01*
X127680396Y-114550036D01*
X127691999Y-114491700D01*
X127692000Y-114491697D01*
X127692000Y-113835001D01*
X127691999Y-113835000D01*
X127156687Y-113835000D01*
X127174500Y-113768520D01*
X127174500Y-113651480D01*
X127156687Y-113585000D01*
X127691999Y-113585000D01*
X127692000Y-113584999D01*
X127692000Y-112928302D01*
X127691999Y-112928299D01*
X128308000Y-112928299D01*
X128308000Y-113584999D01*
X128308001Y-113585000D01*
X128843313Y-113585000D01*
X128825500Y-113651480D01*
X128825500Y-113768520D01*
X128843313Y-113835000D01*
X128308001Y-113835000D01*
X128308000Y-113835001D01*
X128308000Y-114491700D01*
X128319603Y-114550036D01*
X128363806Y-114616189D01*
X128363810Y-114616193D01*
X128429963Y-114660396D01*
X128488299Y-114671999D01*
X128488303Y-114672000D01*
X129144999Y-114672000D01*
X129145000Y-114671999D01*
X129145000Y-114136686D01*
X129211480Y-114154500D01*
X129328520Y-114154500D01*
X129395000Y-114136686D01*
X129395000Y-114671999D01*
X129395001Y-114672000D01*
X130051697Y-114672000D01*
X130051700Y-114671999D01*
X130110036Y-114660396D01*
X130176189Y-114616193D01*
X130176193Y-114616189D01*
X130220396Y-114550036D01*
X130231999Y-114491700D01*
X130232000Y-114491697D01*
X130232000Y-113835001D01*
X130231999Y-113835000D01*
X129696687Y-113835000D01*
X129714500Y-113768520D01*
X129714500Y-113651480D01*
X129696687Y-113585000D01*
X130231999Y-113585000D01*
X130232000Y-113584999D01*
X130232000Y-112928302D01*
X130231999Y-112928299D01*
X130220396Y-112869963D01*
X130176193Y-112803810D01*
X130176189Y-112803806D01*
X130110036Y-112759603D01*
X130051700Y-112748000D01*
X129395001Y-112748000D01*
X129395000Y-112748001D01*
X129395000Y-113283313D01*
X129328520Y-113265500D01*
X129211480Y-113265500D01*
X129145000Y-113283313D01*
X129145000Y-112748001D01*
X129144999Y-112748000D01*
X128488299Y-112748000D01*
X128429963Y-112759603D01*
X128363810Y-112803806D01*
X128363806Y-112803810D01*
X128319603Y-112869963D01*
X128308000Y-112928299D01*
X127691999Y-112928299D01*
X127680396Y-112869963D01*
X127636193Y-112803810D01*
X127636189Y-112803806D01*
X127570036Y-112759603D01*
X127511700Y-112748000D01*
X126855001Y-112748000D01*
X126855000Y-112748001D01*
X126855000Y-113283313D01*
X126788520Y-113265500D01*
X126671480Y-113265500D01*
X126605000Y-113283313D01*
X126605000Y-112748001D01*
X126604999Y-112748000D01*
X125948299Y-112748000D01*
X125889963Y-112759603D01*
X125823810Y-112803806D01*
X125823806Y-112803810D01*
X125779603Y-112869963D01*
X125768000Y-112928299D01*
X123654500Y-112928299D01*
X123654500Y-110388253D01*
X125767500Y-110388253D01*
X125767500Y-111951746D01*
X125767501Y-111951758D01*
X125779132Y-112010227D01*
X125779133Y-112010231D01*
X125823448Y-112076552D01*
X125889769Y-112120867D01*
X125934231Y-112129711D01*
X125948241Y-112132498D01*
X125948246Y-112132498D01*
X125948252Y-112132500D01*
X125948253Y-112132500D01*
X127511747Y-112132500D01*
X127511748Y-112132500D01*
X127570231Y-112120867D01*
X127636552Y-112076552D01*
X127680867Y-112010231D01*
X127692500Y-111951748D01*
X127692500Y-111594500D01*
X127711407Y-111536309D01*
X127760907Y-111500345D01*
X127791500Y-111495500D01*
X128208500Y-111495500D01*
X128266691Y-111514407D01*
X128302655Y-111563907D01*
X128307500Y-111594500D01*
X128307500Y-111951746D01*
X128307501Y-111951758D01*
X128319132Y-112010227D01*
X128319133Y-112010231D01*
X128363448Y-112076552D01*
X128429769Y-112120867D01*
X128474231Y-112129711D01*
X128488241Y-112132498D01*
X128488246Y-112132498D01*
X128488252Y-112132500D01*
X128488253Y-112132500D01*
X130051747Y-112132500D01*
X130051748Y-112132500D01*
X130110231Y-112120867D01*
X130176552Y-112076552D01*
X130220867Y-112010231D01*
X130232500Y-111951748D01*
X130232500Y-111594500D01*
X130251407Y-111536309D01*
X130300907Y-111500345D01*
X130331500Y-111495500D01*
X133378047Y-111495500D01*
X133436238Y-111514407D01*
X133456590Y-111534234D01*
X133459488Y-111538011D01*
X133459489Y-111538012D01*
X133459491Y-111538015D01*
X133561985Y-111640509D01*
X133561987Y-111640510D01*
X133561989Y-111640512D01*
X133687511Y-111712982D01*
X133687512Y-111712982D01*
X133687515Y-111712984D01*
X133827525Y-111750500D01*
X133827526Y-111750500D01*
X133972474Y-111750500D01*
X133972475Y-111750500D01*
X134112485Y-111712984D01*
X134112487Y-111712982D01*
X134112489Y-111712982D01*
X134238010Y-111640512D01*
X134238010Y-111640511D01*
X134238015Y-111640509D01*
X134340509Y-111538015D01*
X134412984Y-111412485D01*
X134450500Y-111272475D01*
X134450500Y-111127525D01*
X134412984Y-110987515D01*
X134412982Y-110987512D01*
X134412982Y-110987510D01*
X134340512Y-110861989D01*
X134340510Y-110861987D01*
X134340509Y-110861985D01*
X134238015Y-110759491D01*
X134238012Y-110759489D01*
X134238010Y-110759487D01*
X134112488Y-110687017D01*
X134112489Y-110687017D01*
X134082896Y-110679087D01*
X133972475Y-110649500D01*
X133827525Y-110649500D01*
X133765790Y-110666041D01*
X133687510Y-110687017D01*
X133561989Y-110759487D01*
X133561984Y-110759491D01*
X133505971Y-110815504D01*
X133451454Y-110843281D01*
X133435968Y-110844500D01*
X130331500Y-110844500D01*
X130273309Y-110825593D01*
X130237345Y-110776093D01*
X130232500Y-110745500D01*
X130232500Y-110388253D01*
X130232498Y-110388241D01*
X130229711Y-110374231D01*
X130220867Y-110329769D01*
X130176552Y-110263448D01*
X130163637Y-110254818D01*
X130110233Y-110219134D01*
X130110231Y-110219133D01*
X130110228Y-110219132D01*
X130110227Y-110219132D01*
X130051758Y-110207501D01*
X130051748Y-110207500D01*
X128488252Y-110207500D01*
X128488251Y-110207500D01*
X128488241Y-110207501D01*
X128429772Y-110219132D01*
X128429766Y-110219134D01*
X128363451Y-110263445D01*
X128363445Y-110263451D01*
X128319134Y-110329766D01*
X128319132Y-110329772D01*
X128307501Y-110388241D01*
X128307500Y-110388253D01*
X128307500Y-110745500D01*
X128288593Y-110803691D01*
X128239093Y-110839655D01*
X128208500Y-110844500D01*
X127791500Y-110844500D01*
X127733309Y-110825593D01*
X127697345Y-110776093D01*
X127692500Y-110745500D01*
X127692500Y-110388253D01*
X127692498Y-110388241D01*
X127689711Y-110374231D01*
X127680867Y-110329769D01*
X127636552Y-110263448D01*
X127623637Y-110254818D01*
X127570233Y-110219134D01*
X127570231Y-110219133D01*
X127570228Y-110219132D01*
X127570227Y-110219132D01*
X127511758Y-110207501D01*
X127511748Y-110207500D01*
X125948252Y-110207500D01*
X125948251Y-110207500D01*
X125948241Y-110207501D01*
X125889772Y-110219132D01*
X125889766Y-110219134D01*
X125823451Y-110263445D01*
X125823445Y-110263451D01*
X125779134Y-110329766D01*
X125779132Y-110329772D01*
X125767501Y-110388241D01*
X125767500Y-110388253D01*
X123654500Y-110388253D01*
X123654500Y-107848253D01*
X125767500Y-107848253D01*
X125767500Y-109411746D01*
X125767501Y-109411758D01*
X125779132Y-109470227D01*
X125779134Y-109470233D01*
X125796807Y-109496682D01*
X125823448Y-109536552D01*
X125889769Y-109580867D01*
X125934231Y-109589711D01*
X125948241Y-109592498D01*
X125948246Y-109592498D01*
X125948252Y-109592500D01*
X125948253Y-109592500D01*
X127511747Y-109592500D01*
X127511748Y-109592500D01*
X127570231Y-109580867D01*
X127636552Y-109536552D01*
X127680867Y-109470231D01*
X127692500Y-109411748D01*
X127692500Y-109054500D01*
X127711407Y-108996309D01*
X127760907Y-108960345D01*
X127791500Y-108955500D01*
X128208500Y-108955500D01*
X128266691Y-108974407D01*
X128302655Y-109023907D01*
X128307500Y-109054500D01*
X128307500Y-109411746D01*
X128307501Y-109411758D01*
X128319132Y-109470227D01*
X128319134Y-109470233D01*
X128336807Y-109496682D01*
X128363448Y-109536552D01*
X128429769Y-109580867D01*
X128474231Y-109589711D01*
X128488241Y-109592498D01*
X128488246Y-109592498D01*
X128488252Y-109592500D01*
X128488253Y-109592500D01*
X130051747Y-109592500D01*
X130051748Y-109592500D01*
X130110231Y-109580867D01*
X130176552Y-109536552D01*
X130220867Y-109470231D01*
X130232500Y-109411748D01*
X130232500Y-109024500D01*
X130251407Y-108966309D01*
X130300907Y-108930345D01*
X130331500Y-108925500D01*
X133405969Y-108925500D01*
X133464160Y-108944407D01*
X133475966Y-108954490D01*
X133561985Y-109040509D01*
X133561987Y-109040510D01*
X133561989Y-109040512D01*
X133687511Y-109112982D01*
X133687512Y-109112982D01*
X133687515Y-109112984D01*
X133827525Y-109150500D01*
X133827526Y-109150500D01*
X133972474Y-109150500D01*
X133972475Y-109150500D01*
X134112485Y-109112984D01*
X134112487Y-109112982D01*
X134112489Y-109112982D01*
X134238010Y-109040512D01*
X134238010Y-109040511D01*
X134238015Y-109040509D01*
X134340509Y-108938015D01*
X134347735Y-108925500D01*
X134412982Y-108812489D01*
X134412982Y-108812487D01*
X134412984Y-108812485D01*
X134450500Y-108672475D01*
X134450500Y-108527525D01*
X134412984Y-108387515D01*
X134412982Y-108387512D01*
X134412982Y-108387510D01*
X134340512Y-108261989D01*
X134340510Y-108261987D01*
X134340509Y-108261985D01*
X134238015Y-108159491D01*
X134238012Y-108159489D01*
X134238010Y-108159487D01*
X134112488Y-108087017D01*
X134112489Y-108087017D01*
X134082896Y-108079087D01*
X133972475Y-108049500D01*
X133827525Y-108049500D01*
X133765790Y-108066041D01*
X133687510Y-108087017D01*
X133561989Y-108159487D01*
X133561988Y-108159488D01*
X133561985Y-108159490D01*
X133561985Y-108159491D01*
X133475970Y-108245505D01*
X133421456Y-108273281D01*
X133405969Y-108274500D01*
X130331500Y-108274500D01*
X130273309Y-108255593D01*
X130237345Y-108206093D01*
X130232500Y-108175500D01*
X130232500Y-107848253D01*
X130232498Y-107848241D01*
X130229711Y-107834231D01*
X130220867Y-107789769D01*
X130176552Y-107723448D01*
X130176548Y-107723445D01*
X130110233Y-107679134D01*
X130110231Y-107679133D01*
X130110228Y-107679132D01*
X130110227Y-107679132D01*
X130051758Y-107667501D01*
X130051748Y-107667500D01*
X128488252Y-107667500D01*
X128488251Y-107667500D01*
X128488241Y-107667501D01*
X128429772Y-107679132D01*
X128429766Y-107679134D01*
X128363451Y-107723445D01*
X128363445Y-107723451D01*
X128319134Y-107789766D01*
X128319132Y-107789772D01*
X128307501Y-107848241D01*
X128307500Y-107848253D01*
X128307500Y-108205500D01*
X128288593Y-108263691D01*
X128239093Y-108299655D01*
X128208500Y-108304500D01*
X127791500Y-108304500D01*
X127733309Y-108285593D01*
X127697345Y-108236093D01*
X127692500Y-108205500D01*
X127692500Y-107848253D01*
X127692498Y-107848241D01*
X127689711Y-107834231D01*
X127680867Y-107789769D01*
X127636552Y-107723448D01*
X127636548Y-107723445D01*
X127570233Y-107679134D01*
X127570231Y-107679133D01*
X127570228Y-107679132D01*
X127570227Y-107679132D01*
X127511758Y-107667501D01*
X127511748Y-107667500D01*
X125948252Y-107667500D01*
X125948251Y-107667500D01*
X125948241Y-107667501D01*
X125889772Y-107679132D01*
X125889766Y-107679134D01*
X125823451Y-107723445D01*
X125823445Y-107723451D01*
X125779134Y-107789766D01*
X125779132Y-107789772D01*
X125767501Y-107848241D01*
X125767500Y-107848253D01*
X123654500Y-107848253D01*
X123654500Y-105308253D01*
X125767500Y-105308253D01*
X125767500Y-106871746D01*
X125767501Y-106871758D01*
X125779132Y-106930227D01*
X125779133Y-106930231D01*
X125823448Y-106996552D01*
X125889769Y-107040867D01*
X125934231Y-107049711D01*
X125948241Y-107052498D01*
X125948246Y-107052498D01*
X125948252Y-107052500D01*
X125948253Y-107052500D01*
X127511747Y-107052500D01*
X127511748Y-107052500D01*
X127570231Y-107040867D01*
X127636552Y-106996552D01*
X127680867Y-106930231D01*
X127692500Y-106871748D01*
X127692500Y-106514500D01*
X127711407Y-106456309D01*
X127760907Y-106420345D01*
X127791500Y-106415500D01*
X128208500Y-106415500D01*
X128266691Y-106434407D01*
X128302655Y-106483907D01*
X128307500Y-106514500D01*
X128307500Y-106871746D01*
X128307501Y-106871758D01*
X128319132Y-106930227D01*
X128319133Y-106930231D01*
X128363448Y-106996552D01*
X128429769Y-107040867D01*
X128474231Y-107049711D01*
X128488241Y-107052498D01*
X128488246Y-107052498D01*
X128488252Y-107052500D01*
X128488253Y-107052500D01*
X130051747Y-107052500D01*
X130051748Y-107052500D01*
X130110231Y-107040867D01*
X130176552Y-106996552D01*
X130220867Y-106930231D01*
X130232500Y-106871748D01*
X130232500Y-106524500D01*
X130251407Y-106466309D01*
X130300907Y-106430345D01*
X130331500Y-106425500D01*
X133405969Y-106425500D01*
X133464160Y-106444407D01*
X133475966Y-106454490D01*
X133561985Y-106540509D01*
X133561987Y-106540510D01*
X133561989Y-106540512D01*
X133687511Y-106612982D01*
X133687512Y-106612982D01*
X133687515Y-106612984D01*
X133827525Y-106650500D01*
X133827526Y-106650500D01*
X133972474Y-106650500D01*
X133972475Y-106650500D01*
X134112485Y-106612984D01*
X134112487Y-106612982D01*
X134112489Y-106612982D01*
X134238010Y-106540512D01*
X134238010Y-106540511D01*
X134238015Y-106540509D01*
X134340509Y-106438015D01*
X134369953Y-106387017D01*
X134412982Y-106312489D01*
X134412982Y-106312487D01*
X134412984Y-106312485D01*
X134450500Y-106172475D01*
X134450500Y-106027525D01*
X134412984Y-105887515D01*
X134412982Y-105887512D01*
X134412982Y-105887510D01*
X134340512Y-105761989D01*
X134340510Y-105761987D01*
X134340509Y-105761985D01*
X134238015Y-105659491D01*
X134238012Y-105659489D01*
X134238010Y-105659487D01*
X134112488Y-105587017D01*
X134112489Y-105587017D01*
X134082896Y-105579087D01*
X133972475Y-105549500D01*
X133827525Y-105549500D01*
X133765790Y-105566041D01*
X133687510Y-105587017D01*
X133561989Y-105659487D01*
X133561988Y-105659488D01*
X133561985Y-105659490D01*
X133561985Y-105659491D01*
X133475970Y-105745505D01*
X133421456Y-105773281D01*
X133405969Y-105774500D01*
X130331500Y-105774500D01*
X130273309Y-105755593D01*
X130237345Y-105706093D01*
X130232500Y-105675500D01*
X130232500Y-105308253D01*
X130232498Y-105308241D01*
X130229711Y-105294231D01*
X130220867Y-105249769D01*
X130176552Y-105183448D01*
X130154976Y-105169031D01*
X130110233Y-105139134D01*
X130110231Y-105139133D01*
X130110228Y-105139132D01*
X130110227Y-105139132D01*
X130051758Y-105127501D01*
X130051748Y-105127500D01*
X128488252Y-105127500D01*
X128488251Y-105127500D01*
X128488241Y-105127501D01*
X128429772Y-105139132D01*
X128429766Y-105139134D01*
X128363451Y-105183445D01*
X128363445Y-105183451D01*
X128319134Y-105249766D01*
X128319132Y-105249772D01*
X128307501Y-105308241D01*
X128307500Y-105308253D01*
X128307500Y-105665500D01*
X128288593Y-105723691D01*
X128239093Y-105759655D01*
X128208500Y-105764500D01*
X127791500Y-105764500D01*
X127733309Y-105745593D01*
X127697345Y-105696093D01*
X127692500Y-105665500D01*
X127692500Y-105308253D01*
X127692498Y-105308241D01*
X127689711Y-105294231D01*
X127680867Y-105249769D01*
X127636552Y-105183448D01*
X127614976Y-105169031D01*
X127570233Y-105139134D01*
X127570231Y-105139133D01*
X127570228Y-105139132D01*
X127570227Y-105139132D01*
X127511758Y-105127501D01*
X127511748Y-105127500D01*
X125948252Y-105127500D01*
X125948251Y-105127500D01*
X125948241Y-105127501D01*
X125889772Y-105139132D01*
X125889766Y-105139134D01*
X125823451Y-105183445D01*
X125823445Y-105183451D01*
X125779134Y-105249766D01*
X125779132Y-105249772D01*
X125767501Y-105308241D01*
X125767500Y-105308253D01*
X123654500Y-105308253D01*
X123654500Y-102768299D01*
X125768000Y-102768299D01*
X125768000Y-103424999D01*
X125768001Y-103425000D01*
X126303313Y-103425000D01*
X126285500Y-103491480D01*
X126285500Y-103608520D01*
X126303313Y-103675000D01*
X125768001Y-103675000D01*
X125768000Y-103675001D01*
X125768000Y-104331700D01*
X125779603Y-104390036D01*
X125823806Y-104456189D01*
X125823810Y-104456193D01*
X125889963Y-104500396D01*
X125948299Y-104511999D01*
X125948303Y-104512000D01*
X126604999Y-104512000D01*
X126605000Y-104511999D01*
X126605000Y-103976686D01*
X126671480Y-103994500D01*
X126788520Y-103994500D01*
X126855000Y-103976686D01*
X126855000Y-104511999D01*
X126855001Y-104512000D01*
X127511697Y-104512000D01*
X127511700Y-104511999D01*
X127570036Y-104500396D01*
X127636189Y-104456193D01*
X127636193Y-104456189D01*
X127680396Y-104390036D01*
X127691999Y-104331700D01*
X127692000Y-104331697D01*
X127692000Y-103675001D01*
X127691999Y-103675000D01*
X127156687Y-103675000D01*
X127174500Y-103608520D01*
X127174500Y-103491480D01*
X127156687Y-103425000D01*
X127691999Y-103425000D01*
X127692000Y-103424999D01*
X127692000Y-102768302D01*
X127691999Y-102768299D01*
X128308000Y-102768299D01*
X128308000Y-103424999D01*
X128308001Y-103425000D01*
X128843313Y-103425000D01*
X128825500Y-103491480D01*
X128825500Y-103608520D01*
X128843313Y-103675000D01*
X128308001Y-103675000D01*
X128308000Y-103675001D01*
X128308000Y-104331700D01*
X128319603Y-104390036D01*
X128363806Y-104456189D01*
X128363810Y-104456193D01*
X128429963Y-104500396D01*
X128488299Y-104511999D01*
X128488303Y-104512000D01*
X129144999Y-104512000D01*
X129145000Y-104511999D01*
X129145000Y-103976686D01*
X129211480Y-103994500D01*
X129328520Y-103994500D01*
X129395000Y-103976686D01*
X129395000Y-104511999D01*
X129395001Y-104512000D01*
X130051697Y-104512000D01*
X130051700Y-104511999D01*
X130110036Y-104500396D01*
X130176189Y-104456193D01*
X130176193Y-104456189D01*
X130220396Y-104390036D01*
X130231999Y-104331700D01*
X130232000Y-104331697D01*
X130232000Y-103675001D01*
X130231999Y-103675000D01*
X129696687Y-103675000D01*
X129714500Y-103608520D01*
X129714500Y-103491480D01*
X129696687Y-103425000D01*
X130231999Y-103425000D01*
X130232000Y-103424999D01*
X130232000Y-102768302D01*
X130231999Y-102768299D01*
X130220396Y-102709963D01*
X130176193Y-102643810D01*
X130176189Y-102643806D01*
X130110036Y-102599603D01*
X130051700Y-102588000D01*
X129395001Y-102588000D01*
X129395000Y-102588001D01*
X129395000Y-103123313D01*
X129328520Y-103105500D01*
X129211480Y-103105500D01*
X129145000Y-103123313D01*
X129145000Y-102588001D01*
X129144999Y-102588000D01*
X128488299Y-102588000D01*
X128429963Y-102599603D01*
X128363810Y-102643806D01*
X128363806Y-102643810D01*
X128319603Y-102709963D01*
X128308000Y-102768299D01*
X127691999Y-102768299D01*
X127680396Y-102709963D01*
X127636193Y-102643810D01*
X127636189Y-102643806D01*
X127570036Y-102599603D01*
X127511700Y-102588000D01*
X126855001Y-102588000D01*
X126855000Y-102588001D01*
X126855000Y-103123313D01*
X126788520Y-103105500D01*
X126671480Y-103105500D01*
X126605000Y-103123313D01*
X126605000Y-102588001D01*
X126604999Y-102588000D01*
X125948299Y-102588000D01*
X125889963Y-102599603D01*
X125823810Y-102643806D01*
X125823806Y-102643810D01*
X125779603Y-102709963D01*
X125768000Y-102768299D01*
X123654500Y-102768299D01*
X123654500Y-100228253D01*
X125767500Y-100228253D01*
X125767500Y-101791746D01*
X125767501Y-101791758D01*
X125779132Y-101850227D01*
X125779133Y-101850231D01*
X125823448Y-101916552D01*
X125889769Y-101960867D01*
X125934231Y-101969711D01*
X125948241Y-101972498D01*
X125948246Y-101972498D01*
X125948252Y-101972500D01*
X125948253Y-101972500D01*
X127511747Y-101972500D01*
X127511748Y-101972500D01*
X127570231Y-101960867D01*
X127636552Y-101916552D01*
X127680867Y-101850231D01*
X127692500Y-101791748D01*
X127692500Y-101434500D01*
X127711407Y-101376309D01*
X127760907Y-101340345D01*
X127791500Y-101335500D01*
X128208500Y-101335500D01*
X128266691Y-101354407D01*
X128302655Y-101403907D01*
X128307500Y-101434500D01*
X128307500Y-101791746D01*
X128307501Y-101791758D01*
X128319132Y-101850227D01*
X128319133Y-101850231D01*
X128363448Y-101916552D01*
X128429769Y-101960867D01*
X128474231Y-101969711D01*
X128488241Y-101972498D01*
X128488246Y-101972498D01*
X128488252Y-101972500D01*
X128488253Y-101972500D01*
X130051747Y-101972500D01*
X130051748Y-101972500D01*
X130110231Y-101960867D01*
X130176552Y-101916552D01*
X130220867Y-101850231D01*
X130232500Y-101791748D01*
X130232500Y-101424500D01*
X130251407Y-101366309D01*
X130300907Y-101330345D01*
X130331500Y-101325500D01*
X133405969Y-101325500D01*
X133464160Y-101344407D01*
X133475966Y-101354490D01*
X133561985Y-101440509D01*
X133561987Y-101440510D01*
X133561989Y-101440512D01*
X133687511Y-101512982D01*
X133687512Y-101512982D01*
X133687515Y-101512984D01*
X133827525Y-101550500D01*
X133827526Y-101550500D01*
X133972474Y-101550500D01*
X133972475Y-101550500D01*
X134112485Y-101512984D01*
X134112487Y-101512982D01*
X134112489Y-101512982D01*
X134238010Y-101440512D01*
X134238010Y-101440511D01*
X134238015Y-101440509D01*
X134340509Y-101338015D01*
X134412984Y-101212485D01*
X134450500Y-101072475D01*
X134450500Y-100927525D01*
X134412984Y-100787515D01*
X134412982Y-100787512D01*
X134412982Y-100787510D01*
X134340512Y-100661989D01*
X134340510Y-100661987D01*
X134340509Y-100661985D01*
X134238015Y-100559491D01*
X134238012Y-100559489D01*
X134238010Y-100559487D01*
X134112488Y-100487017D01*
X134112489Y-100487017D01*
X134022797Y-100462984D01*
X133972475Y-100449500D01*
X133827525Y-100449500D01*
X133777210Y-100462982D01*
X133687510Y-100487017D01*
X133561989Y-100559487D01*
X133561988Y-100559488D01*
X133561985Y-100559490D01*
X133561985Y-100559491D01*
X133475970Y-100645505D01*
X133421456Y-100673281D01*
X133405969Y-100674500D01*
X130331500Y-100674500D01*
X130273309Y-100655593D01*
X130237345Y-100606093D01*
X130232500Y-100575500D01*
X130232500Y-100228253D01*
X130232498Y-100228241D01*
X130229711Y-100214231D01*
X130220867Y-100169769D01*
X130176552Y-100103448D01*
X130176548Y-100103445D01*
X130110233Y-100059134D01*
X130110231Y-100059133D01*
X130110228Y-100059132D01*
X130110227Y-100059132D01*
X130051758Y-100047501D01*
X130051748Y-100047500D01*
X128488252Y-100047500D01*
X128488251Y-100047500D01*
X128488241Y-100047501D01*
X128429772Y-100059132D01*
X128429766Y-100059134D01*
X128363451Y-100103445D01*
X128363445Y-100103451D01*
X128319134Y-100169766D01*
X128319132Y-100169772D01*
X128307501Y-100228241D01*
X128307500Y-100228253D01*
X128307500Y-100585500D01*
X128288593Y-100643691D01*
X128239093Y-100679655D01*
X128208500Y-100684500D01*
X127791500Y-100684500D01*
X127733309Y-100665593D01*
X127697345Y-100616093D01*
X127692500Y-100585500D01*
X127692500Y-100228253D01*
X127692498Y-100228241D01*
X127689711Y-100214231D01*
X127680867Y-100169769D01*
X127636552Y-100103448D01*
X127636548Y-100103445D01*
X127570233Y-100059134D01*
X127570231Y-100059133D01*
X127570228Y-100059132D01*
X127570227Y-100059132D01*
X127511758Y-100047501D01*
X127511748Y-100047500D01*
X125948252Y-100047500D01*
X125948251Y-100047500D01*
X125948241Y-100047501D01*
X125889772Y-100059132D01*
X125889766Y-100059134D01*
X125823451Y-100103445D01*
X125823445Y-100103451D01*
X125779134Y-100169766D01*
X125779132Y-100169772D01*
X125767501Y-100228241D01*
X125767500Y-100228253D01*
X123654500Y-100228253D01*
X123654500Y-97688253D01*
X125767500Y-97688253D01*
X125767500Y-99251746D01*
X125767501Y-99251758D01*
X125779132Y-99310227D01*
X125779133Y-99310231D01*
X125823448Y-99376552D01*
X125889769Y-99420867D01*
X125934231Y-99429711D01*
X125948241Y-99432498D01*
X125948246Y-99432498D01*
X125948252Y-99432500D01*
X125948253Y-99432500D01*
X127511747Y-99432500D01*
X127511748Y-99432500D01*
X127570231Y-99420867D01*
X127636552Y-99376552D01*
X127680867Y-99310231D01*
X127692500Y-99251748D01*
X127692500Y-98894500D01*
X127711407Y-98836309D01*
X127760907Y-98800345D01*
X127791500Y-98795500D01*
X128208500Y-98795500D01*
X128266691Y-98814407D01*
X128302655Y-98863907D01*
X128307500Y-98894500D01*
X128307500Y-99251746D01*
X128307501Y-99251758D01*
X128319132Y-99310227D01*
X128319133Y-99310231D01*
X128363448Y-99376552D01*
X128429769Y-99420867D01*
X128474231Y-99429711D01*
X128488241Y-99432498D01*
X128488246Y-99432498D01*
X128488252Y-99432500D01*
X128488253Y-99432500D01*
X130051747Y-99432500D01*
X130051748Y-99432500D01*
X130110231Y-99420867D01*
X130176552Y-99376552D01*
X130220867Y-99310231D01*
X130232500Y-99251748D01*
X130232500Y-98924500D01*
X130251407Y-98866309D01*
X130300907Y-98830345D01*
X130331500Y-98825500D01*
X133405969Y-98825500D01*
X133464160Y-98844407D01*
X133475966Y-98854490D01*
X133561985Y-98940509D01*
X133561987Y-98940510D01*
X133561989Y-98940512D01*
X133687511Y-99012982D01*
X133687512Y-99012982D01*
X133687515Y-99012984D01*
X133827525Y-99050500D01*
X133827526Y-99050500D01*
X133972474Y-99050500D01*
X133972475Y-99050500D01*
X134112485Y-99012984D01*
X134112487Y-99012982D01*
X134112489Y-99012982D01*
X134238010Y-98940512D01*
X134238010Y-98940511D01*
X134238015Y-98940509D01*
X134340509Y-98838015D01*
X134412984Y-98712485D01*
X134450500Y-98572475D01*
X134450500Y-98427525D01*
X134412984Y-98287515D01*
X134412982Y-98287512D01*
X134412982Y-98287510D01*
X134340512Y-98161989D01*
X134340510Y-98161987D01*
X134340509Y-98161985D01*
X134238015Y-98059491D01*
X134238012Y-98059489D01*
X134238010Y-98059487D01*
X134112488Y-97987017D01*
X134112489Y-97987017D01*
X134082896Y-97979087D01*
X133972475Y-97949500D01*
X133827525Y-97949500D01*
X133765790Y-97966041D01*
X133687510Y-97987017D01*
X133561989Y-98059487D01*
X133561988Y-98059488D01*
X133561985Y-98059490D01*
X133561985Y-98059491D01*
X133475970Y-98145505D01*
X133421456Y-98173281D01*
X133405969Y-98174500D01*
X130331500Y-98174500D01*
X130273309Y-98155593D01*
X130237345Y-98106093D01*
X130232500Y-98075500D01*
X130232500Y-97688253D01*
X130232498Y-97688241D01*
X130225363Y-97652374D01*
X130220867Y-97629769D01*
X130176552Y-97563448D01*
X130176548Y-97563445D01*
X130110233Y-97519134D01*
X130110231Y-97519133D01*
X130110228Y-97519132D01*
X130110227Y-97519132D01*
X130051758Y-97507501D01*
X130051748Y-97507500D01*
X128488252Y-97507500D01*
X128488251Y-97507500D01*
X128488241Y-97507501D01*
X128429772Y-97519132D01*
X128429766Y-97519134D01*
X128363451Y-97563445D01*
X128363445Y-97563451D01*
X128319134Y-97629766D01*
X128319132Y-97629772D01*
X128307501Y-97688241D01*
X128307500Y-97688253D01*
X128307500Y-98045500D01*
X128288593Y-98103691D01*
X128239093Y-98139655D01*
X128208500Y-98144500D01*
X127791500Y-98144500D01*
X127733309Y-98125593D01*
X127697345Y-98076093D01*
X127692500Y-98045500D01*
X127692500Y-97688253D01*
X127692498Y-97688241D01*
X127685363Y-97652374D01*
X127680867Y-97629769D01*
X127636552Y-97563448D01*
X127636548Y-97563445D01*
X127570233Y-97519134D01*
X127570231Y-97519133D01*
X127570228Y-97519132D01*
X127570227Y-97519132D01*
X127511758Y-97507501D01*
X127511748Y-97507500D01*
X125948252Y-97507500D01*
X125948251Y-97507500D01*
X125948241Y-97507501D01*
X125889772Y-97519132D01*
X125889766Y-97519134D01*
X125823451Y-97563445D01*
X125823445Y-97563451D01*
X125779134Y-97629766D01*
X125779132Y-97629772D01*
X125767501Y-97688241D01*
X125767500Y-97688253D01*
X123654500Y-97688253D01*
X123654500Y-95148299D01*
X125768000Y-95148299D01*
X125768000Y-95804999D01*
X125768001Y-95805000D01*
X126303313Y-95805000D01*
X126285500Y-95871480D01*
X126285500Y-95988520D01*
X126303313Y-96055000D01*
X125768001Y-96055000D01*
X125768000Y-96055001D01*
X125768000Y-96711700D01*
X125779603Y-96770036D01*
X125823806Y-96836189D01*
X125823810Y-96836193D01*
X125889963Y-96880396D01*
X125948299Y-96891999D01*
X125948303Y-96892000D01*
X126604999Y-96892000D01*
X126605000Y-96891999D01*
X126605000Y-96356686D01*
X126671480Y-96374500D01*
X126788520Y-96374500D01*
X126855000Y-96356686D01*
X126855000Y-96891999D01*
X126855001Y-96892000D01*
X127511697Y-96892000D01*
X127511700Y-96891999D01*
X127570036Y-96880396D01*
X127636189Y-96836193D01*
X127636193Y-96836189D01*
X127680396Y-96770036D01*
X127691999Y-96711700D01*
X127692000Y-96711697D01*
X127692000Y-96055001D01*
X127691999Y-96055000D01*
X127156687Y-96055000D01*
X127174500Y-95988520D01*
X127174500Y-95871480D01*
X127156687Y-95805000D01*
X127691999Y-95805000D01*
X127692000Y-95804999D01*
X127692000Y-95148302D01*
X127691999Y-95148299D01*
X128308000Y-95148299D01*
X128308000Y-95804999D01*
X128308001Y-95805000D01*
X128843313Y-95805000D01*
X128825500Y-95871480D01*
X128825500Y-95988520D01*
X128843313Y-96055000D01*
X128308001Y-96055000D01*
X128308000Y-96055001D01*
X128308000Y-96711700D01*
X128319603Y-96770036D01*
X128363806Y-96836189D01*
X128363810Y-96836193D01*
X128429963Y-96880396D01*
X128488299Y-96891999D01*
X128488303Y-96892000D01*
X129144999Y-96892000D01*
X129145000Y-96891999D01*
X129145000Y-96356686D01*
X129211480Y-96374500D01*
X129328520Y-96374500D01*
X129395000Y-96356686D01*
X129395000Y-96891999D01*
X129395001Y-96892000D01*
X130051697Y-96892000D01*
X130051700Y-96891999D01*
X130110036Y-96880396D01*
X130176189Y-96836193D01*
X130176193Y-96836189D01*
X130220396Y-96770036D01*
X130231999Y-96711700D01*
X130232000Y-96711697D01*
X130232000Y-96055001D01*
X130231999Y-96055000D01*
X129696687Y-96055000D01*
X129714500Y-95988520D01*
X129714500Y-95871480D01*
X129696687Y-95805000D01*
X130231999Y-95805000D01*
X130232000Y-95804999D01*
X130232000Y-95148302D01*
X130231999Y-95148299D01*
X130220396Y-95089963D01*
X130176193Y-95023810D01*
X130176189Y-95023806D01*
X130110036Y-94979603D01*
X130051700Y-94968000D01*
X129395001Y-94968000D01*
X129395000Y-94968001D01*
X129395000Y-95503313D01*
X129328520Y-95485500D01*
X129211480Y-95485500D01*
X129145000Y-95503313D01*
X129145000Y-94968001D01*
X129144999Y-94968000D01*
X128488299Y-94968000D01*
X128429963Y-94979603D01*
X128363810Y-95023806D01*
X128363806Y-95023810D01*
X128319603Y-95089963D01*
X128308000Y-95148299D01*
X127691999Y-95148299D01*
X127680396Y-95089963D01*
X127636193Y-95023810D01*
X127636189Y-95023806D01*
X127570036Y-94979603D01*
X127511700Y-94968000D01*
X126855001Y-94968000D01*
X126855000Y-94968001D01*
X126855000Y-95503313D01*
X126788520Y-95485500D01*
X126671480Y-95485500D01*
X126605000Y-95503313D01*
X126605000Y-94968001D01*
X126604999Y-94968000D01*
X125948299Y-94968000D01*
X125889963Y-94979603D01*
X125823810Y-95023806D01*
X125823806Y-95023810D01*
X125779603Y-95089963D01*
X125768000Y-95148299D01*
X123654500Y-95148299D01*
X123654500Y-92608253D01*
X125767500Y-92608253D01*
X125767500Y-94171746D01*
X125767501Y-94171758D01*
X125779132Y-94230227D01*
X125779133Y-94230231D01*
X125823448Y-94296552D01*
X125889769Y-94340867D01*
X125934231Y-94349711D01*
X125948241Y-94352498D01*
X125948246Y-94352498D01*
X125948252Y-94352500D01*
X125948253Y-94352500D01*
X127511747Y-94352500D01*
X127511748Y-94352500D01*
X127570231Y-94340867D01*
X127636552Y-94296552D01*
X127680867Y-94230231D01*
X127692500Y-94171748D01*
X127692500Y-93814500D01*
X127711407Y-93756309D01*
X127760907Y-93720345D01*
X127791500Y-93715500D01*
X128208500Y-93715500D01*
X128266691Y-93734407D01*
X128302655Y-93783907D01*
X128307500Y-93814500D01*
X128307500Y-94171746D01*
X128307501Y-94171758D01*
X128319132Y-94230227D01*
X128319133Y-94230231D01*
X128363448Y-94296552D01*
X128429769Y-94340867D01*
X128474231Y-94349711D01*
X128488241Y-94352498D01*
X128488246Y-94352498D01*
X128488252Y-94352500D01*
X128488253Y-94352500D01*
X130051747Y-94352500D01*
X130051748Y-94352500D01*
X130110231Y-94340867D01*
X130176552Y-94296552D01*
X130220867Y-94230231D01*
X130232500Y-94171748D01*
X130232500Y-93824500D01*
X130251407Y-93766309D01*
X130300907Y-93730345D01*
X130331500Y-93725500D01*
X133405969Y-93725500D01*
X133464160Y-93744407D01*
X133475966Y-93754490D01*
X133561985Y-93840509D01*
X133561987Y-93840510D01*
X133561989Y-93840512D01*
X133687511Y-93912982D01*
X133687512Y-93912982D01*
X133687515Y-93912984D01*
X133827525Y-93950500D01*
X133827526Y-93950500D01*
X133972474Y-93950500D01*
X133972475Y-93950500D01*
X134112485Y-93912984D01*
X134112487Y-93912982D01*
X134112489Y-93912982D01*
X134238010Y-93840512D01*
X134238010Y-93840511D01*
X134238015Y-93840509D01*
X134340509Y-93738015D01*
X134397402Y-93639474D01*
X134412982Y-93612489D01*
X134412982Y-93612487D01*
X134412984Y-93612485D01*
X134450500Y-93472475D01*
X134450500Y-93327525D01*
X134412984Y-93187515D01*
X134412982Y-93187512D01*
X134412982Y-93187510D01*
X134340512Y-93061989D01*
X134340510Y-93061987D01*
X134340509Y-93061985D01*
X134238015Y-92959491D01*
X134238012Y-92959489D01*
X134238010Y-92959487D01*
X134112488Y-92887017D01*
X134112489Y-92887017D01*
X134082896Y-92879087D01*
X133972475Y-92849500D01*
X133827525Y-92849500D01*
X133765790Y-92866041D01*
X133687510Y-92887017D01*
X133561989Y-92959487D01*
X133561988Y-92959488D01*
X133561985Y-92959490D01*
X133561985Y-92959491D01*
X133475970Y-93045505D01*
X133421456Y-93073281D01*
X133405969Y-93074500D01*
X130331500Y-93074500D01*
X130273309Y-93055593D01*
X130237345Y-93006093D01*
X130232500Y-92975500D01*
X130232500Y-92608253D01*
X130232498Y-92608241D01*
X130229711Y-92594231D01*
X130220867Y-92549769D01*
X130176552Y-92483448D01*
X130176548Y-92483445D01*
X130110233Y-92439134D01*
X130110231Y-92439133D01*
X130110228Y-92439132D01*
X130110227Y-92439132D01*
X130051758Y-92427501D01*
X130051748Y-92427500D01*
X128488252Y-92427500D01*
X128488251Y-92427500D01*
X128488241Y-92427501D01*
X128429772Y-92439132D01*
X128429766Y-92439134D01*
X128363451Y-92483445D01*
X128363445Y-92483451D01*
X128319134Y-92549766D01*
X128319132Y-92549772D01*
X128307501Y-92608241D01*
X128307500Y-92608253D01*
X128307500Y-92965500D01*
X128288593Y-93023691D01*
X128239093Y-93059655D01*
X128208500Y-93064500D01*
X127791500Y-93064500D01*
X127733309Y-93045593D01*
X127697345Y-92996093D01*
X127692500Y-92965500D01*
X127692500Y-92608253D01*
X127692498Y-92608241D01*
X127689711Y-92594231D01*
X127680867Y-92549769D01*
X127636552Y-92483448D01*
X127636548Y-92483445D01*
X127570233Y-92439134D01*
X127570231Y-92439133D01*
X127570228Y-92439132D01*
X127570227Y-92439132D01*
X127511758Y-92427501D01*
X127511748Y-92427500D01*
X125948252Y-92427500D01*
X125948251Y-92427500D01*
X125948241Y-92427501D01*
X125889772Y-92439132D01*
X125889766Y-92439134D01*
X125823451Y-92483445D01*
X125823445Y-92483451D01*
X125779134Y-92549766D01*
X125779132Y-92549772D01*
X125767501Y-92608241D01*
X125767500Y-92608253D01*
X123654500Y-92608253D01*
X123654500Y-90068253D01*
X125767500Y-90068253D01*
X125767500Y-91631746D01*
X125767501Y-91631758D01*
X125776358Y-91676282D01*
X125779133Y-91690231D01*
X125823448Y-91756552D01*
X125889769Y-91800867D01*
X125934231Y-91809711D01*
X125948241Y-91812498D01*
X125948246Y-91812498D01*
X125948252Y-91812500D01*
X125948253Y-91812500D01*
X127511747Y-91812500D01*
X127511748Y-91812500D01*
X127570231Y-91800867D01*
X127636552Y-91756552D01*
X127680867Y-91690231D01*
X127692500Y-91631748D01*
X127692500Y-91274500D01*
X127711407Y-91216309D01*
X127760907Y-91180345D01*
X127791500Y-91175500D01*
X128208500Y-91175500D01*
X128266691Y-91194407D01*
X128302655Y-91243907D01*
X128307500Y-91274500D01*
X128307500Y-91631746D01*
X128307501Y-91631758D01*
X128316358Y-91676282D01*
X128319133Y-91690231D01*
X128363448Y-91756552D01*
X128429769Y-91800867D01*
X128474231Y-91809711D01*
X128488241Y-91812498D01*
X128488246Y-91812498D01*
X128488252Y-91812500D01*
X128488253Y-91812500D01*
X130051747Y-91812500D01*
X130051748Y-91812500D01*
X130110231Y-91800867D01*
X130176552Y-91756552D01*
X130220867Y-91690231D01*
X130231255Y-91638008D01*
X154710000Y-91638008D01*
X154710000Y-91881991D01*
X154748164Y-92122954D01*
X154823558Y-92354992D01*
X154934319Y-92572374D01*
X155075933Y-92767287D01*
X155576375Y-92266844D01*
X155599762Y-92301844D01*
X155718156Y-92420238D01*
X155753152Y-92443622D01*
X155252710Y-92944065D01*
X155447625Y-93085680D01*
X155665005Y-93196440D01*
X155897045Y-93271835D01*
X156138009Y-93310000D01*
X156381991Y-93310000D01*
X156622954Y-93271835D01*
X156854995Y-93196440D01*
X156861001Y-93193380D01*
X156921432Y-93183805D01*
X156975950Y-93211579D01*
X157003731Y-93266094D01*
X156994163Y-93326527D01*
X156991688Y-93331086D01*
X156957014Y-93391144D01*
X156957013Y-93391144D01*
X156854155Y-93639468D01*
X156854151Y-93639481D01*
X156784583Y-93899111D01*
X156784583Y-93899116D01*
X156749500Y-94165601D01*
X156749500Y-94434398D01*
X156784583Y-94700883D01*
X156784583Y-94700888D01*
X156854151Y-94960518D01*
X156854155Y-94960531D01*
X156957012Y-95208851D01*
X156957014Y-95208854D01*
X156957016Y-95208859D01*
X156991687Y-95268911D01*
X156991688Y-95268912D01*
X157004409Y-95328761D01*
X156979522Y-95384656D01*
X156926534Y-95415249D01*
X156865684Y-95408853D01*
X156861008Y-95406623D01*
X156854995Y-95403559D01*
X156622954Y-95328164D01*
X156381991Y-95290000D01*
X156138009Y-95290000D01*
X155897045Y-95328164D01*
X155665005Y-95403559D01*
X155447623Y-95514320D01*
X155447619Y-95514322D01*
X155252710Y-95655932D01*
X155753154Y-96156377D01*
X155718156Y-96179762D01*
X155599762Y-96298156D01*
X155576376Y-96333154D01*
X155075932Y-95832710D01*
X154934322Y-96027619D01*
X154934320Y-96027623D01*
X154823559Y-96245005D01*
X154748164Y-96477045D01*
X154710000Y-96718008D01*
X154710000Y-96961991D01*
X154748164Y-97202954D01*
X154823559Y-97434994D01*
X154934319Y-97652374D01*
X155075933Y-97847287D01*
X155576375Y-97346844D01*
X155599762Y-97381844D01*
X155718156Y-97500238D01*
X155753152Y-97523622D01*
X155252710Y-98024065D01*
X155447625Y-98165680D01*
X155665005Y-98276440D01*
X155897045Y-98351835D01*
X156138009Y-98390000D01*
X156381991Y-98390000D01*
X156622954Y-98351835D01*
X156854994Y-98276440D01*
X157072376Y-98165679D01*
X157072382Y-98165675D01*
X157267288Y-98024066D01*
X157267288Y-98024065D01*
X156766845Y-97523622D01*
X156801844Y-97500238D01*
X156920238Y-97381844D01*
X156943622Y-97346846D01*
X157444065Y-97847288D01*
X157444066Y-97847288D01*
X157585675Y-97652382D01*
X157585679Y-97652376D01*
X157696440Y-97434994D01*
X157771835Y-97202954D01*
X157810000Y-96961991D01*
X157810000Y-96718008D01*
X157771835Y-96477045D01*
X157696440Y-96245005D01*
X157693378Y-96238995D01*
X157683806Y-96178563D01*
X157711582Y-96124046D01*
X157766098Y-96096267D01*
X157826531Y-96105838D01*
X157831087Y-96108312D01*
X157891139Y-96142983D01*
X157891144Y-96142986D01*
X158035863Y-96202930D01*
X158139474Y-96245847D01*
X158399109Y-96315416D01*
X158665603Y-96350500D01*
X158665604Y-96350500D01*
X158934396Y-96350500D01*
X158934397Y-96350500D01*
X159200891Y-96315416D01*
X159460526Y-96245847D01*
X159708859Y-96142984D01*
X159768913Y-96108311D01*
X159828759Y-96095590D01*
X159884655Y-96120476D01*
X159915248Y-96173464D01*
X159908853Y-96234314D01*
X159906625Y-96238987D01*
X159903559Y-96245003D01*
X159828164Y-96477045D01*
X159790000Y-96718008D01*
X159790000Y-96961991D01*
X159828164Y-97202954D01*
X159903559Y-97434994D01*
X160014319Y-97652374D01*
X160155933Y-97847288D01*
X160656376Y-97346845D01*
X160679762Y-97381844D01*
X160798156Y-97500238D01*
X160833152Y-97523622D01*
X160332710Y-98024065D01*
X160527625Y-98165680D01*
X160745005Y-98276440D01*
X160977045Y-98351835D01*
X161218009Y-98390000D01*
X161461991Y-98390000D01*
X161702954Y-98351835D01*
X161934994Y-98276440D01*
X162152376Y-98165679D01*
X162152382Y-98165675D01*
X162347288Y-98024066D01*
X162347288Y-98024065D01*
X161846845Y-97523622D01*
X161881844Y-97500238D01*
X162000238Y-97381844D01*
X162023622Y-97346845D01*
X162524065Y-97847288D01*
X162524066Y-97847288D01*
X162665675Y-97652382D01*
X162665679Y-97652376D01*
X162776440Y-97434994D01*
X162851835Y-97202954D01*
X162890000Y-96961991D01*
X162890000Y-96718008D01*
X162851835Y-96477045D01*
X162776440Y-96245005D01*
X162665680Y-96027625D01*
X162524065Y-95832710D01*
X162023622Y-96333152D01*
X162000238Y-96298156D01*
X161881844Y-96179762D01*
X161846845Y-96156376D01*
X162347288Y-95655933D01*
X162347289Y-95655933D01*
X162152374Y-95514319D01*
X161934994Y-95403559D01*
X161702954Y-95328164D01*
X161461991Y-95290000D01*
X161218009Y-95290000D01*
X160977045Y-95328164D01*
X160745003Y-95403559D01*
X160738987Y-95406625D01*
X160678555Y-95416192D01*
X160624040Y-95388411D01*
X160596266Y-95333893D01*
X160605841Y-95273461D01*
X160608297Y-95268937D01*
X160642984Y-95208859D01*
X160745847Y-94960526D01*
X160815416Y-94700891D01*
X160850500Y-94434397D01*
X160850500Y-94165603D01*
X160815416Y-93899109D01*
X160745847Y-93639474D01*
X160676674Y-93472475D01*
X160642986Y-93391144D01*
X160642983Y-93391139D01*
X160608312Y-93331087D01*
X160595590Y-93271239D01*
X160620477Y-93215343D01*
X160673465Y-93184750D01*
X160734315Y-93191146D01*
X160738995Y-93193378D01*
X160745005Y-93196440D01*
X160977045Y-93271835D01*
X161218009Y-93310000D01*
X161461991Y-93310000D01*
X161702954Y-93271835D01*
X161934994Y-93196440D01*
X162152376Y-93085679D01*
X162152382Y-93085675D01*
X162347288Y-92944066D01*
X162347288Y-92944065D01*
X161846846Y-92443622D01*
X161881844Y-92420238D01*
X162000238Y-92301844D01*
X162023622Y-92266845D01*
X162524065Y-92767288D01*
X162524066Y-92767288D01*
X162665675Y-92572382D01*
X162665679Y-92572376D01*
X162776442Y-92354992D01*
X162851835Y-92122954D01*
X162890000Y-91881991D01*
X162890000Y-91638008D01*
X162851835Y-91397045D01*
X162776440Y-91165005D01*
X162665680Y-90947625D01*
X162524065Y-90752710D01*
X162023622Y-91253152D01*
X162000238Y-91218156D01*
X161881844Y-91099762D01*
X161846844Y-91076375D01*
X162347287Y-90575933D01*
X162152374Y-90434319D01*
X161934994Y-90323559D01*
X161702954Y-90248164D01*
X161461991Y-90210000D01*
X161218009Y-90210000D01*
X160977045Y-90248164D01*
X160745005Y-90323559D01*
X160527623Y-90434320D01*
X160527619Y-90434322D01*
X160332710Y-90575932D01*
X160833154Y-91076376D01*
X160798156Y-91099762D01*
X160679762Y-91218156D01*
X160656377Y-91253154D01*
X160155932Y-90752710D01*
X160014322Y-90947619D01*
X160014320Y-90947623D01*
X159903559Y-91165005D01*
X159828164Y-91397045D01*
X159790000Y-91638008D01*
X159790000Y-91881991D01*
X159828164Y-92122954D01*
X159903558Y-92354992D01*
X159903557Y-92354992D01*
X159906623Y-92361008D01*
X159916193Y-92421440D01*
X159888414Y-92475956D01*
X159833897Y-92503733D01*
X159773465Y-92494160D01*
X159768921Y-92491693D01*
X159708859Y-92457016D01*
X159708855Y-92457014D01*
X159708851Y-92457012D01*
X159460531Y-92354155D01*
X159460530Y-92354154D01*
X159460526Y-92354153D01*
X159200891Y-92284584D01*
X159200888Y-92284583D01*
X159200886Y-92284583D01*
X158934398Y-92249500D01*
X158934397Y-92249500D01*
X158665603Y-92249500D01*
X158665601Y-92249500D01*
X158399116Y-92284583D01*
X158399111Y-92284583D01*
X158139481Y-92354151D01*
X158139468Y-92354155D01*
X157891144Y-92457013D01*
X157891144Y-92457014D01*
X157831086Y-92491688D01*
X157771238Y-92504409D01*
X157715342Y-92479522D01*
X157684750Y-92426533D01*
X157691146Y-92365683D01*
X157693380Y-92361001D01*
X157696441Y-92354992D01*
X157696442Y-92354992D01*
X157771835Y-92122954D01*
X157810000Y-91881991D01*
X157810000Y-91638008D01*
X157771835Y-91397045D01*
X157696440Y-91165005D01*
X157585680Y-90947625D01*
X157444065Y-90752710D01*
X156943622Y-91253152D01*
X156920238Y-91218156D01*
X156801844Y-91099762D01*
X156766844Y-91076375D01*
X157267287Y-90575933D01*
X157072374Y-90434319D01*
X156854994Y-90323559D01*
X156622954Y-90248164D01*
X156381991Y-90210000D01*
X156138009Y-90210000D01*
X155897045Y-90248164D01*
X155665005Y-90323559D01*
X155447623Y-90434320D01*
X155447619Y-90434322D01*
X155252710Y-90575932D01*
X155753154Y-91076376D01*
X155718156Y-91099762D01*
X155599762Y-91218156D01*
X155576376Y-91253154D01*
X155075932Y-90752710D01*
X154934322Y-90947619D01*
X154934320Y-90947623D01*
X154823559Y-91165005D01*
X154748164Y-91397045D01*
X154710000Y-91638008D01*
X130231255Y-91638008D01*
X130232500Y-91631748D01*
X130232500Y-91324500D01*
X130251407Y-91266309D01*
X130300907Y-91230345D01*
X130331500Y-91225500D01*
X133405969Y-91225500D01*
X133464160Y-91244407D01*
X133475966Y-91254490D01*
X133561985Y-91340509D01*
X133561987Y-91340510D01*
X133561989Y-91340512D01*
X133687511Y-91412982D01*
X133687512Y-91412982D01*
X133687515Y-91412984D01*
X133827525Y-91450500D01*
X133827526Y-91450500D01*
X133972474Y-91450500D01*
X133972475Y-91450500D01*
X134112485Y-91412984D01*
X134112487Y-91412982D01*
X134112489Y-91412982D01*
X134238010Y-91340512D01*
X134238010Y-91340511D01*
X134238015Y-91340509D01*
X134340509Y-91238015D01*
X134376602Y-91175500D01*
X134412982Y-91112489D01*
X134412982Y-91112487D01*
X134412984Y-91112485D01*
X134450500Y-90972475D01*
X134450500Y-90827525D01*
X134412984Y-90687515D01*
X134398925Y-90663164D01*
X134398924Y-90663161D01*
X134340512Y-90561989D01*
X134340510Y-90561987D01*
X134340509Y-90561985D01*
X134238015Y-90459491D01*
X134238012Y-90459489D01*
X134238010Y-90459487D01*
X134112488Y-90387017D01*
X134112489Y-90387017D01*
X134082896Y-90379087D01*
X133972475Y-90349500D01*
X133827525Y-90349500D01*
X133765790Y-90366041D01*
X133687510Y-90387017D01*
X133561989Y-90459487D01*
X133561988Y-90459488D01*
X133561985Y-90459490D01*
X133561985Y-90459491D01*
X133475970Y-90545505D01*
X133421456Y-90573281D01*
X133405969Y-90574500D01*
X130331500Y-90574500D01*
X130273309Y-90555593D01*
X130237345Y-90506093D01*
X130232500Y-90475500D01*
X130232500Y-90068253D01*
X130232498Y-90068241D01*
X130229711Y-90054231D01*
X130220867Y-90009769D01*
X130176552Y-89943448D01*
X130176548Y-89943445D01*
X130110233Y-89899134D01*
X130110231Y-89899133D01*
X130110228Y-89899132D01*
X130110227Y-89899132D01*
X130051758Y-89887501D01*
X130051748Y-89887500D01*
X128488252Y-89887500D01*
X128488251Y-89887500D01*
X128488241Y-89887501D01*
X128429772Y-89899132D01*
X128429766Y-89899134D01*
X128363451Y-89943445D01*
X128363445Y-89943451D01*
X128319134Y-90009766D01*
X128319132Y-90009772D01*
X128307501Y-90068241D01*
X128307500Y-90068253D01*
X128307500Y-90425500D01*
X128288593Y-90483691D01*
X128239093Y-90519655D01*
X128208500Y-90524500D01*
X127791500Y-90524500D01*
X127733309Y-90505593D01*
X127697345Y-90456093D01*
X127692500Y-90425500D01*
X127692500Y-90068253D01*
X127692498Y-90068241D01*
X127689711Y-90054231D01*
X127680867Y-90009769D01*
X127636552Y-89943448D01*
X127636548Y-89943445D01*
X127570233Y-89899134D01*
X127570231Y-89899133D01*
X127570228Y-89899132D01*
X127570227Y-89899132D01*
X127511758Y-89887501D01*
X127511748Y-89887500D01*
X125948252Y-89887500D01*
X125948251Y-89887500D01*
X125948241Y-89887501D01*
X125889772Y-89899132D01*
X125889766Y-89899134D01*
X125823451Y-89943445D01*
X125823445Y-89943451D01*
X125779134Y-90009766D01*
X125779132Y-90009772D01*
X125767501Y-90068241D01*
X125767500Y-90068253D01*
X123654500Y-90068253D01*
X123654500Y-80253500D01*
X123673407Y-80195309D01*
X123722907Y-80159345D01*
X123753500Y-80154500D01*
X173246500Y-80154500D01*
X173304691Y-80173407D01*
G37*
%TD.AperFunction*%
%TD*%
M02*
