%TF.GenerationSoftware,KiCad,Pcbnew,10.0.1-10.0.1~ubuntu25.10.1*%
%TF.CreationDate,2026-05-16T02:44:52+00:00*%
%TF.ProjectId,ADSBAFE01,41445342-4146-4453-9031-2e6b69636164,ADSBAFE01*%
%TF.SameCoordinates,Original*%
%TF.FileFunction,Paste,Bot*%
%TF.FilePolarity,Positive*%
%FSLAX46Y46*%
G04 Gerber Fmt 4.6, Leading zero omitted, Abs format (unit mm)*
G04 Created by KiCad (PCBNEW 10.0.1-10.0.1~ubuntu25.10.1) date 2026-05-16 02:44:52*
%MOMM*%
%LPD*%
G01*
G04 APERTURE LIST*
G04 Aperture macros list*
%AMRoundRect*
0 Rectangle with rounded corners*
0 $1 Rounding radius*
0 $2 $3 $4 $5 $6 $7 $8 $9 X,Y pos of 4 corners*
0 Add a 4 corners polygon primitive as box body*
4,1,4,$2,$3,$4,$5,$6,$7,$8,$9,$2,$3,0*
0 Add four circle primitives for the rounded corners*
1,1,$1+$1,$2,$3*
1,1,$1+$1,$4,$5*
1,1,$1+$1,$6,$7*
1,1,$1+$1,$8,$9*
0 Add four rect primitives between the rounded corners*
20,1,$1+$1,$2,$3,$4,$5,0*
20,1,$1+$1,$4,$5,$6,$7,0*
20,1,$1+$1,$6,$7,$8,$9,0*
20,1,$1+$1,$8,$9,$2,$3,0*%
G04 Aperture macros list end*
%ADD10RoundRect,0.150000X-0.200000X0.150000X-0.200000X-0.150000X0.200000X-0.150000X0.200000X0.150000X0*%
%ADD11RoundRect,0.237500X0.237500X-0.250000X0.237500X0.250000X-0.237500X0.250000X-0.237500X-0.250000X0*%
%ADD12RoundRect,0.237500X0.250000X0.237500X-0.250000X0.237500X-0.250000X-0.237500X0.250000X-0.237500X0*%
%ADD13RoundRect,0.237500X-0.300000X-0.237500X0.300000X-0.237500X0.300000X0.237500X-0.300000X0.237500X0*%
%ADD14RoundRect,0.237500X0.300000X0.237500X-0.300000X0.237500X-0.300000X-0.237500X0.300000X-0.237500X0*%
%ADD15RoundRect,0.237500X-0.237500X0.300000X-0.237500X-0.300000X0.237500X-0.300000X0.237500X0.300000X0*%
%ADD16RoundRect,0.250000X0.475000X-0.337500X0.475000X0.337500X-0.475000X0.337500X-0.475000X-0.337500X0*%
%ADD17RoundRect,0.100000X-0.100000X0.712500X-0.100000X-0.712500X0.100000X-0.712500X0.100000X0.712500X0*%
%ADD18RoundRect,0.237500X-0.250000X-0.237500X0.250000X-0.237500X0.250000X0.237500X-0.250000X0.237500X0*%
%ADD19RoundRect,0.237500X-0.237500X0.250000X-0.237500X-0.250000X0.237500X-0.250000X0.237500X0.250000X0*%
%ADD20RoundRect,0.100000X-0.225000X-0.100000X0.225000X-0.100000X0.225000X0.100000X-0.225000X0.100000X0*%
%ADD21RoundRect,0.125000X0.687500X0.125000X-0.687500X0.125000X-0.687500X-0.125000X0.687500X-0.125000X0*%
%ADD22RoundRect,0.237500X0.237500X-0.300000X0.237500X0.300000X-0.237500X0.300000X-0.237500X-0.300000X0*%
%ADD23RoundRect,0.100000X-0.100000X0.225000X-0.100000X-0.225000X0.100000X-0.225000X0.100000X0.225000X0*%
%ADD24RoundRect,0.250000X0.600000X-0.400000X0.600000X0.400000X-0.600000X0.400000X-0.600000X-0.400000X0*%
%ADD25RoundRect,0.100000X0.225000X0.100000X-0.225000X0.100000X-0.225000X-0.100000X0.225000X-0.100000X0*%
%ADD26R,1.000000X1.000000*%
%ADD27R,1.000000X2.300000*%
%ADD28R,1.000000X3.800000*%
%ADD29R,2.300000X1.000000*%
%ADD30R,3.800000X1.000000*%
%ADD31RoundRect,0.225000X0.375000X-0.225000X0.375000X0.225000X-0.375000X0.225000X-0.375000X-0.225000X0*%
%ADD32RoundRect,0.147500X-0.147500X-0.172500X0.147500X-0.172500X0.147500X0.172500X-0.147500X0.172500X0*%
%ADD33RoundRect,0.100000X0.100000X-0.225000X0.100000X0.225000X-0.100000X0.225000X-0.100000X-0.225000X0*%
%ADD34R,0.740000X2.310000*%
%ADD35R,0.740000X1.400000*%
G04 APERTURE END LIST*
D10*
%TO.C,D3*%
X153440000Y-94300000D03*
X153440000Y-92900000D03*
%TD*%
D11*
%TO.C,R18*%
X162200000Y-112975000D03*
X162200000Y-111150000D03*
%TD*%
D12*
%TO.C,R5*%
X136812500Y-98470000D03*
X134987500Y-98470000D03*
%TD*%
D13*
%TO.C,C17*%
X145937500Y-108900000D03*
X147662500Y-108900000D03*
%TD*%
D14*
%TO.C,C3*%
X141002500Y-95400000D03*
X139277500Y-95400000D03*
%TD*%
%TO.C,C2*%
X141002500Y-92200000D03*
X139277500Y-92200000D03*
%TD*%
D12*
%TO.C,R10*%
X136912500Y-114100000D03*
X135087500Y-114100000D03*
%TD*%
D15*
%TO.C,C11*%
X160300000Y-102600000D03*
X160300000Y-104325000D03*
%TD*%
D16*
%TO.C,C4*%
X147900000Y-118137500D03*
X147900000Y-116062500D03*
%TD*%
D15*
%TO.C,C12*%
X158700000Y-106200000D03*
X158700000Y-107925000D03*
%TD*%
D17*
%TO.C,U4*%
X158525000Y-111150000D03*
X159175000Y-111150000D03*
X159825000Y-111150000D03*
X160475000Y-111150000D03*
X160475000Y-115375000D03*
X159825000Y-115375000D03*
X159175000Y-115375000D03*
X158525000Y-115375000D03*
%TD*%
D18*
%TO.C,R12*%
X135087500Y-115700000D03*
X136912500Y-115700000D03*
%TD*%
D19*
%TO.C,R14*%
X141000000Y-110400000D03*
X141000000Y-112225000D03*
%TD*%
D15*
%TO.C,C14*%
X156800000Y-107600000D03*
X156800000Y-109325000D03*
%TD*%
D20*
%TO.C,SW1*%
X142650000Y-95250000D03*
X142650000Y-94600000D03*
X142650000Y-93950000D03*
X144550000Y-93950000D03*
X144550000Y-94600000D03*
X144550000Y-95250000D03*
%TD*%
D21*
%TO.C,U1*%
X150212500Y-110525000D03*
X150212500Y-111175000D03*
X150212500Y-111825000D03*
X150212500Y-112475000D03*
X145987500Y-112475000D03*
X145987500Y-111825000D03*
X145987500Y-111175000D03*
X145987500Y-110525000D03*
%TD*%
D12*
%TO.C,R4*%
X136812500Y-93390000D03*
X134987500Y-93390000D03*
%TD*%
%TO.C,R8*%
X136812500Y-108630000D03*
X134987500Y-108630000D03*
%TD*%
D22*
%TO.C,C8*%
X139400000Y-112175000D03*
X139400000Y-110450000D03*
%TD*%
D12*
%TO.C,R2*%
X141052500Y-97000000D03*
X139227500Y-97000000D03*
%TD*%
D18*
%TO.C,R13*%
X135087500Y-117300000D03*
X136912500Y-117300000D03*
%TD*%
D11*
%TO.C,R15*%
X140700000Y-101712500D03*
X140700000Y-99887500D03*
%TD*%
D14*
%TO.C,C6*%
X141062500Y-105912500D03*
X139337500Y-105912500D03*
%TD*%
D15*
%TO.C,C9*%
X151840000Y-94162500D03*
X151840000Y-95887500D03*
%TD*%
D12*
%TO.C,R6*%
X136812500Y-101010000D03*
X134987500Y-101010000D03*
%TD*%
D11*
%TO.C,R17*%
X156800000Y-112975000D03*
X156800000Y-111150000D03*
%TD*%
D14*
%TO.C,C5*%
X144562500Y-92300000D03*
X142837500Y-92300000D03*
%TD*%
D11*
%TO.C,R20*%
X144097500Y-106912500D03*
X144097500Y-105087500D03*
%TD*%
D12*
%TO.C,R3*%
X136812500Y-90850000D03*
X134987500Y-90850000D03*
%TD*%
%TO.C,R19*%
X158872500Y-117562500D03*
X157047500Y-117562500D03*
%TD*%
D14*
%TO.C,C16*%
X147620000Y-103400000D03*
X145895000Y-103400000D03*
%TD*%
D23*
%TO.C,U5*%
X145797500Y-105000000D03*
X146447500Y-105000000D03*
X147097500Y-105000000D03*
X147097500Y-106900000D03*
X146447500Y-106900000D03*
X145797500Y-106900000D03*
%TD*%
D24*
%TO.C,D1*%
X143500000Y-118050000D03*
X143500000Y-114550000D03*
%TD*%
D19*
%TO.C,R16*%
X155200000Y-102750000D03*
X155200000Y-104575000D03*
%TD*%
D16*
%TO.C,C1*%
X145800000Y-118137500D03*
X145800000Y-116062500D03*
%TD*%
D12*
%TO.C,R1*%
X141052500Y-93800000D03*
X139227500Y-93800000D03*
%TD*%
D25*
%TO.C,U3*%
X158650000Y-102812500D03*
X158650000Y-103462500D03*
X158650000Y-104112500D03*
X156750000Y-104112500D03*
X156750000Y-103462500D03*
X156750000Y-102812500D03*
%TD*%
D13*
%TO.C,C10*%
X151837500Y-102725000D03*
X153562500Y-102725000D03*
%TD*%
D26*
%TO.C,M1*%
X132420000Y-88920000D03*
D27*
X132420000Y-90570000D03*
D28*
X132420000Y-95820000D03*
X132420000Y-101820000D03*
X132420000Y-107820000D03*
X132420000Y-113820000D03*
D27*
X132420000Y-119070000D03*
D26*
X132420000Y-120720000D03*
D29*
X134070000Y-88920000D03*
X134070000Y-120720000D03*
D30*
X139320000Y-88920000D03*
X139320000Y-120720000D03*
X145320000Y-88920000D03*
X145320000Y-120720000D03*
X151320000Y-88920000D03*
X151320000Y-120720000D03*
X157320000Y-88920000D03*
X157320000Y-120720000D03*
D29*
X162570000Y-88920000D03*
X162570000Y-120720000D03*
D26*
X164220000Y-88920000D03*
D27*
X164220000Y-90570000D03*
D28*
X164220000Y-95820000D03*
X164220000Y-101820000D03*
X164220000Y-107820000D03*
X164220000Y-113820000D03*
D27*
X164220000Y-119070000D03*
D26*
X164220000Y-120720000D03*
%TD*%
D25*
%TO.C,SW2*%
X141150000Y-107462500D03*
X141150000Y-108112500D03*
X141150000Y-108762500D03*
X139250000Y-108762500D03*
X139250000Y-108112500D03*
X139250000Y-107462500D03*
%TD*%
D15*
%TO.C,C7*%
X145350000Y-99987500D03*
X145350000Y-101712500D03*
%TD*%
D31*
%TO.C,D2*%
X143400000Y-112250000D03*
X143400000Y-108950000D03*
%TD*%
D32*
%TO.C,L1*%
X159015000Y-109362500D03*
X159985000Y-109362500D03*
%TD*%
D22*
%TO.C,C15*%
X162200000Y-109325000D03*
X162200000Y-107600000D03*
%TD*%
D12*
%TO.C,R7*%
X136812500Y-106090000D03*
X134987500Y-106090000D03*
%TD*%
%TO.C,R11*%
X136912500Y-118900000D03*
X135087500Y-118900000D03*
%TD*%
D33*
%TO.C,U2*%
X143650000Y-101850000D03*
X143000000Y-101850000D03*
X142350000Y-101850000D03*
X142350000Y-99950000D03*
X143650000Y-99950000D03*
%TD*%
D12*
%TO.C,R9*%
X136912500Y-111170000D03*
X135087500Y-111170000D03*
%TD*%
D15*
%TO.C,C13*%
X160300000Y-106200000D03*
X160300000Y-107925000D03*
%TD*%
D34*
%TO.C,X1*%
X150570000Y-98245000D03*
D35*
X151840000Y-97790000D03*
X153110000Y-97790000D03*
X153110000Y-100860000D03*
X151840000Y-100860000D03*
X150570000Y-100860000D03*
%TD*%
M02*
